<?xml version="1.0" encoding="utf-8"?>
<!-- Generator: Adobe Illustrator 19.0.0, SVG Export Plug-In . SVG Version: 6.00 Build 0)  -->
<svg version="1.1" id="Layer_1" xmlns="http://www.w3.org/2000/svg" xmlns:xlink="http://www.w3.org/1999/xlink" x="0px" y="0px"
	 viewBox="0 0 90.5 40" style="enable-background:new 0 0 90.5 40;" xml:space="preserve">
<style type="text/css">
	.st0{fill:#848585;}
	.st1{fill:#221E20;}
	.st2{fill:#2BAAE2;}
	.st3{fill:#0971B7;}
	.st4{fill:#F19004;}
	.st5{fill:#8CBF43;}
	.st6{fill:#D6DA2C;}
</style>
<g id="XMLID_17_">
	<g id="XMLID_15_">
		<path id="XMLID_38_" class="st0" d="M90.5,0v27.9h-6.4V26h4V1.9h-4V0H90.5z"/>
	</g>
	<g id="XMLID_14_">
		<path id="XMLID_36_" class="st0" d="M0,27.9V0h6.4V2h-4v24h4v1.9H0z"/>
	</g>
	<g id="XMLID_28_">
		<path id="XMLID_34_" class="st1" d="M20.5,19.3c0.8,0,1.7-0.2,2.8-0.5v3.3c-1.1,0.5-2.5,0.7-4.1,0.7c-1.8,0-3.1-0.5-3.9-1.4
			c-0.8-0.9-1.2-2.3-1.2-4.1V9.6h-2.1V7.7l2.5-1.5l1.3-3.5h2.9v3.5h4.6v3.4h-4.6v7.9c0,0.6,0.2,1.1,0.5,1.4
			C19.4,19.2,19.9,19.3,20.5,19.3z"/>
		<path id="XMLID_32_" class="st1" d="M31.3,22.9c-5.1,0-7.7-2.8-7.7-8.4c0-2.8,0.7-4.9,2.1-6.4c1.4-1.5,3.4-2.2,6-2.2
			c1.9,0,3.6,0.4,5.1,1.1l-1.3,3.5c-0.7-0.3-1.4-0.5-2-0.7c-0.6-0.2-1.2-0.3-1.8-0.3c-2.3,0-3.5,1.7-3.5,5c0,3.2,1.2,4.8,3.5,4.8
			c0.9,0,1.7-0.1,2.4-0.3c0.7-0.2,1.5-0.6,2.2-1.1v3.8c-0.7,0.5-1.5,0.8-2.2,1C33.4,22.8,32.4,22.9,31.3,22.9z"/>
		<path id="XMLID_29_" class="st1" d="M53.1,14.4c0,2.7-0.7,4.8-2.1,6.3c-1.4,1.5-3.4,2.3-5.9,2.3c-1.6,0-3-0.3-4.2-1
			c-1.2-0.7-2.1-1.7-2.8-3c-0.6-1.3-1-2.8-1-4.5c0-2.7,0.7-4.8,2.1-6.2c1.4-1.5,3.4-2.2,5.9-2.2c1.6,0,3,0.3,4.2,1
			c1.2,0.7,2.1,1.7,2.8,2.9C52.7,11.2,53.1,12.7,53.1,14.4z M41.7,14.4c0,1.6,0.3,2.9,0.8,3.7c0.5,0.8,1.4,1.2,2.6,1.2
			c1.2,0,2.1-0.4,2.6-1.2c0.5-0.8,0.8-2.1,0.8-3.7c0-1.6-0.3-2.8-0.8-3.7c-0.5-0.8-1.4-1.2-2.6-1.2c-1.2,0-2.1,0.4-2.6,1.2
			C42,11.5,41.7,12.8,41.7,14.4z"/>
	</g>
	<path id="XMLID_9_" class="st2" d="M7.1,28.7C20.6,19,25.3,29.6,36,30.6c-7.1-1.5-10.7-7.1-16.5-8.7C15.8,22.1,11.9,23.9,7.1,28.7"
		/>
	<path id="XMLID_8_" class="st2" d="M51.7,25.9c-6,1.9-10.9,1.7-15,0.7c2.8,1.2,5.9,2,9.8,2.1C48,27.9,49.8,27,51.7,25.9"/>
	<path id="XMLID_7_" class="st3" d="M46.4,28.6c-3.8-0.1-7-0.9-9.8-2.1c-6.6-1.6-11.5-5-17.2-4.7c5.9,1.6,9.5,7.1,16.5,8.7
		C38.9,30.9,42.3,30.4,46.4,28.6"/>
	<path id="XMLID_6_" class="st4" d="M31.8,32.7c-9.1,0.5-18.2,1.8-23,7.3c14.7-10.2,36.3,4.7,46.6-8.6
		C50.9,36.4,43.5,39.3,31.8,32.7"/>
	<path id="XMLID_5_" class="st5" d="M55.4,31.4c5.1-5.6,6.7-13.7,6.7-13.7s-0.6,0.8-1,1.4c-1,1.4-2.4,3.1-4.5,5.1
		c-7.3,6.8-20.5,12-32.2,3.5c2.6,2.1,5.1,3.8,7.4,5.1c10.5-0.5,21,0.2,24.5-2.6C56.1,30.5,55.8,30.9,55.4,31.4"/>
	<path id="XMLID_4_" class="st6" d="M55.4,31.4c0.3-0.4,0.6-0.8,0.9-1.3c-3.6,2.9-14,2.1-24.5,2.6C43.5,39.3,50.9,36.4,55.4,31.4"/>
	<path id="XMLID_19_" class="st0" d="M76.5,18.6l0,4l-4.1,0l0-4l-8.5,0l0-3.6L71,3.9l5.5,0l0,11.3l2.3,0l0,3.4L76.5,18.6z M72.4,8
		L68,15.2l4.4,0L72.4,8z"/>
	<path id="XMLID_1_" class="st0" d="M58,8.7l0,11.7c1.9-1.8,3.2-3.5,4.2-4.8l0-11.8l-3.8,0L52.9,7l1.8,3.4L58,8.7z"/>
</g>
</svg>
