<?xml version="1.0" encoding="UTF-8" standalone="no"?>
<svg width="59px" height="44px" viewBox="0 0 59 44" version="1.1" xmlns="http://www.w3.org/2000/svg" xmlns:xlink="http://www.w3.org/1999/xlink">
    <!-- Generator: sketchtool 50.2 (55047) - http://www.bohemiancoding.com/sketch -->
    <title>E1BB330F-88AC-4FB1-AA27-EF9D06432499</title>
    <desc>Created with sketchtool.</desc>
    <defs></defs>
    <g id="Symbols" stroke="none" stroke-width="1" fill="none" fill-rule="evenodd">
        <g id="nav/primary/compet_overview" transform="translate(-20.000000, -8.000000)">
            <g id="menu">
                <g>
                    <g id="top-bar">
                        <g id="TCO19logo/black" transform="translate(20.000000, 8.000000)">
                            <g id="Shape">
                                <path d="M12.3709677,9.40672343 C18.3633633,9.64888347 19.899875,12.3126439 25.7898365,15.3638604 C31.6797979,18.4150768 36.1612903,11.9009718 36.1612903,11.9009718 C31.6797979,14.0077641 27.1214799,10.3269316 23.3058092,7.85689919 C26.1995729,5.96805089 29.1701622,6.57345099 29.1701622,6.57345099 C19.3364874,1.22171415 12.3709677,9.40672343 12.3709677,9.40672343" fill="#5B8C19" fill-rule="nonzero"></path>
                                <path d="M24.0658311,0.985584033 C23.9644947,1.03478563 23.8631582,1.08398723 23.7618217,1.10858803 C23.7618217,1.10858803 23.7364876,1.10858803 23.7364876,1.13318882 C23.1284687,1.42839841 22.5204498,1.77280959 21.8870968,2.16642236 C30.5767001,2.31402715 34.5034888,7.25878766 38.6582846,10.6536979 C47.1198808,17.591123 52.3387097,12.4249554 52.3387097,12.4249554 C46.7145349,11.613129 43.9024475,7.23418686 35.4661854,2.06801917 C34.5034888,1.4776 33.5407922,1.03478563 32.654098,0.714975249 C32.654098,0.714975249 32.6287639,0.714975249 32.6287639,0.714975249 C32.5274274,0.690374451 32.4260909,0.641172853 32.3247544,0.616572055 C31.2353873,0.247560077 29.918013,-0.0230487069 28.4232999,0.00155209159 C28.3219634,0.00155209159 28.245961,0.00155209159 28.1446246,0.00155209159 C28.0432881,0.00155209159 27.9672857,0.00155209159 27.8659492,0.0261528901 C26.3965702,0.124556084 25.1045301,0.518168861 24.0658311,0.985584033" fill="#EA6840" fill-rule="nonzero"></path>
                                <path d="M17.5868238,20.3993452 C23.792442,25.9029474 28.5483871,20.3735067 28.5483871,20.3735067 C26.9461168,20.2443142 25.3692794,19.675867 23.9959049,18.6681652 C22.4190675,17.5312708 20.8676629,16.3943765 19.3416912,15.4125132 C11.9407285,10.6840662 5.70967742,12.8803394 5.70967742,12.8803394 C10.2112939,13.8105257 12.5511172,15.9292833 17.5868238,20.3993452" fill="#2E73B5" fill-rule="nonzero"></path>
                                <path d="M34.4462433,18.1311248 C31.695022,21.5111658 29.6941338,23.4706099 24.7419355,24.5972902 C24.7669466,24.5972902 24.7919577,24.6217833 24.8169688,24.6217833 C27.7682789,25.6504914 31.4198999,26.899637 36.1970205,23.2746655 C39.7235859,20.6049229 39.498486,18.8904094 44.7258065,16.8574861 C39.0983084,13.6978825 36.4471315,15.6818197 34.4462433,18.1311248" fill="#EAA640" fill-rule="nonzero"></path>
                                <path d="M36.8624788,5.27443481 C40.6689304,8.00676746 43.2733447,10.0919687 45.6774194,9.37293379 C42.9978778,7.50344303 40.0428693,4.89094953 35.3098472,2.0148099 C34.3582343,1.43958197 33.4066214,1.00816103 32.5301358,0.696579234 C32.5301358,0.696579234 32.5050934,0.696579234 32.5050934,0.696579234 C32.4049236,0.672611404 32.3047538,0.624675744 32.204584,0.600707913 C31.1277589,0.241190459 29.8255518,-0.0224556733 28.3480475,0.00151215692 C28.2478778,0.00151215692 28.1727504,0.00151215692 28.0725806,0.00151215692 C27.9724109,0.00151215692 27.8972835,0.00151215692 27.7971138,0.0254799872 C26.3196095,0.121351308 25.0674873,0.504836592 24.040747,0.960225367 C23.9405772,1.00816103 23.8404075,1.05609669 23.7402377,1.08006452 C23.7402377,1.08006452 23.7151952,1.08006452 23.7151952,1.10403235 C23.1141766,1.39164631 22.5131579,1.72719594 21.8870968,2.11068122 C21.9121392,2.13464905 27.6468591,-1.34068634 36.8624788,5.27443481" fill="#FE9751" fill-rule="nonzero"></path>
                                <path d="M23.2802007,8.42349905 C23.2802007,8.42349905 18.1584951,3.53354606 12.3709677,10.0450379 C18.3633633,10.2984033 19.899875,13.0854231 25.7898365,16.2778277 C31.6797979,19.4702322 36.1612903,12.6547019 36.1612903,12.6547019 C31.6541894,14.8843178 27.0958714,11.0078265 23.2802007,8.42349905" fill="#72AA29" fill-rule="nonzero"></path>
                                <path d="M28.2152268,14.4455964 C25.5269683,13.5834131 22.8387097,14.741972 22.8387097,14.741972 C23.5356656,15.2269501 24.2824041,15.7119282 25.1287077,16.2238496 C30.8537029,19.6186965 35.2096774,12.3709677 35.2096774,12.3709677 C35.2096774,12.3709677 32.1729409,15.7388715 28.2152268,14.4455964" fill="#98C257" fill-rule="nonzero"></path>
                                <path d="M34.6663993,18.2046108 C33.5377829,19.6642194 32.5318422,20.8470058 31.4032258,21.8284668 L31.4032258,21.8536324 C31.4032258,21.8536324 34.0530209,22.2562831 36.1385077,20.2681954 C38.2239945,18.2801078 39.4016812,15.7887068 44.7258065,16.9211618 C39.2299352,13.6496251 36.6292105,15.6880441 34.6663993,18.2046108" fill="#FED251" fill-rule="nonzero"></path>
                                <path d="M28.5483871,20.4515935 C21.607917,22.6533586 19.4900529,18.92537 17.0915081,17.173966 C15.7136206,16.1731637 13.7743716,16.0981036 12.3709677,16.2232039 C13.8764374,17.2990663 15.4839727,18.7001895 17.5763203,20.4766136 C23.7768139,25.8058858 28.5483871,20.4515935 28.5483871,20.4515935" fill="#4FA8DB" fill-rule="nonzero"></path>
                                <polygon fill="#FFFFFF" fill-rule="nonzero" points="3.90118231 33.4461726 0 33.4461726 0 30.4516129 11.4193548 30.4516129 11.4193548 33.4461726 7.49233689 33.4461726 7.49233689 42.8225806 3.90118231 42.8225806"></polygon>
                                <path d="M19.0302879,43.7741935 C18.1082281,43.7741935 17.237394,43.6216449 16.4177853,43.2911229 C15.5981767,42.9606008 14.9066319,42.5029549 14.3175382,41.9181852 C13.7284445,41.3334154 13.2418019,40.6215218 12.9088359,39.8079291 C12.5502571,38.9943364 12.3709677,38.1044693 12.3709677,37.1637528 L12.3709677,37.138328 C12.3709677,36.2230362 12.5502571,35.3331692 12.8832231,34.5195765 C13.2161891,33.7059837 13.7028318,32.9940901 14.2919255,32.3838956 C14.9066319,31.7737011 15.5981767,31.3160552 16.4433981,30.9601083 C17.2630067,30.6295863 18.1850665,30.4516129 19.1583517,30.4516129 C19.8242837,30.4516129 20.4133774,30.5278872 20.9768583,30.6550111 C21.5147265,30.7821349 22.0013691,30.9601083 22.462399,31.2143561 C22.9234288,31.443179 23.3076204,31.7482763 23.6918119,32.0533736 C24.0760035,32.3584708 24.3833567,32.7398424 24.6650972,33.121214 L21.9757564,35.1806205 C21.6171776,34.7229746 21.2073733,34.3416031 20.7463434,34.0873553 C20.3109263,33.8076828 19.7730582,33.680559 19.1327389,33.680559 C18.6717091,33.680559 18.2619048,33.7568333 17.8777132,33.9348067 C17.4935217,34.1127801 17.1861684,34.3416031 16.904428,34.6467003 C16.6226875,34.9517976 16.4177853,35.3077444 16.2641087,35.7145408 C16.1104321,36.1213371 16.0335938,36.578983 16.0335938,37.0366289 L16.0335938,37.0620537 C16.0335938,37.5451244 16.1104321,37.9773455 16.2641087,38.4095666 C16.4177853,38.8417877 16.6226875,39.1977345 16.904428,39.5028318 C17.1861684,39.8079291 17.4935217,40.036752 17.8777132,40.2147254 C18.2619048,40.3926988 18.6717091,40.4689732 19.1327389,40.4689732 C19.4657049,40.4689732 19.7730582,40.4435484 20.0547986,40.3672741 C20.3365391,40.2909998 20.5926668,40.1893007 20.8231817,40.036752 C21.0536967,39.8842034 21.2585988,39.7316548 21.463501,39.5536814 C21.6684031,39.375708 21.8733053,39.146885 22.0525947,38.9180621 L24.7419355,40.82492 C24.4345822,41.2317163 24.1016162,41.6130879 23.7430375,41.9690347 C23.3844587,42.3249815 22.9746544,42.6300788 22.5136245,42.8843265 C22.0525947,43.1385742 21.5403393,43.3419724 20.9768583,43.4945211 C20.3877646,43.6979192 19.7474454,43.7741935 19.0302879,43.7741935" fill="#FFFFFF" fill-rule="nonzero"></path>
                                <path d="M32.3548387,43.7741935 C31.3997272,43.7741935 30.5180859,43.5968968 29.7099146,43.2423034 C28.9017434,42.88771 28.1915323,42.4318042 27.6037713,41.8239298 C27.0160104,41.2160554 26.5506997,40.5321967 26.2078392,39.7216975 C25.8649787,38.9111983 25.6935484,38.0500429 25.6935484,37.1382313 L25.6935484,37.1129032 C25.6935484,36.2010916 25.8649787,35.3399362 26.2078392,34.529437 C26.5506997,33.7189378 27.0160104,33.009751 27.6037713,32.4018766 C28.1915323,31.7940022 28.9017434,31.3380964 29.7099146,30.983503 C30.5180859,30.6289096 31.3997272,30.4516129 32.3548387,30.4516129 C33.3099502,30.4516129 34.1915916,30.6289096 34.9997628,30.983503 C35.8079341,31.3380964 36.5181452,31.7940022 37.1059061,32.4018766 C37.693667,33.009751 38.1589777,33.6936097 38.5018382,34.5041089 C38.8446988,35.3146081 39.016129,36.1757635 39.016129,37.0875751 L39.016129,37.1129032 C39.016129,38.0247148 38.8446988,38.8858702 38.5018382,39.6963694 C38.1589777,40.5068686 37.693667,41.2160554 37.1059061,41.8239298 C36.5181452,42.4318042 35.8079341,42.88771 34.9997628,43.2423034 C34.1915916,43.5968968 33.3099502,43.7741935 32.3548387,43.7741935 M32.3793287,40.5828529 C32.8446395,40.5828529 33.2854602,40.4815405 33.6773008,40.3042438 C34.0691414,40.1269471 34.3875119,39.8736661 34.6569023,39.5697289 C34.9262927,39.2657917 35.146703,38.8858702 35.2936433,38.4806206 C35.4405835,38.075371 35.5140536,37.6194652 35.5140536,37.1635594 L35.5140536,37.1382313 C35.5140536,36.6823255 35.4405835,36.2264197 35.2936433,35.8211701 C35.146703,35.4159205 34.9262927,35.035999 34.6324122,34.7320618 C34.3385318,34.4281246 34.0201613,34.1748436 33.6283207,33.9722188 C33.2364801,33.7949221 32.8201494,33.6936097 32.3303487,33.6936097 C31.8405479,33.6936097 31.4242173,33.7949221 31.0568667,33.9722188 C30.6650261,34.1495155 30.3466556,34.4027965 30.0772652,34.7067337 C29.8078748,35.0106709 29.5874644,35.3905924 29.4405242,35.795842 C29.293584,36.2010916 29.2201139,36.6569974 29.2201139,37.1129032 L29.2201139,37.1382313 C29.2201139,37.5941371 29.293584,38.0500429 29.4405242,38.4552925 C29.5874644,38.8605421 29.8078748,39.2404636 30.0772652,39.5444008 C30.3466556,39.848338 30.6895161,40.101619 31.0813567,40.3042438 C31.4731973,40.4815405 31.914018,40.5828529 32.3793287,40.5828529" fill="#FFFFFF" fill-rule="nonzero"></path>
                                <polygon fill="#FFFFFF" fill-rule="nonzero" points="42.9372328 33.6174117 40.6632984 34.1044577 39.9677419 31.4744094 43.9003109 30.4516129 46.6290323 30.4516129 46.6290323 42.8225806 42.9372328 42.8225806"></polygon>
                                <path d="M53.1622208,43.7741935 C52.2311957,43.7741935 51.400822,43.6470697 50.6710996,43.3673972 C49.96654,43.0877247 49.3123061,42.7317779 48.7335608,42.2487072 L50.3943083,39.7825043 C50.8220766,40.1384511 51.2750078,40.3926988 51.7027761,40.5706722 C52.1305444,40.7232209 52.6086383,40.82492 53.1118952,40.82492 C53.8416176,40.82492 54.3952001,40.596097 54.7978055,40.1130263 C55.200411,39.6299557 55.4268766,38.9943364 55.5023651,38.1553189 C55.1752481,38.4604162 54.7978055,38.7146639 54.3448744,38.9180621 C53.8919432,39.0960355 53.3886864,39.1977345 52.8099411,39.1977345 C52.18087,39.1977345 51.6272875,39.0960355 51.0988679,38.9180621 C50.5704482,38.7400886 50.1175171,38.4604162 49.7400744,38.1044693 C49.3626318,37.7485225 49.0606777,37.3417262 48.859375,36.8332307 C48.6580723,36.3247353 48.5322581,35.7653903 48.5322581,35.1551958 L48.5322581,35.129771 C48.5322581,34.4178774 48.6580723,33.7822581 48.9097007,33.1974883 C49.1613291,32.6127185 49.5136089,32.1296479 49.96654,31.7228515 C50.4194712,31.3160552 50.9478908,31.0109579 51.5769618,30.7821349 C52.18087,30.553312 52.8602667,30.4516129 53.5899891,30.4516129 C54.4958514,30.4516129 55.2758995,30.5787368 55.8546449,30.8329845 C56.458553,31.0872322 56.9869727,31.4686038 57.4650667,31.9516745 C57.9179978,32.4093204 58.2954404,33.0195149 58.5722317,33.7822581 C58.849023,34.5450012 59,35.5111426 59,36.6806821 L59,36.7061069 C59,37.7485225 58.8741858,38.7146639 58.6225574,39.5791061 C58.370929,40.4435484 57.9934864,41.1808668 57.5153924,41.7910613 C57.0121355,42.4012558 56.4082274,42.8843265 55.678505,43.2402733 C54.9739454,43.5962201 54.1184088,43.7741935 53.1622208,43.7741935 M53.7912919,36.6552573 C54.3448744,36.6552573 54.7978055,36.5027087 55.0997596,36.1721867 C55.4268766,35.8416646 55.5778536,35.460293 55.5778536,34.9772224 L55.5778536,34.9517976 C55.5778536,34.4433021 55.4017137,34.0365058 55.0745968,33.7059837 C54.7474798,33.3754617 54.2945487,33.1974883 53.7409662,33.1974883 C53.1873837,33.1974883 52.7344525,33.3500369 52.4324984,33.680559 C52.1053815,34.011081 51.9544045,34.4178774 51.9544045,34.9263728 L51.9544045,34.9517976 C51.9544045,35.4348683 52.1305444,35.8416646 52.4576613,36.1721867 C52.7847782,36.4772839 53.2125465,36.6552573 53.7912919,36.6552573" fill="#FFFFFF" fill-rule="nonzero"></path>
                            </g>
                        </g>
                    </g>
                </g>
            </g>
        </g>
    </g>
</svg>