<?xml version="1.0" encoding="utf-8"?>
<!-- Generator: Adobe Illustrator 19.0.0, SVG Export Plug-In . SVG Version: 6.00 Build 0)  -->
<svg version="1.1" id="Layer_1" xmlns="http://www.w3.org/2000/svg" xmlns:xlink="http://www.w3.org/1999/xlink" x="0px" y="0px"
	 viewBox="0 0 140.8 40" style="enable-background:new 0 0 140.8 40;" xml:space="preserve">
<style type="text/css">
	.st0{fill:#8BC53F;}
	.st1{fill:#D6DE23;}
	.st2{fill:#26A9E0;}
	.st3{fill:#1B75BB;}
	.st4{fill:#F6921E;}
	.st5{opacity:0.1;fill:#231F20;}
	.st6{fill:#231F20;}
	.st7{fill:#444445;}
</style>
<g>
	<g>
		<rect id="XMLID_18_" class="st0" width="13.3" height="13.3"/>
		<rect id="XMLID_17_" y="13.3" class="st1" width="13.3" height="13.3"/>
		<rect id="XMLID_16_" x="13.3" y="0" class="st0" width="13.3" height="13.3"/>
		<rect id="XMLID_15_" x="30.7" class="st2" width="9.3" height="9.3"/>
		<rect id="XMLID_14_" x="0" y="30.7" class="st1" width="9.3" height="9.3"/>
		<rect id="XMLID_13_" x="26.7" y="13.3" class="st3" width="13.3" height="13.3"/>
		<rect id="XMLID_12_" x="13.3" y="26.7" class="st4" width="13.3" height="13.3"/>
		<rect id="XMLID_11_" x="26.7" y="26.7" class="st4" width="13.3" height="13.3"/>
		<polygon id="XMLID_10_" class="st5" points="13.3,13.3 0,13.3 13.3,26.7 		"/>
		<polygon id="XMLID_9_" class="st5" points="26.7,26.7 40,26.7 26.7,13.3 		"/>
		<polygon id="XMLID_8_" class="st5" points="30.7,0 30.7,9.3 40,9.3 40,9.3 		"/>
		<polygon id="XMLID_7_" class="st5" points="9.3,40 9.3,30.7 0,30.7 0,30.7 		"/>
	</g>
	<g>
		<path class="st6" d="M59.4,39.2c-4.8,0-6.8-3.4-6.8-6.7V20.8h-2.5v-4.5h2.5v-7h5.9v7h4.2v4.5h-4.2v11.3c0,1.4,0.6,2.1,2,2.1h2.1v5
			H59.4z"/>
		<path class="st6" d="M74.4,39.5c-4.7,0-10.5-2.5-10.5-12.1s5.8-12,10.5-12c3.3,0,5.7,1,7.8,3.2l-4,4c-1.2-1.3-2.3-1.9-3.8-1.9
			c-1.4,0-2.5,0.5-3.3,1.5c-0.9,1.1-1.3,2.7-1.3,5.2s0.4,4.1,1.3,5.2c0.9,1,1.9,1.5,3.3,1.5c1.5,0,2.6-0.5,3.8-1.9l4,3.9
			C80.1,38.4,77.7,39.5,74.4,39.5z"/>
		<path class="st6" d="M99.5,36.6c-1.4,1.5-3.8,2.9-7.3,2.9c-3.5,0-5.8-1.4-7.3-2.9c-2.1-2.2-2.7-4.9-2.7-9.2c0-4.3,0.5-6.9,2.7-9.1
			c1.4-1.5,3.8-2.9,7.3-2.9c3.5,0,5.9,1.4,7.3,2.9c2.1,2.2,2.7,4.9,2.7,9.1C102.2,31.7,101.7,34.4,99.5,36.6z M95,21.7
			c-0.7-0.7-1.6-1-2.8-1c-1.2,0-2,0.4-2.7,1c-1.2,1.2-1.4,3.3-1.4,5.7c0,2.4,0.1,4.5,1.4,5.7c0.7,0.7,1.5,1,2.7,1
			c1.2,0,2.1-0.4,2.8-1c1.2-1.2,1.4-3.3,1.4-5.7C96.3,24.9,96.2,22.9,95,21.7z"/>
		<path class="st7" d="M111.7,39.2V16.4l-5.8,5v-5.6l5.8-5h5.2v28.4H111.7z"/>
		<path class="st7" d="M138.3,37.1c-1.3,1.3-3.3,2.3-6.3,2.3c-3,0-5.1-1-6.3-2.3c-1.8-1.8-2.2-3.8-2.3-5.9h5.2
			c0.3,2.2,1.3,3.5,3.5,3.5c1,0,1.8-0.3,2.5-0.9c0.9-0.9,1.1-2.4,1.1-4.2c0-3.3-1-5.1-3.5-5.1c-2.1,0-3.1,1.2-3.4,2.3H124V10.8h16.2
			v4.7h-11.5v6.1c0.8-0.7,2.4-1.4,4.3-1.4c2.4,0,4.2,0.8,5.3,1.9c2.2,2.2,2.6,4.9,2.6,7.6C140.8,32.8,140.4,35,138.3,37.1z"/>
	</g>
</g>
</svg>
