<?xml version="1.0" encoding="utf-8"?>
<!-- Generator: Adobe Illustrator 19.0.0, SVG Export Plug-In . SVG Version: 6.00 Build 0)  -->
<svg version="1.1" xmlns="http://www.w3.org/2000/svg" xmlns:xlink="http://www.w3.org/1999/xlink" x="0px" y="0px"
	 viewBox="0 0 63.7 39.7" style="enable-background:new 0 0 63.7 39.7;" xml:space="preserve">
<style type="text/css">
	.st0{fill:#0A73B8;}
	.st1{fill:#0E6F8B;}
	.st2{fill:#29A7DF;}
	.st3{fill:#56822F;}
	.st4{fill:#8AC441;}
	.st5{fill:#AA5B17;}
	.st6{fill:#F59121;}
	.st7{display:none;}
</style>
<g id="Layer_1">
	<g id="XMLID_15_">
		<g id="XMLID_24_">
			<path id="XMLID_34_" d="M2.7,28.6H0v-3.8h10.1v3.8H7.5v10.7H2.7V28.6z"/>
			<path id="XMLID_32_" d="M9.9,32.1c0-1.2,0.2-2.2,0.6-3.1s1-1.7,1.7-2.4c0.7-0.7,1.5-1.2,2.4-1.5c0.9-0.4,1.9-0.5,3-0.5
				c0.8,0,1.6,0.1,2.2,0.2c0.6,0.2,1.2,0.3,1.7,0.5c0.5,0.2,1,0.5,1.4,0.8l-2.3,4c-0.2-0.2-0.5-0.3-0.8-0.5
				c-0.2-0.1-0.5-0.2-0.9-0.3c-0.3-0.1-0.7-0.2-1.2-0.2c-0.4,0-0.9,0.1-1.2,0.2c-0.4,0.2-0.7,0.4-1,0.7c-0.3,0.3-0.5,0.6-0.7,1
				c-0.2,0.4-0.2,0.8-0.2,1.2c0,0.4,0.1,0.8,0.3,1.2c0.2,0.4,0.4,0.7,0.7,1c0.3,0.3,0.6,0.5,1,0.7c0.4,0.2,0.8,0.2,1.3,0.2
				c0.5,0,0.9-0.1,1.2-0.2c0.4-0.1,0.7-0.2,0.9-0.4c0.3-0.2,0.5-0.3,0.8-0.6l2.3,4c-0.4,0.3-0.9,0.6-1.4,0.8c-0.5,0.2-1,0.4-1.7,0.6
				c-0.7,0.2-1.4,0.3-2.2,0.3c-1.1,0-2.2-0.2-3.1-0.6c-1-0.4-1.8-0.9-2.5-1.6c-0.7-0.7-1.2-1.5-1.6-2.4C10.1,34.2,9.9,33.2,9.9,32.1
				z"/>
			<path id="XMLID_29_" d="M21.9,32.1c0-1,0.2-2,0.6-3c0.4-0.9,0.9-1.7,1.6-2.4c0.7-0.7,1.5-1.2,2.4-1.6c0.9-0.4,1.9-0.6,3-0.6
				c1,0,2,0.2,3,0.6c0.9,0.4,1.7,0.9,2.4,1.6c0.7,0.7,1.2,1.5,1.6,2.4c0.4,0.9,0.6,1.9,0.6,3c0,1-0.2,2-0.6,3
				c-0.4,0.9-0.9,1.7-1.6,2.4c-0.7,0.7-1.5,1.2-2.4,1.6c-0.9,0.4-1.9,0.6-3,0.6c-1,0-2-0.2-3-0.6c-0.9-0.4-1.7-0.9-2.4-1.6
				c-0.7-0.7-1.2-1.5-1.6-2.4C22.1,34.1,21.9,33.1,21.9,32.1z M26.5,32.1c0,0.4,0.1,0.8,0.2,1.2c0.2,0.4,0.4,0.7,0.7,1
				c0.3,0.3,0.6,0.5,1,0.7c0.4,0.2,0.8,0.2,1.2,0.2c0.4,0,0.8-0.1,1.2-0.2c0.4-0.2,0.7-0.4,1-0.7c0.3-0.3,0.5-0.6,0.7-1
				c0.2-0.4,0.2-0.8,0.2-1.2c0-0.4-0.1-0.8-0.2-1.2c-0.2-0.4-0.4-0.7-0.7-1c-0.3-0.3-0.6-0.5-1-0.7C30.4,29.1,30,29,29.5,29
				c-0.4,0-0.8,0.1-1.2,0.2c-0.4,0.2-0.7,0.4-1,0.7c-0.3,0.3-0.5,0.6-0.7,1C26.6,31.3,26.5,31.7,26.5,32.1z"/>
			<path id="XMLID_27_" class="st0" d="M39,30.5l-2-2.3l3.2-3.4h3.5v14.5H39V30.5z"/>
			<path id="XMLID_25_" class="st0" d="M48.3,28.9h-4l1.6-4h8.8L49,39.3h-4.9L48.3,28.9z"/>
		</g>
		<g id="XMLID_16_">
			<path id="XMLID_7_" class="st1" d="M11.9,10.4c-1.3,0.1-2.4,0.6-3.2,1.4c2.6,2.6,2.8,8,2.8,9.2c0.7-3.6,1.5-6.4,2.6-8.6
				C13.5,11.5,12.7,10.9,11.9,10.4z"/>
			<path id="XMLID_6_" class="st2" d="M11.9,10.4c0,0-0.4-0.2-0.9-0.4c-0.6-0.2-1.4-0.4-2.3-0.4c-0.7,0-1.5,0.1-2.3,0.4
				c-0.3,0.1-0.6,0.3-0.9,0.4C3.4,11.7,1.2,14.7,0,21.3h5.9c0,0-0.2-6.4,2.8-9.4C9.6,11.1,10.6,10.5,11.9,10.4
				C11.9,10.4,11.9,10.4,11.9,10.4z"/>
			<path id="XMLID_5_" class="st3" d="M27.9,6.4c-1.8,0.1-3.2,0.9-4.3,2c3.6,3.6,3.9,10.9,3.9,12.5c0.9-5,2.3-8.7,3.8-11.4
				C30.1,8.1,29,7.1,27.9,6.4z"/>
			<path id="XMLID_4_" class="st4" d="M27.9,6.4c-0.1-0.1-0.5-0.3-1.2-0.6c-0.8-0.3-1.9-0.5-3.1-0.6c-1,0-2,0.1-3.1,0.6
				C20,6,19.6,6.2,19.2,6.4c-1.8,1-3.5,2.9-5,6c-1,2.2-1.9,5-2.6,8.6c0,0.1,0,0.2,0,0.2h0h5.9h2.1c0,0-0.2-8.8,3.9-12.9
				C24.6,7.3,26,6.6,27.9,6.4C27.9,6.4,27.9,6.4,27.9,6.4z"/>
			<path id="XMLID_3_" class="st5" d="M45.9,4.4c-2.1,0.2-3.7,1-4.9,2.2c4.8,4.6,4.8,14.6,4.8,14.6c1.4-5.1,3.2-9,5-11.8
				C49.3,6.9,47.6,5.3,45.9,4.4z"/>
			<path id="XMLID_2_" class="st6" d="M45.9,4.4c-0.1-0.1-0.7-0.4-1.7-0.7c-0.6-0.2-1.4-0.4-2.4-0.5c0,0,0,0,0,0c-0.1,0-0.1,0-0.2,0
				c-1.3-0.1-2.9,0-4.5,0.7c-0.4,0.2-0.8,0.4-1.2,0.6c-1.7,1-3.4,2.6-4.8,5.1c-1.5,2.7-2.9,6.3-3.8,11.4c0,0.1,0,0.2-0.1,0.3h0.1
				h8.1h1c0,0-0.2-10,4.4-14.6C42.3,5.4,43.9,4.6,45.9,4.4L45.9,4.4z"/>
			<path id="XMLID_1_" class="st0" d="M50.8,9.4c-1.8,2.9-3.6,6.7-5,11.8h8.9h0c0,0,1.6-15,9-21.3C61.3,0.9,55.7,1.7,50.8,9.4z"/>
		</g>
	</g>
</g>
<g id="Layer_2" class="st7">
</g>
</svg>
