<?xml version="1.0" encoding="UTF-8"?>
<svg width="99px" height="40px" viewBox="0 0 99 40" version="1.1" xmlns="http://www.w3.org/2000/svg" xmlns:xlink="http://www.w3.org/1999/xlink">
    <!-- Generator: sketchtool 51.3 (57544) - http://www.bohemiancoding.com/sketch -->
    <title>1CB1E6B7-79F7-4B61-ADE2-FC01AE86382E</title>
    <desc>Created with sketchtool.</desc>
    <defs></defs>
    <g id="TCO18" stroke="none" stroke-width="1" fill="none" fill-rule="evenodd">
        <g id="2-TCO18---Light-Nav" transform="translate(-20.000000, -10.000000)">
            <g id="nav/primary/home">
                <g id="menu">
                    <g id="top-bar">
                        <g id="logo/TCO18_2" transform="translate(20.000000, 10.000000)">
                            <g id="Group">
                                <g transform="translate(42.295775, 14.418605)" fill="#58595B" fill-rule="nonzero">
                                    <polygon id="Shape" points="4.16178501 3.594926 0.202914672 3.594926 0.202914672 0.382071882 11.8145669 0.382071882 11.8145669 3.594926 7.83637138 3.594926 7.83637138 13.6112474 4.16178501 13.6112474"></polygon>
                                    <path d="M11.4728159,7.03458774 L11.4728159,6.99704017 C11.4728159,3.14156448 14.4277926,0.117716702 18.4433671,0.117716702 C21.1519475,0.117716702 22.894776,1.25175476 24.0690366,2.85818182 L21.303752,4.99382664 C20.5460005,4.06782241 19.6748405,3.44397463 18.4054796,3.44397463 C16.5492426,3.44397463 15.2425026,5.03162791 15.2425026,6.9592389 L15.2425026,6.99678647 C15.2425026,8.98122622 16.5494969,10.5308245 18.4054796,10.5308245 C19.788249,10.5308245 20.602959,9.88845666 21.3985981,8.92439746 L24.1641369,10.8900634 C22.9141012,12.6098943 21.2279769,13.8761099 18.3108878,13.8761099 C14.5221301,13.8758562 11.4728159,10.9846934 11.4728159,7.03458774 Z" id="Shape"></path>
                                    <path d="M23.9924986,7.03458774 L23.9924986,6.99704017 C23.9924986,3.19839323 27.061138,0.117716702 31.152742,0.117716702 C35.244346,0.117716702 38.2748436,3.16059197 38.2748436,6.9592389 L38.2748436,6.99678647 C38.2748436,10.7954334 35.2064584,13.8758562 31.1148544,13.8758562 C27.0235047,13.8758562 23.9924986,10.8332347 23.9924986,7.03458774 Z M34.5054111,7.03458774 L34.5054111,6.99704017 C34.5054111,5.06942918 33.1417126,3.42520085 31.1148544,3.42520085 C29.0879962,3.42520085 27.7431144,5.05040169 27.7431144,6.9594926 L27.7431144,6.99704017 C27.7431144,8.90562368 29.1258838,10.5688795 31.152742,10.5688795 C33.1605293,10.5686258 34.5054111,8.94342495 34.5054111,7.03458774 Z" id="Shape"></path>
                                    <polygon id="Shape" points="41.1344656 3.68955603 38.8993529 4.21852008 38.1985598 1.38367865 42.081655 0.28744186 44.7523478 0.28744186 44.7523478 13.6112474 41.1344656 13.6112474"></polygon>
                                    <path d="M45.6232535,9.9638055 L45.6232535,9.92625793 C45.6232535,8.31983087 46.4565259,7.35602537 47.8774371,6.75095137 C46.8732892,6.18418605 46.0781587,5.29572939 46.0781587,3.85953488 L46.0781587,3.82173362 C46.0781587,1.72389006 48.0856917,0.155264271 51.0599936,0.155264271 C54.0337869,0.155264271 56.0606451,1.72389006 56.0606451,3.82173362 L56.0606451,3.85953488 C56.0606451,5.29572939 55.265006,6.18418605 54.2420414,6.75095137 C55.5869233,7.37479915 56.5150417,8.26300211 56.5150417,9.88820296 L56.5150417,9.92600423 C56.5150417,12.3072304 54.2420414,13.838055 51.0599936,13.838055 C47.8774371,13.8383087 45.6232535,12.2694292 45.6232535,9.9638055 Z M52.9729348,9.6048203 L52.9729348,9.56701903 C52.9729348,8.69784355 52.1961123,8.11179704 51.0599936,8.11179704 C49.9421829,8.11179704 49.1465438,8.69809725 49.1465438,9.56701903 L49.1465438,9.6048203 C49.1465438,10.3983932 49.8285202,11.0978436 51.0599936,11.0978436 C52.2912127,11.0978436 52.9729348,10.3983932 52.9729348,9.6048203 Z M52.7077217,4.29437632 L52.7077217,4.25657505 C52.7077217,3.51957717 52.0824496,2.85792812 51.0599936,2.85792812 C50.0558456,2.85792812 49.4305735,3.51932347 49.4305735,4.25657505 L49.4305735,4.29437632 C49.4305735,5.12575053 50.0746623,5.74959831 51.0599936,5.74959831 C52.0448163,5.74959831 52.7077217,5.12575053 52.7077217,4.29437632 Z" id="Shape"></path>
                                </g>
                                <g fill-rule="nonzero">
                                    <path d="M1.01932224,13.146242 C1.01932224,13.146242 4.01027205,7.86649682 9.50642688,8.87210191 C15.925727,10.0466242 19.2330888,18.863949 31.0510878,18.863949 C31.0510878,18.863949 26.9134325,18.2061146 19.6868598,10.3513376 C14.6304076,4.85248408 7.12707042,1.25707006 1.01932224,13.146242 Z" id="Shape" fill="#D8DF29"></path>
                                    <path d="M0.19133075,16.5574522 C0.19133075,16.5574522 2.25913527,12.903949 6.06426392,13.6002548 C10.5065649,14.4122293 12.879015,18.8636943 22.6056769,18.8636943 C22.6056769,18.8636943 19.0750107,18.5867516 13.7998582,14.6124841 C9.66706286,11.5003822 4.41748937,8.33095541 0.19133075,16.5574522 Z" id="Shape" fill="#FBED1F"></path>
                                    <path d="M0.19133075,23.4980892 C0.19133075,23.4980892 2.25913527,27.1515924 6.06426392,26.4552866 C10.5065649,25.642293 12.879015,21.1918471 22.6056769,21.1918471 C22.6056769,21.1918471 19.0750107,21.468535 13.7998582,25.4430573 C9.66706286,28.5566879 4.41748937,31.7248408 0.19133075,23.4980892 Z" id="Shape" fill="#F69220"></path>
                                    <path d="M33.1933272,8.71082803 C37.3450509,13.7378344 34.7331816,15.3979618 34.7331816,15.3979618 C35.8589124,15.8947771 36.8101945,15.8957962 37.689344,15.4058599 C38.2080856,14.3969427 38.2080856,13.0382166 37.5962365,11.4652229 C34.393237,4.81197452 27.5902522,0.204076433 19.6868598,0.204076433 C18.1216822,0.204076433 16.6005004,0.385987261 15.1373829,0.727898089 L15.1350808,0.729936306 C21.4730398,-0.45044586 29.0416034,3.68484076 33.1933272,8.71082803 Z" id="Shape" fill="#0A73B7"></path>
                                    <path d="M19.3008731,5.90420382 C25.4180855,11.8231847 29.9767708,18.0680255 35.2286464,17.1215287 C36.4474846,16.9016561 37.2752203,16.2805096 37.714923,15.3933758 C35.0401293,16.9166879 31.7629508,13.9592357 24.6993162,5.9656051 C17.6216132,-2.04535032 8.44362038,3.68611465 8.44362038,3.68611465 C8.71808281,3.55515924 14.2395608,1.00687898 19.3008731,5.90420382 Z" id="Shape" fill="#29A5DE"></path>
                                    <path d="M1.01932224,26.8379618 C1.01932224,26.8379618 4.01027205,32.1187261 9.50642688,31.1118471 C15.925727,29.9375796 19.2330888,21.1202548 31.0510878,21.1202548 C31.0510878,21.1202548 26.9134325,21.7780892 19.6868598,29.6326115 C14.6304076,35.131465 7.12707042,38.7266242 1.01932224,26.8379618 Z" id="Shape" fill="#8BC544"></path>
                                    <path d="M33.1933272,31.273121 C37.3450509,26.2458599 34.7331816,24.5872611 34.7331816,24.5872611 C35.8589124,24.089172 36.8101945,24.0878981 37.689344,24.5778344 C38.2080856,25.5870064 38.2080856,26.9454777 37.5962365,28.5184713 C34.3934928,35.1732484 27.5902522,39.7788535 19.6868598,39.7788535 C18.1216822,39.7788535 16.6005004,39.5982166 15.1373829,39.2552866 L15.1350808,39.2552866 C21.4730398,40.4341401 29.0416034,36.2991083 33.1933272,31.273121 Z" id="Shape" fill="#0A73B7"></path>
                                    <path d="M19.3008731,34.0797452 C25.4180855,28.1615287 29.9767708,21.9161783 35.2286464,22.8626752 C36.4474846,23.0825478 37.2752203,23.7036943 37.714923,24.590828 C35.0401293,23.0675159 31.7629508,26.0247134 24.6993162,34.0183439 C17.6216132,42.0305732 8.44362038,36.2991083 8.44362038,36.2991083 C8.71808281,36.428535 14.2395608,38.9770701 19.3008731,34.0797452 Z" id="Shape" fill="#29A5DE"></path>
                                </g>
                            </g>
                        </g>
                    </g>
                </g>
            </g>
        </g>
    </g>
</svg>