<?xml version="1.0" encoding="utf-8"?>
<!-- Generator: Adobe Illustrator 19.0.0, SVG Export Plug-In . SVG Version: 6.00 Build 0)  -->
<svg version="1.1" id="Layer_1" xmlns="http://www.w3.org/2000/svg" xmlns:xlink="http://www.w3.org/1999/xlink" x="0px" y="0px"
	 viewBox="0 0 39.2 40" style="enable-background:new 0 0 39.2 40;" xml:space="preserve">
<style type="text/css">
	.st0{fill:#F47920;}
	.st1{fill:#6D6E70;}
	.st2{fill:#A6A1A6;}
</style>
<g>
	<path id="XMLID_10_" class="st0" d="M38.2,9.7c-0.8-0.3-3.7-1.1-8.2-3.2c-4.1-1.9-9.5-5-10.2-5.6c-1.6-1.2-2.8-0.6-3.1,0.2
		c-0.1,0.4-0.4,2.8-0.5,5.7c0.5-0.1,0.7,0,0.9,0c0.2,0.1,3.3,0.9,3,1.1c-0.1,0.1-0.7,0.3-2.2,0.7c-0.4,0.1-1,0.3-1.7,0.5
		c0,0.4,0,0.9,0,1.3c3.3-0.8,5.6-1.5,6.1-1.6c1.3-0.3,1.7-0.2,1.9-0.2c0.2,0.1,3.3,0.9,3,1.1c-0.1,0.1-0.7,0.3-2.2,0.7
		c-1.1,0.3-4.5,1.2-8.6,2.2c0,0.5,0.1,0.9,0.1,1.3c0.6-0.1,1.1-0.3,1.7-0.4c5.8-1.4,10.8-2.8,11.5-3c1.3-0.3,1.7-0.2,1.9-0.2
		c0.2,0.1,3.3,0.9,3,1.1c-0.1,0.1-0.7,0.3-2.2,0.7c-1.7,0.5-8.5,2.2-15.4,3.9c1.7,5.3,18.3,11.9,19.3,12c1.1,0.1,1.6,0,1.7-0.8
		c0.2-0.8,1.1-15,1.3-15.8C39.3,10.7,39,10,38.2,9.7z"/>
	<g>
		<path id="XMLID_9_" class="st1" d="M15.7,0.6c0.1-0.5,0-1-1.6,0.1C13,1.4,7.6,4.7,5.9,6.1C5.3,6.6,5,7.6,4.8,8.3
			c0,0.1-0.2,0.7-0.4,1.5c4.4-1.1,8.3-2.1,10-2.6C15,4.5,15.5,1.9,15.7,0.6z"/>
		<path id="XMLID_8_" class="st1" d="M11.7,15.1c0.2-0.4,0.4-0.9,0.6-1.4c-3.3,0.8-6.7,1.6-9.7,2.4c-0.1,0.4-0.2,0.8-0.3,1.1
			C2.6,17.1,3,17.1,3.4,17C3.9,16.9,7.5,16.1,11.7,15.1z"/>
		<path id="XMLID_7_" class="st1" d="M13.3,11.2c0.1-0.5,0.3-0.9,0.4-1.4c-2.7,0.7-6.3,1.6-10,2.5c-0.1,0.4-0.2,0.8-0.4,1.3
			c2.4-0.5,5-1.1,7.5-1.8C11.6,11.6,12.5,11.4,13.3,11.2z"/>
		<path id="XMLID_6_" class="st1" d="M1.6,19.9C0.7,23.2,0,26,0,26.3c0,0.7,0.5,0.4,1,0.1c1.5-1.1,5.6-3.8,9-8.5
			c-3.5,0.9-6.6,1.6-8.1,1.9C1.8,19.8,1.7,19.8,1.6,19.9z"/>
	</g>
	<g>
		<path class="st2" d="M29.5,34.2c0-0.5,0.3-0.9,0.8-1.4l1.5-1.2c0.6-0.5,0.9-0.8,0.9-1.1v-1c0-0.4-0.2-0.5-0.6-0.5
			c-0.4,0-0.6,0.2-0.6,0.5v1.7h-1.9V30c0-1.3,0.8-1.9,2.3-2c-12-4.6-11.1-6.5-18.6-6.2c-4.4,0.2-12,5.6-12.4,6.3
			c-0.6,1,0.1,2.3,0.8,2.8c1.5,1,5,2.4,8.8,3.8v-5.4H8.7v-1H14v1h-1.7v6.1c6.1,2.1,12.6,3.9,14.5,4.3c2.7,0.5,4.3,0.6,5.4-0.6
			c0.4-0.4,1-1.4,1.6-2.7h-4.3V34.2z M19.5,31.2h-2v-1.8c0-0.3-0.2-0.5-0.6-0.5c-0.4,0-0.6,0.2-0.6,0.5V35c0,0.3,0.2,0.5,0.6,0.5
			c0.4,0,0.6-0.2,0.6-0.5v-1.8h2V35c0,1.1-0.8,1.6-2.5,1.6c-1.7,0-2.5-0.5-2.5-1.6v-5.4c0-1,0.8-1.5,2.5-1.5c1.7,0,2.5,0.7,2.5,2
			V31.2z M25.2,35c0,0.5-0.3,1-0.9,1.3c-0.5,0.2-1,0.3-1.6,0.3c-0.2,0-0.4,0-0.7-0.1c0.9-0.2,1.7-0.4,1.9-0.5
			c0.3-0.1,0.4-0.1,0.5-0.1c0,0-0.6-0.2-0.6-0.2c0,0-0.1,0-0.4,0c-0.1,0-1.1,0.3-2.2,0.6c0,0-0.1,0-0.1,0c-0.1,0-0.2-0.1-0.3-0.2
			c0.8-0.2,1.4-0.3,1.6-0.4c0.3-0.1,0.4-0.1,0.5-0.1c0,0,0,0,0,0c0.3,0,0.4-0.2,0.4-0.5v-5.5c0-0.3-0.2-0.5-0.6-0.5
			c-0.4,0-0.6,0.2-0.6,0.5V35c0,0.1,0,0.2,0.1,0.3c-0.1,0-0.1,0-0.3,0c-0.1,0-0.7,0.2-1.4,0.4c-0.1-0.1-0.1-0.2-0.1-0.2
			c0.3-0.1,0.5-0.1,0.7-0.2c0.3-0.1,0.4-0.1,0.5-0.1c0,0-0.6-0.2-0.6-0.2c0,0-0.1,0-0.4,0c0,0-0.1,0-0.2,0c0,0,0,0,0,0v-5.4
			c0-0.5,0.3-1,0.9-1.3c0.5-0.2,1-0.3,1.6-0.3c0.6,0,1.1,0.1,1.6,0.3c0.6,0.3,0.9,0.7,0.9,1.3V35z M28.8,36.4h-2v-6.5
			c0-0.5-0.2-0.7-0.6-0.7h-0.4v-0.9h1.6c1,0,1.5,0.6,1.5,1.8V36.4z"/>
		<path id="XMLID_1_" class="st2" d="M34.4,29C34.4,29,34.4,29,34.4,29c0,0.2,0.1,0.3,0.1,0.6v1.2c0,0.4-0.3,0.9-0.8,1.3l-1.5,1.1
			c-0.5,0.5-0.8,0.9-0.8,1.3v0.8h2.9c0.7-1.4,1.3-2.8,1.8-3.8C36.5,30.8,36.5,29.8,34.4,29z"/>
	</g>
</g>
</svg>
