<?xml version="1.0" encoding="UTF-8"?>
<svg width="186px" height="61px" viewBox="0 0 186 61" version="1.1" xmlns="http://www.w3.org/2000/svg" xmlns:xlink="http://www.w3.org/1999/xlink">
    <title>TCO20 Logo</title>
    <defs>
        <polygon id="path-1" points="0 0.685 58.3149 0.685 58.3149 43.127 0 43.127"></polygon>
        <polygon id="path-3" points="0.0713 0.5534 28.2443 0.5534 28.2443 14 0.0713 14"></polygon>
        <polygon id="path-5" points="0.4643 0.0271 114.952 0.0271 114.952 24.3411 0.4643 24.3411"></polygon>
    </defs>
    <g id="Symbols" stroke="none" stroke-width="1" fill="none" fill-rule="evenodd">
        <g id="logo-TCO20">
            <g id="Group-3" transform="translate(0.000000, 0.315400)">
                <mask id="mask-2" fill="white">
                    <use xlink:href="#path-1"></use>
                </mask>
                <g id="Clip-2"></g>
                <path d="M29.1579,14.916 C43.5449,14.916 55.2079,26.579 55.2079,40.966 C55.2079,41.694 55.1789,42.415 55.1199,43.127 C57.1629,39.143 58.3149,34.627 58.3149,29.842 C58.3149,13.739 45.2609,0.685 29.1579,0.685 C13.0539,0.685 -0.0001,13.739 -0.0001,29.842 C-0.0001,34.627 1.1529,39.143 3.1959,43.127 C3.1369,42.415 3.1069,41.694 3.1069,40.966 C3.1069,26.579 14.7709,14.916 29.1579,14.916" id="Fill-1" fill="#FEE300" mask="url(#mask-2)"></path>
            </g>
            <path d="M51.8498,41.2817 C51.8498,28.7497 41.6898,18.5897 29.1578,18.5897 C16.6248,18.5897 6.4658,28.7497 6.4658,41.2817 C6.4658,44.6717 7.2078,47.8867 8.5408,50.7757 C8.7128,50.9477 8.8868,51.1177 9.0628,51.2847 C9.0368,50.8647 9.0228,50.4417 9.0228,50.0147 C9.0228,38.8947 18.0378,29.8807 29.1578,29.8807 C40.2778,29.8807 49.2918,38.8947 49.2918,50.0147 C49.2918,50.4417 49.2788,50.8647 49.2528,51.2847 C49.4288,51.1177 49.6028,50.9477 49.7748,50.7757 C51.1068,47.8867 51.8498,44.6717 51.8498,41.2817" id="Fill-4" fill="#F39800"></path>
            <path d="M46.1887,50.0151 C46.1887,40.6091 38.5637,32.9841 29.1577,32.9841 C19.7517,32.9841 12.1267,40.6091 12.1267,50.0151 C12.1267,51.3781 12.2867,52.7031 12.5887,53.9741 C15.2927,47.4901 21.6927,42.9311 29.1577,42.9311 C36.6227,42.9311 43.0217,47.4901 45.7257,53.9741 C46.0287,52.7031 46.1887,51.3781 46.1887,50.0151" id="Fill-6" fill="#8FC426"></path>
            <g id="Group-10" transform="translate(15.000000, 45.315400)">
                <mask id="mask-4" fill="white">
                    <use xlink:href="#path-3"></use>
                </mask>
                <g id="Clip-9"></g>
                <path d="M28.2443,10.3774 C26.1353,4.6434 20.6233,0.5534 14.1583,0.5534 C7.6913,0.5534 2.1813,4.6434 0.0713,10.3774 C4.2463,12.6864 9.0493,14.0004 14.1583,14.0004 C19.2663,14.0004 24.0683,12.6864 28.2443,10.3774" id="Fill-8" fill="#1D6BB5" mask="url(#mask-4)"></path>
            </g>
            <g id="Group-13" transform="translate(71.000000, 19.315400)">
                <mask id="mask-6" fill="white">
                    <use xlink:href="#path-5"></use>
                </mask>
                <g id="Clip-12"></g>
                <path d="M104.7473,18.5171 L104.7473,18.5171 C105.8613,18.5171 106.6723,18.0451 107.2843,17.1211 C108.1543,15.8111 108.3093,13.7101 108.3093,12.1841 C108.3093,10.6591 108.1543,8.5581 107.2843,7.2461 C106.6723,6.3231 105.8613,5.8511 104.7473,5.8511 C103.6443,5.8511 102.8493,6.3331 102.2423,7.2461 C101.3723,8.5581 101.2183,10.6591 101.2183,12.1841 C101.2183,13.7101 101.3723,15.8111 102.2423,17.1211 C102.8493,18.0361 103.6443,18.5171 104.7473,18.5171 L104.7473,18.5171 Z M59.3613,18.4861 L59.3613,18.4861 C60.4803,18.4861 61.5423,18.2421 62.5163,17.6871 C63.4533,17.1521 64.1773,16.4131 64.7043,15.4701 C65.2713,14.4551 65.5063,13.3411 65.5063,12.1841 C65.5063,11.0271 65.2713,9.9131 64.7043,8.8981 C64.1773,7.9561 63.4533,7.2161 62.5163,6.6821 C61.5423,6.1261 60.4803,5.8831 59.3613,5.8831 C58.2433,5.8831 57.1813,6.1271 56.2083,6.6821 C55.2693,7.2161 54.5463,7.9561 54.0193,8.8981 C53.4523,9.9131 53.2183,11.0271 53.2183,12.1841 C53.2183,13.3411 53.4523,14.4551 54.0193,15.4701 C54.5463,16.4131 55.2693,17.1521 56.2083,17.6871 C57.1813,18.2421 58.2433,18.4861 59.3613,18.4861 L59.3613,18.4861 Z M104.7473,24.3411 L104.7473,24.3411 C102.8533,24.3411 101.0663,23.8841 99.4623,22.8701 C97.8313,21.8381 96.6493,20.3711 95.8283,18.6321 C94.8813,16.6251 94.5433,14.3891 94.5433,12.1841 C94.5433,9.9801 94.8813,7.7431 95.8283,5.7361 C96.6493,3.9981 97.8313,2.5301 99.4623,1.4981 C101.0663,0.4841 102.8533,0.0271 104.7473,0.0271 C106.6423,0.0271 108.4293,0.4841 110.0333,1.4981 C111.6643,2.5301 112.8463,3.9981 113.6673,5.7361 C114.6153,7.7431 114.9523,9.9801 114.9523,12.1841 C114.9523,14.3891 114.6153,16.6251 113.6673,18.6321 C112.8463,20.3711 111.6643,21.8381 110.0333,22.8701 C108.4293,23.8841 106.6423,24.3411 104.7473,24.3411 L104.7473,24.3411 Z M84.0633,18.2961 L84.0633,18.2961 L92.4003,18.2961 L92.4003,23.9631 L74.2283,23.9631 L74.2283,19.5771 L82.9703,11.3211 C83.5503,10.7731 84.2773,10.0241 84.6433,9.3071 C84.8813,8.8381 85.0333,8.3351 85.0333,7.8061 C85.0333,7.2321 84.8833,6.7301 84.4223,6.3671 C83.8513,5.9151 82.9623,5.8201 82.2593,5.8201 C81.4663,5.8201 80.6873,5.9581 79.9683,6.2991 C79.2893,6.6201 78.7423,7.0981 78.3063,7.7091 L77.8883,8.2941 L72.9203,5.0941 L73.3503,4.4551 C74.3203,3.0111 75.6423,1.9391 77.2093,1.1881 C78.9383,0.3591 80.8233,0.0271 82.7323,0.0271 C84.3033,0.0271 85.8853,0.2621 87.3333,0.8931 C88.6123,1.4511 89.7143,2.2711 90.5173,3.4201 C91.3243,4.5761 91.6763,5.8971 91.6763,7.3021 C91.6763,8.5941 91.4053,9.8341 90.8463,10.9991 C90.1663,12.4161 88.8923,13.7571 87.7543,14.8121 L84.0633,18.2961 Z M59.3613,24.3411 L59.3613,24.3411 C57.0623,24.3411 54.8473,23.8631 52.8143,22.7711 C50.8893,21.7361 49.3353,20.2901 48.2103,18.4151 C47.0653,16.5081 46.5443,14.4061 46.5443,12.1841 C46.5443,9.9631 47.0653,7.8611 48.2103,5.9541 C49.3353,4.0781 50.8893,2.6321 52.8143,1.5971 C54.8473,0.5061 57.0623,0.0271 59.3613,0.0271 C61.6563,0.0271 63.8683,0.5041 65.8943,1.5991 C67.8153,2.6361 69.3643,4.0831 70.4963,5.9501 C71.6513,7.8561 72.1813,9.9581 72.1813,12.1841 C72.1813,14.4111 71.6513,16.5131 70.4963,18.4181 C69.3643,20.2861 67.8153,21.7321 65.8943,22.7701 C63.8683,23.8651 61.6563,24.3411 59.3613,24.3411 L59.3613,24.3411 Z M35.0163,24.3411 L35.0163,24.3411 C32.7473,24.3411 30.5653,23.8641 28.5633,22.7871 C26.6463,21.7561 25.1083,20.3131 23.9893,18.4471 C22.8403,16.5311 22.3233,14.4151 22.3233,12.1841 C22.3233,9.9541 22.8403,7.8371 23.9893,5.9211 C25.1083,4.0561 26.6463,2.6121 28.5633,1.5821 C30.5743,0.5001 32.7693,0.0271 35.0473,0.0271 C36.9333,0.0271 38.7943,0.3421 40.5293,1.0981 C42.1593,1.8081 43.5603,2.8391 44.6983,4.2051 L45.1573,4.7561 L40.7823,8.7941 L40.2723,8.2051 C38.9513,6.6791 37.3223,5.8831 35.2993,5.8831 C34.1423,5.8831 33.0273,6.1181 32.0133,6.6841 C31.0643,7.2141 30.3293,7.9501 29.7993,8.8981 C29.2323,9.9131 28.9973,11.0271 28.9973,12.1841 C28.9973,13.3411 29.2323,14.4551 29.7993,15.4701 C30.3293,16.4181 31.0643,17.1541 32.0133,17.6841 C33.0273,18.2511 34.1423,18.4861 35.2993,18.4861 C37.3293,18.4861 38.9533,17.6731 40.2683,16.1351 L40.7783,15.5391 L45.1533,19.5781 L44.7023,20.1281 C43.5643,21.5141 42.1563,22.5601 40.5123,23.2711 C38.7693,24.0251 36.9073,24.3411 35.0163,24.3411 L35.0163,24.3411 Z M7.5203,6.0721 L0.4643,6.0721 L0.4643,0.4051 L21.1873,0.4051 L21.1873,6.0721 L14.1323,6.0721 L14.1323,23.9631 L7.5203,23.9631 L7.5203,6.0721 Z" id="Fill-11" fill="#FEFEFE" mask="url(#mask-6)"></path>
            </g>
        </g>
    </g>
</svg>