<svg width="32" height="24" viewBox="0 0 32 24" fill="none" xmlns="http://www.w3.org/2000/svg">
<path d="M0 12C0 5.37258 5.37258 0 12 0H20C26.6274 0 32 5.37258 32 12V12C32 18.6274 26.6274 24 20 24H12C5.37258 24 0 18.6274 0 12V12Z" fill="white"/>
<path fill-rule="evenodd" clip-rule="evenodd" d="M18.1657 8.23431C18.4781 8.54673 18.4781 9.05327 18.1657 9.36569L15.5314 12L18.1657 14.6343C18.4781 14.9467 18.4781 15.4533 18.1657 15.7657C17.8533 16.0781 17.3467 16.0781 17.0343 15.7657L13.8343 12.5657C13.5219 12.2533 13.5219 11.7467 13.8343 11.4343L17.0343 8.23431C17.3467 7.9219 17.8533 7.9219 18.1657 8.23431Z" fill="#137D60"/>
</svg>
