<svg width="28" height="28" viewBox="0 0 28 28" fill="none" xmlns="http://www.w3.org/2000/svg">
<rect width="28" height="28" rx="14" fill="#2A2A2A"/>
<rect width="28" height="28" rx="14" fill="black" fill-opacity="0.2"/>
<path fill-rule="evenodd" clip-rule="evenodd" d="M9.60054 9.60054C9.82119 9.3799 10.1789 9.3799 10.3996 9.60054L14.0001 13.201L17.6005 9.60054C17.8212 9.3799 18.1789 9.3799 18.3996 9.60054C18.6202 9.82119 18.6202 10.1789 18.3996 10.3996L14.7991 14.0001L18.3996 17.6005C18.6202 17.8212 18.6202 18.1789 18.3996 18.3996C18.1789 18.6202 17.8212 18.6202 17.6005 18.3996L14.0001 14.7991L10.3996 18.3996C10.1789 18.6202 9.82119 18.6202 9.60054 18.3996C9.3799 18.1789 9.3799 17.8212 9.60054 17.6005L13.201 14.0001L9.60054 10.3996C9.3799 10.1789 9.3799 9.82119 9.60054 9.60054Z" fill="white"/>
</svg>
