<svg width="14" height="14" viewBox="0 0 14 14" fill="none" xmlns="http://www.w3.org/2000/svg">
<path fill-rule="evenodd" clip-rule="evenodd" d="M4.6669 1.25563C4.93994 1.25563 5.16128 1.47697 5.16128 1.75001V2.4223H8.83919V1.75001C8.83919 1.47697 9.06053 1.25563 9.33357 1.25563C9.6066 1.25563 9.82794 1.47697 9.82794 1.75001V2.4223H11.0836C12.0009 2.4223 12.7446 3.16597 12.7446 4.08334V11.0833C12.7446 12.0007 12.0009 12.7444 11.0836 12.7444H2.9169C1.99953 12.7444 1.25586 12.0007 1.25586 11.0833V4.08334C1.25586 3.16597 1.99953 2.4223 2.9169 2.4223H4.17253V1.75001C4.17253 1.47697 4.39387 1.25563 4.6669 1.25563ZM4.17253 3.41105H2.9169C2.5456 3.41105 2.24461 3.71204 2.24461 4.08334V11.0833C2.24461 11.4546 2.5456 11.7556 2.9169 11.7556H11.0836C11.4549 11.7556 11.7559 11.4546 11.7559 11.0833V4.08334C11.7559 3.71204 11.4549 3.41105 11.0836 3.41105H9.82794V4.08334C9.82794 4.35637 9.6066 4.57771 9.33357 4.57771C9.06053 4.57771 8.83919 4.35637 8.83919 4.08334V3.41105H5.16128V4.08334C5.16128 4.35637 4.93994 4.57771 4.6669 4.57771C4.39387 4.57771 4.17253 4.35637 4.17253 4.08334V3.41105ZM3.58919 6.41667C3.58919 6.14364 3.81053 5.9223 4.08357 5.9223H9.9169C10.1899 5.9223 10.4113 6.14364 10.4113 6.41667C10.4113 6.68971 10.1899 6.91105 9.9169 6.91105H4.08357C3.81053 6.91105 3.58919 6.68971 3.58919 6.41667Z" fill="#137D60"/>
</svg>
