<svg width="14" height="14" viewBox="0 0 14 14" fill="none" xmlns="http://www.w3.org/2000/svg">
<path fill-rule="evenodd" clip-rule="evenodd" d="M4.33333 0.434998C4.64537 0.434998 4.89833 0.687957 4.89833 0.999998V1.76833H9.10166V0.999998C9.10166 0.687957 9.35462 0.434998 9.66666 0.434998C9.97871 0.434998 10.2317 0.687957 10.2317 0.999998V1.76833H11.6667C12.7151 1.76833 13.565 2.61824 13.565 3.66666V11.6667C13.565 12.7151 12.7151 13.565 11.6667 13.565H2.33333C1.28491 13.565 0.434998 12.7151 0.434998 11.6667V3.66666C0.434998 2.61824 1.28491 1.76833 2.33333 1.76833H3.76833V0.999998C3.76833 0.687957 4.02129 0.434998 4.33333 0.434998ZM3.76833 2.89833H2.33333C1.90899 2.89833 1.565 3.24233 1.565 3.66666V11.6667C1.565 12.091 1.90899 12.435 2.33333 12.435H11.6667C12.091 12.435 12.435 12.091 12.435 11.6667V3.66666C12.435 3.24233 12.091 2.89833 11.6667 2.89833H10.2317V3.66666C10.2317 3.97871 9.97871 4.23166 9.66666 4.23166C9.35462 4.23166 9.10166 3.97871 9.10166 3.66666V2.89833H4.89833V3.66666C4.89833 3.97871 4.64537 4.23166 4.33333 4.23166C4.02129 4.23166 3.76833 3.97871 3.76833 3.66666V2.89833ZM3.10166 6.33333C3.10166 6.02129 3.35462 5.76833 3.66666 5.76833H10.3333C10.6454 5.76833 10.8983 6.02129 10.8983 6.33333C10.8983 6.64537 10.6454 6.89833 10.3333 6.89833H3.66666C3.35462 6.89833 3.10166 6.64537 3.10166 6.33333Z" fill="#2A2A2A"/>
<path fill-rule="evenodd" clip-rule="evenodd" d="M4.33333 0.434998C4.64537 0.434998 4.89833 0.687957 4.89833 0.999998V1.76833H9.10166V0.999998C9.10166 0.687957 9.35462 0.434998 9.66666 0.434998C9.97871 0.434998 10.2317 0.687957 10.2317 0.999998V1.76833H11.6667C12.7151 1.76833 13.565 2.61824 13.565 3.66666V11.6667C13.565 12.7151 12.7151 13.565 11.6667 13.565H2.33333C1.28491 13.565 0.434998 12.7151 0.434998 11.6667V3.66666C0.434998 2.61824 1.28491 1.76833 2.33333 1.76833H3.76833V0.999998C3.76833 0.687957 4.02129 0.434998 4.33333 0.434998ZM3.76833 2.89833H2.33333C1.90899 2.89833 1.565 3.24233 1.565 3.66666V11.6667C1.565 12.091 1.90899 12.435 2.33333 12.435H11.6667C12.091 12.435 12.435 12.091 12.435 11.6667V3.66666C12.435 3.24233 12.091 2.89833 11.6667 2.89833H10.2317V3.66666C10.2317 3.97871 9.97871 4.23166 9.66666 4.23166C9.35462 4.23166 9.10166 3.97871 9.10166 3.66666V2.89833H4.89833V3.66666C4.89833 3.97871 4.64537 4.23166 4.33333 4.23166C4.02129 4.23166 3.76833 3.97871 3.76833 3.66666V2.89833ZM3.10166 6.33333C3.10166 6.02129 3.35462 5.76833 3.66666 5.76833H10.3333C10.6454 5.76833 10.8983 6.02129 10.8983 6.33333C10.8983 6.64537 10.6454 6.89833 10.3333 6.89833H3.66666C3.35462 6.89833 3.10166 6.64537 3.10166 6.33333Z" fill="black" fill-opacity="0.2"/>
</svg>
