<?xml version="1.0" encoding="UTF-8"?>
<svg width="74px" height="75px" viewBox="0 0 74 75" version="1.1" xmlns="http://www.w3.org/2000/svg" xmlns:xlink="http://www.w3.org/1999/xlink">
    <!-- Generator: sketchtool 63.1 (101010) - https://sketch.com -->
    <title>EA5B2FA5-2439-489A-B86C-B537FC455656</title>
    <desc>Created with sketchtool.</desc>
    <g id="Thrive" stroke="none" stroke-width="1" fill="none" fill-rule="evenodd">
        <g id="D01_1_Homepage-New" transform="translate(-31.000000, -2447.000000)">
            <g id="gig-blob" transform="translate(24.000000, 2439.000000)">
                <path d="M45.7163857,80.5669293 C72.0610224,80.5669293 77.8490353,66.0107983 81.1421149,47.2822268 C84.4351945,28.5536554 73.7326396,9 52.5142672,9 C31.2958947,9 1.80865773,21.4240722 10.5902033,46.0669293 C19.3717489,70.7097865 19.3717489,80.5669293 45.7163857,80.5669293 Z" id="Oval-Copy-5" fill="#EF476F" transform="translate(45.364519, 44.783465) scale(1, -1) rotate(-15.000000) translate(-45.364519, -44.783465) "></path>
                <g id="icon-gig" transform="translate(26.000000, 23.000000)" stroke="#FFFFFF" stroke-linecap="round" stroke-linejoin="round">
                    <g transform="translate(-0.000000, 0.000000)">
                        <path d="M28.6656853,38.2608696 L8.72561907,38.2608696 L6.13351132,26.5138378 C6.01824373,25.9992568 6.11915567,25.4597874 6.41255794,25.022071 C6.67994108,24.6104106 7.13305421,24.3579909 7.62288062,24.3478261 L29.7684237,24.3478261 C30.2582501,24.3579909 30.7113633,24.6104106 30.9787464,25.022071 C31.2721487,25.4597874 31.3730606,25.9992568 31.257793,26.5138378 L28.6656853,38.2608696 Z" id="Path" stroke-width="2.4"></path>
                        <circle id="Oval" stroke-width="2.4" cx="18.6956522" cy="29.1304348" r="3.04347826"></circle>
                        <path d="M13.9130435,3.47826087 C16.1160482,5.14561507 19.1531743,6.08730823 22.3265392,6.08695652 C23.9186053,6.08776788 25.4941262,5.85121656 26.9565217,5.39180113" id="Path" stroke-width="2.4"></path>
                        <circle id="Oval" stroke-width="2.4" cx="18.2608696" cy="6.95652174" r="6.95652174"></circle>
                        <path d="M26.9565217,19.1304348 C24.8629591,17.4715732 21.8551513,16.5217391 18.6956522,16.5217391 C15.5361531,16.5217391 12.5283452,17.4715732 10.4347826,19.1304348" id="Path" stroke-width="2.4"></path>
                        <line x1="0" y1="39.1304348" x2="38.2608696" y2="39.1304348" id="Path" stroke-width="2.4"></line>
                    </g>
                </g>
            </g>
        </g>
    </g>
</svg>