<?xml version="1.0" encoding="UTF-8" standalone="no"?>
<svg width="76px" height="91px" viewBox="0 0 76 91" version="1.1" xmlns="http://www.w3.org/2000/svg" xmlns:xlink="http://www.w3.org/1999/xlink" xmlns:sketch="http://www.bohemiancoding.com/sketch/ns">
    <!-- Generator: Sketch 3.3.3 (12081) - http://www.bohemiancoding.com/sketch -->
    <title>ico-calendar-detailed</title>
    <desc>Created with Sketch.</desc>
    <defs></defs>
    <g id="Dashboard" stroke="none" stroke-width="1" fill="none" fill-rule="evenodd" sketch:type="MSPage">
        <g id="Artboard-4" sketch:type="MSArtboardGroup" transform="translate(-216.000000, -467.000000)" stroke="#F0F0F0" fill="#F6F6F6">
            <g id="SRMs" sketch:type="MSLayerGroup" transform="translate(58.900500, 145.000000)">
                <g id="Group" transform="translate(60.000000, 184.000000)" sketch:type="MSShapeGroup">
                    <g transform="translate(98.000000, 138.000000)" id="ico-calendar-detailed">
                        <path d="M27.9645556,45 L49.0354444,45 L49.0354444,45 C49.2780593,43.3038529 50.736764,42 52.5,42 C54.263236,42 55.7219407,43.3038529 55.9645556,45 L75,45 L75,5.99891221 C75,2.68580448 72.3085976,0 69.0049843,0 L5.99501566,0 C2.68405993,0 0,2.68019199 0,5.99891221 L0,45 L21.0354444,45 C21.2780593,43.3038529 22.736764,42 24.5,42 C26.263236,42 27.7219407,43.3038529 27.9645556,45 Z M27.9645556,46 L49.0354444,46 L49.0354444,46 C49.2780593,47.6961471 50.736764,49 52.5,49 C54.263236,49 55.7219407,47.6961471 55.9645556,46 L75,46 L75,85.0010878 C75,88.3141955 72.3085976,91 69.0049843,91 L5.99501566,91 C2.68405993,91 0,88.319808 0,85.0010878 L0,46 L21.0354444,46 C21.2780593,47.6961471 22.736764,49 24.5,49 C26.263236,49 27.7219407,47.6961471 27.9645556,46 L27.9645556,46 Z"></path>
                    </g>
                </g>
            </g>
        </g>
    </g>
</svg>