<?xml version="1.0" encoding="UTF-8" standalone="no"?>
<svg width="45px" height="44px" viewBox="0 0 45 44" version="1.1" xmlns="http://www.w3.org/2000/svg" xmlns:xlink="http://www.w3.org/1999/xlink" xmlns:sketch="http://www.bohemiancoding.com/sketch/ns">
    <!-- Generator: Sketch 3.3.3 (12081) - http://www.bohemiancoding.com/sketch -->
    <title>ico-track-develop-outline</title>
    <desc>Created with Sketch.</desc>
    <defs></defs>
    <g id="ASSETS-EXPORT" stroke="none" stroke-width="1" fill="none" fill-rule="evenodd" sketch:type="MSPage">
        <path d="M43.1278961,21.9998218 C43.1278961,33.4265323 33.7766654,42.7777778 22.3500292,42.7777778 C10.9235443,42.7777778 1.57234054,33.4265055 1.57234054,21.9998218 C1.57234054,10.5735568 10.9236603,1.22222222 22.3500292,1.22222222 C33.7765494,1.22222222 43.1278961,10.5735299 43.1278961,21.9998218 L44.3501183,21.9998218 C44.3501183,9.89851407 34.451563,0 22.3500292,0 C10.2486452,0 0.350118321,9.89854252 0.350118321,21.9998218 C0.350118321,34.1015182 10.2485276,44 22.3500292,44 C34.4516806,44 44.3501183,34.1015466 44.3501183,21.9998218 L43.1278961,21.9998218 Z M16.5434472,30.2204907 L14.0804142,30.8308898 L12.284799,29.1892616 L12.9522168,26.9852237 L15.3629965,26.3750418 L17.1586117,28.01667 L16.5434472,30.2204907 Z M22.1469066,25.4810494 C22.1407312,25.4091738 22.1345558,25.3359954 22.1366935,25.2647714 L21.793959,24.9514288 C21.1685814,25.0610879 20.4733743,24.8689131 20.0244705,24.4585061 L19.6658225,24.1306147 C18.9480514,23.4743978 18.9202622,22.3936592 19.5653535,21.6953158 L18.918362,21.1020713 L15.815938,23.9382229 C15.4594277,23.8739475 15.1003046,23.8431127 14.747832,23.8431127 C11.8620219,23.8431127 9.51537136,25.9885209 9.51537136,28.6268519 C9.51537136,31.2651829 11.8620219,33.4105912 14.747832,33.4105912 C17.6336421,33.4105912 19.9802927,31.2651829 19.9802927,28.6268519 C19.9802927,28.2290394 19.9382525,27.8955022 19.845859,27.5821597 L22.1469066,25.4810494 Z M22.3008165,19.1963929 C22.643551,18.9325598 23.0943549,18.7770828 23.571523,18.7770828 C24.1026071,18.7770828 24.6094646,18.9618746 24.9645499,19.2845544 L25.3231979,19.6141829 C25.7899153,20.0410931 25.9865779,20.651275 25.8642576,21.2338793 L26.2229056,21.5617706 C26.2870347,21.5617706 26.3490262,21.5747994 26.4112552,21.5800109 L26.9601529,21.0799224 L26.9601529,21.0781852 L27.5054879,20.5800509 C28.4232468,21.0321501 29.3032407,21.2577654 30.1148303,21.2577654 C31.1147694,21.2577654 32.012577,20.914891 32.7578998,20.2332678 C34.1369133,18.972949 35.6339718,16.039733 34.9342519,14.1251515 C34.8781983,13.9711946 34.7383018,13.8558898 34.5658658,13.8174548 C34.3915296,13.7790199 34.211018,13.8263578 34.0846599,13.9416627 L31.3651105,16.4279911 C31.1990873,16.5799937 30.8843796,16.5710907 30.7057682,16.4279911 L27.9862187,13.9416627 C27.8199581,13.7896601 27.8304087,13.5041123 27.9862187,13.3388637 L30.7057682,10.8525353 C30.8299886,10.7391848 30.882242,10.5726334 30.8444771,10.414985 C30.804337,10.2573366 30.6779789,10.1307401 30.5093431,10.0777563 C28.4572114,9.43456814 25.1809263,10.8273463 23.8240017,12.0655162 C22.425512,13.3464639 22.3069919,15.1073055 23.4753294,16.9337255 L21.6519249,18.6029313 L22.3008165,19.1963929 Z M14.2846773,13.194027 L14.4913156,11.9280624 L10.7457003,9.95854285 L9.46311801,11.1311344 L11.6173812,14.5557532 L13.002095,14.3666185 L21.0063585,21.6844585 L22.2889408,20.512084 L14.2846773,13.194027 Z M31.1608474,30.4589177 L25.0044524,24.8304782 L25.7300615,24.1670954 L31.8864564,29.7955349 L31.1608474,30.4589177 Z M34.3212251,29.1671126 L27.5738923,22.9984124 C27.1912552,22.646635 26.641645,22.4687919 26.0526072,22.5052725 L25.8200798,22.5198214 L24.6899823,21.4866379 L24.8099275,21.2028273 C24.9443611,20.8821018 24.8624183,20.519467 24.5975888,20.2773486 L24.2391784,19.9496744 C23.9142575,19.6526179 23.2287885,19.6526179 22.9041052,19.9496744 L20.3914315,22.2468681 C20.0363463,22.5715023 20.0363463,23.1408606 20.3914315,23.4674491 L20.749842,23.7951233 C21.0001831,24.0242129 21.4291356,24.1047743 21.762132,23.9894695 L22.0725644,23.8795933 L23.197199,24.9073481 L23.1708348,25.1310091 C23.1124061,25.627189 23.3192818,26.1461693 23.7240078,26.5161871 L30.4734783,32.6848873 C30.9945867,33.1615241 31.6781555,33.4231857 32.3973517,33.4231857 C33.1165478,33.4231857 33.8020168,33.1595698 34.3293006,32.6779386 C35.3575041,31.691876 35.3575041,30.1145232 34.3212251,29.1671126 L34.3212251,29.1671126 Z" id="ico-track-develop-outline" fill="#99CC00" sketch:type="MSShapeGroup"></path>
    </g>
</svg>