<?xml version="1.0" encoding="UTF-8" standalone="no"?>
<svg width="45px" height="44px" viewBox="0 0 45 44" version="1.1" xmlns="http://www.w3.org/2000/svg" xmlns:xlink="http://www.w3.org/1999/xlink" xmlns:sketch="http://www.bohemiancoding.com/sketch/ns">
    <!-- Generator: Sketch 3.3.3 (12081) - http://www.bohemiancoding.com/sketch -->
    <title>ico-track-co_pilot-outline</title>
    <desc>Created with Sketch.</desc>
    <defs></defs>
    <g id="ASSETS-EXPORT" stroke="none" stroke-width="1" fill="none" fill-rule="evenodd" sketch:type="MSPage">
        <path d="M9.92682134,19.0864919 L9.92682134,23.32103 L9.92682134,23.32103 C9.36769717,23.3901595 8.93702608,23.8279903 8.93702608,24.3583898 C8.93702608,24.6699199 9.08582322,24.9496575 9.32204221,25.1413882 C9.08582322,25.3303011 8.93702608,25.6057638 8.93702608,25.9120058 C8.93702608,26.6581775 10.0818495,28.0216527 10.0818495,28.0216527 C10.0818495,28.0216527 11.226673,26.6823812 11.226673,25.9120058 C11.226673,25.6057638 11.0778758,25.3303011 10.8416568,25.1413882 C11.0778758,24.9496575 11.226673,24.6699199 11.226673,24.3583898 C11.226673,23.8338122 10.8054045,23.3997823 10.2552426,23.3234393 L10.2552426,19.3589022 C11.1009179,20.0545736 12.3186177,21.0160648 14.0708437,22.3612574 L14.0708437,18.6016158 C14.0708437,18.5364184 14.0863465,18.475146 14.111151,18.4160541 L14.1311854,18.3709174 C14.160283,18.3177129 14.1941507,18.2642903 14.2408977,18.2213342 L14.2432827,18.2195898 C14.281205,18.1847016 14.3234204,18.1559188 14.3701673,18.1317151 C14.5001525,18.0643372 17.5923683,16.4921869 22.6749073,16.4921869 C27.7572079,16.4921869 30.8494237,18.0643372 30.9817939,18.1317151 C31.0287794,18.1559188 31.0688482,18.1847016 31.106532,18.2195898 L31.108917,18.2213342 C31.155664,18.2662528 31.1916782,18.3177129 31.2186292,18.3709174 L31.2386637,18.4160541 C31.2634682,18.475146 31.2787325,18.5364184 31.2787325,18.6016158 L31.2787325,22.2670592 C37.0367174,17.9391757 37.0228841,17.6635588 37.0028497,17.3467302 C36.9782837,16.9804039 36.9651659,16.7377127 23.5041888,9.3697572 C22.9925958,9.09828325 22.3572188,9.09828325 21.8387092,9.37390017 C8.38464877,16.7377127 8.371531,16.9804039 8.34672649,17.3467302 C8.33378119,17.5539167 8.32236578,17.7434795 9.92682134,19.0864919 Z M43.1777778,21.9998218 C43.1777778,33.4265323 33.8265471,42.7777778 22.3999109,42.7777778 C10.973426,42.7777778 1.62222222,33.4265055 1.62222222,21.9998218 C1.62222222,10.5735568 10.973542,1.22222222 22.3999109,1.22222222 C33.8264311,1.22222222 43.1777778,10.5735299 43.1777778,21.9998218 L44.4,21.9998218 C44.4,9.89851407 34.5014447,0 22.3999109,0 C10.2985269,0 0.4,9.89854252 0.4,21.9998218 C0.4,34.1015182 10.2984093,44 22.3999109,44 C34.5015622,44 44.4,34.1015466 44.4,21.9998218 L43.1777778,21.9998218 Z M15.2514429,18.9350163 L15.2514429,21.0080306 C16.4947688,20.6907659 19.1219001,20.1554498 22.6749073,20.1554498 C26.2279146,20.1554498 28.8552844,20.6907659 30.0983718,21.0080306 L30.0983718,18.9350163 C29.2352226,18.5649832 26.5563358,17.5713231 22.6749073,17.5713231 C18.775591,17.5713231 16.112207,18.5630207 15.2514429,18.9350163 Z M31.2610831,22.5328638 L31.2610831,22.5084421 L30.4854652,22.2509234 C30.4561291,22.2382764 27.3882408,21.234586 22.6749073,21.234586 C17.9639589,21.234586 14.8936855,22.2382764 14.8643494,22.2509234 L14.8626799,22.2509234 L14.0708437,22.5162919 C13.7734281,22.567534 13.4357052,22.7186436 13.1184937,22.9761622 C12.622165,23.3749782 12.3714964,23.9820332 12.3714964,24.7774845 C12.3714964,25.9628117 13.2525334,26.9665022 14.4732014,27.2303443 C15.9829373,30.7998451 18.4555174,35.3479604 22.6772924,35.3479604 C26.8985903,35.3479604 29.3716474,30.7978827 30.8832914,27.2303443 C32.0996663,26.9627953 32.9783183,25.9608493 32.9783183,24.7774845 C32.9783183,23.94322 32.718825,23.3200292 32.2043699,22.9253563 C31.8935981,22.6841915 31.5518206,22.5780004 31.2610831,22.5328638 Z" id="ico-track-co_pilot-outline" fill="#7F7F7F" sketch:type="MSShapeGroup"></path>
    </g>
</svg>