<?xml version="1.0" encoding="UTF-8" standalone="no"?>
<svg width="45px" height="44px" viewBox="0 0 45 44" version="1.1" xmlns="http://www.w3.org/2000/svg" xmlns:xlink="http://www.w3.org/1999/xlink" xmlns:sketch="http://www.bohemiancoding.com/sketch/ns">
    <!-- Generator: Sketch 3.3.3 (12081) - http://www.bohemiancoding.com/sketch -->
    <title>ico-track-data-outline</title>
    <desc>Created with Sketch.</desc>
    <defs></defs>
    <g id="ASSETS-EXPORT" stroke="none" stroke-width="1" fill="none" fill-rule="evenodd" sketch:type="MSPage">
        <path d="M43.1777778,21.9998218 C43.1777778,33.4265323 33.8265471,42.7777778 22.3999109,42.7777778 C10.973426,42.7777778 1.62222222,33.4265055 1.62222222,21.9998218 C1.62222222,10.5735568 10.973542,1.22222222 22.3999109,1.22222222 C33.8264311,1.22222222 43.1777778,10.5735299 43.1777778,21.9998218 L44.4,21.9998218 C44.4,9.89851407 34.5014447,0 22.3999109,0 C10.2985269,0 0.4,9.89854252 0.4,21.9998218 C0.4,34.1015182 10.2984093,44 22.3999109,44 C34.5015622,44 44.4,34.1015466 44.4,21.9998218 L43.1777778,21.9998218 Z M31.3081325,21.9957141 C30.8393491,21.5137707 30.3259962,21.0316796 29.7625209,20.5534309 C29.7597444,20.556239 29.7568218,20.559047 29.7540454,20.561855 C29.4661703,20.3159323 29.1671893,20.0703052 28.8546183,19.8261561 C27.7634694,18.9722251 26.523999,18.130413 25.157396,17.3323467 C25.035524,17.2609641 24.9137982,17.191355 24.7920723,17.1221892 C25.2297301,16.9458757 25.6587663,16.7870014 26.078158,16.6455663 C26.5627234,16.9368605 27.0338448,17.2361354 27.4919608,17.5420608 C27.4329245,17.1097749 27.3665817,16.6884254 27.2929324,16.2787514 C28.3320593,16.0034185 29.2840929,15.8544461 30.0975958,15.8544461 C31.0493372,15.8544461 31.7437445,16.0623867 31.9572397,16.40925 C32.0887563,16.6236934 32.0414103,16.9664185 31.9798898,17.2158881 C31.8257232,17.8394144 31.3965409,18.6247707 30.6999416,19.4999834 C30.6278997,19.5893964 30.5416833,19.6829475 30.4632118,19.7739862 C31.0287329,20.2585898 31.542232,20.74275 32.0088234,21.2248412 C32.170881,21.0375912 32.3250477,20.8507845 32.4691313,20.6656036 C33.2582306,19.6430442 33.7942336,18.6476782 34.022634,17.7330055 C34.3146007,16.5571878 34.0331553,15.7548356 33.7454263,15.2872279 C33.3076224,14.5742887 32.3192025,13.7262693 30.0975958,13.7262693 C27.9996147,13.7262693 25.2889126,14.4848757 22.4059238,15.8485345 C21.5222788,16.2661892 20.6241669,16.7376395 19.7205021,17.2658412 C19.6296096,17.3190456 19.5412012,17.3737279 19.4511855,17.4275235 C19.5235196,16.9461713 19.6054982,16.4896478 19.6960985,16.0588398 C20.1625438,15.7990249 20.6339576,15.5520677 21.1050791,15.3122044 C20.7263114,15.1542169 20.3517815,15.0071657 19.98222,14.8706077 C20.7116985,12.2210276 21.7451262,10.8270718 22.4059238,10.8270718 C22.9710066,10.8270718 23.8074518,11.8661837 24.4960139,13.8241064 C25.1863297,13.5724199 25.8564795,13.3606367 26.5014951,13.1899392 C25.5298801,10.4073481 24.0831981,8.69889503 22.4059238,8.69889503 C20.5300595,8.69889503 18.9373942,10.838895 17.9819995,14.2334848 C17.9792231,14.2327459 17.9763005,14.2318591 17.9733779,14.2311202 C17.7908622,14.8818398 17.6366955,15.5804434 17.5031332,16.3120041 C17.5041561,16.3121519 17.5053251,16.3125953 17.506348,16.3128909 C17.1962613,18.0200138 17.024413,19.94025 17.024413,22 C17.024413,22.1059655 17.026751,22.2095663 17.0276278,22.3147928 C16.6532441,22.0125622 16.3025333,21.7126961 15.977249,21.4172638 C15.9868936,20.8562528 16.0095436,20.3088384 16.0416921,19.7717693 C15.7117317,20.0318798 15.3933156,20.2940594 15.086882,20.5575691 C13.7850144,19.2162265 13.0282097,18.0139544 12.8237746,17.1616492 C12.7764286,16.9684876 12.7189997,16.6152693 12.8462785,16.4114669 C13.0109665,16.1538688 13.578095,15.8772058 14.6733356,15.8772058 C15.2135763,15.8772058 15.8239592,15.9502141 16.4735048,16.0767224 C16.6072133,15.3430925 16.7650331,14.649366 16.9459414,13.9965773 C16.1321463,13.8363729 15.3677429,13.7469599 14.6733356,13.7469599 C12.4927913,13.7469599 11.5148927,14.5722196 11.0772349,15.2622514 C10.787314,15.7192182 10.499585,16.5072348 10.7788385,17.6648743 C11.0941859,18.974442 12.078368,20.4813094 13.5494536,22.0036948 C13.5427317,22.0107887 13.5354252,22.0178826 13.5285571,22.0249765 C13.9952947,22.5049986 14.5128854,22.9853163 15.072123,23.4610525 C15.076653,23.456471 15.0814752,23.4515939 15.0860053,23.4470124 C16.4100846,24.5845525 17.9765927,25.6985939 19.7120266,26.7112514 C19.8029192,26.7646036 19.8935194,26.8147044 19.984412,26.8668743 C19.9841197,26.8668743 19.9838275,26.8670221 19.9835352,26.8671699 C19.5442699,27.0427445 19.1133341,27.2005843 18.6920427,27.3417238 C18.2163912,27.0535331 17.7550604,26.7592831 17.3079042,26.4601561 C17.3628489,26.8853481 17.4258307,27.2996036 17.496119,27.7024793 C16.4400411,27.982837 15.4733945,28.1328439 14.6465939,28.1328439 C13.5554449,28.1328439 12.9941616,27.8668218 12.832104,27.6157265 C12.7416498,27.4742914 12.7331743,27.2203881 12.8116458,26.8943633 C12.9757492,26.1984199 13.4997696,25.2753232 14.3730395,24.2382804 C13.818478,23.7606229 13.3045406,23.2742459 12.8363417,22.7896423 C11.7552757,24.0573854 11.0234592,25.2960138 10.7626181,26.4000055 C10.491694,27.5514378 10.7788385,28.3286657 11.0687594,28.7772086 C11.5064172,29.4549738 12.4806625,30.2610207 14.6465939,30.2610207 C15.6329679,30.2610207 16.7511508,30.096087 17.9570114,29.7830677 L17.9570114,29.7833633 C17.967825,29.7804075 17.9789308,29.7771561 17.9897444,29.7743481 C19.143729,29.4725608 20.3772081,29.0361367 21.6537953,28.4760124 C22.8089489,27.9711616 23.9962511,27.3662569 25.1904213,26.6676533 C25.2523802,26.6315925 25.312001,26.5944972 25.3733754,26.5582887 C25.3038178,27.0375718 25.2247617,27.4924696 25.137084,27.9207652 C24.6545644,28.1901865 24.1711681,28.4468978 23.6885024,28.6900124 C24.0795449,28.851547 24.4666419,29.0015539 24.8486244,29.1400331 C24.1251373,31.8036533 23.0902482,33.1729282 22.4081157,33.1729282 C21.8184832,33.1729282 20.9713706,32.141797 20.2854387,30.161558 C19.5926388,30.4111754 18.9186896,30.6186727 18.2695824,30.7893702 C19.2312606,33.6012238 20.6878794,35.301105 22.4059238,35.301105 C25.5256423,35.301105 27.7877269,29.7062169 27.7877269,22 C27.7877269,21.8924088 27.7850966,21.7868867 27.7842198,21.6800345 C28.1607955,21.9815262 28.5117985,22.2793232 28.8354754,22.5715041 C28.8267076,23.1427127 28.8052266,23.6994378 28.774101,24.2447831 C29.1120985,23.9818646 29.4373827,23.7168771 29.7498076,23.450855 C31.6414539,25.3984323 32.2975753,26.983924 31.9719988,27.5864641 C31.8425281,27.8275097 31.2875283,28.1100843 30.1550247,28.1100843 C29.6105462,28.1100843 29.0023552,28.0397362 28.3589471,27.9169227 C28.2296225,28.6484834 28.0775017,29.3428011 27.9028769,29.9913039 C28.7024975,30.1466312 29.4626631,30.238261 30.1550247,30.238261 C32.4549568,30.238261 33.4186808,29.3485649 33.8190756,28.6048854 C34.7218636,26.9316064 33.707871,24.506076 31.2970267,22.0070939 C31.3006799,22.0032514 31.3044793,21.9995566 31.3081325,21.9957141 Z M25.6834622,22 C25.6834622,22.6620994 25.6654883,23.2946409 25.6330475,23.8995456 C25.1622183,24.2097569 24.6643551,24.5193771 24.1382889,24.8261892 C23.5591778,25.1638895 22.9813817,25.476761 22.4087003,25.7668729 C21.862176,25.4896188 21.3119984,25.1910829 20.761967,24.8703785 C20.2050675,24.5449448 19.6782707,24.2155207 19.1789462,23.8847666 C19.1465055,23.2854779 19.1286777,22.6579613 19.1286777,22 C19.1286777,21.339674 19.14709,20.7072804 19.1806998,20.1022279 C19.6817778,19.768518 20.2114972,19.4364337 20.7726345,19.1089309 C21.3081991,18.7960594 21.843033,18.5053564 22.3742137,18.2326837 C22.9474797,18.5235345 23.5258602,18.8372928 24.1052637,19.1754365 C24.6443354,19.4902293 25.1515508,19.8062044 25.631294,20.1215884 C25.6649038,20.7199903 25.6834622,21.3455856 25.6834622,22 L25.6834622,22 Z M22.4059238,19.6058011 C21.0992339,19.6058011 20.038626,20.6784613 20.038626,22 C20.038626,23.3216865 21.0992339,24.3941989 22.4059238,24.3941989 C23.7127599,24.3941989 24.7733677,23.3216865 24.7733677,22 C24.7733677,20.6784613 23.7127599,19.6058011 22.4059238,19.6058011" id="ico-track-data-outline" fill="#F39426" sketch:type="MSShapeGroup"></path>
    </g>
</svg>