<?xml version="1.0" encoding="UTF-8" standalone="no"?>
<svg width="75px" height="64px" viewBox="0 0 75 64" version="1.1" xmlns="http://www.w3.org/2000/svg" xmlns:xlink="http://www.w3.org/1999/xlink" xmlns:sketch="http://www.bohemiancoding.com/sketch/ns">
    <!-- Generator: Sketch 3.3.3 (12081) - http://www.bohemiancoding.com/sketch -->
    <title>ico-calendar + DAYS + 3 + STARTS IN</title>
    <desc>Created with Sketch.</desc>
    <defs></defs>
    <g id="Dashboard" stroke="none" stroke-width="1" fill="none" fill-rule="evenodd" sketch:type="MSPage">
        <g id="Cards---Specks" sketch:type="MSArtboardGroup" transform="translate(-1929.000000, -1516.000000)" stroke="#F0F0F0">
            <g id="Group" sketch:type="MSLayerGroup" transform="translate(1895.500000, 1430.500000)">
                <g id="ico-calendar-+-DAYS-+-3-+-STARTS-IN" transform="translate(33.500000, 86.000000)" sketch:type="MSShapeGroup">
                    <g id="ico-calendar-+-DAYS-+-3">
                        <rect id="Rectangle-426" fill="#FFFFFF" x="0" y="0" width="75" height="28" rx="4"></rect>
                        <path d="M27.9645556,18 L49.0354444,18 L49.0354444,18 C49.012086,18.1633015 49,18.3302393 49,18.5 C49,20.4329966 50.5670034,22 52.5,22 C54.4329966,22 56,20.4329966 56,18.5 C56,18.3302393 55.987914,18.1633015 55.9645556,18 L75,18 L75,57.0010878 C75,60.3141955 72.3085976,63 69.0049843,63 L5.99501566,63 C2.68405993,63 8.66862138e-13,60.319808 8.66862138e-13,57.0010878 L8.66862138e-13,18 L21.0354444,18 C21.012086,18.1633015 21,18.3302393 21,18.5 C21,20.4329966 22.5670034,22 24.5,22 C26.4329966,22 28,20.4329966 28,18.5 C28,18.3302393 27.987914,18.1633015 27.9645556,18 Z" id="ico-calendar" fill="#F6F6F6"></path>
                    </g>
                </g>
            </g>
        </g>
    </g>
</svg>