<?xml version="1.0" encoding="UTF-8" standalone="no"?>
<svg width="45px" height="44px" viewBox="0 0 45 44" version="1.1" xmlns="http://www.w3.org/2000/svg" xmlns:xlink="http://www.w3.org/1999/xlink" xmlns:sketch="http://www.bohemiancoding.com/sketch/ns">
    <!-- Generator: Sketch 3.3.3 (12081) - http://www.bohemiancoding.com/sketch -->
    <title>ico-track-design-outline</title>
    <desc>Created with Sketch.</desc>
    <defs></defs>
    <g id="ASSETS-EXPORT" stroke="none" stroke-width="1" fill="none" fill-rule="evenodd" sketch:type="MSPage">
        <path d="M32.6199753,15.4575798 C32.6076119,15.4719203 32.5942041,15.4857553 32.5797519,15.4989995 L14.9917487,31.5780527 C14.8979302,31.6664313 14.7656342,31.7157236 14.6290629,31.7157236 C14.4953418,31.7157236 14.3628083,31.6664313 14.2663772,31.5780527 L14.0570833,31.3867235 L14.0570833,31.3867235 L10.7874915,32.1884517 L11.6643802,29.1993968 L11.4549093,29.0079057 C11.2542089,28.8244168 11.2542089,28.5275774 11.4549093,28.3445229 L29.0445751,12.2650354 C29.057289,12.253383 29.0705768,12.2424011 29.0843815,12.2321171 L29.6112865,11.750398 C30.0986678,11.3052475 30.7378213,11.0815865 31.3772123,11.0815865 C32.0163658,11.0815865 32.6555193,11.3052475 33.1445632,11.750398 C34.116713,12.640699 34.116713,14.0862438 33.1424255,14.9789334 L32.6199753,15.4575798 Z M43.1278961,21.9998218 C43.1278961,33.4265323 33.7766654,42.7777778 22.3500292,42.7777778 C10.9235443,42.7777778 1.57234054,33.4265055 1.57234054,21.9998218 C1.57234054,10.5735568 10.9236603,1.22222222 22.3500292,1.22222222 C33.7765494,1.22222222 43.1278961,10.5735299 43.1278961,21.9998218 L44.3501183,21.9998218 C44.3501183,9.89851407 34.451563,0 22.3500292,0 C10.2486452,0 0.350118321,9.89854252 0.350118321,21.9998218 C0.350118321,34.1015182 10.2485276,44 22.3500292,44 C34.4516806,44 44.3501183,34.1015466 44.3501183,21.9998218 L43.1278961,21.9998218 Z M31.3772123,12.0196597 C31.7695875,12.0196597 32.1384486,12.1610222 32.417054,12.4137808 C32.9901783,12.9375384 32.9901783,13.7913587 32.417054,14.3157677 C32.3488871,14.3757002 32.2887958,14.4330269 32.2329797,14.4840563 L30.1525837,12.5820694 C30.258753,12.4830506 30.3352329,12.4137808 30.3352329,12.4137808 C30.6138383,12.1590679 30.9843621,12.0196597 31.3772123,12.0196597 Z M21.9963105,17.3827461 L21.2604883,16.710026 L19.3589413,18.4489358 L18.6333323,17.785553 L20.5351168,16.0468603 L19.7213896,15.3029161 L18.332638,16.5727893 L17.6072665,15.9094065 L18.9960181,14.6397504 L18.1822909,13.8958062 L16.2805064,15.6347161 L15.5551348,14.9713333 L17.4569193,13.2326406 L16.6431921,12.4886964 L15.2544405,13.7583525 L14.529069,13.0951868 L15.9178206,11.8255307 L14.3468948,10.3888889 L9.51678499,14.804999 L17.1825892,21.7812673 L21.9963105,17.3827461 Z M33.5735157,27.8592003 L32.1847641,29.1301592 L31.459155,28.4650392 L32.8479066,27.1953831 L32.0344169,26.4520904 L30.1326324,28.192086 L29.4070234,27.526966 L31.3088079,25.7882733 L30.4953182,25.0449805 L29.1065666,26.3159395 L28.3809576,25.6508195 L29.7697092,24.3811634 L28.9562195,23.6378706 L27.054435,25.3778662 L26.3288259,24.7127462 L28.2306104,22.9740535 L27.4171208,22.2307608 L26.0283692,23.5017197 L25.5951414,23.1045586 L22.1542582,26.2503612 L29.8017737,33.2418298 L34.6318836,28.8281083 L33.5735157,27.8592003 Z" id="ico-track-design-outline" fill="#0096FF" sketch:type="MSShapeGroup"></path>
    </g>
</svg>