<?xml version="1.0" encoding="UTF-8" standalone="no"?>
<svg width="46px" height="46px" viewBox="0 0 46 46" version="1.1" xmlns="http://www.w3.org/2000/svg" xmlns:xlink="http://www.w3.org/1999/xlink">
    <defs></defs>
    <g id="Dashboard-Web" stroke="none" stroke-width="1" fill="none" fill-rule="evenodd" stroke-linejoin="round">
        <g id="Dashboard-Cards" transform="translate(-2449.000000, -645.000000)" stroke="#B7B7B7" stroke-width="2">
            <g id="ico-private-prj" transform="translate(2450.000000, 646.000000)">
                <path d="M0,0 L44,0 L44,44 L0,44 L0,0 Z" id="Stroke-141" stroke-linecap="square"></path>
                <path d="M8,22 C8,22 14.324,13 22,13 C29.636,13 36,22 36,22 C36,22 29.597,31 22,31 C14.364,31 8,22 8,22 L8,22 Z" id="Stroke-5403" stroke-linecap="round"></path>
                <path d="M17,22 C17,19.239 19.239,17 22,17 C24.761,17 27,19.239 27,22 C27,24.761 24.761,27 22,27 C19.239,27 17,24.761 17,22 L17,22 Z" id="Stroke-5404" stroke-linecap="round"></path>
                <path d="M10,34 L34,10" id="Stroke-5405" stroke-linecap="round"></path>
            </g>
        </g>
    </g>
</svg>