<?xml version="1.0" encoding="UTF-8" standalone="no"?>
<svg width="29px" height="27px" viewBox="0 0 29 27" version="1.1" xmlns="http://www.w3.org/2000/svg" xmlns:xlink="http://www.w3.org/1999/xlink" xmlns:sketch="http://www.bohemiancoding.com/sketch/ns">
    <!-- Generator: Sketch 3.3.3 (12081) - http://www.bohemiancoding.com/sketch -->
    <title>ico-track-co_pilot</title>
    <desc>Created with Sketch.</desc>
    <defs></defs>
    <g id="ASSETS-EXPORT" stroke="none" stroke-width="1" fill="none" fill-rule="evenodd" sketch:type="MSPage">
        <path d="M1.92682134,10.0864919 L1.92682134,14.32103 L1.92682134,14.32103 C1.36769717,14.3901595 0.937026078,14.8279903 0.937026078,15.3583898 C0.937026078,15.6699199 1.08582322,15.9496575 1.32204221,16.1413882 C1.08582322,16.3303011 0.937026078,16.6057638 0.937026078,16.9120058 C0.937026078,17.6581775 2.08184952,19.0216527 2.08184952,19.0216527 C2.08184952,19.0216527 3.22667295,17.6823812 3.22667295,16.9120058 C3.22667295,16.6057638 3.07787581,16.3303011 2.84165683,16.1413882 C3.07787581,15.9496575 3.22667295,15.6699199 3.22667295,15.3583898 C3.22667295,14.8338122 2.80540451,14.3997823 2.25524257,14.3234393 L2.25524257,10.3589022 C3.1009179,11.0545736 4.31861774,12.0160648 6.07084368,13.3612574 L6.07084368,9.60161579 C6.07084368,9.53641843 6.0863465,9.475146 6.11115101,9.41605408 L6.13118542,9.37091745 C6.16028301,9.31771292 6.19415071,9.26429033 6.24089766,9.22133421 L6.24328271,9.2195898 C6.28120499,9.18470158 6.32342035,9.1559188 6.37016731,9.1317151 C6.50015247,9.06433723 9.59236828,7.49218691 14.6749073,7.49218691 C19.7572079,7.49218691 22.8494237,9.06433723 22.9817939,9.1317151 C23.0287794,9.1559188 23.0688482,9.18470158 23.106532,9.2195898 L23.108917,9.22133421 C23.155664,9.26625279 23.1916782,9.31771292 23.2186292,9.37091745 L23.2386637,9.41605408 C23.2634682,9.475146 23.2787325,9.53641843 23.2787325,9.60161579 L23.2787325,13.2670592 C29.0367174,8.93917575 29.0228841,8.66355883 29.0028497,8.3467302 C28.9782837,7.98040391 28.9651659,7.73771274 15.5041888,0.369757196 C14.9925958,0.0982832494 14.3572188,0.0982832494 13.8387092,0.373900172 C0.38464877,7.73771274 0.371531001,7.98040391 0.346726493,8.3467302 C0.333781187,8.55391666 0.322365779,8.74347953 1.92682134,10.0864919 Z M7.25144285,9.93501632 L7.25144285,12.0080306 C8.49476881,11.6907659 11.1219001,11.1554498 14.6749073,11.1554498 C18.2279146,11.1554498 20.8552844,11.6907659 22.0983718,12.0080306 L22.0983718,9.93501632 C21.2352226,9.56498316 18.5563358,8.5713231 14.6749073,8.5713231 C10.775591,8.5713231 8.11220697,9.5630207 7.25144285,9.93501632 Z M23.2610831,13.5328638 L23.2610831,13.5084421 L22.4854652,13.2509234 C22.4561291,13.2382764 19.3882408,12.234586 14.6749073,12.234586 C9.96395888,12.234586 6.89368553,13.2382764 6.86434943,13.2509234 L6.86267989,13.2509234 L6.07084368,13.5162919 C5.77342809,13.567534 5.43570518,13.7186436 5.11849368,13.9761622 C4.62216502,14.3749782 4.37149639,14.9820332 4.37149639,15.7774845 C4.37149639,16.9628117 5.25253343,17.9665022 6.47320142,18.2303443 C7.98293733,21.7998451 10.4555174,26.3479604 14.6772924,26.3479604 C18.8985903,26.3479604 21.3716474,21.7978827 22.8832914,18.2303443 C24.0996663,17.9627953 24.9783183,16.9608493 24.9783183,15.7774845 C24.9783183,14.94322 24.718825,14.3200292 24.2043699,13.9253563 C23.8935981,13.6841915 23.5518206,13.5780004 23.2610831,13.5328638 Z" id="ico-track-co_pilot" fill="#7F7F7F" sketch:type="MSShapeGroup"></path>
    </g>
</svg>