<svg width="48" height="48" viewBox="0 0 48 48" fill="none" xmlns="http://www.w3.org/2000/svg">
<g clip-path="url(#clip0_8189_11873)">
<circle cx="24" cy="24" r="24" fill="white"/>
<rect x="7.21289" y="44.0712" width="39.4689" height="3.92876" fill="#D72E20"/>
<rect x="-11.377" y="36.7261" width="76.6493" height="3.92876" fill="#D72E20"/>
<path d="M-11.377 29.3809H65.2724V33.3096H-11.377V29.3809Z" fill="#D72E20"/>
<rect x="-11.377" y="22.0356" width="76.6493" height="3.92876" fill="#D72E20"/>
<rect x="-11.377" y="14.6904" width="76.6493" height="3.92876" fill="#D72E20"/>
<rect x="-11.377" y="7.34521" width="76.6493" height="3.92876" fill="#D72E20"/>
<rect x="-11.377" width="76.6493" height="3.92876" fill="#D72E20"/>
<g clip-path="url(#clip1_8189_11873)">
<rect x="-2.21484" width="26.2149" height="25.9644" fill="#293CA9"/>
<path fill-rule="evenodd" clip-rule="evenodd" d="M21.2278 1.14819L21.5936 2.27402H22.7774L21.8197 2.96982L22.1855 4.09565L21.2278 3.39985L20.2701 4.09565L20.6359 2.96982L19.6782 2.27402H20.862L21.2278 1.14819ZM21.5936 7.43987L21.2278 6.31404L20.862 7.43987H19.6782L20.6359 8.13567L20.2701 9.2615L21.2278 8.5657L22.1855 9.2615L21.8197 8.13567L22.7774 7.43987H21.5936ZM21.2278 11.4799L21.5936 12.6057H22.7774L21.8197 13.3015L22.1855 14.4273L21.2278 13.7315L20.2701 14.4273L20.6359 13.3015L19.6782 12.6057H20.862L21.2278 11.4799ZM21.5936 17.7716L21.2278 16.6457L20.862 17.7716H19.6782L20.6359 18.4674L20.2701 19.5932L21.2278 18.8974L22.1855 19.5932L21.8197 18.4674L22.7774 17.7716H21.5936ZM21.5936 22.9374L21.2278 21.8116L20.862 22.9374H19.6782L20.6359 23.6332L20.2701 24.759L21.2278 24.0632L22.1855 24.759L21.8197 23.6332L22.7774 22.9374H21.5936ZM18.6146 20.4333L18.2488 19.3074L17.883 20.4333H16.6992L17.6569 21.1291L17.2911 22.2549L18.2488 21.5591L19.2065 22.2549L18.8407 21.1291L19.7984 20.4333H18.6146ZM18.2488 14.1416L18.6146 15.2674H19.7984L18.8407 15.9632L19.2065 17.0891L18.2488 16.3933L17.2911 17.0891L17.6569 15.9632L16.6992 15.2674H17.883L18.2488 14.1416ZM18.6146 10.1016L18.2488 8.97575L17.883 10.1016H16.6992L17.6569 10.7974L17.2911 11.9232L18.2488 11.2274L19.2065 11.9232L18.8407 10.7974L19.7984 10.1016H18.6146ZM18.2488 3.80991L18.6146 4.93573H19.7984L18.8407 5.63154L19.2065 6.75736L18.2488 6.06156L17.2911 6.75736L17.6569 5.63154L16.6992 4.93573H17.883L18.2488 3.80991ZM15.6024 22.9374L15.2366 21.8116L14.8708 22.9374H13.687L14.6447 23.6332L14.2789 24.759L15.2366 24.0632L16.1943 24.759L15.8285 23.6332L16.7862 22.9374H15.6024ZM15.2366 16.6457L15.6024 17.7716H16.7862L15.8285 18.4674L16.1943 19.5932L15.2366 18.8974L14.2789 19.5932L14.6447 18.4674L13.687 17.7716H14.8708L15.2366 16.6457ZM15.6024 12.6057L15.2366 11.4799L14.8708 12.6057H13.687L14.6447 13.3015L14.2789 14.4273L15.2366 13.7315L16.1943 14.4273L15.8285 13.3015L16.7862 12.6057H15.6024ZM15.2366 6.31404L15.6024 7.43987H16.7862L15.8285 8.13567L16.1943 9.2615L15.2366 8.5657L14.2789 9.2615L14.6447 8.13567L13.687 7.43987H14.8708L15.2366 6.31404ZM15.6024 2.27402L15.2366 1.14819L14.8708 2.27402H13.687L14.6447 2.96982L14.2789 4.09565L15.2366 3.39985L16.1943 4.09565L15.8285 2.96982L16.7862 2.27402H15.6024ZM12.2576 19.3074L12.6234 20.4333H13.8071L12.8495 21.1291L13.2153 22.2549L12.2576 21.5591L11.2999 22.2549L11.6657 21.1291L10.708 20.4333H11.8918L12.2576 19.3074ZM12.6234 15.2674L12.2576 14.1416L11.8918 15.2674H10.708L11.6657 15.9632L11.2999 17.0891L12.2576 16.3933L13.2153 17.0891L12.8495 15.9632L13.8071 15.2674H12.6234ZM12.2576 8.97575L12.6234 10.1016H13.8071L12.8495 10.7974L13.2153 11.9232L12.2576 11.2274L11.2999 11.9232L11.6657 10.7974L10.708 10.1016H11.8918L12.2576 8.97575ZM12.6234 4.93573L12.2576 3.80991L11.8918 4.93573H10.708L11.6657 5.63154L11.2999 6.75736L12.2576 6.06156L13.2153 6.75736L12.8495 5.63154L13.8071 4.93573H12.6234ZM9.24488 21.8116L9.61069 22.9374H10.7945L9.83677 23.6332L10.2026 24.759L9.24488 24.0632L8.2872 24.759L8.653 23.6332L7.69531 22.9374H8.87908L9.24488 21.8116ZM9.61069 17.7716L9.24488 16.6457L8.87908 17.7716H7.69531L8.653 18.4674L8.2872 19.5932L9.24488 18.8974L10.2026 19.5932L9.83677 18.4674L10.7945 17.7716H9.61069ZM9.24488 11.4799L9.61069 12.6057H10.7945L9.83677 13.3015L10.2026 14.4273L9.24488 13.7315L8.2872 14.4273L8.653 13.3015L7.69531 12.6057H8.87908L9.24488 11.4799ZM9.61069 7.43987L9.24488 6.31404L8.87908 7.43987H7.69531L8.653 8.13567L8.2872 9.2615L9.24488 8.5657L10.2026 9.2615L9.83677 8.13567L10.7945 7.43987H9.61069ZM9.24488 1.14819L9.61069 2.27402H10.7945L9.83677 2.96982L10.2026 4.09565L9.24488 3.39985L8.2872 4.09565L8.653 2.96982L7.69531 2.27402H8.87908L9.24488 1.14819ZM6.6312 20.4333L6.26539 19.3074L5.89959 20.4333H4.71582L5.67351 21.1291L5.3077 22.2549L6.26539 21.5591L7.22308 22.2549L6.85727 21.1291L7.81496 20.4333H6.6312ZM6.26539 14.1416L6.6312 15.2674H7.81496L6.85727 15.9632L7.22308 17.0891L6.26539 16.3933L5.3077 17.0891L5.67351 15.9632L4.71582 15.2674H5.89959L6.26539 14.1416ZM6.6312 10.1016L6.26539 8.97575L5.89959 10.1016H4.71582L5.67351 10.7974L5.3077 11.9232L6.26539 11.2274L7.22308 11.9232L6.85727 10.7974L7.81496 10.1016H6.6312ZM6.26539 3.80991L6.6312 4.93573H7.81496L6.85727 5.63154L7.22308 6.75736L6.26539 6.06156L5.3077 6.75736L5.67351 5.63154L4.71582 4.93573H5.89959L6.26539 3.80991ZM3.61948 22.9374L3.25367 21.8116L2.88787 22.9374H1.7041L2.66179 23.6332L2.29598 24.759L3.25367 24.0632L4.21136 24.759L3.84556 23.6332L4.80324 22.9374H3.61948ZM3.25367 16.6457L3.61948 17.7716H4.80324L3.84556 18.4674L4.21136 19.5932L3.25367 18.8974L2.29598 19.5932L2.66179 18.4674L1.7041 17.7716H2.88787L3.25367 16.6457ZM3.61948 12.6057L3.25367 11.4799L2.88787 12.6057H1.7041L2.66179 13.3015L2.29598 14.4273L3.25367 13.7315L4.21136 14.4273L3.84556 13.3015L4.80324 12.6057H3.61948ZM3.25367 6.31404L3.61948 7.43987H4.80324L3.84556 8.13567L4.21136 9.2615L3.25367 8.5657L2.29598 9.2615L2.66179 8.13567L1.7041 7.43987H2.88787L3.25367 6.31404ZM3.61948 2.27402L3.25367 1.14819L2.88787 2.27402H1.7041L2.66179 2.96982L2.29598 4.09565L3.25367 3.39985L4.21136 4.09565L3.84556 2.96982L4.80324 2.27402H3.61948ZM0.27418 19.3074L0.639984 20.4333H1.82375L0.866063 21.1291L1.23187 22.2549L0.27418 21.5591L-0.683507 22.2549L-0.317703 21.1291L-1.27539 20.4333H-0.091624L0.27418 19.3074ZM0.639984 15.2674L0.27418 14.1416L-0.091624 15.2674H-1.27539L-0.317703 15.9632L-0.683507 17.0891L0.27418 16.3933L1.23187 17.0891L0.866063 15.9632L1.82375 15.2674H0.639984ZM0.27418 8.97575L0.639984 10.1016H1.82375L0.866063 10.7974L1.23187 11.9232L0.27418 11.2274L-0.683507 11.9232L-0.317703 10.7974L-1.27539 10.1016H-0.091624L0.27418 8.97575ZM0.639984 4.93573L0.27418 3.80991L-0.091624 4.93573H-1.27539L-0.317703 5.63154L-0.683507 6.75736L0.27418 6.06156L1.23187 6.75736L0.866063 5.63154L1.82375 4.93573H0.639984Z" fill="white"/>
</g>
</g>
<rect x="0.25" y="0.25" width="47.5" height="47.5" rx="23.75" stroke="#F0F1F5" stroke-width="0.5"/>
<defs>
<clipPath id="clip0_8189_11873">
<rect width="48" height="48" rx="24" fill="white"/>
</clipPath>
<clipPath id="clip1_8189_11873">
<rect width="26" height="26" fill="white" transform="translate(-2)"/>
</clipPath>
</defs>
</svg>
