<?xml version="1.0" encoding="UTF-8"?>
<svg width="21px" height="22px" viewBox="0 0 21 22" version="1.1" xmlns="http://www.w3.org/2000/svg" xmlns:xlink="http://www.w3.org/1999/xlink">
    <!-- Generator: sketchtool 63.1 (101010) - https://sketch.com -->
    <title>E0744452-EE76-4789-8A85-0562AC9A587C</title>
    <desc>Created with sketchtool.</desc>
    <g id="TaaS" stroke="none" stroke-width="1" fill="none" fill-rule="evenodd" stroke-linecap="round" stroke-linejoin="round">
        <g id="02-2-Gig-Work-Listing-Page-2----Approved" transform="translate(-343.000000, -433.000000)" stroke="#555555">
            <g id="job-1" transform="translate(80.000000, 371.000000)">
                <g id="Stacked-Group" transform="translate(36.000000, 59.000000)">
                    <g id="Group-4" transform="translate(228.000000, 0.000000)">
                        <g id="icon-black-location" transform="translate(0.000000, 4.000000)">
                            <g id="pin-location-1">
                                <g stroke-width="2">
                                    <ellipse id="Oval" cx="9.09090909" cy="5.78947368" rx="2.67379679" ry="2.63157895"></ellipse>
                                    <path d="M9.09090909,0 C12.3396429,0 14.973262,2.64529182 14.973262,5.90842464 C14.973262,8.75409701 10.5009309,15.1229411 9.35583284,16.7072742 C9.29394298,16.7920318 9.19555586,16.8421053 9.09090909,16.8421053 C8.98626232,16.8421053 8.8878752,16.7920318 8.82598534,16.7072742 C7.6808873,15.1229411 3.20855615,8.75409701 3.20855615,5.90842464 C3.20855615,2.64529182 5.84217527,0 9.09090909,0 Z" id="Path"></path>
                                    <path d="M14.2675325,14.7368421 C16.6329004,15.2577657 18.1818182,16.1272556 18.1818182,17.1113294 C18.1818182,18.7068384 14.1125541,20 9.09090909,20 C4.06926407,20 0,18.7068384 0,17.1113294 C0,16.1291814 1.54199134,15.2616173 3.8961039,14.7397308" id="Path"></path>
                                </g>
                            </g>
                        </g>
                    </g>
                </g>
            </g>
        </g>
    </g>
</svg>