<?xml version="1.0" encoding="UTF-8"?>
<svg width="22px" height="24px" viewBox="0 0 22 24" version="1.1" xmlns="http://www.w3.org/2000/svg" xmlns:xlink="http://www.w3.org/1999/xlink">
    <!-- Generator: sketchtool 62 (101010) - https://sketch.com -->
    <title>AAEC0EB0-9F48-4361-A4E3-F440FA4B8F40</title>
    <desc>Created with sketchtool.</desc>
    <g id="TaaS" stroke="none" stroke-width="1" fill="none" fill-rule="evenodd" stroke-linecap="round" stroke-linejoin="round">
        <g id="04-Gig-Work-Details-Redesign-V2----Approved" transform="translate(-184.000000, -297.000000)" stroke="#EF476F">
            <g id="icon-location" transform="translate(185.000000, 298.000000)">
                <g id="pin-location-1">
                    <g stroke-width="2">
                        <ellipse id="Oval" cx="10" cy="6.36842105" rx="2.94117647" ry="2.89473684"></ellipse>
                        <path d="M10,0 C13.5736072,0 16.4705882,2.909821 16.4705882,6.49926711 C16.4705882,9.62950672 11.551024,16.6352352 10.2914161,18.3780017 C10.2233373,18.471235 10.1151114,18.5263158 10,18.5263158 C9.88488856,18.5263158 9.77666272,18.471235 9.70858388,18.3780017 C8.44897603,16.6352352 3.52941176,9.62950672 3.52941176,6.49926711 C3.52941176,2.909821 6.4263928,0 10,0 Z" id="Path"></path>
                        <path d="M15.6942857,16.2105263 C18.2961905,16.7835423 20,17.7399811 20,18.8224623 C20,20.5775223 15.5238095,22 10,22 C4.47619048,22 0,20.5775223 0,18.8224623 C0,17.7420995 1.69619048,16.787779 4.28571429,16.2137039" id="Path"></path>
                    </g>
                </g>
            </g>
        </g>
    </g>
</svg>