<?xml version="1.0" encoding="UTF-8"?>
<svg width="18px" height="24px" viewBox="0 0 18 24" version="1.1" xmlns="http://www.w3.org/2000/svg" xmlns:xlink="http://www.w3.org/1999/xlink">
    <!-- Generator: sketchtool 62 (101010) - https://sketch.com -->
    <title>52C90FFB-CC27-4B10-8E63-415ACA6557E4</title>
    <desc>Created with sketchtool.</desc>
    <g id="TaaS" stroke="none" stroke-width="1" fill="none" fill-rule="evenodd" stroke-linecap="round" stroke-linejoin="round">
        <g id="04-Gig-Work-Details-Redesign-V2----Approved" transform="translate(-902.000000, -297.000000)" stroke="#26B3C5">
            <g id="icon-duration" transform="translate(903.000000, 298.000000)">
                <g id="Group-9">
                    <g stroke-width="2">
                        <path d="M2.15350588,4.79233333 C2.6768,7.73391667 4.51585882,9.74875 7.7648,10.7708333 C11.0137412,9.74875 12.8528,7.73391667 13.3760941,4.79233333 C13.4946824,4.04158333 12.9657412,3.34033333 12.1949176,3.22483333 C12.1215059,3.21291667 12.0471529,3.20741667 11.9728,3.20833333 L3.5568,3.20833333 C2.77750588,3.20375 2.14127059,3.81608333 2.13656471,4.576 C2.13656471,4.64841667 2.14221176,4.72083333 2.15350588,4.79233333 Z" id="Stroke-1"></path>
                        <path d="M3.55651765,18.3333589 C2.77722353,18.3379167 2.14192941,17.7255833 2.13722353,16.9665833 C2.13722353,16.8941667 2.14192941,16.82175 2.15322353,16.75025 C2.67651765,13.8086667 4.51557647,11.7938333 7.76451765,10.7708333 C11.0134588,11.7938333 12.8525176,13.8086667 13.3758118,16.75025 C13.4934588,17.501 12.9654588,18.20225 12.1936941,18.3168333 C12.1212235,18.32875 12.0468706,18.3333589 11.9725176,18.3333589 L3.55651765,18.3333589 Z" id="Stroke-5"></path>
                        <line x1="0" y1="21.0833333" x2="15.5294118" y2="21.0833333" id="Stroke-7"></line>
                        <line x1="0" y1="0.458333333" x2="15.5294118" y2="0.458333333" id="Stroke-3"></line>
                    </g>
                </g>
            </g>
        </g>
    </g>
</svg>