<?xml version="1.0" encoding="UTF-8"?>
<svg width="35px" height="35px" viewBox="0 0 35 35" version="1.1" xmlns="http://www.w3.org/2000/svg" xmlns:xlink="http://www.w3.org/1999/xlink">
    <!-- Generator: sketchtool 62 (101010) - https://sketch.com -->
    <title>1EF461D5-8CE7-4936-91E5-80EBD141882D</title>
    <desc>Created with sketchtool.</desc>
    <g id="Thrive" stroke="none" stroke-width="1" fill="none" fill-rule="evenodd">
        <g id="D03_1_Article" transform="translate(-105.000000, -1137.000000)" fill="#AAAAAA" fill-rule="nonzero">
            <path d="M122.5,1137 C112.835625,1137 105,1144.83562 105,1154.5 C105,1164.16438 112.835625,1172 122.5,1172 C132.164375,1172 140,1164.16438 140,1154.5 C140,1144.83562 132.164375,1137 122.5,1137 Z M126.875,1148.66667 L124.90625,1148.66667 C124.121667,1148.66667 123.958333,1148.98896 123.958333,1149.80125 L123.958333,1151.58333 L126.875,1151.58333 L126.570208,1154.5 L123.958333,1154.5 L123.958333,1164.70833 L119.583333,1164.70833 L119.583333,1154.5 L116.666667,1154.5 L116.666667,1151.58333 L119.583333,1151.58333 L119.583333,1148.2175 C119.583333,1145.63771 120.941042,1144.29167 124.000625,1144.29167 L126.875,1144.29167 L126.875,1148.66667 Z" id="icon-facebook"></path>
        </g>
    </g>
</svg>