<?xml version="1.0" encoding="UTF-8"?>
<svg width="18px" height="20px" viewBox="0 0 18 20" version="1.1" xmlns="http://www.w3.org/2000/svg" xmlns:xlink="http://www.w3.org/1999/xlink">
    <!-- Generator: sketchtool 63.1 (101010) - https://sketch.com -->
    <title>52CD6D74-4265-497A-89D8-FF91F35564F8</title>
    <desc>Created with sketchtool.</desc>
    <defs>
        <polygon id="path-1" points="0.000206597901 0.00266666667 17.9914122 0.00266666667 17.9914122 20 0.000206597901 20"></polygon>
    </defs>
    <g id="TaaS" stroke="none" stroke-width="1" fill="none" fill-rule="evenodd">
        <g id="02-1-Gig-Work-Listing-Page-2----Approved" transform="translate(-116.000000, -433.000000)">
            <g id="job-1" transform="translate(80.000000, 371.000000)">
                <g id="Stacked-Group" transform="translate(36.000000, 59.000000)">
                    <g id="Group-10">
                        <g id="icon-skills" transform="translate(0.000000, 3.000000)">
                            <g>
                                <path d="M8.9964,9.00013333 C8.4444,9.00013333 7.9964,9.44813333 7.9964,10.0001333 C7.9964,10.5521333 8.4444,11.0001333 8.9964,11.0001333 C9.5484,11.0001333 9.9964,10.5521333 9.9964,10.0001333 C9.9964,9.44813333 9.5484,9.00013333 8.9964,9.00013333 M8.9964,13.0001333 C7.34173333,13.0001333 5.9964,11.6548 5.9964,10.0001333 C5.9964,8.34546667 7.34173333,7.00013333 8.9964,7.00013333 C10.6497333,7.00013333 11.9964,8.34546667 11.9964,10.0001333 C11.9964,11.6548 10.6497333,13.0001333 8.9964,13.0001333" id="Fill-1" fill="#555555"></path>
                                <g id="Group-5" transform="translate(0.000000, -0.002533)">
                                    <mask id="mask-2" fill="white">
                                        <use xlink:href="#path-1"></use>
                                    </mask>
                                    <g id="Clip-4"></g>
                                    <path d="M5.43653333,13.8549333 C6.44053333,13.8549333 7.3632,14.5122667 7.66453333,15.5082667 L8.25386667,17.4429333 C8.32986667,17.6976 8.52453333,17.8922667 8.7752,17.9669333 C8.97386667,18.0242667 9.18186667,18.0069333 9.3632,17.9069333 C9.54586667,17.8082667 9.6792,17.6456 9.73786667,17.4482667 L10.3218667,15.5136 C10.6738667,14.3456 11.8832,13.6402667 13.0685333,13.9202667 L15.0325333,14.3749333 C15.2818667,14.4336 15.5458667,14.3602667 15.7392,14.1829333 C15.8898667,14.0402667 15.9778667,13.8469333 15.9858667,13.6362667 C15.9925333,13.4269333 15.9178667,13.2282667 15.7752,13.0736 L14.3992,11.5909333 C13.5725333,10.7002667 13.5725333,9.30426667 14.3992,8.4136 L15.7792,6.9336 C15.9578667,6.74293333 16.0285333,6.47893333 15.9712,6.22426667 C15.9245333,6.02026667 15.8018667,5.84693333 15.6258667,5.73493333 C15.4512,5.6256 15.2432,5.58826667 15.0338667,5.6336 L13.0752,6.08693333 C11.8885333,6.36293333 10.6792,5.6616 10.3272,4.49493333 L9.7392,2.55893333 C9.66186667,2.3056 9.46853333,2.11093333 9.21786667,2.03626667 C8.80853333,1.91226667 8.37786667,2.14693333 8.2552,2.55493333 C8.2552,2.5576 8.2552,2.55893333 8.25386667,2.56026667 L7.6632,4.49493333 C7.31253333,5.6576 6.10453333,6.35626667 4.9192,6.0856 L2.95386667,5.6296 C2.70053333,5.5736 2.4392,5.6456 2.24853333,5.82293333 C2.09653333,5.9656 2.00853333,6.15893333 2.00053333,6.3696 C1.99253333,6.5776 2.06853333,6.7776 2.2112,6.93093333 L3.5872,8.40693333 C4.4152,9.29893333 4.4152,10.6949333 3.5872,11.5856 L2.21386667,13.0682667 C2.03386667,13.2589333 1.9632,13.5229333 2.02053333,13.7776 C2.06586667,13.9816 2.18853333,14.1562667 2.3672,14.2682667 C2.5432,14.3789333 2.75386667,14.4136 2.95653333,14.3682667 L4.91786667,13.9149333 C5.0912,13.8749333 5.26586667,13.8549333 5.43653333,13.8549333 L5.43653333,13.8549333 Z M9.00053333,20.0002667 C8.73253333,20.0002667 8.46453333,19.9616 8.20053333,19.8829333 C7.3032,19.6136 6.60853333,18.9162667 6.34053333,18.0202667 L5.74986667,16.0882667 C5.70053333,15.9242667 5.5352,15.8309333 5.3672,15.8629333 L3.40453333,16.3176 C2.6752,16.4856 1.92986667,16.3562667 1.2992,15.9602667 C0.6712,15.5629333 0.233866667,14.9456 0.0698666667,14.2202667 C-0.134133333,13.3202667 0.1192,12.3802667 0.748533333,11.7056 L2.12186667,10.2256 C2.24186667,10.0976 2.24186667,9.8976 2.1232,9.7696 L0.748533333,8.29493333 C0.241866667,7.75226667 -0.0234666667,7.04426667 0.00186666667,6.30026667 C0.0272,5.5576 0.340533333,4.86826667 0.884533333,4.36026667 C1.5592,3.73093333 2.49786667,3.47626667 3.40053333,3.6816 L5.36853333,4.13626667 C5.5312,4.17093333 5.6992,4.0776 5.74853333,3.9136 L6.34053333,1.9816 C6.55253333,1.27093333 7.02853333,0.686933333 7.68186667,0.336266667 C8.33253333,-0.0157333333 9.08186667,-0.0930666667 9.79386667,0.1216 C10.6872,0.3896 11.3845333,1.08426667 11.6525333,1.98026667 L12.2418667,3.9136 C12.2912,4.08026667 12.4645333,4.17893333 12.6258667,4.13893333 L14.5872,3.68426667 C15.3138667,3.5176 16.0632,3.6456 16.6912,4.04293333 C17.3205333,4.44026667 17.7578667,5.0576 17.9218667,5.78293333 C18.1272,6.6856 17.8712,7.6256 17.2418667,8.29893333 L15.8632,9.77626667 C15.7458667,9.90293333 15.7458667,10.1029333 15.8645333,10.2309333 L17.2392,11.7122667 C17.7432,12.2522667 18.0098667,12.9616 17.9845333,13.7042667 C17.9592,14.4482667 17.6458667,15.1362667 17.1018667,15.6442667 C16.4258667,16.2749333 15.4872,16.5296 14.5845333,16.3242667 L12.6192,15.8682667 C12.4552,15.8309333 12.2845333,15.9282667 12.2365333,16.0922667 L11.6525333,18.0229333 C11.4405333,18.7322667 10.9645333,19.3162667 10.3112,19.6669333 C9.9032,19.8882667 9.45386667,20.0002667 9.00053333,20.0002667 L9.00053333,20.0002667 Z" id="Fill-3" fill="#555555" mask="url(#mask-2)"></path>
                                </g>
                            </g>
                        </g>
                    </g>
                </g>
            </g>
        </g>
    </g>
</svg>