<svg width="14" height="14" viewBox="0 0 14 14" fill="none" xmlns="http://www.w3.org/2000/svg">
<path fill-rule="evenodd" clip-rule="evenodd" d="M1.59407 6.435H4.44355C4.48822 4.95479 4.70715 3.60675 5.04984 2.57869C5.14009 2.30794 5.24119 2.05246 5.35365 1.81884C3.32947 2.46148 1.81898 4.2575 1.59407 6.435ZM7.00006 0.434998C3.37431 0.434998 0.435059 3.37425 0.435059 7C0.435059 10.6257 3.37431 13.565 7.00006 13.565C10.6258 13.565 13.5651 10.6257 13.5651 7C13.5651 3.37425 10.6258 0.434998 7.00006 0.434998ZM7.00006 1.565C6.97124 1.565 6.85385 1.58201 6.66533 1.82123C6.48182 2.05408 6.29185 2.42603 6.12185 2.93603C5.82384 3.83006 5.61852 5.05272 5.57409 6.435H8.42603C8.3816 5.05272 8.17628 3.83006 7.87827 2.93603C7.70827 2.42603 7.5183 2.05408 7.33479 1.82123C7.14626 1.58201 7.02888 1.565 7.00006 1.565ZM9.55657 6.435C9.51189 4.95479 9.29296 3.60675 8.95028 2.57869C8.86003 2.30794 8.75893 2.05246 8.64647 1.81884C10.6706 2.46148 12.1811 4.2575 12.406 6.435H9.55657ZM8.42603 7.565H5.57409C5.61852 8.94727 5.82384 10.1699 6.12185 11.064C6.29185 11.574 6.48182 11.9459 6.66533 12.1788C6.85385 12.418 6.97124 12.435 7.00006 12.435C7.02888 12.435 7.14626 12.418 7.33479 12.1788C7.5183 11.9459 7.70827 11.574 7.87827 11.064C8.17628 10.1699 8.3816 8.94727 8.42603 7.565ZM8.64646 12.1812C8.75893 11.9475 8.86003 11.6921 8.95028 11.4213C9.29296 10.3932 9.51189 9.0452 9.55657 7.565H12.406C12.1811 9.74249 10.6706 11.5385 8.64646 12.1812ZM5.35365 12.1812C5.24119 11.9475 5.14009 11.6921 5.04984 11.4213C4.70715 10.3932 4.48822 9.0452 4.44355 7.565H1.59407C1.81898 9.74249 3.32948 11.5385 5.35365 12.1812Z" fill="#227681"/>
</svg>
