<?xml version="1.0" encoding="UTF-8"?>
<svg width="10px" height="10px" viewBox="0 0 10 10" version="1.1" xmlns="http://www.w3.org/2000/svg" xmlns:xlink="http://www.w3.org/1999/xlink">
    <!-- Generator: sketchtool 63.1 (101010) - https://sketch.com -->
    <title>E008ABA4-32F2-42CD-9934-378FD0AB461B</title>
    <desc>Created with sketchtool.</desc>
    <g id="Symbols" stroke="none" stroke-width="1" fill="none" fill-rule="evenodd">
        <g id="clear-icon" fill="#555555">
            <g id="Path">
                <path d="M9.70756737,0.292432626 C9.31753943,-0.0974775421 8.68530411,-0.0974775421 8.29527617,0.292432626 L5.0062557,3.58145309 L1.71723523,0.292432626 C1.32533053,-0.0860816018 0.702378377,-0.0806683159 0.317110731,0.30459933 C-0.0681569145,0.689866976 -0.0735702003,1.31281913 0.304944028,1.70472383 L3.5939645,4.9937443 L0.304944028,8.28276477 C0.0453015965,8.53353582 -0.0588284247,8.90488992 0.0325764211,9.25409683 C0.123981267,9.60330374 0.396696257,9.87601873 0.745903168,9.96742358 C1.09511008,10.0588284 1.46646418,9.9546984 1.71723523,9.69505597 L5.0062557,6.4060355 L8.29527617,9.69505597 C8.68718087,10.0735702 9.31013302,10.0681569 9.69540067,9.68288927 C10.0806683,9.29762162 10.0860816,8.67466947 9.70756737,8.28276477 L6.41854691,4.9937443 L9.70756737,1.70472383 C10.0974775,1.31469589 10.0974775,0.682460566 9.70756737,0.292432626 Z"></path>
            </g>
        </g>
    </g>
</svg>