<?xml version="1.0" encoding="UTF-8"?>
<svg width="16px" height="22px" viewBox="0 0 16 22" version="1.1" xmlns="http://www.w3.org/2000/svg" xmlns:xlink="http://www.w3.org/1999/xlink">
    <!-- Generator: sketchtool 63.1 (101010) - https://sketch.com -->
    <title>E108B11C-D7C2-408D-B020-088D167D4630</title>
    <desc>Created with sketchtool.</desc>
    <g id="TaaS" stroke="none" stroke-width="1" fill="none" fill-rule="evenodd" stroke-linecap="round" stroke-linejoin="round">
        <g id="02-2-Gig-Work-Listing-Page-2----Approved" transform="translate(-855.000000, -433.000000)" stroke="#555555">
            <g id="job-1" transform="translate(80.000000, 371.000000)">
                <g id="Stacked-Group" transform="translate(36.000000, 59.000000)">
                    <g id="Group-12" transform="translate(740.000000, 0.000000)">
                        <g id="icon-black-duration" transform="translate(0.000000, 4.000000)">
                            <g id="Group-9">
                                <g stroke-width="2">
                                    <path d="M1.90675,4.35666667 C2.37008333,7.03083333 3.99841667,8.8625 6.87508333,9.79166667 C9.75175,8.8625 11.3800833,7.03083333 11.8434167,4.35666667 C11.9484167,3.67416667 11.4800833,3.03666667 10.7975833,2.93166667 C10.7325833,2.92083333 10.66675,2.91583333 10.6009167,2.91666667 L3.14925,2.91666667 C2.45925,2.9125 1.89591667,3.46916667 1.89175,4.16 C1.89175,4.22583333 1.89675,4.29166667 1.90675,4.35666667 Z" id="Stroke-1"></path>
                                    <path d="M3.149,16.6666899 C2.459,16.6708333 1.8965,16.1141667 1.89233333,15.4241667 C1.89233333,15.3583333 1.8965,15.2925 1.9065,15.2275 C2.36983333,12.5533333 3.99816667,10.7216667 6.87483333,9.79166667 C9.7515,10.7216667 11.3798333,12.5533333 11.8431667,15.2275 C11.9473333,15.91 11.4798333,16.5475 10.7965,16.6516667 C10.7323333,16.6625 10.6665,16.6666899 10.6006667,16.6666899 L3.149,16.6666899 Z" id="Stroke-5"></path>
                                    <line x1="0" y1="19.1666667" x2="13.75" y2="19.1666667" id="Stroke-7"></line>
                                    <line x1="0" y1="0.416666667" x2="13.75" y2="0.416666667" id="Stroke-3"></line>
                                </g>
                            </g>
                        </g>
                    </g>
                </g>
            </g>
        </g>
    </g>
</svg>