<svg width="40" height="40" viewBox="0 0 40 40" fill="none" xmlns="http://www.w3.org/2000/svg">
<rect width="40" height="40" rx="4" fill="#F4F4F4"/>
<path fill-rule="evenodd" clip-rule="evenodd" d="M14.2929 10.7929C14.6834 10.4024 15.3166 10.4024 15.7071 10.7929L19.7071 14.7929C20.0976 15.1834 20.0976 15.8166 19.7071 16.2071C19.3166 16.5976 18.6834 16.5976 18.2929 16.2071L16 13.9142V23.5C16 24.0523 15.5523 24.5 15 24.5C14.4477 24.5 14 24.0523 14 23.5V13.9142L11.7071 16.2071C11.3166 16.5976 10.6834 16.5976 10.2929 16.2071C9.90237 15.8166 9.90237 15.1834 10.2929 14.7929L14.2929 10.7929ZM24 25.0858V15.5C24 14.9477 24.4477 14.5 25 14.5C25.5523 14.5 26 14.9477 26 15.5V25.0858L28.2929 22.7929C28.6834 22.4024 29.3166 22.4024 29.7071 22.7929C30.0976 23.1834 30.0976 23.8166 29.7071 24.2071L25.7071 28.2071C25.3166 28.5976 24.6834 28.5976 24.2929 28.2071L20.2929 24.2071C19.9024 23.8166 19.9024 23.1834 20.2929 22.7929C20.6834 22.4024 21.3166 22.4024 21.7071 22.7929L24 25.0858Z" fill="#137D60"/>
</svg>
