<svg width="14" height="12" viewBox="0 0 14 12" fill="none" xmlns="http://www.w3.org/2000/svg">
<path fill-rule="evenodd" clip-rule="evenodd" d="M0.634766 0.666685C0.634766 0.354644 0.887725 0.101685 1.19977 0.101685H9.86643C10.1785 0.101685 10.4314 0.354644 10.4314 0.666685C10.4314 0.978725 10.1785 1.23168 9.86643 1.23168H1.19977C0.887725 1.23168 0.634766 0.978725 0.634766 0.666685ZM0.634766 3.33335C0.634766 3.02131 0.887725 2.76835 1.19977 2.76835H7.19977C7.51181 2.76835 7.76477 3.02131 7.76477 3.33335C7.76477 3.64539 7.51181 3.89835 7.19977 3.89835H1.19977C0.887725 3.89835 0.634766 3.64539 0.634766 3.33335ZM10.5331 2.76835C10.8451 2.76835 11.0981 3.02131 11.0981 3.33335V9.96932L12.8003 8.26717C13.0209 8.04652 13.3786 8.04652 13.5993 8.26717C13.8199 8.48781 13.8199 8.84555 13.5993 9.0662L10.9326 11.7329C10.712 11.9535 10.3542 11.9535 10.1336 11.7329L7.46692 9.0662C7.24627 8.84555 7.24627 8.48781 7.46692 8.26717C7.68756 8.04652 8.0453 8.04652 8.26595 8.26717L9.9681 9.96932V3.33335C9.9681 3.02131 10.2211 2.76835 10.5331 2.76835ZM0.634766 6.00002C0.634766 5.68798 0.887725 5.43502 1.19977 5.43502H7.19977C7.51181 5.43502 7.76477 5.68798 7.76477 6.00002C7.76477 6.31206 7.51181 6.56502 7.19977 6.56502H1.19977C0.887725 6.56502 0.634766 6.31206 0.634766 6.00002Z" fill="#2A2A2A"/>
<path fill-rule="evenodd" clip-rule="evenodd" d="M0.634766 0.666685C0.634766 0.354644 0.887725 0.101685 1.19977 0.101685H9.86643C10.1785 0.101685 10.4314 0.354644 10.4314 0.666685C10.4314 0.978725 10.1785 1.23168 9.86643 1.23168H1.19977C0.887725 1.23168 0.634766 0.978725 0.634766 0.666685ZM0.634766 3.33335C0.634766 3.02131 0.887725 2.76835 1.19977 2.76835H7.19977C7.51181 2.76835 7.76477 3.02131 7.76477 3.33335C7.76477 3.64539 7.51181 3.89835 7.19977 3.89835H1.19977C0.887725 3.89835 0.634766 3.64539 0.634766 3.33335ZM10.5331 2.76835C10.8451 2.76835 11.0981 3.02131 11.0981 3.33335V9.96932L12.8003 8.26717C13.0209 8.04652 13.3786 8.04652 13.5993 8.26717C13.8199 8.48781 13.8199 8.84555 13.5993 9.0662L10.9326 11.7329C10.712 11.9535 10.3542 11.9535 10.1336 11.7329L7.46692 9.0662C7.24627 8.84555 7.24627 8.48781 7.46692 8.26717C7.68756 8.04652 8.0453 8.04652 8.26595 8.26717L9.9681 9.96932V3.33335C9.9681 3.02131 10.2211 2.76835 10.5331 2.76835ZM0.634766 6.00002C0.634766 5.68798 0.887725 5.43502 1.19977 5.43502H7.19977C7.51181 5.43502 7.76477 5.68798 7.76477 6.00002C7.76477 6.31206 7.51181 6.56502 7.19977 6.56502H1.19977C0.887725 6.56502 0.634766 6.31206 0.634766 6.00002Z" fill="black" fill-opacity="0.2"/>
</svg>
