<?xml version="1.0" encoding="UTF-8"?>
<svg width="35px" height="35px" viewBox="0 0 35 35" version="1.1" xmlns="http://www.w3.org/2000/svg" xmlns:xlink="http://www.w3.org/1999/xlink">
    <!-- Generator: sketchtool 62 (101010) - https://sketch.com -->
    <title>98B36CB6-9363-4AE1-9293-675C31608E4A</title>
    <desc>Created with sketchtool.</desc>
    <g id="Thrive" stroke="none" stroke-width="1" fill="none" fill-rule="evenodd">
        <g id="D03_1_Article" transform="translate(-145.000000, -1137.000000)" fill="#AAAAAA" fill-rule="nonzero">
            <path d="M162.5,1137 C152.835625,1137 145,1144.83562 145,1154.5 C145,1164.16438 152.835625,1172 162.5,1172 C172.164375,1172 180,1164.16438 180,1154.5 C180,1144.83562 172.164375,1137 162.5,1137 Z M171.34625,1151.06562 C171.613125,1156.95729 167.219167,1163.52562 159.440417,1163.52562 C157.075,1163.52562 154.874375,1162.83146 153.020833,1161.64292 C155.243333,1161.90542 157.461458,1161.28708 159.221667,1159.90896 C157.39,1159.87542 155.842708,1158.66354 155.3075,1156.99958 C155.965208,1157.125 156.612708,1157.08854 157.200417,1156.92812 C155.186458,1156.52271 153.795208,1154.70854 153.840417,1152.7675 C154.40625,1153.08104 155.050833,1153.26917 155.737708,1153.29104 C153.8725,1152.04417 153.344583,1149.58104 154.44125,1147.69833 C156.50625,1150.23292 159.593542,1151.89979 163.074583,1152.07479 C162.463542,1149.45563 164.45125,1146.93125 167.156458,1146.93125 C168.359583,1146.93125 169.448958,1147.44021 170.213125,1148.25396 C171.166875,1148.06729 172.065208,1147.71729 172.873125,1147.2375 C172.559583,1148.21604 171.896042,1149.03562 171.03125,1149.55479 C171.878542,1149.45271 172.686458,1149.22813 173.436042,1148.89417 C172.876042,1149.73708 172.167292,1150.475 171.34625,1151.06562 L171.34625,1151.06562 Z" id="icon-twitter"></path>
        </g>
    </g>
</svg>