<svg width="14" height="12" viewBox="0 0 14 12" fill="none" xmlns="http://www.w3.org/2000/svg">
<path fill-rule="evenodd" clip-rule="evenodd" d="M3.26672 0.267169C3.48737 0.046523 3.84511 0.046523 4.06575 0.267169L6.73242 2.93384C6.95307 3.15448 6.95307 3.51222 6.73242 3.73287C6.51177 3.95351 6.15403 3.95351 5.93339 3.73287L4.23124 2.03072V8.66668C4.23124 8.97873 3.97828 9.23168 3.66624 9.23168C3.3542 9.23168 3.10124 8.97873 3.10124 8.66668V2.03072L1.39909 3.73287C1.17844 3.95351 0.820701 3.95351 0.600055 3.73287C0.379409 3.51222 0.379409 3.15448 0.600055 2.93384L3.26672 0.267169ZM9.7679 3.33335C9.7679 3.02131 10.0209 2.76835 10.3329 2.76835C10.6449 2.76835 10.8979 3.02131 10.8979 3.33335V9.96932L12.6001 8.26717C12.8207 8.04652 13.1784 8.04652 13.3991 8.26717C13.6197 8.48781 13.6197 8.84555 13.3991 9.0662L10.7324 11.7329C10.5118 11.9535 10.154 11.9535 9.93339 11.7329L7.26672 9.0662C7.04608 8.84555 7.04608 8.48781 7.26672 8.26717C7.48737 8.04652 7.84511 8.04652 8.06575 8.26717L9.7679 9.96932V3.33335Z" fill="#7F7F7F"/>
</svg>
