<?xml version="1.0" encoding="UTF-8"?>
<svg width="35px" height="35px" viewBox="0 0 35 35" version="1.1" xmlns="http://www.w3.org/2000/svg" xmlns:xlink="http://www.w3.org/1999/xlink">
    <!-- Generator: sketchtool 62 (101010) - https://sketch.com -->
    <title>A17EE70C-4FF2-418A-A9EE-80C7482C7231</title>
    <desc>Created with sketchtool.</desc>
    <g id="Thrive" stroke="none" stroke-width="1" fill="none" fill-rule="evenodd">
        <g id="D03_1_Article" transform="translate(-65.000000, -1137.000000)" fill="#AAAAAA" fill-rule="nonzero">
            <path d="M82.5,1137 C72.835625,1137 65,1144.83562 65,1154.5 C65,1164.16438 72.835625,1172 82.5,1172 C92.164375,1172 100,1164.16438 100,1154.5 C100,1144.83562 92.164375,1137 82.5,1137 Z M79.5833333,1160.33333 L76.6666667,1160.33333 L76.6666667,1151.58333 L79.5833333,1151.58333 L79.5833333,1160.33333 Z M78.125,1150.28396 C77.2397917,1150.28396 76.5208333,1149.56063 76.5208333,1148.66667 C76.5208333,1147.77417 77.2383333,1147.04938 78.125,1147.04938 C79.0116667,1147.04938 79.7291667,1147.77417 79.7291667,1148.66667 C79.7291667,1149.56063 79.0102083,1150.28396 78.125,1150.28396 Z M89.7916667,1160.33333 L86.8779167,1160.33333 L86.8779167,1156.16104 C86.8779167,1153.41792 83.9583333,1153.64979 83.9583333,1156.16104 L83.9583333,1160.33333 L81.0416667,1160.33333 L81.0416667,1151.58333 L83.9583333,1151.58333 L83.9583333,1153.17729 C85.23,1150.82063 89.7916667,1150.64563 89.7916667,1155.43479 L89.7916667,1160.33333 Z" id="icon-linkedIn"></path>
        </g>
    </g>
</svg>