<?xml version="1.0" encoding="UTF-8"?>
<svg width="12px" height="12px" viewBox="0 0 14 14" version="1.1" xmlns="http://www.w3.org/2000/svg" xmlns:xlink="http://www.w3.org/1999/xlink">
    <title>Group 6</title>
    <defs>
        <rect id="path-1" x="0" y="0" width="892" height="106"></rect>
        <filter x="-0.1%" y="-0.5%" width="100.1%" height="100.9%" filterUnits="objectBoundingBox" id="filter-2">
            <feOffset dx="0" dy="-1" in="SourceAlpha" result="shadowOffsetInner1"></feOffset>
            <feComposite in="shadowOffsetInner1" in2="SourceAlpha" operator="arithmetic" k2="-1" k3="1" result="shadowInnerInner1"></feComposite>
            <feColorMatrix values="0 0 0 0 0.835294118   0 0 0 0 0.835294118   0 0 0 0 0.835294118  0 0 0 1 0" type="matrix" in="shadowInnerInner1"></feColorMatrix>
        </filter>
    </defs>
    <g id="Page-1" stroke="none" stroke-width="1" fill="none" fill-rule="evenodd">
        <g id="01_2_Challenge-Listing-Veteran" transform="translate(-656.000000, -740.000000)">
            <g id="Group-58" transform="translate(442.000000, 159.000000)">
                <g id="Group-57" transform="translate(1.000000, 47.000000)">
                    <g id="Group-50" transform="translate(0.000000, 462.000000)">
                        <g id="Rectangle-Copy-6">
                            <use fill="#FFFFFF" fill-rule="evenodd" xlink:href="#path-1"></use>
                            <use fill="black" fill-opacity="1" filter="url(#filter-2)" xlink:href="#path-1"></use>
                        </g>
                        <g id="Group-35-Copy-3" transform="translate(20.000000, 17.000000)">
                            <g id="Group-49" transform="translate(125.000000, 52.000000)">
                                <g id="Group-36" transform="translate(64.000000, 0.000000)">
                                    <rect id="Rectangle" fill="#effae4" x="0" y="0" width="40" height="20" rx="3"></rect>
                                    <g id="Group-6" transform="translate(4.000000, 3.000000)">
                                        <path d="M1.511236,9.76816913 C1.50913571,9.66588472 1.5288628,9.56473149 1.56864824,9.47131161 L1.61505428,9.38071403 C1.97402793,8.78742531 1.78407804,8.01546413 1.19078932,7.65649048 L1.1461432,7.63071403 C0.797809456,7.43902858 0.670820928,7.00125653 0.86250638,6.65292279 C0.911829672,6.56329175 0.979490454,6.48555403 1.0606556,6.42454275 L1.1461432,6.36928597 C1.71569757,6.05586446 1.94595413,5.36521932 1.69704325,4.77952809 L1.62817167,4.64147672 L1.61505428,4.61928597 C1.40923114,4.27911463 1.51814188,3.83649865 1.85831322,3.63067551 C1.94584396,3.57771439 2.04330878,3.54422194 2.14410549,3.53196721 L2.24576831,3.52685723 C2.93905824,3.54109317 3.51262128,2.99061114 3.52685723,2.29732122 L3.52685723,2.24576831 C3.51869483,1.84825972 3.83432228,1.5193984 4.23183087,1.511236 C4.33411528,1.50913571 4.43526851,1.5288628 4.52868839,1.56864824 L4.61928597,1.61505428 C5.21257469,1.97402793 5.98453587,1.78407804 6.34350952,1.19078932 L6.36928597,1.1461432 C6.56097142,0.797809456 6.99874347,0.670820928 7.34707721,0.86250638 C7.43670825,0.911829672 7.51444597,0.979490454 7.57545725,1.0606556 L7.63071403,1.1461432 C7.94413554,1.71569757 8.63478068,1.94595413 9.22047191,1.69704325 L9.35852328,1.62817167 L9.38071403,1.61505428 C9.72088537,1.40923114 10.1635014,1.51814188 10.3693245,1.85831322 C10.4222856,1.94584396 10.4557781,2.04330878 10.4680328,2.14410549 L10.4731428,2.24576831 C10.4589068,2.93905824 11.0093889,3.51262128 11.7026788,3.52685723 L11.7542317,3.52685723 C12.1517403,3.51869483 12.4806016,3.83432228 12.488764,4.23183087 C12.4908643,4.33411528 12.4711372,4.43526851 12.4313518,4.52868839 L12.3849457,4.61928597 C12.0259721,5.21257469 12.215922,5.98453587 12.8092107,6.34350952 L12.8538568,6.36928597 C13.2021905,6.56097142 13.3291791,6.99874347 13.1374936,7.34707721 C13.0881703,7.43670825 13.0205095,7.51444597 12.9393444,7.57545725 L12.8538568,7.63071403 C12.2843024,7.94413554 12.0540459,8.63478068 12.3029567,9.22047191 L12.3718283,9.35852328 L12.3849457,9.38071403 C12.5907689,9.72088537 12.4818581,10.1635014 12.1416868,10.3693245 C12.054156,10.4222856 11.9566912,10.4557781 11.8558945,10.4680328 L11.7542317,10.4731428 C11.0609418,10.4589068 10.4873787,11.0093889 10.4731428,11.7026788 L10.4731428,11.7542317 C10.4813052,12.1517403 10.1656777,12.4806016 9.76816913,12.488764 C9.66588472,12.4908643 9.56473149,12.4711372 9.47131161,12.4313518 L9.38071403,12.3849457 C8.78742531,12.0259721 8.01546413,12.215922 7.65649048,12.8092107 L7.63071403,12.8538568 C7.43902858,13.2021905 7.00125653,13.3291791 6.65292279,13.1374936 C6.56329175,13.0881703 6.48555403,13.0205095 6.42454275,12.9393444 L6.36928597,12.8538568 C6.05586446,12.2843024 5.36521932,12.0540459 4.77952809,12.3029567 L4.64147672,12.3718283 L4.61928597,12.3849457 C4.27911463,12.5907689 3.83649865,12.4818581 3.63067551,12.1416868 C3.57771439,12.054156 3.54422194,11.9566912 3.53196721,11.8558945 L3.52685723,11.7542317 C3.54109317,11.0609418 2.99061114,10.4873787 2.29732122,10.4731428 L2.24576831,10.4731428 C1.84825972,10.4813052 1.5193984,10.1656777 1.511236,9.76816913 Z" id="Star" fill="#258205"></path>
                                        <polygon id="Path" fill="#CEE6FF" points="11.1230769 5.33468971 9.83076923 4.04238201 6.13846154 7.73468971 4.29230769 5.88853586 3 7.18084355 6.13846154 10.3193051"></polygon>
                                    </g>
                                </g>
                            </g>
                        </g>
                    </g>
                </g>
            </g>
        </g>
    </g>
</svg>