<?xml version="1.0" encoding="UTF-8"?>
<svg width="46px" height="39px" viewBox="0 0 46 39" version="1.1" xmlns="http://www.w3.org/2000/svg" xmlns:xlink="http://www.w3.org/1999/xlink">
    <title>Group 23</title>
    <g id="Page-1" stroke="none" stroke-width="1" fill="none" fill-rule="evenodd">
        <g id="01_6_Challenge-Listing-Newbie" transform="translate(-867.000000, -190.000000)">
            <g id="Group-5" transform="translate(444.000000, 159.000000)">
                <rect id="Rectangle-Copy-9" fill="#FFFFFF" x="0" y="0" width="892" height="150" rx="4"></rect>
                <g id="Group-23" transform="translate(423.000000, 31.000000)" fill="#808080" fill-rule="nonzero">
                    <circle id="Oval" cx="23" cy="6" r="1"></circle>
                    <path d="M46,31 L46,27 L42.705,27 C42.566,26.536 42.384,26.09 42.156,25.672 L44.485,23.343 L41.657,20.515 L39.328,22.844 C38.909,22.617 38.464,22.434 38,22.295 L38,19 L34,19 L34,22.295 C33.536,22.434 33.09,22.616 32.672,22.844 L30.343,20.515 L27.515,23.343 L29.844,25.672 C29.617,26.091 29.434,26.536 29.295,27 L26,27 L26,31 L29.295,31 C29.434,31.464 29.616,31.91 29.844,32.328 L27.515,34.657 L30.343,37.485 L32.672,35.156 C33.091,35.383 33.536,35.566 34,35.705 L34,39 L38,39 L38,35.705 C38.464,35.566 38.91,35.384 39.328,35.156 L41.657,37.485 L44.485,34.657 L42.156,32.328 C42.383,31.909 42.566,31.464 42.705,31 L46,31 L46,31 Z M36,32 C34.343,32 33,30.657 33,29 C33,27.343 34.343,26 36,26 C37.657,26 39,27.343 39,29 C39,30.657 37.657,32 36,32 Z" id="Shape"></path>
                    <path d="M40,5 L40,17.697 C40.699,17.944 41.367,18.252 42,18.618 L42,5 C42,2.243 39.757,0 37,0 L9,0 C6.243,0 4,2.243 4,5 L4,22 L6,22 L6,5 C6,3.346 7.346,2 9,2 L37,2 C38.654,2 40,3.346 40,5 Z" id="Path"></path>
                    <path d="M24,29 C24,27.595 24.254,26.253 24.697,25 L1,25 C0.448,25 5.86197757e-14,25.448 5.86197757e-14,26 L5.86197757e-14,27 C5.86197757e-14,29.761 2.239,32 5,32 L24.393,32 C24.146,31.039 24,30.038 24,29 Z" id="Path"></path>
                </g>
            </g>
        </g>
    </g>
</svg>