<svg width="12" height="12" viewBox="0 0 12 12" fill="none" xmlns="http://www.w3.org/2000/svg">
<path fill-rule="evenodd" clip-rule="evenodd" d="M3.6669 0.255615C3.93994 0.255615 4.16128 0.476954 4.16128 0.74999V1.42228H7.83919V0.74999C7.83919 0.476954 8.06053 0.255615 8.33357 0.255615C8.6066 0.255615 8.82794 0.476954 8.82794 0.74999V1.42228H10.0836C11.0009 1.42228 11.7446 2.16596 11.7446 3.08332V10.0833C11.7446 11.0007 11.0009 11.7444 10.0836 11.7444H1.9169C0.999533 11.7444 0.255859 11.0007 0.255859 10.0833V3.08332C0.255859 2.16596 0.999533 1.42228 1.9169 1.42228H3.17253V0.74999C3.17253 0.476954 3.39387 0.255615 3.6669 0.255615ZM3.17253 2.41103H1.9169C1.5456 2.41103 1.24461 2.71203 1.24461 3.08332V10.0833C1.24461 10.4546 1.5456 10.7556 1.9169 10.7556H10.0836C10.4549 10.7556 10.7559 10.4546 10.7559 10.0833V3.08332C10.7559 2.71203 10.4549 2.41103 10.0836 2.41103H8.82794V3.08332C8.82794 3.35636 8.6066 3.5777 8.33357 3.5777C8.06053 3.5777 7.83919 3.35636 7.83919 3.08332V2.41103H4.16128V3.08332C4.16128 3.35636 3.93994 3.5777 3.6669 3.5777C3.39387 3.5777 3.17253 3.35636 3.17253 3.08332V2.41103ZM2.58919 5.41666C2.58919 5.14362 2.81053 4.92228 3.08357 4.92228H8.9169C9.18994 4.92228 9.41128 5.14362 9.41128 5.41666C9.41128 5.68969 9.18994 5.91103 8.9169 5.91103H3.08357C2.81053 5.91103 2.58919 5.68969 2.58919 5.41666Z" fill="#137D60"/>
</svg>
