<svg width="16" height="15" viewBox="0 0 16 15" fill="none" xmlns="http://www.w3.org/2000/svg">
<path fill-rule="evenodd" clip-rule="evenodd" d="M1.15128 0.651521C1.61991 0.182892 2.3797 0.182892 2.84833 0.651521L7.9998 5.80299L13.1513 0.651521C13.6199 0.182892 14.3797 0.182892 14.8483 0.651521C15.317 1.12015 15.317 1.87995 14.8483 2.34858L9.69686 7.50005L14.8483 12.6515C15.317 13.1202 15.317 13.8799 14.8483 14.3486C14.3797 14.8172 13.6199 14.8172 13.1513 14.3486L7.9998 9.19711L2.84833 14.3486C2.3797 14.8172 1.61991 14.8172 1.15128 14.3486C0.682647 13.8799 0.682647 13.1202 1.15128 12.6515L6.30275 7.50005L1.15128 2.34858C0.682647 1.87995 0.682647 1.12015 1.15128 0.651521Z" fill="#137D60"/>
</svg>
