<svg width="14" height="14" viewBox="0 0 14 14" fill="none" xmlns="http://www.w3.org/2000/svg">
<path fill-rule="evenodd" clip-rule="evenodd" d="M7.00006 1.565C3.99839 1.565 1.56506 3.99833 1.56506 7C1.56506 10.0017 3.99839 12.435 7.00006 12.435C10.0017 12.435 12.4351 10.0017 12.4351 7C12.4351 3.99833 10.0017 1.565 7.00006 1.565ZM0.435059 7C0.435059 3.37425 3.37431 0.434998 7.00006 0.434998C10.6258 0.434998 13.5651 3.37425 13.5651 7C13.5651 10.6257 10.6258 13.565 7.00006 13.565C3.37431 13.565 0.435059 10.6257 0.435059 7ZM7.00006 3.76833C7.3121 3.76833 7.56506 4.02129 7.56506 4.33333V6.76597L9.39957 8.60048C9.62022 8.82113 9.62022 9.17887 9.39957 9.39951C9.17893 9.62016 8.82119 9.62016 8.60054 9.39951L6.60054 7.39951C6.49459 7.29356 6.43506 7.14985 6.43506 7V4.33333C6.43506 4.02129 6.68802 3.76833 7.00006 3.76833Z" fill="#227681"/>
</svg>
