<?xml version="1.0" encoding="UTF-8"?>
<svg width="17px" height="17px" viewBox="0 0 17 17" version="1.1" xmlns="http://www.w3.org/2000/svg" xmlns:xlink="http://www.w3.org/1999/xlink" fill="#ffffff">
    <path d="M3.71875,14.875 C2.83970833,14.875 2.125,14.1602917 2.125,13.28125 L2.125,1.59375 C2.125,0.714708333 2.83970833,0 3.71875,0 L15.40625,0 C16.2852917,0 17,0.714708333 17,1.59375 L17,13.28125 C17,14.1602917 16.2852917,14.875 15.40625,14.875 L3.71875,14.875 Z M3.71875,1.0625 C3.4255,1.0625 3.1875,1.3005 3.1875,1.59375 L3.1875,13.28125 C3.1875,13.5745 3.4255,13.8125 3.71875,13.8125 L15.40625,13.8125 C15.6995,13.8125 15.9375,13.5745 15.9375,13.28125 L15.9375,1.59375 C15.9375,1.3005 15.6995,1.0625 15.40625,1.0625 L3.71875,1.0625 Z" id="Shape"></path>
    <path d="M1.59375,17 C0.714708333,17 0,16.2852917 0,15.40625 L0,2.65625 C0,2.363 0.238,2.125 0.53125,2.125 C0.8245,2.125 1.0625,2.36370833 1.0625,2.65625 L1.0625,15.40625 C1.0625,15.6995 1.3005,15.9375 1.59375,15.9375 L14.34375,15.9375 C14.637,15.9375 14.875,16.1755 14.875,16.46875 C14.875,16.762 14.637,17 14.34375,17 L1.59375,17 Z" id="Path"></path>
    <path d="M5.84375,5.3125 C5.5505,5.3125 5.3125,5.0745 5.3125,4.78125 C5.3125,4.488 5.5505,4.25 5.84375,4.25 L13.28125,4.25 C13.5745,4.25 13.8125,4.488 13.8125,4.78125 C13.8125,5.0745 13.5745,5.3125 13.28125,5.3125 L5.84375,5.3125 Z" id="Path"></path>
    <path d="M5.84375,7.4375 C5.5505,7.4375 5.3125,7.1995 5.3125,6.90625 C5.3125,6.613 5.5505,6.375 5.84375,6.375 L13.28125,6.375 C13.5745,6.375 13.8125,6.613 13.8125,6.90625 C13.8125,7.1995 13.5745,7.4375 13.28125,7.4375 L5.84375,7.4375 Z" id="Path"></path>
    <path d="M5.84375,9.5625 C5.5505,9.5625 5.3125,9.3245 5.3125,9.03125 C5.3125,8.738 5.5505,8.5 5.84375,8.5 L11.15625,8.5 C11.4495,8.5 11.6875,8.738 11.6875,9.03125 C11.6875,9.3245 11.4495,9.5625 11.15625,9.5625 L5.84375,9.5625 Z" id="Path"></path>

</svg>
