<svg width="19" height="20" viewBox="0 0 19 20" fill="none" xmlns="http://www.w3.org/2000/svg">
<path fill-rule="evenodd" clip-rule="evenodd" d="M17.0773 2.42254C16.6249 1.97016 15.9463 1.97016 15.494 2.42254L9.49992 8.41658L3.50587 2.42254C3.05349 1.97016 2.37492 1.97016 1.92254 2.42254C1.47016 2.87492 1.47016 3.55349 1.92254 4.00587L7.91658 9.99992L1.92254 15.994C1.47016 16.4463 1.47016 17.1249 1.92254 17.5773C2.14873 17.8035 2.37492 17.9166 2.7142 17.9166C3.05349 17.9166 3.27968 17.8035 3.50587 17.5773L9.49992 11.5833L15.494 17.5773C15.7202 17.8035 16.0594 17.9166 16.2856 17.9166C16.5118 17.9166 16.8511 17.8035 17.0773 17.5773C17.5297 17.1249 17.5297 16.4463 17.0773 15.994L11.0833 9.99992L17.0773 4.00587C17.5297 3.55349 17.5297 2.87492 17.0773 2.42254Z" fill="#2A2A2A"/>
</svg>
