<svg width="48" height="48" viewBox="0 0 48 48" fill="none" xmlns="http://www.w3.org/2000/svg">
<g clip-path="url(#clip0_8189_11939)">
<path d="M25.3824 48.0003C24.4402 48.0003 23.4985 48.0003 22.5562 48.0003C22.5104 47.9187 22.4304 47.9523 22.3653 47.948C21.0882 47.8611 19.8234 47.683 18.5782 47.386C13.1738 46.0976 8.71321 43.2948 5.24019 38.9631C2.24123 35.2228 0.539643 30.9428 0.0954508 26.1653C0.0730545 25.9248 0.103449 25.6742 0 25.4433C0 24.501 0 23.5593 0 22.617C0.0607899 22.5861 0.0469255 22.5274 0.0495917 22.4773C0.106649 21.4748 0.235161 20.4813 0.423929 19.4953C1.12141 15.8547 2.58624 12.5538 4.81093 9.58942C5.14634 9.7014 5.48175 9.81445 5.8177 9.92431C6.95191 10.2965 8.08825 10.6629 9.22086 11.0404C9.75891 11.2196 9.90288 11.4692 9.82183 12.0259C9.76957 12.3848 9.67412 12.7362 9.65066 13.1009C9.56747 14.3952 9.88529 15.5955 10.4937 16.7266C11.3565 18.3307 12.6475 19.5513 14.0462 20.6743C14.0697 20.6861 14.0937 20.6983 14.1171 20.7101C14.1299 20.6759 14.1251 20.6493 14.0873 20.6359C13.7833 19.9918 13.4788 19.3476 13.1749 18.7029C13.6815 19.1423 14.148 19.6142 14.6397 20.0574C15.2417 20.5997 15.6715 21.2348 15.8998 22.0203C16.1008 22.7119 16.5508 23.2319 17.1635 23.6083C17.5981 23.8755 18.0706 24.0478 18.5654 24.1635C19.3221 24.341 20.0911 24.3954 20.8659 24.3746C21.02 24.3704 21.1213 24.3613 21.1042 24.5826C21.0861 24.8199 21.253 24.9911 21.4348 25.1303C21.7132 25.3431 22.0358 25.431 22.3792 25.4417C23.1284 25.4652 23.7422 25.6843 24.0717 26.4437C24.2557 26.8676 24.661 27.0692 25.0908 27.1935C25.3286 27.2623 25.5723 27.3119 25.8138 27.3662C26.241 27.4622 26.6548 27.5886 26.9966 27.8787C27.461 28.2728 27.5319 28.7341 27.2061 29.2476C27.1304 29.367 27.0494 29.486 26.9555 29.5915C26.3167 30.3093 26.1855 31.1476 26.3769 32.0558C26.6729 33.4593 27.3565 34.6682 28.2646 35.7609C28.6981 36.2829 29.2005 36.7335 29.7305 37.1532C30.2083 37.5313 30.3539 38.0027 30.2152 38.5935C29.9822 39.5854 29.7166 40.5672 29.409 41.5388C29.0714 42.6037 28.6075 43.6206 28.2497 44.677C27.9095 45.6806 27.8658 46.6591 28.5339 47.5652C27.7826 47.7225 27.0222 47.8147 26.2596 47.8968C25.9663 47.9294 25.6661 47.8974 25.3824 48.0003Z" fill="#8EC2FA"/>
<path d="M29.6901 47.311C29.3126 47.4331 28.926 47.512 28.5335 47.5659C27.8654 46.6594 27.9091 45.6814 28.2493 44.6778C28.6076 43.6214 29.0716 42.6044 29.4086 41.5395C29.7163 40.5679 29.9818 39.5862 30.2148 38.5943C30.3535 38.0034 30.2079 37.532 29.7301 37.154C29.2001 36.7348 28.6978 36.2837 28.2642 35.7616C27.3561 34.6684 26.6725 33.4601 26.3766 32.0565C26.1851 31.1478 26.3163 30.3101 26.9551 29.5923C27.049 29.4867 27.13 29.3683 27.2057 29.2483C27.5316 28.7348 27.4606 28.273 26.9962 27.8795C26.6544 27.5894 26.2406 27.463 25.8134 27.367C25.5714 27.3126 25.3282 27.263 25.0904 27.1942C24.66 27.07 24.2553 26.8684 24.0713 26.4445C23.7418 25.6851 23.1286 25.4659 22.3788 25.4425C22.0354 25.4318 21.7128 25.3438 21.4344 25.131C21.2526 24.9918 21.0857 24.8207 21.1038 24.5834C21.1209 24.3621 21.0196 24.3711 20.8655 24.3754C20.0907 24.3962 19.3223 24.3418 18.5651 24.1642C18.0702 24.0485 17.5977 23.8757 17.1632 23.6091C16.5499 23.2326 16.0999 22.7122 15.8994 22.021C15.6711 21.2356 15.2413 20.6004 14.6393 20.0581C14.1471 19.615 13.6811 19.143 13.1745 18.7036C13.4784 19.3478 13.7829 19.992 14.0869 20.6367C14.073 20.6495 14.0597 20.6623 14.0458 20.6751C12.6476 19.552 11.3561 18.3314 10.4933 16.7274C9.8849 15.5963 9.56762 14.3959 9.65027 13.1017C9.67374 12.7369 9.76919 12.3855 9.82144 12.0266C9.9025 11.4705 9.75852 11.2209 9.22048 11.0412C8.08787 10.6636 6.95152 10.2973 5.81731 9.92506C5.48137 9.81467 5.14596 9.70162 4.81055 9.59017C5.676 8.40793 6.66624 7.3382 7.73966 6.3442C7.76472 6.32074 7.79885 6.30687 7.82871 6.28821C7.86017 6.28714 7.90123 6.30154 7.89643 6.24502L7.88897 6.25088C8.67977 6.16396 9.4711 6.07597 10.2619 5.99065C10.3312 5.98318 10.3707 5.93892 10.416 5.8968C10.6128 5.71549 10.8485 5.63176 11.1124 5.59977C11.6638 5.53204 12.212 5.64563 12.7628 5.61577C13.0444 5.6003 13.3057 5.54058 13.5371 5.3726C13.6789 5.26968 13.7205 5.19076 13.5339 5.0729C13.1164 4.80894 12.6695 4.66976 12.1763 4.67456C12.1192 4.67509 12.0429 4.71295 12.0093 4.63723C11.9731 4.55564 12.0072 4.47992 12.0648 4.41806C12.1325 4.345 12.2178 4.30181 12.3112 4.26608C12.4898 4.19835 12.6764 4.19302 12.862 4.18769C14.1674 4.14929 15.4733 4.1141 16.7787 4.08104C16.8933 4.07837 17.009 4.09437 17.1232 4.10823C17.3279 4.13383 17.5146 4.20849 17.5738 4.42339C17.6281 4.6207 17.4815 4.74442 17.3231 4.87027C17.4207 4.92466 17.5002 4.97692 17.586 5.01638C18.749 5.54644 20.2341 5.12676 20.9359 4.06024C21.027 3.92159 21.0702 3.89973 21.2046 4.01011C21.5379 4.28368 21.9256 4.45752 22.3415 4.57004C22.9137 4.72468 23.5877 4.71615 23.9514 4.54444C23.6074 4.26501 23.2672 3.98878 22.9003 3.69069C26.312 3.36167 29.5392 3.68002 32.4038 5.70162C32.3036 5.71175 32.2076 5.70109 32.1111 5.69042C31.6077 5.63496 31.3448 5.82214 31.2536 6.31967C31.2259 6.47272 31.139 6.39273 31.0808 6.381C30.1445 6.18422 29.2086 5.98372 28.2733 5.78001C28.1949 5.76295 28.0755 5.80081 28.0509 5.68029C28.0253 5.55497 28.0925 5.45472 28.1885 5.38166C28.2509 5.3342 28.3261 5.30381 28.3954 5.26595C27.5124 4.24262 25.5244 4.29967 24.6712 5.36887C24.5912 5.46965 24.5912 5.51978 24.6894 5.60137C24.9363 5.80667 25.1741 6.02264 25.4492 6.26368C24.8616 6.29301 24.3668 6.08984 24.0303 5.66589C23.9114 5.51605 23.8106 5.50485 23.6522 5.55977C23.1622 5.72935 22.7052 5.95919 22.2967 6.28021C21.8328 6.64496 21.4462 7.07531 21.1582 7.6235C21.2174 7.62936 21.2494 7.6331 21.2819 7.63523C22.7265 7.71522 24.0676 8.1317 25.3063 8.8772C25.5495 9.02331 25.7777 9.19396 26.0171 9.34647C26.4203 9.60297 26.7088 9.56244 27.0282 9.20835C27.2095 9.00731 27.3316 8.77321 27.4068 8.51351C27.5396 8.05597 27.4446 7.6219 27.2932 7.18622C27.1865 6.87906 27.2905 6.72495 27.6014 6.68016C28.9217 6.48818 30.0981 6.82147 31.1299 7.66349C31.2285 7.74402 31.3309 7.80374 31.4493 7.84374C32.5702 8.22448 33.5018 8.88253 34.2595 9.78694C34.5139 10.0904 34.749 10.4103 34.9298 10.8033C34.8039 10.8033 34.7074 10.8033 34.6109 10.8033C33.8468 10.8033 33.0826 10.8039 32.3185 10.8028C32.0209 10.8023 31.7325 10.846 31.4781 11.0102C31.3059 11.1212 31.1757 11.2614 31.2739 11.5062C31.869 11.2726 32.3894 11.4587 32.8869 11.7787C33.1568 11.9525 33.393 12.1674 33.6351 12.377C33.7615 12.4869 33.7556 12.5578 33.6431 12.6698C33.1594 13.1508 32.5728 13.3689 31.9175 13.2068C31.3309 13.0617 30.8537 13.162 30.4239 13.5672C30.3599 13.628 30.2842 13.6766 30.2127 13.7299C29.9994 13.8883 29.7776 14.0029 29.5104 13.8499C29.3963 14.4391 29.3984 14.4439 28.8737 14.6279C28.7442 14.6732 28.7298 14.7537 28.7191 14.8657C28.654 15.5216 28.3421 16.0352 27.8211 16.4341C27.5044 16.6767 27.169 16.8959 26.8815 17.1774C26.4736 17.5774 26.3787 18.036 26.6 18.5623C26.713 18.8316 26.825 19.1014 26.9301 19.3734C27.0362 19.6491 26.9562 19.8981 26.792 20.1242C26.6682 20.2949 26.5115 20.4399 26.2838 20.4063C26.0395 20.3706 25.958 20.1621 25.9324 19.9573C25.8124 19.0118 24.8787 18.3895 23.9977 18.2978C22.8502 18.1778 21.8109 18.582 20.7913 19.0198C20.04 19.3425 19.6689 20.1008 19.7275 21.0228C19.7729 21.7379 20.2378 22.3405 20.922 22.5714C21.6995 22.8337 22.6134 22.6044 23.1179 22.0205C23.3109 21.7971 23.4805 21.8104 23.6373 22.0733C23.8052 22.3554 23.8026 22.6626 23.7551 22.9772C23.7173 23.2305 23.6591 23.4833 23.7093 23.7435C23.7807 24.1157 23.9631 24.2794 24.3449 24.2885C24.5134 24.2922 24.6824 24.2746 24.8509 24.2751C25.2605 24.2762 25.4967 24.4618 25.5937 24.8591C25.67 25.1716 25.6727 25.4926 25.6993 25.8109C25.7569 26.4962 26.0593 26.7985 26.7408 26.8439C26.9626 26.8583 27.1844 26.8716 27.4062 26.8796C27.683 26.8892 27.9299 26.966 28.1341 27.1862C28.4157 26.71 28.8337 26.4306 29.3563 26.3042C29.8869 26.1762 30.3865 26.2642 30.8521 26.5506C30.9497 26.261 31.0435 26.2077 31.3091 26.2919C31.5618 26.3719 31.8055 26.4754 32.0705 26.5223C32.6678 26.6268 33.2751 26.5943 33.8745 26.6695C34.8167 26.7879 35.4508 27.3505 35.5857 28.2176C36.376 27.9781 37.1113 28.0672 37.6851 28.6964C38.2514 29.3182 38.3004 30.0525 37.972 30.8423C38.5233 30.7564 39.0432 30.7084 39.568 30.725C40.7699 30.7633 41.5889 31.4257 41.8737 32.5935C41.9937 33.0862 41.9937 33.5811 41.8817 34.0717C41.6044 35.2854 41.0706 36.393 40.4345 37.4526C40.1838 37.8707 39.8287 38.1944 39.3946 38.4237C38.9265 38.6711 38.5255 39.0023 38.1559 39.3787C37.4776 40.0698 36.7833 40.746 36.1083 41.4409C35.1052 42.4733 33.9673 43.2945 32.608 43.8032C32.0279 44.0202 31.4637 44.2869 30.9619 44.6618C30.4095 45.0745 29.9642 45.5683 29.7781 46.2541C29.6869 46.5996 29.7056 46.9569 29.6901 47.311Z" fill="#D2F8E7"/>
<path d="M14.087 20.6363C14.1248 20.6502 14.1296 20.6768 14.1168 20.7104C14.0934 20.6987 14.0694 20.6864 14.0459 20.6747C14.0598 20.6619 14.0731 20.6491 14.087 20.6363Z" fill="#D2F8E7"/>
<path d="M29.6892 47.311C29.7047 46.957 29.686 46.5997 29.7804 46.252C29.9665 45.5662 30.4118 45.0719 30.9642 44.6597C31.466 44.2848 32.0302 44.0181 32.6103 43.8011C33.969 43.2924 35.1075 42.4712 36.1105 41.4388C36.7856 40.7439 37.4794 40.0683 38.1582 39.3766C38.5277 38.9996 38.9287 38.669 39.3969 38.4216C39.8305 38.1923 40.1861 37.8686 40.4368 37.4505C41.0729 36.3904 41.6062 35.2828 41.884 34.0696C41.996 33.579 41.9965 33.0841 41.876 32.5914C41.5912 31.4236 40.7722 30.7612 39.5702 30.7229C39.0455 30.7063 38.5256 30.7543 37.9742 30.8402C38.3027 30.0504 38.2537 29.3161 37.6873 28.6943C37.1136 28.0645 36.3788 27.976 35.588 28.2155C35.4531 27.3484 34.819 26.7858 33.8768 26.6674C33.2774 26.5922 32.67 26.6247 32.0728 26.5202C31.8078 26.4738 31.5641 26.3704 31.3113 26.2898C31.0453 26.2056 30.9519 26.2589 30.8544 26.5485C30.3888 26.2626 29.8892 26.1741 29.3586 26.3021C28.8355 26.4285 28.4174 26.7079 28.1364 27.1841C27.9322 26.9639 27.6847 26.8871 27.4085 26.8775C27.1867 26.87 26.9649 26.8567 26.743 26.8418C26.0616 26.797 25.7592 26.4941 25.7016 25.8088C25.6749 25.4905 25.6723 25.1695 25.596 24.857C25.499 24.4597 25.2628 24.2741 24.8532 24.273C24.6847 24.2725 24.5157 24.2901 24.3472 24.2864C23.9648 24.2773 23.783 24.1136 23.7115 23.7414C23.6614 23.4806 23.7195 23.2284 23.7574 22.9751C23.8049 22.661 23.8075 22.3533 23.6396 22.0712C23.4828 21.8083 23.3127 21.795 23.1202 22.0184C22.6157 22.6023 21.7017 22.8316 20.9243 22.5693C20.2396 22.3384 19.7751 21.7363 19.7298 21.0207C19.6712 20.0987 20.0423 19.3404 20.7936 19.0177C21.8132 18.5799 22.8525 18.1757 24 18.2957C24.8809 18.388 25.8147 19.0097 25.9346 19.9552C25.9608 20.16 26.0424 20.3685 26.286 20.4042C26.5143 20.4378 26.6705 20.2928 26.7942 20.1221C26.9585 19.896 27.0385 19.647 26.9323 19.3713C26.8273 19.0988 26.7153 18.829 26.6023 18.5602C26.381 18.0339 26.4759 17.5753 26.8838 17.1753C27.1707 16.8938 27.5061 16.6746 27.8234 16.432C28.3438 16.0331 28.6563 15.5195 28.7214 14.8636C28.7326 14.7517 28.747 14.6711 28.876 14.6258C29.4007 14.4424 29.3991 14.437 29.5127 13.8478C29.7799 14.0008 30.0022 13.8862 30.215 13.7278C30.2864 13.675 30.3616 13.6259 30.4262 13.5651C30.8565 13.1599 31.3337 13.0591 31.9198 13.2047C32.5751 13.3668 33.1617 13.1492 33.6454 12.6677C33.7579 12.5557 33.7643 12.4848 33.6374 12.3749C33.3958 12.1653 33.1596 11.9504 32.8892 11.7766C32.3922 11.4561 31.8713 11.27 31.2762 11.5041C31.178 11.2593 31.3081 11.1191 31.4804 11.0081C31.7347 10.8439 32.0232 10.8007 32.3208 10.8007C33.0849 10.8018 33.8491 10.8012 34.6132 10.8012C34.7097 10.8012 34.8057 10.8012 34.9321 10.8012C34.7513 10.4082 34.5161 10.0883 34.2618 9.78485C33.504 8.88043 32.573 8.22239 31.4516 7.84164C31.3332 7.80111 31.2308 7.74192 31.1322 7.6614C30.1003 6.81938 28.924 6.48609 27.6037 6.67806C27.2923 6.72339 27.1883 6.87697 27.2955 7.18413C27.4469 7.62034 27.5418 8.05388 27.4091 8.51142C27.3339 8.77112 27.2118 9.00575 27.0305 9.20626C26.711 9.56034 26.4226 9.60087 26.0194 9.34437C25.78 9.19186 25.5518 9.02175 25.3086 8.8751C24.0699 8.1296 22.7288 7.71312 21.2842 7.63313C21.2517 7.63153 21.2197 7.62727 21.1605 7.6214C21.4485 7.07321 21.8351 6.64287 22.299 6.27811C22.7074 5.95709 23.1644 5.72725 23.6545 5.55768C23.8129 5.50275 23.9136 5.51395 24.0326 5.6638C24.369 6.08774 24.8639 6.29038 25.4515 6.26158C25.1764 6.02055 24.9385 5.80404 24.6916 5.59927C24.5935 5.51768 24.593 5.46756 24.6735 5.36677C25.5262 4.29758 27.5146 4.24052 28.3977 5.26385C28.3284 5.30171 28.2527 5.33211 28.1908 5.37957C28.0953 5.45262 28.0282 5.55288 28.0532 5.67819C28.0778 5.79871 28.1967 5.76085 28.2756 5.77791C29.2109 5.98162 30.1467 6.18213 31.0831 6.3789C31.1407 6.39117 31.2276 6.47062 31.2559 6.31758C31.3471 5.81951 31.61 5.63287 32.1133 5.68833C32.2099 5.69899 32.3058 5.70966 32.4061 5.69952C29.5404 3.67793 26.3127 3.35957 22.901 3.68859C23.2679 3.98669 23.6086 4.26292 23.952 4.54235C23.5884 4.71459 22.9143 4.72259 22.3422 4.56794C21.9268 4.45542 21.5386 4.28158 21.2053 4.00802C21.0709 3.89817 21.0277 3.92003 20.9365 4.05814C20.2343 5.12467 18.7497 5.54435 17.5867 5.01428C17.5008 4.97535 17.4209 4.92256 17.3238 4.86817C17.4822 4.74232 17.6283 4.6186 17.5744 4.4213C17.5152 4.20639 17.3286 4.13173 17.1238 4.10614C17.0097 4.09174 16.894 4.07574 16.7794 4.07894C15.4735 4.112 14.1681 4.1472 12.8627 4.18559C12.6771 4.19093 12.4905 4.19573 12.3118 4.26398C12.2185 4.29918 12.1332 4.34291 12.0655 4.41596C12.0079 4.47782 11.9738 4.55354 12.01 4.63513C12.0436 4.71086 12.1199 4.673 12.1769 4.67246C12.6702 4.66766 13.117 4.80684 13.5346 5.07081C13.7217 5.18866 13.6796 5.26758 13.5378 5.3705C13.3063 5.53848 13.0451 5.5982 12.7635 5.61367C12.2127 5.64353 11.6645 5.52995 11.1131 5.59767C10.8497 5.6302 10.6135 5.71392 10.4167 5.8947C10.3708 5.93683 10.3319 5.98109 10.2626 5.98855C9.47125 6.07387 8.68045 6.16186 7.88965 6.24878C8.22133 5.8659 8.62872 5.56728 9.02066 5.25372C10.5473 4.02988 12.1967 3.00282 13.9804 2.19493C14.0278 2.23279 14.0817 2.21626 14.1334 2.21146C14.5936 2.17306 15.0085 1.98855 15.4116 1.78751C16.1992 1.39503 17.0364 1.23399 17.9061 1.23452C20.2657 1.23612 22.5939 0.90763 24.9215 0.574874C25.3321 0.516216 25.7421 0.423428 26.0509 0.104004C28.081 0.248518 30.047 0.693259 31.9656 1.3609C32.3336 1.48889 32.6946 1.63713 33.0583 1.77631C31.8377 2.11867 30.6171 2.46102 29.3853 2.80658C29.5468 3.18839 29.8524 3.3489 30.1995 3.41503C30.7834 3.52595 31.3231 3.71366 31.7918 4.096C32.0456 4.30291 32.3426 4.32477 32.6391 4.1584C32.8519 4.03948 33.0796 4.01602 33.3083 4.08427C33.7355 4.21172 34.1359 4.40156 34.4911 4.67459C34.707 4.84044 34.875 5.04575 34.9251 5.32304C34.9411 5.4105 34.9518 5.42756 35.0537 5.41583C35.4056 5.37477 35.5912 5.60514 35.4925 5.93683C35.3715 6.34424 35.4131 6.46316 35.7858 6.66206C36.0391 6.79698 36.2934 6.92976 36.4454 7.18253C36.7424 7.67739 37.1546 7.95202 37.7487 7.95949C37.9822 7.96269 38.1945 8.07947 38.3107 8.30824C38.4168 8.51728 38.6344 8.59461 38.9538 8.53168C39.1895 8.48529 39.3767 8.29865 39.35 8.07254C39.3228 7.84484 39.4476 7.84004 39.5953 7.85124C39.8619 7.87097 40.0912 7.97335 40.2699 8.18079C40.3024 8.21866 40.329 8.31944 40.4069 8.24798C40.8042 7.88377 41.211 8.06134 41.6238 8.21066C41.7859 8.26932 41.9437 8.36904 42.1309 8.32371L42.1245 8.32051C42.1239 8.3621 42.1522 8.35677 42.1789 8.35357C43.7349 10.1389 44.9843 12.1189 45.9388 14.2861C45.2733 14.8658 44.8632 15.5931 44.692 16.4554C44.6531 16.6506 44.5982 16.8308 44.4462 16.9716C44.339 17.0713 44.331 17.2015 44.3497 17.3412C44.4516 18.1048 44.5609 18.8684 44.6467 19.6337C44.7208 20.2944 44.8904 20.9124 45.2536 21.4809C45.4823 21.8392 45.5196 22.2648 45.5367 22.6839C45.5458 22.9143 45.5468 23.1452 45.5415 23.3756C45.5218 24.2069 45.7772 24.946 46.2939 25.5923C46.7754 26.1944 47.2682 26.7874 47.7561 27.3846C47.1519 31.5659 45.5756 35.3425 42.9798 38.6743C39.5782 43.0396 35.18 45.9048 29.8204 47.2902C29.7777 47.3025 29.7329 47.3046 29.6892 47.311ZM22.4083 2.78845C23.6907 2.9159 24.9695 2.90843 26.2487 2.87537C26.5676 2.86737 26.8897 2.80284 27.1712 2.64553C27.7647 2.31491 28.3993 2.20186 29.068 2.22745C29.6263 2.24878 30.1542 2.1096 30.6715 1.91816C30.7434 1.8915 30.8064 1.84137 30.7824 1.73205C30.1782 1.78325 29.5954 1.67393 29.0115 1.55981C28.4548 1.45102 27.9007 1.31931 27.3264 1.33904C27.0625 1.3481 26.8134 1.39983 26.6215 1.5982C26.4753 1.74912 26.2951 1.73152 26.1234 1.69366C25.9346 1.65206 25.7507 1.58114 25.5688 1.51235C25.3033 1.4121 25.0425 1.30118 24.7588 1.26012C24.2357 1.18386 23.7302 1.24252 23.2556 1.47982C22.941 1.63713 22.9303 1.82057 23.197 2.04135C23.3548 2.17199 23.5516 2.22639 23.7489 2.32077C23.2972 2.51115 22.8456 2.6242 22.4083 2.78845ZM25.8834 20.9994C25.4382 21.0159 25.0239 21.0212 24.6591 21.2772C24.5231 21.3726 24.5418 21.4196 24.6629 21.4932C24.8799 21.6254 25.1204 21.6057 25.3593 21.6142C25.9368 21.6339 26.5111 21.5449 27.0598 21.9048C27.472 22.1752 27.985 22.2925 28.4564 22.4701C28.6995 22.5618 28.9523 22.5986 29.2125 22.5389C29.3901 22.4978 29.4525 22.4344 29.3111 22.2637C28.9757 21.8579 28.5753 21.547 28.0703 21.3881C27.3493 21.1609 26.6087 21.0393 25.8834 20.9994ZM17.2588 3.20279C16.7884 3.15053 16.3208 3.0988 15.8723 3.04868C15.8382 2.88817 16.0845 2.99908 16.02 2.83484C15.9704 2.70846 15.8702 2.63807 15.7385 2.6194C15.5182 2.58794 15.3327 2.6658 15.1572 2.81084C15.2985 2.88123 15.4249 2.94522 15.5134 3.06308C15.5977 3.17506 15.6116 3.24758 15.4361 3.26892C15.2431 3.29291 15.0522 3.33664 14.8597 3.36864C14.4363 3.43903 14.0097 3.42249 13.5831 3.41983C13.413 3.41876 13.228 3.44383 13.228 3.6486C13.228 3.85924 13.4354 3.76645 13.541 3.77125C14.7114 3.82671 15.8569 3.61074 17.0044 3.42676C17.1238 3.40703 17.2316 3.37077 17.2588 3.20279ZM36.4209 12.2112C36.5275 12.2112 36.6342 12.2112 36.7408 12.2112C36.7584 12.2112 36.7766 12.2091 36.7936 12.2053C37.0011 12.1621 37.089 12.0022 36.9456 11.864C36.5995 11.5302 36.2956 11.1329 35.8023 10.9863C35.7629 10.9746 35.66 10.9847 35.717 10.886C35.7858 10.7682 35.6514 10.7868 35.645 10.8002C35.5784 10.9468 35.4301 10.8972 35.3245 10.9399C35.0265 11.0593 34.8041 11.246 34.722 11.5649C34.6894 11.6907 34.6697 11.8054 34.8915 11.7553C35.1523 11.6961 35.4205 11.7664 35.6162 11.9424C35.8546 12.1563 36.1148 12.2331 36.4209 12.2112ZM31.7363 23.2017C30.8144 22.3282 29.9078 22.2904 29.494 23.0903C29.7255 23.0951 29.9612 23.0759 30.1654 23.2081C30.6816 23.5409 31.193 23.4145 31.7363 23.2017ZM18.5636 3.29451C18.5636 3.29931 18.5636 3.30358 18.5636 3.30838C18.7678 3.30838 18.9721 3.31104 19.1763 3.30731C19.3555 3.30411 19.533 3.27798 19.6845 3.17613C19.7565 3.1276 19.8727 3.07587 19.8093 2.95216C19.7533 2.84337 19.7431 2.69193 19.549 2.70739C19.0888 2.74365 18.6271 2.75698 18.1674 2.79325C17.9989 2.80658 17.8331 2.86044 17.7499 3.03535C17.6763 3.18999 17.6933 3.29558 17.8981 3.29398C18.1194 3.29291 18.3418 3.29451 18.5636 3.29451ZM22.0787 2.35277C22.2185 2.33464 22.419 2.39596 22.6013 2.29305C22.6648 2.25732 22.7234 2.21146 22.7106 2.12773C22.7021 2.07068 22.6584 2.02801 22.6029 2.02481C22.2462 2.00348 21.9577 1.79018 21.6303 1.68779C21.3605 1.60354 21.0901 1.56674 20.8395 1.73899C20.6326 1.88137 20.6427 2.01308 20.8662 2.1288C21.2298 2.31704 21.6239 2.36024 22.0787 2.35277ZM18.1221 1.92936C17.8069 1.9059 17.544 1.99815 17.3142 2.18106C17.2572 2.22639 17.1542 2.26692 17.1868 2.35864C17.2145 2.43596 17.3115 2.40396 17.3782 2.4061C17.5462 2.41143 17.7125 2.39863 17.8805 2.3693C18.2954 2.29784 18.7028 2.13413 19.1379 2.24718C19.2024 2.26372 19.2909 2.3645 19.34 2.24452C19.3784 2.15066 19.3021 2.07227 19.2291 2.02321C18.9865 1.86004 18.7161 1.84084 18.4388 1.9027C18.3268 1.92669 18.2197 1.97042 18.1221 1.92936ZM19.1507 4.26718C19.356 4.25332 19.5437 4.20212 19.7047 4.08641C19.8674 3.96962 20.1265 3.80058 20.045 3.639C19.9303 3.41076 19.6552 3.53768 19.452 3.6246C19.2339 3.71792 19.0297 3.83364 18.7764 3.82884C18.5935 3.82564 18.6137 3.96429 18.6868 4.07094C18.7966 4.23412 18.9806 4.24745 19.1507 4.26718ZM32.1741 22.797C32.2029 22.7884 32.2749 22.7778 32.3357 22.7463C32.4792 22.6717 32.573 22.549 32.5639 22.3853C32.5549 22.2264 32.4034 22.2211 32.2898 22.1811C32.1096 22.1176 31.923 22.1117 31.7385 22.1379C31.5246 22.1683 31.4425 22.3965 31.5918 22.5495C31.7369 22.6978 31.9139 22.7975 32.1741 22.797ZM21.2042 2.77618C21.2991 2.75325 21.4533 2.82577 21.4655 2.67219C21.4778 2.51915 21.3242 2.58314 21.2421 2.56661C20.8971 2.49888 20.5846 2.36397 20.3185 2.13093C20.2433 2.06534 20.1617 1.98269 20.069 2.07547C19.9927 2.1512 20.0215 2.25945 20.0674 2.3501C20.1132 2.44076 20.1943 2.49782 20.2854 2.53568C20.5798 2.6578 20.8869 2.73672 21.2042 2.77618ZM28.0351 23.4124C28.1817 23.4209 28.2532 23.4038 28.2926 23.278C28.33 23.1575 28.282 23.1239 28.1951 23.0823C28.1481 23.0599 28.1129 23.0145 28.0666 22.9906C27.9146 22.9106 27.7503 22.7938 27.5866 22.9095C27.4933 22.9756 27.7029 23.2849 27.9002 23.3697C27.9562 23.3932 28.0164 23.4065 28.0351 23.4124Z" fill="#8EC2FA"/>
<path d="M42.1328 8.32419C41.9456 8.36952 41.7877 8.2698 41.6256 8.21114C41.2129 8.06182 40.806 7.88425 40.4087 8.24846C40.3309 8.31992 40.3042 8.21914 40.2717 8.18127C40.093 7.97383 39.8637 7.87145 39.5971 7.85172C39.4488 7.84052 39.3246 7.84532 39.3518 8.07302C39.3785 8.29912 39.1913 8.48577 38.9556 8.53216C38.6362 8.59509 38.4191 8.51776 38.3125 8.30872C38.1962 8.07995 37.9834 7.96317 37.7504 7.95997C37.1563 7.95197 36.7447 7.67787 36.4471 7.18301C36.2951 6.93024 36.0408 6.79746 35.7875 6.66254C35.4142 6.46364 35.3726 6.34472 35.4942 5.93731C35.5928 5.60615 35.4078 5.37578 35.0553 5.41631C34.9534 5.42804 34.9422 5.41098 34.9268 5.32352C34.8767 5.04676 34.7087 4.84145 34.4927 4.67507C34.1376 4.40204 33.7376 4.21274 33.3099 4.08475C33.0812 4.0165 32.8529 4.03996 32.6407 4.15888C32.3442 4.32472 32.0472 4.30339 31.7933 4.09649C31.3246 3.71414 30.7849 3.52643 30.201 3.41551C29.8539 3.34992 29.5483 3.18887 29.3867 2.80706C30.618 2.4615 31.8392 2.11915 33.0598 1.77679C35.3011 2.67267 37.3403 3.90824 39.2083 5.43177C40.2087 6.2482 41.1334 7.14301 41.9877 8.11088C42.0437 8.17541 42.128 8.2234 42.1328 8.32419Z" fill="#D2F8E7"/>
<path d="M47.7562 27.3861C47.2682 26.7889 46.7755 26.1958 46.2939 25.5938C45.7767 24.9474 45.5218 24.2083 45.5415 23.3769C45.5468 23.1466 45.5458 22.9156 45.5367 22.6853C45.5197 22.2666 45.4823 21.8405 45.2536 21.4822C44.8904 20.9137 44.7208 20.2956 44.6467 19.6349C44.5608 18.8691 44.4515 18.106 44.3497 17.3423C44.331 17.2031 44.339 17.0725 44.4462 16.9728C44.5982 16.8314 44.6531 16.6517 44.692 16.4566C44.8632 15.5937 45.2738 14.8663 45.9388 14.2872C46.5584 15.6156 47.0053 17.0037 47.3487 18.426C47.8665 20.5697 48.0617 22.7477 47.9844 24.949C47.9545 25.765 47.8895 26.5793 47.7562 27.3861Z" fill="#D2F8E7"/>
<path d="M26.0514 0.104508C25.7432 0.423932 25.3326 0.516719 24.9219 0.575378C22.5943 0.908134 20.266 1.23716 17.9063 1.23502C17.0366 1.23449 16.1994 1.39554 15.4117 1.78802C15.0081 1.98906 14.5937 2.17356 14.1335 2.21196C14.0813 2.21623 14.0279 2.23329 13.9805 2.19543C15.2011 1.60351 16.4783 1.1641 17.7853 0.810547C20.1647 0.167433 22.5895 -0.0746685 25.0489 0.0191857C25.3827 0.031984 25.7213 0.0287844 26.0514 0.104508Z" fill="#D2F8E7"/>
<path d="M7.89683 6.24396C7.90162 6.30102 7.86056 6.28662 7.8291 6.28715C7.8515 6.27275 7.87443 6.25836 7.89683 6.24396Z" fill="#8EC2FA"/>
<path d="M42.1784 8.3546C42.1518 8.35726 42.1235 8.36313 42.124 8.32153C42.1422 8.3322 42.1603 8.3434 42.1784 8.3546Z" fill="#D2F8E7"/>
<path d="M22.4092 2.78843C22.8465 2.62419 23.2976 2.51113 23.7498 2.32076C23.5525 2.22637 23.3557 2.17198 23.1979 2.04133C22.9312 1.82109 22.9419 1.63712 23.2565 1.4798C23.7311 1.2425 24.2367 1.18384 24.7598 1.2601C25.0435 1.30169 25.3048 1.41208 25.5698 1.51233C25.7517 1.58112 25.9351 1.65151 26.1244 1.69364C26.2961 1.7315 26.4764 1.7491 26.6225 1.59819C26.8145 1.39981 27.0635 1.34862 27.3275 1.33902C27.9012 1.31929 28.4558 1.45101 29.0126 1.55979C29.5965 1.67391 30.1793 1.78323 30.7835 1.73204C30.8075 1.84136 30.7446 1.89148 30.6726 1.91815C30.1553 2.10905 29.6274 2.24877 29.0691 2.22744C28.4004 2.20184 27.7653 2.31489 27.1723 2.64552C26.8907 2.80229 26.5686 2.86682 26.2497 2.87535C24.9704 2.90841 23.6917 2.91588 22.4092 2.78843Z" fill="#D2F8E7"/>
<path d="M25.8845 21C26.6103 21.0405 27.3504 21.1621 28.0714 21.3887C28.5764 21.5477 28.9764 21.858 29.3123 22.2644C29.4536 22.435 29.3912 22.4985 29.2137 22.5395C28.954 22.5993 28.7012 22.5625 28.4575 22.4707C27.9861 22.2932 27.4731 22.1758 27.0609 21.9055C26.5122 21.5455 25.9378 21.6346 25.3603 21.6149C25.1214 21.6069 24.8814 21.626 24.6639 21.4938C24.5428 21.4202 24.5242 21.3727 24.6601 21.2778C25.0249 21.0219 25.4392 21.016 25.8845 21Z" fill="#D2F8E7"/>
<path d="M17.2594 3.20275C17.2322 3.37073 17.1244 3.40753 17.0061 3.42619C15.8579 3.61017 14.713 3.82614 13.5425 3.77068C13.4369 3.76588 13.2295 3.85867 13.2295 3.64803C13.2295 3.44325 13.4151 3.41819 13.5846 3.41926C14.0107 3.42192 14.4379 3.43846 14.8613 3.36806C15.0538 3.33607 15.2442 3.29234 15.4377 3.26834C15.6132 3.24648 15.5993 3.17449 15.5151 3.06251C15.4265 2.94465 15.3001 2.88066 15.1588 2.81027C15.3343 2.66576 15.5199 2.58737 15.7401 2.61883C15.8718 2.6375 15.9715 2.70789 16.0217 2.83427C16.0862 2.99851 15.8403 2.8876 15.8739 3.04811C16.3213 3.09823 16.789 3.15049 17.2594 3.20275Z" fill="#D2F8E7"/>
<path d="M36.4218 12.2112C36.1157 12.233 35.8555 12.1562 35.6171 11.9419C35.4219 11.7664 35.1532 11.696 34.8924 11.7547C34.6711 11.8048 34.6903 11.6902 34.7228 11.5643C34.8049 11.2454 35.0278 11.0588 35.3254 10.9393C35.4315 10.8967 35.5798 10.9463 35.6459 10.7996C35.6518 10.7863 35.7867 10.7676 35.7179 10.8855C35.6608 10.9841 35.7637 10.974 35.8032 10.9857C36.2959 11.1329 36.6004 11.5296 36.9465 11.8635C37.09 12.0016 37.002 12.1616 36.7945 12.2048C36.7775 12.2085 36.7593 12.2106 36.7417 12.2106C36.6346 12.2112 36.5284 12.2112 36.4218 12.2112Z" fill="#D2F8E7"/>
<path d="M31.7379 23.2024C31.194 23.4152 30.6826 23.5416 30.1675 23.2088C29.9627 23.0766 29.7275 23.0958 29.4961 23.091C29.9099 22.2911 30.8159 22.329 31.7379 23.2024Z" fill="#D2F8E7"/>
<path d="M18.5646 3.29448C18.3428 3.29448 18.121 3.29342 17.8991 3.29502C17.6938 3.29662 17.6773 3.19103 17.7509 3.03639C17.8341 2.86148 17.9999 2.80762 18.1684 2.79428C18.6281 2.75749 19.0904 2.74469 19.5501 2.70843C19.7442 2.69296 19.7543 2.84494 19.8103 2.9532C19.8738 3.07638 19.7581 3.12864 19.6855 3.17717C19.5346 3.27902 19.3565 3.30462 19.1773 3.30835C18.9731 3.31208 18.7689 3.30942 18.5646 3.30942C18.5646 3.30355 18.5646 3.29928 18.5646 3.29448Z" fill="#D2F8E7"/>
<path d="M22.0798 2.35276C21.6249 2.36023 21.2308 2.31703 20.8666 2.12932C20.6426 2.0136 20.633 1.88189 20.8399 1.73951C21.0906 1.56673 21.3609 1.60353 21.6308 1.68831C21.9582 1.7907 22.2472 2.00401 22.6034 2.02534C22.6589 2.02854 22.7026 2.0712 22.7112 2.12826C22.724 2.21198 22.6658 2.25784 22.6018 2.29357C22.42 2.39595 22.2195 2.33463 22.0798 2.35276Z" fill="#D2F8E7"/>
<path d="M18.1228 1.92936C18.2203 1.97042 18.3275 1.92723 18.439 1.9027C18.7163 1.84137 18.9866 1.86004 19.2293 2.02322C19.3023 2.07228 19.3786 2.15067 19.3402 2.24452C19.2911 2.3645 19.2021 2.26372 19.1381 2.24719C18.7035 2.1336 18.2961 2.29785 17.8807 2.3693C17.7127 2.3981 17.5468 2.41143 17.3783 2.4061C17.3117 2.40397 17.2141 2.43596 17.1869 2.35864C17.1544 2.26692 17.2573 2.22639 17.3143 2.18106C17.5452 1.99815 17.8076 1.9059 18.1228 1.92936Z" fill="#D2F8E7"/>
<path d="M19.152 4.26716C18.9824 4.24743 18.7985 4.2341 18.6875 4.07092C18.615 3.96427 18.5942 3.82562 18.7771 3.82882C19.0304 3.83309 19.2352 3.7179 19.4528 3.62458C19.6559 3.53766 19.9311 3.41074 20.0458 3.63898C20.1274 3.80056 19.8682 3.9696 19.7055 4.08638C19.5445 4.20264 19.3573 4.2533 19.152 4.26716Z" fill="#D2F8E7"/>
<path d="M32.1742 22.7969C31.9145 22.798 31.7369 22.6977 31.5919 22.5495C31.442 22.3964 31.5247 22.1682 31.7385 22.1378C31.923 22.1117 32.1097 22.1176 32.2899 22.181C32.4035 22.221 32.5555 22.2263 32.564 22.3852C32.5731 22.549 32.4792 22.6716 32.3358 22.7463C32.2744 22.7777 32.2024 22.7879 32.1742 22.7969Z" fill="#D2F8E7"/>
<path d="M21.2052 2.77614C20.8879 2.73668 20.5813 2.65775 20.2859 2.53564C20.1947 2.49778 20.1137 2.44072 20.0678 2.35006C20.0219 2.25994 19.9937 2.15169 20.0694 2.07543C20.1622 1.98318 20.2443 2.0653 20.319 2.13089C20.5851 2.36339 20.8975 2.49831 21.2426 2.56657C21.3252 2.58256 21.4788 2.51911 21.466 2.67215C21.4537 2.82573 21.3002 2.75321 21.2052 2.77614Z" fill="#D2F8E7"/>
<path d="M28.0358 23.4131C28.0171 23.4073 27.9568 23.3939 27.9009 23.3699C27.7041 23.2851 27.494 22.9758 27.5873 22.9097C27.751 22.7935 27.9153 22.9108 28.0672 22.9908C28.1136 23.0153 28.1488 23.0601 28.1957 23.0825C28.2827 23.1241 28.3307 23.1577 28.2933 23.2782C28.2539 23.4046 28.1824 23.4216 28.0358 23.4131Z" fill="#D2F8E7"/>
</g>
<defs>
<clipPath id="clip0_8189_11939">
<rect width="48" height="48" fill="white"/>
</clipPath>
</defs>
</svg>
