<svg width="48" height="52" viewBox="0 0 48 52" fill="none" xmlns="http://www.w3.org/2000/svg">
<path fill-rule="evenodd" clip-rule="evenodd" d="M3.92092 3.92085C4.03031 3.81146 4.17869 3.75 4.3334 3.75H35.5021C35.6568 3.75 35.8052 3.81146 35.9146 3.92085C36.0239 4.03025 36.0854 4.17862 36.0854 4.33333V10.6333C36.0854 11.5998 36.8689 12.3833 37.8354 12.3833C38.8019 12.3833 39.5854 11.5998 39.5854 10.6333V4.33333C39.5854 3.25037 39.1552 2.21176 38.3894 1.44598C37.6237 0.680207 36.585 0.25 35.5021 0.25H4.3334C3.25043 0.25 2.21182 0.680207 1.44604 1.44598C0.680268 2.21175 0.250061 3.25037 0.250061 4.33333V47.234C0.250061 48.317 0.680267 49.3556 1.44604 50.1213C2.21182 50.8871 3.25043 51.3173 4.3334 51.3173H31.8527C32.8192 51.3173 33.6027 50.5338 33.6027 49.5673C33.6027 48.6008 32.8192 47.8173 31.8527 47.8173H4.3334C4.17868 47.8173 4.03031 47.7559 3.92092 47.6465C3.81152 47.5371 3.75006 47.3887 3.75006 47.234V4.33333C3.75006 4.17862 3.81152 4.03025 3.92092 3.92085ZM24.098 13.7663C21.5266 13.766 19.0128 14.5283 16.8746 15.9568C14.7364 17.3852 13.0699 19.4156 12.0857 21.7913C11.1015 24.1669 10.8439 26.7811 11.3455 29.3031C11.8471 31.8251 13.0853 34.1418 14.9036 35.9601C16.7219 37.7784 19.0386 39.0166 21.5606 39.5182C24.0826 40.0198 26.6968 39.7622 29.0724 38.778C30.6411 38.1282 32.0592 37.1808 33.2529 35.9966C33.2652 35.9834 33.2777 35.9704 33.2905 35.9576C33.3032 35.9449 33.316 35.9326 33.329 35.9204C33.9129 35.3315 34.4418 34.6853 34.9069 33.9891C36.3354 31.8509 37.0977 29.3371 37.0974 26.7657V26.7655C37.0974 25.5896 36.9378 24.4217 36.625 23.2932L40.0974 26.7655C40.0977 29.9303 39.1595 33.024 37.4015 35.6556C37.097 36.1113 36.7704 36.5496 36.4231 36.9692L46.6583 47.2057C47.244 47.7916 47.2439 48.7413 46.6581 49.3271C46.0723 49.9128 45.1225 49.9127 44.5368 49.3269L34.3021 39.0908C33.0785 40.104 31.7043 40.9349 30.2206 41.5496C27.2968 42.7609 24.0794 43.0779 20.9754 42.4606C17.8714 41.8432 15.0202 40.3192 12.7823 38.0814C10.5444 35.8435 9.02048 32.9923 8.40315 29.8883C7.78581 26.7843 8.10283 23.5669 9.31411 20.6431C10.5254 17.7192 12.5765 15.2203 15.2081 13.4622C17.8397 11.7042 20.9334 10.766 24.0982 10.7663L27.5705 14.2387C26.442 13.9259 25.2741 13.7663 24.0982 13.7663H24.098ZM27.5708 14.2387L27.5705 14.2387L36.625 23.2932L36.625 23.2929L40.0974 26.7654C40.0974 24.6644 39.6835 22.584 38.8795 20.6429C38.0755 18.7018 36.897 16.938 35.4113 15.4524C33.9257 13.9667 32.1619 12.7882 30.2208 11.9842C28.2797 11.1802 26.1993 10.7663 24.0983 10.7663L27.5708 14.2387ZM27.5708 14.2387C28.0804 14.38 28.5821 14.5526 29.0728 14.7558C30.6499 15.4091 32.0829 16.3666 33.29 17.5737C34.4971 18.7808 35.4546 20.2138 36.1079 21.7909C36.3111 22.2816 36.4837 22.7833 36.625 23.2929L27.5708 14.2387ZM17.8454 20.5144C18.4312 19.9287 19.381 19.9287 19.9667 20.5144L23.9973 24.545L28.0278 20.5144C28.6136 19.9287 29.5634 19.9287 30.1491 20.5144C30.7349 21.1002 30.7349 22.05 30.1491 22.6358L26.1186 26.6663L30.1491 30.6968C30.7349 31.2826 30.7349 32.2324 30.1491 32.8182C29.5634 33.4039 28.6136 33.4039 28.0278 32.8182L23.9973 28.7876L19.9667 32.8182C19.381 33.4039 18.4312 33.4039 17.8454 32.8182C17.2596 32.2324 17.2596 31.2826 17.8454 30.6968L21.876 26.6663L17.8454 22.6358C17.2596 22.05 17.2596 21.1002 17.8454 20.5144Z" fill="#7F7F7F"/>
</svg>
