<svg width="14" height="14" viewBox="0 0 14 14" fill="none" xmlns="http://www.w3.org/2000/svg">
<path fill-rule="evenodd" clip-rule="evenodd" d="M7.00006 1.565C3.99839 1.565 1.56506 3.99833 1.56506 7C1.56506 10.0017 3.99839 12.435 7.00006 12.435C10.0017 12.435 12.4351 10.0017 12.4351 7C12.4351 3.99833 10.0017 1.565 7.00006 1.565ZM0.435059 7C0.435059 3.37425 3.37431 0.434998 7.00006 0.434998C10.6258 0.434998 13.5651 3.37425 13.5651 7C13.5651 10.6257 10.6258 13.565 7.00006 13.565C3.37431 13.565 0.435059 10.6257 0.435059 7ZM7.00006 3.10166C7.3121 3.10166 7.56506 3.35462 7.56506 3.66666V3.81359C8.20677 3.91786 8.78595 4.19951 9.15924 4.62971C9.36374 4.86539 9.33847 5.22224 9.10278 5.42674C8.8671 5.63125 8.51025 5.60597 8.30575 5.37029C8.16449 5.20749 7.90687 5.05126 7.56506 4.96569L7.56506 6.48007C7.99914 6.55048 8.39939 6.70155 8.72768 6.92041C9.19063 7.22904 9.56507 7.71745 9.56507 8.33333C9.56507 8.94921 9.19063 9.43762 8.72769 9.74625C8.3994 9.96511 7.99914 10.1162 7.56506 10.1866L7.56506 10.3333C7.56505 10.6454 7.31209 10.8983 7.00005 10.8983C6.68801 10.8983 6.43505 10.6454 6.43506 10.3333L6.43506 10.1864C5.79335 10.0821 5.21418 9.80048 4.84089 9.37029C4.63639 9.1346 4.66166 8.77776 4.89735 8.57325C5.13303 8.36875 5.48988 8.39402 5.69438 8.62971C5.83564 8.7925 6.09327 8.94874 6.43507 9.03431L6.43507 7.51993C6.00099 7.44952 5.60073 7.29844 5.27244 7.07958C4.8095 6.77095 4.43506 6.28254 4.43506 5.66666C4.43506 5.05079 4.8095 4.56237 5.27244 4.25375C5.60073 4.03489 6.00099 3.88381 6.43506 3.8134V3.66666C6.43506 3.35462 6.68802 3.10166 7.00006 3.10166ZM6.43506 4.96591C6.22348 5.01882 6.04139 5.0992 5.89925 5.19396C5.63833 5.36791 5.56506 5.54616 5.56506 5.66666C5.56506 5.78717 5.63833 5.96542 5.89925 6.13937C6.04139 6.23412 6.22348 6.31451 6.43506 6.36742L6.43506 4.96591ZM7.56507 7.63257L7.56507 9.03409C7.77665 8.98117 7.95874 8.90079 8.10088 8.80603C8.3618 8.63209 8.43507 8.45383 8.43507 8.33333C8.43507 8.21283 8.3618 8.03458 8.10088 7.86063C7.95874 7.76587 7.77665 7.68549 7.56507 7.63257Z" fill="#227681"/>
</svg>
