<svg width="61" height="35" viewBox="0 0 61 35" xmlns="http://www.w3.org/2000/svg"><title>connect logo positive mono</title><g fill="none" fill-rule="evenodd"><path d="M49.903 13.12c-1.503-3.043-2.97-5.506-4.338-7.093 6.73-1.1 11.307-.464 12.244 2.05.742 1.992-.71 5.24-3.844 8.807-.552.627-1.17.976-1.856 1.099a83.546 83.546 0 0 0-2.207-4.862zm-17.74-4.332c-.329.135-.695.282-1.153.464-.458-.182-.825-.33-1.154-.464C26.573 7.442 22.418 6.2 18.501 5.42 22.278 1.98 26.8 0 31.01 0c4.654 0 8.846 1.775 12.548 5.413-3.929.778-8.1 2.025-11.395 3.375zM16.451 6.029C13.377 9.388 10.335 15.025 9.997 18c-.728-.104-1.382-.457-1.962-1.116C4.9 13.317 3.45 10.069 4.191 8.078c.937-2.517 5.522-3.153 12.26-2.049zm16.325 3.515c3.417-1.351 8.922-2.92 11.586-3.318.215.227.436.482.663.765.939 1.175 1.944 2.79 2.98 4.733a74.942 74.942 0 0 1 2.315 4.779c.237.534.452 1.032.642 1.483a5.992 5.992 0 0 1-1.27-.35c-.49-.189-.859-.379-1.323-.649-8.247-4.792-8.778-5.085-11.63-6.198a24.802 24.802 0 0 0-4.045-1.213l.082-.032zM11.08 17.983c.38-2.88 3.55-8.635 6.586-11.748 2.961.452 7.93 1.924 11.506 3.322-3.208.619-6.164 2.02-10.525 4.633.146-.088-1.9 1.143-2.447 1.467-.91.536-1.658.96-2.372 1.333-.97.508-1.936.87-2.748.993z" fill="#47474F"/><path d="M5.861 28.342H3.607v5.808H2.361v-5.808H.127v-.946h5.734v.946zm7.9 2.607c0 .514-.073.974-.217 1.38a2.955 2.955 0 0 1-.608 1.035c-.261.283-.576.5-.943.651a3.173 3.173 0 0 1-1.221.228 3.16 3.16 0 0 1-1.216-.228 2.707 2.707 0 0 1-.951-.651 2.954 2.954 0 0 1-.62-1.035 4.035 4.035 0 0 1-.221-1.38v-.343c0-.513.073-.974.22-1.382.148-.408.353-.755.616-1.04.263-.284.578-.502.946-.653a3.16 3.16 0 0 1 1.216-.228c.447 0 .855.076 1.224.228.369.151.685.37.948.654.263.284.466.63.61 1.039.144.408.216.869.216 1.382v.343zm-1.257-.352c0-.378-.039-.71-.116-1a2.065 2.065 0 0 0-.34-.726 1.45 1.45 0 0 0-.549-.443c-.217-.1-.462-.15-.737-.15-.268 0-.51.05-.725.15-.215.1-.398.248-.548.443-.151.195-.267.437-.348.726-.081.29-.122.622-.122 1v.352c0 .378.041.712.122 1.002a2.1 2.1 0 0 0 .35.73c.152.197.337.346.554.446.216.1.459.15.727.15.556 0 .984-.197 1.283-.593.3-.396.45-.974.45-1.735v-.352zm5.085 1.043v2.51h-1.256v-6.754h2.765c.42 0 .793.053 1.12.16.325.107.6.256.826.448.225.191.396.419.514.682.117.263.176.549.176.858 0 .328-.059.621-.176.881-.118.26-.289.48-.514.659-.225.18-.5.317-.827.413-.326.096-.699.143-1.12.143H17.59zm0-.941h1.509c.242 0 .45-.028.623-.084.174-.055.317-.134.43-.236a.902.902 0 0 0 .245-.364c.051-.141.077-.295.077-.462 0-.158-.026-.31-.077-.455a1.028 1.028 0 0 0-.246-.387 1.203 1.203 0 0 0-.429-.269 1.744 1.744 0 0 0-.623-.1h-1.51V30.7zm12.079 1.252a2.77 2.77 0 0 1-.248.916c-.133.28-.316.522-.551.726a2.528 2.528 0 0 1-.862.478 3.67 3.67 0 0 1-1.174.172c-.443 0-.844-.075-1.203-.225a2.569 2.569 0 0 1-.919-.64 2.84 2.84 0 0 1-.583-1.005 4.032 4.032 0 0 1-.204-1.322v-.547c0-.486.07-.925.209-1.32a2.86 2.86 0 0 1 .596-1.009c.258-.278.57-.493.935-.644a3.182 3.182 0 0 1 1.229-.228c.43 0 .81.058 1.142.174.33.116.611.277.841.483.23.205.41.45.541.735.13.284.214.595.25.932h-1.25a2.482 2.482 0 0 0-.137-.575 1.211 1.211 0 0 0-.275-.434 1.15 1.15 0 0 0-.452-.271 2.065 2.065 0 0 0-.66-.093c-.285 0-.534.05-.747.151-.214.1-.392.246-.534.436-.142.19-.249.424-.32.703a3.851 3.851 0 0 0-.107.95v.557c0 .337.032.644.095.919.062.275.16.51.292.707.133.197.303.349.512.457.208.108.458.162.75.162.27 0 .5-.029.687-.088a1.19 1.19 0 0 0 .464-.26c.122-.114.218-.255.285-.422.068-.167.117-.358.147-.575h1.25zm8.212-1.002c0 .514-.072.974-.216 1.38a2.955 2.955 0 0 1-.608 1.035c-.262.283-.576.5-.943.651a3.173 3.173 0 0 1-1.222.228 3.16 3.16 0 0 1-1.216-.228 2.707 2.707 0 0 1-.95-.651 2.954 2.954 0 0 1-.621-1.035 4.035 4.035 0 0 1-.22-1.38v-.343c0-.513.073-.974.22-1.382.147-.408.352-.755.616-1.04.263-.284.578-.502.945-.653a3.16 3.16 0 0 1 1.216-.228c.447 0 .855.076 1.224.228.37.151.685.37.948.654.263.284.467.63.61 1.039.145.408.217.869.217 1.382v.343zm-1.256-.352c0-.378-.039-.71-.117-1a2.065 2.065 0 0 0-.34-.726 1.45 1.45 0 0 0-.548-.443c-.217-.1-.463-.15-.738-.15-.268 0-.51.05-.724.15-.215.1-.398.248-.549.443-.15.195-.266.437-.347.726-.081.29-.122.622-.122 1v.352c0 .378.04.712.122 1.002a2.1 2.1 0 0 0 .35.73c.152.197.336.346.553.446.217.1.46.15.727.15.556 0 .984-.197 1.284-.593.3-.396.449-.974.449-1.735v-.352zm3.829 3.553v-6.754h2.134c.483 0 .924.076 1.323.227.399.152.741.368 1.028.647.286.28.508.618.667 1.014.16.396.239.838.239 1.327v.334c0 .488-.079.93-.236 1.324-.157.394-.38.73-.67 1.009a2.99 2.99 0 0 1-1.048.645 3.895 3.895 0 0 1-1.362.227h-2.075zm1.255-5.808v4.871h.82c.34 0 .64-.052.898-.155a1.66 1.66 0 0 0 .643-.448c.17-.195.299-.433.385-.714.086-.282.129-.599.129-.951V30.6c0-.732-.17-1.292-.512-1.679-.34-.386-.835-.58-1.484-.58h-.879zm10.933 2.793h-2.969v2.078h3.47v.937h-4.726v-6.754h4.691v.946h-3.435v1.865h2.969v.928zm5.501.413h-1.4v2.602h-1.256v-6.754h2.542c.414 0 .783.044 1.107.132.324.088.598.218.822.39.223.172.393.384.509.638.115.253.173.547.173.881 0 .452-.116.83-.35 1.134-.233.305-.558.54-.975.703l1.623 2.816v.06h-1.345l-1.45-2.602zm-1.4-.942h1.291c.225 0 .422-.028.59-.083.17-.056.31-.133.423-.232a.945.945 0 0 0 .253-.353c.056-.136.084-.286.084-.45 0-.173-.026-.33-.08-.47a.93.93 0 0 0-.242-.363c-.11-.1-.25-.177-.42-.231a2.039 2.039 0 0 0-.613-.082h-1.286v2.264z" fill="#262628"/></g></svg>