<?xml version="1.0" encoding="UTF-8" standalone="no"?>
<svg width="18px" height="18px" viewBox="0 0 18 18" version="1.1" xmlns="http://www.w3.org/2000/svg" xmlns:xlink="http://www.w3.org/1999/xlink" xmlns:sketch="http://www.bohemiancoding.com/sketch/ns">
    <!-- Generator: Sketch 3.3.3 (12081) - http://www.bohemiancoding.com/sketch -->
    <title>ico-magnifying_glass</title>
    <desc>Created with Sketch.</desc>
    <defs></defs>
    <g id="navigation-states" stroke="none" stroke-width="1" fill="none" fill-rule="evenodd" sketch:type="MSPage">
        <g id="Mobile-320-menu-speck-10" sketch:type="MSArtboardGroup" transform="translate(-27.000000, -71.000000)" fill="#979797">
            <g id="Rectangle-43-+-Fill-2-+-find-people-or-compe" sketch:type="MSLayerGroup" transform="translate(20.000000, 64.000000)">
                <path d="M14.3832887,8.80736538 C17.3214131,8.80736538 19.7114775,11.2128248 19.7114775,14.1694231 C19.7114775,17.1260214 17.3214131,19.5314808 14.3832887,19.5314808 C11.4451644,19.5314808 9.05433015,17.1260214 9.05433015,14.1694231 C9.05433015,11.2128248 11.4451644,8.80736538 14.3832887,8.80736538 M18.6782452,19.8985746 C17.4828626,20.8032085 15.9953718,21.3395 14.3832308,21.3395 C10.4392308,21.3395 7.24192308,18.1297692 7.24192308,14.1694231 C7.24192308,10.2097308 10.4392308,7 14.3832308,7 C18.3272308,7 21.5251923,10.2097308 21.5251923,14.1694231 C21.5251923,15.7882108 20.9908904,17.2815889 20.0897334,18.4816192 L24.6137031,23.0236077 L23.1966815,24.4350077 L18.6782452,19.8985746 Z" id="ico-magnifying_glass" sketch:type="MSShapeGroup"></path>
            </g>
        </g>
    </g>
</svg>