<?xml version="1.0" encoding="utf-8"?>
<!-- Generator: Adobe Illustrator 18.1.1, SVG Export Plug-In . SVG Version: 6.00 Build 0)  -->
<svg version="1.1" xmlns="http://www.w3.org/2000/svg" xmlns:xlink="http://www.w3.org/1999/xlink" x="0px" y="0px"
	 viewBox="0 0 420.5 480.9" enable-background="new 0 0 420.5 480.9" xml:space="preserve">
<g id="Layer_2">
</g>
<g id="Layer_1">
	<g>
		<g>
			<g>
				<path fill="#F79151" d="M246.3,177c0-7.9,2.1-15.4,5.7-21.9c-15.9-6.8-23.6-9.3-23.6-9.3l-0.2-22.1c0,0,12.3-6.6,15-27.4
					c5.4,1.6,11.1-8,11.4-13.1c0.3-4.9-0.7-18.4-7.3-17c1.3-10.2,0.5-19.4,0-24.2C245.5,24.2,229.8,5.5,203,5.5
					c-26.9,0-42.5,18.7-44.2,36.5c-0.5,4.8-1.3,14,0,24.2c-6.6-1.4-7.6,12.2-7.3,17c0.3,5.1,6,14.7,11.4,13.1
					c2.7,20.8,15,27.4,15,27.4l-0.2,22.1c0,0-9.1,3.3-32.2,12.9c-23,9.6-46.3,16.3-53.2,27.1c-6.2,9.7-4.3,56.1-4.3,56.1h86.9h50.1
					h93.2c0,0,0.6-14.2,0-28.6c-7.5,5.5-16.7,8.7-26.7,8.7C266.6,222.1,246.3,201.9,246.3,177z"/>
				<path fill="#FAAB54" d="M336.6,177c0-24.9-20.3-45.2-45.2-45.2c-17,0-31.8,9.4-39.5,23.3c2.5,1.1,5.4,2.3,8.6,3.6
					c0.2,0.1,0.3,0.1,0.5,0.2c6.2-10.4,17.5-17.4,30.4-17.4c19.5,0,35.4,15.9,35.4,35.4c0,9.3-3.6,17.8-9.5,24.1
					c0.4,3.9,0.6,8.1,0.8,12.3C329.3,205.2,336.6,191.9,336.6,177z"/>
				<path fill="#FAAB54" d="M291.5,212.4c-19.5,0-35.4-15.9-35.4-35.4c0-6.6,1.8-12.8,5-18c-0.2-0.1-0.3-0.1-0.5-0.2
					c-3.2-1.3-6-2.5-8.6-3.6c-3.6,6.5-5.7,13.9-5.7,21.9c0,24.9,20.3,45.2,45.2,45.2c10,0,19.2-3.2,26.7-8.7
					c-0.2-4.2-0.4-8.4-0.8-12.3C310.8,208,301.7,212.4,291.5,212.4z"/>
			</g>
			<polygon fill="#F79151" points="318.4,170.8 318.4,183.9 298,183.9 298,204.3 284.9,204.3 284.9,183.9 264.5,183.9 264.5,170.8 
				284.9,170.8 284.9,150.4 298,150.4 298,170.8 			"/>
		</g>
		<g>
			<polygon fill="#FFD54C" points="416.5,342.2 4,342.2 20.4,292.9 4,243.7 416.5,243.7 403.2,292.9 			"/>
			<polygon fill="#EBA715" points="360.9,342.2 62.7,342.2 29.9,328.6 390.6,328.6 			"/>
			<g>
				<polygon fill="#FAAB54" points="59.7,388.5 210.3,475.4 360.9,388.5 360.9,274.8 59.7,274.8 				"/>
				<polygon fill="#F79151" points="86.7,368.6 210.3,439.9 333.8,368.6 333.8,275.4 86.7,275.4 				"/>
			</g>
			<rect x="29.9" y="229.7" fill="#FFE18B" width="360.7" height="98.5"/>
			
				<text transform="matrix(1 0 0 1 101.9183 299.8053)" fill="#F37121" stroke="#F37121" stroke-width="0.3303" stroke-miterlimit="10" font-family="'Bitter-Regular'" font-size="47.7045" letter-spacing="2">MEMBER</text>
		</g>
	</g>
</g>
</svg>
