<?xml version="1.0" encoding="UTF-8"?>
<svg width="22px" height="40px" viewBox="0 0 22 40" version="1.1" xmlns="http://www.w3.org/2000/svg" xmlns:xlink="http://www.w3.org/1999/xlink">
    <!-- Generator: Sketch 61 (89581) - https://sketch.com -->
    <title>arrow-right</title>
    <desc>Created with Sketch.</desc>
    <g id="TCO18-with-Finalists-Interview-Complete" stroke="none" stroke-width="1" fill="none" fill-rule="evenodd">
        <g id="1-TCOs-Template" transform="translate(-1186.000000, -1065.000000)" fill="#FFFFFF" fill-rule="nonzero">
            <g id="arrow-right" transform="translate(1186.000000, 1065.000000)">
                <path d="M1.26940333,40 C0.930895773,40 0.611006134,39.87 0.372358309,39.6333333 C-0.121862719,39.1466667 -0.121862719,38.3533333 0.372358309,37.865 L18.5163632,20 L0.372358309,2.13333333 C0.132017946,1.89833333 0,1.58333333 0,1.25 C0,0.916666667 0.132017946,0.601666667 0.372358309,0.366666667 C0.611006134,0.13 0.930895773,0 1.26940333,0 C1.60791088,0 1.92780052,0.13 2.16644834,0.366666667 L20.3104532,18.2333333 C21.2988953,19.2066667 21.3005878,20.7916667 20.3121458,21.765 L2.16644834,39.6333333 C1.92780052,39.87 1.60791088,40 1.26940333,40 Z" id="Path"></path>
            </g>
        </g>
    </g>
</svg>