<?xml version="1.0" encoding="UTF-8"?>
<svg width="48px" height="48px" viewBox="0 0 48 48" version="1.1" xmlns="http://www.w3.org/2000/svg" xmlns:xlink="http://www.w3.org/1999/xlink">
    <!-- Generator: Sketch 57.1 (83088) - https://sketch.com -->
    <title>icon / arrow-right copy</title>
    <desc>Created with Sketch.</desc>
    <g id="TC-Landing-Page" stroke="none" stroke-width="1" fill="none" fill-rule="evenodd">
        <g id="D01_TC-Community" transform="translate(-80.000000, -5574.000000)">
            <g id="icon-/-arrow-left" transform="translate(80.000000, 5574.000000)">
                <rect id="Rectangle" fill="#FFFFFF" x="0" y="0" width="48" height="48"></rect>
                <g id="arrow-right-1" stroke-width="1" transform="translate(24.000000, 24.000000) scale(-1, 1) translate(-24.000000, -24.000000) translate(10.000000, 0.000000)" fill="#D4D4D4">
                    <path d="M2.998,48 C2.598,48 2.22,47.844 1.938,47.56 C1.354,46.976 1.354,46.024 1.938,45.438 L23.378,24 L1.938,2.56 C1.654,2.278 1.498,1.9 1.498,1.5 C1.498,1.1 1.654,0.722 1.938,0.44 C2.22,0.156 2.598,0 2.998,0 C3.398,0 3.776,0.156 4.058,0.44 L25.498,21.88 C26.666,23.048 26.668,24.95 25.5,26.118 L4.058,47.56 C3.776,47.844 3.398,48 2.998,48 Z" id="Path" fill-rule="nonzero"></path>
                </g>
            </g>
        </g>
    </g>
</svg>