<svg width="331" height="31" viewBox="0 0 331 31" fill="none" xmlns="http://www.w3.org/2000/svg">
<path d="M39.6633 25.194V18.7508H42.421C47.6012 18.7508 50.6939 15.8643 50.6939 11.5345C50.6939 7.46249 47.5497 5.11719 43.0137 5.11719H36.2871V25.194H39.6633ZM42.9106 8.1068C45.591 8.1068 47.3693 9.34388 47.3693 11.9211C47.3693 14.318 45.359 15.7355 42.7302 15.7355H39.6633V8.08102H42.9106V8.1068ZM97.136 18.1838C97.136 14.0345 93.9917 10.916 89.8681 10.916C85.8734 10.916 82.6003 14.1633 82.6003 18.1581C82.6003 18.2096 82.6003 18.2354 82.6003 18.2869C82.6003 22.4878 85.6157 25.529 89.8681 25.529C93.8371 25.5805 97.1102 22.4105 97.136 18.4416C97.1617 18.3385 97.1617 18.2612 97.136 18.1838ZM85.7703 18.1838C85.7703 15.787 87.5228 13.8798 89.8681 13.9314C92.4454 14.0087 94.0433 15.787 93.9917 18.1838C93.9402 20.5807 92.2134 22.4363 89.8681 22.4363C87.5228 22.4363 85.7703 20.5549 85.7703 18.1838ZM128.63 19.0086C128.707 18.5189 128.733 18.0292 128.733 17.5395C128.733 13.6221 125.743 10.8645 121.955 10.8645C118.012 10.8129 114.764 13.9829 114.713 17.9261C114.713 17.9777 114.713 18.055 114.713 18.1065C114.713 22.359 117.548 25.4517 121.852 25.4517C124.738 25.4517 127.161 24.0857 128.166 22.1786L125.692 20.8126C125.022 21.8951 123.63 22.6167 122.032 22.6167C119.816 22.6167 118.269 21.2765 117.934 18.9828L128.63 19.0086ZM118.166 16.5859C118.579 14.7303 119.945 13.5963 121.878 13.5963C123.81 13.5963 125.28 14.8334 125.46 16.5859H118.166ZM79.0952 11.148L75.2293 21.1477L71.7758 11.148H68.1419L73.3479 25.194L71.1831 30.1165H74.6108L82.523 11.148H79.0952ZM155.098 11.2253C154.66 11.0964 154.196 11.0191 153.732 11.0449C152.366 11.0449 150.82 11.818 150.15 13.184V11.1737H146.98V25.2197H150.15V17.6942C150.15 15.0911 151.902 14.0087 153.681 14.0087C154.145 14.0087 154.634 14.0602 155.073 14.1633C155.073 14.1891 155.098 11.2253 155.098 11.2253ZM144.635 19.0086C144.712 18.5189 144.738 18.0292 144.738 17.5395C144.738 13.6221 141.748 10.8645 137.96 10.8645C134.016 10.8129 130.769 13.9829 130.718 17.9261C130.718 17.9777 130.718 18.055 130.718 18.1065C130.718 22.359 133.552 25.4517 137.856 25.4517C140.743 25.4517 143.166 24.0857 144.171 22.1786L141.697 20.8126C141.027 21.8951 139.635 22.6167 138.037 22.6167C135.82 22.6167 134.274 21.2765 133.939 18.9828L144.635 19.0086ZM134.145 16.5859C134.558 14.7303 135.924 13.5963 137.856 13.5963C139.789 13.5963 141.258 14.8334 141.439 16.5859H134.145ZM63.1163 18.1581C63.1678 20.5549 61.2864 22.5394 58.8638 22.6167C58.7865 22.6167 58.7349 22.6167 58.6576 22.6167C56.2092 22.6167 54.5598 20.7095 54.5598 18.1581C54.5856 15.7355 56.5185 13.7767 58.9411 13.751C61.4668 13.7252 63.1163 15.6324 63.1163 18.1581ZM112.574 17.2045C112.574 13.2871 110.667 10.916 107.084 10.916C105.203 10.916 103.45 11.7149 102.497 13.0036V11.1995H99.3008V25.2455H102.497V17.6168C102.497 15.2715 104.198 13.7767 106.234 13.7767C108.27 13.7767 109.352 15.1427 109.352 17.488V25.2455H112.599L112.574 17.2045ZM63.1163 11.148V12.952C62.1885 11.715 60.6937 10.8645 58.4514 10.8645C54.5856 10.8645 51.3382 14.2922 51.3382 18.3385C51.3382 22.4105 54.0959 25.4517 57.8587 25.4517C60.2813 25.4517 62.1111 24.6012 63.1163 23.1579V25.194H66.2605V11.148H63.1163Z" fill="#2A2A2A"/>
<path fill-rule="evenodd" clip-rule="evenodd" d="M15.4496 26.7C21.718 26.7 26.7996 21.6184 26.7996 15.35C26.7996 9.08157 21.718 4 15.4496 4C9.18118 4 4.09961 9.08157 4.09961 15.35C4.09961 21.6184 9.18118 26.7 15.4496 26.7ZM15.4496 30.2C23.651 30.2 30.2996 23.5514 30.2996 15.35C30.2996 7.14857 23.651 0.5 15.4496 0.5C7.24818 0.5 0.599609 7.14857 0.599609 15.35C0.599609 23.5514 7.24818 30.2 15.4496 30.2Z" fill="#AAAAAA"/>
</svg>
