<svg width="125" height="30" viewBox="0 0 125 30" fill="none" xmlns="http://www.w3.org/2000/svg">
<path fill-rule="evenodd" clip-rule="evenodd" d="M11.4737 7.0625H19.9353C24.4784 7.0625 26.1886 9.36246 25.9243 12.7414C25.4875 18.3199 22.1151 21.4061 17.6419 21.4061H15.3834C14.7696 21.4061 14.3568 21.8124 14.1908 22.9132L13.232 29.3129C13.1686 29.7279 12.9502 29.9682 12.6226 30.001H7.30623C6.80605 30.001 6.62913 29.6187 6.76018 28.7909L10.0015 8.27473C10.1282 7.45348 10.5782 7.0625 11.4737 7.0625Z" fill="#7F7F7F"/>
<path fill-rule="evenodd" clip-rule="evenodd" d="M48.2097 6.67969C51.0644 6.67969 53.6986 8.22829 53.3382 12.0878C52.9013 16.6746 50.4441 19.2126 46.5671 19.2235H43.1794C42.6924 19.2235 42.4565 19.6211 42.3298 20.4358L41.6745 24.601C41.5763 25.2301 41.253 25.5403 40.7768 25.5403H37.625C37.1227 25.5403 36.9479 25.2192 37.0593 24.5006L39.6607 7.80674C39.7896 6.98548 40.0975 6.67969 40.6589 6.67969H48.2031H48.2097ZM43.0768 15.6174H45.6432C47.2486 15.5563 48.3145 14.4445 48.4215 12.4394C48.4871 11.201 47.6505 10.3142 46.3203 10.3207L43.9046 10.3317L43.0768 15.6174ZM61.9068 24.2625C62.1951 24.0004 62.4878 23.865 62.4463 24.1882L62.3436 24.9614C62.2912 25.3655 62.4506 25.5796 62.8263 25.5796H65.6265C66.0983 25.5796 66.3276 25.3895 66.4434 24.66L68.1689 13.8308C68.2562 13.2869 68.123 13.0204 67.7102 13.0204H64.6305C64.3531 13.0204 64.2177 13.1755 64.1456 13.5992L64.032 14.2654C63.973 14.6127 63.8136 14.6739 63.6651 14.3244C63.143 13.0881 61.8107 12.5333 59.9519 12.577C55.6338 12.6666 52.7222 15.9451 52.4099 20.1475C52.1696 23.3976 54.498 25.9509 57.569 25.9509C59.7968 25.9509 60.7928 25.2956 61.9155 24.269L61.9068 24.2625ZM59.5609 22.5959C57.7022 22.5959 56.407 21.1129 56.6756 19.2956C56.9443 17.4784 58.6829 15.9953 60.5417 15.9953C62.4004 15.9953 63.6956 17.4784 63.427 19.2956C63.1583 21.1129 61.4219 22.5959 59.5609 22.5959ZM73.649 12.9855H70.8096C70.2242 12.9855 69.9861 13.4223 70.1718 13.9596L73.6971 24.2821L70.2395 29.1944C69.949 29.605 70.174 29.9785 70.5824 29.9785H73.7735C73.9595 30 74.1478 29.9676 74.3158 29.8851C74.4839 29.8026 74.6247 29.6736 74.7215 29.5133L85.5638 13.9618C85.898 13.4835 85.7408 12.9811 85.1925 12.9811H82.1718C81.6541 12.9811 81.4466 13.1864 81.1496 13.6167L76.6283 20.1693L74.6079 13.6014C74.49 13.2039 74.1951 12.9855 73.6512 12.9855H73.649Z" fill="#555555"/>
<path fill-rule="evenodd" clip-rule="evenodd" d="M96.8432 6.68015C99.698 6.68015 102.332 8.22875 101.972 12.0882C101.535 16.6751 99.0777 19.2131 95.2007 19.224H91.8152C91.3281 19.224 91.0922 19.6215 90.9655 20.4362L90.3103 24.6015C90.212 25.2306 89.8887 25.5407 89.4126 25.5407H86.2608C85.7584 25.5407 85.5837 25.2196 85.6951 24.501L88.3008 7.80283C88.4297 6.98157 88.7377 6.67578 89.299 6.67578H96.8432V6.68015ZM91.7103 15.6179H94.2768C95.8822 15.5567 96.9481 14.445 97.0551 12.4399C97.1206 11.2014 96.2841 10.3147 94.9539 10.3212L92.5382 10.3321L91.7103 15.6179V15.6179ZM110.54 24.263C110.829 24.0009 111.121 23.8654 111.08 24.1887L110.977 24.9619C110.925 25.366 111.084 25.58 111.46 25.58H114.26C114.732 25.58 114.961 25.39 115.077 24.6605L116.802 13.8312C116.89 13.2874 116.757 13.0209 116.344 13.0209H113.268C112.991 13.0209 112.856 13.176 112.784 13.5997L112.67 14.2659C112.611 14.6132 112.452 14.6743 112.303 14.3249C111.781 13.0886 110.449 12.5338 108.59 12.5775C104.272 12.667 101.36 15.9455 101.048 20.1479C100.808 23.398 103.136 25.9513 106.207 25.9513C108.435 25.9513 109.431 25.2961 110.553 24.2695L110.54 24.263ZM108.197 22.5964C106.338 22.5964 105.043 21.1133 105.311 19.2961C105.58 17.4788 107.319 15.9958 109.177 15.9958C111.036 15.9958 112.331 17.4788 112.063 19.2961C111.794 21.1133 110.055 22.5964 108.197 22.5964ZM121.112 25.5975H117.879C117.823 25.6 117.767 25.5901 117.715 25.5684C117.663 25.5467 117.617 25.5139 117.579 25.4721C117.541 25.4304 117.513 25.3808 117.497 25.327C117.48 25.2732 117.476 25.2164 117.484 25.1607L120.323 7.1716C120.35 7.04883 120.418 6.93884 120.516 6.85953C120.613 6.78021 120.735 6.73624 120.861 6.73476H124.093C124.15 6.73224 124.206 6.74218 124.258 6.76385C124.309 6.78552 124.356 6.8184 124.394 6.86013C124.432 6.90186 124.46 6.95142 124.476 7.00526C124.492 7.0591 124.497 7.1159 124.489 7.1716L121.649 25.1607C121.623 25.2842 121.555 25.3952 121.458 25.4754C121.36 25.5556 121.238 25.6002 121.112 25.6019V25.5975Z" fill="#7F7F7F"/>
<path fill-rule="evenodd" clip-rule="evenodd" d="M6.18125 0H14.6516C17.0367 0 19.8674 0.076447 21.759 1.74736C23.0236 2.86349 23.6876 4.63924 23.5347 6.5526C23.0149 13.02 19.1467 16.6436 13.957 16.6436H9.78081C9.06876 16.6436 8.59916 17.1154 8.39821 18.391L7.23185 25.8172C7.1554 26.2978 6.94791 26.5817 6.57659 26.6167H1.3498C0.770992 26.6167 0.565675 26.1798 0.716385 25.2144L4.47321 1.41099C4.62392 0.454312 5.15031 0 6.18125 0Z" fill="#555555"/>
<path fill-rule="evenodd" clip-rule="evenodd" d="M8.52026 17.6367L9.99897 8.27301C10.1278 7.45176 10.5778 7.05859 11.4733 7.05859H19.9349C21.335 7.05859 22.4686 7.27702 23.3553 7.68109C22.5057 13.4386 18.7816 16.6363 13.9065 16.6363H9.73686C9.17771 16.6385 8.76708 16.9181 8.52026 17.6367Z" fill="#2A2A2A"/>
<path fill-rule="evenodd" clip-rule="evenodd" d="M8.52026 17.6367L9.99897 8.27301C10.1278 7.45176 10.5778 7.05859 11.4733 7.05859H19.9349C21.335 7.05859 22.4686 7.27702 23.3553 7.68109C22.5057 13.4386 18.7816 16.6363 13.9065 16.6363H9.73686C9.17771 16.6385 8.76708 16.9181 8.52026 17.6367Z" fill="black" fill-opacity="0.2"/>
</svg>
