<?xml version="1.0" encoding="UTF-8"?>
<svg width="50px" height="50px" viewBox="0 0 50 50" version="1.1" xmlns="http://www.w3.org/2000/svg" xmlns:xlink="http://www.w3.org/1999/xlink">
    <!-- Generator: sketchtool 55.2 (78181) - https://sketchapp.com -->
    <title>BAB48649-9C6A-456C-AFBB-F6419F27895D</title>
    <desc>Created with sketchtool.</desc>
    <g id="Symbols" stroke="none" stroke-width="1" fill="none" fill-rule="evenodd">
        <g id="icon-/-qa">
            <rect fill="none" x="0" y="0" width="50" height="50"></rect>
            <rect id="Rectangle" fill="#FFFFFF" opacity="0" x="0" y="0" width="50" height="50"></rect>
            <g id="Group" transform="translate(7.000000, 5.000000)" fill="#FFFFFF" fill-rule="nonzero">
                <path d="M2.84,32.4032 C1.328,32.4032 0.0544,31.1664 -1.0125234e-13,29.6448 L-1.0125234e-13,2.7616 C0.0768,1.2 1.3232,-2.48689958e-14 2.8384,-2.48689958e-14 C2.8816,-2.48689958e-14 2.9248,0.0016 2.9664,0.0032 L33.0848,0.0016 C33.0976,-2.48689958e-14 33.136,-2.48689958e-14 33.1744,-2.48689958e-14 C34.6576,-2.48689958e-14 35.9232,1.2128 35.9968,2.7024 L35.9984,29.6016 C35.9424,31.1824 34.6848,32.4016 33.136,32.4016 L33.0464,32.4 L31.1984,32.4 C30.536,32.4 29.9984,31.8624 29.9984,31.2 C29.9984,30.5376 30.536,30 31.1984,30 C31.1984,30 33.0864,30 33.0864,30 C33.3824,30 33.5904,29.8048 33.6,29.5568 L33.6,2.76 C33.5904,2.5824 33.384,2.3984 33.16,2.3984 C33.1488,2.4 2.912,2.4016 2.912,2.4016 L2.856,2.4 C2.6064,2.4 2.4096,2.5808 2.3968,2.8208 L2.3984,29.6016 C2.4064,29.8048 2.6192,30.0032 2.856,30.0032 L4.7984,30.0016 C5.4608,30.0016 5.9984,30.5392 5.9984,31.2016 C5.9984,31.864 5.4608,32.4016 4.7984,32.4016 L2.84,32.4032 Z" id="Path"></path>
                <path d="M7.1984,8.4016 C6.536,8.4016 5.9984,7.864 5.9984,7.2016 C5.9984,6.5392 6.536,6.0016 7.1984,6.0016 L28.7984,6.0016 C29.4608,6.0016 29.9984,6.5392 29.9984,7.2016 C29.9984,7.864 29.4608,8.4016 28.7984,8.4016 L7.1984,8.4016 Z" id="Path"></path>
                <path d="M7.1456,14.4016 C6.4832,14.4016 5.9456,13.864 5.9456,13.2016 C5.9456,12.5392 6.4832,12.0016 7.1456,12.0016 L22.7984,12.0016 C23.4608,12.0016 23.9984,12.5392 23.9984,13.2016 C23.9984,13.864 23.4608,14.4016 22.7984,14.4016 L7.1456,14.4016 Z" id="Path"></path>
                <path d="M17.9984,38.4016 C12.3744,38.4016 7.7984,33.8256 7.7984,28.2016 C7.7984,22.5776 12.3744,18.0016 17.9984,18.0016 C23.6224,18.0016 28.1984,22.5776 28.1984,28.2016 C28.1984,33.8256 23.6224,38.4016 17.9984,38.4016 Z M17.9984,20.4016 C13.6976,20.4016 10.1984,23.9008 10.1984,28.2016 C10.1984,32.5024 13.6976,36.0016 17.9984,36.0016 C22.2992,36.0016 25.7984,32.5024 25.7984,28.2016 C25.7984,23.9008 22.2992,20.4016 17.9984,20.4016 Z" id="Shape"></path>
                <path d="M16.9024,32.6208 C16.4208,32.6208 15.9632,32.4672 15.576,32.176 C15.4976,32.1168 15.4208,32.0512 15.3504,31.9808 L13.3264,29.9568 C12.8592,29.4896 12.8592,28.728 13.3264,28.2592 C13.5536,28.032 13.8544,27.9072 14.1744,27.9072 C14.4944,27.9072 14.7968,28.032 15.0224,28.2592 L16.8832,30.12 L20.6512,25.0944 C20.8768,24.7936 21.2352,24.6144 21.6112,24.6144 C21.872,24.6144 22.1216,24.6976 22.3296,24.8544 C22.5856,25.0464 22.752,25.328 22.7984,25.6448 C22.8432,25.9616 22.7632,26.2784 22.5696,26.5344 L18.6688,31.736 C18.312,32.2096 17.7952,32.5152 17.2112,32.5968 C17.1088,32.6128 17.0048,32.6208 16.9024,32.6208 Z" id="Path"></path>
            </g>
        </g>
    </g>
</svg>