<svg xmlns="http://www.w3.org/2000/svg" xmlns:xlink="http://www.w3.org/1999/xlink" width="87px" height="86px" viewBox="0 0 87 86" version="1.1">
    <!-- Generator: Sketch 46.2 (44496) - http://www.bohemiancoding.com/sketch -->
    <title>robot-embarresed</title>
    <desc>Created with Sketch.</desc>
    <defs/>
    <g id="File-Submit-Develop---Desktop" stroke="none" stroke-width="1" fill="none" fill-rule="evenodd" stroke-linecap="round" stroke-linejoin="round">
        <g id="08-D-Submit-Error" transform="translate(-645.000000, -258.000000)" stroke="#444444" stroke-width="2">
            <g id="robot-embarresed" transform="translate(646.000000, 259.000000)">
                <path d="M84.3,25.375 C84.3,20.7492083 80.5382,17 75.9,17 L8.7,17 C4.0604,17 0.3,20.7492083 0.3,25.375 L0.3,75.625 C0.3,80.2507917 4.0604,84 8.7,84 L75.9,84 C80.5382,84 84.3,80.2507917 84.3,75.625 L84.3,25.375 L84.3,25.375 Z" id="Stroke-387" fill="#FEE8EC"/>
                <path d="M11.3,17 L11.3,7" id="Stroke-389"/>
                <path d="M72.3,17 L72.3,7" id="Stroke-391"/>
                <polygon id="Stroke-393" fill="#F31D3D" points="21.3 0 1.3 0 1.3 7 21.3 7"/>
                <polygon id="Stroke-395" fill="#F31D3D" points="83.3 0 63.3 0 63.3 7 83.3 7"/>
                <circle id="Oval-5" fill="#FFFFFF" cx="31.3" cy="37" r="4"/>
                <circle id="Oval-5" fill="#FFFFFF" cx="53.3" cy="37" r="4"/>
                <path d="M70.3,64 C70.3,64 51.2448288,60.5 42.3,60.5 C32.5781622,60.5 14.3,64 14.3,64" id="Stroke-540"/>
            </g>
        </g>
    </g>
</svg>