<svg width="32" height="32" viewBox="0 0 32 32" fill="none" xmlns="http://www.w3.org/2000/svg">
<path fill-rule="evenodd" clip-rule="evenodd" d="M15.9998 5.33335C10.1088 5.33335 5.33317 10.109 5.33317 16C5.33317 21.8911 10.1088 26.6667 15.9998 26.6667C21.8909 26.6667 26.6665 21.8911 26.6665 16C26.6665 10.109 21.8909 5.33335 15.9998 5.33335ZM2.6665 16C2.6665 8.63622 8.63604 2.66669 15.9998 2.66669C23.3636 2.66669 29.3332 8.63622 29.3332 16C29.3332 23.3638 23.3636 29.3334 15.9998 29.3334C8.63604 29.3334 2.6665 23.3638 2.6665 16ZM20.9426 12.3905C21.4633 12.9112 21.4633 13.7555 20.9426 14.2762L15.6093 19.6095C15.0886 20.1302 14.2444 20.1302 13.7237 19.6095L11.057 16.9428C10.5363 16.4221 10.5363 15.5779 11.057 15.0572C11.5777 14.5365 12.4219 14.5365 12.9426 15.0572L14.6665 16.7811L19.057 12.3905C19.5777 11.8698 20.4219 11.8698 20.9426 12.3905Z" fill="white"/>
</svg>
