<svg width="14" height="14" viewBox="0 0 14 14" fill="none" xmlns="http://www.w3.org/2000/svg">
<path fill-rule="evenodd" clip-rule="evenodd" d="M7.00016 1.66665C4.05464 1.66665 1.66683 4.05446 1.66683 6.99998C1.66683 9.9455 4.05464 12.3333 7.00016 12.3333C9.94568 12.3333 12.3335 9.9455 12.3335 6.99998C12.3335 4.05446 9.94568 1.66665 7.00016 1.66665ZM0.333496 6.99998C0.333496 3.31808 3.31826 0.333313 7.00016 0.333313C10.6821 0.333313 13.6668 3.31808 13.6668 6.99998C13.6668 10.6819 10.6821 13.6666 7.00016 13.6666C3.31826 13.6666 0.333496 10.6819 0.333496 6.99998ZM7.00016 4.33331C7.36835 4.33331 7.66683 4.63179 7.66683 4.99998V6.33331H9.00016C9.36835 6.33331 9.66683 6.63179 9.66683 6.99998C9.66683 7.36817 9.36835 7.66665 9.00016 7.66665H7.66683V8.99998C7.66683 9.36817 7.36835 9.66665 7.00016 9.66665C6.63197 9.66665 6.3335 9.36817 6.3335 8.99998V7.66665H5.00016C4.63197 7.66665 4.3335 7.36817 4.3335 6.99998C4.3335 6.63179 4.63197 6.33331 5.00016 6.33331H6.3335V4.99998C6.3335 4.63179 6.63197 4.33331 7.00016 4.33331Z" fill="#137D60"/>
</svg>
