<?xml version="1.0" encoding="UTF-8"?>
<svg width="26px" height="48px" viewBox="0 0 26 48" version="1.1" xmlns="http://www.w3.org/2000/svg" xmlns:xlink="http://www.w3.org/1999/xlink">
    <!-- Generator: sketchtool 62 (101010) - https://sketch.com -->
    <title>1F616F88-DF23-4B3D-9677-44BDA99BE42D</title>
    <desc>Created with sketchtool.</desc>
    <g id="Live-Watch-Party" stroke="none" stroke-width="1" fill="none" fill-rule="evenodd">
        <g id="01-Live-Watch-Party-Documentary" transform="translate(-91.000000, -3339.000000)" fill="#D4D4D4">
            <g id="Group-7" transform="translate(-1.000000, 1737.000000)">
                <g id="Group-13" transform="translate(81.000000, 1367.000000)">
                    <g id="icon-/-arrow-left" transform="translate(0.000000, 235.000000)">
                        <g id="arrow-right-1" transform="translate(24.000000, 24.000000) scale(-1, 1) translate(-24.000000, -24.000000) translate(10.000000, 0.000000)">
                            <path d="M2.998,48 C2.598,48 2.22,47.844 1.938,47.56 C1.354,46.976 1.354,46.024 1.938,45.438 L23.378,24 L1.938,2.56 C1.654,2.278 1.498,1.9 1.498,1.5 C1.498,1.1 1.654,0.722 1.938,0.44 C2.22,0.156 2.598,0 2.998,0 C3.398,0 3.776,0.156 4.058,0.44 L25.498,21.88 C26.666,23.048 26.668,24.95 25.5,26.118 L4.058,47.56 C3.776,47.844 3.398,48 2.998,48 Z" id="Path" fill-rule="nonzero"></path>
                        </g>
                    </g>
                </g>
            </g>
        </g>
    </g>
</svg>