<svg width="162" height="39" viewBox="0 0 162 39" fill="none" xmlns="http://www.w3.org/2000/svg">
<path fill-rule="evenodd" clip-rule="evenodd" d="M32.1749 10.0062C31.7371 10.1849 31.2521 10.375 30.7354 10.5763C30.2187 10.375 29.7359 10.1849 29.2982 10.0062C25.1872 8.38711 20.9283 7.17478 16.5821 6.38651C20.6885 2.41841 25.8304 0 30.7354 0C35.6404 0 40.7846 2.41841 44.8909 6.38651C40.5447 7.17478 36.2858 8.38711 32.1749 10.0062ZM137.98 16.5058V10.4903C137.548 9.82077 136.957 9.2684 136.261 8.8821C135.565 8.4958 134.785 8.28747 133.989 8.27553C131.304 8.27553 129.747 10.5378 129.747 13.4789C129.747 16.4199 131.304 18.6618 133.989 18.6618C135.697 18.6686 137.276 17.6619 137.98 16.5058ZM137.98 19.5509V17.6121C137.509 18.298 136.88 18.8597 136.145 19.2496C135.411 19.6395 134.594 19.8461 133.763 19.8518C130.55 19.8518 128.348 17.3859 128.348 13.4856C128.348 9.63971 130.557 7.09234 133.763 7.09234C134.596 7.09888 135.416 7.30818 136.15 7.70226C136.885 8.09633 137.513 8.66338 137.98 9.35466V2.76454H139.312V19.5509H137.98ZM69.6123 8.55154V17.2094L69.61 17.2071C69.61 18.8677 70.3885 19.8495 71.9949 19.8495C72.999 19.8495 73.5766 19.5464 74.0527 19.0939L73.5518 18.0872C73.3763 18.2697 73.166 18.415 72.9335 18.5144C72.7009 18.6139 72.4508 18.6656 72.198 18.6663C71.3451 18.6663 70.9435 17.9876 70.9435 17.0058V8.55154H73.4029V7.39323H70.9435V4.07216H69.6123V7.39323H67.6042V8.55154H69.6123ZM104.776 29.6712C104.913 29.6246 105.06 29.6195 105.2 29.6567C105.293 29.6816 105.381 29.7248 105.457 29.7839C105.534 29.843 105.598 29.9168 105.646 30.001C105.694 30.0852 105.725 30.1781 105.737 30.2744C105.749 30.3707 105.742 30.4684 105.716 30.5618C105.678 30.7012 105.599 30.8259 105.49 30.9204C105.38 31.0149 105.246 31.0749 105.103 31.0928C104.96 31.1108 104.814 31.0858 104.685 31.0212C104.556 30.9566 104.449 30.8551 104.378 30.7296C104.306 30.604 104.273 30.4601 104.283 30.3158C104.292 30.1715 104.344 30.0333 104.432 29.9186C104.52 29.8039 104.64 29.7178 104.776 29.6712ZM118.455 31.6C117.957 31.586 117.466 31.7214 117.045 31.9888C116.624 32.2563 116.292 32.6435 116.091 33.1011C115.891 33.5587 115.832 34.0658 115.92 34.5575C116.009 35.0492 116.242 35.5032 116.59 35.8613C116.937 36.2195 117.384 36.4655 117.871 36.568C118.359 36.6705 118.866 36.6247 119.328 36.4365C119.79 36.2483 120.185 35.9263 120.463 35.5117C120.741 35.097 120.89 34.6086 120.889 34.1089C120.895 33.4535 120.642 32.8225 120.186 32.3527C119.731 31.883 119.108 31.6125 118.455 31.6ZM118.455 35.4346C118.19 35.4491 117.927 35.3836 117.7 35.2467C117.473 35.1098 117.292 34.9076 117.181 34.6665C117.069 34.4253 117.033 34.1562 117.076 33.894C117.118 33.6317 117.239 33.3884 117.421 33.1954C117.603 33.0025 117.839 32.8688 118.098 32.8117C118.357 32.7546 118.627 32.7766 118.873 32.875C119.119 32.9734 119.33 33.1436 119.479 33.3635C119.628 33.5835 119.707 33.8432 119.707 34.1089C119.716 34.451 119.589 34.7825 119.354 35.031C119.119 35.2794 118.796 35.4245 118.455 35.4346ZM149.987 36.4739C150.26 36.3599 150.505 36.1883 150.705 35.9708V36.5069H151.443V33.2311C151.443 32.0751 150.606 31.6226 149.604 31.6226C149.25 31.6104 148.897 31.6746 148.569 31.8108C148.241 31.947 147.946 32.1521 147.704 32.4121L148.047 32.9257C148.227 32.7153 148.451 32.5472 148.703 32.433C148.955 32.3189 149.229 32.2616 149.505 32.2651C150.193 32.2651 150.705 32.6293 150.705 33.2718V34.1292C150.507 33.9099 150.262 33.7376 149.989 33.6249C149.716 33.5123 149.421 33.4619 149.126 33.4777C148.32 33.4777 147.463 34.0048 147.463 35.0477C147.463 36.0907 148.32 36.6314 149.126 36.6314C149.421 36.6416 149.715 36.5879 149.987 36.4739ZM150.121 34.162C150.348 34.2646 150.548 34.4192 150.705 34.6134V35.5115C150.549 35.707 150.349 35.8626 150.122 35.9656C149.894 36.0686 149.646 36.1162 149.397 36.1042C148.708 36.1042 148.226 35.6789 148.226 35.0681C148.226 34.4573 148.72 34.0229 149.397 34.0229C149.646 34.0118 149.894 34.0595 150.121 34.162ZM126.521 31.6294C126.857 31.6125 127.191 31.6796 127.495 31.8245C127.799 31.9694 128.062 32.1877 128.26 32.4597L127.769 32.9121C127.636 32.7146 127.455 32.5541 127.244 32.4457C127.032 32.3373 126.797 32.2845 126.559 32.2922C125.546 32.2922 124.917 33.0705 124.917 34.127C124.917 35.1835 125.546 35.9708 126.559 35.9708C126.796 35.976 127.031 35.9221 127.242 35.8139C127.453 35.7057 127.634 35.5466 127.769 35.3509L128.26 35.8034C128.061 36.0749 127.798 36.2928 127.495 36.4373C127.191 36.5818 126.856 36.6485 126.521 36.6314C125.104 36.6314 124.149 35.5477 124.149 34.127C124.149 32.7062 125.104 31.6294 126.521 31.6294ZM128.833 34.127C128.833 32.7447 129.736 31.6384 131.184 31.6384C132.633 31.6384 133.538 32.7538 133.538 34.127C133.538 35.5002 132.635 36.6314 131.184 36.6314C129.734 36.6314 128.833 35.507 128.833 34.127ZM132.759 34.127C132.759 33.1587 132.2 32.2923 131.18 32.2923C130.16 32.2923 129.601 33.1587 129.601 34.127C129.601 35.0953 130.171 35.9708 131.18 35.9708C132.188 35.9708 132.748 35.1043 132.748 34.127H132.759ZM139.39 32.2923C140 32.2923 140.266 32.6768 140.266 33.2786V36.5137H141.004V33.0705C141.004 32.1135 140.541 31.6294 139.675 31.6294C139.358 31.6405 139.048 31.7269 138.771 31.8815C138.494 32.0361 138.258 32.2544 138.082 32.5185C137.944 32.0253 137.531 31.6294 136.802 31.6294C136.503 31.644 136.211 31.7241 135.946 31.864C135.681 32.0039 135.449 32.2003 135.268 32.4393V31.7493H134.528V36.5137H135.268V33.032C135.407 32.8221 135.591 32.6464 135.807 32.5182C136.023 32.3901 136.266 32.3128 136.516 32.2923C137.136 32.2923 137.391 32.6768 137.391 33.2786V36.5137H138.131V33.0207C138.273 32.8118 138.459 32.6376 138.677 32.5115C138.895 32.3853 139.139 32.3103 139.39 32.2923ZM142.283 38.3304V31.7493H143.02V32.4597C143.203 32.204 143.444 31.9955 143.723 31.8511C144.002 31.7068 144.311 31.6308 144.625 31.6294C145.875 31.6294 146.739 32.5773 146.739 34.1179C146.739 35.6586 145.875 36.6223 144.625 36.6223C144.31 36.6231 143.999 36.5474 143.72 36.4016C143.44 36.2558 143.2 36.0443 143.02 35.7853V38.3213L142.283 38.3304ZM144.437 32.2923C144.158 32.2964 143.884 32.3674 143.637 32.4992C143.391 32.631 143.179 32.8199 143.02 33.0501V35.2016C143.179 35.4333 143.39 35.6238 143.636 35.7576C143.883 35.8913 144.157 35.9644 144.437 35.9708C145.392 35.9708 145.963 35.1812 145.963 34.127C145.963 33.0727 145.392 32.2923 144.437 32.2923ZM155.931 33.3963C155.931 32.5569 155.506 32.2923 154.868 32.2923C154.593 32.3018 154.324 32.3732 154.08 32.5013C153.836 32.6294 153.624 32.8107 153.46 33.032V36.5137H152.722V31.7493H153.46V32.4393C153.672 32.1955 153.931 31.9979 154.222 31.8586C154.513 31.7193 154.83 31.6413 155.152 31.6294C156.147 31.6294 156.668 32.1339 156.668 33.17V36.5137H155.931V33.3963ZM158.648 37.6642C158.519 37.7564 158.361 37.8 158.203 37.7874C158.064 37.7832 157.927 37.7533 157.799 37.6992L157.681 38.3779C157.858 38.4225 158.04 38.446 158.223 38.448C158.529 38.4608 158.83 38.3734 159.082 38.1992C159.334 38.0249 159.523 37.7732 159.62 37.482L162 31.7493H161.194L159.615 35.6563L158.036 31.7493H157.239L159.227 36.5635L158.911 37.2829C158.871 37.437 158.778 37.572 158.648 37.6642ZM104.351 31.7086V36.2716V36.4798H104.559H105.464H105.671V36.2716V31.7086H104.351ZM114.958 31.5955C115.159 31.5937 115.359 31.6195 115.553 31.6724L115.558 31.6633C115.707 31.704 115.842 31.747 115.969 31.7923L115.854 32.0547L115.77 32.247L115.472 32.9257H115.454C115.262 32.8284 115.049 32.7815 114.833 32.7894C114.618 32.7973 114.409 32.8598 114.224 32.9709C114.132 33.0368 114.057 33.1241 114.006 33.2253C113.954 33.3266 113.928 33.4387 113.929 33.5524V36.4798H112.609V36.2694L112.589 31.6995H113.618L113.636 32.3058C113.731 32.1267 113.872 31.976 114.044 31.8692C114.172 31.7773 114.315 31.7084 114.466 31.6656C114.594 31.6252 114.727 31.6016 114.861 31.5955H114.958ZM99.4756 31.7086L98.6024 34.3849L97.7902 31.704H96.468L97.9459 36.4798H99.0311L100.022 33.5116L101.012 36.4798H102.097L103.575 31.704H102.253L101.441 34.3849L100.561 31.7086H99.4756ZM108.585 31.796C108.841 31.6639 109.125 31.5959 109.412 31.5977C110.68 31.5977 111.707 32.7289 111.707 34.1089C111.707 35.4889 110.68 36.6201 109.412 36.6201C108.966 36.5988 108.534 36.4591 108.16 36.2151V39H106.84V31.7108H107.943V32.3579C108.109 32.1212 108.329 31.9284 108.585 31.796ZM108.549 35.2732C108.775 35.4101 109.037 35.4758 109.302 35.4617C109.643 35.4517 109.966 35.3065 110.201 35.0581C110.435 34.8097 110.562 34.4781 110.554 34.136C110.553 33.8709 110.474 33.612 110.325 33.3927C110.177 33.1735 109.966 33.0039 109.72 32.906C109.474 32.808 109.205 32.7862 108.947 32.8433C108.689 32.9004 108.453 33.0338 108.272 33.2263C108.09 33.4188 107.97 33.6615 107.927 33.9231C107.884 34.1847 107.92 34.4532 108.031 34.6938C108.142 34.9345 108.322 35.1363 108.549 35.2732ZM92.734 35.9708C92.5337 36.1884 92.2889 36.3601 92.0163 36.4741C91.7437 36.5881 91.4498 36.6418 91.1546 36.6314C90.3469 36.6314 89.4918 36.0907 89.4918 35.0477C89.4918 34.0048 90.3469 33.4777 91.1546 33.4777C91.4496 33.4618 91.7445 33.512 92.0177 33.6247C92.2909 33.7374 92.5356 33.9098 92.734 34.1292V33.2718C92.734 32.6293 92.2241 32.2651 91.5337 32.2651C91.2576 32.2613 90.9841 32.3185 90.7326 32.4326C90.481 32.5468 90.2577 32.7152 90.0784 32.9257L89.7332 32.4121C89.9752 32.1521 90.27 31.947 90.5977 31.8108C90.9254 31.6746 91.2784 31.6104 91.633 31.6226C92.637 31.6226 93.4718 32.0751 93.4718 33.2311V36.5069H92.734V35.9708ZM92.734 34.6134C92.5772 34.4192 92.3771 34.2646 92.1498 34.162C91.9225 34.0595 91.6744 34.0118 91.4254 34.0229C90.7372 34.0229 90.2544 34.4573 90.2544 35.0681C90.2544 35.6789 90.7372 36.1042 91.4254 36.1042C91.6747 36.1162 91.9233 36.0687 92.1508 35.9656C92.3783 35.8626 92.5781 35.707 92.734 35.5115V34.6134ZM85.3249 13.4608C85.3249 10.7663 83.7455 8.27554 80.8822 8.27554C78.0709 8.27554 76.4644 10.7641 76.4644 13.4608C76.4644 16.1574 78.0709 18.6641 80.8822 18.6641C83.7432 18.6641 85.3249 16.1755 85.3249 13.4608ZM75.0587 13.4608C75.0587 9.91119 77.3443 7.09235 80.8822 7.09235C84.472 7.09235 86.7305 9.91119 86.7305 13.4608C86.7305 17.0103 84.4742 19.8518 80.8822 19.8518C77.3443 19.8518 75.0587 17.0081 75.0587 13.4608ZM94.8865 8.27554C97.5986 8.27554 99.1284 10.5198 99.1284 13.4608V13.4653C99.1284 16.4063 97.5941 18.6686 94.8865 18.6686C94.093 18.6482 93.3161 18.4362 92.6217 18.0507C91.9272 17.6651 91.3358 17.1173 90.8974 16.4538V10.4383C91.5991 9.28227 93.2056 8.27554 94.8865 8.27554ZM90.8974 24.1864V17.5963C91.3667 18.2855 91.9948 18.851 92.7286 19.2448C93.4623 19.6387 94.28 19.8492 95.1122 19.8586C98.3432 19.8586 100.527 17.37 100.527 13.4675C100.527 9.56506 98.3522 7.09914 95.1122 7.09914C94.2847 7.10597 93.4707 7.31045 92.7377 7.69561C92.0048 8.08078 91.3739 8.63555 90.8974 9.31394V7.39323H89.591V24.1864H90.8974ZM102.616 13.4608C102.616 9.91119 104.951 7.09235 108.516 7.09235C110.624 7.09235 111.829 7.92262 112.803 9.15558L111.901 9.96096C111.536 9.42143 111.04 8.9837 110.461 8.68888C109.881 8.39406 109.236 8.25183 108.586 8.27554C105.75 8.27554 104.017 10.5379 104.017 13.4608C104.017 16.3837 105.75 18.6641 108.586 18.6641C109.239 18.6852 109.887 18.5397 110.469 18.2414C111.05 17.943 111.547 17.5016 111.912 16.9583L112.815 17.7637C111.835 19.0215 110.631 19.8518 108.528 19.8518C104.963 19.8518 102.627 17.0081 102.627 13.4608H102.616ZM120.33 8.27554C123.193 8.27554 124.773 10.7663 124.773 13.4608C124.773 16.1755 123.191 18.6641 120.33 18.6641C117.519 18.6641 115.912 16.1574 115.912 13.4608C115.912 10.7641 117.519 8.27554 120.33 8.27554ZM120.33 7.09235C116.79 7.09235 114.506 9.91119 114.506 13.4608C114.506 17.0081 116.79 19.8518 120.33 19.8518C123.922 19.8518 126.178 17.0103 126.178 13.4608C126.178 9.91119 123.92 7.09235 120.33 7.09235ZM143.603 12.8567C143.706 10.7425 145.131 8.22834 147.989 8.22577C151.025 8.22834 152.377 10.7923 152.402 12.8567H143.603ZM147.989 8.22577L147.993 8.22577H147.984L147.989 8.22577ZM148.011 7.09235C144.645 7.09235 142.163 9.93608 142.163 13.4608H142.172C142.172 17.2094 144.706 19.8518 148.246 19.8518C150.25 19.8518 151.779 19.1482 152.984 17.8904L152.307 17.0329C151.8 17.5758 151.185 18.0064 150.502 18.2971C149.819 18.5877 149.083 18.732 148.341 18.7206C145.484 18.7206 143.727 16.5307 143.603 13.8883H153.733V13.5354C153.733 10.0334 151.7 7.09235 148.011 7.09235ZM156.603 19.5509V7.39549H157.907V9.48361C158.936 8.12622 160.317 7.14211 162 7.14211V8.57642C161.785 8.53419 161.565 8.51749 161.346 8.52665C160.116 8.52665 158.46 9.63518 157.907 10.6917V19.5509H156.603ZM29.2042 11.3862L29.1659 11.3704L28.5634 11.1238L27.9678 10.8976L27.8888 10.8681L27.8459 10.85C27.6474 10.7731 27.4443 10.6962 27.239 10.6238H27.2254L27.142 10.5944L26.544 10.3682L26.4696 10.341L25.8062 10.1148L25.7385 10.0922L25.6912 10.0763C25.2264 9.91798 24.751 9.76188 24.2652 9.60804L24.2088 9.5922H24.1794L23.4371 9.36597L23.4033 9.35466H23.3807C22.8685 9.20082 22.3451 9.04925 21.8148 8.9022L21.7652 8.88862C21.2259 8.74157 20.6822 8.59679 20.1339 8.46105H20.1136L19.2765 8.2597C18.7147 8.12849 18.1483 8.00406 17.5888 7.88416H17.5639C16.9976 7.76652 16.4358 7.65793 15.8672 7.55612C12.2102 11.0777 9.6398 15.5789 8.46202 20.5237L8.40787 20.7499C9.99821 20.8168 11.4654 19.9946 12.0146 19.6869L12.0879 19.6459C18.2002 16.223 25.6483 12.4405 30.0233 11.7482L29.2245 11.436L29.2042 11.3862ZM14.5024 7.13081C10.8754 10.6601 8.34028 15.1633 7.20105 20.1006V20.0893C7.20105 20.0893 7.18751 20.1821 7.16721 20.3337C7.1469 20.4852 7.1469 20.5599 7.1469 20.5599C6.197 20.5192 5.20422 19.931 4.33555 18.9559C1.17221 15.4018 -0.673447 11.8025 0.229074 9.41121C1.5084 6.02679 7.7561 5.92047 14.5024 7.13081ZM32.2471 11.3862L32.2877 11.3704L32.8834 11.1306L33.4813 10.9043L33.558 10.8749L33.6031 10.8568C33.8017 10.7799 34.0025 10.703 34.2078 10.6306H34.2236L34.3048 10.6012L34.9028 10.375L34.9772 10.3478L35.6541 10.1216L35.7218 10.099L35.7669 10.0831C36.2317 9.92477 36.7078 9.76867 37.1952 9.61483L37.2516 9.59899H37.2809C37.5245 9.52212 37.7725 9.4475 38.0205 9.37289L38.021 9.37276L38.0571 9.36145H38.0774C38.5918 9.20761 39.1153 9.05604 39.6433 8.90899H39.6568L39.7132 8.86148C40.2502 8.71443 40.7962 8.56964 41.3445 8.4339H41.3648L42.1997 8.23256C42.7592 8.10134 43.3278 7.97691 43.8874 7.85701H43.9122C44.4785 7.73937 45.0403 7.63078 45.6067 7.52898C49.266 11.0408 51.8412 15.5335 53.0254 20.4717L53.0796 20.6979C51.4851 20.7651 50.0106 19.9361 49.4683 19.6312L49.4018 19.5939C43.2895 16.171 35.8414 12.3884 31.4664 11.6962L32.2629 11.384L32.2471 11.3862ZM46.9508 7.13083C50.5779 10.6597 53.1124 15.1632 54.2499 20.1007V20.0894C54.2499 20.0894 54.2679 20.1821 54.286 20.3337C54.304 20.4853 54.304 20.5599 54.304 20.5599C55.2539 20.5192 56.249 19.931 57.1154 18.9559C60.2787 15.4018 62.1244 11.8002 61.2218 9.41124C59.9448 6.02682 53.6948 5.92275 46.9508 7.13083Z" fill="white"/>
</svg>
