<?xml version="1.0" encoding="UTF-8"?>
<svg width="43px" height="16px" viewBox="0 0 43 16" version="1.1" xmlns="http://www.w3.org/2000/svg" xmlns:xlink="http://www.w3.org/1999/xlink">
    <!-- Generator: sketchtool 58 (101010) - https://sketch.com -->
    <title>C753E9D4-264C-4E3E-89E3-46D1C7405FBC</title>
    <desc>Created with sketchtool.</desc>
    <g id="EDU-Center" stroke="none" stroke-width="1" fill="none" fill-rule="evenodd">
        <g id="D01_1_Homepage" transform="translate(-132.000000, -2412.000000)" fill="#FFFFFF" fill-rule="nonzero">
            <g id="Group-16" transform="translate(120.000000, 2387.000000)">
                <g id="TOPCODER-LOGO" transform="translate(12.000000, 25.000000)">
                    <path d="M42.7849594,6.86495726 C41.6084093,3.66495726 36.3406737,3.82905983 31.9553506,4.59487179 L31.9553506,4.59487179 L31.9553506,4.59487179 C28.826797,1.66837607 25.0564887,-4.54747351e-13 21.5000987,-4.54747351e-13 C17.9704484,-4.54747351e-13 14.2001402,1.66837607 11.0715865,4.62222222 L11.0448467,4.62222222 L11.0448467,4.62222222 C6.68626346,3.88376068 1.41852783,3.71965812 0.21523797,6.86495726 C-0.747393921,9.49059829 1.73940513,12.9094017 3.31705184,14.6871795 C3.79836779,15.2615385 4.38664283,15.6444444 5.0551372,15.8358974 L5.02839742,15.9452991 L5.88407022,15.9726496 C5.88407022,15.9726496 5.91080999,15.9726496 5.91080999,15.9726496 L6.49908504,16 L6.52582481,15.9452991 C7.5954158,15.8358974 8.47782837,15.3435897 8.90566476,15.0974359 L9.01262386,15.042735 C14.6547163,11.7880342 18.9598201,9.84615385 21.4466191,9.38119658 L21.5000987,9.40854701 L21.5535782,9.38119658 C24.0403773,9.84615385 28.345481,11.8153846 34.0143133,15.042735 L34.0945326,15.0974359 C34.4956292,15.3162393 35.3245622,15.7811966 36.3406737,15.9179487 L36.3406737,15.9726496 L37.0359078,15.9452991 C37.0359078,15.9452991 37.0359078,15.9452991 37.0359078,15.9452991 C37.0359078,15.9452991 37.0359078,15.9452991 37.0359078,15.9452991 L37.9450601,15.8905983 L37.9183204,15.7811966 C38.560075,15.5897436 39.1216102,15.2068376 39.629666,14.6598291 C41.2607922,12.9094017 43.7475913,9.49059829 42.7849594,6.86495726 Z M29.9498675,5.00512821 C29.4952913,5.11452991 29.0674549,5.22393162 28.6128788,5.33333333 L28.5593992,5.33333333 L28.2385219,5.41538462 C27.9443844,5.4974359 27.6769866,5.57948718 27.4095889,5.63418803 L27.3561093,5.63418803 L26.206299,5.96239316 L26.1528195,5.96239316 L26.0458604,5.98974359 C25.9389013,6.01709402 25.858682,6.04444444 25.7517229,6.07179487 C25.6982433,6.0991453 25.6447638,6.0991453 25.5912842,6.12649573 L25.5110649,6.12649573 L25.4041058,6.15384615 C25.0832285,6.26324786 24.7623512,6.34529915 24.4414739,6.48205128 C24.3345148,6.50940171 24.2542955,6.53675214 24.2008159,6.56410256 L23.9066784,6.67350427 C23.7997193,6.7008547 23.7195,6.72820513 23.6660204,6.78290598 C23.6392807,6.78290598 23.6125409,6.81025641 23.5590613,6.81025641 C23.5055818,6.83760684 23.4253625,6.86495726 23.3718829,6.89230769 C23.3184034,6.91965812 23.2916636,6.91965812 23.238184,6.94700855 C23.1312249,6.97435897 23.0510056,7.02905983 22.9440465,7.05641026 C22.8638272,7.08376068 22.7836079,7.11111111 22.7033885,7.13846154 C22.649909,7.16581197 22.6231692,7.16581197 22.5696897,7.19316239 C22.4894703,7.22051282 22.409251,7.24786325 22.3290317,7.27521368 C22.2755521,7.3025641 22.1953328,7.32991453 22.1418533,7.35726496 C22.1151135,7.35726496 22.0883737,7.38461538 22.0616339,7.38461538 L21.9814146,7.38461538 L21.4733589,7.65811966 L21.2059611,7.57606838 C21.2059611,7.57606838 21.2059611,7.57606838 21.2059611,7.57606838 C21.1792214,7.54871795 21.1524816,7.54871795 21.1257418,7.54871795 L21.1524816,7.49401709 C21.0722623,7.46666667 20.992043,7.43931624 20.9118236,7.41196581 C20.8583441,7.38461538 20.7781248,7.35726496 20.7246452,7.32991453 C20.6444259,7.3025641 20.5642066,7.27521368 20.4839872,7.24786325 C20.4305077,7.22051282 20.4037679,7.22051282 20.3502884,7.19316239 C20.270069,7.13846154 20.1898497,7.11111111 20.1096304,7.11111111 C20.0294111,7.08376068 19.922452,7.02905983 19.8154929,7.0017094 C19.7620133,6.97435897 19.7352735,6.94700855 19.681794,6.94700855 C19.6283144,6.91965812 19.5480951,6.89230769 19.4946156,6.86495726 C19.4678758,6.86495726 19.4143962,6.83760684 19.3876565,6.83760684 C19.3074371,6.78290598 19.2272178,6.75555556 19.1202587,6.72820513 L18.7993814,6.61880342 C18.7459019,6.59145299 18.6656825,6.56410256 18.5854632,6.53675214 C18.2645859,6.4 17.9169689,6.29059829 17.5960916,6.20854701 L17.4891325,6.18119658 L17.3821734,6.18119658 C17.3286938,6.15384615 17.2752143,6.15384615 17.2217347,6.12649573 C17.1415154,6.0991453 17.0345563,6.07179487 16.954337,6.04444444 L16.8473779,5.96239316 L16.7938983,5.96239316 L15.6708278,5.63418803 L15.6173482,5.63418803 C15.5371289,5.60683761 15.4569096,5.60683761 15.3766903,5.57948718 C15.3499505,5.57948718 15.3232107,5.55213675 15.2964709,5.55213675 C15.0825527,5.4974359 14.8686345,5.44273504 14.6547163,5.38803419 L14.6547163,5.38803419 L14.574497,5.36068376 L14.574497,5.36068376 C14.5210175,5.36068376 14.4942777,5.33333333 14.4407981,5.33333333 C14.3873186,5.30598291 14.333839,5.30598291 14.2536197,5.27863248 L14.2536197,5.30598291 C14.1734004,5.27863248 14.1199208,5.27863248 14.0397015,5.25128205 L13.9060026,5.22393162 C13.9060026,5.22393162 13.8792629,5.22393162 13.8792629,5.22393162 L13.8792629,5.1965812 C13.6920844,5.16923077 13.504906,5.11452991 13.3444674,5.08717949 C13.264248,5.05982906 13.1572889,5.05982906 13.0770696,5.03247863 C15.7243073,2.84444444 18.7191621,1.64102564 21.5000987,1.64102564 C24.3345148,1.64102564 27.3293696,2.84444444 29.9498675,5.00512821 Z M4.5203417,13.6205128 C2.3009404,11.1042735 1.25808918,8.75213675 1.71266536,7.46666667 C2.11376198,6.37264957 3.74488824,5.7982906 6.31190661,5.7982906 C7.30127828,5.7982906 8.42434882,5.88034188 9.68111823,6.04444444 C9.41372048,6.37264957 9.14632274,6.7008547 8.87892499,7.02905983 C8.85218521,7.08376068 8.79870566,7.13846154 8.77196589,7.19316239 C8.66500679,7.32991453 8.58478747,7.43931624 8.47782837,7.57606838 C8.42434882,7.63076923 8.39760904,7.68547009 8.34412949,7.76752137 C8.26391017,7.9042735 8.15695107,8.01367521 8.07673175,8.15042735 C8.04999197,8.20512821 7.99651242,8.25982906 7.96977265,8.31452991 C7.86281355,8.47863248 7.75585445,8.64273504 7.64889535,8.80683761 C7.64889535,8.83418803 7.62215558,8.83418803 7.62215558,8.86153846 C7.51519648,9.05299145 7.40823738,9.24444444 7.2745385,9.43589744 C7.24779873,9.49059829 7.22105895,9.54529915 7.19431918,9.6 C7.11409986,9.73675214 7.03388053,9.87350427 6.95366121,10.0376068 C6.92692143,10.0923077 6.87344188,10.174359 6.84670211,10.2290598 C6.76648278,10.365812 6.71300323,10.5025641 6.63278391,10.6393162 C6.60604413,10.6940171 6.57930436,10.7760684 6.55256459,10.8307692 C6.47234526,10.9948718 6.41886571,11.1316239 6.33864639,11.2957265 C6.31190661,11.3504274 6.31190661,11.3777778 6.28516684,11.4324786 C6.20494751,11.6239316 6.12472819,11.842735 6.04450887,12.034188 C6.01776909,12.0888889 6.01776909,12.1162393 5.99102932,12.1709402 C5.93754977,12.3350427 5.85733044,12.4991453 5.80385089,12.6632479 C5.77711112,12.7452991 5.75037134,12.8 5.72363157,12.8820513 C5.67015202,13.0188034 5.61667247,13.1555556 5.58993269,13.3196581 C5.56319292,13.4017094 5.53645314,13.4564103 5.53645314,13.5384615 C5.4829736,13.7025641 5.45623382,13.8393162 5.40275427,14.0034188 C5.3760145,14.0581197 5.3760145,14.1128205 5.34927472,14.1948718 C5.34927472,14.2222222 5.34927472,14.2495726 5.32253495,14.2495726 C5.0551372,14.1128205 4.76099968,13.9213675 4.5203417,13.6205128 Z M8.23717039,13.6478632 L8.1302113,13.7025641 C7.9162931,13.8393162 7.51519648,14.0581197 7.03388053,14.1948718 C7.06062031,14.1401709 7.06062031,14.0854701 7.08736008,14.0307692 C7.11409986,13.9487179 7.14083963,13.8666667 7.1675794,13.8119658 C7.19431918,13.6752137 7.24779873,13.565812 7.2745385,13.4290598 C7.30127828,13.3470085 7.32801805,13.2923077 7.35475783,13.2102564 C7.40823738,13.0735043 7.46171693,12.9367521 7.4884567,12.8273504 C7.51519648,12.7726496 7.54193625,12.6905983 7.56867603,12.6358974 C7.64889535,12.4717949 7.7023749,12.2803419 7.78259422,12.1162393 C7.78259422,12.0888889 7.78259422,12.0888889 7.809334,12.0615385 C7.88955332,11.8700855 7.96977265,11.6786325 8.04999197,11.4871795 C8.07673175,11.4324786 8.10347152,11.3777778 8.1302113,11.3230769 C8.18369085,11.1863248 8.26391017,11.0769231 8.31738972,10.9401709 C8.34412949,10.8581197 8.39760904,10.8034188 8.42434882,10.7213675 C8.47782837,10.6119658 8.55804769,10.5025641 8.61152724,10.365812 C8.63826702,10.2837607 8.69174657,10.2290598 8.71848634,10.1470085 C8.77196589,10.0376068 8.85218521,9.92820513 8.90566476,9.81880342 C8.95914431,9.73675214 8.98588409,9.68205128 9.03936364,9.6 C9.11958296,9.49059829 9.17306251,9.38119658 9.25328184,9.27179487 C9.30676138,9.21709402 9.33350116,9.13504274 9.38698071,9.08034188 C9.46720003,8.94358974 9.57415913,8.80683761 9.65437846,8.67008547 C9.68111823,8.64273504 9.70785801,8.58803419 9.73459778,8.56068376 C9.84155688,8.3965812 9.97525575,8.23247863 10.1089546,8.06837607 C10.1356944,8.01367521 10.189174,7.98632479 10.2159137,7.93162393 C10.2961331,7.82222222 10.4030921,7.68547009 10.5100512,7.57606838 C10.5635308,7.52136752 10.6170103,7.46666667 10.6704899,7.38461538 C10.7507092,7.27521368 10.8309285,7.19316239 10.9378876,7.08376068 C10.9913672,7.02905983 11.0448467,6.94700855 11.0983263,6.89230769 C11.1785456,6.78290598 11.2587649,6.7008547 11.365724,6.61880342 C11.4192036,6.56410256 11.4726831,6.50940171 11.5261627,6.42735043 C11.5529025,6.4 11.5796422,6.37264957 11.6331218,6.31794872 C11.9005195,6.37264957 12.1679173,6.42735043 12.435315,6.48205128 C12.4620548,6.48205128 12.4887946,6.48205128 12.5155344,6.50940171 C12.7027128,6.53675214 12.8631514,6.59145299 13.0503298,6.61880342 C13.2107685,6.64615385 13.3712071,6.7008547 13.5583856,6.72820513 C13.6653447,6.75555556 13.745564,6.78290598 13.8525231,6.81025641 C13.9327424,6.83760684 13.986222,6.83760684 14.0664413,6.86495726 C15.7510471,7.27521368 17.4356529,7.79487179 18.9865598,8.36923077 C16.2591028,9.35384615 12.675973,11.0769231 8.23717039,13.6478632 Z M34.7897667,13.6478632 C30.3242243,11.0769231 26.7678343,9.35384615 24.1205966,8.42393162 C25.618024,7.87692308 27.27589,7.35726496 28.9604958,6.94700855 C29.0941947,6.91965812 29.2278936,6.89230769 29.3348527,6.86495726 L29.4418118,6.83760684 C29.65573,6.78290598 29.8429084,6.75555556 30.0568266,6.7008547 C30.244005,6.64615385 30.4311834,6.61880342 30.6183619,6.56410256 C30.9124994,6.50940171 31.1798971,6.45470085 31.4472949,6.4 C31.4740347,6.42735043 31.5007744,6.45470085 31.554254,6.50940171 C31.6077335,6.56410256 31.6612131,6.61880342 31.7146926,6.7008547 C31.7949119,6.78290598 31.901871,6.89230769 31.9820904,6.97435897 C32.0355699,7.02905983 32.0890495,7.08376068 32.142529,7.16581197 C32.2227483,7.27521368 32.3029677,7.35726496 32.4099268,7.46666667 C32.4634063,7.52136752 32.5168859,7.57606838 32.5436256,7.63076923 C32.6505847,7.74017094 32.7308041,7.87692308 32.8377632,7.98632479 C32.8645029,8.04102564 32.9179825,8.06837607 32.9447223,8.12307692 C33.0784211,8.28717949 33.1853802,8.45128205 33.3190791,8.61538462 C33.3458189,8.64273504 33.3458189,8.67008547 33.3725587,8.6974359 C33.4795178,8.83418803 33.5597371,8.97094017 33.6666962,9.13504274 C33.693436,9.18974359 33.7469155,9.24444444 33.7736553,9.2991453 C33.8538746,9.40854701 33.9340939,9.51794872 33.9875735,9.65470085 C34.041053,9.70940171 34.0677928,9.79145299 34.1212724,9.84615385 C34.1747519,9.95555556 34.2549712,10.0649573 34.3084508,10.174359 C34.3351906,10.2564103 34.3886701,10.3111111 34.4154099,10.3931624 C34.4688894,10.5025641 34.5491087,10.6119658 34.6025883,10.7487179 C34.6293281,10.8307692 34.6828076,10.8854701 34.7095474,10.9675214 C34.7630269,11.1042735 34.8432463,11.2136752 34.8967258,11.3504274 C34.9234656,11.4051282 34.9502054,11.4598291 34.9769451,11.5418803 C35.0571645,11.7333333 35.1373838,11.8974359 35.2176031,12.0888889 C35.2176031,12.0888889 35.2176031,12.1162393 35.2176031,12.1162393 C35.2978224,12.3076923 35.3780418,12.4991453 35.4582611,12.6905983 C35.4850009,12.7452991 35.5117406,12.8 35.5117406,12.8547009 C35.5652202,12.991453 35.6186997,13.1282051 35.6721793,13.2649573 C35.6989191,13.3470085 35.7256588,13.4017094 35.7523986,13.4837607 C35.8058782,13.6205128 35.8326179,13.7299145 35.8860975,13.8666667 C35.9128373,13.9487179 35.939577,14.0307692 35.9663168,14.0854701 C35.9930566,14.1401709 35.9930566,14.1948718 36.0197964,14.2495726 C35.5384804,14.0854701 35.1373838,13.8666667 34.9234656,13.757265 L34.7897667,13.6478632 Z M37.6509226,14.2222222 C37.6509226,14.1948718 37.6509226,14.1948718 37.6241828,14.1675214 C37.5974431,14.1128205 37.5974431,14.0581197 37.5707033,14.0034188 C37.5172237,13.8393162 37.490484,13.6752137 37.4370044,13.5111111 C37.4102646,13.4290598 37.3835249,13.374359 37.3835249,13.2923077 C37.3300453,13.1555556 37.3033055,12.991453 37.249826,12.8547009 C37.2230862,12.7726496 37.1963464,12.7179487 37.1696067,12.6358974 C37.1161271,12.4717949 37.0626476,12.3076923 37.009168,12.1709402 C36.9824283,12.1162393 36.9824283,12.0615385 36.9556885,12.034188 C36.8754692,11.842735 36.7952498,11.6239316 36.7150305,11.4324786 C36.6882907,11.3777778 36.6882907,11.3504274 36.661551,11.2957265 C36.5813316,11.1316239 36.5278521,10.9675214 36.4476328,10.8307692 C36.420893,10.7760684 36.3941532,10.6940171 36.3406737,10.6393162 C36.2871941,10.5025641 36.2069748,10.365812 36.1534952,10.2290598 C36.1267555,10.1470085 36.0732759,10.0923077 36.0465361,10.0102564 C35.9663168,9.87350427 35.9128373,9.73675214 35.8326179,9.6 C35.8058782,9.54529915 35.7791384,9.49059829 35.7523986,9.43589744 C35.6454395,9.24444444 35.5384804,9.05299145 35.4315213,8.86153846 C35.4315213,8.83418803 35.4047815,8.83418803 35.4047815,8.80683761 C35.2978224,8.64273504 35.1908633,8.47863248 35.0839042,8.31452991 C35.0571645,8.25982906 35.0036849,8.20512821 34.9769451,8.15042735 C34.8967258,8.01367521 34.8165065,7.9042735 34.7095474,7.76752137 C34.6560678,7.71282051 34.6293281,7.63076923 34.5758485,7.57606838 C34.4956292,7.43931624 34.3886701,7.32991453 34.3084508,7.19316239 C34.2549712,7.13846154 34.2282315,7.08376068 34.1747519,7.02905983 C34.041053,6.86495726 33.9340939,6.7008547 33.8003951,6.53675214 C33.8003951,6.53675214 33.7736553,6.50940171 33.7736553,6.50940171 C33.6399564,6.34529915 33.5062575,6.20854701 33.3992984,6.04444444 C37.8113613,5.41538462 40.806216,5.93504274 41.3677513,7.43931624 L41.3677513,7.43931624 C41.8490673,8.72478632 40.7527365,11.0769231 38.560075,13.5931624 C38.2124579,13.8940171 37.9450601,14.1128205 37.6509226,14.2222222 Z" id="Shape"></path>
                </g>
            </g>
        </g>
    </g>
</svg>