<?xml version="1.0" encoding="UTF-8" standalone="no"?>
<svg width="109px" height="81px" viewBox="0 0 109 81" version="1.1" xmlns="http://www.w3.org/2000/svg" xmlns:xlink="http://www.w3.org/1999/xlink">
    <!-- Generator: sketchtool 50.2 (55047) - http://www.bohemiancoding.com/sketch -->
    <title>Topcoder Open 2019</title>
    <desc>Created with sketchtool.</desc>
    <defs></defs>
    <g id="Symbols" stroke="none" stroke-width="1" fill="none" fill-rule="evenodd">
        <g id="bottom-section" transform="translate(-181.000000, -973.000000)">
            <g id="Footer">
                <g transform="translate(0.000000, 923.000000)">
                    <g id="Group-12" transform="translate(181.000000, 50.000000)">
                        <g id="TCO19logo/white">
                            <g id="TCO19-Logo-on-WHite">
                                <g id="Group" transform="translate(10.000000, 0.000000)" fill-rule="nonzero">
                                    <path d="M12.9191489,18.3866667 C23.8723404,18.8533333 26.6808511,23.9866667 37.4468085,29.8666667 C48.212766,35.7466667 56.4042553,23.1933333 56.4042553,23.1933333 C48.212766,27.2533333 39.8808511,20.16 32.906383,15.4 C38.1957447,11.76 43.6255319,12.9266667 43.6255319,12.9266667 C25.6510638,2.61333333 12.9191489,18.3866667 12.9191489,18.3866667" id="Shape" fill="#5B8C19"></path>
                                    <path d="M35.387234,2.28666667 C35.2,2.38 35.012766,2.47333333 34.8255319,2.52 C34.8255319,2.52 34.7787234,2.52 34.7787234,2.56666667 C33.6553191,3.12666667 32.5319149,3.78 31.3617021,4.52666667 C47.4170213,4.80666667 54.6723404,14.1866667 62.3489362,20.6266667 C77.9829787,33.7866667 87.6255319,23.9866667 87.6255319,23.9866667 C77.2340426,22.4466667 72.0382979,14.14 56.4510638,4.34 C54.6723404,3.22 52.893617,2.38 51.2553191,1.77333333 C51.2553191,1.77333333 51.2085106,1.77333333 51.2085106,1.77333333 C51.0212766,1.72666667 50.8340426,1.63333333 50.6468085,1.58666667 C48.6340426,0.886666667 46.2,0.373333333 43.4382979,0.42 C43.2510638,0.42 43.1106383,0.42 42.9234043,0.42 C42.7361702,0.42 42.5957447,0.42 42.4085106,0.466666667 C39.693617,0.653333333 37.306383,1.4 35.387234,2.28666667" id="Shape" fill="#EA6840"></path>
                                    <path d="M22,37.4733333 C33.4212766,47.4133333 42.1744681,37.4266667 42.1744681,37.4266667 C39.2255319,37.1933333 36.3234043,36.1666667 33.7957447,34.3466667 C30.893617,32.2933333 28.0382979,30.24 25.2297872,28.4666667 C11.6085106,19.9266667 0.140425532,23.8933333 0.140425532,23.8933333 C8.42553191,25.5733333 12.7787234,29.4 22,37.4733333" id="Shape" fill="#2E73B5"></path>
                                    <path d="M53.5489362,34.2533333 C48.4,40.6933333 44.6553191,44.4266667 35.387234,46.5733333 C35.4340426,46.5733333 35.4808511,46.62 35.5276596,46.62 C41.0510638,48.58 47.8851064,50.96 56.8255319,44.0533333 C63.4255319,38.9666667 63.0042553,35.7 72.787234,31.8266667 C62.2553191,25.8066667 57.293617,29.5866667 53.5489362,34.2533333" id="Shape" fill="#EAA640"></path>
                                    <path d="M59.3531915,10.64 C66.4680851,15.96 71.3361702,20.02 75.8297872,18.62 C70.8212766,14.98 65.2978723,9.89333333 56.4510638,4.29333333 C54.6723404,3.17333333 52.893617,2.33333333 51.2553191,1.72666667 C51.2553191,1.72666667 51.2085106,1.72666667 51.2085106,1.72666667 C51.0212766,1.68 50.8340426,1.58666667 50.6468085,1.54 C48.6340426,0.84 46.2,0.326666667 43.4382979,0.373333333 C43.2510638,0.373333333 43.1106383,0.373333333 42.9234043,0.373333333 C42.7361702,0.373333333 42.5957447,0.373333333 42.4085106,0.42 C39.6468085,0.606666667 37.306383,1.35333333 35.387234,2.24 C35.2,2.33333333 35.012766,2.42666667 34.8255319,2.47333333 C34.8255319,2.47333333 34.7787234,2.47333333 34.7787234,2.52 C33.6553191,3.08 32.5319149,3.73333333 31.3617021,4.48 C31.4085106,4.52666667 42.1744681,-2.24 59.3531915,10.64" id="Shape" fill="#FE9751"></path>
                                    <path d="M32.906383,15.4 C32.906383,15.4 23.5446809,6.39333333 12.9659574,18.3866667 C23.9191489,18.8533333 26.7276596,23.9866667 37.493617,29.8666667 C48.2595745,35.7466667 56.4510638,23.1933333 56.4510638,23.1933333 C48.212766,27.3 39.8808511,20.16 32.906383,15.4" id="Shape" fill="#72AA29"></path>
                                    <path d="M43.2510638,26.7866667 C38.1957447,25.2933333 33.1404255,27.3 33.1404255,27.3 C34.4510638,28.14 35.8553191,28.98 37.4468085,29.8666667 C48.212766,35.7466667 56.4042553,23.1933333 56.4042553,23.1933333 C56.4042553,23.1933333 50.693617,29.0266667 43.2510638,26.7866667" id="Shape" fill="#98C257"></path>
                                    <path d="M53.5489362,34.2533333 C51.3957447,36.96 49.4765957,39.1533333 47.3234043,40.9733333 L47.3234043,41.02 C47.3234043,41.02 52.3787234,41.7666667 56.3574468,38.08 C60.3361702,34.3933333 62.5829787,29.7733333 72.7404255,31.8733333 C62.2553191,25.8066667 57.293617,29.5866667 53.5489362,34.2533333" id="Shape" fill="#FED251"></path>
                                    <path d="M42.1744681,37.4266667 C29.4425532,41.5333333 25.5574468,34.58 21.1574468,31.3133333 C18.6297872,29.4466667 15.0723404,29.3066667 12.4978723,29.54 C15.2595745,31.5466667 18.2085106,34.16 22.0468085,37.4733333 C33.4212766,47.4133333 42.1744681,37.4266667 42.1744681,37.4266667" id="Shape" fill="#4FA8DB"></path>
                                </g>
                                <g id="Group" transform="translate(0.000000, 56.000000)" fill="#000000" fill-rule="nonzero">
                                    <polygon id="Shape" points="7.08034188 6.62037037 0.0465811966 6.62037037 0.0465811966 0.972222222 20.6354701 0.972222222 20.6354701 6.62037037 13.5551282 6.62037037 13.5551282 24.3055556 7.08034188 24.3055556"></polygon>
                                    <path d="M34.7495726,24.7685185 C33.0726496,24.7685185 31.4888889,24.4907407 29.9982906,23.8888889 C28.5076923,23.287037 27.25,22.4537037 26.1786325,21.3888889 C25.107265,20.3240741 24.2222222,19.0277778 23.6166667,17.5462963 C22.9645299,16.0648148 22.6384615,14.4444444 22.6384615,12.7314815 L22.6384615,12.6851852 C22.6384615,11.0185185 22.9645299,9.39814815 23.5700855,7.91666667 C24.175641,6.43518519 25.0606838,5.13888889 26.1320513,4.02777778 C27.25,2.91666667 28.5076923,2.08333333 30.0448718,1.43518519 C31.5354701,0.833333333 33.2123932,0.509259259 34.9824786,0.509259259 C36.1935897,0.509259259 37.2649573,0.648148148 38.2897436,0.87962963 C39.2679487,1.11111111 40.1529915,1.43518519 40.991453,1.89814815 C41.8299145,2.31481481 42.5286325,2.87037037 43.2273504,3.42592593 C43.8794872,4.02777778 44.4850427,4.67592593 44.9974359,5.37037037 L40.1064103,9.12037037 C39.4542735,8.28703704 38.7089744,7.59259259 37.8705128,7.12962963 C37.0786325,6.62037037 36.1004274,6.38888889 34.9358974,6.38888889 C34.0974359,6.38888889 33.3521368,6.52777778 32.6534188,6.85185185 C31.9547009,7.17592593 31.3957265,7.59259259 30.8833333,8.14814815 C30.3709402,8.7037037 29.9982906,9.35185185 29.7188034,10.0925926 C29.4393162,10.8333333 29.2995726,11.6666667 29.2995726,12.5 L29.2995726,12.5462963 C29.2995726,13.4259259 29.4393162,14.212963 29.7188034,15 C29.9982906,15.787037 30.3709402,16.4351852 30.8833333,16.9907407 C31.3957265,17.5462963 31.9547009,17.962963 32.6534188,18.287037 C33.3521368,18.6111111 34.0974359,18.75 34.9358974,18.75 C35.541453,18.75 36.1004274,18.7037037 36.6128205,18.5648148 C37.1252137,18.4259259 37.5910256,18.2407407 38.0102564,17.962963 C38.4294872,17.6851852 38.8021368,17.4074074 39.1747863,17.0833333 C39.5474359,16.7592593 39.9200855,16.3425926 40.2461538,15.9259259 L45.1371795,19.3981481 C44.5782051,20.1388889 43.9726496,20.8333333 43.3205128,21.4814815 C42.6683761,22.1296296 41.9230769,22.6851852 41.0846154,23.1481481 C40.2461538,23.6111111 39.3145299,23.9814815 38.2897436,24.2592593 C37.2183761,24.6296296 36.0538462,24.7685185 34.7495726,24.7685185" id="Shape"></path>
                                    <path d="M59.7636752,24.7685185 C57.9470085,24.7685185 56.2700855,24.4444444 54.732906,23.7962963 C53.1957265,23.1481481 51.8448718,22.3148148 50.7269231,21.2037037 C49.6089744,20.0925926 48.7239316,18.8425926 48.0717949,17.3611111 C47.4196581,15.8796296 47.0935897,14.3055556 47.0935897,12.6388889 L47.0935897,12.5925926 C47.0935897,10.9259259 47.4196581,9.35185185 48.0717949,7.87037037 C48.7239316,6.38888889 49.6089744,5.09259259 50.7269231,3.98148148 C51.8448718,2.87037037 53.1957265,2.03703704 54.732906,1.38888889 C56.2700855,0.740740741 57.9470085,0.416666667 59.7636752,0.416666667 C61.5803419,0.416666667 63.257265,0.740740741 64.7944444,1.38888889 C66.3316239,2.03703704 67.6824786,2.87037037 68.8004274,3.98148148 C69.9183761,5.09259259 70.8034188,6.34259259 71.4555556,7.82407407 C72.1076923,9.30555556 72.4337607,10.8796296 72.4337607,12.5462963 L72.4337607,12.5925926 C72.4337607,14.2592593 72.1076923,15.8333333 71.4555556,17.3148148 C70.8034188,18.7962963 69.9183761,20.0925926 68.8004274,21.2037037 C67.6824786,22.3148148 66.3316239,23.1481481 64.7944444,23.7962963 C63.257265,24.4444444 61.5803419,24.7685185 59.7636752,24.7685185 M59.8102564,18.9351852 C60.6952991,18.9351852 61.5337607,18.75 62.2790598,18.4259259 C63.024359,18.1018519 63.6299145,17.6388889 64.1423077,17.0833333 C64.6547009,16.5277778 65.0739316,15.8333333 65.3534188,15.0925926 C65.632906,14.3518519 65.7726496,13.5185185 65.7726496,12.6851852 L65.7726496,12.6388889 C65.7726496,11.8055556 65.632906,10.9722222 65.3534188,10.2314815 C65.0739316,9.49074074 64.6547009,8.7962963 64.0957265,8.24074074 C63.5367521,7.68518519 62.9311966,7.22222222 62.1858974,6.85185185 C61.4405983,6.52777778 60.6487179,6.34259259 59.717094,6.34259259 C58.7854701,6.34259259 57.9935897,6.52777778 57.2948718,6.85185185 C56.5495726,7.17592593 55.9440171,7.63888889 55.4316239,8.19444444 C54.9192308,8.75 54.5,9.44444444 54.2205128,10.1851852 C53.9410256,10.9259259 53.8012821,11.7592593 53.8012821,12.5925926 L53.8012821,12.6388889 C53.8012821,13.4722222 53.9410256,14.3055556 54.2205128,15.0462963 C54.5,15.787037 54.9192308,16.4814815 55.4316239,17.037037 C55.9440171,17.5925926 56.5961538,18.0555556 57.341453,18.4259259 C58.0867521,18.75 58.9252137,18.9351852 59.8102564,18.9351852" id="Shape"></path>
                                    <polygon id="Shape" points="79.1880342 6.85185185 75.2752137 7.73148148 74.0175214 2.73148148 80.8649573 0.787037037 85.6162393 0.787037037 85.6162393 24.3055556 79.1880342 24.3055556"></polygon>
                                    <path d="M97.9136752,24.7685185 C96.1901709,24.7685185 94.6529915,24.537037 93.3021368,24.0277778 C91.9978632,23.5185185 90.7867521,22.8703704 89.7153846,21.9907407 L92.7897436,17.5 C93.5816239,18.1481481 94.4200855,18.6111111 95.2119658,18.9351852 C96.0038462,19.212963 96.8888889,19.3981481 97.8205128,19.3981481 C99.1713675,19.3981481 100.196154,18.9814815 100.941453,18.1018519 C101.686752,17.2222222 102.105983,16.0648148 102.245726,14.537037 C101.640171,15.0925926 100.941453,15.5555556 100.102991,15.9259259 C99.2645299,16.25 98.332906,16.4351852 97.2615385,16.4351852 C96.0970085,16.4351852 95.0722222,16.25 94.0940171,15.9259259 C93.115812,15.6018519 92.2773504,15.0925926 91.5786325,14.4444444 C90.8799145,13.7962963 90.3209402,13.0555556 89.9482906,12.1296296 C89.575641,11.2037037 89.342735,10.1851852 89.342735,9.07407407 L89.342735,9.02777778 C89.342735,7.73148148 89.575641,6.57407407 90.041453,5.50925926 C90.507265,4.44444444 91.1594017,3.56481481 91.9978632,2.82407407 C92.8363248,2.08333333 93.8145299,1.52777778 94.9790598,1.11111111 C96.0970085,0.694444444 97.3547009,0.509259259 98.7055556,0.509259259 C100.382479,0.509259259 101.826496,0.740740741 102.897863,1.2037037 C104.015812,1.66666667 104.994017,2.36111111 105.87906,3.24074074 C106.717521,4.07407407 107.416239,5.18518519 107.928632,6.57407407 C108.441026,7.96296296 108.720513,9.72222222 108.720513,11.8518519 L108.720513,11.8981481 C108.720513,13.7962963 108.487607,15.5555556 108.021795,17.1296296 C107.555983,18.7037037 106.857265,20.0462963 105.972222,21.1574074 C105.040598,22.2685185 103.92265,23.1481481 102.571795,23.7962963 C101.22094,24.4444444 99.6371795,24.7685185 97.9136752,24.7685185 M99.0316239,11.8055556 C100.05641,11.8055556 100.894872,11.5277778 101.453846,10.9259259 C102.059402,10.3240741 102.338889,9.62962963 102.338889,8.75 L102.338889,8.7037037 C102.338889,7.77777778 102.012821,7.03703704 101.407265,6.43518519 C100.801709,5.83333333 99.9632479,5.50925926 98.9384615,5.50925926 C97.9136752,5.50925926 97.0752137,5.78703704 96.5162393,6.38888889 C95.9106838,6.99074074 95.6311966,7.73148148 95.6311966,8.65740741 L95.6311966,8.7037037 C95.6311966,9.58333333 95.957265,10.3240741 96.5628205,10.9259259 C97.1683761,11.5277778 97.9602564,11.8055556 99.0316239,11.8055556" id="Shape"></path>
                                </g>
                            </g>
                        </g>
                    </g>
                </g>
            </g>
        </g>
    </g>
</svg>