<?xml version="1.0" encoding="UTF-8"?>
<svg width="17px" height="17px" viewBox="0 0 17 17" version="1.1" xmlns="http://www.w3.org/2000/svg" xmlns:xlink="http://www.w3.org/1999/xlink"  fill="#000000">
    <path d="M8.50105465,17.0013985 C8.12842514,17.0013985 7.761463,16.8760079 7.46746823,16.6478963 C5.74600491,15.1913825 3.66891419,14.2782277 1.45084766,13.9991098 C0.62199495,13.8900129 -0.000707214459,13.1801749 6.02816106e-07,12.3470717 L6.02816106e-07,4.40000358 C6.02816106e-07,4.32136883 0.00566857562,4.24273409 0.0162948924,4.16622461 C0.0779275299,3.72346141 0.308872815,3.33170453 0.665917059,3.06321292 C0.958494982,2.84289395 1.30562133,2.72600447 1.67045821,2.72600447 C1.74838453,2.72600447 1.8277277,2.73167184 1.90565402,2.74229816 C4.20660582,3.09721714 6.35808076,4.07696355 8.13196724,5.57527421 C8.22477041,5.64682475 8.34732726,5.68933001 8.47980201,5.69358054 C8.48688622,5.6921637 8.49467886,5.6921637 8.50105465,5.6921637 C8.50743044,5.6921637 8.51522307,5.6921637 8.52372412,5.69287212 C8.64911466,5.68933001 8.77733888,5.64399106 8.88431047,5.56110579 C10.6440285,4.07342144 12.7919614,3.09580029 15.0879542,2.74088131 C15.1651721,2.72954658 15.2452237,2.72458763 15.3295258,2.72387921 C15.7793732,2.72529605 16.1987585,2.90027607 16.5132975,3.21694031 C16.8285449,3.53431297 17.0013997,3.95440669 17.0000006,4.40142042 L17.0000006,12.3477801 C17.0000006,13.1801749 16.3779891,13.8900129 15.5526785,13.9991098 C13.3324867,14.2782277 11.2582296,15.1892572 9.55306001,16.6337279 C9.5495179,16.6365616 9.53747474,16.6464795 9.53393264,16.6493132 C9.2406463,16.8752995 8.87368416,17.0013985 8.50105465,17.0013985 Z M9.03237049,15.6844436 C10.8558464,14.189675 13.0618698,13.2418076 15.4166616,12.9449791 C15.7127816,12.906016 15.937357,12.6495675 15.937357,12.3477801 L15.937357,4.40000358 C15.9380596,4.23564988 15.8750101,4.08192249 15.7602459,3.96644985 C15.6454816,3.85097721 15.4924627,3.78721931 15.3295258,3.78651089 L15.3160658,3.52085297 L15.3160658,3.78651089 C15.2912711,3.78651089 15.2671848,3.78934457 15.24239,3.79288668 C13.1461719,4.11663513 11.1774696,5.01420469 9.55306001,6.38712482 C9.39153999,6.51251536 9.21868524,6.60531852 9.03237049,6.66624274 L9.03237049,15.6844436 Z M1.66974979,3.78792773 C1.53798346,3.78792773 1.4118845,3.830433 1.30491291,3.911193 C1.17527184,4.00966354 1.09096973,4.15276461 1.06830026,4.3135762 C1.06475815,4.34191304 1.06263289,4.37095831 1.06263289,4.40000358 L1.06263289,12.3477801 C1.06263289,12.6488591 1.2879108,12.906016 1.58615609,12.9456875 C3.93528053,13.2410992 6.13776179,14.1861329 7.96973881,15.6844436 L7.96973881,6.66907642 C7.78554931,6.60956905 7.61552825,6.51959957 7.46250928,6.40058482 C5.82393123,5.01703837 3.85168684,4.11805197 1.74980137,3.7935951 C1.72571505,3.79005299 1.69808663,3.78792773 1.66974979,3.78792773 Z" id="Shape"></path>
    <path d="M8.4960957,3.83114142 C8.12346619,3.83114142 7.75650405,3.70504246 7.46250928,3.47693086 C6.07542073,2.32149601 4.42905005,1.48343383 2.69270988,1.04775484 C2.40863301,0.976204303 2.23577826,0.687168486 2.30662037,0.403091617 C2.36612775,0.166478963 2.57794566,0.00070842112 2.82164253,0.00070842112 C2.86556464,0.00070842112 2.90948675,0.00637579008 2.95199201,0.0170021069 C4.84135114,0.491644257 6.63153131,1.40125698 8.12842514,2.64878657 C8.22689567,2.72458763 8.36007884,2.76992658 8.4960957,2.76992658 C8.63565466,2.76992658 8.77308836,2.72246236 8.88360205,2.63745183 C10.370578,1.39842329 12.1607582,0.490227415 14.0536594,0.0162936858 C14.0961647,0.00566736896 14.1393783,0 14.1833004,0 C14.4269973,0 14.6388152,0.165770542 14.6983226,0.402383196 C14.7330352,0.539816893 14.7117826,0.68291796 14.6388152,0.804766392 C14.5658479,0.926614825 14.4496668,1.01233378 14.3122331,1.04704642 C12.5737677,1.48201698 10.927397,2.31866233 9.55022632,3.46559612 C9.24277156,3.70362562 8.87155889,3.83114142 8.4960957,3.83114142 Z" id="Path" fill-rule="nonzero"></path>
</svg>
