<svg width="14" height="14" viewBox="0 0 14 14" fill="none" xmlns="http://www.w3.org/2000/svg">
<path fill-rule="evenodd" clip-rule="evenodd" d="M13.4001 6.99998C13.4001 10.5346 10.5347 13.4 7.0001 13.4C3.46548 13.4 0.600098 10.5346 0.600098 6.99998C0.600098 3.46535 3.46548 0.599976 7.0001 0.599976C10.5347 0.599976 13.4001 3.46535 13.4001 6.99998ZM7.8001 3.79998C7.8001 4.2418 7.44192 4.59998 7.0001 4.59998C6.55827 4.59998 6.2001 4.2418 6.2001 3.79998C6.2001 3.35815 6.55827 2.99998 7.0001 2.99998C7.44192 2.99998 7.8001 3.35815 7.8001 3.79998ZM6.2001 6.19998C5.75827 6.19998 5.4001 6.55815 5.4001 6.99998C5.4001 7.4418 5.75827 7.79998 6.2001 7.79998V10.2C6.2001 10.6418 6.55827 11 7.0001 11H7.8001C8.24192 11 8.6001 10.6418 8.6001 10.2C8.6001 9.75815 8.24192 9.39997 7.8001 9.39997V6.99998C7.8001 6.55815 7.44192 6.19998 7.0001 6.19998H6.2001Z" fill="#137D60"/>
</svg>
