<?xml version="1.0" encoding="UTF-8"?>
<svg width="34px" height="36px" viewBox="0 0 34 36" version="1.1" xmlns="http://www.w3.org/2000/svg" xmlns:xlink="http://www.w3.org/1999/xlink">
    <!-- Generator: sketchtool 55.2 (78181) - https://sketchapp.com -->
    <title>AB1D8534-E388-416D-9CC6-240842C7B334</title>
    <desc>Created with sketchtool.</desc>
    <g id="EDU-Center" stroke="none" stroke-width="1" fill="none" fill-rule="evenodd" stroke-linecap="round" stroke-linejoin="round">
        <g id="D01_1_Homepage" transform="translate(-139.000000, -1748.000000)" stroke="#FFFFFF">
            <g id="track-development" transform="translate(140.000000, 1749.000000)">
                <g transform="translate(0.000000, -0.000000)">
                    <polygon id="Stroke-91" stroke-width="1.9" points="13.0909091 33.3238636 0 33.3238636 0 24.6306818 13.0909091 24.6306818"></polygon>
                    <polyline id="Stroke-93" stroke-width="1.9" points="13.0909091 5.79545455 24.7272727 5.79545455 24.7272727 8.69318182"></polyline>
                    <polyline id="Stroke-95" stroke-width="1.9" points="13.0909091 28.9772727 23.2727273 28.9772727 23.2727273 24.6306818"></polyline>
                    <path d="M11.6363636,5.79545455 C11.6363636,8.99663991 9.03192085,11.5909091 5.81818182,11.5909091 C2.60444279,11.5909091 0,8.99663991 0,5.79545455 C0,2.59426918 2.60444279,0 5.81818182,0 C9.03192085,0 11.6363636,2.59426918 11.6363636,5.79545455 L11.6363636,5.79545455 L11.6363636,5.79545455 Z" id="Stroke-97" stroke-width="1.9"></path>
                    <polygon id="Stroke-99" stroke-width="1.9" points="23.9994175 8.69318182 16 16.6619318 23.9994175 24.6306818 32 16.6619318"></polygon>
                </g>
            </g>
        </g>
    </g>
</svg>