<?xml version="1.0" encoding="UTF-8"?>
<svg width="36px" height="36px" viewBox="0 0 36 36" version="1.1" xmlns="http://www.w3.org/2000/svg" xmlns:xlink="http://www.w3.org/1999/xlink">
    <!-- Generator: sketchtool 55.2 (78181) - https://sketchapp.com -->
    <title>793C1416-2682-46E8-8AC8-48DB5D55C101</title>
    <desc>Created with sketchtool.</desc>
    <g id="EDU-Center" stroke="none" stroke-width="1" fill="none" fill-rule="evenodd" stroke-linecap="round" stroke-linejoin="round">
        <g id="D01_1_Homepage" transform="translate(-134.000000, -1075.000000)" stroke="#FFFFFF">
            <g id="Group-3" transform="translate(108.000000, 1049.000000)">
                <g id="track-data" transform="translate(27.000000, 27.000000)">
                    <g>
                        <path d="M12.9518087,0 C14.7405145,0 16.1904762,1.44960581 16.1904762,3.23809524 C16.1904762,5.02658466 14.7405145,6.47619048 12.9518087,6.47619048 C11.163103,6.47619048 9.71428571,5.02658466 9.71428571,3.23809524 C9.71428571,1.44960581 11.163103,0 12.9518087,0 Z" id="Stroke-43" stroke-width="1.9"></path>
                        <path d="M30.7619048,6.47619048 C32.549782,6.47619048 34,7.92692968 34,9.71428571 C34,11.5027751 32.549782,12.952381 30.7619048,12.952381 C28.9740275,12.952381 27.5238095,11.5027751 27.5238095,9.71428571 C27.5238095,7.92579629 28.9740275,6.47619048 30.7619048,6.47619048 Z" id="Stroke-45" stroke-width="1.9"></path>
                        <path d="M3.23752304,17.8095238 C5.02508436,17.8095238 6.47619048,19.2591296 6.47619048,21.047619 C6.47619048,22.8361085 5.02622876,24.2857143 3.23752304,24.2857143 C1.44881731,24.2857143 0,22.8361085 0,21.047619 C0,19.2591296 1.44996171,17.8095238 3.23752304,17.8095238 Z" id="Stroke-47" stroke-width="1.9"></path>
                        <path d="M17.8089516,27.5238095 C19.5976573,27.5238095 21.047619,28.9736689 21.047619,30.7613376 C21.047619,32.5501399 19.5976573,34 17.8089516,34 C16.0213903,34.0011329 14.5714286,32.5501399 14.5714286,30.7613376 C14.5714286,28.9736689 16.0213903,27.5238095 17.8089516,27.5238095 Z" id="Stroke-49" stroke-width="1.9"></path>
                        <path d="M30.7619048,21.047619 C32.549782,21.047619 34,22.4972249 34,24.2857143 C34,26.0742037 32.549782,27.5238095 30.7619048,27.5238095 C28.9740275,27.5238095 27.5238095,26.0742037 27.5238095,24.2857143 C27.5238095,22.4972249 28.9740275,21.047619 30.7619048,21.047619 Z" id="Stroke-51" stroke-width="1.9"></path>
                        <path d="M4.04761905,17 L11.3333333,6.47619048" id="Stroke-53" stroke-width="1.9"></path>
                        <path d="M31.5714286,20.2380952 L31.5714286,13.7619048" id="Stroke-55" stroke-width="1.9"></path>
                        <path d="M17.8095238,27.5238095 L13.7619048,7.28571429" id="Stroke-57" stroke-width="1.9"></path>
                        <path d="M28.3333333,21.8571429 L15.3809524,5.66666667" id="Stroke-59" stroke-width="1.9"></path>
                        <path d="M21.047619,29.1428571 L27.5238095,25.9047619" id="Stroke-61" stroke-width="1.9"></path>
                        <path d="M6.52243769,20.9891183 L28.0775902,11.6791992" id="Stroke-63" stroke-width="1.9"></path>
                    </g>
                </g>
            </g>
        </g>
    </g>
</svg>