<?xml version="1.0" encoding="UTF-8"?>
<svg width="37px" height="36px" viewBox="0 0 37 36" version="1.1" xmlns="http://www.w3.org/2000/svg" xmlns:xlink="http://www.w3.org/1999/xlink">
    <!-- Generator: sketchtool 55.2 (78181) - https://sketchapp.com -->
    <title>FEF74227-C68D-46C1-99E9-9F6668C4EBDF</title>
    <desc>Created with sketchtool.</desc>
    <g id="EDU-Center" stroke="none" stroke-width="1" fill="none" fill-rule="evenodd" stroke-linecap="round" stroke-linejoin="round">
        <g id="D01_1_Homepage" transform="translate(-135.000000, -1392.000000)" stroke="#FFFFFF">
            <g id="track-desig" transform="translate(136.000000, 1393.000000)">
                <g id="track-design-copy">
                    <path d="M12.1153846,18.61505 L27.7053786,2.59854598 C29.3753714,0.877407749 32.0794926,0.877407749 33.748354,2.59854598 C35.4172153,4.31968422 35.4172153,7.10967847 33.748354,8.83081671 L18.15836,24.8461538 L12.1153846,18.61505 Z" id="Stroke-79" stroke-width="1.9"></path>
                    <path d="M10.7573302,24.9993749 C8.93559675,23.0640965 5.99564944,23.0497699 4.19189736,24.9671402 C3.03996846,26.1908665 2.8848795,27.7118688 2.89836549,28.9821564 C2.91185149,30.2393114 2.06672902,31.3866294 0,31.4236397 C2.90173699,34.5038484 7.95336665,34.9861757 10.7887975,31.9752119 C12.7004375,29.945617 12.4183554,26.7639286 10.7573302,24.9993749 L10.7573302,24.9993749 L10.7573302,24.9993749 Z" id="Stroke-81" stroke-width="1.9"></path>
                    <path d="M12.1153846,3.92307692 L9.42307692,7.84615385" id="Stroke-83" stroke-width="1.9"></path>
                    <path d="M30.9615385,20.9230769 L26.9230769,24.8461538" id="Stroke-85" stroke-width="1.9"></path>
                    <path d="M21.5384615,29.2395 C22.0083192,29.7058114 22.6182084,30.3084643 23.2431423,30.9271574 C24.7476127,32.4166039 26.3469805,34 26.3469805,34 L35,25.4333915 C35,25.4333915 29.7424545,19.8628619 29.5017392,19.6153846" id="Stroke-87" stroke-width="1.9"></path>
                    <path d="M16.1538462,5.83127844 L10.116521,0 L1.34615385,8.49414941 C1.34615385,8.49414941 3.29447268,10.381107 6.07795286,13.0769231" id="Stroke-89" stroke-width="1.9"></path>
                </g>
            </g>
        </g>
    </g>
</svg>