<?xml version="1.0" encoding="UTF-8"?>
<svg width="37px" height="32px" viewBox="0 0 37 32" version="1.1" xmlns="http://www.w3.org/2000/svg" xmlns:xlink="http://www.w3.org/1999/xlink">
    <!-- Generator: sketchtool 55.2 (78181) - https://sketchapp.com -->
    <title>B6492E4A-62BF-41D0-9167-2AC7D135CFF5</title>
    <desc>Created with sketchtool.</desc>
    <g id="EDU-Center" stroke="none" stroke-width="1" fill="none" fill-rule="evenodd">
        <g id="D01_1_Homepage" transform="translate(-136.000000, -782.000000)" fill="#FFFFFF">
            <g id="Group-11" transform="translate(117.000000, 763.000000)">
                <g id="track-algorithm" transform="translate(19.000000, 19.000000)">
                    <g transform="translate(0.000000, -0.000000)">
                        <path d="M33.9132251,6.70408157 L33.9132251,3.51144895 C33.9117179,2.80975508 33.3299177,2.23618365 32.6184936,2.23469386 L3.56465678,2.23469386 C2.84871091,2.23767345 2.26238893,2.81720406 2.26088168,3.52634691 L2.26088168,6.70408157 L33.9132251,6.70408157 Z M2.26088168,27.9336732 C2.26088168,28.5504487 2.76731917,29.0510201 3.39132251,29.0510201 L32.60945,29.0510201 C33.3253959,29.0495303 33.9117179,28.4699997 33.9132251,27.7593671 L33.9132251,8.93877543 L2.26088168,8.93877543 L2.26088168,27.9336732 Z M3.39132251,31.285714 C1.52081974,31.285714 0,29.7825099 0,27.9336732 L0,3.52336731 C0.0060290178,1.58514284 1.60371874,0.00595918362 3.56164227,0 L32.6215081,0 C34.5749098,0.00595918362 36.1680778,1.57918366 36.1741068,3.50846936 L36.1741068,27.7623467 C36.1680778,29.7005712 34.5703881,31.2797548 32.6124645,31.285714 L32.6109573,31.285714 L3.39132251,31.285714 Z" id="Fill-1"></path>
                        <path d="M19.2174942,20.1122447 C18.5934909,20.1122447 18.0870534,19.6116733 18.0870534,18.9948978 C18.0870534,18.3781223 18.5934909,17.8775509 19.2174942,17.8775509 L26.0001393,17.8775509 C26.6241426,17.8775509 27.1305801,18.3781223 27.1305801,18.9948978 C27.1305801,19.6116733 26.6241426,20.1122447 26.0001393,20.1122447 L19.2174942,20.1122447 Z" id="Fill-3"></path>
                        <path d="M10.1739675,24.5816324 C9.87251665,24.5816324 9.58764556,24.4654283 9.37512268,24.2538773 C8.93500438,23.8188569 8.93500438,23.1097141 9.37512268,22.6732039 L13.0980412,18.993408 L9.37512268,15.3136121 C9.16109255,15.1050407 9.0435267,14.8234693 9.0435267,14.5255101 C9.0435267,14.2275509 9.16109255,13.9459795 9.37512268,13.7359182 C9.58764556,13.5243672 9.87251665,13.4081631 10.1739675,13.4081631 C10.4754184,13.4081631 10.7602895,13.5243672 10.9728124,13.7359182 L15.4945758,18.205306 C15.9346941,18.6403264 15.9346941,19.3494692 15.4945758,19.7859794 L10.9728124,24.2553671 C10.7602895,24.4654283 10.4754184,24.5816324 10.1739675,24.5816324" id="Fill-5"></path>
                    </g>
                </g>
            </g>
        </g>
    </g>
</svg>