<svg width="61" height="60" viewBox="0 0 61 60" fill="none" xmlns="http://www.w3.org/2000/svg">
<path d="M60.5 30C60.5 46.5685 47.0685 60 30.5 60C13.9315 60 0.5 46.5685 0.5 30C0.5 13.4315 13.9315 0 30.5 0C47.0685 0 60.5 13.4315 60.5 30ZM6.5 30C6.5 43.2548 17.2452 54 30.5 54C43.7548 54 54.5 43.2548 54.5 30C54.5 16.7452 43.7548 6 30.5 6C17.2452 6 6.5 16.7452 6.5 30Z" fill="#E9E9E9"/>
<path d="M57.5074 30C59.1602 30 60.5155 28.6568 60.3509 27.0123C59.8226 21.734 57.9016 16.6706 54.7601 12.3521C51.0296 7.22395 45.7701 3.40983 39.7367 1.45735C33.7033 -0.495123 27.2064 -0.48551 21.1788 1.48481C16.1029 3.14407 11.5796 6.12195 8.05907 10.09C6.96219 11.3264 7.27363 13.2089 8.61306 14.1772V14.1772C9.95248 15.1455 11.8107 14.8292 12.938 13.6206C15.695 10.6645 19.1658 8.43976 23.0385 7.17383C27.8635 5.59661 33.0642 5.58891 37.8939 7.15185C42.7236 8.71479 46.9338 11.768 49.92 15.873C52.3168 19.1678 53.8261 23.0042 54.3285 27.015C54.534 28.655 55.8546 30 57.5074 30V30Z" fill="#2984BD"/>
</svg>
