<svg width="61" height="60" viewBox="0 0 61 60" fill="none" xmlns="http://www.w3.org/2000/svg">
<path fill-rule="evenodd" clip-rule="evenodd" d="M30.5 6C17.2452 6 6.5 16.7452 6.5 30C6.5 43.2548 17.2452 54 30.5 54C43.7548 54 54.5 43.2548 54.5 30C54.5 16.7452 43.7548 6 30.5 6ZM0.5 30C0.5 13.4315 13.9315 0 30.5 0C47.0685 0 60.5 13.4315 60.5 30C60.5 46.5685 47.0685 60 30.5 60C13.9315 60 0.5 46.5685 0.5 30ZM22.3787 21.8787C23.5503 20.7071 25.4497 20.7071 26.6213 21.8787L30.5 25.7574L34.3787 21.8787C35.5503 20.7071 37.4497 20.7071 38.6213 21.8787C39.7929 23.0503 39.7929 24.9497 38.6213 26.1213L34.7426 30L38.6213 33.8787C39.7929 35.0503 39.7929 36.9497 38.6213 38.1213C37.4497 39.2929 35.5502 39.2929 34.3787 38.1213L30.5 34.2426L26.6213 38.1213C25.4497 39.2929 23.5503 39.2929 22.3787 38.1213C21.2071 36.9497 21.2071 35.0503 22.3787 33.8787L26.2574 30L22.3787 26.1213C21.2071 24.9497 21.2071 23.0503 22.3787 21.8787Z" fill="#EF476F"/>
</svg>
