<svg width="61" height="60" viewBox="0 0 61 60" fill="none" xmlns="http://www.w3.org/2000/svg">
<path fill-rule="evenodd" clip-rule="evenodd" d="M30.5 6C17.2452 6 6.5 16.7452 6.5 30C6.5 43.2548 17.2452 54 30.5 54C43.7548 54 54.5 43.2548 54.5 30C54.5 16.7452 43.7548 6 30.5 6ZM0.5 30C0.5 13.4315 13.9315 0 30.5 0C47.0685 0 60.5 13.4315 60.5 30C60.5 46.5685 47.0685 60 30.5 60C13.9315 60 0.5 46.5685 0.5 30ZM41.6213 21.8787C42.7929 23.0503 42.7929 24.9497 41.6213 26.1213L29.6213 38.1213C28.4497 39.2929 26.5503 39.2929 25.3787 38.1213L19.3787 32.1213C18.2071 30.9497 18.2071 29.0503 19.3787 27.8787C20.5503 26.7071 22.4497 26.7071 23.6213 27.8787L27.5 31.7574L37.3787 21.8787C38.5503 20.7071 40.4497 20.7071 41.6213 21.8787Z" fill="#0AB88A"/>
</svg>
