<svg width="317" height="31" viewBox="0 0 317 31" fill="none" xmlns="http://www.w3.org/2000/svg">
<g clip-path="url(#clip0_7850_11880)">
<path d="M0.333252 30H183.26V0H0.333252V30Z" fill="#2A2A2A"/>
<path d="M130.083 11.9817C129.315 11.9817 128.418 12.1098 127.632 12.6768V12.0732H125.473V21.8415H127.632V15.9329C127.632 15.0549 128.327 14.0122 129.699 14.0122C130.906 14.0122 131.711 14.8354 131.711 16.0427V21.8232H133.869V15.8963C133.888 13.5183 132.333 11.9817 130.083 11.9817ZM81.1865 11.9817C80.4182 11.9817 79.5219 12.1098 78.7353 12.6768V12.0732H76.5768V21.8415H78.7353V15.9329C78.7353 15.0549 79.4304 14.0122 80.8024 14.0122C82.0097 14.0122 82.8146 14.8354 82.8146 16.0427V21.8232H84.9731V15.8963C84.9914 13.5183 83.4365 11.9817 81.1865 11.9817ZM104.272 11.9817C103.504 11.9817 102.607 12.1098 101.821 12.6768V12.0732H99.6621V21.8415H101.821V15.9329C101.821 15.0549 102.516 14.0122 103.888 14.0122C105.095 14.0122 105.9 14.8354 105.9 16.0427V21.8232H108.077V15.8963C108.077 13.5183 106.54 11.9817 104.272 11.9817ZM46.3756 15.878C45.4243 15.6585 44.7658 15.4207 44.7475 14.8537C44.7292 14.1037 45.3878 13.8841 46.5219 13.8841C46.9975 13.8841 48.4792 13.8841 48.4792 13.8841V12.0732H46.5402C44.839 12.0732 42.6987 12.439 42.6987 14.9817C42.717 16.1159 43.5036 17.0122 44.9304 17.4512C45.2597 17.561 45.6073 17.6341 45.9365 17.7073C46.9426 17.9451 47.8024 18.1829 47.8207 18.9329C47.839 19.6098 46.9243 20.0122 46.1743 20.0305C44.839 20.0305 43.9609 19.2622 43.6865 18.9878L42.278 20.3049C42.278 20.3049 43.5219 21.9329 46.2658 21.9329C48.0768 21.9329 49.906 20.7622 49.8877 18.8598C49.8329 17.0122 48.0768 16.2988 46.3756 15.878ZM65.3451 15.9512C65.2536 15.3293 64.9426 14.7439 64.4487 14.3598C63.8999 13.9573 63.3695 13.8841 62.8024 13.8841C61.9975 13.8841 61.2841 14.2683 60.7719 14.8537C60.3695 15.311 60.1865 15.9512 60.1865 15.9512H65.3451ZM62.9853 21.9695C60.1317 21.9695 58.0097 19.8293 57.9914 16.9756C57.9914 16.3537 58.1012 15.7134 58.3207 15.1281C58.6499 14.2317 59.2536 13.4451 60.0219 12.8963C60.8634 12.2927 61.906 11.9817 62.9487 11.9817C64.3207 11.9817 65.4365 12.4573 66.2231 13.3171C66.7719 13.9024 67.1377 14.6524 67.3573 15.4207C67.5585 16.1159 67.5768 16.811 67.5768 17.5244H60.1317L60.1682 17.7439C60.4426 19.061 61.5585 19.939 62.967 19.939C64.1926 19.939 64.9792 19.372 65.3999 18.9329L66.8817 20.3232C66.0036 21.3476 64.5402 21.9695 62.9853 21.9695ZM38.8207 15.9512C38.7292 15.3293 38.4182 14.7439 37.9243 14.3598C37.3756 13.9573 36.8451 13.8841 36.278 13.8841C35.4731 13.8841 34.7597 14.2683 34.2475 14.8537C33.8451 15.311 33.6621 15.9512 33.6621 15.9512H38.8207ZM36.4609 21.9695C33.6073 21.9695 31.4853 19.8293 31.467 16.9756C31.467 16.3537 31.5768 15.7134 31.7963 15.1281C32.1256 14.2317 32.7292 13.4451 33.4975 12.8963C34.339 12.2927 35.3817 11.9817 36.4243 11.9817C37.7963 11.9817 38.9121 12.4573 39.6987 13.3171C40.2475 13.9024 40.6134 14.6524 40.8329 15.4207C41.0158 16.1159 41.0524 16.811 41.0524 17.5244H33.6073L33.6438 17.7439C33.9182 19.061 35.0341 19.939 36.4426 19.939C37.6682 19.939 38.4548 19.372 38.8756 18.9329L40.3573 20.3232C39.4792 21.3476 38.0158 21.9695 36.4609 21.9695ZM29.4548 8.87195L26.967 18.1098L23.9853 8.85366H21.6621L18.6987 18.1098L16.2109 8.85366H13.9426L17.4365 21.8598H19.7231L22.8512 12.2195L25.9792 21.8598H28.2658L31.7414 8.85366H29.4548V8.87195ZM73.3573 12C72.6987 12.0915 72.0219 12.311 71.4182 12.7866V12.0732H69.2597V21.8415H71.4182V15.8963C71.4182 15.6951 71.4548 15.4939 71.528 15.311C71.7109 14.872 72.0768 14.3963 72.589 14.1768C72.9365 14.0305 73.2841 13.9756 73.5585 13.9756C73.8695 13.9756 74.3268 14.0305 74.656 14.1951V12.1098C74.656 12.1281 73.9975 11.9268 73.3573 12ZM111.077 7.5C110.162 7.5 109.43 8.23171 109.43 9.14634C109.43 9.56707 109.595 9.95122 109.833 10.2256H112.302C112.558 9.93293 112.705 9.54878 112.705 9.14634C112.723 8.23171 111.991 7.5 111.077 7.5ZM95.4548 16.7195C95.4548 16.7195 95.656 19.7561 92.3268 19.7561C88.9975 19.7561 89.1987 16.7012 89.1987 16.7012V8.85366H86.9121V16.628C86.9121 19.8841 89.0341 21.9695 92.3268 21.9695C95.6195 21.9695 97.7414 19.8841 97.7414 16.6463V8.85366H95.4548V16.7195ZM121.65 16.9756C121.65 15.2561 120.461 14.0122 118.833 14.0122C117.187 14.0122 115.997 15.2561 115.997 16.9756C115.997 18.6951 117.187 19.939 118.833 19.939C120.461 19.939 121.65 18.6951 121.65 16.9756ZM123.808 16.9756C123.808 19.8293 121.668 21.9695 118.833 21.9695C115.979 21.9695 113.839 19.8293 113.839 16.9756C113.839 14.1219 115.979 11.9817 118.833 11.9817C121.668 11.9817 123.808 14.1402 123.808 16.9756ZM109.998 21.8598H112.156V12.0915H109.998V21.8598ZM56.6743 19.6463L57.1499 21.439L56.9304 21.5488C56.3999 21.8049 55.8695 21.9695 55.0646 21.9695C53.3085 21.9695 52.2109 20.8902 52.2109 19.1341V13.8841H50.3999V12.0732H52.2109V9.5122L54.3695 8.92683V12.0915H56.656V13.9024H54.3695V18.8781C54.3695 19.5183 54.7902 19.9573 55.4487 19.9939C55.8146 20.0122 56.1804 19.9024 56.4914 19.7378L56.6743 19.6463Z" fill="white"/>
<path d="M166.851 8.87376V16.9042C166.851 16.9225 166.906 18.0018 166.211 18.7518C165.754 19.2457 165.077 19.4835 164.162 19.4835C163.266 19.4835 162.571 19.2457 162.132 18.7518C161.436 18.0018 161.491 16.9225 161.491 16.9042V8.87376H160.339L158.693 14.9286V16.8128C158.693 18.4225 159.205 19.7762 160.193 20.7457C161.18 21.7152 162.552 22.2274 164.18 22.2274C165.808 22.2274 167.18 21.7152 168.168 20.7457C169.156 19.7762 169.668 18.4225 169.668 16.8128V8.87376H166.851ZM158.693 8.87376L155.162 21.8799H152.601L149.912 13.264L147.223 21.8616H144.662L141.095 8.85547H143.875L146.052 17.0872L148.613 8.85547H151.193L153.79 17.1421L155.93 8.85547H158.693V8.87376Z" fill="white"/>
<path d="M143.071 21.8616L139.504 8.85547H138.589L142.156 21.8616H143.071ZM139.632 21.8616L136.065 8.87376H136.979L140.546 21.8799H139.632V21.8616Z" fill="#AAAAAA"/>
</g>
<defs>
<clipPath id="clip0_7850_11880">
<rect width="316" height="31" fill="white" transform="translate(0.333252)"/>
</clipPath>
</defs>
</svg>
