<?xml version="1.0" encoding="UTF-8" standalone="no"?>
<svg width="40px" height="40px" viewBox="0 0 40 40" version="1.1" xmlns="http://www.w3.org/2000/svg" xmlns:xlink="http://www.w3.org/1999/xlink" xmlns:sketch="http://www.bohemiancoding.com/sketch/ns">
    <!-- Generator: Sketch 3.3.3 (12081) - http://www.bohemiancoding.com/sketch -->
    <title>octocat</title>
    <desc>Created with Sketch.</desc>
    <defs>
        <path id="path-1" d="M0.00249999998,21.5 C0.00249999998,30.0663938 5.73257152,37.753203 14.0025,40.5 C14.6806669,40.6536957 15.045319,40.0204718 15.0025,39.5 C15.045319,38.9894373 15.02813,37.7003294 15.0025,35.5 C9.45521494,37.228244 8.2814527,33.2400666 8.0025,33.5 C7.37166419,30.8708273 6.06039005,30.2401212 6.0025,30.5 C4.24449638,28.967379 6.19790195,28.9938158 6.0025,28.5 C8.20533004,29.1385886 9.26122495,31.1074995 9.0025,31.5 C11.046424,34.2408876 13.9427683,33.3357426 15.0025,32.5 C15.2638647,31.4851678 15.7807621,30.5825405 16.0025,30.5 C11.9107845,29.551506 7.241519,27.7928305 7.0025,19.5 C7.241519,17.6952386 8.02116233,15.8648061 9.0025,14.5 C9.095474,13.9122609 8.40914232,11.8275318 9.0025,9.5 C9.49695962,9.00509055 11.1765692,8.4524359 15.0025,11.5 C16.5923278,10.6517244 18.302632,10.4238645 20.0025,10.5 C21.702368,10.4238645 23.4126722,10.6517244 25.0025,11.5 C28.8284308,8.4524359 30.5055848,9.00509055 31.0025,9.5 C31.5958577,11.8275318 30.909526,13.9122609 31.0025,14.5 C31.9862932,15.8648061 32.7597976,17.6952386 33.0025,19.5 C32.7597976,27.8117139 28.0843932,29.5452115 24.0025,30.5 C24.3470164,30.6870287 24.9854645,31.9383698 25.0025,33.5 C24.9854645,36.5925024 24.9621366,38.8043798 25.0025,39.5 C24.9621366,40.0255074 25.3218775,40.6625079 26.0025,40.5 C34.2773396,37.7456496 40.0025,30.0651349 40.0025,21.5 C40.0025,9.68111684 31.0470379,0.5 20.0025,0.5 C8.95796211,0.5 0.00249999998,9.68111684 0.00249999998,21.5 Z"></path>
    </defs>
    <g id="Register-Web" stroke="none" stroke-width="1" fill="none" fill-rule="evenodd" sketch:type="MSPage">
        <g id="LogIn-W-Empty" sketch:type="MSArtboardGroup" transform="translate(-363.000000, -588.000000)">
            <g id="Log-In-Icons" sketch:type="MSLayerGroup" transform="translate(362.000000, 585.984000)">
                <g id="Imported-Layers-Copy-+-GITHUB" transform="translate(0.997500, 1.500000)">
                    <g id="octocat">
                        <use fill="#4B3D74" fill-rule="evenodd" sketch:type="MSShapeGroup" xlink:href="#path-1"></use>
                        <use fill="none" xlink:href="#path-1"></use>
                        <use fill="none" xlink:href="#path-1"></use>
                        <use fill="none" xlink:href="#path-1"></use>
                    </g>
                </g>
            </g>
        </g>
    </g>
</svg>