<?xml version="1.0" encoding="UTF-8" standalone="no"?>
<svg width="27px" height="27px" viewBox="0 0 27 27" version="1.1" xmlns="http://www.w3.org/2000/svg" xmlns:xlink="http://www.w3.org/1999/xlink" xmlns:sketch="http://www.bohemiancoding.com/sketch/ns">
    <!-- Generator: Sketch 3.3.3 (12081) - http://www.bohemiancoding.com/sketch -->
    <title>ico-linkedin</title>
    <desc>Created with Sketch.</desc>
    <defs></defs>
    <g id="navigation-states" stroke="none" stroke-width="1" fill="none" fill-rule="evenodd" sketch:type="MSPage">
        <g id="Mobile-320-menu-speck-10" sketch:type="MSArtboardGroup" transform="translate(-175.000000, -1252.000000)" fill="#B7B7B7">
            <g id="©-2015-topcoder.-All-Copy-+-Group" sketch:type="MSLayerGroup" transform="translate(20.000000, 1212.000000)">
                <g id="Group" sketch:type="MSShapeGroup">
                    <g id="linkedin-copy" transform="translate(155.000000, 40.000000)">
                        <path d="M6,3 C6,4.65 4.95,6 3,6 C1.2,6 0,4.65 0,3.15 C0,1.5 1.2,0 3,0 C4.8,0 6,1.35 6,3 L6,3 Z M0,27 L6,27 L6,7.5 L0,7.5 L0,27 L0,27 Z M20.4,7.8 C17.25,7.8 15.45,9.6 14.7,10.8 L14.55,10.8 L14.25,8.25 L8.85,8.25 C8.85,9.9 9,11.85 9,14.1 L9,27 L15,27 L15,16.35 C15,15.75 15,15.3 15.15,14.85 C15.6,13.8 16.35,12.45 18,12.45 C20.1,12.45 21,14.25 21,16.65 L21,27 L27,27 L27,15.9 C27,10.35 24.15,7.8 20.4,7.8 L20.4,7.8 Z" id="ico-linkedin"></path>
                    </g>
                </g>
            </g>
        </g>
    </g>
</svg>