<?xml version="1.0" encoding="UTF-8" standalone="no"?>
<svg width="40px" height="33px" viewBox="0 0 40 33" version="1.1" xmlns="http://www.w3.org/2000/svg" xmlns:xlink="http://www.w3.org/1999/xlink" xmlns:sketch="http://www.bohemiancoding.com/sketch/ns">
    <!-- Generator: Sketch 3.3.3 (12081) - http://www.bohemiancoding.com/sketch -->
    <title>ico-twitter-c</title>
    <desc>Created with Sketch.</desc>
    <defs></defs>
    <g id="Register-Web" stroke="none" stroke-width="1" fill="none" fill-rule="evenodd" sketch:type="MSPage">
        <g id="LogIn-W-Empty" sketch:type="MSArtboardGroup" transform="translate(-622.000000, -594.000000)" fill="#62AADC">
            <g id="Log-In-Icons" sketch:type="MSLayerGroup" transform="translate(362.000000, 585.984000)">
                <g id="Rectangle-19-+-Imported-Layers-+-FACEBOOK" transform="translate(259.000000, 8.000000)" sketch:type="MSShapeGroup">
                    <path d="M36.9043478,8.19690435 C36.9217391,8.54907826 36.9282609,8.9056 36.9282609,9.25777391 C36.9282609,20.1056 28.673913,32.6099478 13.5804348,32.6099478 C8.94347826,32.6099478 4.6326087,31.2512522 1,28.9208174 C1.64347826,28.9969043 2.29565217,29.0360348 2.95652174,29.0360348 C6.80434783,29.0360348 10.3413043,27.7229913 13.1478261,25.5251652 C9.55869565,25.4577739 6.52608696,23.0882087 5.4826087,19.8273391 C5.9826087,19.9208174 6.49782609,19.9708174 7.02608696,19.9708174 C7.77608696,19.9708174 8.50217391,19.8729913 9.18913043,19.6860348 C5.43478261,18.929513 2.60652174,15.6142957 2.60652174,11.6360348 L2.60652174,11.5338609 C3.71304348,12.1490783 4.98043478,12.5186435 6.32391304,12.5621217 C4.12173913,11.0882087 2.67173913,8.57951304 2.67173913,5.72951304 C2.67173913,4.22733913 3.07608696,2.81646957 3.78478261,1.60342609 C7.83043478,6.57081739 13.8804348,9.83603478 20.7,10.179513 C20.5608696,9.57733913 20.4891304,8.95342609 20.4891304,8.30777391 C20.4891304,3.77733913 24.1608696,0.1056 28.6934783,0.1056 C31.0543478,0.1056 33.1869565,1.09907826 34.6847826,2.69473043 C36.5521739,2.32516522 38.3086957,1.64255652 39.8956522,0.703426087 C39.2826087,2.61864348 37.9804348,4.22733913 36.2869565,5.24255652 C37.9478261,5.04255652 39.526087,4.6056 41,3.95125217 C39.9,5.59907826 38.5086957,7.04255652 36.9043478,8.19690435 L36.9043478,8.19690435 Z" id="ico-twitter-c"></path>
                </g>
            </g>
        </g>
    </g>
</svg>