<svg xmlns="http://www.w3.org/2000/svg" width="32" height="32" viewBox="0 0 32 32"><g fill="none" fill-rule="evenodd" stroke="#FFF" stroke-width="2" stroke-linecap="round" stroke-linejoin="round"><path d="M16.045 17.643l-2.272-2.273 6.818-6.818a1.607 1.607 0 1 1 2.273 2.273l-6.819 6.818zm-6.012.526a2.273 2.273 0 0 1 3.214 3.214c-.887.887-4.017.803-4.017.803s-.085-3.13.803-4.017z"/><path d="M23.5 3C19.358 3 16 4.559 16 6.818 16 4.559 12.642 3 8.5 3 4.358 3 1 4.559 1 6.818V30c0-2.259 3.358-4 7.5-4 4.142 0 7.5 1.741 7.5 4 0-2.259 3.358-4 7.5-4 4.142 0 7.5 1.741 7.5 4V6.818C31 4.559 27.642 3 23.5 3z"/></g></svg>