<svg xmlns="http://www.w3.org/2000/svg" width="32" height="32" viewBox="0 0 32 32"><g fill="none" fill-rule="evenodd" stroke="#FFF" stroke-width="2" stroke-linecap="round" stroke-linejoin="round"><path d="M24.598 1H8.013a2.073 2.073 0 0 0-2.074 2.073v21.768c0-1.145.928-2.073 2.074-2.073h16.585a2.073 2.073 0 0 0 2.073-2.073V3.073A2.073 2.073 0 0 0 24.598 1z"/><path d="M15.268 26.914h9.33a2.073 2.073 0 0 0 2.073-2.073v-4.146a2.073 2.073 0 0 1-2.073 2.073H8.012a2.073 2.073 0 0 0 0 4.146H9.05"/><path d="M15.269 31.061l-3.11-2.074-3.11 2.074v-5.183h6.22zM12.159 10.329l-2.073 2.073 2.073 2.073M20.451 10.329l2.074 2.073-2.074 2.073M14.232 16.549l4.146-8.293"/></g></svg>