<svg xmlns="http://www.w3.org/2000/svg" width="32" height="32" viewBox="0 0 32 32"><g fill="none" fill-rule="evenodd" stroke="#FFF" stroke-width="2" stroke-linecap="round" stroke-linejoin="round"><path d="M9.03 8.049C9.03 6.917 9.913 6 11.003 6c1.089 0 1.972.917 1.972 2.049 0 1.131-.883 2.048-1.972 2.048-1.09 0-1.973-.917-1.973-2.048zm10.357 4.097c0-1.131.883-2.049 1.973-2.049s1.973.918 1.973 2.05c0 1.13-.884 2.048-1.973 2.048-1.09 0-1.973-.918-1.973-2.049zM6.194 19.061c0-1.132.883-2.049 1.973-2.049s1.972.917 1.972 2.049c0 1.131-.883 2.048-1.972 2.048-1.09 0-1.973-.917-1.973-2.048zm13.193 2.048c0-1.131.883-2.048 1.973-2.048s1.973.917 1.973 2.048c0 1.132-.884 2.05-1.973 2.05-1.09 0-1.973-.918-1.973-2.05zM8.644 16.764L10.5 10.17M21 18.996v-4.61m-10.832 6.147l8.882.808m.662-1.952l-7.555-9.422M10.3 17.908l9.27-4.738"/><path d="M23.5 3C19.358 3 16 4.559 16 6.818 16 4.559 12.642 3 8.5 3 4.358 3 1 4.559 1 6.818V30c0-2.259 3.358-4 7.5-4 4.142 0 7.5 1.741 7.5 4 0-2.259 3.358-4 7.5-4 4.142 0 7.5 1.741 7.5 4V6.818C31 4.559 27.642 3 23.5 3z"/></g></svg>