<svg xmlns="http://www.w3.org/2000/svg" width="32" height="32" viewBox="0 0 32 32"><g fill="none" fill-rule="evenodd" stroke="#FFF" stroke-width="2" stroke-linecap="round" stroke-linejoin="round"><path d="M23.5 3C19.358 3 16 4.559 16 6.818 16 4.559 12.642 3 8.5 3 4.358 3 1 4.559 1 6.818V30c0-2.259 3.358-4 7.5-4 4.142 0 7.5 1.741 7.5 4 0-2.259 3.358-4 7.5-4 4.142 0 7.5 1.741 7.5 4V6.818C31 4.559 27.642 3 23.5 3z"/><path d="M13.704 23.5H8.518v-4.786h5.186zM13.392 10.533h8.044v1.634M13.837 21.5h7.648v-3M13.185 10.679c0 1.479-1.16 2.678-2.592 2.678C9.16 13.357 8 12.158 8 10.68 8 9.199 9.16 8 10.593 8c1.432 0 2.592 1.2 2.592 2.679z"/><path d="M21.323 12L18 15.433l3.323 3.434 3.323-3.434z"/></g></svg>