<svg xmlns="http://www.w3.org/2000/svg" width="32" height="32" viewBox="0 0 32 32"><g fill="none" fill-rule="evenodd" stroke="#FFF" stroke-width="2" stroke-linecap="round" stroke-linejoin="round"><path d="M7.429 3.688c.946.7 2 1.27 2.696 2.437.608 1.019 1.659 4.184.42 5.784-1.4 1.81-5.454 2.422-5.454 4.09 0 1.257 1.778 2.69 2.727 4.091 1.428 2.108.779 4.151 0 5.456-.403.675-1.09 1.216-1.805 1.646M27.815 6.758c-2.944 1.41-5.399 3.159-7.033 2.742C18.93 9.028 19.09 7.408 18 5.75c-.819-1.244-3.364-2.095-3.364-3.386 0-.506.065-.956.194-1.357"/><path d="M1 16C1 7.716 7.716 1 16 1c8.284 0 15 6.716 15 15 0 8.284-6.716 15-15 15-8.284 0-15-6.716-15-15z"/><path d="M25.565 17.232c.057 4.205-5.8 10.123-8.201 8.313-2.051-1.545-.24-2.482-1.344-8.313-.421-2.22 2.136-4.091 4.772-4.091s4.742 1.832 4.773 4.091z"/></g></svg>