<svg width="36" height="36" viewBox="0 0 36 36" xmlns="http://www.w3.org/2000/svg"><title>icons/nav/data-science</title><g fill="#FFF" fill-rule="evenodd"><path d="M8.538 19.222l5.671-9.965a.9.9 0 0 0-1.564-.89l-5.671 9.964a.9.9 0 0 0 1.564.89zm22.344 2.507v-6.643a.9.9 0 0 0-1.8 0v6.643a.9.9 0 0 0 1.8 0zM7.886 24.684l7.5 5.167a.9.9 0 1 0 1.02-1.482l-7.5-5.167a.9.9 0 1 0-1.02 1.482zm11.186 2.808l-2.927-18.36a.9.9 0 1 0-1.778.283l2.927 18.36a.9.9 0 0 0 1.778-.283z"/><path d="M28.588 22.098L17.521 7.89a.9.9 0 1 0-1.42 1.106l11.067 14.208a.9.9 0 1 0 1.42-1.106z"/><path d="M21.052 28.384L29.283 15.1a.9.9 0 1 0-1.53-.948l-8.231 13.285a.9.9 0 1 0 1.53.948zm.775 2.063l6.037-3.414a.9.9 0 0 0-.886-1.567L20.94 28.88a.9.9 0 1 0 .886 1.567z"/><path d="M9.468 21.64l18.293-7.474a.9.9 0 0 0-.68-1.666L8.787 19.973a.9.9 0 1 0 .68 1.666zM12.68 5.952c0-1.135.91-2.052 2.027-2.052 1.118 0 2.027.917 2.027 2.052 0 1.136-.91 2.053-2.027 2.053s-2.027-.917-2.027-2.053zm-1.8 0c0 2.126 1.712 3.853 3.827 3.853s3.827-1.727 3.827-3.853c0-2.125-1.712-3.852-3.827-3.852S10.88 3.827 10.88 5.952z"/><path d="M28.046 11.857c0-1.135.91-2.052 2.027-2.052 1.118 0 2.027.917 2.027 2.052s-.91 2.053-2.027 2.053-2.027-.918-2.027-2.053zm-1.8 0c0 2.126 1.712 3.853 3.827 3.853s3.827-1.727 3.827-3.853c0-2.126-1.712-3.852-3.827-3.852s-3.827 1.726-3.827 3.852zM3.9 21.822c0-1.135.91-2.052 2.027-2.052s2.027.917 2.027 2.052-.91 2.052-2.027 2.052c-1.118 0-2.027-.917-2.027-2.052zm-1.8 0c0 2.126 1.712 3.852 3.827 3.852s3.827-1.726 3.827-3.852-1.712-3.852-3.827-3.852S2.1 19.696 2.1 21.822zm14.239 8.858c0-1.136.909-2.053 2.026-2.053 1.118 0 2.027.917 2.027 2.052s-.909 2.053-2.027 2.053c-1.117 0-2.026-.918-2.026-2.053zm-1.8 0c0 2.125 1.711 3.852 3.826 3.852 2.116 0 3.827-1.727 3.827-3.853 0-2.126-1.711-3.852-3.827-3.852-2.115 0-3.826 1.726-3.826 3.852zm13.507-5.906c0-1.135.91-2.052 2.027-2.052 1.118 0 2.027.917 2.027 2.052 0 1.136-.91 2.053-2.027 2.053s-2.027-.917-2.027-2.053zm-1.8 0c0 2.126 1.712 3.853 3.827 3.853S33.9 26.9 33.9 24.774c0-2.125-1.712-3.852-3.827-3.852s-3.827 1.727-3.827 3.852z"/></g></svg>