<svg width="73" height="30" viewBox="0 0 73 30" xmlns="http://www.w3.org/2000/svg"><g fill="none" fill-rule="evenodd"><path d="M2.44 3.367L15.45.197c1.347-.329 2.44.502 2.44 1.836v25.95c0 1.342-1.092 2.164-2.44 1.835l-13.01-3.17C1.094 26.32 0 25.268 0 24.311V5.704c0-.962 1.092-2.009 2.44-2.337zm2.37 7.267h4.085v12.194h3.25V10.634h4.083v-2.89H4.811v2.89z" fill="#35C6F4"/><path d="M18.703 17.336v6.975c0 .956.894 2.009 1.997 2.337l10.644 3.17c1.103.329 1.997-.493 1.997-1.836V2.032c0-1.333-.894-2.164-1.997-1.835L20.7 3.367c-1.103.328-1.997 1.375-1.997 2.337v7.581c.848-3.3 3.727-5.716 7.343-5.716 2.7 0 4.984 1.27 6.3 3.196l-2.612 1.795c-.812-1.182-2.13-1.97-3.688-1.97-2.525 0-4.37 2.102-4.37 4.729 0 2.605 1.845 4.707 4.37 4.707 1.58 0 2.964-.854 3.776-2.08l2.59 1.795c-1.317 1.992-3.622 3.306-6.366 3.306-3.616 0-6.495-2.432-7.343-5.711z" fill="#69BD46"/><path d="M37.186 3.367L49.012.197c1.225-.329 2.219.502 2.219 1.836v25.95c0 1.342-.993 2.164-2.219 1.835l-11.826-3.17c-1.226-.328-2.219-1.38-2.219-2.337V5.704c0-.962.993-2.009 2.219-2.337zm-2.219 11.952c0 4.247 3.381 7.728 7.663 7.728 4.303 0 7.684-3.481 7.684-7.728 0-4.291-3.38-7.75-7.684-7.75-4.282 0-7.663 3.459-7.663 7.75zm3.206 0c0-2.518 1.954-4.576 4.457-4.576s4.479 2.058 4.479 4.576c0 2.517-1.976 4.553-4.48 4.553-2.502 0-4.456-2.036-4.456-4.553z" fill="#FCB217"/><path d="M57.782 7.48l-5.533 2.628V12.8l2.46-1.05v10.267h3.073V7.48zm10.235 5.299c-1.8 0-2.723 1.116-2.898 1.62-.066-1.927.527-4.138 2.635-4.138.658 0 1.273.306 1.668 1.138l2.876-1.226c-1.053-2.189-2.722-2.714-4.435-2.78-5.4-.175-6.17 5.43-5.818 9.851.263 3.043 2.437 4.992 5.16 4.992 3.14 0 5.225-1.861 5.225-4.62 0-3.305-2.371-4.837-4.413-4.837zm1.23 4.662a1.9 1.9 0 0 1-1.889 1.883 1.9 1.9 0 0 1-1.888-1.883 1.9 1.9 0 0 1 1.888-1.882 1.9 1.9 0 0 1 1.889 1.882z" fill="#FFF"/></g></svg>