<svg xmlns="http://www.w3.org/2000/svg" width="32" height="32" viewBox="0 0 32 32"><g fill="none" fill-rule="evenodd" stroke="#FFF" stroke-width="2" stroke-linecap="round" stroke-linejoin="round"><path d="M12.464 18l4.92 8.391a2.727 2.727 0 0 1-4.705 2.759L6.14 18M20.669 6.999c2.691.335 4.876 2.719 4.876 5.5 0 2.782-2.232 4.988-4.921 5.325M9 7l-5-.001c-1.506 0-3 2.489-3 5.501C1 15.512 2.494 18 4 18h5"/><path d="M25.5 1c-4.036 0-7.613 2.742-9.5 6H9c-1.506 0-2.545 2.488-2.545 5.5S7.494 18 9 18h7c1.887 3.258 5.464 6 9.5 6"/><path d="M25.5 1C28.538 1 31 6.149 31 12.5S28.538 24 25.5 24 20 18.851 20 12.5 22.462 1 25.5 1z"/></g></svg>