<svg xmlns="http://www.w3.org/2000/svg" width="32" height="32" viewBox="0 0 32 32"><g fill="none" fill-rule="evenodd" stroke="#FFF" stroke-width="2" stroke-linecap="round" stroke-linejoin="round"><path d="M16.46 6.411c-3.804-1.638-8.386-.904-11.492 2.203a10.402 10.402 0 0 0-1.6 2.083l4.463 4.465m17.725.305c1.68 3.818.956 8.438-2.17 11.565a10.388 10.388 0 0 1-2.084 1.6l-4.504-4.503"/><path d="M13.255 26.111l-7.367-7.367S12.181 3.089 29.831 2.168c-.997 17.574-16.576 23.943-16.576 23.943z"/><path d="M16.018 12.298a2.605 2.605 0 1 1 3.684 3.684 2.605 2.605 0 0 1-3.684-3.684zM3.414 24.902a2.605 2.605 0 0 1 3.684 3.684c-1.017 1.017-4.447.763-4.447.763s-.254-3.43.763-4.447z"/></g></svg>