<svg xmlns="http://www.w3.org/2000/svg" width="32" height="32" viewBox="0 0 32 32"><g fill="none" fill-rule="evenodd" stroke="#FFF" stroke-width="2" stroke-linecap="round" stroke-linejoin="round"><path d="M12 16a4 4 0 1 1 8 0 4 4 0 0 1-8 0z"/><path d="M31 19v-6h-3.06a1.923 1.923 0 0 1-1.789-1.223 1.923 1.923 0 0 1 .413-2.098l2.164-2.164-4.243-4.243-2.164 2.164a1.924 1.924 0 0 1-2.122.403A1.924 1.924 0 0 1 19 4.06V1h-6v3.06a1.924 1.924 0 0 1-1.223 1.789 1.924 1.924 0 0 1-2.098-.413L7.515 3.272 3.272 7.515l2.164 2.164a1.923 1.923 0 0 1 .403 2.122A1.923 1.923 0 0 1 4.06 13H1v6h3.06a1.923 1.923 0 0 1 1.789 1.223 1.923 1.923 0 0 1-.413 2.098l-2.164 2.164 4.243 4.243 2.164-2.164a1.923 1.923 0 0 1 2.098-.413l.024.01A1.923 1.923 0 0 1 13 27.94V31h6v-3.06c0-.783.475-1.482 1.199-1.779l.024-.01a1.923 1.923 0 0 1 2.098.413l2.164 2.164 4.243-4.243-2.164-2.164a1.923 1.923 0 0 1-.413-2.098l.01-.024A1.923 1.923 0 0 1 27.94 19H31z"/></g></svg>