<?xml version="1.0" encoding="UTF-8" standalone="no"?>
<svg width="32px" height="32px" viewBox="0 0 32 32" version="1.1" xmlns="http://www.w3.org/2000/svg" xmlns:xlink="http://www.w3.org/1999/xlink">
    <!-- Generator: Sketch 39.1 (31720) - http://www.bohemiancoding.com/sketch -->
    <title>nav/tco-generic</title>
    <desc>Created with Sketch.</desc>
    <defs></defs>
    <g id="Page-1" stroke="none" stroke-width="1" fill="none" fill-rule="evenodd">
        <g id="nav/tco-generic">
            <path d="M4,7 L2,7 L2,21 L4,21 L4,23 L0,23 L0,5 L4,5 L4,7 Z M28,5 L32,5 L32,23 L28,23 L28,21 L30,21 L30,7 L28,7 L28,5 Z" id="[-]" fill="#FFFFFF"></path>
            <g id="business-24px-outline_award-48" transform="translate(7.000000, 8.000000)" stroke-width="2" stroke="#FFFEFE">
                <g id="Group">
                    <polyline id="Shape" points="3.1 10.8 0 17.4 3.6 16.9 5.4 20 8.3 13.9"></polyline>
                    <polyline id="Shape" points="14.9 10.8 18 17.4 14.4 16.9 12.6 20 9.7 13.9"></polyline>
                    <circle id="Oval" cx="9" cy="7" r="7"></circle>
                </g>
            </g>
        </g>
    </g>
</svg>