<svg xmlns="http://www.w3.org/2000/svg" width="32" height="32" viewBox="0 0 32 32"><path d="M11.045 17.327L24.823 3.602a3.776 3.776 0 1 1 5.34 5.34L16.386 22.669l-5.34-5.34zm-.359 5.868c-1.621-1.62-4.237-1.633-5.842-.027-1.026 1.025-1.164 2.298-1.152 3.363.012 1.052-.74 2.014-2.578 2.045 2.581 2.58 7.077 2.985 9.6.462 1.7-1.7 1.45-4.365-.028-5.843zm1.922-17.99L9.404 8.408m18.158 11.749l-3.205 3.204m-5.222 3.323a1735309.675 1735309.675 0 0 1 4.154 4.154l7.477-7.477s-4.544-4.862-4.751-5.078M14.55 7.134L9.404 2 1.927 9.477l4.034 4.034" fill="none" fill-rule="evenodd" stroke="#FFF" stroke-width="2" stroke-linecap="round" stroke-linejoin="round"/></svg>