<svg xmlns="http://www.w3.org/2000/svg" width="32" height="32" viewBox="0 0 32 32"><path d="M9.488 3.857C9.488 2.28 10.755 1 12.318 1c1.562 0 2.828 1.28 2.828 2.857 0 1.578-1.266 2.857-2.829 2.857-1.562 0-2.83-1.279-2.83-2.857zm14.854 5.714c0-1.577 1.266-2.857 2.829-2.857 1.562 0 2.829 1.28 2.829 2.857 0 1.578-1.267 2.858-2.83 2.858-1.562 0-2.829-1.28-2.829-2.858zM1 19.215c0-1.578 1.267-2.857 2.83-2.857 1.562 0 2.829 1.279 2.829 2.857 0 1.578-1.267 2.857-2.83 2.857-1.562 0-2.829-1.28-2.829-2.857zm12.024 8.571c0-1.578 1.267-2.857 2.83-2.857 1.562 0 2.829 1.28 2.829 2.857 0 1.578-1.267 2.857-2.83 2.857-1.562 0-2.829-1.279-2.829-2.857zm11.318-5.714c0-1.578 1.266-2.857 2.829-2.857 1.562 0 2.829 1.28 2.829 2.857 0 1.578-1.267 2.857-2.83 2.857-1.562 0-2.829-1.28-2.829-2.857zM5.598 16.268l5.481-9.643M27 19.125v-6.429M15.677 24.84l-2.83-17.768M25.05 20.017L14.35 6.267m4.42 20.536l5.836-3.303M6.924 18.232L24.607 11" fill="none" fill-rule="evenodd" stroke="#FFF" stroke-width="2" stroke-linecap="round" stroke-linejoin="round"/></svg>