<svg xmlns="http://www.w3.org/2000/svg" xmlns:xlink="http://www.w3.org/1999/xlink" width="94" height="38" viewBox="0 0 94 38">
    <defs>
        <path id="a" d="M.06 2.939V.261h75.743v2.678H.06z"/>
        <path id="c" d="M.06.31V3h64.928V.31H.06z"/>
    </defs>
    <g fill="none" fill-rule="evenodd">
        <path fill="#FFF" d="M93.737 2.847H78.134l.962-2.691h14.641v2.691M52.142.156L66.629.154l.949 2.697c.007-.004-15.431.003-15.431 0 0-.004-.009-2.695-.005-2.695M40.637.156c2.387.23 4.463 1.08 6.231 2.695 0 0-26.259.002-26.259 0V.155l20.028.001M.06 2.846h18.185V.156H.06zM93.737 7.894H76.346s.948-2.676.943-2.677h16.448v2.677M69.37 7.897H52.141V5.216h16.286l.943 2.681M48.913 5.216c.346.884.756 1.639.756 2.677H20.614V5.216h28.299M.06 7.893h18.185V5.216H.06zM74.567 12.954l.955-2.689 13.058.004v2.679l-14.013.006M70.208 10.264l.951 2.69H57.278v-2.69h12.93M49.899 10.263c0 .923-.116 1.884-.384 2.691H41.56v-2.691h8.339M5.087 12.953h7.841v-2.677H5.087zM25.892 12.953h7.827v-2.69h-7.827zM64.988 15.859s.003 2.036.001 2.04h-7.711v-2.677h14.695l.912 2.496c.004.001.88-2.502.882-2.496h14.808v2.677h-7.673l-.004-2.04-.709 2.04-14.492-.004-.709-2.036M25.892 15.222h22.469v-.002c-.49.897-1.382 1.987-2.228 2.679 0 0-20.242.004-20.242 0l.001-2.677M5.087 17.899h7.841v-2.678H5.087zM80.902 22.947h7.673V20.27h-7.673zM64.988 20.27h-7.71v2.676c-.004-.001 7.713.002 7.713 0 0-.001.008-2.676-.003-2.676M79.353 20.27c-.036-.005-.899 2.675-.935 2.676l-10.93.005c-.008-.004-.961-2.686-.962-2.681h12.827M25.89 20.269h20.204a13.19 13.19 0 0 1 2.408 2.677c.038-.001-22.611.002-22.611 0l-.001-2.677M12.927 22.946v-2.677H5.1s.002 2.676 0 2.676l7.827.001M80.902 27.995h7.672v-2.678h-7.672zM57.278 27.994h7.71v-2.677h-7.71zM76.623 28.008c.002-.013.946-2.694.961-2.691h-9.291c-.017-.002.952 2.678.952 2.678s7.376.024 7.378.013M25.891 27.994v-2.678h7.944s.007 2.679 0 2.679-7.944-.004-7.944-.001M49.617 25.316c.384.807.424 1.768.5 2.691H41.7v-2.691h7.917M5.1 27.993h7.827v-2.677H5.1zM80.902 32.94h12.834v-2.679H80.902zM52.141 32.94h12.847v-2.679H52.141z"/>
        <g transform="translate(0 30)">
            <mask id="b" fill="#fff">
                <use xlink:href="#a"/>
            </mask>
            <path fill="#FFF" d="M74.896 2.939h-3.918L70.037.261h5.766l-.907 2.678M.001.261v2.678h18.23c.008.003-.008-2.676 0-2.676L.001.261" mask="url(#b)"/>
        </g>
        <path fill="#FFF" d="M49.783 30.261c-.192.883-.367 1.96-1.013 2.678H20.613v-2.678h29.17M73.12 37.993h-.36l-.916-2.683h2.217l-.941 2.683M80.902 37.999h12.834V35.31H80.902zM20.609 37.993v-2.68l26.413.003c-1.768 1.692-4.194 2.646-6.807 2.683l-19.602-.006"/>
        <g transform="translate(0 35)">
            <mask id="d" fill="#fff">
                <use xlink:href="#c"/>
            </mask>
            <path fill="#FFF" d="M52.141 2.999h12.847V.31H52.141zM18.231.321s-.008 2.672 0 2.672-18.225.011-18.23.005C-.003 2.993.006.313.001.313c-.004 0 18.222.016 18.23.008" mask="url(#d)"/>
        </g>
    </g>
</svg>
