<svg xmlns="http://www.w3.org/2000/svg" width="80" height="55" viewBox="0 0 80 55">
    <g fill="#FFF" fill-rule="nonzero">
        <path d="M74.267 55H5.733L0 49.267V45h31.767l2.5 2.5h11.465l2.5-2.5H80v4.267L74.267 55zm-67.5-2.5h66.466l4.267-4.267V47.5H49.267l-2.5 2.5H33.233l-2.5-2.5H2.5v.733L6.768 52.5zM75 42.5h-2.5V5c0-1.379-1.121-2.5-2.5-2.5H10A2.503 2.503 0 0 0 7.5 5v37.5H5V5c0-2.757 2.242-5 5-5h60c2.757 0 5 2.243 5 5v37.5z"/>
        <path d="M33.75 37.5h2.5V40h-2.5zM28.75 37.5h2.5V40h-2.5zM38.75 37.5h2.5V40h-2.5zM43.75 37.5h2.5V40h-2.5zM48.75 37.5h2.5V40h-2.5z"/>
        <path d="M70 40H53.75v-2.5H67.5v-30h-55v30h13.75V40H10V5h60z"/>
    </g>
</svg>
