<svg xmlns="http://www.w3.org/2000/svg" width="73" height="66" viewBox="0 0 73 66">
    <g fill="#FFF" fill-rule="nonzero">
        <path d="M71.69 47.793h-1.138c-.302 0-.592-.12-.805-.333L56.425 34.138h-5.218v-2.276h5.69c.301 0 .591.12.804.333l12.85 12.851V2.276h-48.93V15.93h-2.276V1.138c0-.628.51-1.138 1.138-1.138H71.69c.628 0 1.138.51 1.138 1.138v45.517c0 .628-.51 1.138-1.138 1.138zM30.724 25.034H33v2.276h-2.276z"/>
        <path d="M35.276 25.034h2.276v2.276h-2.276zM39.828 25.034h2.276v2.276h-2.276zM26.172 6.828h2.276v2.276h-2.276zM30.724 6.828H33v2.276h-2.276zM35.276 6.828h2.276v2.276h-2.276zM6.828 25.034h19.345v2.276H6.828zM6.828 29.586h35.276v2.276H6.828zM51.207 18.207H66v2.276H51.207zM51.207 22.759H66v2.276H51.207z"/>
        <path d="M2.276 66H1.138C.51 66 0 65.49 0 64.862V19.345c0-.628.51-1.138 1.138-1.138h46.655c.628 0 1.138.51 1.138 1.138v31.862c0 .628-.51 1.138-1.138 1.138h-31.39L3.08 65.667a1.135 1.135 0 0 1-.804.333zm0-45.517v42.77l12.85-12.85c.213-.215.503-.334.805-.334h30.724V20.483H2.275zM26.172 11.379H66v2.276H26.172zM42.103 6.828H66v2.276H42.103z"/>
        <path d="M6.828 40.966h23.897v2.276H6.828zM6.828 36.414h35.276v2.276H6.828z"/>
    </g>
</svg>
