<?xml version="1.0" encoding="UTF-8" standalone="no"?>
<!-- Created with Inkscape (http://www.inkscape.org/) -->

<svg
   xmlns:dc="http://purl.org/dc/elements/1.1/"
   xmlns:cc="http://creativecommons.org/ns#"
   xmlns:rdf="http://www.w3.org/1999/02/22-rdf-syntax-ns#"
   xmlns:svg="http://www.w3.org/2000/svg"
   xmlns="http://www.w3.org/2000/svg"
   xmlns:sodipodi="http://sodipodi.sourceforge.net/DTD/sodipodi-0.dtd"
   xmlns:inkscape="http://www.inkscape.org/namespaces/inkscape"
   width="154.20096"
   height="35"
   viewBox="0 0 40.799004 9.2604166"
   version="1.1"
   id="svg1881"
   inkscape:version="0.92.3 (d244b95, 2018-08-02)"
   sodipodi:docname="zurich.svg">
  <defs
     id="defs1875" />
  <sodipodi:namedview
     id="base"
     pagecolor="#ffffff"
     bordercolor="#666666"
     borderopacity="1.0"
     inkscape:pageopacity="0.0"
     inkscape:pageshadow="2"
     inkscape:zoom="4"
     inkscape:cx="198.11348"
     inkscape:cy="-65.532462"
     inkscape:document-units="mm"
     inkscape:current-layer="layer1"
     showgrid="false"
     inkscape:window-width="2493"
     inkscape:window-height="1385"
     inkscape:window-x="67"
     inkscape:window-y="27"
     inkscape:window-maximized="1"
     fit-margin-top="0"
     fit-margin-left="0"
     fit-margin-right="0"
     fit-margin-bottom="0"
     units="px" />
  <metadata
     id="metadata1878">
    <rdf:RDF>
      <cc:Work
         rdf:about="">
        <dc:format>image/svg+xml</dc:format>
        <dc:type
           rdf:resource="http://purl.org/dc/dcmitype/StillImage" />
        <dc:title></dc:title>
      </cc:Work>
    </rdf:RDF>
  </metadata>
  <g
     inkscape:label="Layer 1"
     inkscape:groupmode="layer"
     id="layer1"
     transform="translate(-24.357944,-21.001548)">
    <g
       transform="matrix(0.26607532,0,0,-0.26475732,29.010803,21.001548)"
       id="g1548">
      <path
         inkscape:connector-curvature="0"
         id="path1550"
         style="fill:#004f9f;fill-opacity:1;fill-rule:nonzero;stroke:none"
         d="m 0,0 c -9.657,0 -17.487,-7.829 -17.487,-17.488 0,-3.988 1.336,-7.661 3.582,-10.603 l 14.537,19.103 -1.565,-0.003 -1.552,0.003 c -1.658,0 -3.214,-0.118 -4.338,-0.336 -0.681,-0.134 -1.287,-0.378 -1.781,-0.728 -0.58,-0.406 -1.306,-1.269 -1.781,-2.117 -0.054,-0.099 -0.135,-0.243 -0.237,-0.454 l -0.849,0.194 1.426,5.485 H 8.164 L -6.305,-26.29 c 0.939,0.084 1.317,0.105 2.08,0.105 0.587,0 1.478,-0.038 2.669,-0.107 l 2.571,-0.159 c 0.924,-0.053 1.708,-0.08 2.303,-0.08 1.326,0 2.187,0.103 3.044,0.365 0.663,0.203 1.292,0.509 1.871,0.902 1.016,0.704 2.004,1.828 2.596,2.958 0.057,0.113 0.151,0.289 0.258,0.52 l 0.773,-0.197 c -0.251,-0.959 -0.383,-1.326 -0.767,-2.183 -0.778,-1.736 -1.656,-2.9 -2.862,-3.791 -1.241,-0.918 -2.612,-1.369 -4.235,-1.395 l -0.247,-0.003 c -1.202,0 -2.131,0.1 -5.009,0.54 -2.927,0.451 -4.418,0.605 -5.888,0.605 -0.985,0 -1.9,-0.075 -2.849,-0.231 -1.256,-0.199 -1.748,-0.346 -2.889,-0.865 3.193,-3.483 7.787,-5.671 12.886,-5.671 9.657,0 17.487,7.83 17.487,17.489 C 17.487,-7.829 9.657,0 0,0" />
    </g>
    <g
       transform="matrix(0.26607532,0,0,-0.26475732,49.340661,25.367977)"
       id="g1552">
      <path
         inkscape:connector-curvature="0"
         id="path1554"
         style="fill:#152964;fill-opacity:1;fill-rule:nonzero;stroke:none"
         d="m 0,0 c -0.607,-0.357 -1.231,-0.56 -2.145,-0.69 -0.347,-0.055 -0.649,-0.082 -0.89,-0.082 -0.086,0 -0.146,0.003 -0.276,0.013 v 6.307 c 0.217,0.006 0.299,0.006 0.446,0.006 0.833,0 1.65,-0.099 2.289,-0.281 C -0.146,5.151 0.254,4.937 0.583,4.657 1.158,4.165 1.46,3.453 1.46,2.564 1.46,1.791 1.236,1.134 0.795,0.639 0.588,0.402 0.318,0.191 0,0 m 6.507,-8.353 c -0.6,0.57 -1.136,1.113 -1.931,1.979 -0.506,0.543 -0.92,1.011 -1.243,1.386 l -2.646,3.115 c 0.326,0.097 0.46,0.143 0.754,0.261 0.861,0.34 1.514,0.717 2.102,1.214 0.674,0.568 1.089,1.176 1.341,1.943 0.144,0.432 0.209,0.872 0.209,1.314 0,1.047 -0.388,1.998 -1.15,2.793 C 3.241,6.388 2.268,6.929 1.174,7.189 0.41,7.365 -0.383,7.448 -1.738,7.485 -2.248,7.497 -2.779,7.504 -3.318,7.504 H -7.714 C -7.419,7.229 -7.309,7.107 -7.147,6.862 -7.019,6.666 -6.909,6.456 -6.844,6.242 -6.73,5.858 -6.683,5.33 -6.683,4.426 V -6.753 c 0,-0.806 -0.05,-1.273 -0.188,-1.65 -0.077,-0.191 -0.173,-0.372 -0.294,-0.539 -0.16,-0.201 -0.258,-0.304 -0.576,-0.592 h 5.418 c -0.246,0.262 -0.321,0.347 -0.471,0.554 -0.12,0.163 -0.218,0.34 -0.289,0.52 -0.146,0.377 -0.214,0.784 -0.216,1.575 -0.009,0.255 -0.012,0.543 -0.012,0.853 V -2.2 l 3.157,-3.784 c 0.147,-0.18 0.385,-0.453 0.703,-0.826 0.372,-0.413 0.646,-0.723 0.838,-0.916 0.608,-0.627 1.187,-1.088 1.757,-1.399 0.495,-0.262 0.955,-0.373 1.69,-0.398 0.279,-0.008 0.576,-0.011 0.888,-0.011 H 7.859 C 7.577,-9.309 7.456,-9.213 7.237,-9.022 7.006,-8.819 6.76,-8.6 6.507,-8.353 M 13.631,4.35 c 0.004,1.139 0.033,1.451 0.178,1.913 0.059,0.184 0.142,0.363 0.246,0.53 0.173,0.289 0.298,0.428 0.638,0.711 H 9.224 C 9.578,7.198 9.695,7.074 9.859,6.831 9.967,6.653 10.06,6.468 10.122,6.274 10.247,5.864 10.29,5.453 10.3,4.441 10.3,3.922 10.302,3.58 10.302,3.413 v -10.2 c 0,-0.599 -0.106,-1.235 -0.267,-1.65 C 9.966,-8.609 9.874,-8.779 9.763,-8.934 9.635,-9.12 9.543,-9.223 9.242,-9.534 h 5.408 c -0.266,0.229 -0.362,0.336 -0.524,0.6 -0.115,0.168 -0.206,0.346 -0.271,0.52 -0.146,0.388 -0.23,0.958 -0.23,1.495 V 3.35 Z M 29.977,-7.072 c -1.024,-0.432 -1.963,-0.631 -2.974,-0.631 -1.763,0 -3.27,0.629 -4.388,1.832 -1.106,1.195 -1.697,2.85 -1.697,4.722 0,1.784 0.552,3.443 1.538,4.598 0.426,0.503 0.946,0.927 1.542,1.262 0.965,0.538 2.085,0.818 3.299,0.818 1.038,0 2.044,-0.204 3.058,-0.615 0.632,-0.257 0.861,-0.385 1.403,-0.77 v 3.204 c -0.419,0.137 -0.587,0.183 -1.035,0.279 -0.986,0.208 -1.929,0.302 -3,0.302 -1.831,0 -3.414,-0.294 -4.854,-0.904 -0.862,-0.362 -1.646,-0.83 -2.344,-1.389 -2.099,-1.692 -3.241,-4.139 -3.241,-6.963 0,-2.74 1.101,-5.107 3.111,-6.697 1.661,-1.31 3.797,-1.971 6.365,-1.971 1.602,0 3.101,0.239 4.781,0.763 0.065,0.019 0.157,0.051 0.278,0.089 v 3.094 c -0.41,-0.27 -0.549,-0.358 -0.794,-0.503 -0.33,-0.189 -0.676,-0.365 -1.048,-0.52 M 50.035,4.357 c 0,0.757 0.058,1.333 0.188,1.805 0.06,0.218 0.154,0.43 0.27,0.628 0.177,0.292 0.311,0.431 0.672,0.714 h -5.558 c 0.321,-0.269 0.432,-0.39 0.622,-0.693 0.122,-0.196 0.216,-0.399 0.284,-0.593 0.129,-0.402 0.182,-0.901 0.182,-1.792 V 0.287 h -7.634 v 3.107 c 0,0.944 0.006,1.559 0.045,2.022 0.022,0.276 0.066,0.524 0.137,0.74 0.116,0.366 0.428,0.875 0.705,1.164 0.037,0.041 0.107,0.106 0.189,0.184 H 34.676 C 35.004,7.168 35.091,7.065 35.237,6.848 35.356,6.674 35.46,6.48 35.532,6.271 35.674,5.839 35.701,5.603 35.717,4.468 L 35.736,3.39 v -9.33 c 0,-0.945 -0.019,-1.36 -0.069,-1.795 -0.031,-0.22 -0.091,-0.444 -0.17,-0.677 -0.141,-0.367 -0.336,-0.654 -0.659,-0.952 -0.038,-0.04 -0.1,-0.094 -0.186,-0.17 h 5.396 c -0.236,0.244 -0.316,0.347 -0.458,0.562 -0.099,0.162 -0.195,0.338 -0.273,0.529 -0.173,0.45 -0.227,0.772 -0.25,1.495 -0.005,0.362 -0.006,0.698 -0.006,1.017 v 4.128 h 7.634 v -4.158 c 0,-0.918 -0.01,-1.254 -0.077,-1.731 C 46.59,-7.95 46.531,-8.2 46.434,-8.429 46.311,-8.747 46.116,-9.038 45.822,-9.322 45.772,-9.366 45.699,-9.441 45.589,-9.534 h 5.441 c -0.224,0.223 -0.308,0.319 -0.454,0.527 -0.136,0.188 -0.24,0.373 -0.317,0.56 -0.166,0.402 -0.205,0.7 -0.224,1.541 -0.01,0.5 -0.012,0.792 -0.012,0.882 l 0.012,9.374 z m -84.04,-11.496 c -0.755,-0.138 -1.612,-0.216 -2.675,-0.241 -0.357,-0.011 -0.806,-0.011 -1.362,-0.011 h -2.611 l 10.329,14.895 h -13.399 l -1.645,-3.636 c 0.55,0.293 0.769,0.395 1.244,0.587 0.764,0.302 1.602,0.541 2.41,0.682 0.704,0.12 1.352,0.176 2.402,0.207 0.472,0.015 0.915,0.023 1.324,0.023 h 1.982 L -46.43,-9.534 h 14.735 l 1.701,3.886 c -0.592,-0.34 -0.802,-0.449 -1.252,-0.655 -0.861,-0.392 -1.79,-0.675 -2.759,-0.836 m 18.682,13.981 c 0.107,-0.181 0.196,-0.376 0.251,-0.579 0.12,-0.411 0.151,-0.826 0.151,-1.784 v -6.477 c 0,-1.392 -0.04,-2.216 -0.145,-2.894 -0.065,-0.453 -0.218,-0.874 -0.437,-1.249 -0.415,-0.694 -1.183,-1.227 -2.093,-1.459 -0.371,-0.091 -0.774,-0.139 -1.211,-0.139 -1.462,0 -2.717,0.547 -3.327,1.442 -0.469,0.697 -0.599,1.359 -0.62,3.11 l -0.011,1.405 v 5.137 c 0,0.995 0.005,1.469 0.041,1.977 0.016,0.304 0.059,0.568 0.124,0.782 0.118,0.392 0.409,0.913 0.682,1.234 0.038,0.036 0.078,0.082 0.144,0.152 h -5.537 c 0.34,-0.283 0.449,-0.414 0.616,-0.69 0.108,-0.187 0.193,-0.386 0.241,-0.592 0.068,-0.258 0.109,-0.522 0.117,-0.785 0.002,-0.167 0.005,-0.52 0.006,-1.057 l 0.009,-0.986 v -4.881 c 0,-1.811 0.007,-2.27 0.068,-2.998 0.099,-1.245 0.473,-2.239 1.193,-3.141 1.29,-1.622 3.364,-2.472 6.009,-2.472 1.264,0 2.489,0.193 3.422,0.539 0.983,0.365 1.889,0.973 2.537,1.692 0.788,0.883 1.241,1.969 1.374,3.311 0.086,0.779 0.118,1.707 0.118,3.042 v 4.9 l -0.014,0.973 v 0.191 c 0,0.734 0.04,1.161 0.145,1.555 0.061,0.243 0.16,0.476 0.295,0.689 0.181,0.29 0.309,0.425 0.668,0.71 h -5.432 c 0.33,-0.261 0.446,-0.384 0.616,-0.658" />
    </g>
    <g
       transform="matrix(0.26607532,0,0,-0.26475732,64.371492,22.225602)"
       id="g1556">
      <path
         inkscape:connector-curvature="0"
         id="path1558"
         style="fill:#152964;fill-opacity:1;fill-rule:nonzero;stroke:none"
         d="M 0,0 V 1.042 H 0.297 C 0.684,1.042 1.029,1.013 1.029,0.536 1.029,0.132 0.636,0 0.304,0 Z m 0.675,-0.142 v 0.007 c 0.354,0.044 0.641,0.295 0.641,0.671 0,0.532 -0.337,0.758 -0.853,0.758 H -0.292 V -1.618 H 0 v 1.367 h 0.231 c 0.275,0 0.481,-0.01 0.639,-0.386 l 0.427,-0.981 h 0.319 l -0.501,1.121 c -0.091,0.198 -0.21,0.322 -0.44,0.355 M 0.559,-2.276 c -1.161,0 -2.113,0.947 -2.113,2.117 0,1.169 0.952,2.118 2.113,2.118 1.174,0 2.123,-0.949 2.123,-2.118 0,-1.17 -0.949,-2.117 -2.123,-2.117 m 0,4.505 c -1.312,0 -2.38,-1.066 -2.38,-2.388 0,-1.314 1.068,-2.388 2.38,-2.388 1.326,0 2.393,1.074 2.393,2.388 0,1.322 -1.067,2.388 -2.393,2.388" />
    </g>
  </g>
</svg>
