<?xml version="1.0" encoding="UTF-8"?>
<svg width="14px" height="14px" viewBox="0 0 14 14" version="1.1" xmlns="http://www.w3.org/2000/svg" xmlns:xlink="http://www.w3.org/1999/xlink">
    <!-- Generator: Sketch 46.2 (44496) - http://www.bohemiancoding.com/sketch -->
    <title>Shape</title>
    <desc>Created with Sketch.</desc>
    <defs></defs>
    <g id="Ver-2.0" stroke="none" stroke-width="1" fill="none" fill-rule="evenodd">
        <g id="Task-list-3" transform="translate(-1233.000000, -33.000000)" fill="#5D5D66">
            <g id="Group-6" transform="translate(1220.000000, 20.000000)">
                <g id="Group-4">
                    <path d="M26.7,13.3 C26.3,12.9 25.7,12.9 25.3,13.3 L20,18.6 L14.7,13.3 C14.3,12.9 13.7,12.9 13.3,13.3 C12.9,13.7 12.9,14.3 13.3,14.7 L18.6,20 L13.3,25.3 C12.9,25.7 12.9,26.3 13.3,26.7 C13.5,26.9 13.7,27 14,27 C14.3,27 14.5,26.9 14.7,26.7 L20,21.4 L25.3,26.7 C25.5,26.9 25.8,27 26,27 C26.2,27 26.5,26.9 26.7,26.7 C27.1,26.3 27.1,25.7 26.7,25.3 L21.4,20 L26.7,14.7 C27.1,14.3 27.1,13.7 26.7,13.3 L26.7,13.3 Z" id="Shape"></path>
                </g>
            </g>
        </g>
    </g>
</svg>