<?xml version="1.0" encoding="UTF-8" standalone="no"?>
<svg width="73px" height="26px" viewBox="0 0 73 26" version="1.1" xmlns="http://www.w3.org/2000/svg" xmlns:xlink="http://www.w3.org/1999/xlink" xmlns:sketch="http://www.bohemiancoding.com/sketch/ns">
    <!-- Generator: Sketch 3.3.3 (12081) - http://www.bohemiancoding.com/sketch -->
    <title>winner badge</title>
    <desc>Created with Sketch.</desc>
    <defs></defs>
    <g id="Dashboard-Web" stroke="none" stroke-width="1" fill="none" fill-rule="evenodd" sketch:type="MSPage">
        <g id="Dashboard-Cards" sketch:type="MSArtboardGroup" transform="translate(-2382.000000, -152.000000)">
            <g id="winner-badge" sketch:type="MSLayerGroup" transform="translate(2382.000000, 152.000000)">
                <rect id="Rectangle-130" fill-opacity="0.900000036" fill="#0096FF" sketch:type="MSShapeGroup" x="0" y="0" width="73" height="26"></rect>
                <path d="M15.1519064,19 C15.1001862,19 15.0471317,18.9860073 15.001847,18.9567984 L11,16.5096784 L6.99815301,18.9567984 C6.9009126,19.0171277 6.77518287,19.0126928 6.68249448,18.9471641 C6.58870732,18.8816354 6.5454632,18.7666351 6.57434493,18.6567579 L7.72655352,14.1936159 L4.10095392,11.241917 C4.01281753,11.1698124 3.97836351,11.0525183 4.01368085,10.9451643 C4.04899819,10.8386514 4.14843612,10.7634884 4.26317823,10.7557656 L8.97702279,10.4441791 L10.737239,6.17318856 C10.7804831,6.06881665 10.8853364,6 11,6 C11.1147421,6 11.2195169,6.06881665 11.262761,6.17318856 L13.0229772,10.4441791 L17.7368218,10.7557656 C17.8515639,10.7634884 17.9510803,10.8386514 17.9863192,10.9451643 C18.0216365,11.0525183 17.9871825,11.1686655 17.8990461,11.241917 L14.273525,14.1936159 L15.4256551,18.6567579 C15.4545368,18.7666351 15.4112927,18.8805649 15.3175055,18.9471641 C15.2689246,18.9815724 15.2103763,19 15.1519064,19" id="ico-star-copy-4" fill="#FFFFFF" sketch:type="MSShapeGroup"></path>
                <path d="M27.94,14.45 L27.03,11.08 L25.83,11.08 C25.53,12.19 25.22,13.36 24.91,14.45 L23.57,10.11 L21.99,10.11 L24.31,17 L25.47,17 L26.42,13.38 L27.39,17 L28.54,17 L30.88,10.11 L29.29,10.11 L27.94,14.45 Z M32.67,10.11 L32.67,17 L34.13,17 L34.13,10.11 L32.67,10.11 Z M41.92,10.11 L40.45,10.11 L40.45,14.23 L38.09,10.11 L36.75,10.11 L36.75,17 L38.21,17 L38.21,12.83 L40.61,17 L41.92,17 L41.92,10.11 Z M49.71,10.11 L48.24,10.11 L48.24,14.23 L45.88,10.11 L44.54,10.11 L44.54,17 L46,17 L46,12.83 L48.4,17 L49.71,17 L49.71,10.11 Z M52.33,17 L56.78,17 L56.78,15.71 L53.79,15.71 L53.79,14.24 L56.33,14.24 L56.33,12.97 L53.79,12.97 L53.79,11.4 L56.69,11.4 L56.69,10.11 L52.33,10.11 L52.33,17 Z M61.84,11.4 C62.39,11.4 62.67,11.94 62.67,12.37 C62.67,12.82 62.37,13.34 61.8,13.34 L60.56,13.34 L60.56,11.4 L61.84,11.4 Z M62.48,14.56 C63.66,14.31 64.2,13.35 64.2,12.37 C64.2,11.24 63.47,10.11 61.91,10.11 L59.09,10.11 L59.09,17 L60.56,17 L60.56,14.62 L60.89,14.62 L62.43,17 L64.19,17 L62.48,14.56 Z" id="WINNER" fill="#FFFFFF" sketch:type="MSShapeGroup"></path>
            </g>
        </g>
    </g>
</svg>