<?xml version="1.0" encoding="UTF-8" standalone="no"?>
<svg width="24px" height="18px" viewBox="0 0 24 18" version="1.1" xmlns="http://www.w3.org/2000/svg" xmlns:xlink="http://www.w3.org/1999/xlink" xmlns:sketch="http://www.bohemiancoding.com/sketch/ns">
    <!-- Generator: Sketch 3.3.3 (12081) - http://www.bohemiancoding.com/sketch -->
    <title>ico-submissions</title>
    <desc>Created with Sketch.</desc>
    <defs></defs>
    <g id="Dashboard" stroke="none" stroke-width="1" fill="none" fill-rule="evenodd" sketch:type="MSPage">
        <g id="Cards---Specks" sketch:type="MSArtboardGroup" transform="translate(-161.000000, -1494.000000)" fill="#D1D3D4">
            <g id="card-dashboard-cta" sketch:type="MSLayerGroup" transform="translate(87.000000, 1154.000000)">
                <g id="Rectangle-311-+-Group" transform="translate(22.000000, 338.000000)" sketch:type="MSShapeGroup">
                    <g id="Group">
                        <path d="M59.7201355,15 C59.4842948,15 59.2464555,14.9148712 59.0565838,14.7415365 L54,10.1281685 L59.3373941,5.25838826 C59.7491159,4.88402647 60.3806892,4.91992418 60.7474414,5.34351711 C61.1141937,5.76711004 61.0772187,6.41532004 60.6644975,6.79173313 L57.0079678,10.1281685 L60.3836872,13.207166 C60.7964084,13.5835791 60.8333834,14.2317891 60.4666312,14.655382 C60.2697642,14.8841017 59.9949498,15 59.7201355,15 L59.7201355,15 Z M68.6626059,14.7415578 L74,9.87217837 L68.9434162,5.25919003 C68.530695,4.88280792 67.8991217,4.9207538 67.5333688,5.34431187 C67.1666166,5.76786994 67.2035916,6.41602659 67.6163128,6.7924087 L70.9920322,9.87217837 L67.3355025,13.2073136 C66.9227813,13.5836957 66.8858063,14.2318523 67.2525586,14.6554104 C67.4494255,14.8841112 67.7242399,15 67.9990542,15 C68.2348949,15 68.4727342,14.9148782 68.6626059,14.7415578 L68.6626059,14.7415578 Z M63.9859987,16.165004 L65.9861796,4.16506159 C66.0771879,3.62006421 65.7091546,3.10506668 65.1641053,3.01406712 C64.6170558,2.92206756 64.1030093,3.29106579 64.0140013,3.83606317 L62.0138204,15.8360056 C61.9228121,16.381003 62.2908454,16.8960005 62.8358947,16.9870001 C62.8918998,16.996 62.9459047,17 63.0009096,17 C63.4809531,17 63.9049914,16.6530017 63.9859987,16.165004 L63.9859987,16.165004 Z" id="ico-submissions"></path>
                    </g>
                </g>
            </g>
        </g>
    </g>
</svg>