<svg width="14px" height="12px" viewBox="0 0 14 12" version="1.1" xmlns="http://www.w3.org/2000/svg" xmlns:xlink="http://www.w3.org/1999/xlink" xmlns:sketch="http://www.bohemiancoding.com/sketch/ns">
    <title>list-off</title>
    <desc>Created with Sketch.</desc>
    <defs></defs>
    <g id="Dashboard-Web" stroke="none" stroke-width="1" fill="none" fill-rule="evenodd" sketch:type="MSPage">
        <g id="Dashboard-Cards" sketch:type="MSArtboardGroup" transform="translate(-2517.000000, -180.000000)" fill="#A3A3AE">
            <path d="M2528,185 L2523,185 C2522.048,185 2522,185.447 2522,186 C2522,186.553 2522.048,187 2523,187 L2528,187 C2528.952,187 2529,186.553 2529,186 C2529,185.447 2528.952,185 2528,185 L2528,185 Z M2530,190 L2523,190 C2522.048,190 2522,190.447 2522,191 C2522,191.553 2522.048,192 2523,192 L2530,192 C2530.952,192 2531,191.553 2531,191 C2531,190.447 2530.952,190 2530,190 L2530,190 Z M2523,182 L2530,182 C2530.952,182 2531,181.553 2531,181 C2531,180.447 2530.952,180 2530,180 L2523,180 C2522.048,180 2522,180.447 2522,181 C2522,181.553 2522.048,182 2523,182 L2523,182 Z M2519,185 L2518,185 C2517.048,185 2517,185.447 2517,186 C2517,186.553 2517.048,187 2518,187 L2519,187 C2519.952,187 2520,186.553 2520,186 C2520,185.447 2519.952,185 2519,185 L2519,185 Z M2519,190 L2518,190 C2517.048,190 2517,190.447 2517,191 C2517,191.553 2517.048,192 2518,192 L2519,192 C2519.952,192 2520,191.553 2520,191 C2520,190.447 2519.952,190 2519,190 L2519,190 Z M2519,180 L2518,180 C2517.048,180 2517,180.447 2517,181 C2517,181.553 2517.048,182 2518,182 L2519,182 C2519.952,182 2520,181.553 2520,181 C2520,180.447 2519.952,180 2519,180 L2519,180 Z" id="list-off" sketch:type="MSShapeGroup"></path>
        </g>
    </g>
</svg>