<svg width="14px" height="12px" viewBox="0 0 14 12" version="1.1" xmlns="http://www.w3.org/2000/svg" xmlns:xlink="http://www.w3.org/1999/xlink" xmlns:sketch="http://www.bohemiancoding.com/sketch/ns">
    <title>list-on</title>
    <desc>Created with Sketch.</desc>
    <defs></defs>
    <g id="Dashboard-Web" stroke="none" stroke-width="1" fill="none" fill-rule="evenodd" sketch:type="MSPage">
        <g id="Dashboard-Cards" sketch:type="MSArtboardGroup" transform="translate(-2517.000000, -153.000000)" fill="#3D3D3D">
            <path d="M2528,158 L2523,158 C2522.048,158 2522,158.447 2522,159 C2522,159.553 2522.048,160 2523,160 L2528,160 C2528.952,160 2529,159.553 2529,159 C2529,158.447 2528.952,158 2528,158 L2528,158 Z M2530,163 L2523,163 C2522.048,163 2522,163.447 2522,164 C2522,164.553 2522.048,165 2523,165 L2530,165 C2530.952,165 2531,164.553 2531,164 C2531,163.447 2530.952,163 2530,163 L2530,163 Z M2523,155 L2530,155 C2530.952,155 2531,154.553 2531,154 C2531,153.447 2530.952,153 2530,153 L2523,153 C2522.048,153 2522,153.447 2522,154 C2522,154.553 2522.048,155 2523,155 L2523,155 Z M2519,158 L2518,158 C2517.048,158 2517,158.447 2517,159 C2517,159.553 2517.048,160 2518,160 L2519,160 C2519.952,160 2520,159.553 2520,159 C2520,158.447 2519.952,158 2519,158 L2519,158 Z M2519,163 L2518,163 C2517.048,163 2517,163.447 2517,164 C2517,164.553 2517.048,165 2518,165 L2519,165 C2519.952,165 2520,164.553 2520,164 C2520,163.447 2519.952,163 2519,163 L2519,163 Z M2519,153 L2518,153 C2517.048,153 2517,153.447 2517,154 C2517,154.553 2517.048,155 2518,155 L2519,155 C2519.952,155 2520,154.553 2520,154 C2520,153.447 2519.952,153 2519,153 L2519,153 Z" id="list-on" sketch:type="MSShapeGroup"></path>
        </g>
    </g>
</svg>