<?xml version="1.0" encoding="UTF-8" standalone="no"?>
<svg width="27px" height="28px" viewBox="0 0 27 28" version="1.1" xmlns="http://www.w3.org/2000/svg" xmlns:xlink="http://www.w3.org/1999/xlink">
    <!-- Generator: Sketch 47.1 (45422) - http://www.bohemiancoding.com/sketch -->
    <title>icon facebook</title>
    <desc>Created with Sketch.</desc>
    <defs></defs>
    <g id="Prize-Variaton-V7" stroke="none" stroke-width="1" fill="none" fill-rule="evenodd">
        <g id="01-Challenge-Details-" transform="translate(-584.000000, -790.000000)" fill="#A3A3AD">
            <g id="footer" transform="translate(1.000000, 668.000000)">
                <path d="M607,122.5 L586,122.5 C584.35,122.5 583,123.85 583,125.5 L583,146.5 C583,148.1515 584.35,149.5 586,149.5 L596.5,149.5 L596.5,139 L593.5,139 L593.5,135.2875 L596.5,135.2875 L596.5,132.2125 C596.5,128.9665 598.318,126.6865 602.149,126.6865 L604.8535,126.6895 L604.8535,130.597 L603.058,130.597 C601.567,130.597 601,131.716 601,132.754 L601,135.289 L604.852,135.289 L604,139 L601,139 L601,149.5 L607,149.5 C608.65,149.5 610,148.1515 610,146.5 L610,125.5 C610,123.85 608.65,122.5 607,122.5 L607,122.5 Z" id="icon-facebook"></path>
            </g>
        </g>
    </g>
</svg>