<?xml version="1.0" encoding="UTF-8" standalone="no"?>
<svg width="28px" height="27px" viewBox="0 0 28 27" version="1.1" xmlns="http://www.w3.org/2000/svg" xmlns:xlink="http://www.w3.org/1999/xlink">
    <!-- Generator: Sketch 47.1 (45422) - http://www.bohemiancoding.com/sketch -->
    <title>icon google plus</title>
    <desc>Created with Sketch.</desc>
    <defs></defs>
    <g id="Prize-Variaton-V7" stroke="none" stroke-width="1" fill="none" fill-rule="evenodd">
        <g id="01-Challenge-Details-" transform="translate(-755.000000, -790.000000)" fill="#A3A3AD">
            <g id="footer" transform="translate(1.000000, 668.000000)">
                <path d="M755.45,129.0835 C755.45,131.3245 756.211632,132.9415 757.712,133.891 C758.942211,134.671 760.367789,134.788 761.109579,134.788 C761.289684,134.788 761.434684,134.779 761.535421,134.773 C761.535421,134.773 761.300368,136.279 762.435947,137.767 L762.384053,137.767 C760.416632,137.767 754,138.1705 754,143.3575 C754,148.6315 759.893105,148.9 761.076,148.9 C761.169105,148.9 761.224053,148.897 761.224053,148.897 C761.236263,148.897 761.320211,148.9 761.465211,148.9 C762.223789,148.9 764.185105,148.807 766.006,147.9355 C768.368737,146.8105 769.566895,144.847 769.566895,142.108 C769.566895,139.462 767.741421,137.887 766.408947,136.735 C765.595421,136.0315 764.891789,135.4255 764.891789,134.836 C764.891789,134.236 765.406158,133.7845 766.054842,133.213 C767.106474,132.2905 768.098579,130.975 768.098579,128.488 C768.098579,126.3025 767.810105,124.834 766.031947,123.9025 C766.216632,123.8095 766.872947,123.742 767.196526,123.697 C768.159632,123.568 769.568421,123.421 769.568421,122.6485 L769.568421,122.5 L762.548895,122.5 C762.478684,122.503 755.45,122.758 755.45,129.0835 L755.45,129.0835 Z M766.781368,142.603 C766.915684,144.712 765.079526,146.2675 762.321474,146.464 C759.520684,146.6665 757.215947,145.4275 757.081632,143.32 C757.016,142.306 757.469316,141.316 758.356105,140.5255 C759.255105,139.726 760.489895,139.231 761.833053,139.1335 C761.991789,139.1245 762.149,139.1155 762.306211,139.1155 C764.899421,139.117 766.654684,140.614 766.781368,142.603 L766.781368,142.603 Z M764.948263,127.639 C765.636632,130.021 764.597211,132.508 762.939632,132.9685 C762.748842,133.021 762.553474,133.0465 762.353526,133.0465 C760.836368,133.0465 759.332947,131.5375 758.774316,129.457 C758.462947,128.293 758.488895,127.27 758.846053,126.289 C759.195579,125.3215 759.827474,124.672 760.621158,124.4515 C760.811947,124.399 761.008842,124.372 761.208789,124.372 C763.040368,124.372 764.218684,125.119 764.948263,127.639 L764.948263,127.639 Z M776.835211,132.7 L776.835211,128.2 L773.782579,128.2 L773.782579,132.7 L769.203632,132.7 L769.203632,135.7 L773.782579,135.7 L773.782579,140.2 L776.835211,140.2 L776.835211,135.7 L781.414158,135.7 L781.414158,132.7 L776.835211,132.7 L776.835211,132.7 Z" id="icon-google-plus"></path>
            </g>
        </g>
    </g>
</svg>