<?xml version="1.0" ?><!DOCTYPE svg  PUBLIC '-//W3C//DTD SVG 1.0//EN'  'http://www.w3.org/TR/2001/REC-SVG-20010904/DTD/svg10.dtd'><svg enable-background="new 0 0 32 32" height="32px" id="Layer_1" version="1.0" viewBox="0 0 32 32" width="32px" xml:space="preserve" xmlns="http://www.w3.org/2000/svg" xmlns:xlink="http://www.w3.org/1999/xlink"><g><path d="M16.425,18.415c-0.897-0.634-2.609-2.176-2.609-3.083c0-1.062,0.303-1.586,1.902-2.835   c1.638-1.281,2.799-3.38,2.799-5.476C18.517,4.529,17.405,3,15.321,1h3.144l2.218-1c0,0-7.434,0-9.913,0   C6.325,0,2.144,3.362,2.144,7.261c0,3.986,3.029,7.201,7.551,7.201c0.314,0,0.619-0.008,0.919-0.028   c-0.294,0.56-0.503,1.192-0.503,1.849c0,1.108,0.596,2.006,1.348,2.74c-0.567,0-1.118,0.016-1.717,0.016   C4.235,19.038,0,22.543,0,26.179C0,29.758,4.645,32,10.148,32c6.276,0,9.741-3.562,9.741-7.142   C19.89,21.987,19.042,20.269,16.425,18.415z M11.129,13.448c-2.555-0.076-4.981-2.857-5.422-6.209   c-0.44-3.355,1.272-5.922,3.824-5.846c2.554,0.078,4.981,2.768,5.423,6.122C15.395,10.87,13.681,13.524,11.129,13.448z    M10.128,30.415c-3.805,0-6.553-2.407-6.553-5.301c0-2.834,3.408-5.195,7.214-5.154c0.888,0.01,1.715,0.152,2.465,0.395   c2.066,1.438,3.548,2.25,3.968,3.885c0.076,0.332,0.121,0.675,0.121,1.023C17.343,28.155,15.478,30.415,10.128,30.415z" fill="#E02F2F"/><polygon fill="#E02F2F" points="27,14 27,9 25,9 25,14 20,14 20,16 25,16 25,21 27,21 27,16 32,16 32,14  "/></g><g/><g/><g/><g/><g/><g/></svg>