<?xml version="1.0" encoding="UTF-8"?>
<svg width="24px" height="24px" viewBox="0 0 24 24" version="1.1" xmlns="http://www.w3.org/2000/svg" xmlns:xlink="http://www.w3.org/1999/xlink">
    <title>Join Topcoder Discord</title>
    <g id="Discord" stroke="none" stroke-width="1" fill="none" fill-rule="evenodd">
        <g id="04-2-Join-Discord" transform="translate(-1334.000000, -1277.000000)" fill="#AAAAAA">
            <g id="Footer" transform="translate(0.000000, 1036.000000)">
                <g id="Stacked-Group" transform="translate(1189.000000, 241.000000)">
                    <g id="icon-discord" transform="translate(145.000000, 0.000000)">
                        <path d="M12,2 C17.514,2 22,6.486 22,12 C22,17.514 17.514,22 12,22 C6.486,22 2,17.514 2,12 C2,6.486 6.486,2 12,2 Z M12,0 C5.373,0 0,5.373 0,12 C0,18.627 5.373,24 12,24 C18.627,24 24,18.627 24,12 C24,5.373 18.627,0 12,0 Z" id="icon"></path>
                        <g id="logo/discord" transform="translate(6.000000, 7.000000)" fill-rule="nonzero">
                            <g id="Stacked-Group">
                                <path d="M11.005049,0.828945437 C10.176473,0.44526264 9.28795046,0.162582067 8.35894485,0.000679161682 C8.34202654,-0.00244551376 8.32512654,0.00536321832 8.31641105,0.0209810521 C8.20213922,0.226091881 8.07556317,0.493675707 7.98692514,0.703995376 C6.98771953,0.55302791 5.99364068,0.55302791 5.0149238,0.703995376 C4.92626747,0.489000705 4.79509564,0.226091881 4.68031114,0.0209810521 C4.67159564,0.00588430553 4.65469564,-0.00192442655 4.63777733,0.000679161682 C3.7092844,0.162064675 2.82076188,0.444745249 1.99167317,0.828945437 C1.98449571,0.832068264 1.97834359,0.837279137 1.9742605,0.844042183 C0.288920395,3.38506299 -0.172764706,5.86362725 0.0537225701,8.31146214 C0.0547473729,8.32343606 0.0614086826,8.33489259 0.070632274,8.34217303 C1.1825715,9.16626691 2.25967457,9.66656607 3.31677596,9.9981771 C3.33369427,10.003388 3.35161962,9.99714232 3.36238581,9.98308035 C3.61244356,9.63846062 3.83534778,9.27508544 4.02646608,8.89295482 C4.03774495,8.87057764 4.02697876,8.84402436 4.00392664,8.83517327 C3.65036327,8.69981994 3.3136999,8.53479051 2.98985343,8.3473839 C2.96423794,8.33228715 2.96218723,8.29531214 2.98575202,8.27760995 C3.05390132,8.22607406 3.12206892,8.17245012 3.18714216,8.11830879 C3.1989154,8.10842291 3.21532103,8.10633487 3.22916328,8.11258052 C5.35669563,9.09287122 7.66000261,9.09287122 9.76243214,8.11258052 C9.77627439,8.10581748 9.79268003,8.10790552 9.80496594,8.1177914 C9.87005749,8.17193273 9.93820678,8.22607406 10.0068688,8.27760995 C10.0304335,8.29531214 10.0288955,8.33228715 10.00328,8.3473839 C9.67943355,8.53843073 9.34277018,8.69981994 8.98869413,8.83465588 C8.96564202,8.84350697 8.9553885,8.87057764 8.96666737,8.89295482 C9.16188708,9.27454957 9.3847913,9.63792475 9.63023496,9.98256296 C9.64048848,9.99714232 9.65892651,10.003388 9.67584482,9.9981771 C10.738073,9.66656607 11.8151687,9.16626691 12.9271081,8.34217303 C12.936849,8.33489259 12.9430011,8.32395345 12.9440264,8.31197954 C13.2150856,5.48201402 12.4900152,3.02377586 11.021949,0.844559575 C11.0183603,0.837279137 11.0122265,0.832068264 11.005049,0.828945437 Z M4.52167624,6.47058824 C3.90194517,6.47058824 3.39130435,5.9425739 3.39130435,5.29411765 C3.39130435,4.64566139 3.89204237,4.11764706 4.52167624,4.11764706 C5.15625265,4.11764706 5.66195093,4.65029757 5.65203041,5.29411765 C5.65203041,5.9425739 5.15129239,6.47058824 4.52167624,6.47058824 Z M8.47818051,6.47058824 C7.85846703,6.47058824 7.34782609,5.9425739 7.34782609,5.29411765 C7.34782609,4.64566139 7.84854651,4.11764706 8.47818051,4.11764706 C9.11277478,4.11764706 9.61845546,4.65029757 9.60855266,5.29411765 C9.60855266,5.9425739 9.11277478,6.47058824 8.47818051,6.47058824 Z" id="Shape"></path>
                            </g>
                        </g>
                    </g>
                </g>
            </g>
        </g>
    </g>
</svg>
