<?xml version="1.0" encoding="UTF-8"?>
<svg width="24px" height="24px" viewBox="0 0 24 24" version="1.1" xmlns="http://www.w3.org/2000/svg" xmlns:xlink="http://www.w3.org/1999/xlink">
    <!-- Generator: sketchtool 62 (101010) - https://sketch.com -->
    <desc>Created with sketchtool.</desc>
    <g id="Symbols" stroke="none" stroke-width="1" fill="none" fill-rule="evenodd">
        <g id="icon-youtube" fill="#AAAAAA">
            <path d="M16.23,7.102 C14.228,6.966 9.768,6.967 7.769,7.102 C5.604,7.25 5.35,8.558 5.333,12 C5.35,15.436 5.603,16.75 7.77,16.898 C9.769,17.033 14.229,17.034 16.231,16.898 C18.396,16.75 18.651,15.441 18.668,12 C18.65,8.564 18.397,7.25 16.23,7.102 L16.23,7.102 Z M10,14.222 L10,9.778 L14.778,11.996 L10,14.222 Z M12,2 C17.514,2 22,6.486 22,12 C22,17.514 17.514,22 12,22 C6.486,22 2,17.514 2,12 C2,6.486 6.486,2 12,2 Z M12,0 C5.373,0 0,5.373 0,12 C0,18.627 5.373,24 12,24 C18.627,24 24,18.627 24,12 C24,5.373 18.627,0 12,0 Z"></path>
        </g>
    </g>
</svg>