<?xml version="1.0" encoding="UTF-8"?>
<svg width="24px" height="24px" viewBox="0 0 24 24" version="1.1" xmlns="http://www.w3.org/2000/svg" xmlns:xlink="http://www.w3.org/1999/xlink">
    <!-- Generator: sketchtool 62 (101010) - https://sketch.com -->
    <desc>Created with sketchtool.</desc>
    <g id="Symbols" stroke="none" stroke-width="1" fill="none" fill-rule="evenodd">
        <g id="icon-instagram" fill="#AAAAAA">
            <path d="M12,2 C17.514,2 22,6.486 22,12 C22,17.514 17.514,22 12,22 C6.486,22 2,17.514 2,12 C2,6.486 6.486,2 12,2 Z M12,0 C5.373,0 0,5.373 0,12 C0,18.627 5.373,24 12,24 C18.627,24 24,18.627 24,12 C24,5.373 18.627,0 12,0 Z M12,7.082 C13.602,7.082 13.792,7.088 14.425,7.117 C16.052,7.191 16.81,7.962 16.885,9.576 C16.913,10.209 16.919,10.398 16.919,12 C16.919,13.602 16.913,13.792 16.885,14.424 C16.81,16.037 16.053,16.81 14.425,16.884 C13.792,16.912 13.603,16.919 12,16.919 C10.398,16.919 10.208,16.913 9.576,16.884 C7.946,16.809 7.191,16.035 7.116,14.424 C7.088,13.792 7.081,13.602 7.081,12 C7.081,10.398 7.088,10.208 7.116,9.576 C7.19,7.961 7.948,7.19 9.576,7.116 C10.208,7.087 10.398,7.082 12,7.082 Z M12,6 C10.37,6 10.167,6.007 9.526,6.037 C7.346,6.137 6.136,7.346 6.036,9.526 C6.007,10.167 6,10.371 6,12 C6,13.63 6.007,13.834 6.036,14.474 C6.136,16.653 7.346,17.864 9.526,17.964 C10.167,17.993 10.37,18 12,18 C13.63,18 13.834,17.993 14.475,17.964 C16.651,17.864 17.866,16.655 17.964,14.474 C17.993,13.834 18,13.63 18,12 C18,10.371 17.993,10.167 17.964,9.526 C17.866,7.349 16.655,6.136 14.475,6.037 C13.834,6.007 13.63,6 12,6 L12,6 Z M12,8.919 C10.299,8.919 8.919,10.298 8.919,12 C8.919,13.702 10.299,15.081 12,15.081 C13.701,15.081 15.081,13.702 15.081,12 C15.081,10.299 13.701,8.919 12,8.919 Z M12,14 C10.895,14 10,13.105 10,12 C10,10.896 10.895,10 12,10 C13.104,10 14.001,10.895 14.001,12 C14.001,13.105 13.104,14 12,14 Z M15.202,8.078 C14.805,8.078 14.482,8.4 14.482,8.798 C14.482,9.195 14.804,9.518 15.202,9.518 C15.6,9.518 15.923,9.196 15.923,8.798 C15.923,8.4 15.601,8.078 15.202,8.078 Z"></path>
        </g>
    </g>
</svg>