<?xml version="1.0" encoding="UTF-8"?>
<svg width="24px" height="24px" viewBox="0 0 24 24" version="1.1" xmlns="http://www.w3.org/2000/svg" xmlns:xlink="http://www.w3.org/1999/xlink">
    <!-- Generator: sketchtool 62 (101010) - https://sketch.com -->
    <desc>Created with sketchtool.</desc>
    <g id="Symbols" stroke="none" stroke-width="1" fill="none" fill-rule="evenodd">
        <g id="icon-twitter" fill="#AAAAAA">
            <path d="M12,2 C17.514,2 22,6.486 22,12 C22,17.514 17.514,22 12,22 C6.486,22 2,17.514 2,12 C2,6.486 6.486,2 12,2 Z M12,0 C5.373,0 0,5.373 0,12 C0,18.627 5.373,24 12,24 C18.627,24 24,18.627 24,12 C24,5.373 18.627,0 12,0 Z M18.5,8.778 C18.059,8.974 17.584,9.106 17.086,9.166 C17.595,8.861 17.984,8.379 18.169,7.804 C17.693,8.086 17.166,8.291 16.605,8.401 C16.157,7.922 15.516,7.623 14.809,7.623 C13.219,7.623 12.051,9.106 12.41,10.646 C10.365,10.543 8.55,9.563 7.336,8.074 C6.691,9.18 7.002,10.628 8.098,11.361 C7.695,11.348 7.316,11.237 6.984,11.053 C6.957,12.193 7.775,13.26 8.959,13.498 C8.613,13.592 8.233,13.614 7.847,13.54 C8.16,14.518 9.071,15.229 10.147,15.249 C9.11,16.061 7.807,16.424 6.5,16.27 C7.59,16.969 8.883,17.376 10.273,17.376 C14.845,17.376 17.427,13.515 17.271,10.052 C17.753,9.706 18.17,9.272 18.5,8.778 L18.5,8.778 Z"></path>
        </g>
    </g>
</svg>