<?xml version="1.0" encoding="UTF-8"?>
<svg width="79px" height="30px" viewBox="0 0 79 30" version="1.1" xmlns="http://www.w3.org/2000/svg" xmlns:xlink="http://www.w3.org/1999/xlink">
    <!-- Generator: sketchtool 62 (101010) - https://sketch.com -->
    <desc>Created with sketchtool.</desc>
    <g id="Designs-Pages" stroke="none" stroke-width="1" fill="none" fill-rule="evenodd">
        <g id="01-Crowd-for-Good" transform="translate(-680.000000, -2885.000000)" fill="#555555">
            <g id="Footer" transform="translate(0.000000, 2855.000000)">
                <g id="footer">
                    <g id="tc-logo/inverted/with-text" transform="translate(680.000000, 30.000000)">
                        <g id="TC-logo-inverted">
                            <path d="M0.27901185,13.4630123 C1.65092087,9.2675542 8.35752015,8.20910163 18.2157659,10.0490801 C13.7184956,15.6462307 9.26803402,25.0421437 8.77377149,30 C7.70778086,29.8258517 6.75150386,29.2382906 5.90354375,28.1393283 C1.31725383,22.1947045 -0.806256261,16.7812936 0.27901185,13.4630123 Z M59.0486771,10.3773491 C59.3630978,10.7547446 59.6863263,11.1804213 60.017361,11.6522202 C61.391231,13.6102939 62.8613252,16.3032009 64.3763504,19.540429 C65.5612788,22.0723231 66.7053154,24.7883628 67.7648021,27.5048249 C68.1118759,28.3947018 68.4264229,29.2249586 68.7040449,29.9768847 C68.1042798,29.8745915 67.481328,29.6755776 66.8458791,29.3949075 C66.1289661,29.0782557 65.5890782,28.7618093 64.9095395,28.3119264 C52.845184,20.3248193 52.0689703,19.8369773 47.8968611,17.9813136 C45.9004259,17.0933426 43.9583841,16.425187 41.9784019,15.9605803 L41.9784019,15.9605803 L42.0989179,15.9060897 C47.0970312,13.6544718 55.1509454,11.0402874 59.0486771,10.3773491 Z M21.4370445,23.6421988 L21.429,23.647 L21.4032227,23.6655021 C21.093624,23.8782057 18.7471822,25.4861953 17.9306632,26.0376051 L17.8464161,26.0944002 C16.5166416,26.9890076 15.4204719,27.6939525 14.3769225,28.3163852 C12.9564019,29.1636651 11.5440186,29.7652027 10.356999,29.9714456 C10.9109002,25.1705247 15.5493141,15.5806416 19.9907329,10.392041 C24.3238325,11.1458236 31.5931756,13.5978092 36.824401,15.9287773 C32.1307214,16.9598868 27.8065782,19.296442 21.426091,23.6496414 L21.428,23.647 L21.4370445,23.6421988 L21.4370445,23.6421988 Z M60.8073986,10.0447936 C70.6549418,8.21062907 77.3503201,9.27132544 78.7209825,13.4629714 C79.806264,16.7812936 77.6827539,22.1947045 73.0964338,28.1393675 C72.290044,29.1844543 71.3853365,29.7661696 70.3820356,29.9708999 C70.1864812,29.4323404 69.9248105,28.7279315 69.604685,27.8904974 C68.8551876,25.9298455 68.0307922,23.8898023 67.153873,21.866883 C64.9553415,16.7952049 62.8088153,12.6896891 60.8073986,10.0447936 Z M39.5142571,0 C46.322768,0 52.4555325,2.95830434 57.8711683,9.02142127 C52.1244172,10.319086 46.0205812,12.3961643 41.2019606,14.6462066 C40.7205364,14.8712515 40.1844757,15.1169051 39.5142571,15.420247 C38.8440384,15.1169051 38.3079777,14.8712515 37.8265535,14.6462066 C33.0239918,12.4036629 26.944715,10.3329149 21.2147383,9.03440422 C26.7403282,3.30063494 33.3548638,0 39.5142571,0 Z"></path>
                        </g>
                    </g>
                </g>
            </g>
        </g>
    </g>
</svg>