<?xml version="1.0" encoding="UTF-8" standalone="no"?>
<svg width="28px" height="23px" viewBox="0 0 28 23" version="1.1" xmlns="http://www.w3.org/2000/svg" xmlns:xlink="http://www.w3.org/1999/xlink">
    <!-- Generator: Sketch 47.1 (45422) - http://www.bohemiancoding.com/sketch -->
    <title>icon twitter</title>
    <desc>Created with Sketch.</desc>
    <defs></defs>
    <g id="Prize-Variaton-V7" stroke="none" stroke-width="1" fill="none" fill-rule="evenodd">
        <g id="01-Challenge-Details-" transform="translate(-641.000000, -794.000000)" fill="#A3A3AD">
            <g id="footer" transform="translate(1.000000, 668.000000)">
                <path d="M664.774,132.083 C664.786,132.326 664.7905,132.572 664.7905,132.815 C664.7905,140.3 659.095,148.928 648.6805,148.928 C645.481,148.928 642.5065,147.9905 640,146.3825 C640.444,146.435 640.894,146.462 641.35,146.462 C644.005,146.462 646.4455,145.556 648.382,144.0395 C645.9055,143.993 643.813,142.358 643.093,140.108 C643.438,140.1725 643.7935,140.207 644.158,140.207 C644.6755,140.207 645.1765,140.1395 645.6505,140.0105 C643.06,139.4885 641.1085,137.201 641.1085,134.456 L641.1085,134.3855 C641.872,134.81 642.7465,135.065 643.6735,135.095 C642.154,134.078 641.1535,132.347 641.1535,130.3805 C641.1535,129.344 641.4325,128.3705 641.9215,127.5335 C644.713,130.961 648.8875,133.214 653.593,133.451 C653.497,133.0355 653.4475,132.605 653.4475,132.1595 C653.4475,129.0335 655.981,126.5 659.1085,126.5 C660.7375,126.5 662.209,127.1855 663.2425,128.2865 C664.531,128.0315 665.743,127.5605 666.838,126.9125 C666.415,128.234 665.5165,129.344 664.348,130.0445 C665.494,129.9065 666.583,129.605 667.6,129.1535 C666.841,130.2905 665.881,131.2865 664.774,132.083 L664.774,132.083 Z" id="icon-twitter"></path>
            </g>
        </g>
    </g>
</svg>