<svg width="239" height="80" viewBox="0 0 239 80" fill="none" xmlns="http://www.w3.org/2000/svg">
    <g clip-path="url(#clip0_7404_10291)">
        <path d="M219.593 0H18.9476C18.3493 0 17.5515 0 16.7537 0C16.1553 0 15.557 0 14.9587 0C13.5625 0 12.3658 0.2 10.9697 0.4C9.77299 0.6 8.37685 1 7.18015 1.6C5.98346 2.2 4.98622 3 3.98898 4C2.99173 5 2.19394 6 1.59559 7.2C0.997244 8.4 0.598346 9.8 0.398897 11C0.199449 12.4 0 13.8 0 15C0 15.6 0 16.2 0 16.8V63C0 63.6 0 64.2 0 64.8C0 66.2 0.199449 67.4 0.398897 68.8C0.598346 70.2 0.997244 71.4 1.59559 72.6C2.19394 74 2.99173 75 3.98898 76C4.98622 77 5.98346 77.8 7.18015 78.4C8.37685 79 9.57354 79.4 10.9697 79.6C12.3658 79.8 13.5625 80 14.9587 80C15.557 80 16.1553 80 16.7537 80C17.5515 80 18.1498 80 18.9476 80H219.593C220.391 80 220.989 80 221.787 80C222.385 80 222.984 80 223.582 80C224.978 80 226.175 79.8 227.571 79.6C228.967 79.4 230.164 79 231.361 78.4C232.557 77.8 233.554 77 234.552 76C235.549 75 236.347 74 236.945 72.8C237.543 71.6 237.942 70.4 238.142 69C238.341 67.6 238.541 66.4 238.541 65C238.541 64.4 238.541 63.8 238.541 63.2C238.541 62.4 238.541 61.8 238.541 61V19C238.541 18.2 238.541 17.6 238.541 16.8C238.541 16.2 238.541 15.6 238.541 15C238.541 13.6 238.341 12.4 238.142 11C237.942 9.6 237.543 8.4 236.945 7.2C235.748 4.8 233.754 2.8 231.361 1.6C230.164 1 228.967 0.6 227.571 0.4C226.175 0.2 224.978 0 223.582 0C222.984 0 222.385 0 221.787 0C221.189 0 220.391 0 219.593 0Z" fill="#A6A6A6" />
        <path d="M16.7538 78.1998C16.1555 78.1998 15.5571 78.1998 14.9588 78.1998C13.7621 78.1998 12.3659 77.9998 11.1692 77.7998C9.97255 77.5998 8.97531 77.1998 7.77862 76.7998C6.78137 76.1998 5.78413 75.5998 4.98633 74.7998C4.18854 73.9998 3.39074 72.9998 2.99184 71.9998C2.3935 70.9998 2.19405 69.7998 1.9946 68.5998C1.79515 67.3998 1.5957 66.1998 1.5957 64.7998C1.5957 64.3998 1.5957 62.9998 1.5957 62.9998V16.7998C1.5957 16.7998 1.5957 15.3998 1.5957 14.9998C1.5957 13.7998 1.79515 12.3998 1.9946 11.1998C2.19405 10.1998 2.59295 8.9998 3.19129 7.9998C3.78964 6.9998 4.38799 5.9998 5.18578 5.1998C5.98358 4.3998 6.98082 3.7998 7.97806 3.1998C8.97531 2.5998 10.172 2.3998 11.3687 2.1998C12.5654 1.9998 13.7621 1.7998 15.1582 1.7998H16.9533H221.987H223.782C224.978 1.7998 226.175 1.9998 227.571 2.1998C228.768 2.3998 229.765 2.7998 230.962 3.1998C232.956 4.1998 234.751 5.9998 235.749 7.9998C236.347 8.9998 236.546 10.1998 236.746 11.1998C236.945 12.3998 237.145 13.7998 237.145 14.9998C237.145 15.5998 237.145 16.1998 237.145 16.7998C237.145 17.5998 237.145 18.1998 237.145 18.9998V60.7998C237.145 61.5998 237.145 62.1998 237.145 62.9998C237.145 63.5998 237.145 64.1998 237.145 64.7998C237.145 65.9998 236.945 67.1998 236.746 68.5998C236.546 69.7998 236.147 70.7998 235.749 71.9998C235.15 72.9998 234.552 73.9998 233.754 74.7998C232.956 75.5998 231.959 76.3998 230.962 76.7998C229.965 77.3998 228.768 77.7998 227.571 77.7998C226.374 77.9998 225.178 78.1998 223.782 78.1998C223.183 78.1998 222.585 78.1998 221.987 78.1998H219.793H16.7538Z" fill="black" />
        <path d="M49.4634 40.6008C49.4634 37.2008 51.2584 34.0008 54.2502 32.2008C52.4551 29.6008 49.4634 28.0008 46.2722 27.8008C42.8816 27.4008 39.6904 29.8008 37.8954 29.8008C36.1003 29.8008 33.5075 27.8008 30.7152 27.8008C26.9257 28.0008 23.535 30.0008 21.74 33.2008C17.9505 39.8008 20.7428 49.8008 24.5323 55.2008C26.3273 57.8008 28.5213 60.8008 31.3135 60.8008C34.1058 60.6008 35.1031 59.0008 38.4937 59.0008C41.8843 59.0008 42.6821 60.8008 45.6739 60.8008C48.6656 60.8008 50.4606 58.2008 52.2557 55.4008C53.6518 53.6008 54.649 51.4008 55.2474 49.2008C51.6573 48.0008 49.4634 44.4008 49.4634 40.6008Z" fill="white" />
        <path d="M43.8788 24.4004C45.4744 22.4004 46.2722 20.0004 46.0727 17.4004C43.6793 17.6004 41.286 18.8004 39.6904 20.8004C38.0948 22.6004 37.297 25.0004 37.4964 27.6004C40.0893 27.6004 42.2832 26.4004 43.8788 24.4004Z" fill="white" />
        <path d="M84.3668 54.2012H74.9927L72.7988 61.0012H68.8098L77.785 36.2012H81.774L90.7492 61.0012H86.7602L84.3668 54.2012ZM75.99 51.2012H83.569L79.7795 40.2012H79.5801L75.99 51.2012Z" fill="white" />
        <path d="M110.096 52.0005C110.096 57.6005 107.104 61.2005 102.517 61.2005C100.123 61.4005 97.9293 60.0005 96.9321 58.0005V67.0005H93.1426V43.0005H96.7327V46.0005C97.9293 44.0005 100.123 42.8005 102.517 42.8005C106.905 42.6005 110.096 46.4005 110.096 52.0005ZM106.107 52.0005C106.107 48.4005 104.312 46.0005 101.32 46.0005C98.5277 46.0005 96.5332 48.4005 96.5332 52.0005C96.5332 55.6005 98.5277 58.0005 101.32 58.0005C104.312 58.0005 106.107 55.6005 106.107 52.0005Z" fill="white" />
        <path d="M129.841 52.0005C129.841 57.6005 126.849 61.2005 122.262 61.2005C119.869 61.4005 117.675 60.0005 116.677 58.0005V67.0005H112.888V43.0005H116.478V46.0005C117.675 44.0005 119.869 42.8005 122.262 42.8005C126.849 42.6005 129.841 46.4005 129.841 52.0005ZM126.052 52.0005C126.052 48.4005 124.257 46.0005 121.265 46.0005C118.473 46.0005 116.478 48.4005 116.478 52.0005C116.478 55.6005 118.473 58.0005 121.265 58.0005C124.257 58.0005 126.052 55.6005 126.052 52.0005Z" fill="white" />
        <path d="M143.005 54.0008C143.204 56.4008 145.597 58.0008 148.988 58.0008C152.179 58.0008 154.373 56.4008 154.373 54.2008C154.373 52.2008 152.977 51.2008 149.786 50.4008L146.595 49.6008C142.007 48.4008 140.013 46.4008 140.013 43.0008C140.013 38.8008 143.802 35.8008 148.988 35.8008C154.174 35.8008 157.764 38.8008 157.963 43.0008H154.174C153.974 40.6008 151.98 39.0008 148.988 39.0008C145.996 39.0008 144.002 40.6008 144.002 42.8008C144.002 44.6008 145.398 45.6008 148.589 46.4008L151.381 47.0008C156.368 48.2008 158.562 50.2008 158.562 53.8008C158.562 58.4008 154.772 61.4008 148.988 61.4008C143.404 61.4008 139.813 58.6008 139.614 54.0008H143.005Z" fill="white" />
        <path d="M166.141 38.6006V42.8006H169.532V45.8006H166.141V55.8006C166.141 57.4006 166.739 58.0006 168.335 58.0006C168.734 58.0006 169.133 58.0006 169.532 58.0006V61.0006C168.933 61.2006 168.135 61.2006 167.537 61.2006C163.947 61.2006 162.551 59.8006 162.551 56.4006V46.0006H159.958V43.0006H162.551V38.8006H166.141V38.6006Z" fill="white" />
        <path d="M171.725 52.0008C171.725 46.4008 175.116 42.8008 180.302 42.8008C185.487 42.8008 188.878 46.4008 188.878 52.0008C188.878 57.8008 185.487 61.2008 180.302 61.2008C174.917 61.2008 171.725 57.6008 171.725 52.0008ZM185.088 52.0008C185.088 48.0008 183.293 45.8008 180.302 45.8008C177.31 45.8008 175.515 48.0008 175.515 52.0008C175.515 56.0008 177.31 58.2008 180.302 58.2008C183.293 58.2008 185.088 55.8008 185.088 52.0008Z" fill="white" />
        <path d="M191.87 42.8012H195.46V46.0012C195.859 44.0012 197.853 42.6012 199.848 42.8012C200.246 42.8012 200.645 42.8012 201.044 43.0012V46.4012C200.446 46.2012 199.848 46.2012 199.449 46.2012C197.454 46.2012 195.659 47.8012 195.659 49.8012C195.659 50.0012 195.659 50.2012 195.659 50.4012V61.2012H191.87V42.8012Z" fill="white" />
        <path d="M218.197 55.6006C217.798 58.8006 214.407 61.2006 210.418 61.2006C205.233 61.2006 201.842 57.6006 201.842 52.0006C201.842 46.4006 205.033 42.6006 210.219 42.6006C215.205 42.6006 218.396 46.0006 218.396 51.6006V52.8006H205.632V53.0006C205.432 55.6006 207.227 57.8006 209.82 58.2006C210.019 58.2006 210.219 58.2006 210.418 58.2006C212.213 58.4006 214.008 57.4006 214.607 55.6006H218.197ZM205.632 50.2006H214.607C214.806 47.8006 212.812 45.8006 210.418 45.6006C210.219 45.6006 210.219 45.6006 210.019 45.6006C207.626 45.6006 205.632 47.6006 205.632 50.2006Z" fill="white" />
        <path d="M75.3915 17.4002C78.3833 17.2002 80.7767 19.4002 80.9761 22.2002C80.9761 22.6002 80.9761 22.8002 80.9761 23.2002C80.9761 27.0002 78.9816 29.2002 75.3915 29.2002H71.0037V17.2002H75.3915V17.4002ZM72.9981 27.8002H75.1921C77.1866 28.0002 78.9816 26.4002 79.1811 24.2002C79.1811 24.0002 79.1811 23.6002 79.1811 23.4002C79.3805 21.4002 77.9844 19.4002 75.9899 19.2002C75.7904 19.2002 75.591 19.2002 75.1921 19.2002H72.9981V27.8002Z" fill="white" />
        <path d="M83.1701 24.7995C82.9707 22.3995 84.5663 20.3995 86.9596 20.1995C89.353 19.9995 91.3475 21.5995 91.547 23.9995C91.547 24.1995 91.547 24.5995 91.547 24.7995C91.7464 27.1995 90.1508 29.1995 87.7574 29.3995C85.3641 29.5995 83.3696 27.9995 83.1701 25.5995C83.1701 25.3995 83.1701 25.1995 83.1701 24.7995ZM89.7519 24.7995C89.7519 22.7995 88.9541 21.7995 87.3585 21.7995C85.7629 21.7995 84.9652 22.9995 84.9652 24.7995C84.9652 26.7995 85.7629 27.9995 87.3585 27.9995C88.9541 27.9995 89.7519 26.7995 89.7519 24.7995Z" fill="white" />
        <path d="M102.916 29.3994H101.121L99.3255 22.7994H99.126L97.331 29.3994H95.536L93.1426 20.3994H94.9376L96.5332 27.1994H96.7327L98.5277 20.3994H100.323L102.118 27.1994H102.317L103.913 20.3994H105.708L102.916 29.3994Z" fill="white" />
        <path d="M107.503 20.3995H109.298V21.7995H109.497C109.896 20.7995 111.093 20.1995 112.09 20.1995C113.686 19.9995 115.082 21.1995 115.281 22.9995C115.281 23.1995 115.281 23.3995 115.281 23.5995V29.3995H113.486V23.9995C113.486 22.5995 112.888 21.7995 111.492 21.7995C110.295 21.7995 109.298 22.5995 109.298 23.7995C109.298 23.9995 109.298 23.9995 109.298 24.1995V29.3995H107.503V20.3995Z" fill="white" />
        <path d="M117.874 16.7998H119.669V29.3998H117.874V16.7998Z" fill="white" />
        <path d="M122.062 24.7995C121.863 22.3995 123.459 20.3995 125.852 20.1995C128.245 19.9995 130.24 21.5995 130.439 23.9995C130.439 24.1995 130.439 24.5995 130.439 24.7995C130.639 27.1995 129.043 29.1995 126.65 29.3995C124.256 29.5995 122.262 27.9995 122.062 25.5995C122.062 25.3995 122.062 25.1995 122.062 24.7995ZM128.844 24.7995C128.844 22.7995 128.046 21.7995 126.45 21.7995C124.855 21.7995 124.057 22.9995 124.057 24.7995C124.057 26.7995 124.855 27.9995 126.45 27.9995C127.846 27.9995 128.844 26.7995 128.844 24.7995Z" fill="white" />
        <path d="M132.434 26.8002C132.434 25.2002 133.631 24.2002 135.824 24.2002L138.218 24.0002V23.2002C138.218 22.2002 137.619 21.8002 136.423 21.8002C135.426 21.8002 134.827 22.2002 134.628 22.8002H132.833C133.032 21.2002 134.428 20.2002 136.423 20.2002C138.617 20.2002 140.013 21.4002 140.013 23.2002V29.4002H138.218V28.2002H138.018C137.42 29.2002 136.423 29.6002 135.226 29.6002C133.83 29.8002 132.434 28.6002 132.234 27.2002C132.434 27.0002 132.434 27.0002 132.434 26.8002ZM138.218 26.0002V25.2002L136.024 25.4002C134.827 25.4002 134.229 26.0002 134.229 26.6002C134.229 27.4002 135.027 27.8002 135.824 27.8002C137.021 28.2002 138.018 27.4002 138.218 26.0002C138.218 26.2002 138.218 26.2002 138.218 26.0002Z" fill="white" />
        <path d="M142.207 24.7998C142.207 21.9998 143.603 20.1998 145.996 20.1998C147.193 20.1998 148.19 20.7998 148.789 21.7998H148.988V16.7998H150.783V29.3998H148.988V27.9998H148.789C148.19 28.9998 147.193 29.5998 145.996 29.5998C143.802 29.5998 142.207 27.7998 142.207 24.7998ZM144.201 24.7998C144.201 26.7998 145.199 27.7998 146.595 27.7998C147.991 27.7998 148.988 26.5998 148.988 24.7998C148.988 22.9998 147.991 21.7998 146.595 21.7998C144.999 21.7998 144.201 22.9998 144.201 24.7998Z" fill="white" />
        <path d="M157.963 24.7995C157.764 22.3995 159.359 20.3995 161.753 20.1995C164.146 19.9995 166.141 21.5995 166.34 23.9995C166.34 24.1995 166.34 24.5995 166.34 24.7995C166.54 27.1995 164.944 29.1995 162.551 29.3995C160.157 29.5995 158.163 27.9995 157.963 25.5995C157.963 25.3995 157.963 25.1995 157.963 24.7995ZM164.745 24.7995C164.745 22.7995 163.947 21.7995 162.351 21.7995C160.756 21.7995 159.958 22.9995 159.958 24.7995C159.958 26.7995 160.756 27.9995 162.351 27.9995C163.747 27.9995 164.745 26.7995 164.745 24.7995Z" fill="white" />
        <path d="M168.933 20.3995H170.728V21.7995H170.928C171.326 20.7995 172.523 20.1995 173.52 20.1995C175.116 19.9995 176.512 21.1995 176.712 22.9995C176.712 23.1995 176.712 23.3995 176.712 23.5995V29.3995H174.917V23.9995C174.917 22.5995 174.318 21.7995 172.922 21.7995C171.725 21.7995 170.728 22.5995 170.728 23.7995C170.728 23.9995 170.728 23.9995 170.728 24.1995V29.3995H168.933V20.3995Z" fill="white" />
        <path d="M186.484 18.2002V20.4002H188.479V22.0002H186.484V26.6002C186.484 27.6002 186.883 28.0002 187.681 28.0002C187.881 28.0002 188.08 28.0002 188.279 28.0002V29.4002C187.881 29.4002 187.681 29.4002 187.282 29.4002C185.288 29.4002 184.49 28.8002 184.49 27.0002V22.0002H183.094V20.6002H184.49V18.2002H186.484Z" fill="white" />
        <path d="M190.872 16.7998H192.667V21.7998H192.867C193.266 20.7998 194.462 19.9998 195.659 20.1998C197.255 20.1998 198.651 21.3998 198.85 22.9998C198.85 23.1998 198.85 23.3998 198.85 23.5998V29.3998H197.055V23.9998C197.055 22.5998 196.457 21.7998 195.061 21.7998C193.864 21.7998 192.867 22.5998 192.867 23.7998C192.867 23.9998 192.867 23.9998 192.867 24.1998V29.3998H191.072L190.872 16.7998Z" fill="white" />
        <path d="M209.022 26.9994C208.623 28.5994 206.828 29.7994 205.033 29.5994C202.839 29.5994 200.845 27.7994 200.845 25.5994C200.845 25.3994 200.845 25.1994 200.845 24.9994C200.446 22.7994 202.041 20.5994 204.435 20.3994C204.634 20.3994 204.834 20.3994 205.033 20.3994C207.626 20.3994 209.022 22.1994 209.022 24.9994V25.5994H202.64C202.44 26.9994 203.438 27.9994 204.834 28.1994H205.033C205.831 28.3994 206.828 27.7994 207.227 27.1994L209.022 26.9994ZM202.64 23.9994H207.227C207.227 22.7994 206.429 21.7994 205.233 21.5994H205.033C203.837 21.7994 202.64 22.7994 202.64 23.9994Z" fill="white" />
    </g>
    <defs>
        <clipPath id="clip0_7404_10291">
            <rect width="238.74" height="80" fill="white" />
        </clipPath>
    </defs>
</svg>