<svg width="271" height="82" viewBox="0 0 271 82" fill="none" xmlns="http://www.w3.org/2000/svg">
    <g clip-path="url(#clip0_7516_11216)">
        <path fill-rule="evenodd" clip-rule="evenodd" d="M260.626 82H10.6336C5.12011 82 0.629883 77.3786 0.629883 71.75V10.25C0.629883 4.601 5.12011 0 10.6336 0H260.626C266.135 0 270.63 4.601 270.63 10.25V71.75C270.63 77.3786 266.135 82 260.626 82Z" fill="black" />
        <path fill-rule="evenodd" clip-rule="evenodd" d="M260.626 1.64102C265.251 1.64102 269.035 5.51097 269.035 10.25V71.75C269.035 76.489 265.275 80.359 260.626 80.359H10.6336C6.00922 80.359 2.22431 76.489 2.22431 71.75V10.25C2.22431 5.51097 5.98438 1.64102 10.6336 1.64102H260.626ZM260.626 0H10.6336C5.12011 0 0.629883 4.62145 0.629883 10.25V71.75C0.629883 77.399 5.12011 82 10.6336 82H260.626C266.135 82 270.63 77.399 270.63 71.75V10.25C270.63 4.62145 266.135 0 260.626 0Z" fill="#A6A6A6" />
        <path d="M142.867 27.1254C141.064 27.1254 139.544 26.4762 138.342 25.1981C137.15 23.9559 136.484 22.2433 136.514 20.4949C136.514 18.6289 137.13 17.0493 138.342 15.7968C139.539 14.5187 141.059 13.8695 142.862 13.8695C144.645 13.8695 146.165 14.5187 147.387 15.7968C148.599 17.0902 149.215 18.6698 149.215 20.4949C149.195 22.366 148.579 23.9456 147.387 25.193C146.19 26.4813 144.67 27.1254 142.867 27.1254ZM89.2177 27.1254C87.4544 27.1254 85.9246 26.4864 84.6729 25.2237C83.4311 23.9661 82.8003 22.3762 82.8003 20.5C82.8003 18.6238 83.4311 17.0339 84.6729 15.7763C85.8997 14.5136 87.4296 13.8746 89.2177 13.8746C90.0919 13.8746 90.9413 14.0535 91.7559 14.4165C92.5556 14.7692 93.2063 15.2498 93.6881 15.8377L93.8073 15.9859L92.4612 17.3458L92.3222 17.1771C91.5622 16.2466 90.544 15.7916 89.1979 15.7916C87.9958 15.7916 86.9478 16.2313 86.0835 17.1004C85.2143 17.9746 84.7722 19.1197 84.7722 20.5051C84.7722 21.8905 85.2143 23.0357 86.0835 23.9099C86.9478 24.7789 87.9958 25.2186 89.1979 25.2186C90.4794 25.2186 91.5572 24.7789 92.3967 23.9099C92.8934 23.3986 93.2013 22.6829 93.3106 21.7781H88.9942V19.8661H95.1633L95.1882 20.0399C95.2329 20.362 95.2776 20.6943 95.2776 21.001C95.2776 22.7647 94.761 24.191 93.7378 25.2441C92.5755 26.4915 91.0556 27.1254 89.2177 27.1254ZM160.55 26.8545H158.647L152.821 17.2589L152.871 18.9868V26.8494H150.968V14.1455H153.139L153.199 14.2426L158.677 23.281L158.628 21.5582V14.1455H160.55V26.8545ZM128.572 26.8545H126.645V16.0575H123.302V14.1455H131.91V16.0575H128.567V26.8545H128.572ZM121.732 26.8545H119.81V14.1455H121.732V26.8545ZM110.929 26.8545H109.007V16.0575H105.664V14.1455H114.272V16.0575H110.929V26.8545ZM104.447 26.834H97.0756V14.1455H104.447V16.0575H99.0029V19.544H103.915V21.4355H99.0029V24.9221H104.447V26.834ZM139.753 23.8843C140.612 24.7687 141.655 25.2135 142.867 25.2135C144.114 25.2135 145.132 24.7789 145.981 23.8843C146.826 23.0152 147.253 21.8752 147.253 20.5C147.253 19.1248 146.826 17.9797 145.986 17.1157C145.127 16.2313 144.079 15.7865 142.872 15.7865C141.625 15.7865 140.607 16.2211 139.763 17.1157C138.918 17.9848 138.491 19.1248 138.491 20.5C138.491 21.8752 138.913 23.0203 139.753 23.8843Z" fill="white" />
        <path fill-rule="evenodd" clip-rule="evenodd" d="M136.335 44.599C131.642 44.599 127.837 48.2645 127.837 53.3204C127.837 58.3304 131.666 62.0419 136.335 62.0419C141.029 62.0419 144.834 58.3509 144.834 53.3204C144.834 48.2645 141.029 44.599 136.335 44.599ZM136.335 58.586C133.767 58.586 131.557 56.398 131.557 53.3C131.557 50.156 133.772 48.014 136.335 48.014C138.903 48.014 141.114 50.156 141.114 53.3C141.119 56.4185 138.903 58.586 136.335 58.586ZM117.793 44.599C113.099 44.599 109.295 48.2645 109.295 53.3204C109.295 58.3304 113.124 62.0419 117.793 62.0419C122.487 62.0419 126.292 58.3509 126.292 53.3204C126.292 48.2645 122.482 44.599 117.793 44.599ZM117.793 58.586C115.225 58.586 113.015 56.398 113.015 53.3C113.015 50.156 115.23 48.014 117.793 48.014C120.361 48.014 122.572 50.156 122.572 53.3C122.572 56.4185 120.361 58.586 117.793 58.586ZM95.7296 47.2625V50.9535H104.338C104.074 53.0239 103.409 54.5525 102.39 55.6005C101.129 56.899 99.1817 58.31 95.7495 58.31C90.4596 58.31 86.322 53.9135 86.322 48.469C86.322 43.0244 90.4596 38.6279 95.7495 38.6279C98.6056 38.6279 100.687 39.7884 102.232 41.2709L104.775 38.6535C102.629 36.537 99.7728 34.9165 95.7694 34.9165C88.5125 34.9165 82.4229 41 82.4229 48.4485C82.4229 55.9175 88.5075 61.9806 95.7694 61.9806C99.6884 61.9806 102.629 60.6616 104.953 58.1771C107.323 55.7385 108.073 52.298 108.073 49.5221C108.073 48.6581 108.008 47.881 107.874 47.2216H95.7247C95.7296 47.2165 95.7296 47.2625 95.7296 47.2625ZM185.976 50.1355C185.266 48.1776 183.12 44.5786 178.719 44.5786C174.358 44.5786 170.732 48.1111 170.732 53.3C170.732 58.1975 174.319 62.0214 179.142 62.0214C183.016 62.0214 185.271 59.5829 186.2 58.1515L183.324 56.168C182.37 57.6249 181.044 58.5809 179.162 58.5809C177.259 58.5809 175.928 57.6914 175.044 55.9379L186.374 51.1069C186.374 51.112 185.976 50.1355 185.976 50.1355ZM174.423 53.0495C174.334 49.6805 176.966 47.968 178.849 47.968C180.334 47.968 181.571 48.7195 181.993 49.8135L174.423 53.0495ZM165.219 61.5H168.939V35.8776H165.219V61.5ZM159.109 46.5365H158.975C158.136 45.509 156.541 44.5786 154.505 44.5786C150.278 44.5786 146.384 48.4076 146.384 53.3256C146.384 58.2231 150.258 62.0061 154.505 62.0061C156.517 62.0061 158.136 61.0706 158.975 60.0226H159.109V61.2751C159.109 64.6031 157.381 66.3975 154.594 66.3975C152.314 66.3975 150.899 64.7105 150.323 63.2995L147.089 64.69C148.018 66.9905 150.497 69.838 154.589 69.838C158.951 69.838 162.646 67.195 162.646 60.7485V45.1H159.129V46.5365C159.134 46.5365 159.109 46.5365 159.109 46.5365ZM154.838 58.586C152.27 58.586 150.124 56.3776 150.124 53.3256C150.124 50.248 152.27 48.0191 154.838 48.0191C157.381 48.0191 159.353 50.2736 159.353 53.3256C159.378 56.3776 157.386 58.586 154.838 58.586ZM203.396 35.8776H194.5V61.5H198.22V51.797H203.401C207.519 51.797 211.567 48.7246 211.567 43.8475C211.567 38.9704 207.533 35.8776 203.396 35.8776ZM203.505 48.2185H198.215V39.4254H203.505C206.292 39.4254 207.866 41.7924 207.866 43.8219C207.866 45.831 206.272 48.2185 203.505 48.2185ZM226.478 44.553C223.776 44.553 220.989 45.785 219.837 48.469L223.135 49.8799C223.845 48.469 225.147 47.9884 226.523 47.9884C228.45 47.9884 230.397 49.1744 230.442 51.2909V51.5618C229.776 51.1733 228.316 50.5803 226.567 50.5803C223.006 50.5803 219.395 52.5843 219.395 56.3418C219.395 59.7823 222.315 61.9908 225.569 61.9908C228.067 61.9908 229.443 60.8303 230.302 59.4858H230.437V61.4693H234.023V51.6539C234.023 47.0835 230.725 44.553 226.478 44.553ZM226.011 58.586C224.794 58.586 223.09 57.9726 223.09 56.398C223.09 54.4145 225.216 53.663 227.029 53.663C228.668 53.663 229.443 54.0259 230.417 54.5269C230.148 56.8274 228.261 58.5656 226.011 58.586ZM247.106 45.1L242.834 56.214H242.7L238.275 45.1H234.271L240.912 60.636L237.127 69.2706H241.002L251.219 45.1H247.106ZM213.618 61.5H217.338V35.8776H213.618V61.5Z" fill="white" />
        <path fill-rule="evenodd" clip-rule="evenodd" d="M21.4119 15.444C20.8357 16.083 20.5029 17.0595 20.5029 18.3375V63.6676C20.5029 64.9456 20.8357 65.9221 21.4318 66.5355L21.5858 66.6736L46.2622 41.2761V40.7086L21.5659 15.306L21.4119 15.444Z" fill="url(#paint0_linear_7516_11216)" />
        <path fill-rule="evenodd" clip-rule="evenodd" d="M54.4731 49.7675L46.2427 41.2965V40.7035L54.4731 32.2325L54.6519 32.345L64.3874 38.04C67.1739 39.6555 67.1739 42.3241 64.3874 43.96L54.6519 49.655L54.4731 49.7675Z" fill="url(#paint1_linear_7516_11216)" />
        <path fill-rule="evenodd" clip-rule="evenodd" d="M54.6517 49.655L46.2425 41L21.4121 66.556C22.3211 67.558 23.846 67.6705 25.5497 66.694L54.6517 49.655Z" fill="url(#paint2_linear_7516_11216)" />
        <path fill-rule="evenodd" clip-rule="evenodd" d="M54.6517 32.345L25.5497 15.3315C23.846 14.3295 22.3161 14.4676 21.4121 15.4696L46.2425 41L54.6517 32.345Z" fill="url(#paint3_linear_7516_11216)" />
        <path opacity="0.2" fill-rule="evenodd" clip-rule="evenodd" d="M54.4731 49.4709L25.5697 66.3719C23.9554 67.3279 22.515 67.2615 21.5861 66.3924L21.4321 66.5509L21.5861 66.6889C22.515 67.5529 23.9554 67.6244 25.5697 66.6685L54.6718 49.655L54.4731 49.4709Z" fill="black" />
        <path opacity="0.12" fill-rule="evenodd" clip-rule="evenodd" d="M64.3873 43.6635L54.4482 49.4709L54.6271 49.655L64.3625 43.96C65.7583 43.142 66.4437 42.0685 66.4437 41C66.3593 41.9815 65.649 42.912 64.3873 43.6635Z" fill="black" />
        <path opacity="0.25" fill-rule="evenodd" clip-rule="evenodd" d="M25.5495 15.6281L64.387 38.3365C65.6486 39.0676 66.3589 40.0236 66.4682 41C66.4682 39.9315 65.7827 38.858 64.387 38.04L25.5495 15.3315C22.7629 13.6905 20.5029 15.0606 20.5029 18.3375V18.634C20.5029 15.352 22.7629 14.0075 25.5495 15.6281Z" fill="white" />
    </g>
    <defs>
        <linearGradient id="paint0_linear_7516_11216" x1="44.049" y1="17.8495" x2="4.37437" y2="28.1207" gradientUnits="userSpaceOnUse">
            <stop stop-color="#00A0FF" />
            <stop offset="0.00657" stop-color="#00A1FF" />
            <stop offset="0.2601" stop-color="#00BEFF" />
            <stop offset="0.5122" stop-color="#00D2FF" />
            <stop offset="0.7604" stop-color="#00DFFF" />
            <stop offset="1" stop-color="#00E3FF" />
        </linearGradient>
        <linearGradient id="paint1_linear_7516_11216" x1="68.0213" y1="41" x2="19.8261" y2="41" gradientUnits="userSpaceOnUse">
            <stop stop-color="#FFE000" />
            <stop offset="0.4087" stop-color="#FFBD00" />
            <stop offset="0.7754" stop-color="#FFA500" />
            <stop offset="1" stop-color="#FF9C00" />
        </linearGradient>
        <linearGradient id="paint2_linear_7516_11216" x1="50.077" y1="45.7083" x2="16.9752" y2="99.8396" gradientUnits="userSpaceOnUse">
            <stop stop-color="#FF3A44" />
            <stop offset="1" stop-color="#C31162" />
        </linearGradient>
        <linearGradient id="paint3_linear_7516_11216" x1="15.1598" y1="0.366347" x2="29.9281" y2="24.5429" gradientUnits="userSpaceOnUse">
            <stop stop-color="#32A071" />
            <stop offset="0.0685" stop-color="#2DA771" />
            <stop offset="0.4762" stop-color="#15CF74" />
            <stop offset="0.8009" stop-color="#06E775" />
            <stop offset="1" stop-color="#00F076" />
        </linearGradient>
        <clipPath id="clip0_7516_11216">
            <rect width="270" height="82" fill="white" transform="translate(0.629883)" />
        </clipPath>
    </defs>
</svg>
    