<svg width="16" height="16" viewBox="0 0 16 16" fill="none" xmlns="http://www.w3.org/2000/svg">
    <path fill-rule="evenodd" clip-rule="evenodd" d="M1.15128 1.15147C1.61991 0.682846 2.3797 0.682846 2.84833 1.15147L7.9998 6.30295L13.1513 1.15147C13.6199 0.682846 14.3797 0.682846 14.8483 1.15147C15.317 1.6201 15.317 2.3799 14.8483 2.84853L9.69686 8L14.8483 13.1515C15.317 13.6201 15.317 14.3799 14.8483 14.8485C14.3797 15.3172 13.6199 15.3172 13.1513 14.8485L7.9998 9.69706L2.84833 14.8485C2.3797 15.3172 1.61991 15.3172 1.15128 14.8485C0.682647 14.3799 0.682647 13.6201 1.15128 13.1515L6.30275 8L1.15128 2.84853C0.682647 2.3799 0.682647 1.6201 1.15128 1.15147Z" fill="#137D60" />
</svg>