<svg width="48" height="48" viewBox="0 0 48 48" fill="none" xmlns="http://www.w3.org/2000/svg">
    <path fill-rule="evenodd" clip-rule="evenodd" d="M6 10C6 7.79086 7.79086 6 10 6H14C16.2091 6 18 7.79086 18 10V14C18 16.2091 16.2091 18 14 18H10C7.79086 18 6 16.2091 6 14V10ZM14 10H10V14H14V10ZM24 6C25.1046 6 26 6.89543 26 8V10C26 11.1046 25.1046 12 24 12C22.8954 12 22 11.1046 22 10V8C22 6.89543 22.8954 6 24 6ZM30 10C30 7.79086 31.7909 6 34 6H38C40.2091 6 42 7.79086 42 10V14C42 16.2091 40.2091 18 38 18H34C31.7909 18 30 16.2091 30 14V10ZM38 10H34V14H38V10ZM24 16C25.1046 16 26 16.8954 26 18V22H32.02C33.1246 22 34.02 22.8954 34.02 24C34.02 25.1046 33.1246 26 32.02 26H24C22.8954 26 22 25.1046 22 24V18C22 16.8954 22.8954 16 24 16ZM6 24C6 22.8954 6.89543 22 8 22H16C17.1046 22 18 22.8954 18 24C18 25.1046 17.1046 26 16 26H8C6.89543 26 6 25.1046 6 24ZM38 24C38 22.8954 38.8954 22 40 22H40.02C41.1246 22 42.02 22.8954 42.02 24C42.02 25.1046 41.1246 26 40.02 26H40C38.8954 26 38 25.1046 38 24ZM6 34C6 31.7909 7.79086 30 10 30H14C16.2091 30 18 31.7909 18 34V38C18 40.2091 16.2091 42 14 42H10C7.79086 42 6 40.2091 6 38V34ZM14 34H10V38H14V34ZM22 32C22 30.8954 22.8954 30 24 30H28C29.1046 30 30 30.8954 30 32C30 33.1046 29.1046 34 28 34H26V40C26 41.1046 25.1046 42 24 42C22.8954 42 22 41.1046 22 40V32ZM34 32C34 30.8954 34.8954 30 36 30H40C41.1046 30 42 30.8954 42 32C42 33.1046 41.1046 34 40 34H36C34.8954 34 34 33.1046 34 32ZM30 40C30 38.8954 30.8954 38 32 38H40C41.1046 38 42 38.8954 42 40C42 41.1046 41.1046 42 40 42H32C30.8954 42 30 41.1046 30 40Z" fill="#2A2A2A" />
    <path fill-rule="evenodd" clip-rule="evenodd" d="M6 10C6 7.79086 7.79086 6 10 6H14C16.2091 6 18 7.79086 18 10V14C18 16.2091 16.2091 18 14 18H10C7.79086 18 6 16.2091 6 14V10ZM14 10H10V14H14V10ZM24 6C25.1046 6 26 6.89543 26 8V10C26 11.1046 25.1046 12 24 12C22.8954 12 22 11.1046 22 10V8C22 6.89543 22.8954 6 24 6ZM30 10C30 7.79086 31.7909 6 34 6H38C40.2091 6 42 7.79086 42 10V14C42 16.2091 40.2091 18 38 18H34C31.7909 18 30 16.2091 30 14V10ZM38 10H34V14H38V10ZM24 16C25.1046 16 26 16.8954 26 18V22H32.02C33.1246 22 34.02 22.8954 34.02 24C34.02 25.1046 33.1246 26 32.02 26H24C22.8954 26 22 25.1046 22 24V18C22 16.8954 22.8954 16 24 16ZM6 24C6 22.8954 6.89543 22 8 22H16C17.1046 22 18 22.8954 18 24C18 25.1046 17.1046 26 16 26H8C6.89543 26 6 25.1046 6 24ZM38 24C38 22.8954 38.8954 22 40 22H40.02C41.1246 22 42.02 22.8954 42.02 24C42.02 25.1046 41.1246 26 40.02 26H40C38.8954 26 38 25.1046 38 24ZM6 34C6 31.7909 7.79086 30 10 30H14C16.2091 30 18 31.7909 18 34V38C18 40.2091 16.2091 42 14 42H10C7.79086 42 6 40.2091 6 38V34ZM14 34H10V38H14V34ZM22 32C22 30.8954 22.8954 30 24 30H28C29.1046 30 30 30.8954 30 32C30 33.1046 29.1046 34 28 34H26V40C26 41.1046 25.1046 42 24 42C22.8954 42 22 41.1046 22 40V32ZM34 32C34 30.8954 34.8954 30 36 30H40C41.1046 30 42 30.8954 42 32C42 33.1046 41.1046 34 40 34H36C34.8954 34 34 33.1046 34 32ZM30 40C30 38.8954 30.8954 38 32 38H40C41.1046 38 42 38.8954 42 40C42 41.1046 41.1046 42 40 42H32C30.8954 42 30 41.1046 30 40Z" fill="black" fill-opacity="0.2" />
</svg>