<svg width="28" height="28" viewBox="0 0 28 28" fill="none" xmlns="http://www.w3.org/2000/svg">
    <path fill-rule="evenodd" clip-rule="evenodd" d="M14.0001 3.33329C8.10904 3.33329 3.33341 8.10892 3.33341 14C3.33341 19.891 8.10904 24.6666 14.0001 24.6666C19.8911 24.6666 24.6667 19.891 24.6667 14C24.6667 8.10892 19.8911 3.33329 14.0001 3.33329ZM0.666748 14C0.666748 6.63616 6.63628 0.666626 14.0001 0.666626C21.3639 0.666626 27.3334 6.63616 27.3334 14C27.3334 21.3638 21.3639 27.3333 14.0001 27.3333C6.63628 27.3333 0.666748 21.3638 0.666748 14ZM12.6667 8.66663C12.6667 7.93025 13.2637 7.33329 14.0001 7.33329H14.0134C14.7498 7.33329 15.3467 7.93025 15.3467 8.66663C15.3467 9.40301 14.7498 9.99996 14.0134 9.99996H14.0001C13.2637 9.99996 12.6667 9.40301 12.6667 8.66663ZM11.3334 14C11.3334 13.2636 11.9304 12.6666 12.6667 12.6666H14.0001C14.7365 12.6666 15.3334 13.2636 15.3334 14V18C16.0698 18 16.6667 18.5969 16.6667 19.3333C16.6667 20.0697 16.0698 20.6666 15.3334 20.6666H14.0001C13.2637 20.6666 12.6667 20.0697 12.6667 19.3333V15.3333C11.9304 15.3333 11.3334 14.7363 11.3334 14Z" fill="#EF476F" />
</svg>