<?xml version="1.0" encoding="UTF-8"?>
<svg width="21px" height="16px" viewBox="0 0 21 16" version="1.1" xmlns="http://www.w3.org/2000/svg" xmlns:xlink="http://www.w3.org/1999/xlink">
    <title>D0A3FC91-EEC2-4529-BF7D-3B777D79E185</title>
    <g id="Thrive-V2" stroke="none" stroke-width="1" fill="none" fill-rule="evenodd">
        <g id="04-Article-Banner-Dark---2" transform="translate(-392.000000, -3608.000000)" fill="#FFFFFF" fill-rule="nonzero">
            <g id="Group" transform="translate(-15.000000, -324.000000)">
                <g id="Group-2" transform="translate(2.000000, 3819.000000)">
                    <g id="btn-chat-on-discord" transform="translate(385.000000, 101.000000)">
                        <g id="Stacked-Group" transform="translate(20.000000, 0.000000)">
                            <g id="discord-icon" transform="translate(0.000000, 12.000000)">
                                <path d="M17.7773869,1.3263127 C16.4389179,0.712420224 15.0036123,0.260131307 13.5029109,0.00108665869 C13.4755813,-0.00391282202 13.4482813,0.00858114932 13.4342025,0.0335696833 C13.2496095,0.361747009 13.0451405,0.789881132 12.901956,1.1263926 C11.2878546,0.884844657 9.68203495,0.884844657 8.10103076,1.1263926 C7.95781668,0.782401128 7.74592373,0.361747009 7.5605026,0.0335696833 C7.54642373,0.00941488886 7.51912373,-0.00307908248 7.49179415,0.00108665869 C5.99192095,0.259303481 4.55661535,0.711592398 3.2173182,1.3263127 C3.20572383,1.33130922 3.19578581,1.33964662 3.18919003,1.35046749 C0.466717562,5.41610079 -0.279081448,9.3818036 0.0867826133,13.2983394 C0.088438064,13.3174977 0.0991986412,13.3358281 0.114098289,13.3474768 C1.91030781,14.6660271 3.65024354,15.4665057 5.35786885,15.9970834 C5.38519843,16.0054208 5.41415477,15.9954277 5.43154632,15.9729286 C5.83548574,15.421537 6.19556179,14.8401367 6.50429136,14.2287277 C6.52251108,14.1929242 6.50511953,14.150439 6.4678815,14.1362772 C5.89674067,13.9197119 5.35289984,13.6556648 4.82976323,13.3558142 C4.78838436,13.3316594 4.78507168,13.2724994 4.82313788,13.2441759 C4.9332252,13.1617185 5.0433421,13.0759202 5.14846041,12.9892941 C5.16747872,12.9734767 5.19398013,12.9701358 5.21634069,12.9801288 C8.6531237,14.548594 12.3738504,14.548594 15.7700827,12.9801288 C15.7924433,12.969308 15.8189447,12.9726488 15.8387911,12.9884662 C15.943939,13.0750924 16.0540263,13.1617185 16.1649418,13.2441759 C16.203008,13.2724994 16.2005235,13.3316594 16.1591447,13.3558142 C15.636008,13.6614892 15.0921672,13.9197119 14.5201982,14.1354494 C14.4829602,14.1496112 14.4663968,14.1929242 14.4846165,14.2287277 C14.7999714,14.8392793 15.1600475,15.4206796 15.5565334,15.9721007 C15.5730968,15.9954277 15.6028813,16.0054208 15.6302109,15.9970834 C17.3461179,15.4665057 19.0860418,14.6660271 20.8822516,13.3474768 C20.8979868,13.3358281 20.9079248,13.3183255 20.9095812,13.2991673 C21.3474459,8.77122243 20.1761784,4.83804137 17.8046869,1.35129532 C17.7988897,1.33964662 17.7889812,1.33130922 17.7773869,1.3263127 Z M7.30424623,10.3529412 C6.3031422,10.3529412 5.47826087,9.50811824 5.47826087,8.47058824 C5.47826087,7.43305823 6.28714537,6.58823529 7.30424623,6.58823529 C8.3293312,6.58823529 9.14622842,7.44047611 9.13020298,8.47058824 C9.13020298,9.50811824 8.32131848,10.3529412 7.30424623,10.3529412 Z M13.6955224,10.3529412 C12.6944467,10.3529412 11.8695652,9.50811824 11.8695652,8.47058824 C11.8695652,7.43305823 12.6784213,6.58823529 13.6955224,6.58823529 C14.7206362,6.58823529 15.537505,7.44047611 15.5215081,8.47058824 C15.5215081,9.50811824 14.7206362,10.3529412 13.6955224,10.3529412 Z"></path>
                            </g>
                        </g>
                    </g>
                </g>
            </g>
        </g>
    </g>
</svg>