<?xml version="1.0" encoding="UTF-8"?>
<svg width="25px" height="25px" viewBox="0 0 25 25" version="1.1" xmlns="http://www.w3.org/2000/svg" xmlns:xlink="http://www.w3.org/1999/xlink">
    <!-- Generator: sketchtool 62 (101010) - https://sketch.com -->
    <title>D3B668BF-66C6-4AF9-BFE7-EF6C1A2A4792</title>
    <desc>Created with sketchtool.</desc>
    <g id="Thrive" stroke="none" stroke-width="1" fill="none" fill-rule="evenodd">
        <g id="D01_2_Homepage---Dropdown" transform="translate(-1091.000000, -620.000000)">
            <g id="Group-3" transform="translate(1072.000000, 557.000000)">
                <g id="icon-/-title" transform="translate(19.000000, 63.000000)">
                    <rect id="Rectangle" fill="#FFFFFF" x="0" y="0" width="25" height="25"></rect>
                    <g id="Group-4" stroke-width="1" transform="translate(3.000000, 2.000000)" stroke="#000000" stroke-linecap="round" stroke-linejoin="round">
                        <line x1="3" y1="6.5" x2="15" y2="6.5" id="Stroke-1" stroke-width="1.5"></line>
                        <path d="M18.5624284,4.70393546 C18.8430699,4.97911793 19,5.35201826 19,5.7406433 L19,19.801906 C18.9988545,21.0149552 17.9977091,21.9977498 16.7605958,22 L2.24742354,22 C1.00801926,22.0022425 0.00229193037,21.019448 0,19.8041524 L0,19.801906 L0,2.20145977 C-0.00114449557,0.987287314 1.00229188,0.00112319376 2.24169617,0 L2.24742354,0 L13.1454757,0 C13.5418101,0 13.9232534,0.153877545 14.2038949,0.429060016 L18.5624284,4.70393546 Z" id="Stroke-2" stroke-width="1.5"></path>
                    </g>
                </g>
            </g>
        </g>
    </g>
</svg>