<?xml version="1.0" encoding="UTF-8"?>
<svg width="25px" height="25px" viewBox="0 0 25 25" version="1.1" xmlns="http://www.w3.org/2000/svg" xmlns:xlink="http://www.w3.org/1999/xlink">
    <!-- Generator: sketchtool 56.2 (101010) - https://sketch.com -->
    <title>A9996869-58DD-4BD3-B546-2E376569B8CB</title>
    <desc>Created with sketchtool.</desc>
    <g id="Symbols" stroke="none" stroke-width="1" fill="none" fill-rule="evenodd">
        <g id="icon-/-author">
            <rect id="Rectangle" fill="#FFFFFF" opacity="0" x="0" y="0" width="25" height="25"></rect>
            <g transform="translate(2.000000, 0.000000)" fill="#2A2A2A" fill-rule="nonzero" id="Group-18">
                <g>
                    <path d="M2.25,24 C1.009,24 0,22.991 0,21.75 L0,2.25 C0,1.009 1.009,0 2.25,0 L18.75,0 C19.991,0 21,1.009 21,2.25 L21,21.75 C21,22.991 19.991,24 18.75,24 L2.25,24 Z M2.25,1.5 C1.836,1.5 1.5,1.836 1.5,2.25 L1.5,21.75 C1.5,22.164 1.836,22.5 2.25,22.5 L18.75,22.5 C19.164,22.5 19.5,22.164 19.5,21.75 L19.5,2.25 C19.5,1.836 19.164,1.5 18.75,1.5 L2.25,1.5 Z" id="Shape"></path>
                    <path d="M10.5,13.943 C7.82,13.943 5.64,11.763 5.64,9.083 C5.64,6.403 7.82,4.223 10.5,4.223 C13.18,4.223 15.36,6.403 15.36,9.083 C15.36,11.763 13.18,13.943 10.5,13.943 Z M10.5,5.723 C8.647,5.723 7.14,7.23 7.14,9.083 C7.14,10.936 8.647,12.443 10.5,12.443 C12.353,12.443 13.86,10.936 13.86,9.083 C13.86,7.23 12.353,5.723 10.5,5.723 Z" id="Shape"></path>
                    <path d="M3.75,19.777 C3.629,19.777 3.509,19.747 3.401,19.691 C3.035,19.498 2.894,19.043 3.087,18.678 C3.879,17.176 5.091,15.963 6.594,15.171 C7.799,14.536 9.146,14.201 10.491,14.201 C11.331,14.201 12.168,14.329 12.98,14.58 C15.118,15.242 16.87,16.697 17.914,18.678 C18.107,19.044 17.966,19.498 17.6,19.691 C17.493,19.747 17.372,19.777 17.251,19.777 L17.251,19.777 C16.971,19.777 16.717,19.623 16.587,19.376 C15.731,17.751 14.292,16.556 12.536,16.012 C11.869,15.805 11.181,15.701 10.492,15.701 C9.388,15.701 8.282,15.976 7.293,16.498 C6.06,17.148 5.064,18.144 4.414,19.377 C4.283,19.624 4.029,19.777 3.75,19.777 Z" id="Path"></path>
                </g>
            </g>
        </g>
    </g>
</svg>