<?xml version="1.0" encoding="UTF-8"?>
<svg width="25px" height="25px" viewBox="0 0 25 25" version="1.1" xmlns="http://www.w3.org/2000/svg" xmlns:xlink="http://www.w3.org/1999/xlink">
    <!-- Generator: sketchtool 56.2 (101010) - https://sketch.com -->
    <title>C038374B-BBE2-4B87-BFED-49E7083150FF</title>
    <desc>Created with sketchtool.</desc>
    <g id="Symbols" stroke="none" stroke-width="1" fill="none" fill-rule="evenodd">
        <g id="icon-/-tags">
            <g transform="translate(1.000000, 1.000000)" fill="#2A2A2A" fill-rule="nonzero" id="Group-17">
                <g>
                    <path d="M14.25,23.378 C13.649,23.378 13.084,23.144 12.659,22.72 L1.098,11.158 C0.39,10.449 -2.7533531e-13,9.508 -2.7533531e-13,8.507 L-2.7533531e-13,2.25 C-2.7533531e-13,1.009 1.009,-3.55271368e-14 2.25,-3.55271368e-14 L8.507,-3.55271368e-14 C9.508,-3.55271368e-14 10.45,0.39 11.158,1.098 L22.719,12.659 C23.596,13.536 23.596,14.963 22.719,15.841 L15.84,22.721 C15.416,23.145 14.851,23.378 14.25,23.378 Z M2.25,1.5 C1.836,1.5 1.5,1.836 1.5,2.25 L1.5,8.507 C1.5,9.108 1.734,9.673 2.159,10.098 L13.72,21.66 C13.861,21.801 14.049,21.879 14.25,21.879 C14.451,21.879 14.639,21.801 14.78,21.66 L21.659,14.78 C21.951,14.488 21.951,14.012 21.659,13.719 L10.098,2.158 C9.673,1.734 9.108,1.5 8.508,1.5 L2.25,1.5 Z" id="Shape"></path>
                    <path d="M6,8.25 C4.759,8.25 3.75,7.241 3.75,6 C3.75,4.759 4.759,3.75 6,3.75 C7.241,3.75 8.25,4.759 8.25,6 C8.25,7.241 7.241,8.25 6,8.25 Z M6,5.25 C5.586,5.25 5.25,5.586 5.25,6 C5.25,6.414 5.586,6.75 6,6.75 C6.414,6.75 6.75,6.414 6.75,6 C6.75,5.586 6.414,5.25 6,5.25 Z" id="Shape"></path>
                </g>
            </g>
        </g>
    </g>
</svg>