<?xml version="1.0" encoding="UTF-8"?>
<svg width="16px" height="16px" viewBox="0 0 16 16" version="1.1" xmlns="http://www.w3.org/2000/svg" xmlns:xlink="http://www.w3.org/1999/xlink">
    <!-- Generator: Sketch 52.5 (67469) - http://www.bohemiancoding.com/sketch -->
    <title>Fill 81 Copy</title>
    <desc>Created with Sketch.</desc>
    <g id="Page-1" stroke="none" stroke-width="1" fill="none" fill-rule="evenodd">
        <g id="D02_4_Sub-Categories-Filter" transform="translate(-898.000000, -749.000000)" fill="#C3C3C8">
            <g id="input/filled-copy-5" transform="translate(757.000000, 725.000000)">
                <path d="M155,38 L143,38 L143,31 L155,31 L155,38 Z M156,26 L154,26 L154,25 C154,24.4 153.6,24 153,24 L152,24 C151.4,24 151,24.4 151,25 L151,26 L147,26 L147,25 C147,24.4 146.6,24 146,24 L145,24 C144.4,24 144,24.4 144,25 L144,26 L142,26 C141.4,26 141,26.4 141,27 L141,39 C141,39.6 141.4,40 142,40 L156,40 C156.6,40 157,39.6 157,39 L157,27 C157,26.4 156.6,26 156,26 L156,26 Z" id="Fill-81-Copy"></path>
            </g>
        </g>
    </g>
</svg>