<?xml version="1.0" encoding="UTF-8"?>
<svg width="7px" height="7px" viewBox="0 0 7 7" version="1.1" xmlns="http://www.w3.org/2000/svg" xmlns:xlink="http://www.w3.org/1999/xlink">
    <!-- Generator: Sketch 52.5 (67469) - http://www.bohemiancoding.com/sketch -->
    <title>Fill 3198</title>
    <desc>Created with Sketch.</desc>
    <g id="Page-1" stroke="none" stroke-width="1" fill="none" fill-rule="evenodd">
        <g id="D02_4_Sub-Categories-Filter" transform="translate(-609.000000, -678.000000)" fill="#C3C3C8">
            <g id="Group-14" transform="translate(527.000000, 666.000000)">
                <path d="M82.70014,18.999825 C82.879331,18.999825 83.0585221,18.9312284 83.1950152,18.7947353 L85.5,16.4897505 L87.8049848,18.7947353 C87.9414779,18.9312284 88.120669,18.999825 88.29986,18.999825 C88.479051,18.999825 88.6582421,18.9312284 88.7947353,18.7947353 C89.0684216,18.5210489 89.0684216,18.0786711 88.7947353,17.8049848 L86.4897505,15.5 L88.7947353,13.1950152 C89.0684216,12.9213289 89.0684216,12.4789511 88.7947353,12.2052647 C88.5210489,11.9315784 88.0786711,11.9315784 87.8049848,12.2052647 L85.5,14.5102495 L83.1950152,12.2052647 C82.9213289,11.9315784 82.4789511,11.9315784 82.2052647,12.2052647 C81.9315784,12.4789511 81.9315784,12.9213289 82.2052647,13.1950152 L84.5102495,15.5 L82.2052647,17.8049848 C81.9315784,18.0786711 81.9315784,18.5210489 82.2052647,18.7947353 C82.3417579,18.9312284 82.520949,18.999825 82.70014,18.999825 Z" id="Fill-3198"></path>
            </g>
        </g>
    </g>
</svg>