<?xml version="1.0" encoding="UTF-8"?>
<svg width="25px" height="25px" viewBox="0 0 25 25" version="1.1" xmlns="http://www.w3.org/2000/svg" xmlns:xlink="http://www.w3.org/1999/xlink">
    <!-- Generator: sketchtool 56.2 (101010) - https://sketch.com -->
    <title>01FB7E5D-7B41-4DEB-B997-E70DC13FE738</title>
    <desc>Created with sketchtool.</desc>
    <g id="Symbols" stroke="none" stroke-width="1" fill="none" fill-rule="evenodd">
        <g id="icon-/-all">
            <rect id="Rectangle" fill-opacity="0" fill="#FFFFFF" x="0" y="0" width="25" height="25"></rect>
            <g fill="#2A2A2A" fill-rule="nonzero" id="navigation-menu-3">
                <g>
                    <g id="Group-20" transform="translate(0.000000, 0.003000)">
                        <path d="M12,24 C5.383,24 0,18.617 0,12 C0,5.383 5.383,1.42108547e-14 12,1.42108547e-14 C18.617,1.42108547e-14 24,5.383 24,12 C24,18.617 18.617,24 12,24 Z M12,1.5 C6.21,1.5 1.5,6.21 1.5,12 C1.5,17.79 6.21,22.5 12,22.5 C17.79,22.5 22.5,17.79 22.5,12 C22.5,6.21 17.79,1.5 12,1.5 Z" id="Shape"></path>
                        <path d="M7.5,9 C7.086,9 6.75,8.664 6.75,8.25 C6.75,7.836 7.086,7.5 7.5,7.5 L16.5,7.5 C16.914,7.5 17.25,7.836 17.25,8.25 C17.25,8.664 16.914,9 16.5,9 L7.5,9 Z" id="Path"></path>
                        <path d="M7.5,12.75 C7.086,12.75 6.75,12.414 6.75,12 C6.75,11.586 7.086,11.25 7.5,11.25 L16.5,11.25 C16.914,11.25 17.25,11.586 17.25,12 C17.25,12.414 16.914,12.75 16.5,12.75 L7.5,12.75 Z" id="Path"></path>
                        <path d="M7.5,16.5 C7.086,16.5 6.75,16.164 6.75,15.75 C6.75,15.336 7.086,15 7.5,15 L16.5,15 C16.914,15 17.25,15.336 17.25,15.75 C17.25,16.164 16.914,16.5 16.5,16.5 L7.5,16.5 Z" id="Path"></path>
                    </g>
                </g>
            </g>
        </g>
    </g>
</svg>