<?xml version="1.0" encoding="UTF-8"?>
<svg width="10px" height="10px" viewBox="0 0 10 10" version="1.1" xmlns="http://www.w3.org/2000/svg" xmlns:xlink="http://www.w3.org/1999/xlink">
    <title>066D371D-4870-4B72-8053-753A70C9C648</title>
    <g id="Symbols" stroke="none" stroke-width="1" fill="none" fill-rule="evenodd">
        <g id="UI-Kit/Icons/12/x-mark" transform="translate(-3.000000, -3.000000)" fill="#2A2A2A">
            <path d="M12.7075674,3.29243263 C12.3175394,2.90252246 11.6853041,2.90252246 11.2952762,3.29243263 L8.0062557,6.58145309 L4.71723523,3.29243263 C4.32533053,2.9139184 3.70237838,2.91933168 3.31711073,3.30459933 C2.93184309,3.68986698 2.9264298,4.31281913 3.30494403,4.70472383 L6.5939645,7.9937443 L3.30494403,11.2827648 C3.0453016,11.5335358 2.94117158,11.9048899 3.03257642,12.2540968 C3.12398127,12.6033037 3.39669626,12.8760187 3.74590317,12.9674236 C4.09511008,13.0588284 4.46646418,12.9546984 4.71723523,12.695056 L8.0062557,9.4060355 L11.2952762,12.695056 C11.6871809,13.0735702 12.310133,13.0681569 12.6954007,12.6828893 C13.0806683,12.2976216 13.0860816,11.6746695 12.7075674,11.2827648 L9.41854691,7.9937443 L12.7075674,4.70472383 C13.0974775,4.31469589 13.0974775,3.68246057 12.7075674,3.29243263 Z" id="Path"></path>
        </g>
    </g>
</svg>