<svg width="20" height="20" viewBox="0 0 20 20" fill="none" xmlns="http://www.w3.org/2000/svg">
<path fill-rule="evenodd" clip-rule="evenodd" d="M10.0004 19.6C15.3023 19.6 19.6004 15.302 19.6004 10C19.6004 4.69809 15.3023 0.400024 10.0004 0.400024C4.69846 0.400024 0.400391 4.69809 0.400391 10C0.400391 15.302 4.69846 19.6 10.0004 19.6ZM8.44892 6.7515C7.98029 6.28287 7.22049 6.28287 6.75186 6.7515C6.28323 7.22012 6.28323 7.97992 6.75186 8.44855L8.30333 10L6.75186 11.5515C6.28323 12.0201 6.28323 12.7799 6.75186 13.2486C7.22049 13.7172 7.98029 13.7172 8.44892 13.2486L10.0004 11.6971L11.5519 13.2486C12.0205 13.7172 12.7803 13.7172 13.2489 13.2486C13.7175 12.7799 13.7175 12.0201 13.2489 11.5515L11.6974 10L13.2489 8.44855C13.7175 7.97992 13.7175 7.22012 13.2489 6.7515C12.7803 6.28287 12.0205 6.28287 11.5519 6.7515L10.0004 8.30297L8.44892 6.7515Z" fill="#EF476F"/>
</svg>
