<?xml version="1.0" encoding="UTF-8"?>
<svg width="16px" height="14px" viewBox="0 0 16 14" version="1.1" xmlns="http://www.w3.org/2000/svg" xmlns:xlink="http://www.w3.org/1999/xlink">
    <g id="Challenge-Details---Desktop" stroke="none" stroke-width="1" fill="none" fill-rule="evenodd">
        <g id="04_1_Review_Status" transform="translate(-588.000000, -698.000000)" fill="#959596">
            <g id="icon-in-review" transform="translate(588.000000, 698.000000)">
                <g id="Combined-Shape">
                    <path d="M10,4.08550376 C12.206,4.08550376 14,5.91785219 14,8.17100751 C14,8.84284591 13.8301235,9.46949157 13.5451523,10.0272721 L13.433,10.2331655 L15.707,12.5557744 L14.293,14 L12.019,11.6773911 C11.424,12.0369154 10.74,12.2565113 10,12.2565113 C7.794,12.2565113 6,10.4241628 6,8.17100751 C6,5.91785219 7.794,4.08550376 10,4.08550376 Z M4,10.2137594 L4,12.2565113 L1,12.2565113 C0.4848,12.2565113 0.0601955556,11.8579114 0.00587140741,11.3463748 L0,11.2351353 C0,10.6713358 0.448,10.2137594 1,10.2137594 L4,10.2137594 Z M10,6.12825564 C8.897,6.12825564 8,7.04442985 8,8.17100751 C8,9.29758518 8.897,10.2137594 10,10.2137594 C11.103,10.2137594 12,9.29758518 12,8.17100751 C12,7.04442985 11.103,6.12825564 10,6.12825564 Z M4,5.1068797 L4,7.14963158 L1,7.14963158 C0.4848,7.14963158 0.0601955556,6.75103167 0.00587140741,6.23949513 L0,6.12825564 C0,5.56445612 0.448,5.1068797 1,5.1068797 L4,5.1068797 Z M15,0 C15.5152,0 15.9398044,0.398599904 15.9941286,0.910136448 L16,1.02137594 C16,1.58517546 15.552,2.04275188 15,2.04275188 L1,2.04275188 C0.4848,2.04275188 0.0601955556,1.64415197 0.00587140741,1.13261543 L0,1.02137594 C0,0.457576421 0.448,0 1,0 L15,0 Z" fill-rule="nonzero"></path>
                </g>
            </g>
        </g>
    </g>
</svg>