<?xml version="1.0" encoding="UTF-8" standalone="no"?>
<svg width="45px" height="56px" viewBox="0 0 45 56" version="1.1" xmlns="http://www.w3.org/2000/svg" xmlns:xlink="http://www.w3.org/1999/xlink">
    <g id="Challenge-Details---Desktop" stroke="none" stroke-width="1" fill="black" fill-rule="evenodd">
      <path d="M4.64285714,24.4102564 C3.26428571,24.4102564 2.14285714,25.5374359 2.14285714,26.9230769 L2.14285714,51.3333333 C2.14285714,52.7189744 3.26428571,53.8461538 4.64285714,53.8461538 L40.3571429,53.8461538 C41.7357143,53.8461538 42.8571429,52.7189744 42.8571429,51.3333333 L42.8571429,26.9230769 C42.8571429,25.5374359 41.7357143,24.4102564 40.3571429,24.4102564 L4.64285714,24.4102564 Z M40.3571429,56 L4.64285714,56 C2.08285714,56 0,53.9064615 0,51.3333333 L0,26.9230769 C0,24.3499487 2.08285714,22.2564103 4.64285714,22.2564103 L40.3571429,22.2564103 C42.9171429,22.2564103 45,24.3499487 45,26.9230769 L45,51.3333333 C45,53.9064615 42.9171429,56 40.3571429,56 L40.3571429,56 Z" id="Fill-1-Copy"></path>
      <path d="M36.4285714,22.2564103 L34.2857143,22.2564103 L34.2857143,13.5591795 C34.2857143,7.16369231 29.4235714,2.15384615 23.2171429,2.15384615 C16.8242857,2.15384615 11.4285714,7.37692308 11.4285714,13.5591795 L11.4285714,22.2564103 L9.28571429,22.2564103 L9.28571429,13.5591795 C9.28571429,6.08246154 15.5328571,0 23.2114286,0 C30.6257143,0 36.4285714,5.95538462 36.4285714,13.5591795 L36.4285714,22.2564103 Z" id="Fill-3-Copy"></path>
      <path d="M25.4731285,34.3267436 C25.4731285,35.987379 24.1340413,37.3333333 22.4818785,37.3333333 C20.8305269,37.3333333 19.4914396,35.987379 19.4914396,34.3267436 C19.4914396,32.6661082 20.8305269,31.3201538 22.4818785,31.3201538 C24.1340413,31.3201538 25.4731285,32.6661082 25.4731285,34.3267436" id="Fill-5-Copy"></path>
      <polygon id="Fill-7-Copy" points="26.2053571 47.2724718 19.0625 47.2724718 21.2053571 34.5288821 24.0625 34.5288821"></polygon>
    </g>
</svg>