<svg width="49" height="54" viewBox="0 0 49 54" fill="none" xmlns="http://www.w3.org/2000/svg">
<path fill-rule="evenodd" clip-rule="evenodd" d="M11.1667 13.6667C11.1667 6.30291 17.1362 0.333374 24.5 0.333374C31.8638 0.333374 37.8333 6.30291 37.8333 13.6667V21.6667H40.5C44.9183 21.6667 48.5 25.2484 48.5 29.6667V45.6667C48.5 50.085 44.9183 53.6667 40.5 53.6667H8.5C4.08172 53.6667 0.5 50.085 0.5 45.6667V29.6667C0.5 25.2484 4.08172 21.6667 8.5 21.6667H11.1667V13.6667ZM16.5 21.6667H32.5V13.6667C32.5 9.24843 28.9183 5.66671 24.5 5.66671C20.0817 5.66671 16.5 9.24843 16.5 13.6667V21.6667ZM8.5 27C7.02724 27 5.83333 28.194 5.83333 29.6667V45.6667C5.83333 47.1395 7.02724 48.3334 8.5 48.3334H40.5C41.9728 48.3334 43.1667 47.1395 43.1667 45.6667V29.6667C43.1667 28.194 41.9728 27 40.5 27H8.5ZM24.5 32.3334C25.9728 32.3334 27.1667 33.5273 27.1667 35V40.3334C27.1667 41.8061 25.9728 43 24.5 43C23.0272 43 21.8333 41.8061 21.8333 40.3334V35C21.8333 33.5273 23.0272 32.3334 24.5 32.3334Z" fill="#137D60"/>
</svg>
