<svg width="28" height="28" viewBox="0 0 28 28" fill="none" xmlns="http://www.w3.org/2000/svg">
<path fill-rule="evenodd" clip-rule="evenodd" d="M5 8C5 7.44772 5.44772 7 6 7H22C22.5523 7 23 7.44772 23 8C23 8.55228 22.5523 9 22 9H6C5.44772 9 5 8.55228 5 8ZM5 12C5 11.4477 5.44772 11 6 11H22C22.5523 11 23 11.4477 23 12C23 12.5523 22.5523 13 22 13H6C5.44772 13 5 12.5523 5 12ZM5 16C5 15.4477 5.44772 15 6 15H22C22.5523 15 23 15.4477 23 16C23 16.5523 22.5523 17 22 17H6C5.44772 17 5 16.5523 5 16ZM5 20C5 19.4477 5.44772 19 6 19H22C22.5523 19 23 19.4477 23 20C23 20.5523 22.5523 21 22 21H6C5.44772 21 5 20.5523 5 20Z" fill="#AAAAAA"/>
<rect x="1" y="1" width="26" height="26" rx="3" stroke="#AAAAAA" stroke-width="2"/>
</svg>
