<svg width="28" height="28" viewBox="0 0 28 28" fill="none" xmlns="http://www.w3.org/2000/svg">
<path fill-rule="evenodd" clip-rule="evenodd" d="M4 10C4 8.34315 5.34315 7 7 7H21C22.6569 7 24 8.34315 24 10V18C24 19.6569 22.6569 21 21 21H7C5.34315 21 4 19.6569 4 18V10ZM7 9C6.44772 9 6 9.44772 6 10V11H22V10C22 9.44772 21.5523 9 21 9H7ZM22 13H15V15H22V13ZM22 17H15V19H21C21.5523 19 22 18.5523 22 18V17ZM13 19V17H6V18C6 18.5523 6.44772 19 7 19H13ZM6 15H13V13H6V15Z" fill="#AAAAAA"/>
<rect x="1" y="1" width="26" height="26" rx="3" stroke="#AAAAAA" stroke-width="2"/>
</svg>
