<?xml version="1.0" encoding="UTF-8"?><svg width="35px" height="23px" viewBox="0 0 35 23" version="1.1" xmlns="http://www.w3.org/2000/svg" xmlns:xlink="http://www.w3.org/1999/xlink"><title>004-console</title><desc>Created with Sketch.</desc><g id="Symbols" stroke="none" stroke-width="1" fill="none" fill-rule="evenodd"><g id="device/console" transform="translate(-3.000000, -2.000000)" fill="#000000" fill-rule="nonzero"><g id="004-console" transform="translate(3.000000, 2.000000)"><path d="M34.8883696,15.8675 C34.801413,13.8675 34.453587,11.6501087 33.9318478,9.56315217 C33.4101087,7.56315217 32.7579348,5.69358696 31.9753261,4.25880435 C28.9318478,-1.08902174 25.6275,-0.262934783 21.6709783,0.780543478 C20.4101087,1.0848913 19.0622826,1.43271739 17.6709783,1.56315217 L17.2361957,1.56315217 C15.8448913,1.43271739 14.4970652,1.0848913 13.2361957,0.780543478 C9.27967391,-0.219456522 5.97532609,-1.08902174 2.93184783,4.30228261 C2.14923913,5.73706522 1.45358696,7.60663043 0.975326087,9.60663043 C0.453586957,11.693587 0.10576087,13.9109783 0.0188043478,15.9109783 C-0.0681521739,18.1283696 0.14923913,19.7370652 0.6275,20.8675 C1.10576087,21.9109783 1.80141304,22.5631522 2.71445652,22.8240217 C3.54054348,23.041413 4.49706522,22.9544565 5.49706522,22.5196739 C7.19271739,21.8240217 9.14923913,20.3457609 11.0622826,18.5631522 C12.4101087,17.2588043 14.9318478,16.6066304 17.453587,16.6066304 C19.9753261,16.6066304 22.4970652,17.2588043 23.8448913,18.5631522 C25.7579348,20.3457609 27.7144565,21.8240217 29.4101087,22.5196739 C30.4101087,22.9109783 31.3666304,23.041413 32.1927174,22.8240217 C33.0622826,22.5631522 33.801413,21.9544565 34.2796739,20.8240217 C34.7579348,19.7370652 34.9753261,18.1283696 34.8883696,15.8675 Z M32.801413,20.2153261 C32.5405435,20.8240217 32.1927174,21.1718478 31.7579348,21.3022826 C31.2796739,21.4327174 30.6709783,21.3457609 29.9753261,21.0848913 C28.453587,20.4761957 26.6709783,19.1283696 24.9318478,17.4761957 C23.2796739,15.8240217 20.3666304,14.9979348 17.453587,14.9979348 C14.5405435,14.9979348 11.6275,15.8240217 9.93184783,17.3892391 C8.14923913,19.041413 6.36663043,20.4327174 4.88836957,20.9979348 C4.19271739,21.2588043 3.58402174,21.3892391 3.10576087,21.2153261 C2.67097826,21.0848913 2.32315217,20.7370652 2.06228261,20.1283696 C1.71445652,19.3022826 1.54054348,17.9544565 1.6275,15.9544565 C1.71445652,14.0848913 2.01880435,11.9544565 2.54054348,9.95445652 C3.01880435,8.0848913 3.6275,6.34576087 4.36663043,5.04141304 C6.75793478,0.737065217 9.54054348,1.43271739 12.8448913,2.30228261 C14.1927174,2.6501087 15.5840217,2.99793478 17.1057609,3.12836957 C17.1492391,3.12836957 17.1492391,3.12836957 17.1927174,3.12836957 L17.6709783,3.12836957 C17.7144565,3.12836957 17.7144565,3.12836957 17.7579348,3.12836957 C19.3231522,2.99793478 20.7144565,2.6501087 22.0622826,2.30228261 C25.3666304,1.47619565 28.1492391,0.737065217 30.5405435,5.04141304 C31.2796739,6.34576087 31.8883696,8.04141304 32.3666304,9.95445652 C32.8448913,11.9544565 33.1927174,14.041413 33.2796739,15.9544565 C33.3666304,17.9544565 33.1927174,19.3022826 32.801413,20.2153261 Z" id="Shape"></path><path d="M13.453587,7.38923913 C13.0188043,6.99793478 12.4970652,6.69358696 11.8883696,6.6501087 C11.8448913,6.0848913 11.5840217,5.51967391 11.1927174,5.12836957 L11.1492391,5.0848913 C10.6709783,4.60663043 10.0622826,4.34576087 9.36663043,4.34576087 C8.67097826,4.34576087 8.01880435,4.6501087 7.58402174,5.0848913 C7.19271739,5.47619565 6.88836957,6.04141304 6.8448913,6.6501087 C6.23619565,6.69358696 5.71445652,6.95445652 5.27967391,7.34576087 L5.23619565,7.38923913 C4.75793478,7.8675 4.49706522,8.47619565 4.49706522,9.17184783 C4.49706522,9.8675 4.80141304,10.5196739 5.23619565,10.9544565 C5.67097826,11.3892391 6.19271739,11.6501087 6.8448913,11.693587 C6.88836957,12.3022826 7.14923913,12.8675 7.58402174,13.2588043 C8.06228261,13.7370652 8.67097826,13.9979348 9.36663043,13.9979348 C10.0622826,13.9979348 10.7144565,13.693587 11.1492391,13.2588043 C11.5405435,12.8240217 11.8448913,12.3022826 11.8883696,11.693587 C12.4970652,11.6501087 13.0622826,11.3892391 13.453587,10.9544565 C13.9318478,10.4761957 14.1927174,9.8675 14.1927174,9.17184783 C14.1927174,8.47619565 13.8883696,7.82402174 13.453587,7.38923913 Z M12.3666304,9.82402174 C12.1927174,9.99793478 11.9753261,10.0848913 11.7144565,10.0848913 L11.1057609,10.0848913 C10.6709783,10.0848913 10.2796739,10.4327174 10.2796739,10.9109783 L10.2796739,11.4761957 C10.2796739,11.7370652 10.1927174,11.9544565 10.0188043,12.1283696 C9.8448913,12.3022826 9.6275,12.3892391 9.36663043,12.3892391 C9.10576087,12.3892391 8.88836957,12.3022826 8.71445652,12.1283696 C8.54054348,11.9544565 8.45358696,11.7370652 8.45358696,11.4761957 L8.45358696,10.8675 C8.45358696,10.4327174 8.10576087,10.041413 7.6275,10.041413 L7.01880435,10.041413 C6.75793478,10.041413 6.54054348,9.95445652 6.36663043,9.78054348 C6.23619565,9.6501087 6.10576087,9.43271739 6.10576087,9.17184783 C6.10576087,8.91097826 6.19271739,8.69358696 6.36663043,8.51967391 C6.36663043,8.51967391 6.36663043,8.51967391 6.4101087,8.47619565 C6.58402174,8.34576087 6.80141304,8.25880435 7.01880435,8.25880435 L7.6275,8.25880435 C8.06228261,8.25880435 8.45358696,7.91097826 8.45358696,7.43271739 L8.45358696,6.82402174 C8.45358696,6.56315217 8.54054348,6.34576087 8.71445652,6.17184783 C8.88836957,5.99793478 9.10576087,5.91097826 9.36663043,5.91097826 C9.6275,5.91097826 9.8448913,5.99793478 10.0188043,6.17184783 C10.0188043,6.17184783 10.0188043,6.17184783 10.0622826,6.21532609 C10.1927174,6.38923913 10.2796739,6.60663043 10.2796739,6.82402174 L10.2796739,7.43271739 C10.2796739,7.8675 10.6275,8.25880435 11.1057609,8.25880435 L11.7144565,8.25880435 C11.9753261,8.25880435 12.1927174,8.34576087 12.3666304,8.51967391 C12.5405435,8.69358696 12.6275,8.91097826 12.6275,9.17184783 C12.6275,9.43271739 12.5405435,9.6501087 12.3666304,9.82402174 Z" id="Shape"></path><circle id="Oval" cx="25.0188043" cy="6.0848913" r="1.52173913"></circle><circle id="Oval" cx="25.0188043" cy="12.2588043" r="1.52173913"></circle><circle id="Oval" cx="21.9318478" cy="9.17184783" r="1.52173913"></circle><circle id="Oval" cx="28.1057609" cy="9.17184783" r="1.52173913"></circle></g></g></g></svg>
