<svg xmlns="http://www.w3.org/2000/svg" width="50" height="50" viewBox="0 0 50 50">
    <g fill="none" fill-rule="evenodd" stroke="#444" stroke-width="2">
        <path d="M25 7v12.222"/>
        <path fill="#CEF0AF" d="M35.667 22.556c-.126 0-.25.004-.375.009v-.01h-21v.002C9.156 22.58 5 26.798 5 32c0 5.216 4.179 9.444 9.333 9.444 3.723 0 6.936-2.206 8.434-5.396h4.466c1.498 3.19 4.71 5.396 8.434 5.396C40.82 41.444 45 37.216 45 32c0-5.216-4.179-9.444-9.333-9.444z"/>
        <path fill="#FFF" d="M35.917 35.373c0 .792-.634 1.434-1.417 1.434a1.425 1.425 0 0 1-1.417-1.434c0-.792.634-1.434 1.417-1.434s1.417.642 1.417 1.434zM40.583 30.65c0 .792-.634 1.434-1.416 1.434a1.425 1.425 0 0 1-1.417-1.433c0-.792.634-1.434 1.417-1.434.782 0 1.416.642 1.416 1.434z"/>
        <path d="M18.333 31.444H9.444M13.89 27v8.889"/>
    </g>
</svg>
