<?xml version="1.0" encoding="UTF-8"?><svg width="45px" height="29px" viewBox="0 0 45 29" version="1.1" xmlns="http://www.w3.org/2000/svg" xmlns:xlink="http://www.w3.org/1999/xlink"><title>computer</title><desc>Created with Sketch.</desc><g id="Symbols" stroke="none" stroke-width="1" fill="none" fill-rule="evenodd"><g id="device/desktop" fill="#000000" fill-rule="nonzero"><g id="computer" transform="translate(0.000000, -0.000000)"><path d="M10.0660635,24.6076163 L9.20196293,24.6076163 C8.03046919,24.6076163 7.07712543,25.554496 7.07712543,26.7180465 L7.07712543,27.4215233 C7.07712543,27.8105459 7.39372622,28.125 7.7854046,28.125 L21.9467383,28.125 C22.3384166,28.125 22.6550174,27.8105459 22.6550174,27.4215233 L22.6550174,26.7180465 C22.6550174,25.554496 21.7016737,24.6076163 20.5301799,24.6076163 L19.6660793,24.6076163 L19.312648,23.2034767 L27.6073054,23.2034767 C28.7787991,23.2034767 29.7321429,22.256597 29.7321429,21.0930465 L29.7321429,2.11043022 C29.7321429,0.94687969 28.7787991,0 27.6073054,0 L2.1248375,0 C0.953343758,0 0,0.94687969 0,2.11043022 L0,21.0930465 C0,22.256597 0.953343758,23.2034767 2.1248375,23.2034767 L10.4194948,23.2034767 L10.0660635,24.6076163 Z M9.20196293,26.0145698 L20.5301799,26.0145698 C20.92115,26.0145698 21.2384591,26.3297274 21.2384591,26.7180465 L8.49368377,26.7180465 C8.49368377,26.3297274 8.81099283,26.0145698 9.20196293,26.0145698 Z M18.2070243,24.6076163 L11.5251186,24.6076163 L11.8785499,23.2034767 L17.853593,23.2034767 L18.2070243,24.6076163 Z M2.1248375,1.40695348 L27.6080136,1.40695348 C27.9989837,1.40695348 28.3162928,1.72211106 28.3162928,2.11043022 L28.3162928,18.9826163 L1.41655833,18.9826163 L1.41655833,2.11043022 C1.41655833,1.72211106 1.7338674,1.40695348 2.1248375,1.40695348 Z M1.41655833,21.0930465 L1.41655833,20.3895698 L14.880237,20.3895698 C14.4892669,20.3895698 14.1762075,20.7040239 14.1762075,21.0930465 C14.1762075,21.4820692 14.4963497,21.7965233 14.8880281,21.7965233 C15.2789982,21.7965233 15.5963072,21.4820692 15.5963072,21.0930465 C15.5963072,20.7040239 15.2789982,20.3895698 14.8880281,20.3895698 L28.3162928,20.3895698 L28.3162928,21.0930465 C28.3162928,21.4813657 27.9989837,21.7965233 27.6080136,21.7965233 L14.8873198,21.7965233 L2.1248375,21.7965233 C1.7338674,21.7965233 1.41655833,21.4813657 1.41655833,21.0930465 Z" id="Shape"></path><path d="M42.9509953,0 L33.3882904,0 C32.2586058,0 31.3392857,0.94687969 31.3392857,2.11043022 L31.3392857,26.0145698 C31.3392857,27.1781203 32.2586058,28.125 33.3882904,28.125 L42.9509953,28.125 C44.0806799,28.125 45,27.1781203 45,26.0145698 L45,2.11043022 C45,0.946176213 44.0806799,0 42.9509953,0 Z M32.7052888,4.21804652 L43.6339969,4.21804652 L43.6339969,4.92011631 L32.7052888,4.92011631 L32.7052888,4.21804652 Z M33.3882904,1.40695348 L42.9509953,1.40695348 C43.3280122,1.40695348 43.6339969,1.72211106 43.6339969,2.11043022 L43.6339969,2.81109305 L32.7052888,2.81109305 L32.7052888,2.11043022 C32.7052888,1.72211106 33.0112735,1.40695348 33.3882904,1.40695348 L33.3882904,1.40695348 Z M42.9509953,26.7180465 L33.3882904,26.7180465 C33.0112735,26.7180465 32.7052888,26.4028889 32.7052888,26.0145698 L32.7052888,6.32706978 L43.6339969,6.32706978 L43.6339969,26.0145698 C43.6339969,26.4028889 43.3280122,26.7180465 42.9509953,26.7180465 Z" id="Shape"></path><path d="M38.1696429,15.2678571 C39.2772321,15.2678571 40.1785714,14.3665179 40.1785714,13.2589286 C40.1785714,12.1513393 39.2772321,11.25 38.1696429,11.25 C37.0620536,11.25 36.1607143,12.1513393 36.1607143,13.2589286 C36.1607143,14.3665179 37.0620536,15.2678571 38.1696429,15.2678571 Z M38.1696429,12.5892857 C38.5392857,12.5892857 38.8392857,12.8892857 38.8392857,13.2589286 C38.8392857,13.6285714 38.5392857,13.9285714 38.1696429,13.9285714 C37.8,13.9285714 37.5,13.6285714 37.5,13.2589286 C37.5,12.8892857 37.8,12.5892857 38.1696429,12.5892857 Z" id="Shape"></path><path d="M40.2589286,19.2857143 L34.4732143,19.2857143 C34.0732768,19.2857143 33.75,19.4653125 33.75,19.6875 C33.75,19.9096875 34.0732768,20.0892857 34.4732143,20.0892857 L40.2589286,20.0892857 C40.6588661,20.0892857 40.9821429,19.9096875 40.9821429,19.6875 C40.9821429,19.4653125 40.6588661,19.2857143 40.2589286,19.2857143 Z" id="Path"></path><path d="M40.2589286,20.8928571 L34.4732143,20.8928571 C34.0732768,20.8928571 33.75,21.0724554 33.75,21.2946429 C33.75,21.5168304 34.0732768,21.6964286 34.4732143,21.6964286 L40.2589286,21.6964286 C40.6588661,21.6964286 40.9821429,21.5168304 40.9821429,21.2946429 C40.9821429,21.0724554 40.6588661,20.8928571 40.2589286,20.8928571 Z" id="Path"></path><path d="M40.2589286,23.3035714 L34.4732143,23.3035714 C34.0732768,23.3035714 33.75,23.4831696 33.75,23.7053571 C33.75,23.9275446 34.0732768,24.1071429 34.4732143,24.1071429 L40.2589286,24.1071429 C40.6588661,24.1071429 40.9821429,23.9275446 40.9821429,23.7053571 C40.9821429,23.4831696 40.6588661,23.3035714 40.2589286,23.3035714 Z" id="Path"></path></g></g></g></svg>
