<svg width="28" height="28" viewBox="0 0 28 28" fill="none" xmlns="http://www.w3.org/2000/svg">
    <path fill-rule="evenodd" clip-rule="evenodd" d="M0.666687 4.66669C0.666687 2.45755 2.45755 0.666687 4.66669 0.666687H23.3334C25.5425 0.666687 27.3334 2.45755 27.3334 4.66669V18C27.3334 20.2092 25.5425 22 23.3334 22H18.7077L19.204 23.985L20.2762 25.0572C20.6575 25.4385 20.7716 26.012 20.5652 26.5103C20.3588 27.0085 19.8726 27.3334 19.3334 27.3334H8.66669C8.1274 27.3334 7.64122 27.0085 7.43485 26.5103C7.22847 26.012 7.34255 25.4385 7.72388 25.0572L8.79607 23.985L9.29232 22H4.66669C2.45755 22 0.666687 20.2092 0.666687 18V4.66669ZM3.33335 16.6667V18C3.33335 18.7364 3.93031 19.3334 4.66669 19.3334H10.9701C10.9893 19.3329 11.0086 19.3329 11.0279 19.3334H16.9721C16.9914 19.3329 17.0107 19.3329 17.0299 19.3334H23.3334C24.0697 19.3334 24.6667 18.7364 24.6667 18V16.6667H3.33335ZM24.6667 14H3.33335V4.66669C3.33335 3.93031 3.93031 3.33335 4.66669 3.33335H23.3334C24.0697 3.33335 24.6667 3.93031 24.6667 4.66669V14ZM15.959 22H12.0411L11.3744 24.6667H16.6257L15.959 22Z" fill="#2A2A2A"/>
    <path fill-rule="evenodd" clip-rule="evenodd" d="M0.666687 4.66669C0.666687 2.45755 2.45755 0.666687 4.66669 0.666687H23.3334C25.5425 0.666687 27.3334 2.45755 27.3334 4.66669V18C27.3334 20.2092 25.5425 22 23.3334 22H18.7077L19.204 23.985L20.2762 25.0572C20.6575 25.4385 20.7716 26.012 20.5652 26.5103C20.3588 27.0085 19.8726 27.3334 19.3334 27.3334H8.66669C8.1274 27.3334 7.64122 27.0085 7.43485 26.5103C7.22847 26.012 7.34255 25.4385 7.72388 25.0572L8.79607 23.985L9.29232 22H4.66669C2.45755 22 0.666687 20.2092 0.666687 18V4.66669ZM3.33335 16.6667V18C3.33335 18.7364 3.93031 19.3334 4.66669 19.3334H10.9701C10.9893 19.3329 11.0086 19.3329 11.0279 19.3334H16.9721C16.9914 19.3329 17.0107 19.3329 17.0299 19.3334H23.3334C24.0697 19.3334 24.6667 18.7364 24.6667 18V16.6667H3.33335ZM24.6667 14H3.33335V4.66669C3.33335 3.93031 3.93031 3.33335 4.66669 3.33335H23.3334C24.0697 3.33335 24.6667 3.93031 24.6667 4.66669V14ZM15.959 22H12.0411L11.3744 24.6667H16.6257L15.959 22Z" fill="black" fill-opacity="0.2"/>
</svg>
