<svg width="20" height="21" viewBox="0 0 20 21" fill="none" xmlns="http://www.w3.org/2000/svg">
    <path fill-rule="evenodd" clip-rule="evenodd" d="M17.5607 2.43934C16.9749 1.85355 16.0251 1.85355 15.4393 2.43934L14.6465 3.23223L16.7678 5.35355L17.5607 4.56066C18.1465 3.97487 18.1465 3.02513 17.5607 2.43934ZM18.9749 5.97487C20.3417 4.60804 20.3417 2.39196 18.9749 1.02513C17.608 -0.341709 15.392 -0.341709 14.0251 1.02513L12.5253 2.52494L0.292954 14.7573C0.105418 14.9448 6.10352e-05 15.1992 6.10352e-05 15.4644V19.0355C6.10352e-05 19.5878 0.447776 20.0355 1.00006 20.0355H4.50006C4.76528 20.0355 5.01963 19.9301 5.20717 19.7426L18.9749 5.97487ZM15.3536 6.76777L13.2322 4.64645L2.00006 15.8786V18.0355H4.08585L15.3536 6.76777Z" fill="#137D60"/>
</svg>