<?xml version="1.0" encoding="UTF-8"?><svg width="40px" height="25px" viewBox="0 0 40 25" version="1.1" xmlns="http://www.w3.org/2000/svg" xmlns:xlink="http://www.w3.org/1999/xlink"><title>notebook</title><desc>Created with Sketch.</desc><g id="Symbols" stroke="none" stroke-width="1" fill="none" fill-rule="evenodd"><g id="device/laptop" transform="translate(0.000000, -1.000000)" fill="#000000" fill-rule="nonzero"><g id="notebook" transform="translate(0.000000, 1.000000)"><path d="M39.8313043,23.2393043 L37.4605217,23.2393043 C37.6657391,22.952 37.7895652,22.6017391 37.7895652,22.221913 L37.7895652,1.81078261 C37.7895652,0.840347826 36.9996522,0.0511304348 36.0292174,0.0511304348 L3.82991304,0.0511304348 C2.85982609,0.0511304348 2.07026087,0.840695652 2.07026087,1.81078261 L2.07026087,22.221913 C2.07026087,22.6093913 2.20034783,22.9655652 2.41356522,23.2570435 L0.020173913,23.2570435 C0.020173913,23.2570435 -0.0873043478,23.365913 0.196173913,23.6490435 C1,24.4532174 2.80556522,24.5227826 2.80556522,24.5227826 L2.80556522,24.5206957 C2.80556522,24.5206957 36.626087,24.5286957 36.6636522,24.5266087 C38.5488696,24.5266087 39.1575652,23.9613913 39.656,23.6316522 C40.0250435,23.2608696 39.8313043,23.2393043 39.8313043,23.2393043 Z M22.1906087,23.6685217 L17.6594783,23.6685217 L17.6594783,23.3606957 L22.189913,23.3606957 L22.1906087,23.6685217 L22.1906087,23.6685217 Z M36.4904348,21.8173913 L3.31686957,21.8173913 L3.31686957,1.23756522 L36.4907826,1.23756522 L36.4907826,21.8173913 L36.4904348,21.8173913 Z" id="Shape"></path></g></g></g></svg>
