<svg width="20" height="28" viewBox="0 0 20 28" fill="none" xmlns="http://www.w3.org/2000/svg">
    <path fill-rule="evenodd" clip-rule="evenodd" d="M0.666687 4.66666C0.666687 2.45752 2.45755 0.666656 4.66669 0.666656H15.3334C17.5425 0.666656 19.3334 2.45752 19.3334 4.66666V23.3333C19.3334 25.5425 17.5425 27.3333 15.3334 27.3333H4.66669C2.45755 27.3333 0.666687 25.5425 0.666687 23.3333V4.66666ZM4.66669 3.33332C3.93031 3.33332 3.33335 3.93028 3.33335 4.66666V23.3333C3.33335 24.0697 3.93031 24.6667 4.66669 24.6667H15.3334C16.0697 24.6667 16.6667 24.0697 16.6667 23.3333V4.66666C16.6667 3.93028 16.0697 3.33332 15.3334 3.33332H4.66669ZM8.66669 22C8.66669 21.2636 9.26364 20.6667 10 20.6667H10.0134C10.7497 20.6667 11.3467 21.2636 11.3467 22C11.3467 22.7364 10.7497 23.3333 10.0134 23.3333H10C9.26364 23.3333 8.66669 22.7364 8.66669 22Z" fill="#2A2A2A"/>
    <path fill-rule="evenodd" clip-rule="evenodd" d="M0.666687 4.66666C0.666687 2.45752 2.45755 0.666656 4.66669 0.666656H15.3334C17.5425 0.666656 19.3334 2.45752 19.3334 4.66666V23.3333C19.3334 25.5425 17.5425 27.3333 15.3334 27.3333H4.66669C2.45755 27.3333 0.666687 25.5425 0.666687 23.3333V4.66666ZM4.66669 3.33332C3.93031 3.33332 3.33335 3.93028 3.33335 4.66666V23.3333C3.33335 24.0697 3.93031 24.6667 4.66669 24.6667H15.3334C16.0697 24.6667 16.6667 24.0697 16.6667 23.3333V4.66666C16.6667 3.93028 16.0697 3.33332 15.3334 3.33332H4.66669ZM8.66669 22C8.66669 21.2636 9.26364 20.6667 10 20.6667H10.0134C10.7497 20.6667 11.3467 21.2636 11.3467 22C11.3467 22.7364 10.7497 23.3333 10.0134 23.3333H10C9.26364 23.3333 8.66669 22.7364 8.66669 22Z" fill="black" fill-opacity="0.2"/>
</svg>
