<?xml version="1.0" encoding="UTF-8"?><svg width="20px" height="36px" viewBox="0 0 20 36" version="1.1" xmlns="http://www.w3.org/2000/svg" xmlns:xlink="http://www.w3.org/1999/xlink"><title>002-mobile-phone-variant</title><desc>Created with Sketch.</desc><g id="Symbols" stroke="none" stroke-width="1" fill="none" fill-rule="evenodd"><g id="device/mobile" fill="#000000" fill-rule="nonzero"><g id="002-mobile-phone-variant"><path d="M17.5226506,0 L2.44497992,0 C1.10289157,0 0.0108433735,1.09204819 0.0108433735,2.43413655 L0.0108433735,33.4371084 C0.0108433735,34.7790361 1.10289157,35.8713253 2.44497992,35.8713253 L17.5226506,35.8713253 C18.8649799,35.8713253 19.9568675,34.7790361 19.9568675,33.4371084 L19.9568675,2.43413655 C19.9568675,1.09204819 18.8649799,0 17.5226506,0 Z M19.0053012,33.4371084 C19.0053012,34.2540562 18.3400803,34.9192771 17.5226506,34.9192771 L2.44497992,34.9192771 C1.62763052,34.9192771 0.962570281,34.2540562 0.962570281,33.4371084 L0.962570281,2.43413655 C0.962570281,1.61678715 1.6275502,0.951726908 2.44497992,0.951726908 L17.5226506,0.951726908 C18.3400803,0.951726908 19.0053012,1.61678715 19.0053012,2.43413655 L19.0053012,33.4371084 L19.0053012,33.4371084 Z" id="Shape"></path><path d="M18.1100402,3.95815261 L1.79261044,3.95815261 C1.66128514,3.95815261 1.55461847,4.06481928 1.55461847,4.19614458 L1.55461847,31.4133333 C1.55461847,31.5450602 1.66128514,31.6514859 1.79261044,31.6514859 L18.1104418,31.6514859 C18.2418474,31.6514859 18.3486747,31.5450602 18.3486747,31.4133333 L18.3486747,4.1962249 C18.3478715,4.06481928 18.2409639,3.95815261 18.1100402,3.95815261 Z M17.2372691,31.175502 L2.66522088,31.175502 C2.31485944,31.175502 2.03060241,30.891245 2.03060241,30.5408835 L2.03060241,5.06859438 C2.03060241,4.7184739 2.31493976,4.43421687 2.66522088,4.43421687 L17.237992,4.43421687 C17.5882731,4.43421687 17.8726104,4.7184739 17.8726104,5.06859438 L17.8726104,30.5408835 C17.8718072,30.8920482 17.5883534,31.175502 17.2372691,31.175502 Z" id="Shape"></path><path d="M8.94008032,2.50899598 L11.6167871,2.50899598 C11.7477108,2.50899598 11.8545382,2.40232932 11.8545382,2.27100402 C11.8545382,2.13967871 11.7477108,2.03301205 11.6167871,2.03301205 L8.94008032,2.03301205 C8.80875502,2.03301205 8.70208835,2.13967871 8.70208835,2.27100402 C8.70208835,2.40240964 8.80875502,2.50899598 8.94008032,2.50899598 Z" id="Path"></path><path d="M11.5841767,32.4313253 L8.84305221,32.4313253 C8.28016064,32.4313253 7.82192771,32.8893976 7.82192771,33.4522892 L7.82192771,33.6154217 C7.82192771,34.1786345 8.28016064,34.6371084 8.84305221,34.6371084 L11.5841767,34.6371084 C12.146988,34.6371084 12.6050602,34.1786345 12.6050602,33.6154217 L12.6050602,33.4522892 C12.6050602,32.8893976 12.1469076,32.4313253 11.5841767,32.4313253 Z M12.1294779,33.6154217 C12.1294779,33.9159839 11.8843373,34.1611245 11.5841767,34.1611245 L8.84305221,34.1611245 C8.542249,34.1611245 8.29791165,33.9159839 8.29791165,33.6154217 L8.29791165,33.4522892 C8.29791165,33.1516466 8.54281124,32.9073092 8.84305221,32.9073092 L11.5841767,32.9073092 C11.8851406,32.9073092 12.1294779,33.1516466 12.1294779,33.4522892 L12.1294779,33.6154217 Z" id="Shape"></path><path d="M5.63413655,33.2029719 L4.4837751,33.2029719 C4.43991968,33.2029719 4.40441767,33.2384739 4.40441767,33.2820884 C4.40441767,33.3257831 4.43991968,33.3616064 4.4837751,33.3616064 L5.63413655,33.3616064 C5.67799197,33.3616064 5.71349398,33.3257831 5.71349398,33.2820884 C5.71341365,33.2385542 5.67791165,33.2029719 5.63413655,33.2029719 Z" id="Path"></path><path d="M5.54843373,33.5583133 L4.56939759,33.5583133 C4.52554217,33.5583133 4.49004016,33.5937349 4.49004016,33.6373494 C4.49004016,33.6814458 4.52554217,33.7168675 4.56939759,33.7168675 L5.54843373,33.7168675 C5.59228916,33.7168675 5.62779116,33.6814458 5.62779116,33.6373494 C5.62779116,33.5938153 5.59172691,33.5583133 5.54843373,33.5583133 Z" id="Path"></path><path d="M5.4811245,33.9122892 L4.63662651,33.9122892 C4.59277108,33.9122892 4.55726908,33.9477108 4.55726908,33.9914056 C4.55726908,34.0354217 4.59277108,34.0709237 4.63662651,34.0709237 L5.4811245,34.0709237 C5.52497992,34.0709237 5.56048193,34.0354217 5.56048193,33.9914056 C5.56048193,33.9486747 5.52441767,33.9122892 5.4811245,33.9122892 Z" id="Path"></path><path d="M15.3418474,33.2891566 C15.3001606,33.2891566 15.2660241,33.2536546 15.2660241,33.2100402 C15.2660241,33.1659438 15.1738153,33.1831325 15.0600803,33.2491566 C14.9466667,33.3147791 14.9466667,33.4212851 15.0600803,33.486506 C15.1738153,33.5517269 15.2660241,33.5701205 15.2660241,33.526506 C15.2660241,33.4832932 15.300241,33.4477912 15.3418474,33.4477912 L15.4180723,33.4477912 C15.6804016,33.4477912 15.9017671,33.5824096 15.9017671,33.7414458 C15.9017671,33.9008835 15.6803213,34.035502 15.4180723,34.035502 L15.0506024,34.035502 C15.006988,34.035502 14.9714859,34.071004 14.9714859,34.1146185 C14.9714859,34.1587149 15.006988,34.1941365 15.0506024,34.1941365 L15.4180723,34.1941365 C15.7778313,34.1941365 16.0604819,33.995502 16.0604819,33.7413655 C16.0604819,33.4877108 15.7786345,33.2890763 15.4180723,33.2890763 C15.4180723,33.2891566 15.3841767,33.2891566 15.3418474,33.2891566 Z" id="Path"></path></g></g></g></svg>
