<?xml version="1.0" encoding="UTF-8"?><svg width="35px" height="37px" viewBox="0 0 35 37" version="1.1" xmlns="http://www.w3.org/2000/svg" xmlns:xlink="http://www.w3.org/1999/xlink"><title>005-smart-watch</title><desc>Created with Sketch.</desc><g id="Symbols" stroke="none" stroke-width="1" fill="none" fill-rule="evenodd"><g id="device/wearable" transform="translate(-4.000000, 0.000000)" fill="#000000" fill-rule="nonzero"><g id="005-smart-watch" transform="translate(4.000000, 0.000000)"><path d="M31.3384388,6.66226775 C31.1599369,6.39479921 30.7983855,6.32260265 30.530917,6.50110447 C30.2634485,6.67960629 30.1912519,7.04115774 30.3697538,7.30862622 C32.5319565,10.4761808 33.7126836,14.2107913 33.7646992,18.045738 C33.7126836,21.8806848 32.5319565,25.6152953 30.3697538,28.7828499 C30.1912519,29.0503183 30.2634485,29.4118698 30.530917,29.5903716 C30.7983855,29.7688734 31.1599369,29.6966769 31.3384388,29.4292083 C33.6348022,26.0732036 34.8843149,22.1117707 34.9289404,18.045738 C34.8843149,13.9797054 33.6348022,10.0182725 31.3384388,6.66226775 Z" id="Path"></path><path d="M28.4517119,9.61266406 C28.3533654,9.42506661 28.1612201,9.30568641 27.9497466,9.30041719 C27.7379889,9.29573805 27.5404431,9.40573839 27.4335694,9.5885038 C27.3266957,9.77126915 27.3272642,9.99752305 27.4352748,10.1794357 C28.8482247,12.5650501 29.6244802,15.2738436 29.6898552,18.045738 C29.6244802,20.8176325 28.8482247,23.526426 27.4352748,25.9120404 C27.3272642,26.093953 27.3266957,26.3202069 27.4335694,26.5029723 C27.5404431,26.6857377 27.7379889,26.795738 27.9497466,26.7910589 C28.1612201,26.7857897 28.3533654,26.6664095 28.4517119,26.478812 C29.9624399,23.9203807 30.7898584,21.0163153 30.8540963,18.045738 C30.7898584,15.0751608 29.9624399,12.1710954 28.4517119,9.61266406 Z" id="Path"></path><path d="M26.1155552,11.8473476 C26.1198188,11.8086912 26.1198188,11.7694663 26.1155552,11.7308099 C26.1095861,11.6947115 26.1002063,11.659466 26.0876998,11.6250731 C26.082015,11.5966493 26.0746248,11.5690781 26.0655292,11.5417912 C25.5567421,10.5125633 24.9302803,9.5461522 24.1986503,8.66131757 C24.1761954,8.63999966 24.1517509,8.62038721 24.1258852,8.60304868 C24.1028619,8.58144655 24.0775646,8.56183403 24.0508462,8.54506401 C23.9860398,8.51180805 23.9175383,8.48594239 23.8470471,8.46803534 C23.8007163,8.46263479 23.7538169,8.46263479 23.707486,8.46803534 C23.6801991,8.4691723 23.6531965,8.47173043 23.626478,8.47627824 C23.5622401,8.5004385 23.4982865,8.5254515 23.4343328,8.55074878 L22.1922102,9.35116458 C21.9793156,9.12178404 21.7587464,8.9009307 21.5302186,8.68803603 C21.5302186,8.67638219 21.5302186,8.66671812 21.5302186,8.65506428 L20.9480981,4.58022021 C20.9097258,4.29257085 20.6658491,4.07711798 20.3759258,4.07484407 L18.6295641,4.07484407 L18.6295641,0.582120582 C18.6295641,0.260646746 18.3689173,0 18.0474435,0 L7.56927304,0 C7.2477992,0 6.98715245,0.260646746 6.98715245,0.582120582 L6.98715245,4.07484407 L5.24079071,4.07484407 C4.95115159,4.07484407 4.70556947,4.28773874 4.66435482,4.57425122 L4.08223424,8.64909529 C4.08223424,8.66074913 4.08536088,8.67069742 4.08223424,8.68235119 C1.47917749,11.1003687 0,14.492756 0,18.045738 C0,21.5987201 1.47917749,24.9911074 4.08223424,27.4091249 C4.08223424,27.4207787 4.07939189,27.430727 4.08223424,27.4423808 L4.66435482,31.5172249 C4.70556947,31.8037373 4.95115159,32.016632 5.24079071,32.016632 L6.98715245,32.016632 L6.98715245,35.5093555 C6.98715245,35.8308293 7.2477992,36.0914761 7.56927304,36.0914761 L18.0474435,36.0914761 C18.3689173,36.0914761 18.6295641,35.8308293 18.6295641,35.5093555 L18.6295641,32.016632 L20.3759258,32.016632 C20.6652807,32.016632 20.9108628,31.8043058 20.9520774,31.5177933 L21.5341979,27.487859 C21.5344822,27.4622775 21.533061,27.436696 21.5296501,27.4113988 C25.4603853,23.7609229 26.6939806,18.0443169 24.6184706,13.0977131 L25.8617301,12.2901914 C25.8827638,12.2725685 25.902092,12.2529561 25.919999,12.2322067 C25.950981,12.2074779 25.9791207,12.1793383 26.0044179,12.1489248 C26.0248831,12.1199324 26.0427901,12.0892347 26.0572862,12.0568314 C26.0757618,12.0230071 26.0908264,11.9877615 26.1021959,11.9508105 C26.1098704,11.9169861 26.1144182,11.882309 26.1155552,11.8473476 Z M19.8711181,5.23908524 L20.2087935,7.60366588 C19.7062597,7.24637802 19.1784287,6.92575692 18.6295641,6.64436071 L18.6295641,5.23908524 L19.8711181,5.23908524 Z M8.15139362,1.16424116 L17.4653229,1.16424116 L17.4653229,6.11937206 C14.4714381,4.94575104 11.1449941,4.94575104 8.15139362,6.11937206 L8.15139362,1.16424116 Z M5.7455984,5.23908524 L6.98715245,5.23908524 L6.98715245,6.64436071 C6.43828777,6.92575692 5.91045669,7.24637802 5.40792291,7.60366588 L5.7455984,5.23908524 Z M5.7455984,30.8523909 L5.40792291,28.4878102 C5.91045669,28.8450981 6.43828777,29.1657192 6.98715245,29.4471154 L6.98715245,30.8523909 L5.7455984,30.8523909 Z M17.4653229,34.9272349 L8.15139362,34.9272349 L8.15139362,29.972104 C11.1449941,31.1457251 14.4714381,31.1457251 17.4653229,29.972104 L17.4653229,34.9272349 Z M19.8716866,30.8523909 L18.6295641,30.8523909 L18.6295641,29.4471154 C19.1801342,29.1645823 19.7096706,28.8428242 20.214194,28.4843993 L19.8716866,30.8523909 Z M12.8083583,29.6881497 C6.37831341,29.6881497 1.16594663,24.4757829 1.16594663,18.045738 C1.16594663,11.6156932 6.37831341,6.4033264 12.8083583,6.4033264 C19.2381188,6.4033264 24.4507699,11.6156932 24.4507699,18.045738 C24.4433797,24.4726563 19.2352764,29.6807595 12.8083583,29.6881497 Z M22.9522642,10.2419682 L23.6213617,9.81106255 C24.0542571,10.376413 24.4425269,10.9750195 24.7819078,11.6011971 L24.112526,12.0352294 C23.7762717,11.4062094 23.3882861,10.806466 22.9522642,10.2419682 L22.9522642,10.2419682 Z" id="Shape"></path><path d="M12.8083583,8.73180873 C7.6644929,8.73180873 3.49442896,12.9018727 3.49442896,18.045738 C3.49442896,23.1896033 7.6644929,27.3596674 12.8083583,27.3596674 C17.9522236,27.3596674 22.1222876,23.1896033 22.1222876,18.045738 C22.1160343,12.9044309 17.9496654,8.73777772 12.8083583,8.73180873 Z M12.8083583,26.1954262 C8.30744057,26.1954262 4.65867012,22.5466557 4.65867012,18.045738 C4.65867012,13.5448203 8.30744057,9.8960499 12.8083583,9.8960499 C17.3092759,9.8960499 20.9580464,13.5448203 20.9580464,18.045738 C20.9532143,22.5446661 17.3072862,26.1905942 12.8083583,26.1954262 Z" id="Shape"></path></g></g></g></svg>
