<?xml version="1.0" standalone="no"?>
<!DOCTYPE svg PUBLIC "-//W3C//DTD SVG 1.1//EN" "http://www.w3.org/Graphics/SVG/1.1/DTD/svg11.dtd" >
<svg xmlns="http://www.w3.org/2000/svg" xmlns:xlink="http://www.w3.org/1999/xlink" version="1.1">
<metadata>
Created by FontForge 20161003 at Sun Jul 14 13:57:38 2019
 By www-data
Copyright 2017 The Barlow Project Authors \(https://github.com/jpt/barlow\)
</metadata>
<defs>
<font id="BarlowCondensed-SemiBold" horiz-adv-x="439" >
  <font-face 
    font-family="Barlow Condensed SemiBold"
    font-weight="600"
    font-stretch="condensed"
    units-per-em="1000"
    panose-1="0 0 7 6 0 0 0 0 0 0"
    ascent="800"
    descent="-200"
    x-height="511"
    cap-height="700"
    bbox="-464 -210 994 982"
    underline-thickness="50"
    underline-position="-100"
    stemh="116"
    stemv="100"
    unicode-range="U+000D-25CA"
  />
<missing-glyph horiz-adv-x="381" 
d="M0 5c0 -3 2 -5 5 -5h371c3 0 5 2 5 5v690c0 3 -2 5 -5 5h-371c-3 0 -5 -2 -5 -5v-690zM156 243c-7 0 -12 5 -12 12v26c0 97 100 100 100 179c0 37 -19 61 -47 61c-32 0 -51 -26 -51 -63v-12c0 -8 -4 -12 -12 -11l-59 3c-7 0 -12 5 -12 11v9c0 83 55 139 136 139
c78 0 128 -53 128 -134c0 -119 -100 -121 -100 -187v-21c0 -7 -5 -12 -12 -12h-59zM189 89c-27 0 -48 23 -48 52c0 28 22 51 48 51c27 0 50 -23 50 -51c0 -29 -22 -52 -50 -52z" />
    <glyph glyph-name="I_J.liga" unicode="IJ" horiz-adv-x="667" 
d="M66 0c-7 0 -12 5 -12 12v676c0 7 5 12 12 12h92c7 0 12 -5 12 -12v-676c0 -7 -5 -12 -12 -12h-92zM426 -8c-111 0 -185 72 -185 181v74c0 7 5 12 12 12h92c7 0 12 -5 12 -12v-76c0 -47 28 -79 69 -79c42 0 70 32 70 79v517c0 7 5 12 12 12h92c7 0 12 -5 12 -12v-515
c0 -109 -75 -181 -186 -181z" />
    <glyph glyph-name="f_f_i.liga" unicode="ffi" horiz-adv-x="772" 
d="M663 576c-41 0 -70 29 -70 72s29 72 70 72c42 0 70 -29 70 -72s-28 -72 -70 -72zM451 544v-28c0 -3 2 -5 5 -5h61c7 0 12 -5 12 -12v-58c0 -7 -5 -12 -12 -12h-61c-3 0 -5 -2 -5 -5v-412c0 -7 -5 -12 -12 -12h-92c-7 0 -12 5 -12 12v412c0 3 -2 5 -5 5h-138
c-3 0 -5 -2 -5 -5v-412c0 -7 -5 -12 -12 -12h-92c-7 0 -12 5 -12 12v412c0 3 -2 5 -5 5h-32c-7 0 -12 5 -12 12v58c0 7 5 12 12 12h32c3 0 5 2 5 5v37c0 116 56 155 172 151h4c7 0 12 -5 12 -12v-56c0 -7 -3 -12 -7 -12h-8c-44 -1 -57 -32 -57 -80v-28c0 -3 2 -5 5 -5h138
c3 0 5 2 5 5v37c0 116 57 155 173 151h3c7 0 12 -5 12 -12v-56c0 -7 -3 -12 -7 -12h-8c-44 -1 -57 -32 -57 -80zM617 0c-7 0 -12 5 -12 12v487c0 7 5 12 12 12h92c7 0 12 -5 12 -12v-487c0 -7 -5 -12 -12 -12h-92z" />
    <glyph glyph-name="f_f_l.liga" unicode="ffl" horiz-adv-x="757" 
d="M455 544v-28c0 -3 2 -5 5 -5h61c7 0 12 -5 12 -12v-58c0 -7 -5 -12 -12 -12h-61c-3 0 -5 -2 -5 -5v-412c0 -7 -5 -12 -12 -12h-92c-7 0 -12 5 -12 12v412c0 3 -2 5 -5 5h-142c-3 0 -5 -2 -5 -5v-412c0 -7 -5 -12 -12 -12h-92c-7 0 -12 5 -12 12v412c0 3 -2 5 -5 5h-32
c-7 0 -12 5 -12 12v58c0 7 5 12 12 12h32c3 0 5 2 5 5v37c0 116 56 155 172 151h4c7 0 12 -5 12 -12v-56c0 -7 -3 -12 -7 -12h-8c-44 -1 -57 -32 -57 -80v-28c0 -3 2 -5 5 -5h142c3 0 5 2 5 5v37c0 116 57 155 173 151h3c7 0 12 -5 12 -12v-56c0 -7 -3 -12 -7 -12h-8
c-44 -1 -57 -32 -57 -80zM600 688c0 7 5 12 12 12h92c7 0 12 -5 12 -12v-676c0 -7 -5 -12 -12 -12h-92c-7 0 -12 5 -12 12v676z" />
    <glyph glyph-name="f_i.liga" unicode="fi" horiz-adv-x="508" 
d="M399 575c-41 0 -70 29 -70 72s29 72 70 72c42 0 70 -29 70 -72s-28 -72 -70 -72zM186 536v-20c0 -3 2 -5 5 -5h62c7 0 12 -5 12 -12v-59c0 -7 -5 -12 -12 -12h-62c-3 0 -5 -2 -5 -5v-411c0 -7 -5 -12 -12 -12h-91c-7 0 -12 5 -12 12v411c0 3 -2 5 -5 5h-32
c-7 0 -12 5 -12 12v59c0 7 5 12 12 12h32c3 0 5 2 5 5v25c0 122 54 164 172 163h8c7 0 12 -5 12 -12l-2 -68c0 -7 -3 -12 -8 -12h-9c-40 -1 -58 -25 -58 -76zM353 0c-7 0 -12 5 -12 12v487c0 7 5 12 12 12h92c7 0 12 -5 12 -12v-487c0 -7 -5 -12 -12 -12h-92z" />
    <glyph glyph-name="f_l.liga" unicode="fl" horiz-adv-x="489" 
d="M186 536v-20c0 -3 2 -5 5 -5h62c7 0 12 -5 12 -12v-59c0 -7 -5 -12 -12 -12h-62c-3 0 -5 -2 -5 -5v-411c0 -7 -5 -12 -12 -12h-91c-7 0 -12 5 -12 12v411c0 3 -2 5 -5 5h-32c-7 0 -12 5 -12 12v59c0 7 5 12 12 12h32c3 0 5 2 5 5v25c0 122 54 164 172 163h8
c7 0 12 -5 12 -12l-2 -68c0 -7 -3 -12 -8 -12h-9c-40 -1 -58 -25 -58 -76zM332 688c0 7 5 12 12 12h92c7 0 12 -5 12 -12v-676c0 -7 -5 -12 -12 -12h-92c-7 0 -12 5 -12 12v676z" />
    <glyph glyph-name="g_j.liga" unicode="gj" horiz-adv-x="638" 
d="M534 576c-41 0 -69 31 -69 73c0 40 34 71 69 71c37 0 71 -31 71 -71c0 -42 -29 -73 -71 -73zM269 476c3 -4 6 -3 6 1v22c0 7 5 12 12 12h92c7 0 12 -5 12 -12v-480c0 -138 -51 -236 -257 -224c-8 1 -12 6 -12 13v77c0 8 5 12 13 11c118 -3 140 48 140 134v11
c0 4 -3 5 -6 1c-26 -34 -63 -43 -94 -43c-91 0 -137 64 -137 162v196c0 101 48 162 137 162c32 0 69 -10 94 -43zM477 -16v515c0 7 5 12 12 12h91c7 0 12 -5 12 -12v-515c0 -118 -27 -191 -176 -189c-9 0 -12 5 -12 12l3 75c0 7 4 12 11 12c41 1 59 35 59 90zM215 99
c36 0 60 29 60 70v179c0 42 -24 71 -60 71s-61 -29 -61 -71v-179c0 -41 25 -70 61 -70z" />
    <glyph glyph-name="i_j.liga" unicode="ij" horiz-adv-x="420" 
d="M316 576c-42 0 -70 31 -70 72s33 72 70 72c36 0 70 -31 70 -72s-29 -72 -70 -72zM109 575c-41 0 -70 29 -70 72s29 72 70 72c42 0 70 -29 70 -72s-28 -72 -70 -72zM63 0c-7 0 -12 5 -12 12v487c0 7 5 12 12 12h92c7 0 12 -5 12 -12v-487c0 -7 -5 -12 -12 -12h-92z
M177 -205c-8 0 -12 5 -12 12v75c0 7 4 12 12 12c61 1 81 36 81 90v515c0 7 5 12 12 12h92c7 0 12 -5 12 -12v-515c0 -118 -19 -191 -197 -189z" />
    <glyph glyph-name="hyphen_hyphen.liga" unicode="&#x2d;&#x2d;" horiz-adv-x="593" 
d="M39 247c-7 0 -12 5 -12 12v76c0 7 5 12 12 12h515c7 0 12 -5 12 -12v-76c0 -7 -5 -12 -12 -12h-515z" />
    <glyph glyph-name=".notdef" horiz-adv-x="381" 
d="M0 5c0 -3 2 -5 5 -5h371c3 0 5 2 5 5v690c0 3 -2 5 -5 5h-371c-3 0 -5 -2 -5 -5v-690zM156 243c-7 0 -12 5 -12 12v26c0 97 100 100 100 179c0 37 -19 61 -47 61c-32 0 -51 -26 -51 -63v-12c0 -8 -4 -12 -12 -11l-59 3c-7 0 -12 5 -12 11v9c0 83 55 139 136 139
c78 0 128 -53 128 -134c0 -119 -100 -121 -100 -187v-21c0 -7 -5 -12 -12 -12h-59zM189 89c-27 0 -48 23 -48 52c0 28 22 51 48 51c27 0 50 -23 50 -51c0 -29 -22 -52 -50 -52z" />
    <glyph glyph-name="A" unicode="A" horiz-adv-x="484" 
d="M352 0c-7 0 -12 3 -13 11l-19 105c0 3 -3 5 -6 5h-145c-3 0 -6 -1 -6 -4l-20 -106c-1 -8 -6 -11 -13 -11h-92c-8 0 -12 4 -10 13l147 676c1 7 6 11 13 11h107c7 0 12 -4 13 -11l148 -676c2 -9 -3 -13 -11 -13h-93zM183 217c-1 -4 2 -5 5 -5h109c3 0 6 1 5 5l-55 302
c-1 4 -5 4 -6 0z" />
    <glyph glyph-name="Aacute" unicode="&#xc1;" horiz-adv-x="484" 
d="M339 889c10 0 14 -7 8 -15l-74 -103c-4 -6 -8 -7 -14 -7h-69c-9 0 -14 5 -9 14l59 103c3 6 9 8 15 8h84zM352 0c-7 0 -12 3 -13 11l-19 105c0 3 -3 5 -6 5h-145c-3 0 -6 -1 -6 -4l-20 -106c-1 -8 -6 -11 -13 -11h-92c-8 0 -12 4 -10 13l147 676c1 7 6 11 13 11h107
c7 0 12 -4 13 -11l148 -676c2 -9 -3 -13 -11 -13h-93zM183 217c-1 -4 2 -5 5 -5h109c3 0 6 1 5 5l-55 302c-1 4 -5 4 -6 0z" />
    <glyph glyph-name="Abreve" unicode="&#x102;" horiz-adv-x="484" 
d="M242 741c-64 0 -109 41 -114 102c-1 8 3 12 11 12h39c7 0 12 -4 13 -12c4 -29 24 -49 51 -49c26 0 47 20 51 49c1 8 6 12 13 12h39c8 0 12 -4 11 -12c-5 -61 -51 -102 -114 -102zM352 0c-7 0 -12 3 -13 11l-19 105c0 3 -3 5 -6 5h-145c-3 0 -6 -1 -6 -4l-20 -106
c-1 -8 -6 -11 -13 -11h-92c-8 0 -12 4 -10 13l147 676c1 7 6 11 13 11h107c7 0 12 -4 13 -11l148 -676c2 -9 -3 -13 -11 -13h-93zM183 217c-1 -4 2 -5 5 -5h109c3 0 6 1 5 5l-55 302c-1 4 -5 4 -6 0z" />
    <glyph glyph-name="uni01CD" unicode="&#x1cd;" horiz-adv-x="484" 
d="M299 758c-3 -5 -8 -8 -14 -8h-92c-6 0 -11 3 -14 8l-65 102c-5 9 -1 14 8 14h67c6 0 11 -2 14 -8l36 -61c2 -4 5 -4 7 0l35 61c3 5 9 8 15 8h62c9 0 12 -7 7 -15zM352 0c-7 0 -12 3 -13 11l-19 105c0 3 -3 5 -6 5h-145c-3 0 -6 -1 -6 -4l-20 -106c-1 -8 -6 -11 -13 -11
h-92c-8 0 -12 4 -10 13l147 676c1 7 6 11 13 11h107c7 0 12 -4 13 -11l148 -676c2 -9 -3 -13 -11 -13h-93zM183 217c-1 -4 2 -5 5 -5h109c3 0 6 1 5 5l-55 302c-1 4 -5 4 -6 0z" />
    <glyph glyph-name="Acircumflex" unicode="&#xc2;" horiz-adv-x="484" 
d="M244 830c-2 3 -4 3 -6 0l-35 -62c-3 -5 -9 -8 -15 -8h-69c-9 0 -13 5 -8 14l65 102c3 5 8 8 14 8h98c6 0 11 -3 14 -8l67 -101c5 -8 2 -15 -7 -15h-69c-6 0 -12 3 -15 8zM352 0c-7 0 -12 3 -13 11l-19 105c0 3 -3 5 -6 5h-145c-3 0 -6 -1 -6 -4l-20 -106
c-1 -8 -6 -11 -13 -11h-92c-8 0 -12 4 -10 13l147 676c1 7 6 11 13 11h107c7 0 12 -4 13 -11l148 -676c2 -9 -3 -13 -11 -13h-93zM183 217c-1 -4 2 -5 5 -5h109c3 0 6 1 5 5l-55 302c-1 4 -5 4 -6 0z" />
    <glyph glyph-name="Adieresis" unicode="&#xc4;" horiz-adv-x="484" 
d="M166 766c-35 0 -61 26 -61 63c0 36 26 62 61 62s59 -26 59 -62c0 -37 -24 -63 -59 -63zM321 766c-36 0 -61 26 -61 63c0 36 25 62 61 62c35 0 59 -26 59 -62c0 -37 -24 -63 -59 -63zM352 0c-7 0 -12 3 -13 11l-19 105c0 3 -3 5 -6 5h-145c-3 0 -6 -1 -6 -4l-20 -106
c-1 -8 -6 -11 -13 -11h-92c-8 0 -12 4 -10 13l147 676c1 7 6 11 13 11h107c7 0 12 -4 13 -11l148 -676c2 -9 -3 -13 -11 -13h-93zM183 217c-1 -4 2 -5 5 -5h109c3 0 6 1 5 5l-55 302c-1 4 -5 4 -6 0z" />
    <glyph glyph-name="Agrave" unicode="&#xc0;" horiz-adv-x="484" 
d="M283 778c5 -9 0 -14 -9 -14h-69c-6 0 -10 1 -14 7l-74 103c-6 8 -2 15 8 15h84c6 0 12 -2 15 -8zM352 0c-7 0 -12 3 -13 11l-19 105c0 3 -3 5 -6 5h-145c-3 0 -6 -1 -6 -4l-20 -106c-1 -8 -6 -11 -13 -11h-92c-8 0 -12 4 -10 13l147 676c1 7 6 11 13 11h107
c7 0 12 -4 13 -11l148 -676c2 -9 -3 -13 -11 -13h-93zM183 217c-1 -4 2 -5 5 -5h109c3 0 6 1 5 5l-55 302c-1 4 -5 4 -6 0z" />
    <glyph glyph-name="Amacron" unicode="&#x100;" horiz-adv-x="484" 
d="M334 855c7 0 12 -5 12 -12v-56c0 -7 -5 -12 -12 -12h-190c-7 0 -12 5 -12 12v56c0 7 5 12 12 12h190zM352 0c-7 0 -12 3 -13 11l-19 105c0 3 -3 5 -6 5h-145c-3 0 -6 -1 -6 -4l-20 -106c-1 -8 -6 -11 -13 -11h-92c-8 0 -12 4 -10 13l147 676c1 7 6 11 13 11h107
c7 0 12 -4 13 -11l148 -676c2 -9 -3 -13 -11 -13h-93zM183 217c-1 -4 2 -5 5 -5h109c3 0 6 1 5 5l-55 302c-1 4 -5 4 -6 0z" />
    <glyph glyph-name="Aogonek" unicode="&#x104;" horiz-adv-x="495" 
d="M440 -124c8 1 13 -1 14 -9l5 -36c1 -8 -1 -12 -8 -14c-37 -10 -109 -14 -124 55c-9 40 3 82 42 122c4 3 2 6 -2 6h-15c-7 0 -12 3 -13 11l-19 105c0 3 -3 5 -6 5h-145c-3 0 -6 -1 -6 -4l-20 -106c-1 -8 -6 -11 -13 -11h-92c-8 0 -12 4 -10 13l147 676c1 7 6 11 13 11h107
c7 0 12 -4 13 -11l148 -676c2 -9 2 -13 1 -13c-2 0 -4 -1 -6 -2c-34 -31 -55 -64 -50 -94c5 -24 22 -31 39 -28zM183 217c-1 -4 2 -5 5 -5h109c3 0 6 1 5 5l-55 302c-1 4 -5 4 -6 0z" />
    <glyph glyph-name="Aring" unicode="&#xc5;" horiz-adv-x="484" 
d="M242 754c-60 0 -107 48 -107 109c0 60 47 107 107 107s107 -47 107 -107c0 -61 -47 -109 -107 -109zM242 917c-29 0 -52 -24 -52 -54s23 -54 52 -54s52 24 52 54s-23 54 -52 54zM352 0c-7 0 -12 3 -13 11l-19 105c0 3 -3 5 -6 5h-145c-3 0 -6 -1 -6 -4l-20 -106
c-1 -8 -6 -11 -13 -11h-92c-8 0 -12 4 -10 13l147 676c1 7 6 11 13 11h107c7 0 12 -4 13 -11l148 -676c2 -9 -3 -13 -11 -13h-93zM183 217c-1 -4 2 -5 5 -5h109c3 0 6 1 5 5l-55 302c-1 4 -5 4 -6 0z" />
    <glyph glyph-name="Atilde" unicode="&#xc3;" horiz-adv-x="484" 
d="M210 812c-14 0 -27 -5 -38 -23c-5 -7 -11 -8 -17 -4l-32 24c-5 4 -8 9 -5 16c19 44 50 62 83 62c24 0 43 -10 62 -22c13 -9 25 -20 43 -20c13 0 27 5 38 23c4 7 9 9 16 4l32 -21c6 -4 8 -9 4 -16c-22 -47 -61 -61 -89 -61c-19 0 -35 8 -54 19c-18 11 -26 19 -43 19z
M352 0c-7 0 -12 3 -13 11l-19 105c0 3 -3 5 -6 5h-145c-3 0 -6 -1 -6 -4l-20 -106c-1 -8 -6 -11 -13 -11h-92c-8 0 -12 4 -10 13l147 676c1 7 6 11 13 11h107c7 0 12 -4 13 -11l148 -676c2 -9 -3 -13 -11 -13h-93zM183 217c-1 -4 2 -5 5 -5h109c3 0 6 1 5 5l-55 302
c-1 4 -5 4 -6 0z" />
    <glyph glyph-name="AE" unicode="&#xc6;" horiz-adv-x="749" 
d="M717 612c0 -7 -5 -12 -12 -12h-216c-3 0 -5 -2 -5 -5v-189c0 -3 2 -5 5 -5h128c7 0 12 -5 12 -12v-77c0 -7 -5 -12 -12 -12h-128c-3 0 -5 -2 -5 -5v-190c0 -3 2 -5 5 -5h216c7 0 12 -5 12 -12v-76c0 -7 -5 -12 -12 -12h-325c-7 0 -12 5 -12 12v104c0 3 -2 5 -5 5h-163
c-2 0 -5 -2 -6 -4l-43 -108c-2 -6 -8 -9 -14 -9h-97c-9 0 -12 6 -9 14l286 677c3 7 8 9 14 9h374c7 0 12 -5 12 -12v-76zM234 218c-1 -3 1 -6 4 -6h125c3 0 5 2 5 5v319c0 5 -4 5 -6 1z" />
    <glyph glyph-name="B" unicode="B" horiz-adv-x="462" 
d="M435 194c1 -127 -81 -194 -193 -194h-176c-7 0 -12 5 -12 12v676c0 7 5 12 12 12h158c124 0 203 -62 203 -188c0 -70 -25 -118 -73 -147c-4 -2 -4 -4 -2 -6c49 -32 82 -85 83 -165zM175 600c-3 0 -5 -2 -5 -5v-186c0 -3 2 -5 5 -5h51c55 0 87 35 87 96
c0 64 -32 100 -87 100h-51zM233 101c53 0 86 38 86 107s-33 111 -86 111h-58c-3 0 -5 -2 -5 -5v-208c0 -3 2 -5 5 -5h58z" />
    <glyph glyph-name="C" unicode="C" horiz-adv-x="457" 
d="M230 -8c-113 0 -188 74 -188 188v341c0 115 75 187 188 187c114 0 190 -72 190 -187v-12c0 -7 -5 -13 -12 -13l-93 -4c-7 0 -12 4 -12 12v25c0 47 -29 79 -73 79c-43 0 -72 -32 -72 -79v-358c0 -47 29 -79 72 -79c44 0 73 32 73 79v25c0 7 5 12 12 12l93 -4
c7 0 12 -5 12 -12v-12c0 -114 -76 -188 -190 -188z" />
    <glyph glyph-name="Cacute" unicode="&#x106;" horiz-adv-x="457" 
d="M178 772c-9 0 -14 5 -9 14l59 103c3 6 9 8 15 8h84c10 0 14 -7 8 -15l-74 -103c-4 -6 -8 -7 -14 -7h-69zM230 -8c-113 0 -188 74 -188 188v341c0 115 75 187 188 187c114 0 190 -72 190 -187v-12c0 -7 -5 -13 -12 -13l-93 -4c-7 0 -12 4 -12 12v25c0 47 -29 79 -73 79
c-43 0 -72 -32 -72 -79v-358c0 -47 29 -79 72 -79c44 0 73 32 73 79v25c0 7 5 12 12 12l93 -4c7 0 12 -5 12 -12v-12c0 -114 -76 -188 -190 -188z" />
    <glyph glyph-name="Ccaron" unicode="&#x10c;" horiz-adv-x="457" 
d="M181 762c-6 0 -11 2 -14 8l-65 103c-5 9 -1 14 8 14h67c6 0 11 -2 14 -8l36 -62c2 -4 5 -4 7 0l35 62c3 5 9 8 15 8h62c9 0 13 -7 8 -15l-67 -102c-3 -5 -8 -8 -14 -8h-92zM230 -8c-113 0 -188 74 -188 188v341c0 115 75 187 188 187c114 0 190 -72 190 -187v-12
c0 -7 -5 -13 -12 -13l-93 -4c-7 0 -12 4 -12 12v25c0 47 -29 79 -73 79c-43 0 -72 -32 -72 -79v-358c0 -47 29 -79 72 -79c44 0 73 32 73 79v25c0 7 5 12 12 12l93 -4c7 0 12 -5 12 -12v-12c0 -114 -76 -188 -190 -188z" />
    <glyph glyph-name="Ccedilla" unicode="&#xc7;" horiz-adv-x="457" 
d="M420 509c0 -7 -5 -13 -12 -13l-93 -4c-7 0 -12 4 -12 12v25c0 47 -29 79 -73 79c-43 0 -72 -32 -72 -79v-358c0 -47 29 -79 72 -79c44 0 73 32 73 79v25c0 7 5 12 12 12l93 -4c7 0 12 -5 12 -12v-12c0 -98 -56 -167 -145 -184c-4 -1 -5 -3 -2 -6c34 -38 43 -77 35 -114
c-15 -69 -87 -65 -124 -55c-7 2 -9 6 -8 14l5 36c1 8 6 10 14 9c17 -3 34 5 39 28c5 27 -12 57 -41 85c-1 1 -3 2 -5 3c-89 16 -146 85 -146 184v341c0 115 75 187 188 187c114 0 190 -72 190 -187v-12z" />
    <glyph glyph-name="Cdotaccent" unicode="&#x10a;" horiz-adv-x="457" 
d="M230 766c-33 0 -56 24 -56 58s23 57 56 57s54 -23 54 -57s-21 -58 -54 -58zM230 -8c-113 0 -188 74 -188 188v341c0 115 75 187 188 187c114 0 190 -72 190 -187v-12c0 -7 -5 -13 -12 -13l-93 -4c-7 0 -12 4 -12 12v25c0 47 -29 79 -73 79c-43 0 -72 -32 -72 -79v-358
c0 -47 29 -79 72 -79c44 0 73 32 73 79v25c0 7 5 12 12 12l93 -4c7 0 12 -5 12 -12v-12c0 -114 -76 -188 -190 -188z" />
    <glyph glyph-name="D" unicode="D" horiz-adv-x="472" 
d="M66 0c-7 0 -12 5 -12 12v676c0 7 5 12 12 12h171c115 0 189 -75 189 -191v-318c0 -116 -74 -191 -189 -191h-171zM170 105c0 -3 2 -5 5 -5l60 1c44 0 74 38 75 97v304c0 60 -29 98 -76 98h-59c-3 0 -5 -2 -5 -5v-490z" />
    <glyph glyph-name="Eth" unicode="&#xd0;" horiz-adv-x="507" 
d="M272 700c115 0 189 -75 189 -191v-318c0 -116 -74 -191 -189 -191h-171c-7 0 -12 5 -12 12v315c0 3 -2 5 -5 5h-18c-7 0 -12 5 -12 12v44c0 7 5 12 12 12h18c3 0 5 2 5 5v283c0 7 5 12 12 12h171zM345 198v304c0 60 -29 98 -76 98h-59c-3 0 -5 -2 -5 -5v-190
c0 -3 2 -5 5 -5h50c7 0 12 -5 12 -12v-44c0 -7 -5 -12 -12 -12h-50c-3 0 -5 -2 -5 -5v-222c0 -3 2 -5 5 -5l60 1c44 0 74 38 75 97z" />
    <glyph glyph-name="Dcaron" unicode="&#x10e;" horiz-adv-x="472" 
d="M182 755c-6 0 -11 3 -14 8l-65 102c-5 9 -1 14 8 14h67c6 0 11 -2 14 -8l36 -61c2 -4 5 -4 7 0l35 61c3 5 9 8 15 8h62c9 0 13 -7 8 -15l-67 -101c-3 -5 -8 -8 -14 -8h-92zM66 0c-7 0 -12 5 -12 12v676c0 7 5 12 12 12h171c115 0 189 -75 189 -191v-318
c0 -116 -74 -191 -189 -191h-171zM170 105c0 -3 2 -5 5 -5l60 1c44 0 74 38 75 97v304c0 60 -29 98 -76 98h-59c-3 0 -5 -2 -5 -5v-490z" />
    <glyph glyph-name="Dcroat" unicode="&#x110;" horiz-adv-x="507" 
d="M272 700c115 0 189 -75 189 -191v-318c0 -116 -74 -191 -189 -191h-171c-7 0 -12 5 -12 12v315c0 3 -2 5 -5 5h-18c-7 0 -12 5 -12 12v44c0 7 5 12 12 12h18c3 0 5 2 5 5v283c0 7 5 12 12 12h171zM345 198v304c0 60 -29 98 -76 98h-59c-3 0 -5 -2 -5 -5v-190
c0 -3 2 -5 5 -5h50c7 0 12 -5 12 -12v-44c0 -7 -5 -12 -12 -12h-50c-3 0 -5 -2 -5 -5v-222c0 -3 2 -5 5 -5l60 1c44 0 74 38 75 97z" />
    <glyph glyph-name="E" unicode="E" horiz-adv-x="435" 
d="M403 612c0 -7 -5 -12 -12 -12h-216c-3 0 -5 -2 -5 -5v-189c0 -3 2 -5 5 -5h128c7 0 12 -5 12 -12v-77c0 -7 -5 -12 -12 -12h-128c-3 0 -5 -2 -5 -5v-190c0 -3 2 -5 5 -5h216c7 0 12 -5 12 -12v-76c0 -7 -5 -12 -12 -12h-325c-7 0 -12 5 -12 12v676c0 7 5 12 12 12h325
c7 0 12 -5 12 -12v-76z" />
    <glyph glyph-name="Eacute" unicode="&#xc9;" horiz-adv-x="435" 
d="M326 901c10 0 14 -7 8 -15l-74 -103c-4 -6 -8 -7 -14 -7h-69c-9 0 -14 5 -9 14l59 103c3 6 9 8 15 8h84zM403 612c0 -7 -5 -12 -12 -12h-216c-3 0 -5 -2 -5 -5v-189c0 -3 2 -5 5 -5h128c7 0 12 -5 12 -12v-77c0 -7 -5 -12 -12 -12h-128c-3 0 -5 -2 -5 -5v-190
c0 -3 2 -5 5 -5h216c7 0 12 -5 12 -12v-76c0 -7 -5 -12 -12 -12h-325c-7 0 -12 5 -12 12v676c0 7 5 12 12 12h325c7 0 12 -5 12 -12v-76z" />
    <glyph glyph-name="Ecaron" unicode="&#x11a;" horiz-adv-x="435" 
d="M286 774c-3 -5 -8 -8 -14 -8h-92c-6 0 -11 2 -14 8l-65 103c-5 9 -1 14 8 14h67c6 0 11 -2 14 -8l36 -62c2 -4 5 -4 7 0l35 62c3 5 9 8 15 8h62c9 0 13 -7 8 -15zM403 612c0 -7 -5 -12 -12 -12h-216c-3 0 -5 -2 -5 -5v-189c0 -3 2 -5 5 -5h128c7 0 12 -5 12 -12v-77
c0 -7 -5 -12 -12 -12h-128c-3 0 -5 -2 -5 -5v-190c0 -3 2 -5 5 -5h216c7 0 12 -5 12 -12v-76c0 -7 -5 -12 -12 -12h-325c-7 0 -12 5 -12 12v676c0 7 5 12 12 12h325c7 0 12 -5 12 -12v-76z" />
    <glyph glyph-name="uni0228" unicode="&#x228;" horiz-adv-x="435" 
d="M403 612c0 -7 -5 -12 -12 -12h-216c-3 0 -5 -2 -5 -5v-189c0 -3 2 -5 5 -5h128c7 0 12 -5 12 -12v-77c0 -7 -5 -12 -12 -12h-128c-3 0 -5 -2 -5 -5v-190c0 -3 2 -5 5 -5h216c7 0 12 -5 12 -12v-76c0 -7 -5 -12 -12 -12h-119c-4 0 -5 -3 -3 -6c31 -36 40 -74 32 -110
c-15 -69 -87 -65 -124 -55c-7 2 -9 6 -8 14l5 36c1 8 6 10 14 9c17 -3 34 5 39 28c4 26 -11 54 -37 81c-2 2 -5 3 -7 3h-117c-7 0 -12 5 -12 12v676c0 7 5 12 12 12h325c7 0 12 -5 12 -12v-76z" />
    <glyph glyph-name="Ecircumflex" unicode="&#xca;" horiz-adv-x="435" 
d="M231 842c-2 3 -4 3 -6 0l-35 -62c-3 -5 -9 -8 -15 -8h-69c-9 0 -13 5 -8 14l65 102c3 5 8 8 14 8h98c6 0 11 -3 14 -8l67 -101c5 -8 2 -15 -7 -15h-69c-6 0 -12 3 -15 8zM403 612c0 -7 -5 -12 -12 -12h-216c-3 0 -5 -2 -5 -5v-189c0 -3 2 -5 5 -5h128c7 0 12 -5 12 -12
v-77c0 -7 -5 -12 -12 -12h-128c-3 0 -5 -2 -5 -5v-190c0 -3 2 -5 5 -5h216c7 0 12 -5 12 -12v-76c0 -7 -5 -12 -12 -12h-325c-7 0 -12 5 -12 12v676c0 7 5 12 12 12h325c7 0 12 -5 12 -12v-76z" />
    <glyph glyph-name="Edieresis" unicode="&#xcb;" horiz-adv-x="435" 
d="M153 778c-35 0 -61 26 -61 63c0 36 26 62 61 62s59 -26 59 -62c0 -37 -24 -63 -59 -63zM308 778c-36 0 -61 26 -61 63c0 36 25 62 61 62c35 0 59 -26 59 -62c0 -37 -24 -63 -59 -63zM403 612c0 -7 -5 -12 -12 -12h-216c-3 0 -5 -2 -5 -5v-189c0 -3 2 -5 5 -5h128
c7 0 12 -5 12 -12v-77c0 -7 -5 -12 -12 -12h-128c-3 0 -5 -2 -5 -5v-190c0 -3 2 -5 5 -5h216c7 0 12 -5 12 -12v-76c0 -7 -5 -12 -12 -12h-325c-7 0 -12 5 -12 12v676c0 7 5 12 12 12h325c7 0 12 -5 12 -12v-76z" />
    <glyph glyph-name="Edotaccent" unicode="&#x116;" horiz-adv-x="435" 
d="M229 770c-33 0 -56 24 -56 58s23 57 56 57s54 -23 54 -57s-21 -58 -54 -58zM403 612c0 -7 -5 -12 -12 -12h-216c-3 0 -5 -2 -5 -5v-189c0 -3 2 -5 5 -5h128c7 0 12 -5 12 -12v-77c0 -7 -5 -12 -12 -12h-128c-3 0 -5 -2 -5 -5v-190c0 -3 2 -5 5 -5h216c7 0 12 -5 12 -12
v-76c0 -7 -5 -12 -12 -12h-325c-7 0 -12 5 -12 12v676c0 7 5 12 12 12h325c7 0 12 -5 12 -12v-76z" />
    <glyph glyph-name="Egrave" unicode="&#xc8;" horiz-adv-x="435" 
d="M270 790c5 -9 0 -14 -9 -14h-69c-6 0 -10 1 -14 7l-74 103c-6 8 -2 15 8 15h84c6 0 12 -2 15 -8zM403 612c0 -7 -5 -12 -12 -12h-216c-3 0 -5 -2 -5 -5v-189c0 -3 2 -5 5 -5h128c7 0 12 -5 12 -12v-77c0 -7 -5 -12 -12 -12h-128c-3 0 -5 -2 -5 -5v-190c0 -3 2 -5 5 -5
h216c7 0 12 -5 12 -12v-76c0 -7 -5 -12 -12 -12h-325c-7 0 -12 5 -12 12v676c0 7 5 12 12 12h325c7 0 12 -5 12 -12v-76z" />
    <glyph glyph-name="Emacron" unicode="&#x112;" horiz-adv-x="435" 
d="M321 867c7 0 12 -5 12 -12v-56c0 -7 -5 -12 -12 -12h-190c-7 0 -12 5 -12 12v56c0 7 5 12 12 12h190zM403 612c0 -7 -5 -12 -12 -12h-216c-3 0 -5 -2 -5 -5v-189c0 -3 2 -5 5 -5h128c7 0 12 -5 12 -12v-77c0 -7 -5 -12 -12 -12h-128c-3 0 -5 -2 -5 -5v-190
c0 -3 2 -5 5 -5h216c7 0 12 -5 12 -12v-76c0 -7 -5 -12 -12 -12h-325c-7 0 -12 5 -12 12v676c0 7 5 12 12 12h325c7 0 12 -5 12 -12v-76z" />
    <glyph glyph-name="Eogonek" unicode="&#x118;" horiz-adv-x="435" 
d="M403 612c0 -7 -5 -12 -12 -12h-216c-3 0 -5 -2 -5 -5v-189c0 -3 2 -5 5 -5h128c7 0 12 -5 12 -12v-77c0 -7 -5 -12 -12 -12h-128c-3 0 -5 -2 -5 -5v-190c0 -3 2 -5 5 -5h216c7 0 12 -5 12 -12v-76c0 -7 -5 -12 -12 -12h-125c-2 0 -5 -1 -7 -3c-29 -28 -46 -58 -41 -85
c5 -24 22 -31 39 -28c8 1 13 -1 14 -9l5 -36c1 -8 -1 -12 -8 -14c-37 -10 -109 -14 -124 55c-8 37 1 77 35 114c3 3 2 6 -2 6h-111c-7 0 -12 5 -12 12v676c0 7 5 12 12 12h325c7 0 12 -5 12 -12v-76z" />
    <glyph glyph-name="F" unicode="F" horiz-adv-x="415" 
d="M402 612c0 -7 -5 -12 -12 -12h-215c-3 0 -5 -2 -5 -5v-189c0 -3 2 -5 5 -5h127c7 0 12 -5 12 -12v-77c0 -7 -5 -12 -12 -12h-127c-3 0 -5 -2 -5 -5v-283c0 -7 -5 -12 -12 -12h-92c-7 0 -12 5 -12 12v676c0 7 5 12 12 12h324c7 0 12 -5 12 -12v-76z" />
    <glyph glyph-name="G" unicode="G" horiz-adv-x="457" 
d="M230 -8c-113 0 -188 71 -188 181v354c0 110 75 181 188 181s190 -71 190 -182v-39c0 -7 -5 -12 -12 -12h-92c-7 0 -12 5 -12 12v41c0 48 -30 80 -74 80s-73 -32 -73 -80v-356c0 -48 29 -80 73 -80s74 32 74 80v96c0 3 -2 5 -5 5h-61c-7 0 -12 5 -12 12v73c0 7 5 12 12 12
h170c7 0 12 -5 12 -12v-185c0 -110 -77 -181 -190 -181z" />
    <glyph glyph-name="Gbreve" unicode="&#x11e;" horiz-adv-x="457" 
d="M230 749c-64 0 -109 41 -114 102c-1 8 3 12 11 12h39c7 0 12 -4 13 -12c4 -29 24 -49 51 -49c26 0 47 20 51 49c1 8 6 12 13 12h39c8 0 12 -4 11 -12c-5 -61 -51 -102 -114 -102zM230 -8c-113 0 -188 71 -188 181v354c0 110 75 181 188 181s190 -71 190 -182v-39
c0 -7 -5 -12 -12 -12h-92c-7 0 -12 5 -12 12v41c0 48 -30 80 -74 80s-73 -32 -73 -80v-356c0 -48 29 -80 73 -80s74 32 74 80v96c0 3 -2 5 -5 5h-61c-7 0 -12 5 -12 12v73c0 7 5 12 12 12h170c7 0 12 -5 12 -12v-185c0 -110 -77 -181 -190 -181z" />
    <glyph glyph-name="Gdotaccent" unicode="&#x120;" horiz-adv-x="457" 
d="M230 766c-33 0 -56 24 -56 58s23 57 56 57s54 -23 54 -57s-21 -58 -54 -58zM230 -8c-113 0 -188 71 -188 181v354c0 110 75 181 188 181s190 -71 190 -182v-39c0 -7 -5 -12 -12 -12h-92c-7 0 -12 5 -12 12v41c0 48 -30 80 -74 80s-73 -32 -73 -80v-356
c0 -48 29 -80 73 -80s74 32 74 80v96c0 3 -2 5 -5 5h-61c-7 0 -12 5 -12 12v73c0 7 5 12 12 12h170c7 0 12 -5 12 -12v-185c0 -110 -77 -181 -190 -181z" />
    <glyph glyph-name="H" unicode="H" horiz-adv-x="477" 
d="M307 688c0 7 5 12 12 12h92c7 0 12 -5 12 -12v-676c0 -7 -5 -12 -12 -12h-92c-7 0 -12 5 -12 12v283c0 3 -2 5 -5 5h-127c-3 0 -5 -2 -5 -5v-283c0 -7 -5 -12 -12 -12h-92c-7 0 -12 5 -12 12v676c0 7 5 12 12 12h92c7 0 12 -5 12 -12v-282c0 -3 2 -5 5 -5h127
c3 0 5 2 5 5v282z" />
    <glyph glyph-name="Hbar" unicode="&#x126;" horiz-adv-x="477" 
d="M459 586c7 0 12 -5 12 -12v-55c0 -7 -5 -12 -12 -12h-31c-3 0 -5 -2 -5 -5v-490c0 -7 -5 -12 -12 -12h-92c-7 0 -12 5 -12 12v283c0 3 -2 5 -5 5h-127c-3 0 -5 -2 -5 -5v-283c0 -7 -5 -12 -12 -12h-92c-7 0 -12 5 -12 12v490c0 3 -2 5 -5 5h-30c-7 0 -12 5 -12 12v55
c0 7 5 12 12 12h30c3 0 5 2 5 5v97c0 7 5 12 12 12h92c7 0 12 -5 12 -12v-97c0 -3 2 -5 5 -5h127c3 0 5 2 5 5v97c0 7 5 12 12 12h92c7 0 12 -5 12 -12v-97c0 -3 2 -5 5 -5h31zM302 401c3 0 5 2 5 5v96c0 3 -2 5 -5 5h-127c-3 0 -5 -2 -5 -5v-96c0 -3 2 -5 5 -5h127z" />
    <glyph glyph-name="I" unicode="I" horiz-adv-x="224" 
d="M66 0c-7 0 -12 5 -12 12v676c0 7 5 12 12 12h92c7 0 12 -5 12 -12v-676c0 -7 -5 -12 -12 -12h-92z" />
    <glyph glyph-name="Iacute" unicode="&#xcd;" horiz-adv-x="224" 
d="M60 776c-9 0 -14 5 -9 14l59 103c3 6 9 8 15 8h84c10 0 14 -7 8 -15l-74 -103c-4 -6 -8 -7 -14 -7h-69zM66 0c-7 0 -12 5 -12 12v676c0 7 5 12 12 12h92c7 0 12 -5 12 -12v-676c0 -7 -5 -12 -12 -12h-92z" />
    <glyph glyph-name="Icircumflex" unicode="&#xce;" horiz-adv-x="224" 
d="M-11 772c-9 0 -13 5 -8 14l65 102c3 5 8 8 14 8h98c6 0 11 -3 14 -8l67 -101c5 -8 2 -15 -7 -15h-69c-6 0 -12 3 -15 8l-34 62c-2 3 -4 3 -6 0l-35 -62c-3 -5 -9 -8 -15 -8h-69zM66 0c-7 0 -12 5 -12 12v676c0 7 5 12 12 12h92c7 0 12 -5 12 -12v-676
c0 -7 -5 -12 -12 -12h-92z" />
    <glyph glyph-name="Idieresis" unicode="&#xcf;" horiz-adv-x="224" 
d="M36 778c-35 0 -61 26 -61 63c0 36 26 62 61 62s59 -26 59 -62c0 -37 -24 -63 -59 -63zM191 778c-36 0 -61 26 -61 63c0 36 25 62 61 62c35 0 59 -26 59 -62c0 -37 -24 -63 -59 -63zM66 0c-7 0 -12 5 -12 12v676c0 7 5 12 12 12h92c7 0 12 -5 12 -12v-676
c0 -7 -5 -12 -12 -12h-92z" />
    <glyph glyph-name="Idotaccent" unicode="&#x130;" horiz-adv-x="224" 
d="M112 770c-33 0 -56 24 -56 58s23 57 56 57s54 -23 54 -57s-21 -58 -54 -58zM66 0c-7 0 -12 5 -12 12v676c0 7 5 12 12 12h92c7 0 12 -5 12 -12v-676c0 -7 -5 -12 -12 -12h-92z" />
    <glyph glyph-name="Igrave" unicode="&#xcc;" horiz-adv-x="224" 
d="M153 790c5 -9 0 -14 -9 -14h-69c-6 0 -10 1 -14 7l-74 103c-6 8 -2 15 8 15h84c6 0 12 -2 15 -8zM66 0c-7 0 -12 5 -12 12v676c0 7 5 12 12 12h92c7 0 12 -5 12 -12v-676c0 -7 -5 -12 -12 -12h-92z" />
    <glyph glyph-name="Imacron" unicode="&#x12a;" horiz-adv-x="224" 
d="M14 787c-7 0 -12 5 -12 12v56c0 7 5 12 12 12h190c7 0 12 -5 12 -12v-56c0 -7 -5 -12 -12 -12h-190zM66 0c-7 0 -12 5 -12 12v676c0 7 5 12 12 12h92c7 0 12 -5 12 -12v-676c0 -7 -5 -12 -12 -12h-92z" />
    <glyph glyph-name="Iogonek" unicode="&#x12e;" horiz-adv-x="258" 
d="M179 -124c8 1 13 -1 14 -9l5 -36c1 -8 -1 -12 -8 -14c-37 -10 -109 -14 -124 55c-9 40 3 82 42 122c4 3 2 6 -2 6h-17c-7 0 -12 5 -12 12v676c0 7 5 12 12 12h92c7 0 12 -5 12 -12v-679c0 -6 -2 -11 -7 -15c-32 -29 -51 -61 -46 -90c5 -24 22 -31 39 -28z" />
    <glyph glyph-name="J" unicode="J" horiz-adv-x="443" 
d="M202 -8c-111 0 -185 72 -185 181v74c0 7 5 12 12 12h92c7 0 12 -5 12 -12v-76c0 -47 28 -79 69 -79c42 0 70 32 70 79v517c0 7 5 12 12 12h92c7 0 12 -5 12 -12v-515c0 -109 -75 -181 -186 -181z" />
    <glyph glyph-name="K" unicode="K" horiz-adv-x="477" 
d="M66 0c-7 0 -12 5 -12 12v676c0 7 5 12 12 12h92c7 0 12 -5 12 -12v-276c0 -5 4 -6 6 -2l150 281c3 6 9 9 15 9h99c9 0 12 -6 8 -14l-150 -281c-1 -3 -2 -3 -1 -6l162 -385c3 -8 0 -14 -9 -14h-99c-6 0 -12 3 -14 9l-118 289c-1 4 -5 3 -7 0l-40 -67c-1 -2 -2 -4 -2 -6
v-213c0 -7 -5 -12 -12 -12h-92z" />
    <glyph glyph-name="L" unicode="L" horiz-adv-x="415" 
d="M66 0c-7 0 -12 5 -12 12v676c0 7 5 12 12 12h92c7 0 12 -5 12 -12v-583c0 -3 2 -5 5 -5h216c7 0 12 -5 12 -12v-76c0 -7 -5 -12 -12 -12h-325z" />
    <glyph glyph-name="Lacute" unicode="&#x139;" horiz-adv-x="415" 
d="M62 764c-9 0 -14 5 -9 14l59 103c3 6 9 8 15 8h84c10 0 14 -7 8 -15l-74 -103c-4 -6 -8 -7 -14 -7h-69zM66 0c-7 0 -12 5 -12 12v676c0 7 5 12 12 12h92c7 0 12 -5 12 -12v-583c0 -3 2 -5 5 -5h216c7 0 12 -5 12 -12v-76c0 -7 -5 -12 -12 -12h-325z" />
    <glyph glyph-name="Lcaron" unicode="&#x13d;" horiz-adv-x="415" 
d="M65 750c-6 0 -11 3 -14 8l-65 102c-5 9 -1 14 8 14h67c6 0 11 -2 14 -8l36 -61c2 -4 5 -4 7 0l35 61c3 5 9 8 15 8h62c9 0 13 -7 8 -15l-67 -101c-3 -5 -8 -8 -14 -8h-92zM66 0c-7 0 -12 5 -12 12v676c0 7 5 12 12 12h92c7 0 12 -5 12 -12v-583c0 -3 2 -5 5 -5h216
c7 0 12 -5 12 -12v-76c0 -7 -5 -12 -12 -12h-325z" />
    <glyph glyph-name="uni013B" unicode="&#x13b;" horiz-adv-x="415" 
d="M66 0c-7 0 -12 5 -12 12v676c0 7 5 12 12 12h92c7 0 12 -5 12 -12v-583c0 -3 2 -5 5 -5h216c7 0 12 -5 12 -12v-76c0 -7 -5 -12 -12 -12h-325zM138 -179c-9 0 -14 5 -9 14l59 103c3 6 9 8 15 8h84c10 0 14 -7 8 -15l-74 -103c-4 -6 -8 -7 -14 -7h-69z" />
    <glyph glyph-name="Lslash" unicode="&#x141;" horiz-adv-x="415" 
d="M170 105c0 -3 2 -5 5 -5h216c7 0 12 -5 12 -12v-76c0 -7 -5 -12 -12 -12h-325c-7 0 -12 5 -12 12v193c0 4 -3 6 -6 3l-52 -41c-6 -5 -12 -4 -17 2l-41 50c-5 6 -4 12 2 17l111 88c2 1 3 4 3 6v358c0 7 5 12 12 12h92c7 0 12 -5 12 -12v-261c0 -4 3 -6 6 -3l129 102
c6 5 12 4 17 -2l42 -50c5 -6 4 -12 -2 -17l-189 -150c-2 -1 -3 -4 -3 -6v-196z" />
    <glyph glyph-name="M" unicode="M" horiz-adv-x="536" 
d="M64 0c-7 0 -12 5 -12 12v676c0 7 5 12 12 12h91c6 0 11 -2 14 -9l96 -216c2 -4 4 -4 6 0l95 216c3 7 8 9 14 9h92c7 0 12 -5 12 -12v-676c0 -7 -5 -12 -12 -12h-92c-7 0 -12 5 -12 12v436c0 5 -4 5 -6 1l-86 -175c-3 -6 -6 -9 -8 -9s-5 3 -8 9l-86 177c-2 4 -6 3 -6 -2
v-437c0 -7 -5 -12 -12 -12h-92z" />
    <glyph glyph-name="N" unicode="N" horiz-adv-x="507" 
d="M67 0c-7 0 -12 5 -12 12v676c0 7 5 12 12 12h96c7 0 12 -3 14 -9l155 -407c2 -4 6 -4 6 1v403c0 7 5 12 12 12h91c7 0 12 -5 12 -12v-676c0 -7 -5 -12 -12 -12h-97c-7 0 -12 3 -14 9l-156 408c-2 4 -6 3 -6 -1l1 -404c0 -7 -5 -12 -12 -12h-90z" />
    <glyph glyph-name="Nacute" unicode="&#x143;" horiz-adv-x="507" 
d="M201 776c-9 0 -14 5 -9 14l59 103c3 6 9 8 15 8h84c10 0 14 -7 8 -15l-74 -103c-4 -6 -8 -7 -14 -7h-69zM67 0c-7 0 -12 5 -12 12v676c0 7 5 12 12 12h96c7 0 12 -3 14 -9l155 -407c2 -4 6 -4 6 1v403c0 7 5 12 12 12h91c7 0 12 -5 12 -12v-676c0 -7 -5 -12 -12 -12h-97
c-7 0 -12 3 -14 9l-156 408c-2 4 -6 3 -6 -1l1 -404c0 -7 -5 -12 -12 -12h-90z" />
    <glyph glyph-name="Ncaron" unicode="&#x147;" horiz-adv-x="507" 
d="M204 766c-6 0 -11 2 -14 8l-65 103c-5 9 -1 14 8 14h67c6 0 11 -2 14 -8l36 -62c2 -4 5 -4 7 0l35 62c3 5 9 8 15 8h62c9 0 13 -7 8 -15l-67 -102c-3 -5 -8 -8 -14 -8h-92zM67 0c-7 0 -12 5 -12 12v676c0 7 5 12 12 12h96c7 0 12 -3 14 -9l155 -407c2 -4 6 -4 6 1v403
c0 7 5 12 12 12h91c7 0 12 -5 12 -12v-676c0 -7 -5 -12 -12 -12h-97c-7 0 -12 3 -14 9l-156 408c-2 4 -6 3 -6 -1l1 -404c0 -7 -5 -12 -12 -12h-90z" />
    <glyph glyph-name="Eng" unicode="&#x14a;" horiz-adv-x="507" 
d="M338 688c0 7 5 12 12 12h91c7 0 12 -5 12 -12v-688c0 -111 -8 -179 -181 -177c-8 0 -12 5 -12 12l-1 76c0 8 5 12 13 12c59 0 54 35 54 89v6c0 2 0 3 -1 6l-151 393c-2 4 -6 4 -6 -1l1 -404c0 -7 -5 -12 -12 -12h-90c-7 0 -12 5 -12 12v676c0 7 5 12 12 12h96
c7 0 12 -3 14 -9l143 -376c2 -4 6 -3 6 1v42c0 7 2 12 6 12h1c3 0 5 2 5 5v313z" />
    <glyph glyph-name="Ntilde" unicode="&#xd1;" horiz-adv-x="507" 
d="M318 786c-19 0 -35 8 -54 19c-18 11 -26 19 -43 19c-14 0 -27 -5 -38 -23c-5 -7 -11 -8 -17 -4l-32 24c-5 4 -8 9 -5 16c19 44 50 62 83 62c24 0 43 -10 62 -22c13 -9 25 -20 43 -20c13 0 27 5 38 23c4 7 9 9 16 4l32 -21c6 -4 7 -12 1 -24c-24 -40 -59 -53 -86 -53z
M67 0c-7 0 -12 5 -12 12v676c0 7 5 12 12 12h96c7 0 12 -3 14 -9l155 -407c2 -4 6 -4 6 1v403c0 7 5 12 12 12h91c7 0 12 -5 12 -12v-676c0 -7 -5 -12 -12 -12h-97c-7 0 -12 3 -14 9l-156 408c-2 4 -6 3 -6 -1l1 -404c0 -7 -5 -12 -12 -12h-90z" />
    <glyph glyph-name="O" unicode="O" horiz-adv-x="467" 
d="M233 -8c-115 0 -191 75 -191 190v336c0 115 76 190 191 190s192 -75 192 -190v-336c0 -115 -77 -190 -192 -190zM233 92c46 0 76 35 76 85v346c0 50 -30 85 -76 85s-75 -35 -75 -85v-346c0 -50 29 -85 75 -85z" />
    <glyph glyph-name="Oacute" unicode="&#xd3;" horiz-adv-x="467" 
d="M181 768c-9 0 -14 5 -9 14l59 103c3 6 9 8 15 8h84c10 0 14 -7 8 -15l-74 -103c-4 -6 -8 -7 -14 -7h-69zM233 -8c-115 0 -191 75 -191 190v336c0 115 76 190 191 190s192 -75 192 -190v-336c0 -115 -77 -190 -192 -190zM233 92c46 0 76 35 76 85v346c0 50 -30 85 -76 85
s-75 -35 -75 -85v-346c0 -50 29 -85 75 -85z" />
    <glyph glyph-name="Ocircumflex" unicode="&#xd4;" horiz-adv-x="467" 
d="M110 764c-9 0 -13 5 -8 14l65 102c3 5 8 8 14 8h98c6 0 11 -3 14 -8l67 -101c5 -8 2 -15 -7 -15h-69c-6 0 -12 3 -15 8l-34 62c-2 3 -4 3 -6 0l-35 -62c-3 -5 -9 -8 -15 -8h-69zM233 -8c-115 0 -191 75 -191 190v336c0 115 76 190 191 190s192 -75 192 -190v-336
c0 -115 -77 -190 -192 -190zM233 92c46 0 76 35 76 85v346c0 50 -30 85 -76 85s-75 -35 -75 -85v-346c0 -50 29 -85 75 -85z" />
    <glyph glyph-name="Odieresis" unicode="&#xd6;" horiz-adv-x="467" 
d="M157 770c-35 0 -61 26 -61 63c0 36 26 62 61 62s59 -26 59 -62c0 -37 -24 -63 -59 -63zM312 770c-36 0 -61 26 -61 63c0 36 25 62 61 62c35 0 59 -26 59 -62c0 -37 -24 -63 -59 -63zM233 -8c-115 0 -191 75 -191 190v336c0 115 76 190 191 190s192 -75 192 -190v-336
c0 -115 -77 -190 -192 -190zM233 92c46 0 76 35 76 85v346c0 50 -30 85 -76 85s-75 -35 -75 -85v-346c0 -50 29 -85 75 -85z" />
    <glyph glyph-name="Ograve" unicode="&#xd2;" horiz-adv-x="467" 
d="M274 782c5 -9 0 -14 -9 -14h-69c-6 0 -10 1 -14 7l-74 103c-6 8 -2 15 8 15h84c6 0 12 -2 15 -8zM233 -8c-115 0 -191 75 -191 190v336c0 115 76 190 191 190s192 -75 192 -190v-336c0 -115 -77 -190 -192 -190zM233 92c46 0 76 35 76 85v346c0 50 -30 85 -76 85
s-75 -35 -75 -85v-346c0 -50 29 -85 75 -85z" />
    <glyph glyph-name="Ohungarumlaut" unicode="&#x150;" horiz-adv-x="467" 
d="M132 766c-9 0 -13 5 -9 14l50 102c3 6 8 9 14 9h75c9 0 12 -6 8 -14l-54 -102c-3 -6 -9 -9 -15 -9h-69zM278 766c-9 0 -12 6 -8 14l54 102c3 6 9 9 15 9h70c9 0 12 -6 8 -14l-55 -103c-3 -6 -9 -8 -15 -8h-69zM233 -8c-115 0 -191 75 -191 190v336c0 115 76 190 191 190
s192 -75 192 -190v-336c0 -115 -77 -190 -192 -190zM233 92c46 0 76 35 76 85v346c0 50 -30 85 -76 85s-75 -35 -75 -85v-346c0 -50 29 -85 75 -85z" />
    <glyph glyph-name="Omacron" unicode="&#x14c;" horiz-adv-x="467" 
d="M135 779c-7 0 -12 5 -12 12v56c0 7 5 12 12 12h190c7 0 12 -5 12 -12v-56c0 -7 -5 -12 -12 -12h-190zM233 -8c-115 0 -191 75 -191 190v336c0 115 76 190 191 190s192 -75 192 -190v-336c0 -115 -77 -190 -192 -190zM233 92c46 0 76 35 76 85v346c0 50 -30 85 -76 85
s-75 -35 -75 -85v-346c0 -50 29 -85 75 -85z" />
    <glyph glyph-name="Oslash" unicode="&#xd8;" horiz-adv-x="500" 
d="M440 745c9 0 12 -6 9 -14l-44 -102c-1 -3 -1 -5 0 -7c17 -29 26 -65 26 -104v-336c0 -115 -77 -190 -192 -190c-36 0 -68 7 -95 21c-3 2 -6 1 -7 -2l-19 -43c-3 -7 -8 -9 -14 -9h-45c-9 0 -12 6 -9 14l35 82c1 2 1 5 0 7c-24 32 -37 73 -37 120v336c0 115 76 190 191 190
c43 0 80 -10 110 -29c3 -2 6 -1 7 2l24 55c3 7 8 9 14 9h46zM164 523v-272c0 -5 4 -5 6 -1l135 312c1 3 1 4 -1 6c-12 25 -35 40 -65 40c-46 0 -75 -35 -75 -85zM315 177v230c0 5 -4 6 -6 2l-124 -287c-1 -2 -1 -5 1 -7c12 -15 31 -23 53 -23c46 0 76 35 76 85z" />
    <glyph glyph-name="Otilde" unicode="&#xd5;" horiz-adv-x="467" 
d="M298 778c-19 0 -35 8 -54 19c-18 11 -26 19 -43 19c-14 0 -27 -5 -38 -23c-5 -7 -11 -8 -17 -4l-32 24c-5 4 -8 9 -5 16c19 44 50 62 83 62c24 0 43 -10 62 -22c13 -9 25 -20 43 -20c13 0 27 5 38 23c4 7 9 9 16 4l32 -21c6 -4 7 -12 1 -24c-24 -40 -59 -53 -86 -53z
M233 -8c-115 0 -191 75 -191 190v336c0 115 76 190 191 190s192 -75 192 -190v-336c0 -115 -77 -190 -192 -190zM233 92c46 0 76 35 76 85v346c0 50 -30 85 -76 85s-75 -35 -75 -85v-346c0 -50 29 -85 75 -85z" />
    <glyph glyph-name="OE" unicode="&#x152;" horiz-adv-x="690" 
d="M658 612c0 -7 -5 -12 -12 -12h-216c-3 0 -5 -2 -5 -5v-189c0 -3 2 -5 5 -5h128c7 0 12 -5 12 -12v-77c0 -7 -5 -12 -12 -12h-128c-3 0 -5 -2 -5 -5v-190c0 -3 2 -5 5 -5h216c7 0 12 -5 12 -12v-76c0 -7 -5 -12 -12 -12h-325c-7 0 -12 5 -12 12v12c0 4 -3 5 -6 2
c-25 -22 -58 -34 -98 -34c-87 0 -163 75 -163 190v336c0 115 76 190 163 190c40 0 73 -12 98 -34c3 -3 6 -2 6 2v12c0 7 5 12 12 12h325c7 0 12 -5 12 -12v-76zM233 92c46 0 76 35 76 85v346c0 50 -30 85 -76 85s-75 -35 -75 -85v-346c0 -50 29 -85 75 -85z" />
    <glyph glyph-name="P" unicode="P" horiz-adv-x="457" 
d="M253 701c107 0 179 -84 179 -206c0 -121 -70 -200 -173 -200h-85c-3 0 -5 -2 -5 -5v-278c0 -7 -5 -12 -12 -12h-92c-7 0 -12 5 -12 12v677c0 7 5 12 12 12h188zM234 386c49 0 82 40 82 106c0 68 -33 109 -82 109h-60c-3 0 -5 -2 -5 -5v-205c0 -3 2 -5 5 -5h60z" />
    <glyph glyph-name="Thorn" unicode="&#xde;" horiz-adv-x="457" 
d="M253 555c106 0 179 -84 179 -207c0 -121 -70 -201 -174 -201h-84c-3 0 -5 -2 -5 -5v-130c0 -7 -5 -12 -12 -12h-92c-7 0 -12 5 -12 12v676c0 7 5 12 12 12h92c7 0 12 -5 12 -12v-128c0 -3 2 -5 5 -5h79zM234 240c48 0 82 39 82 106c0 68 -34 108 -82 108h-60
c-3 0 -5 -2 -5 -5v-204c0 -3 2 -5 5 -5h60z" />
    <glyph glyph-name="Q" unicode="Q" horiz-adv-x="455" 
d="M227 708c112 0 186 -79 186 -195v-326c0 -93 -47 -162 -124 -186c-3 -1 -4 -2 -4 -5v-88c0 -7 -5 -12 -12 -12h-92c-7 0 -12 5 -12 12v88c0 3 -1 4 -4 5c-76 25 -123 94 -123 186v326c0 116 74 195 185 195zM297 175v350c0 49 -28 83 -70 83c-41 0 -69 -34 -69 -83v-350
c0 -49 28 -83 69 -83c42 0 70 34 70 83z" />
    <glyph glyph-name="R" unicode="R" horiz-adv-x="461" 
d="M331 0c-7 0 -11 4 -13 10l-86 288c-1 2 -2 4 -5 4h-52c-3 0 -5 -2 -5 -5v-285c0 -7 -5 -12 -12 -12h-92c-7 0 -12 5 -12 12v677c0 7 5 12 12 12h188c107 0 179 -83 179 -204c0 -83 -34 -146 -91 -176c-3 -1 -4 -3 -3 -6l98 -301c3 -9 -2 -14 -10 -14h-96zM175 601
c-3 0 -5 -2 -5 -5v-199c0 -3 2 -5 5 -5h61c48 0 81 39 81 103c0 66 -33 106 -81 106h-61z" />
    <glyph glyph-name="Racute" unicode="&#x154;" horiz-adv-x="461" 
d="M324 889c10 0 14 -7 8 -15l-74 -103c-4 -6 -8 -7 -14 -7h-69c-9 0 -14 5 -9 14l59 103c3 6 9 8 15 8h84zM331 0c-7 0 -11 4 -13 10l-86 288c-1 2 -2 4 -5 4h-52c-3 0 -5 -2 -5 -5v-285c0 -7 -5 -12 -12 -12h-92c-7 0 -12 5 -12 12v677c0 7 5 12 12 12h188
c107 0 179 -83 179 -204c0 -83 -34 -146 -91 -176c-3 -1 -4 -3 -3 -6l98 -301c3 -9 -2 -14 -10 -14h-96zM175 601c-3 0 -5 -2 -5 -5v-199c0 -3 2 -5 5 -5h61c48 0 81 39 81 103c0 66 -33 106 -81 106h-61z" />
    <glyph glyph-name="Rcaron" unicode="&#x158;" horiz-adv-x="461" 
d="M284 762c-3 -5 -8 -8 -14 -8h-92c-6 0 -11 2 -14 8l-65 103c-5 9 -1 14 8 14h67c6 0 11 -2 14 -8l36 -62c2 -4 5 -4 7 0l35 62c3 5 9 8 15 8h62c9 0 13 -7 8 -15zM331 0c-7 0 -11 4 -13 10l-86 288c-1 2 -2 4 -5 4h-52c-3 0 -5 -2 -5 -5v-285c0 -7 -5 -12 -12 -12h-92
c-7 0 -12 5 -12 12v677c0 7 5 12 12 12h188c107 0 179 -83 179 -204c0 -83 -34 -146 -91 -176c-3 -1 -4 -3 -3 -6l98 -301c3 -9 -2 -14 -10 -14h-96zM175 601c-3 0 -5 -2 -5 -5v-199c0 -3 2 -5 5 -5h61c48 0 81 39 81 103c0 66 -33 106 -81 106h-61z" />
    <glyph glyph-name="S" unicode="S" horiz-adv-x="440" 
d="M224 -8c-110 0 -184 74 -184 181v28c0 7 5 12 12 12h90c7 0 12 -5 12 -12v-22c0 -53 30 -87 70 -87c41 0 71 32 71 82c0 53 -35 78 -105 130c-76 55 -152 111 -152 223c0 111 74 181 181 181c112 0 186 -75 186 -188v-24c0 -7 -5 -12 -12 -12h-91c-7 0 -12 5 -12 12v26
c0 52 -29 86 -71 86c-38 0 -67 -29 -67 -81c0 -50 27 -75 101 -130c102 -76 157 -119 157 -217c0 -115 -77 -188 -186 -188z" />
    <glyph glyph-name="Sacute" unicode="&#x15a;" horiz-adv-x="440" 
d="M167 772c-9 0 -14 5 -9 14l59 103c3 6 9 8 15 8h84c10 0 14 -7 8 -15l-74 -103c-4 -6 -8 -7 -14 -7h-69zM224 -8c-110 0 -184 74 -184 181v28c0 7 5 12 12 12h90c7 0 12 -5 12 -12v-22c0 -53 30 -87 70 -87c41 0 71 32 71 82c0 53 -35 78 -105 130
c-76 55 -152 111 -152 223c0 111 74 181 181 181c112 0 186 -75 186 -188v-24c0 -7 -5 -12 -12 -12h-91c-7 0 -12 5 -12 12v26c0 52 -29 86 -71 86c-38 0 -67 -29 -67 -81c0 -50 27 -75 101 -130c102 -76 157 -119 157 -217c0 -115 -77 -188 -186 -188z" />
    <glyph glyph-name="Scaron" unicode="&#x160;" horiz-adv-x="440" 
d="M170 762c-6 0 -11 2 -14 8l-65 103c-5 9 -1 14 8 14h67c6 0 11 -2 14 -8l36 -62c2 -4 5 -4 7 0l35 62c3 5 9 8 15 8h62c9 0 13 -7 8 -15l-67 -102c-3 -5 -8 -8 -14 -8h-92zM224 -8c-110 0 -184 74 -184 181v28c0 7 5 12 12 12h90c7 0 12 -5 12 -12v-22
c0 -53 30 -87 70 -87c41 0 71 32 71 82c0 53 -35 78 -105 130c-76 55 -152 111 -152 223c0 111 74 181 181 181c112 0 186 -75 186 -188v-24c0 -7 -5 -12 -12 -12h-91c-7 0 -12 5 -12 12v26c0 52 -29 86 -71 86c-38 0 -67 -29 -67 -81c0 -50 27 -75 101 -130
c102 -76 157 -119 157 -217c0 -115 -77 -188 -186 -188z" />
    <glyph glyph-name="Scedilla" unicode="&#x15e;" horiz-adv-x="440" 
d="M410 180c0 -98 -56 -166 -141 -184c-4 -1 -5 -3 -2 -6c34 -37 43 -77 35 -114c-15 -69 -87 -65 -124 -55c-7 2 -9 6 -8 14l5 36c1 8 6 10 14 9c17 -3 34 5 39 28c5 27 -12 57 -41 85c-1 1 -3 2 -5 3c-86 17 -142 84 -142 177v28c0 7 5 12 12 12h90c7 0 12 -5 12 -12v-22
c0 -53 30 -87 70 -87c41 0 71 32 71 82c0 53 -35 78 -105 130c-76 55 -152 111 -152 223c0 111 74 181 181 181c112 0 186 -75 186 -188v-24c0 -7 -5 -12 -12 -12h-91c-7 0 -12 5 -12 12v26c0 52 -29 86 -71 86c-38 0 -67 -29 -67 -81c0 -50 27 -75 101 -130
c102 -76 157 -119 157 -217z" />
    <glyph glyph-name="T" unicode="T" horiz-adv-x="452" 
d="M413 700c7 0 12 -5 12 -12v-76c0 -7 -5 -12 -12 -12h-127c-3 0 -5 -2 -5 -5v-583c0 -7 -5 -12 -12 -12h-92c-7 0 -12 5 -12 12v583c0 3 -2 5 -5 5h-120c-7 0 -12 5 -12 12v76c0 7 5 12 12 12h373z" />
    <glyph glyph-name="Tbar" unicode="&#x166;" horiz-adv-x="600" 
d="M425 612c0 -7 -5 -12 -12 -12h-127c-3 0 -5 -2 -5 -5v-178c0 -3 2 -5 5 -5h66c7 0 12 -5 12 -12v-47c0 -7 -5 -12 -12 -12h-66c-3 0 -5 -2 -5 -5v-324c0 -7 -5 -12 -12 -12h-92c-7 0 -12 5 -12 12v324c0 3 -2 5 -5 5h-73c-7 0 -12 5 -12 12v47c0 7 5 12 12 12h73
c3 0 5 2 5 5v178c0 3 -2 5 -5 5h-120c-7 0 -12 5 -12 12v76c0 7 5 12 12 12h373c7 0 12 -5 12 -12v-76z" />
    <glyph glyph-name="Tcaron" unicode="&#x164;" horiz-adv-x="452" 
d="M283 758c-3 -5 -8 -8 -14 -8h-92c-6 0 -11 3 -14 8l-65 102c-5 9 -1 14 8 14h67c6 0 11 -2 14 -8l36 -61c2 -4 5 -4 7 0l35 61c3 5 9 8 15 8h62c9 0 12 -7 7 -15zM413 700c7 0 12 -5 12 -12v-76c0 -7 -5 -12 -12 -12h-127c-3 0 -5 -2 -5 -5v-583c0 -7 -5 -12 -12 -12h-92
c-7 0 -12 5 -12 12v583c0 3 -2 5 -5 5h-120c-7 0 -12 5 -12 12v76c0 7 5 12 12 12h373z" />
    <glyph glyph-name="U" unicode="U" horiz-adv-x="478" 
d="M239 -8c-114 0 -189 80 -189 202v494c0 7 5 12 12 12h92c7 0 12 -5 12 -12v-506c0 -53 29 -90 73 -90s73 37 73 90v506c0 7 5 12 12 12h92c7 0 12 -5 12 -12v-494c0 -122 -76 -202 -189 -202z" />
    <glyph glyph-name="Uacute" unicode="&#xda;" horiz-adv-x="478" 
d="M187 776c-9 0 -14 5 -9 14l59 103c3 6 9 8 15 8h84c10 0 14 -7 8 -15l-74 -103c-4 -6 -8 -7 -14 -7h-69zM239 -8c-114 0 -189 80 -189 202v494c0 7 5 12 12 12h92c7 0 12 -5 12 -12v-506c0 -53 29 -90 73 -90s73 37 73 90v506c0 7 5 12 12 12h92c7 0 12 -5 12 -12v-494
c0 -122 -76 -202 -189 -202z" />
    <glyph glyph-name="Ucircumflex" unicode="&#xdb;" horiz-adv-x="478" 
d="M116 772c-9 0 -13 5 -8 14l65 102c3 5 8 8 14 8h98c6 0 11 -3 14 -8l67 -101c5 -8 2 -15 -7 -15h-69c-6 0 -12 3 -15 8l-34 62c-2 3 -4 3 -6 0l-35 -62c-3 -5 -9 -8 -15 -8h-69zM239 -8c-114 0 -189 80 -189 202v494c0 7 5 12 12 12h92c7 0 12 -5 12 -12v-506
c0 -53 29 -90 73 -90s73 37 73 90v506c0 7 5 12 12 12h92c7 0 12 -5 12 -12v-494c0 -122 -76 -202 -189 -202z" />
    <glyph glyph-name="Udieresis" unicode="&#xdc;" horiz-adv-x="478" 
d="M163 778c-35 0 -61 26 -61 63c0 36 26 62 61 62s59 -26 59 -62c0 -37 -24 -63 -59 -63zM318 778c-36 0 -61 26 -61 63c0 36 25 62 61 62c35 0 59 -26 59 -62c0 -37 -24 -63 -59 -63zM239 -8c-114 0 -189 80 -189 202v494c0 7 5 12 12 12h92c7 0 12 -5 12 -12v-506
c0 -53 29 -90 73 -90s73 37 73 90v506c0 7 5 12 12 12h92c7 0 12 -5 12 -12v-494c0 -122 -76 -202 -189 -202z" />
    <glyph glyph-name="Ugrave" unicode="&#xd9;" horiz-adv-x="478" 
d="M280 790c5 -9 0 -14 -9 -14h-69c-6 0 -10 1 -14 7l-74 103c-6 8 -2 15 8 15h84c6 0 12 -2 15 -8zM239 -8c-114 0 -189 80 -189 202v494c0 7 5 12 12 12h92c7 0 12 -5 12 -12v-506c0 -53 29 -90 73 -90s73 37 73 90v506c0 7 5 12 12 12h92c7 0 12 -5 12 -12v-494
c0 -122 -76 -202 -189 -202z" />
    <glyph glyph-name="Uhungarumlaut" unicode="&#x170;" horiz-adv-x="478" 
d="M138 774c-9 0 -13 5 -9 14l50 102c3 6 8 9 14 9h75c9 0 12 -6 8 -14l-54 -102c-3 -6 -9 -9 -15 -9h-69zM284 774c-9 0 -12 6 -8 14l54 102c3 6 9 9 15 9h70c9 0 12 -6 8 -14l-55 -103c-3 -6 -9 -8 -15 -8h-69zM239 -8c-114 0 -189 80 -189 202v494c0 7 5 12 12 12h92
c7 0 12 -5 12 -12v-506c0 -53 29 -90 73 -90s73 37 73 90v506c0 7 5 12 12 12h92c7 0 12 -5 12 -12v-494c0 -122 -76 -202 -189 -202z" />
    <glyph glyph-name="Umacron" unicode="&#x16a;" horiz-adv-x="478" 
d="M141 787c-7 0 -12 5 -12 12v56c0 7 5 12 12 12h190c7 0 12 -5 12 -12v-56c0 -7 -5 -12 -12 -12h-190zM239 -8c-114 0 -189 80 -189 202v494c0 7 5 12 12 12h92c7 0 12 -5 12 -12v-506c0 -53 29 -90 73 -90s73 37 73 90v506c0 7 5 12 12 12h92c7 0 12 -5 12 -12v-494
c0 -122 -76 -202 -189 -202z" />
    <glyph glyph-name="Uogonek" unicode="&#x172;" horiz-adv-x="478" 
d="M312 688c0 7 5 12 12 12h92c7 0 12 -5 12 -12v-494c0 -108 -60 -183 -151 -198c-2 -1 -4 -2 -5 -3c-27 -28 -41 -55 -37 -81c5 -24 22 -31 39 -28c8 1 13 -1 14 -9l5 -36c1 -8 -1 -12 -8 -14c-37 -10 -109 -14 -124 55c-8 36 1 74 32 111c3 3 2 6 -2 6
c-87 20 -141 93 -141 197v494c0 7 5 12 12 12h92c7 0 12 -5 12 -12v-506c0 -53 29 -90 73 -90s73 37 73 90v506z" />
    <glyph glyph-name="Uring" unicode="&#x16e;" horiz-adv-x="478" 
d="M239 766c-60 0 -107 48 -107 109c0 60 47 107 107 107s107 -47 107 -107c0 -61 -47 -109 -107 -109zM239 821c29 0 52 24 52 54s-23 54 -52 54s-52 -24 -52 -54s23 -54 52 -54zM239 -8c-114 0 -189 80 -189 202v494c0 7 5 12 12 12h92c7 0 12 -5 12 -12v-506
c0 -53 29 -90 73 -90s73 37 73 90v506c0 7 5 12 12 12h92c7 0 12 -5 12 -12v-494c0 -122 -76 -202 -189 -202z" />
    <glyph glyph-name="V" unicode="V" horiz-adv-x="471" 
d="M184 0c-7 0 -12 4 -13 11l-143 676c-2 9 2 13 10 13h101c7 0 12 -3 13 -11l83 -481c1 -4 5 -4 6 0l81 481c1 8 6 11 13 11h98c8 0 12 -4 10 -13l-144 -676c-1 -7 -6 -11 -13 -11h-102z" />
    <glyph glyph-name="W" unicode="W" horiz-adv-x="665" 
d="M170 0c-7 0 -12 3 -13 11l-133 676c-2 9 2 13 10 13h96c7 0 12 -3 13 -11l70 -417c1 -4 5 -4 6 0l63 417c1 8 6 11 13 11h80c7 0 12 -3 13 -11l68 -417c1 -4 5 -4 6 0l63 417c1 8 6 11 13 11h93c8 0 12 -5 11 -13l-127 -676c-1 -8 -6 -11 -13 -11h-85c-7 0 -12 3 -13 11
l-67 425c-1 5 -5 5 -6 0l-62 -425c-1 -8 -6 -11 -13 -11h-86z" />
    <glyph glyph-name="Wacute" unicode="&#x1e82;" horiz-adv-x="665" 
d="M276 764c-9 0 -14 5 -9 14l59 103c3 6 9 8 15 8h84c10 0 14 -7 8 -15l-74 -103c-4 -6 -8 -7 -14 -7h-69zM170 0c-7 0 -12 3 -13 11l-133 676c-2 9 2 13 10 13h96c7 0 12 -3 13 -11l70 -417c1 -4 5 -4 6 0l63 417c1 8 6 11 13 11h80c7 0 12 -3 13 -11l68 -417
c1 -4 5 -4 6 0l63 417c1 8 6 11 13 11h93c8 0 12 -5 11 -13l-127 -676c-1 -8 -6 -11 -13 -11h-85c-7 0 -12 3 -13 11l-67 425c-1 5 -5 5 -6 0l-62 -425c-1 -8 -6 -11 -13 -11h-86z" />
    <glyph glyph-name="Wcircumflex" unicode="&#x174;" horiz-adv-x="665" 
d="M205 760c-9 0 -13 5 -8 14l65 102c3 5 8 8 14 8h98c6 0 11 -3 14 -8l67 -101c5 -8 2 -15 -7 -15h-69c-6 0 -12 3 -15 8l-34 62c-2 3 -4 3 -6 0l-35 -62c-3 -5 -9 -8 -15 -8h-69zM170 0c-7 0 -12 3 -13 11l-133 676c-2 9 2 13 10 13h96c7 0 12 -3 13 -11l70 -417
c1 -4 5 -4 6 0l63 417c1 8 6 11 13 11h80c7 0 12 -3 13 -11l68 -417c1 -4 5 -4 6 0l63 417c1 8 6 11 13 11h93c8 0 12 -5 11 -13l-127 -676c-1 -8 -6 -11 -13 -11h-85c-7 0 -12 3 -13 11l-67 425c-1 5 -5 5 -6 0l-62 -425c-1 -8 -6 -11 -13 -11h-86z" />
    <glyph glyph-name="Wdieresis" unicode="&#x1e84;" horiz-adv-x="665" 
d="M252 766c-35 0 -61 26 -61 63c0 36 26 62 61 62s59 -26 59 -62c0 -37 -24 -63 -59 -63zM407 766c-36 0 -61 26 -61 63c0 36 25 62 61 62c35 0 59 -26 59 -62c0 -37 -24 -63 -59 -63zM170 0c-7 0 -12 3 -13 11l-133 676c-2 9 2 13 10 13h96c7 0 12 -3 13 -11l70 -417
c1 -4 5 -4 6 0l63 417c1 8 6 11 13 11h80c7 0 12 -3 13 -11l68 -417c1 -4 5 -4 6 0l63 417c1 8 6 11 13 11h93c8 0 12 -5 11 -13l-127 -676c-1 -8 -6 -11 -13 -11h-85c-7 0 -12 3 -13 11l-67 425c-1 5 -5 5 -6 0l-62 -425c-1 -8 -6 -11 -13 -11h-86z" />
    <glyph glyph-name="Wgrave" unicode="&#x1e80;" horiz-adv-x="665" 
d="M369 778c5 -9 0 -14 -9 -14h-69c-6 0 -10 1 -14 7l-74 103c-6 8 -2 15 8 15h84c6 0 12 -2 15 -8zM170 0c-7 0 -12 3 -13 11l-133 676c-2 9 2 13 10 13h96c7 0 12 -3 13 -11l70 -417c1 -4 5 -4 6 0l63 417c1 8 6 11 13 11h80c7 0 12 -3 13 -11l68 -417c1 -4 5 -4 6 0
l63 417c1 8 6 11 13 11h93c8 0 12 -5 11 -13l-127 -676c-1 -8 -6 -11 -13 -11h-85c-7 0 -12 3 -13 11l-67 425c-1 5 -5 5 -6 0l-62 -425c-1 -8 -6 -11 -13 -11h-86z" />
    <glyph glyph-name="X" unicode="X" horiz-adv-x="460" 
d="M40 0c-9 0 -12 6 -9 14l137 333c1 3 1 3 0 6l-137 333c-3 8 0 14 9 14h95c7 0 11 -3 13 -10l80 -217c1 -4 5 -4 6 0l79 217c2 6 6 10 13 10h94c9 0 12 -6 9 -14l-137 -333c-1 -3 -1 -3 0 -6l137 -333c3 -8 0 -14 -9 -14h-93c-7 0 -12 3 -14 10l-79 216c-1 4 -5 4 -6 0
l-80 -216c-2 -7 -7 -10 -14 -10h-94z" />
    <glyph glyph-name="Y" unicode="Y" horiz-adv-x="456" 
d="M182 1c-7 0 -12 5 -12 12v273c0 2 0 3 -1 6l-139 394c-3 9 2 14 10 14h96c7 0 12 -4 14 -10l75 -257c1 -4 5 -4 6 0l75 257c2 6 7 10 14 10h96c8 0 13 -5 10 -14l-139 -394c-1 -3 -1 -4 -1 -6v-273c0 -7 -5 -12 -12 -12h-92z" />
    <glyph glyph-name="Yacute" unicode="&#xdd;" horiz-adv-x="456" 
d="M176 763c-9 0 -14 5 -9 14l59 103c3 6 9 8 15 8h84c10 0 14 -7 8 -15l-74 -103c-4 -6 -8 -7 -14 -7h-69zM182 1c-7 0 -12 5 -12 12v273c0 2 0 3 -1 6l-139 394c-3 9 2 14 10 14h96c7 0 12 -4 14 -10l75 -257c1 -4 5 -4 6 0l75 257c2 6 7 10 14 10h96c8 0 13 -5 10 -14
l-139 -394c-1 -3 -1 -4 -1 -6v-273c0 -7 -5 -12 -12 -12h-92z" />
    <glyph glyph-name="Ycircumflex" unicode="&#x176;" horiz-adv-x="456" 
d="M105 759c-9 0 -13 5 -8 14l65 102c3 5 8 8 14 8h98c6 0 11 -3 14 -8l67 -101c5 -8 2 -15 -7 -15h-69c-6 0 -12 3 -15 8l-34 62c-2 3 -4 3 -6 0l-35 -62c-3 -5 -9 -8 -15 -8h-69zM182 1c-7 0 -12 5 -12 12v273c0 2 0 3 -1 6l-139 394c-3 9 2 14 10 14h96c7 0 12 -4 14 -10
l75 -257c1 -4 5 -4 6 0l75 257c2 6 7 10 14 10h96c8 0 13 -5 10 -14l-139 -394c-1 -3 -1 -4 -1 -6v-273c0 -7 -5 -12 -12 -12h-92z" />
    <glyph glyph-name="Ydieresis" unicode="&#x178;" horiz-adv-x="456" 
d="M152 765c-35 0 -61 26 -61 63c0 36 26 62 61 62s59 -26 59 -62c0 -37 -24 -63 -59 -63zM307 765c-36 0 -61 26 -61 63c0 36 25 62 61 62c35 0 59 -26 59 -62c0 -37 -24 -63 -59 -63zM182 1c-7 0 -12 5 -12 12v273c0 2 0 3 -1 6l-139 394c-3 9 2 14 10 14h96
c7 0 12 -4 14 -10l75 -257c1 -4 5 -4 6 0l75 257c2 6 7 10 14 10h96c8 0 13 -5 10 -14l-139 -394c-1 -3 -1 -4 -1 -6v-273c0 -7 -5 -12 -12 -12h-92z" />
    <glyph glyph-name="Ygrave" unicode="&#x1ef2;" horiz-adv-x="456" 
d="M269 777c5 -9 0 -14 -9 -14h-69c-6 0 -10 1 -14 7l-74 103c-6 8 -2 15 8 15h84c6 0 12 -2 15 -8zM182 1c-7 0 -12 5 -12 12v273c0 2 0 3 -1 6l-139 394c-3 9 2 14 10 14h96c7 0 12 -4 14 -10l75 -257c1 -4 5 -4 6 0l75 257c2 6 7 10 14 10h96c8 0 13 -5 10 -14l-139 -394
c-1 -3 -1 -4 -1 -6v-273c0 -7 -5 -12 -12 -12h-92z" />
    <glyph glyph-name="Z" unicode="Z" horiz-adv-x="406" 
d="M37 0c-7 0 -12 5 -12 12v80c0 5 1 10 3 15l224 487c1 3 0 6 -3 6h-212c-7 0 -12 5 -12 12v76c0 7 5 12 12 12h328c7 0 12 -5 12 -12v-80c0 -5 -1 -10 -3 -15l-224 -487c-1 -3 0 -6 3 -6h212c7 0 12 -5 12 -12v-76c0 -7 -5 -12 -12 -12h-328z" />
    <glyph glyph-name="Zacute" unicode="&#x179;" horiz-adv-x="406" 
d="M150 777c-9 0 -14 5 -9 14l59 103c3 6 9 8 15 8h84c10 0 14 -7 8 -15l-74 -103c-4 -6 -8 -7 -14 -7h-69zM37 0c-7 0 -12 5 -12 12v80c0 5 1 10 3 15l224 487c1 3 0 6 -3 6h-212c-7 0 -12 5 -12 12v76c0 7 5 12 12 12h328c7 0 12 -5 12 -12v-80c0 -5 -1 -10 -3 -15
l-224 -487c-1 -3 0 -6 3 -6h212c7 0 12 -5 12 -12v-76c0 -7 -5 -12 -12 -12h-328z" />
    <glyph glyph-name="Zcaron" unicode="&#x17d;" horiz-adv-x="406" 
d="M153 767c-6 0 -11 2 -14 8l-65 103c-5 9 -1 14 8 14h67c6 0 11 -2 14 -8l36 -62c2 -4 5 -4 7 0l35 62c3 5 9 8 15 8h62c9 0 13 -7 8 -15l-67 -102c-3 -5 -8 -8 -14 -8h-92zM37 0c-7 0 -12 5 -12 12v80c0 5 1 10 3 15l224 487c1 3 0 6 -3 6h-212c-7 0 -12 5 -12 12v76
c0 7 5 12 12 12h328c7 0 12 -5 12 -12v-80c0 -5 -1 -10 -3 -15l-224 -487c-1 -3 0 -6 3 -6h212c7 0 12 -5 12 -12v-76c0 -7 -5 -12 -12 -12h-328z" />
    <glyph glyph-name="Zdotaccent" unicode="&#x17b;" horiz-adv-x="406" 
d="M202 771c-33 0 -56 24 -56 58s23 57 56 57s54 -23 54 -57s-21 -58 -54 -58zM37 0c-7 0 -12 5 -12 12v80c0 5 1 10 3 15l224 487c1 3 0 6 -3 6h-212c-7 0 -12 5 -12 12v76c0 7 5 12 12 12h328c7 0 12 -5 12 -12v-80c0 -5 -1 -10 -3 -15l-224 -487c-1 -3 0 -6 3 -6h212
c7 0 12 -5 12 -12v-76c0 -7 -5 -12 -12 -12h-328z" />
    <glyph glyph-name="uni0122" unicode="&#x122;" horiz-adv-x="457" 
d="M230 -8c-113 0 -188 71 -188 181v354c0 110 75 181 188 181s190 -71 190 -182v-39c0 -7 -5 -12 -12 -12h-92c-7 0 -12 5 -12 12v41c0 48 -30 80 -74 80s-73 -32 -73 -80v-356c0 -48 29 -80 73 -80s74 32 74 80v96c0 3 -2 5 -5 5h-61c-7 0 -12 5 -12 12v73c0 7 5 12 12 12
h170c7 0 12 -5 12 -12v-185c0 -110 -77 -181 -190 -181zM162 -187c-9 0 -14 5 -9 14l59 103c3 6 9 8 15 8h84c10 0 14 -7 8 -15l-74 -103c-4 -6 -8 -7 -14 -7h-69z" />
    <glyph glyph-name="uni0136" unicode="&#x136;" horiz-adv-x="477" 
d="M66 0c-7 0 -12 5 -12 12v676c0 7 5 12 12 12h92c7 0 12 -5 12 -12v-276c0 -5 4 -6 6 -2l150 281c3 6 9 9 15 9h99c9 0 12 -6 8 -14l-150 -281c-1 -3 -2 -3 -1 -6l162 -385c3 -8 0 -14 -9 -14h-99c-6 0 -12 3 -14 9l-118 289c-1 4 -5 3 -7 0l-40 -67c-1 -2 -2 -4 -2 -6
v-213c0 -7 -5 -12 -12 -12h-92zM195 -179c-9 0 -14 5 -9 14l59 103c3 6 9 8 15 8h84c10 0 14 -7 8 -15l-74 -103c-4 -6 -8 -7 -14 -7h-69z" />
    <glyph glyph-name="uni0145" unicode="&#x145;" horiz-adv-x="507" 
d="M67 0c-7 0 -12 5 -12 12v676c0 7 5 12 12 12h96c7 0 12 -3 14 -9l155 -407c2 -4 6 -4 6 1v403c0 7 5 12 12 12h91c7 0 12 -5 12 -12v-676c0 -7 -5 -12 -12 -12h-97c-7 0 -12 3 -14 9l-156 408c-2 4 -6 3 -6 -1l1 -404c0 -7 -5 -12 -12 -12h-90zM195 -179
c-9 0 -14 5 -9 14l59 103c3 6 9 8 15 8h84c10 0 14 -7 8 -15l-74 -103c-4 -6 -8 -7 -14 -7h-69z" />
    <glyph glyph-name="uni0156" unicode="&#x156;" horiz-adv-x="461" 
d="M175 302c-3 0 -5 -2 -5 -5v-285c0 -7 -5 -12 -12 -12h-92c-7 0 -12 5 -12 12v677c0 7 5 12 12 12h188c107 0 179 -83 179 -204c0 -83 -34 -146 -91 -176c-3 -1 -4 -3 -3 -6l98 -301c3 -9 -2 -14 -10 -14h-96c-7 0 -11 4 -13 10l-86 288c-1 2 -2 4 -5 4h-52zM236 601h-61
c-3 0 -5 -2 -5 -5v-199c0 -3 2 -5 5 -5h61c48 0 81 39 81 103c0 66 -33 106 -81 106zM174 -179c-9 0 -14 5 -9 14l59 103c3 6 9 8 15 8h84c10 0 14 -7 8 -15l-74 -103c-4 -6 -8 -7 -14 -7h-69z" />
    <glyph glyph-name="uni0162" unicode="&#x162;" horiz-adv-x="452" 
d="M286 600c-3 0 -5 -2 -5 -5v-583c0 -7 -4 -12 -10 -12h-2c-4 0 -5 -3 -2 -6c32 -36 41 -75 33 -112c-15 -69 -87 -65 -124 -55c-7 2 -9 6 -8 14l5 36c1 8 6 10 14 9c17 -3 34 5 39 28c4 27 -12 56 -39 83c-2 2 -4 3 -6 3h-4c-7 0 -12 5 -12 12v583c0 3 -2 5 -5 5h-120
c-7 0 -12 5 -12 12v76c0 7 5 12 12 12h373c7 0 12 -5 12 -12v-76c0 -7 -5 -12 -12 -12h-127z" />
    <glyph glyph-name="uni0218" unicode="&#x218;" horiz-adv-x="440" 
d="M224 -8c-110 0 -184 74 -184 181v28c0 7 5 12 12 12h90c7 0 12 -5 12 -12v-22c0 -53 30 -87 70 -87c41 0 71 32 71 82c0 53 -35 78 -105 130c-76 55 -152 111 -152 223c0 111 74 181 181 181c112 0 186 -75 186 -188v-24c0 -7 -5 -12 -12 -12h-91c-7 0 -12 5 -12 12v26
c0 52 -29 86 -71 86c-38 0 -67 -29 -67 -81c0 -50 27 -75 101 -130c102 -76 157 -119 157 -217c0 -115 -77 -188 -186 -188zM160 -187c-9 0 -14 5 -9 14l59 103c3 6 9 8 15 8h84c10 0 14 -7 8 -15l-74 -103c-4 -6 -8 -7 -14 -7h-69z" />
    <glyph glyph-name="uni021A" unicode="&#x21a;" 
d="M413 700c7 0 12 -5 12 -12v-76c0 -7 -5 -12 -12 -12h-127c-3 0 -5 -2 -5 -5v-583c0 -7 -5 -12 -12 -12h-92c-7 0 -12 5 -12 12v583c0 3 -2 5 -5 5h-120c-7 0 -12 5 -12 12v76c0 7 5 12 12 12h373zM104 -181c-9 0 -14 5 -9 14l59 103c3 6 9 8 15 8h84c10 0 14 -7 8 -15
l-74 -103c-4 -6 -8 -7 -14 -7h-69z" />
    <glyph glyph-name="a" unicode="a" horiz-adv-x="433" 
d="M218 519c104 0 177 -66 177 -167v-340c0 -7 -5 -12 -12 -12h-92c-7 0 -12 5 -12 12v18c0 4 -3 6 -6 2c-24 -27 -59 -40 -101 -40c-57 0 -144 22 -144 151s86 166 195 166h51c3 0 5 2 5 5v26c0 48 -27 79 -63 79c-28 0 -48 -20 -52 -50c-1 -8 -6 -12 -13 -12h-97
c-8 0 -12 4 -11 12c7 91 78 150 175 150zM204 88c37 0 75 24 75 72v57c0 3 -2 5 -5 5h-51c-45 0 -76 -24 -76 -72c0 -43 25 -62 57 -62z" />
    <glyph glyph-name="aacute" unicode="&#xe1;" horiz-adv-x="433" 
d="M315 708c10 0 14 -7 8 -15l-74 -103c-4 -6 -8 -7 -14 -7h-69c-9 0 -14 5 -9 14l59 103c3 6 9 8 15 8h84zM218 519c104 0 177 -66 177 -167v-340c0 -7 -5 -12 -12 -12h-92c-7 0 -12 5 -12 12v18c0 4 -3 6 -6 2c-24 -27 -59 -40 -101 -40c-57 0 -144 22 -144 151
s86 166 195 166h51c3 0 5 2 5 5v26c0 48 -27 79 -63 79c-28 0 -48 -20 -52 -50c-1 -8 -6 -12 -13 -12h-97c-8 0 -12 4 -11 12c7 91 78 150 175 150zM204 88c37 0 75 24 75 72v57c0 3 -2 5 -5 5h-51c-45 0 -76 -24 -76 -72c0 -43 25 -62 57 -62z" />
    <glyph glyph-name="abreve" unicode="&#x103;" horiz-adv-x="433" 
d="M218 560c-64 0 -109 41 -114 102c-1 8 3 12 11 12h39c7 0 12 -4 13 -12c4 -29 24 -49 51 -49c26 0 47 20 51 49c1 8 6 12 13 12h39c8 0 12 -4 11 -12c-5 -61 -51 -102 -114 -102zM218 519c104 0 177 -66 177 -167v-340c0 -7 -5 -12 -12 -12h-92c-7 0 -12 5 -12 12v18
c0 4 -3 6 -6 2c-24 -27 -59 -40 -101 -40c-57 0 -144 22 -144 151s86 166 195 166h51c3 0 5 2 5 5v26c0 48 -27 79 -63 79c-28 0 -48 -20 -52 -50c-1 -8 -6 -12 -13 -12h-97c-8 0 -12 4 -11 12c7 91 78 150 175 150zM204 88c37 0 75 24 75 72v57c0 3 -2 5 -5 5h-51
c-45 0 -76 -24 -76 -72c0 -43 25 -62 57 -62z" />
    <glyph glyph-name="uni01CE" unicode="&#x1ce;" horiz-adv-x="433" 
d="M275 577c-3 -5 -8 -8 -14 -8h-92c-6 0 -11 3 -14 8l-65 102c-5 9 -1 14 8 14h67c6 0 11 -2 14 -8l36 -61c2 -4 5 -4 7 0l35 61c3 5 9 8 15 8h62c9 0 12 -7 7 -15zM218 519c104 0 177 -66 177 -167v-340c0 -7 -5 -12 -12 -12h-92c-7 0 -12 5 -12 12v18c0 4 -3 6 -6 2
c-24 -27 -59 -40 -101 -40c-57 0 -144 22 -144 151s86 166 195 166h51c3 0 5 2 5 5v26c0 48 -27 79 -63 79c-28 0 -48 -20 -52 -50c-1 -8 -6 -12 -13 -12h-97c-8 0 -12 4 -11 12c7 91 78 150 175 150zM204 88c37 0 75 24 75 72v57c0 3 -2 5 -5 5h-51c-45 0 -76 -24 -76 -72
c0 -43 25 -62 57 -62z" />
    <glyph glyph-name="acircumflex" unicode="&#xe2;" horiz-adv-x="433" 
d="M220 649c-2 3 -4 3 -6 0l-35 -62c-3 -5 -9 -8 -15 -8h-69c-9 0 -13 5 -8 14l65 102c3 5 8 8 14 8h98c6 0 11 -3 14 -8l67 -101c5 -8 2 -15 -7 -15h-69c-6 0 -12 3 -15 8zM218 519c104 0 177 -66 177 -167v-340c0 -7 -5 -12 -12 -12h-92c-7 0 -12 5 -12 12v18
c0 4 -3 6 -6 2c-24 -27 -59 -40 -101 -40c-57 0 -144 22 -144 151s86 166 195 166h51c3 0 5 2 5 5v26c0 48 -27 79 -63 79c-28 0 -48 -20 -52 -50c-1 -8 -6 -12 -13 -12h-97c-8 0 -12 4 -11 12c7 91 78 150 175 150zM204 88c37 0 75 24 75 72v57c0 3 -2 5 -5 5h-51
c-45 0 -76 -24 -76 -72c0 -43 25 -62 57 -62z" />
    <glyph glyph-name="adieresis" unicode="&#xe4;" horiz-adv-x="433" 
d="M142 585c-35 0 -61 26 -61 63c0 36 26 62 61 62s59 -26 59 -62c0 -37 -24 -63 -59 -63zM297 585c-36 0 -61 26 -61 63c0 36 25 62 61 62c35 0 59 -26 59 -62c0 -37 -24 -63 -59 -63zM218 519c104 0 177 -66 177 -167v-340c0 -7 -5 -12 -12 -12h-92c-7 0 -12 5 -12 12v18
c0 4 -3 6 -6 2c-24 -27 -59 -40 -101 -40c-57 0 -144 22 -144 151s86 166 195 166h51c3 0 5 2 5 5v26c0 48 -27 79 -63 79c-28 0 -48 -20 -52 -50c-1 -8 -6 -12 -13 -12h-97c-8 0 -12 4 -11 12c7 91 78 150 175 150zM204 88c37 0 75 24 75 72v57c0 3 -2 5 -5 5h-51
c-45 0 -76 -24 -76 -72c0 -43 25 -62 57 -62z" />
    <glyph glyph-name="agrave" unicode="&#xe0;" horiz-adv-x="433" 
d="M259 597c5 -9 0 -14 -9 -14h-69c-6 0 -10 1 -14 7l-74 103c-6 8 -2 15 8 15h84c6 0 12 -2 15 -8zM218 519c104 0 177 -66 177 -167v-340c0 -7 -5 -12 -12 -12h-92c-7 0 -12 5 -12 12v18c0 4 -3 6 -6 2c-24 -27 -59 -40 -101 -40c-57 0 -144 22 -144 151s86 166 195 166
h51c3 0 5 2 5 5v26c0 48 -27 79 -63 79c-28 0 -48 -20 -52 -50c-1 -8 -6 -12 -13 -12h-97c-8 0 -12 4 -11 12c7 91 78 150 175 150zM204 88c37 0 75 24 75 72v57c0 3 -2 5 -5 5h-51c-45 0 -76 -24 -76 -72c0 -43 25 -62 57 -62z" />
    <glyph glyph-name="amacron" unicode="&#x101;" horiz-adv-x="433" 
d="M310 674c7 0 12 -5 12 -12v-56c0 -7 -5 -12 -12 -12h-190c-7 0 -12 5 -12 12v56c0 7 5 12 12 12h190zM218 519c104 0 177 -66 177 -167v-340c0 -7 -5 -12 -12 -12h-92c-7 0 -12 5 -12 12v18c0 4 -3 6 -6 2c-24 -27 -59 -40 -101 -40c-57 0 -144 22 -144 151
s86 166 195 166h51c3 0 5 2 5 5v26c0 48 -27 79 -63 79c-28 0 -48 -20 -52 -50c-1 -8 -6 -12 -13 -12h-97c-8 0 -12 4 -11 12c7 91 78 150 175 150zM204 88c37 0 75 24 75 72v57c0 3 -2 5 -5 5h-51c-45 0 -76 -24 -76 -72c0 -43 25 -62 57 -62z" />
    <glyph glyph-name="aogonek" unicode="&#x105;" horiz-adv-x="600" 
d="M380 -124c8 1 13 -1 14 -9l5 -36c1 -8 -1 -12 -8 -14c-37 -10 -109 -14 -124 55c-9 40 3 82 42 122c4 3 2 6 -2 6h-16c-7 0 -12 5 -12 12v18c0 4 -3 6 -6 2c-24 -27 -59 -40 -101 -40c-57 0 -144 22 -144 151s86 166 195 166h51c3 0 5 2 5 5v26c0 48 -27 79 -63 79
c-28 0 -48 -20 -52 -50c-1 -8 -6 -12 -13 -12h-97c-8 0 -12 4 -11 12c7 91 78 150 175 150c104 0 177 -66 177 -167v-343v-9h-1c-36 -31 -58 -65 -53 -96c5 -24 22 -31 39 -28zM204 88c37 0 75 24 75 72v57c0 3 -2 5 -5 5h-51c-45 0 -76 -24 -76 -72c0 -43 25 -62 57 -62z
" />
    <glyph glyph-name="aring" unicode="&#xe5;" horiz-adv-x="433" 
d="M218 573c-60 0 -107 48 -107 109c0 60 47 107 107 107s107 -47 107 -107c0 -61 -47 -109 -107 -109zM218 736c-29 0 -52 -24 -52 -54s23 -54 52 -54s52 24 52 54s-23 54 -52 54zM218 519c104 0 177 -66 177 -167v-340c0 -7 -5 -12 -12 -12h-92c-7 0 -12 5 -12 12v18
c0 4 -3 6 -6 2c-24 -27 -59 -40 -101 -40c-57 0 -144 22 -144 151s86 166 195 166h51c3 0 5 2 5 5v26c0 48 -27 79 -63 79c-28 0 -48 -20 -52 -50c-1 -8 -6 -12 -13 -12h-97c-8 0 -12 4 -11 12c7 91 78 150 175 150zM204 88c37 0 75 24 75 72v57c0 3 -2 5 -5 5h-51
c-45 0 -76 -24 -76 -72c0 -43 25 -62 57 -62z" />
    <glyph glyph-name="atilde" unicode="&#xe3;" horiz-adv-x="433" 
d="M186 631c-14 0 -27 -5 -38 -23c-5 -7 -11 -8 -17 -4l-32 24c-5 4 -8 9 -5 16c19 44 50 62 83 62c24 0 43 -10 62 -22c13 -9 25 -20 43 -20c13 0 27 5 38 23c4 7 9 9 16 4l32 -21c6 -4 8 -9 4 -16c-22 -47 -61 -61 -89 -61c-19 0 -35 8 -54 19c-18 11 -26 19 -43 19z
M218 519c104 0 177 -66 177 -167v-340c0 -7 -5 -12 -12 -12h-92c-7 0 -12 5 -12 12v18c0 4 -3 6 -6 2c-24 -27 -59 -40 -101 -40c-57 0 -144 22 -144 151s86 166 195 166h51c3 0 5 2 5 5v26c0 48 -27 79 -63 79c-28 0 -48 -20 -52 -50c-1 -8 -6 -12 -13 -12h-97
c-8 0 -12 4 -11 12c7 91 78 150 175 150zM204 88c37 0 75 24 75 72v57c0 3 -2 5 -5 5h-51c-45 0 -76 -24 -76 -72c0 -43 25 -62 57 -62z" />
    <glyph glyph-name="ae" unicode="&#xe6;" horiz-adv-x="672" 
d="M174 -8c-61 0 -146 18 -146 150c0 124 75 157 185 157h59c3 0 5 2 5 5v36c0 48 -22 79 -63 79c-30 0 -57 -19 -62 -49c-1 -8 -6 -12 -13 -12l-92 3c-7 0 -12 4 -11 12c7 92 82 146 175 146c54 0 91 -19 120 -55c2 -2 4 -2 7 0c28 34 70 55 127 55c105 0 174 -66 174 -162
v-134c0 -7 -5 -12 -12 -12h-223c-3 0 -5 -2 -5 -5v-43c0 -36 26 -66 63 -66c31 0 51 23 59 48c3 7 7 11 14 10l90 -10c7 -1 12 -5 11 -13c-10 -89 -70 -140 -166 -140c-71 0 -122 33 -134 63c-1 4 -2 5 -3 3c-15 -36 -78 -66 -159 -66zM399 304c0 -3 2 -5 5 -5h114
c3 0 5 2 5 5v44c0 42 -25 71 -61 71c-37 0 -63 -29 -63 -71v-44zM204 82c36 0 73 23 73 66v57c0 3 -2 5 -5 5h-51c-44 0 -76 -23 -76 -66s27 -62 59 -62z" />
    <glyph glyph-name="b" unicode="b" horiz-adv-x="437" 
d="M260 519c86 0 137 -61 139 -161v-204c-2 -97 -51 -162 -139 -162c-30 0 -65 9 -92 38c-3 3 -6 2 -6 -2v-16c0 -7 -5 -12 -12 -12h-92c-7 0 -12 5 -12 12v676c0 7 5 12 12 12h92c7 0 12 -5 12 -12v-205c0 -4 4 -4 8 0c26 28 61 36 90 36zM284 346c0 44 -25 73 -61 73
s-61 -29 -61 -73v-181c0 -44 25 -73 61 -73s61 30 61 73v181z" />
    <glyph glyph-name="c" unicode="c" horiz-adv-x="422" 
d="M215 -8c-110 0 -177 63 -177 163v202c0 96 67 162 177 162c111 0 178 -66 178 -154v-14c0 -7 -5 -12 -12 -12l-92 -4c-8 0 -12 4 -12 11v11c0 33 -25 62 -62 62c-36 0 -61 -29 -61 -71v-185c0 -42 25 -71 61 -71c37 0 62 29 62 63v10c0 7 5 12 12 12l92 -1
c7 0 12 -5 12 -12v-18c0 -91 -67 -154 -178 -154z" />
    <glyph glyph-name="cacute" unicode="&#x107;" horiz-adv-x="422" 
d="M163 586c-9 0 -14 5 -9 14l59 103c3 6 9 8 15 8h84c10 0 14 -7 8 -15l-74 -103c-4 -6 -8 -7 -14 -7h-69zM215 -8c-110 0 -177 63 -177 163v202c0 96 67 162 177 162c111 0 178 -66 178 -154v-14c0 -7 -5 -12 -12 -12l-92 -4c-8 0 -12 4 -12 11v11c0 33 -25 62 -62 62
c-36 0 -61 -29 -61 -71v-185c0 -42 25 -71 61 -71c37 0 62 29 62 63v10c0 7 5 12 12 12l92 -1c7 0 12 -5 12 -12v-18c0 -91 -67 -154 -178 -154z" />
    <glyph glyph-name="ccaron" unicode="&#x10d;" horiz-adv-x="422" 
d="M166 576c-6 0 -11 2 -14 8l-65 103c-5 9 -1 14 8 14h67c6 0 11 -2 14 -8l36 -62c2 -4 5 -4 7 0l35 62c3 5 9 8 15 8h62c9 0 13 -7 8 -15l-67 -102c-3 -5 -8 -8 -14 -8h-92zM215 -8c-110 0 -177 63 -177 163v202c0 96 67 162 177 162c111 0 178 -66 178 -154v-14
c0 -7 -5 -12 -12 -12l-92 -4c-8 0 -12 4 -12 11v11c0 33 -25 62 -62 62c-36 0 -61 -29 -61 -71v-185c0 -42 25 -71 61 -71c37 0 62 29 62 63v10c0 7 5 12 12 12l92 -1c7 0 12 -5 12 -12v-18c0 -91 -67 -154 -178 -154z" />
    <glyph glyph-name="ccedilla" unicode="&#xe7;" horiz-adv-x="422" 
d="M393 351c0 -7 -5 -12 -12 -12l-92 -4c-8 0 -12 4 -12 11v11c0 33 -25 62 -62 62c-36 0 -61 -29 -61 -71v-185c0 -42 25 -71 61 -71c37 0 62 29 62 63v10c0 7 5 12 12 12l92 -1c7 0 12 -5 12 -12v-18c0 -78 -49 -135 -132 -150c-4 -1 -5 -3 -2 -6c33 -38 42 -77 34 -114
c-15 -69 -87 -65 -124 -55c-7 2 -9 6 -8 14l5 36c1 8 6 10 14 9c17 -3 34 5 39 28c5 27 -12 56 -41 85c-1 1 -3 2 -5 3c-85 14 -135 72 -135 159v202c0 96 67 162 177 162c111 0 178 -66 178 -154v-14z" />
    <glyph glyph-name="cdotaccent" unicode="&#x10b;" horiz-adv-x="422" 
d="M215 580c-33 0 -56 24 -56 58s23 57 56 57s54 -23 54 -57s-21 -58 -54 -58zM215 -8c-110 0 -177 63 -177 163v202c0 96 67 162 177 162c111 0 178 -66 178 -154v-14c0 -7 -5 -12 -12 -12l-92 -4c-8 0 -12 4 -12 11v11c0 33 -25 62 -62 62c-36 0 -61 -29 -61 -71v-185
c0 -42 25 -71 61 -71c37 0 62 29 62 63v10c0 7 5 12 12 12l92 -1c7 0 12 -5 12 -12v-18c0 -91 -67 -154 -178 -154z" />
    <glyph glyph-name="d" unicode="d" horiz-adv-x="437" 
d="M275 688c0 7 5 12 12 12h92c7 0 12 -5 12 -12v-676c0 -7 -5 -12 -12 -12h-92c-7 0 -12 5 -12 12v16c0 4 -3 5 -6 2c-27 -29 -62 -38 -92 -38c-88 0 -137 65 -139 162v204c2 100 53 161 139 161c30 0 65 -9 92 -38c3 -3 6 -2 6 2v205zM214 92c36 0 61 29 61 73v181
c0 44 -25 73 -61 73s-61 -29 -61 -73v-181c0 -43 25 -73 61 -73z" />
    <glyph glyph-name="eth" unicode="&#xf0;" horiz-adv-x="443" 
d="M402 618c2 -7 -2 -13 -9 -15l-58 -16c-3 -1 -5 -3 -3 -6c37 -68 61 -145 63 -247v-179c0 -100 -67 -163 -179 -163c-111 0 -178 63 -178 163v179c0 96 69 163 159 163c35 0 54 -10 68 -23c3 -3 4 -3 3 1c-7 27 -18 54 -33 82c-1 3 -3 4 -6 3l-74 -19c-7 -2 -13 2 -15 9
l-7 26c-2 7 2 13 9 15l57 15c3 1 5 4 3 7c-16 23 -33 48 -52 72c-7 8 -3 15 7 15h86c6 0 11 -2 15 -7c13 -19 27 -37 40 -55c1 -3 4 -4 6 -3l76 21c7 2 13 -2 15 -9zM279 325c0 42 -26 71 -63 71s-62 -29 -62 -71v-162c0 -42 25 -71 62 -71s63 29 63 71v162z" />
    <glyph glyph-name="dcaron" unicode="&#x10f;" horiz-adv-x="611" 
d="M269 481c3 -3 6 -2 6 2v205c0 7 5 12 12 12h92c7 0 12 -5 12 -12v-676c0 -7 -5 -12 -12 -12h-92c-7 0 -12 5 -12 12v16c0 4 -3 5 -6 2c-27 -29 -62 -38 -92 -38c-88 0 -137 65 -139 162v204c2 100 53 161 139 161c30 0 65 -9 92 -38zM494 692c3 6 9 8 15 8h84
c10 0 14 -7 8 -15l-74 -103c-4 -6 -8 -7 -14 -7h-69c-9 0 -14 5 -9 14zM214 92c36 0 61 29 61 73v181c0 44 -25 73 -61 73s-61 -29 -61 -73v-181c0 -43 25 -73 61 -73z" />
    <glyph glyph-name="dcroat" unicode="&#x111;" horiz-adv-x="600" 
d="M430 631c7 0 12 -5 12 -12v-47c0 -7 -5 -12 -12 -12h-34c-3 0 -5 -2 -5 -5v-543c0 -7 -5 -12 -12 -12h-92c-7 0 -12 5 -12 12v16c0 4 -3 5 -6 2c-27 -29 -62 -38 -92 -38c-88 0 -137 65 -139 162v204c2 100 53 161 139 161c30 0 65 -9 92 -38c3 -3 6 -2 6 2v72
c0 3 -2 5 -5 5h-105c-7 0 -12 5 -12 12v47c0 7 5 12 12 12h105c3 0 5 2 5 5v52c0 7 5 12 12 12h92c7 0 12 -5 12 -12v-52c0 -3 2 -5 5 -5h34zM214 92c36 0 61 29 61 73v181c0 44 -25 73 -61 73s-61 -29 -61 -73v-181c0 -43 25 -73 61 -73z" />
    <glyph glyph-name="e" unicode="e" horiz-adv-x="426" 
d="M393 224c0 -7 -5 -12 -12 -12h-222c-3 0 -5 -2 -5 -5v-44c0 -42 25 -72 61 -72c32 0 54 24 61 53c2 7 6 11 13 10l90 -6c7 -1 12 -5 11 -13c-10 -89 -69 -143 -175 -143c-110 0 -177 62 -177 162v203c0 96 67 162 177 162c111 0 178 -66 178 -162v-133zM215 419
c-36 0 -61 -29 -61 -71v-44c0 -3 2 -5 5 -5h113c3 0 5 2 5 5v44c0 42 -25 71 -62 71z" />
    <glyph glyph-name="eacute" unicode="&#xe9;" horiz-adv-x="426" 
d="M312 708c10 0 14 -7 8 -15l-74 -103c-4 -6 -8 -7 -14 -7h-69c-9 0 -14 5 -9 14l59 103c3 6 9 8 15 8h84zM393 224c0 -7 -5 -12 -12 -12h-222c-3 0 -5 -2 -5 -5v-44c0 -42 25 -72 61 -72c32 0 54 24 61 53c2 7 6 11 13 10l90 -6c7 -1 12 -5 11 -13
c-10 -89 -69 -143 -175 -143c-110 0 -177 62 -177 162v203c0 96 67 162 177 162c111 0 178 -66 178 -162v-133zM215 419c-36 0 -61 -29 -61 -71v-44c0 -3 2 -5 5 -5h113c3 0 5 2 5 5v44c0 42 -25 71 -62 71z" />
    <glyph glyph-name="ecaron" unicode="&#x11b;" horiz-adv-x="426" 
d="M272 577c-3 -5 -8 -8 -14 -8h-92c-6 0 -11 3 -14 8l-65 102c-5 9 -1 14 8 14h67c6 0 11 -2 14 -8l36 -61c2 -4 5 -4 7 0l35 61c3 5 9 8 15 8h62c9 0 12 -7 7 -15zM393 224c0 -7 -5 -12 -12 -12h-222c-3 0 -5 -2 -5 -5v-44c0 -42 25 -72 61 -72c32 0 54 24 61 53
c2 7 6 11 13 10l90 -6c7 -1 12 -5 11 -13c-10 -89 -69 -143 -175 -143c-110 0 -177 62 -177 162v203c0 96 67 162 177 162c111 0 178 -66 178 -162v-133zM215 419c-36 0 -61 -29 -61 -71v-44c0 -3 2 -5 5 -5h113c3 0 5 2 5 5v44c0 42 -25 71 -62 71z" />
    <glyph glyph-name="uni0229" unicode="&#x229;" horiz-adv-x="426" 
d="M393 224c0 -7 -5 -12 -12 -12h-222c-3 0 -5 -2 -5 -5v-44c0 -42 25 -72 61 -72c32 0 54 24 61 53c2 7 6 11 13 10l90 -6c7 -1 12 -5 11 -13c-9 -75 -51 -126 -129 -139c-4 -1 -5 -3 -2 -6c33 -38 42 -77 34 -114c-15 -69 -87 -65 -124 -55c-7 2 -9 6 -8 14l5 36
c1 8 6 10 14 9c17 -3 34 5 39 28c5 27 -12 56 -41 85c-1 1 -3 2 -5 3c-85 14 -135 71 -135 158v203c0 96 67 162 177 162c111 0 178 -66 178 -162v-133zM215 419c-36 0 -61 -29 -61 -71v-44c0 -3 2 -5 5 -5h113c3 0 5 2 5 5v44c0 42 -25 71 -62 71z" />
    <glyph glyph-name="ecircumflex" unicode="&#xea;" horiz-adv-x="426" 
d="M217 649c-2 3 -4 3 -6 0l-35 -62c-3 -5 -9 -8 -15 -8h-69c-9 0 -13 5 -8 14l65 102c3 5 8 8 14 8h98c6 0 11 -3 14 -8l67 -101c5 -8 2 -15 -7 -15h-69c-6 0 -12 3 -15 8zM393 224c0 -7 -5 -12 -12 -12h-222c-3 0 -5 -2 -5 -5v-44c0 -42 25 -72 61 -72c32 0 54 24 61 53
c2 7 6 11 13 10l90 -6c7 -1 12 -5 11 -13c-10 -89 -69 -143 -175 -143c-110 0 -177 62 -177 162v203c0 96 67 162 177 162c111 0 178 -66 178 -162v-133zM215 419c-36 0 -61 -29 -61 -71v-44c0 -3 2 -5 5 -5h113c3 0 5 2 5 5v44c0 42 -25 71 -62 71z" />
    <glyph glyph-name="edieresis" unicode="&#xeb;" horiz-adv-x="426" 
d="M139 585c-35 0 -61 26 -61 63c0 36 26 62 61 62s59 -26 59 -62c0 -37 -24 -63 -59 -63zM294 585c-36 0 -61 26 -61 63c0 36 25 62 61 62c35 0 59 -26 59 -62c0 -37 -24 -63 -59 -63zM393 224c0 -7 -5 -12 -12 -12h-222c-3 0 -5 -2 -5 -5v-44c0 -42 25 -72 61 -72
c32 0 54 24 61 53c2 7 6 11 13 10l90 -6c7 -1 12 -5 11 -13c-10 -89 -69 -143 -175 -143c-110 0 -177 62 -177 162v203c0 96 67 162 177 162c111 0 178 -66 178 -162v-133zM215 419c-36 0 -61 -29 -61 -71v-44c0 -3 2 -5 5 -5h113c3 0 5 2 5 5v44c0 42 -25 71 -62 71z" />
    <glyph glyph-name="edotaccent" unicode="&#x117;" horiz-adv-x="426" 
d="M215 577c-33 0 -56 24 -56 58s23 57 56 57s54 -23 54 -57s-21 -58 -54 -58zM393 224c0 -7 -5 -12 -12 -12h-222c-3 0 -5 -2 -5 -5v-44c0 -42 25 -72 61 -72c32 0 54 24 61 53c2 7 6 11 13 10l90 -6c7 -1 12 -5 11 -13c-10 -89 -69 -143 -175 -143
c-110 0 -177 62 -177 162v203c0 96 67 162 177 162c111 0 178 -66 178 -162v-133zM215 419c-36 0 -61 -29 -61 -71v-44c0 -3 2 -5 5 -5h113c3 0 5 2 5 5v44c0 42 -25 71 -62 71z" />
    <glyph glyph-name="egrave" unicode="&#xe8;" horiz-adv-x="426" 
d="M256 597c5 -9 0 -14 -9 -14h-69c-6 0 -10 1 -14 7l-74 103c-6 8 -2 15 8 15h84c6 0 12 -2 15 -8zM393 224c0 -7 -5 -12 -12 -12h-222c-3 0 -5 -2 -5 -5v-44c0 -42 25 -72 61 -72c32 0 54 24 61 53c2 7 6 11 13 10l90 -6c7 -1 12 -5 11 -13c-10 -89 -69 -143 -175 -143
c-110 0 -177 62 -177 162v203c0 96 67 162 177 162c111 0 178 -66 178 -162v-133zM215 419c-36 0 -61 -29 -61 -71v-44c0 -3 2 -5 5 -5h113c3 0 5 2 5 5v44c0 42 -25 71 -62 71z" />
    <glyph glyph-name="emacron" unicode="&#x113;" horiz-adv-x="426" 
d="M307 674c7 0 12 -5 12 -12v-56c0 -7 -5 -12 -12 -12h-190c-7 0 -12 5 -12 12v56c0 7 5 12 12 12h190zM393 224c0 -7 -5 -12 -12 -12h-222c-3 0 -5 -2 -5 -5v-44c0 -42 25 -72 61 -72c32 0 54 24 61 53c2 7 6 11 13 10l90 -6c7 -1 12 -5 11 -13
c-10 -89 -69 -143 -175 -143c-110 0 -177 62 -177 162v203c0 96 67 162 177 162c111 0 178 -66 178 -162v-133zM215 419c-36 0 -61 -29 -61 -71v-44c0 -3 2 -5 5 -5h113c3 0 5 2 5 5v44c0 42 -25 71 -62 71z" />
    <glyph glyph-name="eogonek" unicode="&#x119;" horiz-adv-x="426" 
d="M393 224c0 -7 -5 -12 -12 -12h-222c-3 0 -5 -2 -5 -5v-44c0 -42 25 -72 61 -72c32 0 54 24 61 53c2 7 6 11 13 10l90 -6c7 -1 12 -5 11 -13c-9 -75 -52 -126 -129 -139l-6 -3c-31 -29 -50 -61 -45 -89c5 -24 22 -31 39 -28c8 1 13 -1 14 -9l5 -36c1 -8 -1 -12 -8 -14
c-37 -10 -109 -14 -124 55c-9 38 2 79 38 117c3 3 2 5 -2 6c-84 15 -134 72 -134 159v203c0 96 67 162 177 162c111 0 178 -66 178 -162v-133zM215 419c-36 0 -61 -29 -61 -71v-44c0 -3 2 -5 5 -5h113c3 0 5 2 5 5v44c0 42 -25 71 -62 71z" />
    <glyph glyph-name="f" unicode="f" horiz-adv-x="290" 
d="M253 511c7 0 12 -5 12 -12v-59c0 -7 -5 -12 -12 -12h-62c-3 0 -5 -2 -5 -5v-411c0 -7 -5 -12 -12 -12h-91c-7 0 -12 5 -12 12v411c0 3 -2 5 -5 5h-32c-7 0 -12 5 -12 12v59c0 7 5 12 12 12h32c3 0 5 2 5 5v25c0 122 54 164 172 163h8c7 0 12 -5 12 -12l-2 -68
c0 -7 -3 -12 -8 -12h-9c-40 -1 -58 -25 -58 -76v-20c0 -3 2 -5 5 -5h62z" />
    <glyph glyph-name="g" unicode="g" horiz-adv-x="431" 
d="M275 499c0 7 5 12 12 12h92c7 0 12 -5 12 -12v-480c0 -138 -51 -236 -257 -224c-8 1 -12 6 -12 13v77c0 8 5 12 13 11c118 -3 140 48 140 134v11c0 4 -3 5 -6 1c-26 -34 -63 -43 -94 -43c-91 0 -137 64 -137 162v196c0 101 48 162 137 162c32 0 69 -10 94 -43
c3 -4 6 -3 6 1v22zM215 99c36 0 60 29 60 70v179c0 42 -24 71 -60 71s-61 -29 -61 -71v-179c0 -41 25 -70 61 -70z" />
    <glyph glyph-name="gbreve" unicode="&#x11f;" horiz-adv-x="431" 
d="M216 556c-64 0 -109 41 -114 102c-1 8 3 12 11 12h39c7 0 12 -4 13 -12c4 -29 24 -49 51 -49c26 0 47 20 51 49c1 8 6 12 13 12h39c8 0 12 -4 11 -12c-5 -61 -51 -102 -114 -102zM275 499c0 7 5 12 12 12h92c7 0 12 -5 12 -12v-480c0 -138 -51 -236 -257 -224
c-8 1 -12 6 -12 13v77c0 8 5 12 13 11c118 -3 140 48 140 134v11c0 4 -3 5 -6 1c-26 -34 -63 -43 -94 -43c-91 0 -137 64 -137 162v196c0 101 48 162 137 162c32 0 69 -10 94 -43c3 -4 6 -3 6 1v22zM215 99c36 0 60 29 60 70v179c0 42 -24 71 -60 71s-61 -29 -61 -71v-179
c0 -41 25 -70 61 -70z" />
    <glyph glyph-name="gdotaccent" unicode="&#x121;" horiz-adv-x="431" 
d="M216 573c-33 0 -56 24 -56 58s23 57 56 57s54 -23 54 -57s-21 -58 -54 -58zM275 499c0 7 5 12 12 12h92c7 0 12 -5 12 -12v-480c0 -138 -51 -236 -257 -224c-8 1 -12 6 -12 13v77c0 8 5 12 13 11c118 -3 140 48 140 134v11c0 4 -3 5 -6 1c-26 -34 -63 -43 -94 -43
c-91 0 -137 64 -137 162v196c0 101 48 162 137 162c32 0 69 -10 94 -43c3 -4 6 -3 6 1v22zM215 99c36 0 60 29 60 70v179c0 42 -24 71 -60 71s-61 -29 -61 -71v-179c0 -41 25 -70 61 -70z" />
    <glyph glyph-name="h" unicode="h" 
d="M265 519c87 0 132 -62 132 -167v-340c0 -7 -5 -12 -12 -12h-92c-7 0 -12 5 -12 12v331c0 48 -21 76 -58 76c-38 0 -61 -29 -61 -79v-328c0 -7 -5 -12 -12 -12h-92c-7 0 -12 5 -12 12v676c0 7 5 12 12 12h92c7 0 12 -5 12 -12v-209c0 -4 4 -5 8 0c26 31 62 40 95 40z" />
    <glyph glyph-name="hbar" unicode="&#x127;" 
d="M265 519c87 0 132 -62 132 -167v-340c0 -7 -5 -12 -12 -12h-92c-7 0 -12 5 -12 12v331c0 48 -21 76 -58 76c-38 0 -61 -29 -61 -79v-328c0 -7 -5 -12 -12 -12h-92c-7 0 -12 5 -12 12v534c0 3 -2 5 -5 5h-35c-7 0 -12 5 -12 12v47c0 7 5 12 12 12h35c3 0 5 2 5 5v61
c0 7 5 12 12 12h92c7 0 12 -5 12 -12v-61c0 -3 2 -5 5 -5h104c7 0 12 -5 12 -12v-47c0 -7 -5 -12 -12 -12h-104c-3 0 -5 -2 -5 -5v-67c0 -4 4 -5 8 0c26 31 62 40 95 40z" />
    <glyph glyph-name="i" unicode="i" horiz-adv-x="218" 
d="M109 575c-41 0 -70 29 -70 72s29 72 70 72c42 0 70 -29 70 -72s-28 -72 -70 -72zM63 0c-7 0 -12 5 -12 12v487c0 7 5 12 12 12h92c7 0 12 -5 12 -12v-487c0 -7 -5 -12 -12 -12h-92z" />
    <glyph glyph-name="dotlessi" unicode="&#x131;" horiz-adv-x="207" 
d="M56 0c-7 0 -12 5 -12 12v487c0 7 5 12 12 12h92c7 0 12 -5 12 -12v-487c0 -7 -5 -12 -12 -12h-92z" />
    <glyph glyph-name="iacute" unicode="&#xed;" horiz-adv-x="207" 
d="M50 587c-9 0 -14 5 -9 14l59 103c3 6 9 8 15 8h84c10 0 14 -7 8 -15l-74 -103c-4 -6 -8 -7 -14 -7h-69zM56 0c-7 0 -12 5 -12 12v487c0 7 5 12 12 12h92c7 0 12 -5 12 -12v-487c0 -7 -5 -12 -12 -12h-92z" />
    <glyph glyph-name="icircumflex" unicode="&#xee;" horiz-adv-x="207" 
d="M-21 583c-9 0 -13 5 -8 14l65 102c3 5 8 8 14 8h98c6 0 11 -3 14 -8l67 -101c5 -8 2 -15 -7 -15h-69c-6 0 -12 3 -15 8l-34 62c-2 3 -4 3 -6 0l-35 -62c-3 -5 -9 -8 -15 -8h-69zM56 0c-7 0 -12 5 -12 12v487c0 7 5 12 12 12h92c7 0 12 -5 12 -12v-487
c0 -7 -5 -12 -12 -12h-92z" />
    <glyph glyph-name="idieresis" unicode="&#xef;" horiz-adv-x="207" 
d="M26 589c-35 0 -61 26 -61 63c0 36 26 62 61 62s59 -26 59 -62c0 -37 -24 -63 -59 -63zM181 589c-36 0 -61 26 -61 63c0 36 25 62 61 62c35 0 59 -26 59 -62c0 -37 -24 -63 -59 -63zM56 0c-7 0 -12 5 -12 12v487c0 7 5 12 12 12h92c7 0 12 -5 12 -12v-487
c0 -7 -5 -12 -12 -12h-92z" />
    <glyph glyph-name="i.loclTRK" horiz-adv-x="207" 
d="M102 581c-33 0 -56 24 -56 58s23 57 56 57s54 -23 54 -57s-21 -58 -54 -58zM56 0c-7 0 -12 5 -12 12v487c0 7 5 12 12 12h92c7 0 12 -5 12 -12v-487c0 -7 -5 -12 -12 -12h-92z" />
    <glyph glyph-name="igrave" unicode="&#xec;" horiz-adv-x="207" 
d="M143 601c5 -9 0 -14 -9 -14h-69c-6 0 -10 1 -14 7l-74 103c-6 8 -2 15 8 15h84c6 0 12 -2 15 -8zM56 0c-7 0 -12 5 -12 12v487c0 7 5 12 12 12h92c7 0 12 -5 12 -12v-487c0 -7 -5 -12 -12 -12h-92z" />
    <glyph glyph-name="ij" unicode="&#x133;" horiz-adv-x="420" 
d="M316 576c-42 0 -70 31 -70 72s33 72 70 72c36 0 70 -31 70 -72s-29 -72 -70 -72zM109 575c-41 0 -70 29 -70 72s29 72 70 72c42 0 70 -29 70 -72s-28 -72 -70 -72zM63 0c-7 0 -12 5 -12 12v487c0 7 5 12 12 12h92c7 0 12 -5 12 -12v-487c0 -7 -5 -12 -12 -12h-92z
M177 -205c-8 0 -12 5 -12 12v75c0 7 4 12 12 12c61 1 81 36 81 90v515c0 7 5 12 12 12h92c7 0 12 -5 12 -12v-515c0 -118 -19 -191 -197 -189z" />
    <glyph glyph-name="imacron" unicode="&#x12b;" horiz-adv-x="207" 
d="M4 598c-7 0 -12 5 -12 12v56c0 7 5 12 12 12h190c7 0 12 -5 12 -12v-56c0 -7 -5 -12 -12 -12h-190zM56 0c-7 0 -12 5 -12 12v487c0 7 5 12 12 12h92c7 0 12 -5 12 -12v-487c0 -7 -5 -12 -12 -12h-92z" />
    <glyph glyph-name="iogonek" unicode="&#x12f;" horiz-adv-x="227" 
d="M120 580c-33 0 -56 24 -56 58s23 57 56 57s54 -23 54 -57s-21 -58 -54 -58zM163 -124c8 1 13 -1 14 -9l5 -36c1 -8 -1 -12 -8 -14c-37 -10 -109 -14 -124 55c-9 40 3 82 42 122c4 3 2 6 -2 6h-16c-7 0 -12 5 -12 12v487c0 7 5 12 12 12h92c7 0 12 -5 12 -12v-490v-9h-1
c-36 -31 -58 -65 -53 -96c5 -24 22 -31 39 -28z" />
    <glyph glyph-name="j" unicode="j" horiz-adv-x="208" 
d="M104 576c-42 0 -70 31 -70 72s33 72 70 72c36 0 70 -31 70 -72s-29 -72 -70 -72zM-35 -205c-8 0 -12 5 -12 12v75c0 7 4 12 12 12c61 1 81 36 81 90v515c0 7 5 12 12 12h92c7 0 12 -5 12 -12v-515c0 -118 -19 -191 -197 -189z" />
    <glyph glyph-name="k" unicode="k" horiz-adv-x="433" 
d="M58 0c-7 0 -12 5 -12 12v676c0 7 5 12 12 12h92c7 0 12 -5 12 -12v-356c0 -5 4 -5 6 -1l109 172c3 6 8 8 14 8h96c9 0 12 -7 7 -15l-104 -157c-1 -2 -2 -5 -1 -7l120 -318c3 -9 -1 -14 -10 -14h-95c-7 0 -11 4 -13 10l-74 226c-1 4 -4 5 -6 1l-47 -70c-1 -2 -2 -4 -2 -6
v-149c0 -7 -5 -12 -12 -12h-92z" />
    <glyph glyph-name="l" unicode="l" horiz-adv-x="199" 
d="M54 0c-7 0 -12 5 -12 12v676c0 7 5 12 12 12h92c7 0 12 -5 12 -12v-676c0 -7 -5 -12 -12 -12h-92z" />
    <glyph glyph-name="lacute" unicode="&#x13a;" horiz-adv-x="199" 
d="M49 764c-9 0 -14 5 -9 14l59 103c3 6 9 8 15 8h84c10 0 14 -7 8 -15l-74 -103c-4 -6 -8 -7 -14 -7h-69zM54 0c-7 0 -12 5 -12 12v676c0 7 5 12 12 12h92c7 0 12 -5 12 -12v-676c0 -7 -5 -12 -12 -12h-92z" />
    <glyph glyph-name="lcaron" unicode="&#x13e;" horiz-adv-x="199" 
d="M52 750c-6 0 -11 3 -14 8l-65 102c-5 9 -1 14 8 14h67c6 0 11 -2 14 -8l36 -61c2 -4 5 -4 7 0l35 61c3 5 9 8 15 8h62c9 0 13 -7 8 -15l-67 -101c-3 -5 -8 -8 -14 -8h-92zM54 0c-7 0 -12 5 -12 12v676c0 7 5 12 12 12h92c7 0 12 -5 12 -12v-676c0 -7 -5 -12 -12 -12h-92z
" />
    <glyph glyph-name="uni013C" unicode="&#x13c;" horiz-adv-x="199" 
d="M54 0c-7 0 -12 5 -12 12v676c0 7 5 12 12 12h92c7 0 12 -5 12 -12v-676c0 -7 -5 -12 -12 -12h-92zM-14 -179c-9 0 -14 5 -9 14l59 103c3 6 9 8 15 8h84c10 0 14 -7 8 -15l-74 -103c-4 -6 -8 -7 -14 -7h-69z" />
    <glyph glyph-name="lslash" unicode="&#x142;" horiz-adv-x="199" 
d="M272 396c4 -6 1 -12 -5 -16l-106 -59c-3 -2 -3 -4 -3 -6v-303c0 -7 -5 -12 -12 -12h-92c-7 0 -12 5 -12 12v235c0 4 -3 6 -6 4l-35 -20c-7 -4 -14 -2 -17 5l-29 55c-3 6 -1 12 5 16l79 44c3 2 3 4 3 6v331c0 7 5 12 12 12h92c7 0 12 -5 12 -12v-262c0 -4 3 -6 6 -4l61 34
c6 4 12 2 16 -4z" />
    <glyph glyph-name="m" unicode="m" horiz-adv-x="665" 
d="M491 519c88 0 132 -66 132 -172v-335c0 -7 -5 -12 -12 -12h-91c-7 0 -12 5 -12 12v327c0 51 -22 80 -56 80c-37 0 -60 -29 -60 -79v-328c0 -7 -5 -12 -12 -12h-91c-7 0 -12 5 -12 12v327c0 51 -23 80 -56 80c-37 0 -60 -29 -60 -79v-328c0 -7 -5 -12 -12 -12h-91
c-7 0 -12 5 -12 12v487c0 7 5 12 12 12h91c7 0 12 -5 12 -12v-16c0 -4 3 -6 6 -2c29 29 66 38 94 38c51 0 87 -23 109 -63c2 -3 5 -2 9 3c29 47 77 60 112 60z" />
    <glyph glyph-name="n" unicode="n" 
d="M265 519c87 0 132 -62 132 -167v-340c0 -7 -5 -12 -12 -12h-92c-7 0 -12 5 -12 12v331c0 48 -21 76 -58 76c-38 0 -61 -29 -61 -79v-328c0 -7 -5 -12 -12 -12h-92c-7 0 -12 5 -12 12v487c0 7 5 12 12 12h92c7 0 12 -5 12 -12v-20c0 -4 4 -5 8 0c26 31 62 40 95 40z" />
    <glyph glyph-name="nacute" unicode="&#x144;" 
d="M320 703c10 0 14 -7 8 -15l-74 -103c-4 -6 -8 -7 -14 -7h-69c-9 0 -14 5 -9 14l59 103c3 6 9 8 15 8h84zM265 519c87 0 132 -62 132 -167v-340c0 -7 -5 -12 -12 -12h-92c-7 0 -12 5 -12 12v331c0 48 -21 76 -58 76c-38 0 -61 -29 -61 -79v-328c0 -7 -5 -12 -12 -12h-92
c-7 0 -12 5 -12 12v487c0 7 5 12 12 12h92c7 0 12 -5 12 -12v-20c0 -4 4 -5 8 0c26 31 62 40 95 40z" />
    <glyph glyph-name="ncaron" unicode="&#x148;" 
d="M280 576c-3 -5 -8 -8 -14 -8h-92c-6 0 -11 2 -14 8l-65 103c-5 9 -1 14 8 14h67c6 0 11 -2 14 -8l36 -62c2 -4 5 -4 7 0l35 62c3 5 9 8 15 8h62c9 0 13 -7 8 -15zM265 519c87 0 132 -62 132 -167v-340c0 -7 -5 -12 -12 -12h-92c-7 0 -12 5 -12 12v331c0 48 -21 76 -58 76
c-38 0 -61 -29 -61 -79v-328c0 -7 -5 -12 -12 -12h-92c-7 0 -12 5 -12 12v487c0 7 5 12 12 12h92c7 0 12 -5 12 -12v-20c0 -4 4 -5 8 0c26 31 62 40 95 40z" />
    <glyph glyph-name="eng" unicode="&#x14b;" 
d="M265 519c87 0 132 -62 132 -167v-352c0 -101 -8 -180 -181 -179c-8 0 -12 5 -12 12v74c0 7 4 12 12 12c59 2 65 36 65 87v337c0 48 -21 76 -58 76c-38 0 -61 -29 -61 -79v-328c0 -7 -5 -12 -12 -12h-92c-7 0 -12 5 -12 12v487c0 7 5 12 12 12h92c7 0 12 -5 12 -12v-20
c0 -4 4 -5 8 0c26 31 62 40 95 40z" />
    <glyph glyph-name="ntilde" unicode="&#xf1;" 
d="M194 626c-13 0 -25 -5 -36 -22c-4 -8 -10 -9 -16 -4l-29 23c-6 5 -7 9 -4 16c17 44 46 62 76 62c23 0 40 -10 58 -22c12 -9 23 -20 39 -20c12 0 25 5 35 22c4 7 11 9 17 4l27 -20c6 -4 8 -9 5 -16c-21 -47 -57 -61 -83 -61c-17 0 -32 8 -50 19c-16 11 -24 19 -39 19z
M265 519c87 0 132 -62 132 -167v-340c0 -7 -5 -12 -12 -12h-92c-7 0 -12 5 -12 12v331c0 48 -21 76 -58 76c-38 0 -61 -29 -61 -79v-328c0 -7 -5 -12 -12 -12h-92c-7 0 -12 5 -12 12v487c0 7 5 12 12 12h92c7 0 12 -5 12 -12v-20c0 -4 4 -5 8 0c26 31 62 40 95 40z" />
    <glyph glyph-name="o" unicode="o" horiz-adv-x="432" 
d="M216 -8c-111 0 -178 63 -178 162v203c0 96 67 162 178 162c112 0 179 -66 179 -162v-203c0 -99 -67 -162 -179 -162zM216 92c37 0 63 29 63 71v185c0 42 -26 71 -63 71s-62 -29 -62 -71v-185c0 -42 25 -71 62 -71z" />
    <glyph glyph-name="oacute" unicode="&#xf3;" horiz-adv-x="432" 
d="M164 583c-9 0 -14 5 -9 14l59 103c3 6 9 8 15 8h84c10 0 14 -7 8 -15l-74 -103c-4 -6 -8 -7 -14 -7h-69zM216 -8c-111 0 -178 63 -178 162v203c0 96 67 162 178 162c112 0 179 -66 179 -162v-203c0 -99 -67 -162 -179 -162zM216 92c37 0 63 29 63 71v185
c0 42 -26 71 -63 71s-62 -29 -62 -71v-185c0 -42 25 -71 62 -71z" />
    <glyph glyph-name="ocircumflex" unicode="&#xf4;" horiz-adv-x="432" 
d="M93 579c-9 0 -13 5 -8 14l65 102c3 5 8 8 14 8h98c6 0 11 -3 14 -8l67 -101c5 -8 2 -15 -7 -15h-69c-6 0 -12 3 -15 8l-34 62c-2 3 -4 3 -6 0l-35 -62c-3 -5 -9 -8 -15 -8h-69zM216 -8c-111 0 -178 63 -178 162v203c0 96 67 162 178 162c112 0 179 -66 179 -162v-203
c0 -99 -67 -162 -179 -162zM216 92c37 0 63 29 63 71v185c0 42 -26 71 -63 71s-62 -29 -62 -71v-185c0 -42 25 -71 62 -71z" />
    <glyph glyph-name="odieresis" unicode="&#xf6;" horiz-adv-x="432" 
d="M140 585c-35 0 -61 26 -61 63c0 36 26 62 61 62s59 -26 59 -62c0 -37 -24 -63 -59 -63zM295 585c-36 0 -61 26 -61 63c0 36 25 62 61 62c35 0 59 -26 59 -62c0 -37 -24 -63 -59 -63zM216 -8c-111 0 -178 63 -178 162v203c0 96 67 162 178 162c112 0 179 -66 179 -162
v-203c0 -99 -67 -162 -179 -162zM216 92c37 0 63 29 63 71v185c0 42 -26 71 -63 71s-62 -29 -62 -71v-185c0 -42 25 -71 62 -71z" />
    <glyph glyph-name="ograve" unicode="&#xf2;" horiz-adv-x="432" 
d="M257 597c5 -9 0 -14 -9 -14h-69c-6 0 -10 1 -14 7l-74 103c-6 8 -2 15 8 15h84c6 0 12 -2 15 -8zM216 -8c-111 0 -178 63 -178 162v203c0 96 67 162 178 162c112 0 179 -66 179 -162v-203c0 -99 -67 -162 -179 -162zM216 92c37 0 63 29 63 71v185c0 42 -26 71 -63 71
s-62 -29 -62 -71v-185c0 -42 25 -71 62 -71z" />
    <glyph glyph-name="ohungarumlaut" unicode="&#x151;" horiz-adv-x="432" 
d="M115 581c-9 0 -13 5 -9 14l50 102c3 6 8 9 14 9h75c9 0 12 -6 8 -14l-54 -102c-3 -6 -9 -9 -15 -9h-69zM261 581c-9 0 -12 6 -8 14l54 102c3 6 9 9 15 9h70c9 0 12 -6 8 -14l-55 -103c-3 -6 -9 -8 -15 -8h-69zM216 -8c-111 0 -178 63 -178 162v203c0 96 67 162 178 162
c112 0 179 -66 179 -162v-203c0 -99 -67 -162 -179 -162zM216 92c37 0 63 29 63 71v185c0 42 -26 71 -63 71s-62 -29 -62 -71v-185c0 -42 25 -71 62 -71z" />
    <glyph glyph-name="omacron" unicode="&#x14d;" horiz-adv-x="432" 
d="M118 594c-7 0 -12 5 -12 12v56c0 7 5 12 12 12h190c7 0 12 -5 12 -12v-56c0 -7 -5 -12 -12 -12h-190zM216 -8c-111 0 -178 63 -178 162v203c0 96 67 162 178 162c112 0 179 -66 179 -162v-203c0 -99 -67 -162 -179 -162zM216 92c37 0 63 29 63 71v185c0 42 -26 71 -63 71
s-62 -29 -62 -71v-185c0 -42 25 -71 62 -71z" />
    <glyph glyph-name="oslash" unicode="&#xf8;" horiz-adv-x="453" 
d="M400 517c6 -4 8 -10 4 -16l-24 -44c-1 -2 -1 -5 0 -7c18 -26 27 -58 27 -93v-203c0 -99 -67 -162 -179 -162c-34 0 -64 6 -89 17c-3 1 -5 0 -6 -2l-19 -35c-4 -7 -11 -9 -17 -5l-44 27c-6 4 -8 10 -4 16l25 46c1 2 1 5 0 7c-16 26 -24 56 -24 91v203c0 96 67 162 178 162
c33 0 62 -5 87 -16c3 -1 5 0 6 2l18 33c4 7 11 9 17 5zM166 236c0 -5 4 -5 6 -1l92 167c1 3 1 5 -2 7c-9 6 -21 10 -34 10c-37 0 -62 -29 -62 -71v-112zM291 282c0 5 -4 5 -6 1l-95 -172c-1 -3 -1 -5 1 -7c10 -8 23 -12 37 -12c37 0 63 29 63 71v119z" />
    <glyph glyph-name="otilde" unicode="&#xf5;" horiz-adv-x="432" 
d="M281 593c-19 0 -35 8 -54 19c-18 11 -26 19 -43 19c-14 0 -27 -5 -38 -23c-5 -7 -11 -8 -17 -4l-32 24c-5 4 -8 9 -5 16c19 44 50 62 83 62c24 0 43 -10 62 -22c13 -9 25 -20 43 -20c13 0 27 5 38 23c4 7 9 9 16 4l32 -21c6 -4 7 -12 1 -24c-24 -40 -59 -53 -86 -53z
M216 -8c-111 0 -178 63 -178 162v203c0 96 67 162 178 162c112 0 179 -66 179 -162v-203c0 -99 -67 -162 -179 -162zM216 92c37 0 63 29 63 71v185c0 42 -26 71 -63 71s-62 -29 -62 -71v-185c0 -42 25 -71 62 -71z" />
    <glyph glyph-name="oe" unicode="&#x153;" horiz-adv-x="679" 
d="M646 230c0 -7 -5 -12 -12 -12h-222c-3 0 -5 -2 -5 -5v-50c0 -42 25 -71 62 -71c32 0 53 24 60 53c2 7 6 10 13 10l90 -4c7 0 12 -5 11 -13c-9 -92 -68 -146 -174 -146c-56 0 -95 22 -123 57c-2 2 -4 2 -6 0c-28 -35 -66 -57 -124 -57c-111 0 -178 63 -178 163v201
c0 97 67 163 178 163c58 0 96 -23 124 -58c2 -3 4 -3 6 0c28 35 67 58 123 58c110 0 177 -66 177 -163v-126zM279 348c0 42 -25 71 -63 71c-37 0 -62 -29 -62 -71v-185c0 -42 25 -71 62 -71c38 0 63 29 63 71v185zM469 419c-37 0 -62 -29 -62 -71v-47c0 -3 2 -5 5 -5h114
c3 0 5 2 5 5v47c0 42 -26 71 -62 71z" />
    <glyph glyph-name="p" unicode="p" horiz-adv-x="441" 
d="M264 519c88 0 137 -65 139 -162v-204c-2 -100 -53 -161 -139 -161c-30 0 -65 9 -92 38c-3 3 -6 2 -6 -2v-205c0 -7 -5 -12 -12 -12h-92c-7 0 -12 5 -12 12v676c0 7 5 12 12 12h92c7 0 12 -5 12 -12v-16c0 -4 4 -4 8 0c26 27 61 36 90 36zM288 346c0 43 -25 73 -61 73
s-61 -29 -61 -73v-181c0 -44 25 -73 61 -73s61 29 61 73v181z" />
    <glyph glyph-name="thorn" unicode="&#xfe;" horiz-adv-x="433" 
d="M256 519c86 0 137 -61 139 -161v-204c-2 -97 -51 -162 -139 -162c-30 0 -65 9 -92 38c-3 3 -6 2 -6 -2v-216c0 -7 -5 -12 -12 -12h-92c-7 0 -12 5 -12 12v876c0 7 5 12 12 12h92c7 0 12 -5 12 -12v-205c0 -4 4 -4 8 0c26 28 61 36 90 36zM280 346c0 44 -25 73 -61 73
s-61 -29 -61 -73v-181c0 -44 25 -73 61 -73s61 30 61 73v181z" />
    <glyph glyph-name="q" unicode="q" horiz-adv-x="441" 
d="M275 499c0 7 5 12 12 12h92c7 0 12 -5 12 -12v-676c0 -7 -5 -12 -12 -12h-92c-7 0 -12 5 -12 12v205c0 4 -3 5 -6 2c-27 -29 -62 -38 -92 -38c-86 0 -137 61 -139 161v204c2 97 51 162 139 162c30 0 65 -9 92 -38c3 -3 6 -2 6 2v16zM214 92c36 0 61 29 61 73v181
c0 44 -25 73 -61 73s-61 -30 -61 -73v-181c0 -44 25 -73 61 -73z" />
    <glyph glyph-name="r" unicode="r" horiz-adv-x="313" 
d="M255 517c19 0 33 -4 42 -10c6 -4 7 -9 6 -15l-16 -93c-1 -9 -6 -10 -14 -7c-13 4 -32 5 -48 1c-37 -5 -63 -47 -63 -97v-284c0 -7 -5 -12 -12 -12h-92c-7 0 -12 5 -12 12v487c0 7 5 12 12 12h92c7 0 12 -5 12 -12v-46c0 -5 3 -6 5 -1c16 38 43 65 88 65z" />
    <glyph glyph-name="racute" unicode="&#x155;" horiz-adv-x="313" 
d="M275 705c10 0 14 -7 8 -15l-74 -103c-4 -6 -8 -7 -14 -7h-69c-9 0 -14 5 -9 14l59 103c3 6 9 8 15 8h84zM255 517c19 0 33 -4 42 -10c6 -4 7 -9 6 -15l-16 -93c-1 -9 -6 -10 -14 -7c-13 4 -32 5 -48 1c-37 -5 -63 -47 -63 -97v-284c0 -7 -5 -12 -12 -12h-92
c-7 0 -12 5 -12 12v487c0 7 5 12 12 12h92c7 0 12 -5 12 -12v-46c0 -5 3 -6 5 -1c16 38 43 65 88 65z" />
    <glyph glyph-name="rcaron" unicode="&#x159;" horiz-adv-x="313" 
d="M235 578c-3 -5 -8 -8 -14 -8h-92c-6 0 -11 2 -14 8l-65 103c-5 9 -1 14 8 14h67c6 0 11 -2 14 -8l36 -62c2 -4 5 -4 7 0l35 62c3 5 9 8 15 8h62c9 0 13 -7 8 -15zM162 453c0 -5 3 -6 5 -1c16 38 43 65 88 65c19 0 33 -4 42 -10c6 -4 7 -9 6 -15l-16 -93
c-1 -9 -6 -10 -14 -7c-13 4 -32 5 -48 1c-37 -5 -63 -47 -63 -97v-284c0 -7 -5 -12 -12 -12h-92c-7 0 -12 5 -12 12v487c0 7 5 12 12 12h92c7 0 12 -5 12 -12v-46z" />
    <glyph glyph-name="s" unicode="s" horiz-adv-x="398" 
d="M203 -6c-106 0 -173 55 -173 141v7c0 7 5 12 12 12h86c7 0 12 -3 12 -8v-9c0 -32 28 -56 64 -56c35 0 56 23 56 53c0 43 -48 58 -95 77c-54 21 -130 56 -130 157c0 94 65 149 165 149c104 0 169 -60 169 -153c0 -7 -5 -12 -12 -12h-84c-7 0 -12 4 -12 9v9
c0 32 -24 56 -58 56c-37 0 -57 -28 -57 -56c0 -41 44 -56 89 -75c59 -24 142 -58 142 -156c0 -89 -68 -145 -174 -145z" />
    <glyph glyph-name="sacute" unicode="&#x15b;" horiz-adv-x="398" 
d="M148 581c-9 0 -14 5 -9 14l59 103c3 6 9 8 15 8h84c10 0 14 -7 8 -15l-74 -103c-4 -6 -8 -7 -14 -7h-69zM203 -6c-106 0 -173 55 -173 141v7c0 7 5 12 12 12h86c7 0 12 -3 12 -8v-9c0 -32 28 -56 64 -56c35 0 56 23 56 53c0 43 -48 58 -95 77c-54 21 -130 56 -130 157
c0 94 65 149 165 149c104 0 169 -60 169 -153c0 -7 -5 -12 -12 -12h-84c-7 0 -12 4 -12 9v9c0 32 -24 56 -58 56c-37 0 -57 -28 -57 -56c0 -41 44 -56 89 -75c59 -24 142 -58 142 -156c0 -89 -68 -145 -174 -145z" />
    <glyph glyph-name="scaron" unicode="&#x161;" horiz-adv-x="398" 
d="M151 571c-6 0 -11 2 -14 8l-65 103c-5 9 -1 14 8 14h67c6 0 11 -2 14 -8l36 -62c2 -4 5 -4 7 0l35 62c3 5 9 8 15 8h62c9 0 13 -7 8 -15l-67 -102c-3 -5 -8 -8 -14 -8h-92zM203 -6c-106 0 -173 55 -173 141v7c0 7 5 12 12 12h86c7 0 12 -3 12 -8v-9c0 -32 28 -56 64 -56
c35 0 56 23 56 53c0 43 -48 58 -95 77c-54 21 -130 56 -130 157c0 94 65 149 165 149c104 0 169 -60 169 -153c0 -7 -5 -12 -12 -12h-84c-7 0 -12 4 -12 9v9c0 32 -24 56 -58 56c-37 0 -57 -28 -57 -56c0 -41 44 -56 89 -75c59 -24 142 -58 142 -156
c0 -89 -68 -145 -174 -145z" />
    <glyph glyph-name="scedilla" unicode="&#x15f;" horiz-adv-x="398" 
d="M377 139c0 -76 -49 -127 -128 -141c-4 -1 -5 -3 -2 -6c33 -38 42 -77 34 -114c-15 -69 -87 -65 -124 -55c-7 2 -9 6 -8 14l5 36c1 8 6 10 14 9c17 -3 34 5 39 28c5 27 -12 56 -41 85c-1 1 -3 2 -5 3c-81 12 -131 63 -131 137v7c0 7 5 12 12 12h86c7 0 12 -3 12 -8v-9
c0 -32 28 -56 64 -56c35 0 56 23 56 53c0 43 -48 58 -95 77c-54 21 -130 56 -130 157c0 94 65 149 165 149c104 0 169 -60 169 -153c0 -7 -5 -12 -12 -12h-84c-7 0 -12 4 -12 9v9c0 32 -24 56 -58 56c-37 0 -57 -28 -57 -56c0 -41 44 -56 89 -75c59 -24 142 -58 142 -156z
" />
    <glyph glyph-name="germandbls" unicode="&#xdf;" horiz-adv-x="450" 
d="M58 1c-7 0 -12 5 -12 12v480c0 137 64 215 175 215c113 0 180 -73 182 -187c0 -72 -25 -117 -65 -142c-4 -2 -4 -4 0 -6c46 -30 74 -90 74 -172c0 -126 -70 -201 -193 -201h-12c-7 0 -12 5 -12 12v75c0 7 5 12 12 12l12 1c50 0 80 41 80 113c0 73 -27 113 -71 115h-14
c-7 0 -12 5 -12 12v67c0 7 5 12 12 12h12c40 0 64 34 63 94c-1 61 -27 96 -67 96c-38 0 -60 -35 -60 -98v-499c0 -7 -5 -12 -12 -12z" />
    <glyph glyph-name="t" unicode="t" horiz-adv-x="282" 
d="M260 441c0 -7 -5 -12 -12 -12h-62c-3 0 -5 -2 -5 -5v-262c0 -49 19 -62 52 -61h7c7 0 12 -5 12 -12v-77c0 -7 -5 -12 -12 -12h-34c-81 0 -137 20 -137 119v305c0 3 -2 5 -5 5h-35c-7 0 -12 5 -12 12v58c0 7 5 12 12 12h35c3 0 5 2 5 5v110c0 7 5 12 12 12h88
c7 0 12 -5 12 -12v-110c0 -3 2 -5 5 -5h62c7 0 12 -5 12 -12v-58z" />
    <glyph glyph-name="tbar" unicode="&#x167;" horiz-adv-x="600" 
d="M255 522c7 0 12 -5 12 -12v-47c0 -7 -1 -12 -3 -12s-4 -2 -4 -5v-5c0 -7 -5 -12 -12 -12h-62c-3 0 -5 -2 -5 -5v-262c0 -49 19 -62 52 -61h7c7 0 12 -5 12 -12v-77c0 -7 -5 -12 -12 -12h-34c-81 0 -137 20 -137 119v305c0 3 -2 5 -5 5h-35c-7 0 -12 4 -12 11v8v3h-1v59
c0 7 5 12 12 12h36c3 0 5 2 5 5v99c0 7 5 12 12 12h88c7 0 12 -5 12 -12v-99c0 -3 2 -5 5 -5h69z" />
    <glyph glyph-name="tcaron" unicode="&#x165;" horiz-adv-x="282" 
d="M185 697c-3 -5 -8 -8 -14 -8h-92c-6 0 -11 3 -14 8l-65 102c-5 9 -1 14 8 14h67c6 0 11 -2 14 -8l36 -61c2 -4 5 -4 7 0l35 61c3 5 9 8 15 8h62c9 0 12 -7 7 -15zM169 638c7 0 12 -5 12 -12v-110c0 -3 2 -5 5 -5h62c7 0 12 -5 12 -12v-58c0 -7 -5 -12 -12 -12h-62
c-3 0 -5 -2 -5 -5v-262c0 -49 19 -62 52 -61h7c7 0 12 -5 12 -12v-77c0 -7 -5 -12 -12 -12h-34c-81 0 -137 20 -137 119v305c0 3 -2 5 -5 5h-35c-7 0 -12 5 -12 12v58c0 7 5 12 12 12h35c3 0 5 2 5 5v110c0 7 5 12 12 12h88z" />
    <glyph glyph-name="u" unicode="u" horiz-adv-x="438" 
d="M277 499c0 7 5 12 12 12h92c7 0 12 -5 12 -12v-487c0 -7 -5 -12 -12 -12h-92c-7 0 -12 5 -12 12v22c0 4 -3 6 -6 2c-22 -33 -55 -43 -93 -43c-75 0 -136 42 -136 149v357c0 7 5 12 12 12h92c7 0 12 -5 12 -12v-332c0 -50 20 -75 58 -75s61 30 61 80v327z" />
    <glyph glyph-name="uacute" unicode="&#xfa;" horiz-adv-x="438" 
d="M314 700c10 0 14 -7 8 -15l-74 -103c-4 -6 -8 -7 -14 -7h-69c-9 0 -14 5 -9 14l59 103c3 6 9 8 15 8h84zM277 499c0 7 5 12 12 12h92c7 0 12 -5 12 -12v-487c0 -7 -5 -12 -12 -12h-92c-7 0 -12 5 -12 12v22c0 4 -3 6 -6 2c-22 -33 -55 -43 -93 -43
c-75 0 -136 42 -136 149v357c0 7 5 12 12 12h92c7 0 12 -5 12 -12v-332c0 -50 20 -75 58 -75s61 30 61 80v327z" />
    <glyph glyph-name="ucircumflex" unicode="&#xfb;" horiz-adv-x="438" 
d="M219 641c-2 3 -4 3 -6 0l-35 -62c-3 -5 -9 -8 -15 -8h-69c-9 0 -13 5 -8 14l65 102c3 5 8 8 14 8h98c6 0 11 -3 14 -8l67 -101c5 -8 2 -15 -7 -15h-69c-6 0 -12 3 -15 8zM277 499c0 7 5 12 12 12h92c7 0 12 -5 12 -12v-487c0 -7 -5 -12 -12 -12h-92c-7 0 -12 5 -12 12v22
c0 4 -3 6 -6 2c-22 -33 -55 -43 -93 -43c-75 0 -136 42 -136 149v357c0 7 5 12 12 12h92c7 0 12 -5 12 -12v-332c0 -50 20 -75 58 -75s61 30 61 80v327z" />
    <glyph glyph-name="udieresis" unicode="&#xfc;" horiz-adv-x="438" 
d="M141 577c-35 0 -61 26 -61 63c0 36 26 62 61 62s59 -26 59 -62c0 -37 -24 -63 -59 -63zM296 577c-36 0 -61 26 -61 63c0 36 25 62 61 62c35 0 59 -26 59 -62c0 -37 -24 -63 -59 -63zM277 499c0 7 5 12 12 12h92c7 0 12 -5 12 -12v-487c0 -7 -5 -12 -12 -12h-92
c-7 0 -12 5 -12 12v22c0 4 -3 6 -6 2c-22 -33 -55 -43 -93 -43c-75 0 -136 42 -136 149v357c0 7 5 12 12 12h92c7 0 12 -5 12 -12v-332c0 -50 20 -75 58 -75s61 30 61 80v327z" />
    <glyph glyph-name="ugrave" unicode="&#xf9;" horiz-adv-x="438" 
d="M258 589c5 -9 0 -14 -9 -14h-69c-6 0 -10 1 -14 7l-74 103c-6 8 -2 15 8 15h84c6 0 12 -2 15 -8zM277 499c0 7 5 12 12 12h92c7 0 12 -5 12 -12v-487c0 -7 -5 -12 -12 -12h-92c-7 0 -12 5 -12 12v22c0 4 -3 6 -6 2c-22 -33 -55 -43 -93 -43c-75 0 -136 42 -136 149v357
c0 7 5 12 12 12h92c7 0 12 -5 12 -12v-332c0 -50 20 -75 58 -75s61 30 61 80v327z" />
    <glyph glyph-name="uhungarumlaut" unicode="&#x171;" horiz-adv-x="438" 
d="M246 698c9 0 12 -6 8 -14l-54 -102c-3 -6 -9 -9 -15 -9h-69c-9 0 -13 5 -9 14l50 102c3 6 8 9 14 9h75zM346 581c-3 -6 -9 -8 -15 -8h-69c-9 0 -12 6 -8 14l54 102c3 6 9 9 15 9h70c9 0 12 -6 8 -14zM277 172v327c0 7 5 12 12 12h92c7 0 12 -5 12 -12v-487
c0 -7 -5 -12 -12 -12h-92c-7 0 -12 5 -12 12v22c0 4 -3 6 -6 2c-22 -33 -55 -43 -93 -43c-75 0 -136 42 -136 149v357c0 7 5 12 12 12h92c7 0 12 -5 12 -12v-332c0 -50 20 -75 58 -75s61 30 61 80z" />
    <glyph glyph-name="umacron" unicode="&#x16b;" horiz-adv-x="438" 
d="M309 666c7 0 12 -5 12 -12v-56c0 -7 -5 -12 -12 -12h-190c-7 0 -12 5 -12 12v56c0 7 5 12 12 12h190zM277 499c0 7 5 12 12 12h92c7 0 12 -5 12 -12v-487c0 -7 -5 -12 -12 -12h-92c-7 0 -12 5 -12 12v22c0 4 -3 6 -6 2c-22 -33 -55 -43 -93 -43c-75 0 -136 42 -136 149
v357c0 7 5 12 12 12h92c7 0 12 -5 12 -12v-332c0 -50 20 -75 58 -75s61 30 61 80v327z" />
    <glyph glyph-name="uni0123" unicode="&#x123;" horiz-adv-x="431" 
d="M280 694c9 0 14 -5 9 -14l-59 -103c-3 -6 -9 -8 -15 -8h-84c-10 0 -14 7 -8 15l74 103c4 6 8 7 14 7h69zM275 499c0 7 5 12 12 12h92c7 0 12 -5 12 -12v-480c0 -138 -51 -236 -257 -224c-8 1 -12 6 -12 13v77c0 8 5 12 13 11c118 -3 140 48 140 134v11c0 4 -3 5 -6 1
c-26 -34 -63 -43 -94 -43c-91 0 -137 64 -137 162v196c0 101 48 162 137 162c32 0 69 -10 94 -43c3 -4 6 -3 6 1v22zM215 99c36 0 60 29 60 70v179c0 42 -24 71 -60 71s-61 -29 -61 -71v-179c0 -41 25 -70 61 -70z" />
    <glyph glyph-name="uni0137" unicode="&#x137;" horiz-adv-x="433" 
d="M58 0c-7 0 -12 5 -12 12v676c0 7 5 12 12 12h92c7 0 12 -5 12 -12v-356c0 -5 4 -5 6 -1l109 172c3 6 8 8 14 8h96c9 0 12 -7 7 -15l-104 -157c-1 -2 -2 -5 -1 -7l120 -318c3 -9 -1 -14 -10 -14h-95c-7 0 -11 4 -13 10l-74 226c-1 4 -4 5 -6 1l-47 -70c-1 -2 -2 -4 -2 -6
v-149c0 -7 -5 -12 -12 -12h-92zM161 -179c-9 0 -14 5 -9 14l59 103c3 6 9 8 15 8h84c10 0 14 -7 8 -15l-74 -103c-4 -6 -8 -7 -14 -7h-69z" />
    <glyph glyph-name="uni0146" unicode="&#x146;" 
d="M265 519c87 0 132 -62 132 -167v-340c0 -7 -5 -12 -12 -12h-92c-7 0 -12 5 -12 12v331c0 48 -21 76 -58 76c-38 0 -61 -29 -61 -79v-328c0 -7 -5 -12 -12 -12h-92c-7 0 -12 5 -12 12v487c0 7 5 12 12 12h92c7 0 12 -5 12 -12v-20c0 -4 4 -5 8 0c26 31 62 40 95 40z
M160 -179c-9 0 -14 5 -9 14l59 103c3 6 9 8 15 8h84c10 0 14 -7 8 -15l-74 -103c-4 -6 -8 -7 -14 -7h-69z" />
    <glyph glyph-name="uni0157" unicode="&#x157;" horiz-adv-x="313" 
d="M255 517c19 0 33 -4 42 -10c6 -4 7 -9 6 -15l-16 -93c-1 -9 -6 -10 -14 -7c-13 4 -32 5 -48 1c-37 -5 -63 -47 -63 -97v-284c0 -7 -5 -12 -12 -12h-92c-7 0 -12 5 -12 12v487c0 7 5 12 12 12h92c7 0 12 -5 12 -12v-46c0 -5 3 -6 5 -1c16 38 43 65 88 65zM-11 -179
c-9 0 -14 5 -9 14l59 103c3 6 9 8 15 8h84c10 0 14 -7 8 -15l-74 -103c-4 -6 -8 -7 -14 -7h-69z" />
    <glyph glyph-name="uni0163" unicode="&#x163;" horiz-adv-x="282" 
d="M260 441c0 -7 -5 -12 -12 -12h-62c-3 0 -5 -2 -5 -5v-262c0 -49 19 -62 52 -61h7c7 0 12 -5 12 -12v-77c0 -7 -5 -12 -12 -12h-12c-4 0 -6 -3 -3 -6c23 -32 29 -67 22 -99c-15 -69 -87 -65 -124 -55c-7 2 -9 6 -8 14l5 36c1 8 6 10 14 9c17 -3 34 5 39 28
c4 25 -10 53 -35 80c-1 1 -3 2 -5 3c-40 14 -64 44 -64 109v305c0 3 -2 5 -5 5h-35c-7 0 -12 5 -12 12v58c0 7 5 12 12 12h35c3 0 5 2 5 5v110c0 7 5 12 12 12h88c7 0 12 -5 12 -12v-110c0 -3 2 -5 5 -5h62c7 0 12 -5 12 -12v-58z" />
    <glyph glyph-name="uni0219" unicode="&#x219;" horiz-adv-x="398" 
d="M203 -6c-106 0 -173 55 -173 141v7c0 7 5 12 12 12h86c7 0 12 -3 12 -8v-9c0 -32 28 -56 64 -56c35 0 56 23 56 53c0 43 -48 58 -95 77c-54 21 -130 56 -130 157c0 94 65 149 165 149c104 0 169 -60 169 -153c0 -7 -5 -12 -12 -12h-84c-7 0 -12 4 -12 9v9
c0 32 -24 56 -58 56c-37 0 -57 -28 -57 -56c0 -41 44 -56 89 -75c59 -24 142 -58 142 -156c0 -89 -68 -145 -174 -145zM139 -185c-9 0 -14 5 -9 14l59 103c3 6 9 8 15 8h84c10 0 14 -7 8 -15l-74 -103c-4 -6 -8 -7 -14 -7h-69z" />
    <glyph glyph-name="uni021B" unicode="&#x21b;" horiz-adv-x="282" 
d="M206 0c-81 0 -137 20 -137 119v305c0 3 -2 5 -5 5h-35c-7 0 -12 5 -12 12v58c0 7 5 12 12 12h35c3 0 5 2 5 5v110c0 7 5 12 12 12h88c7 0 12 -5 12 -12v-110c0 -3 2 -5 5 -5h62c7 0 12 -5 12 -12v-58c0 -7 -5 -12 -12 -12h-62c-3 0 -5 -2 -5 -5v-262c0 -49 19 -62 52 -61
h7c7 0 12 -5 12 -12v-77c0 -7 -5 -12 -12 -12h-34zM155 -51c3 6 9 8 15 8h84c10 0 14 -7 8 -15l-74 -103c-4 -6 -8 -7 -14 -7h-69c-9 0 -14 5 -9 14z" />
    <glyph glyph-name="uogonek" unicode="&#x173;" 
d="M378 -124c8 1 13 -1 14 -9l5 -36c1 -8 -1 -12 -8 -14c-37 -10 -109 -14 -124 55c-9 40 3 82 42 122c4 3 2 6 -2 6h-16c-7 0 -12 5 -12 12v22c0 4 -3 6 -6 2c-22 -33 -55 -43 -93 -43c-75 0 -136 42 -136 149v357c0 7 5 12 12 12h92c7 0 12 -5 12 -12v-332
c0 -50 20 -75 58 -75s61 30 61 80v327c0 7 5 12 12 12h92c7 0 12 -5 12 -12v-490v-9h-1c-36 -31 -58 -65 -53 -96c5 -24 22 -31 39 -28z" />
    <glyph glyph-name="uring" unicode="&#x16f;" horiz-adv-x="438" 
d="M217 565c-60 0 -107 48 -107 109c0 60 47 107 107 107s107 -47 107 -107c0 -61 -47 -109 -107 -109zM217 728c-29 0 -52 -24 -52 -54s23 -54 52 -54s52 24 52 54s-23 54 -52 54zM277 499c0 7 5 12 12 12h92c7 0 12 -5 12 -12v-487c0 -7 -5 -12 -12 -12h-92
c-7 0 -12 5 -12 12v22c0 4 -3 6 -6 2c-22 -33 -55 -43 -93 -43c-75 0 -136 42 -136 149v357c0 7 5 12 12 12h92c7 0 12 -5 12 -12v-332c0 -50 20 -75 58 -75s61 30 61 80v327z" />
    <glyph glyph-name="v" unicode="v" horiz-adv-x="415" 
d="M155 0c-7 0 -12 3 -14 10l-121 488c-2 9 3 13 11 13h101c7 0 12 -3 13 -11l60 -325c1 -4 5 -4 6 0l59 325c1 8 6 11 13 11l102 -1c8 0 13 -4 11 -13l-121 -487c-2 -7 -7 -10 -14 -10h-106z" />
    <glyph glyph-name="w" unicode="w" horiz-adv-x="592" 
d="M139 0c-7 0 -12 4 -13 11l-106 487c-2 9 2 13 10 13h88c7 0 12 -3 13 -11l53 -326c1 -4 5 -4 6 0l54 326c1 8 6 11 13 11h78c7 0 12 -3 13 -11l56 -326c1 -4 5 -4 6 0l53 326c1 8 6 11 13 11l87 -1c8 0 12 -4 10 -13l-107 -486c-1 -7 -6 -11 -13 -11h-90
c-7 0 -12 3 -13 11l-53 292c-1 4 -5 4 -6 0l-52 -292c-1 -8 -6 -11 -13 -11h-87z" />
    <glyph glyph-name="wacute" unicode="&#x1e83;" horiz-adv-x="592" 
d="M243 575c-9 0 -14 5 -9 14l59 103c3 6 9 8 15 8h84c10 0 14 -7 8 -15l-74 -103c-4 -6 -8 -7 -14 -7h-69zM139 0c-7 0 -12 4 -13 11l-106 487c-2 9 2 13 10 13h88c7 0 12 -3 13 -11l53 -326c1 -4 5 -4 6 0l54 326c1 8 6 11 13 11h78c7 0 12 -3 13 -11l56 -326
c1 -4 5 -4 6 0l53 326c1 8 6 11 13 11l87 -1c8 0 12 -4 10 -13l-107 -486c-1 -7 -6 -11 -13 -11h-90c-7 0 -12 3 -13 11l-53 292c-1 4 -5 4 -6 0l-52 -292c-1 -8 -6 -11 -13 -11h-87z" />
    <glyph glyph-name="wcircumflex" unicode="&#x175;" horiz-adv-x="592" 
d="M172 571c-9 0 -13 5 -8 14l65 102c3 5 8 8 14 8h98c6 0 11 -3 14 -8l67 -101c5 -8 2 -15 -7 -15h-69c-6 0 -12 3 -15 8l-34 62c-2 3 -4 3 -6 0l-35 -62c-3 -5 -9 -8 -15 -8h-69zM139 0c-7 0 -12 4 -13 11l-106 487c-2 9 2 13 10 13h88c7 0 12 -3 13 -11l53 -326
c1 -4 5 -4 6 0l54 326c1 8 6 11 13 11h78c7 0 12 -3 13 -11l56 -326c1 -4 5 -4 6 0l53 326c1 8 6 11 13 11l87 -1c8 0 12 -4 10 -13l-107 -486c-1 -7 -6 -11 -13 -11h-90c-7 0 -12 3 -13 11l-53 292c-1 4 -5 4 -6 0l-52 -292c-1 -8 -6 -11 -13 -11h-87z" />
    <glyph glyph-name="wdieresis" unicode="&#x1e85;" horiz-adv-x="592" 
d="M219 577c-35 0 -61 26 -61 63c0 36 26 62 61 62s59 -26 59 -62c0 -37 -24 -63 -59 -63zM374 577c-36 0 -61 26 -61 63c0 36 25 62 61 62c35 0 59 -26 59 -62c0 -37 -24 -63 -59 -63zM139 0c-7 0 -12 4 -13 11l-106 487c-2 9 2 13 10 13h88c7 0 12 -3 13 -11l53 -326
c1 -4 5 -4 6 0l54 326c1 8 6 11 13 11h78c7 0 12 -3 13 -11l56 -326c1 -4 5 -4 6 0l53 326c1 8 6 11 13 11l87 -1c8 0 12 -4 10 -13l-107 -486c-1 -7 -6 -11 -13 -11h-90c-7 0 -12 3 -13 11l-53 292c-1 4 -5 4 -6 0l-52 -292c-1 -8 -6 -11 -13 -11h-87z" />
    <glyph glyph-name="wgrave" unicode="&#x1e81;" horiz-adv-x="592" 
d="M336 589c5 -9 0 -14 -9 -14h-69c-6 0 -10 1 -14 7l-74 103c-6 8 -2 15 8 15h84c6 0 12 -2 15 -8zM139 0c-7 0 -12 4 -13 11l-106 487c-2 9 2 13 10 13h88c7 0 12 -3 13 -11l53 -326c1 -4 5 -4 6 0l54 326c1 8 6 11 13 11h78c7 0 12 -3 13 -11l56 -326c1 -4 5 -4 6 0
l53 326c1 8 6 11 13 11l87 -1c8 0 12 -4 10 -13l-107 -486c-1 -7 -6 -11 -13 -11h-90c-7 0 -12 3 -13 11l-53 292c-1 4 -5 4 -6 0l-52 -292c-1 -8 -6 -11 -13 -11h-87z" />
    <glyph glyph-name="x" unicode="x" horiz-adv-x="417" 
d="M29 0c-9 0 -13 5 -9 14l116 239c1 3 1 3 0 6l-116 238c-4 9 0 14 9 14h100c6 0 11 -2 14 -9l62 -136c2 -4 4 -4 6 0l63 136c3 7 8 9 14 9h100c9 0 13 -5 9 -14l-116 -238c-1 -3 -1 -3 0 -6l116 -239c4 -9 0 -14 -9 -14h-100c-6 0 -11 2 -14 9l-63 139c-2 4 -4 3 -6 -1
l-62 -138c-3 -7 -8 -9 -14 -9h-100z" />
    <glyph glyph-name="y" unicode="y" horiz-adv-x="403" 
d="M40 -199c-4 0 -6 5 -6 12v72c0 7 2 12 5 12h5c62 0 88 17 99 100c0 2 -1 4 -1 6l-126 495c-2 9 3 13 11 13h98c7 0 12 -3 13 -11l61 -330c1 -4 5 -4 6 0l59 330c1 8 6 11 13 11l99 -1c8 0 13 -4 11 -13l-134 -525c-36 -132 -67 -171 -207 -171h-6z" />
    <glyph glyph-name="yacute" unicode="&#xfd;" horiz-adv-x="403" 
d="M149 575c-9 0 -14 5 -9 14l59 103c3 6 9 8 15 8h84c10 0 14 -7 8 -15l-74 -103c-4 -6 -8 -7 -14 -7h-69zM40 -199c-4 0 -6 5 -6 12v72c0 7 2 12 5 12h5c62 0 88 17 99 100c0 2 -1 4 -1 6l-126 495c-2 9 3 13 11 13h98c7 0 12 -3 13 -11l61 -330c1 -4 5 -4 6 0l59 330
c1 8 6 11 13 11l99 -1c8 0 13 -4 11 -13l-134 -525c-36 -132 -67 -171 -207 -171h-6z" />
    <glyph glyph-name="ycircumflex" unicode="&#x177;" horiz-adv-x="403" 
d="M78 571c-9 0 -13 5 -8 14l65 102c3 5 8 8 14 8h98c6 0 11 -3 14 -8l67 -101c5 -8 2 -15 -7 -15h-69c-6 0 -12 3 -15 8l-34 62c-2 3 -4 3 -6 0l-35 -62c-3 -5 -9 -8 -15 -8h-69zM40 -199c-4 0 -6 5 -6 12v72c0 7 2 12 5 12h5c62 0 88 17 99 100c0 2 -1 4 -1 6l-126 495
c-2 9 3 13 11 13h98c7 0 12 -3 13 -11l61 -330c1 -4 5 -4 6 0l59 330c1 8 6 11 13 11l99 -1c8 0 13 -4 11 -13l-134 -525c-36 -132 -67 -171 -207 -171h-6z" />
    <glyph glyph-name="ydieresis" unicode="&#xff;" horiz-adv-x="403" 
d="M125 577c-35 0 -61 26 -61 63c0 36 26 62 61 62s59 -26 59 -62c0 -37 -24 -63 -59 -63zM280 577c-36 0 -61 26 -61 63c0 36 25 62 61 62c35 0 59 -26 59 -62c0 -37 -24 -63 -59 -63zM40 -199c-4 0 -6 5 -6 12v72c0 7 2 12 5 12h5c62 0 88 17 99 100c0 2 -1 4 -1 6
l-126 495c-2 9 3 13 11 13h98c7 0 12 -3 13 -11l61 -330c1 -4 5 -4 6 0l59 330c1 8 6 11 13 11l99 -1c8 0 13 -4 11 -13l-134 -525c-36 -132 -67 -171 -207 -171h-6z" />
    <glyph glyph-name="ygrave" unicode="&#x1ef3;" horiz-adv-x="403" 
d="M242 589c5 -9 0 -14 -9 -14h-69c-6 0 -10 1 -14 7l-74 103c-6 8 -2 15 8 15h84c6 0 12 -2 15 -8zM40 -199c-4 0 -6 5 -6 12v72c0 7 2 12 5 12h5c62 0 88 17 99 100c0 2 -1 4 -1 6l-126 495c-2 9 3 13 11 13h98c7 0 12 -3 13 -11l61 -330c1 -4 5 -4 6 0l59 330
c1 8 6 11 13 11l99 -1c8 0 13 -4 11 -13l-134 -525c-36 -132 -67 -171 -207 -171h-6z" />
    <glyph glyph-name="z" unicode="z" horiz-adv-x="368" 
d="M36 0c-7 0 -12 5 -12 12v85c0 5 1 10 4 15l172 288c2 4 1 6 -3 6h-157c-7 0 -12 5 -12 12v81c0 7 5 12 12 12h289c7 0 12 -5 12 -12v-85c0 -5 -1 -10 -4 -15l-177 -288c-2 -4 -1 -6 3 -6h171c7 0 12 -5 12 -12v-81c0 -7 -5 -12 -12 -12h-298z" />
    <glyph glyph-name="zacute" unicode="&#x17a;" horiz-adv-x="368" 
d="M134 587c-9 0 -14 5 -9 14l59 103c3 6 9 8 15 8h84c10 0 14 -7 8 -15l-74 -103c-4 -6 -8 -7 -14 -7h-69zM36 0c-7 0 -12 5 -12 12v85c0 5 1 10 4 15l172 288c2 4 1 6 -3 6h-157c-7 0 -12 5 -12 12v81c0 7 5 12 12 12h289c7 0 12 -5 12 -12v-85c0 -5 -1 -10 -4 -15
l-177 -288c-2 -4 -1 -6 3 -6h171c7 0 12 -5 12 -12v-81c0 -7 -5 -12 -12 -12h-298z" />
    <glyph glyph-name="zcaron" unicode="&#x17e;" horiz-adv-x="368" 
d="M137 577c-6 0 -11 2 -14 8l-65 103c-5 9 -1 14 8 14h67c6 0 11 -2 14 -8l36 -62c2 -4 5 -4 7 0l35 62c3 5 9 8 15 8h62c9 0 13 -7 8 -15l-67 -102c-3 -5 -8 -8 -14 -8h-92zM36 0c-7 0 -12 5 -12 12v85c0 5 1 10 4 15l172 288c2 4 1 6 -3 6h-157c-7 0 -12 5 -12 12v81
c0 7 5 12 12 12h289c7 0 12 -5 12 -12v-85c0 -5 -1 -10 -4 -15l-177 -288c-2 -4 -1 -6 3 -6h171c7 0 12 -5 12 -12v-81c0 -7 -5 -12 -12 -12h-298z" />
    <glyph glyph-name="zdotaccent" unicode="&#x17c;" horiz-adv-x="368" 
d="M186 581c-33 0 -56 24 -56 58s23 57 56 57s54 -23 54 -57s-21 -58 -54 -58zM36 0c-7 0 -12 5 -12 12v85c0 5 1 10 4 15l172 288c2 4 1 6 -3 6h-157c-7 0 -12 5 -12 12v81c0 7 5 12 12 12h289c7 0 12 -5 12 -12v-85c0 -5 -1 -10 -4 -15l-177 -288c-2 -4 -1 -6 3 -6h171
c7 0 12 -5 12 -12v-81c0 -7 -5 -12 -12 -12h-298z" />
    <glyph glyph-name="a.alt" horiz-adv-x="437" 
d="M275 499c0 7 5 12 12 12h92c7 0 12 -5 12 -12v-487c0 -7 -5 -12 -12 -12h-92c-7 0 -12 5 -12 12v16c0 4 -3 5 -6 2c-27 -29 -62 -38 -92 -38c-88 0 -137 65 -139 162v204c2 100 53 161 139 161c30 0 65 -9 92 -38c3 -3 6 -2 6 2v16zM214 92c36 0 61 29 61 73v181
c0 44 -25 73 -61 73s-61 -29 -61 -73v-181c0 -43 25 -73 61 -73z" />
    <glyph glyph-name="a.sc" horiz-adv-x="449" 
d="M319 0c-7 0 -12 3 -13 11l-15 77c-1 3 -3 4 -6 4h-124c-3 0 -5 -1 -6 -4l-16 -77c-1 -7 -6 -11 -13 -11h-91c-8 0 -13 4 -11 13l133 554c2 7 6 10 13 10h107c7 0 12 -3 14 -10l133 -554c2 -9 -3 -13 -11 -13h-94zM176 188c-1 -4 2 -5 5 -5h86c3 0 6 1 5 5l-43 227
c-1 4 -5 4 -6 0z" />
    <glyph glyph-name="aacute.sc" horiz-adv-x="449" 
d="M321 766c10 0 14 -7 8 -15l-74 -103c-4 -6 -8 -7 -14 -7h-69c-9 0 -14 5 -9 14l59 103c3 6 9 8 15 8h84zM319 0c-7 0 -12 3 -13 11l-15 77c-1 3 -3 4 -6 4h-124c-3 0 -5 -1 -6 -4l-16 -77c-1 -7 -6 -11 -13 -11h-91c-8 0 -13 4 -11 13l133 554c2 7 6 10 13 10h107
c7 0 12 -3 14 -10l133 -554c2 -9 -3 -13 -11 -13h-94zM176 188c-1 -4 2 -5 5 -5h86c3 0 6 1 5 5l-43 227c-1 4 -5 4 -6 0z" />
    <glyph glyph-name="abreve.sc" horiz-adv-x="449" 
d="M224 609c-64 0 -109 41 -114 102c-1 8 3 12 11 12h39c7 0 12 -4 13 -12c4 -28 24 -48 51 -48c26 0 47 20 51 48c1 8 6 12 13 12h39c8 0 12 -4 11 -12c-5 -61 -51 -102 -114 -102zM319 0c-7 0 -12 3 -13 11l-15 77c-1 3 -3 4 -6 4h-124c-3 0 -5 -1 -6 -4l-16 -77
c-1 -7 -6 -11 -13 -11h-91c-8 0 -13 4 -11 13l133 554c2 7 6 10 13 10h107c7 0 12 -3 14 -10l133 -554c2 -9 -3 -13 -11 -13h-94zM176 188c-1 -4 2 -5 5 -5h86c3 0 6 1 5 5l-43 227c-1 4 -5 4 -6 0z" />
    <glyph glyph-name="uni01CE.sc" horiz-adv-x="449" 
d="M281 635c-3 -5 -8 -8 -14 -8h-92c-6 0 -11 3 -14 8l-65 102c-5 9 -1 14 8 14h67c6 0 11 -2 14 -8l36 -61c2 -4 5 -4 7 0l35 61c3 5 9 8 15 8h62c9 0 12 -7 7 -15zM319 0c-7 0 -12 3 -13 11l-15 77c-1 3 -3 4 -6 4h-124c-3 0 -5 -1 -6 -4l-16 -77c-1 -7 -6 -11 -13 -11
h-91c-8 0 -13 4 -11 13l133 554c2 7 6 10 13 10h107c7 0 12 -3 14 -10l133 -554c2 -9 -3 -13 -11 -13h-94zM176 188c-1 -4 2 -5 5 -5h86c3 0 6 1 5 5l-43 227c-1 4 -5 4 -6 0z" />
    <glyph glyph-name="acircumflex.sc" horiz-adv-x="449" 
d="M226 707c-2 3 -4 3 -6 0l-35 -62c-3 -5 -9 -8 -15 -8h-69c-9 0 -13 5 -8 14l65 102c3 5 8 8 14 8h98c6 0 11 -3 14 -8l67 -101c5 -8 2 -15 -7 -15h-69c-6 0 -12 3 -15 8zM319 0c-7 0 -12 3 -13 11l-15 77c-1 3 -3 4 -6 4h-124c-3 0 -5 -1 -6 -4l-16 -77
c-1 -7 -6 -11 -13 -11h-91c-8 0 -13 4 -11 13l133 554c2 7 6 10 13 10h107c7 0 12 -3 14 -10l133 -554c2 -9 -3 -13 -11 -13h-94zM176 188c-1 -4 2 -5 5 -5h86c3 0 6 1 5 5l-43 227c-1 4 -5 4 -6 0z" />
    <glyph glyph-name="adieresis.sc" horiz-adv-x="449" 
d="M148 643c-35 0 -61 26 -61 63c0 36 26 62 61 62s59 -26 59 -62c0 -37 -24 -63 -59 -63zM303 643c-36 0 -61 26 -61 63c0 36 25 62 61 62c35 0 59 -26 59 -62c0 -37 -24 -63 -59 -63zM319 0c-7 0 -12 3 -13 11l-15 77c-1 3 -3 4 -6 4h-124c-3 0 -5 -1 -6 -4l-16 -77
c-1 -7 -6 -11 -13 -11h-91c-8 0 -13 4 -11 13l133 554c2 7 6 10 13 10h107c7 0 12 -3 14 -10l133 -554c2 -9 -3 -13 -11 -13h-94zM176 188c-1 -4 2 -5 5 -5h86c3 0 6 1 5 5l-43 227c-1 4 -5 4 -6 0z" />
    <glyph glyph-name="agrave.sc" horiz-adv-x="449" 
d="M265 655c5 -9 0 -14 -9 -14h-69c-6 0 -10 1 -14 7l-74 103c-6 8 -2 15 8 15h84c6 0 12 -2 15 -8zM319 0c-7 0 -12 3 -13 11l-15 77c-1 3 -3 4 -6 4h-124c-3 0 -5 -1 -6 -4l-16 -77c-1 -7 -6 -11 -13 -11h-91c-8 0 -13 4 -11 13l133 554c2 7 6 10 13 10h107
c7 0 12 -3 14 -10l133 -554c2 -9 -3 -13 -11 -13h-94zM176 188c-1 -4 2 -5 5 -5h86c3 0 6 1 5 5l-43 227c-1 4 -5 4 -6 0z" />
    <glyph glyph-name="amacron.sc" horiz-adv-x="449" 
d="M316 732c7 0 12 -5 12 -12v-56c0 -7 -5 -12 -12 -12h-190c-7 0 -12 5 -12 12v56c0 7 5 12 12 12h190zM319 0c-7 0 -12 3 -13 11l-15 77c-1 3 -3 4 -6 4h-124c-3 0 -5 -1 -6 -4l-16 -77c-1 -7 -6 -11 -13 -11h-91c-8 0 -13 4 -11 13l133 554c2 7 6 10 13 10h107
c7 0 12 -3 14 -10l133 -554c2 -9 -3 -13 -11 -13h-94zM176 188c-1 -4 2 -5 5 -5h86c3 0 6 1 5 5l-43 227c-1 4 -5 4 -6 0z" />
    <glyph glyph-name="aogonek.sc" horiz-adv-x="459" 
d="M412 -124c8 1 13 -1 14 -9l5 -36c1 -8 -1 -12 -8 -14c-37 -10 -109 -14 -124 55c-9 40 3 82 42 122c4 3 2 6 -2 6h-20c-7 0 -12 3 -13 11l-15 77c-1 3 -3 4 -6 4h-124c-3 0 -5 -1 -6 -4l-16 -77c-1 -7 -6 -11 -13 -11h-91c-8 0 -13 4 -11 13l133 554c2 7 6 10 13 10h107
c7 0 12 -3 14 -10l134 -557l2 -10h-1c-36 -31 -58 -65 -53 -96c5 -24 22 -31 39 -28zM176 188c-1 -4 2 -5 5 -5h86c3 0 6 1 5 5l-43 227c-1 4 -5 4 -6 0z" />
    <glyph glyph-name="aring.sc" horiz-adv-x="449" 
d="M224 631c-60 0 -107 48 -107 109c0 60 47 107 107 107s107 -47 107 -107c0 -61 -47 -109 -107 -109zM224 794c-29 0 -52 -24 -52 -54s23 -54 52 -54s52 24 52 54s-23 54 -52 54zM319 0c-7 0 -12 3 -13 11l-15 77c-1 3 -3 4 -6 4h-124c-3 0 -5 -1 -6 -4l-16 -77
c-1 -7 -6 -11 -13 -11h-91c-8 0 -13 4 -11 13l133 554c2 7 6 10 13 10h107c7 0 12 -3 14 -10l133 -554c2 -9 -3 -13 -11 -13h-94zM176 188c-1 -4 2 -5 5 -5h86c3 0 6 1 5 5l-43 227c-1 4 -5 4 -6 0z" />
    <glyph glyph-name="atilde.sc" horiz-adv-x="449" 
d="M192 689c-14 0 -27 -5 -38 -23c-5 -7 -11 -8 -17 -4l-32 24c-5 4 -8 9 -5 16c19 44 50 62 83 62c24 0 43 -10 62 -22c13 -9 25 -20 43 -20c13 0 27 5 38 23c4 7 9 9 16 4l32 -21c6 -4 8 -9 4 -16c-22 -47 -61 -61 -89 -61c-19 0 -35 8 -54 19c-18 11 -26 19 -43 19z
M319 0c-7 0 -12 3 -13 11l-15 77c-1 3 -3 4 -6 4h-124c-3 0 -5 -1 -6 -4l-16 -77c-1 -7 -6 -11 -13 -11h-91c-8 0 -13 4 -11 13l133 554c2 7 6 10 13 10h107c7 0 12 -3 14 -10l133 -554c2 -9 -3 -13 -11 -13h-94zM176 188c-1 -4 2 -5 5 -5h86c3 0 6 1 5 5l-43 227
c-1 4 -5 4 -6 0z" />
    <glyph glyph-name="ae.sc" horiz-adv-x="688" 
d="M662 489c0 -7 -5 -12 -12 -12h-192c-3 0 -5 -2 -5 -5v-128c0 -3 2 -5 5 -5h110c7 0 12 -5 12 -12v-76c0 -7 -5 -12 -12 -12h-110c-3 0 -5 -2 -5 -5v-129c0 -3 2 -5 5 -5h192c7 0 12 -5 12 -12v-76c0 -7 -5 -12 -12 -12h-302c-7 0 -12 5 -12 12v75c0 3 -2 5 -5 5h-142
c-2 0 -5 -2 -6 -4l-36 -79c-3 -7 -8 -9 -14 -9h-96c-9 0 -13 5 -9 14l256 554c3 7 8 9 14 9h352c7 0 12 -5 12 -12v-76zM229 189c-1 -3 0 -6 3 -6h99c3 0 5 1 5 5l1 228c0 5 -4 5 -6 1z" />
    <glyph glyph-name="b.sc" horiz-adv-x="424" 
d="M401 162c1 -107 -77 -162 -180 -162h-164c-7 0 -12 5 -12 12v553c0 7 5 12 12 12h147c114 0 189 -51 189 -158c0 -57 -22 -94 -66 -117c-3 -2 -4 -4 -1 -6c44 -25 74 -67 75 -134zM166 477c-3 0 -5 -2 -5 -5v-132c0 -3 2 -5 5 -5h42c46 0 73 24 73 70c0 47 -27 72 -73 72
h-42zM212 101c44 0 73 26 73 76c0 48 -28 79 -72 79h-47c-3 0 -5 -2 -5 -5v-145c0 -3 2 -5 5 -5h46z" />
    <glyph glyph-name="c.sc" horiz-adv-x="421" 
d="M212 -7c-106 0 -176 64 -176 172v247c0 110 70 172 176 172s177 -62 177 -172v-6c0 -7 -5 -12 -12 -12l-92 -4c-8 0 -12 4 -12 12v19c0 41 -25 63 -61 63c-37 0 -60 -22 -60 -63v-265c0 -41 23 -63 60 -63c36 0 61 22 61 63v20c0 8 4 11 12 11l92 -4c7 0 12 -4 12 -9v-9
c0 -108 -71 -172 -177 -172z" />
    <glyph glyph-name="cacute.sc" horiz-adv-x="421" 
d="M160 648c-9 0 -14 5 -9 14l59 103c3 6 9 8 15 8h84c10 0 14 -7 8 -15l-74 -103c-4 -6 -8 -7 -14 -7h-69zM212 -7c-106 0 -176 64 -176 172v247c0 110 70 172 176 172s177 -62 177 -172v-6c0 -7 -5 -12 -12 -12l-92 -4c-8 0 -12 4 -12 12v19c0 41 -25 63 -61 63
c-37 0 -60 -22 -60 -63v-265c0 -41 23 -63 60 -63c36 0 61 22 61 63v20c0 8 4 11 12 11l92 -4c7 0 12 -4 12 -9v-9c0 -108 -71 -172 -177 -172z" />
    <glyph glyph-name="ccaron.sc" horiz-adv-x="421" 
d="M163 634c-6 0 -11 3 -14 8l-65 102c-5 9 -1 14 8 14h67c6 0 11 -2 14 -8l36 -61c2 -4 5 -4 7 0l35 61c3 5 9 8 15 8h62c9 0 13 -7 8 -15l-67 -101c-3 -5 -8 -8 -14 -8h-92zM212 -7c-106 0 -176 64 -176 172v247c0 110 70 172 176 172s177 -62 177 -172v-6
c0 -7 -5 -12 -12 -12l-92 -4c-8 0 -12 4 -12 12v19c0 41 -25 63 -61 63c-37 0 -60 -22 -60 -63v-265c0 -41 23 -63 60 -63c36 0 61 22 61 63v20c0 8 4 11 12 11l92 -4c7 0 12 -4 12 -9v-9c0 -108 -71 -172 -177 -172z" />
    <glyph glyph-name="ccedilla.sc" horiz-adv-x="421" 
d="M389 403c0 -5 -5 -9 -12 -9l-92 -4c-8 0 -12 4 -12 12v19c0 41 -25 63 -61 63c-37 0 -60 -22 -60 -63v-265c0 -41 23 -63 60 -63c36 0 61 22 61 63v20c0 8 4 11 12 11l92 -4c7 0 12 -4 12 -9v-9c0 -91 -51 -152 -132 -168c-4 -1 -5 -3 -2 -6c34 -38 43 -77 35 -114
c-15 -69 -87 -65 -124 -55c-7 2 -9 6 -8 14l5 36c1 8 6 10 14 9c17 -3 34 5 39 28c5 27 -12 57 -41 85c-1 1 -3 2 -5 3c-82 15 -134 75 -134 168v247c0 110 70 172 176 172s177 -62 177 -172v-9z" />
    <glyph glyph-name="cdotaccent.sc" horiz-adv-x="421" 
d="M212 642c-33 0 -56 24 -56 58s23 57 56 57s54 -23 54 -57s-21 -58 -54 -58zM212 -7c-106 0 -176 64 -176 172v247c0 110 70 172 176 172s177 -62 177 -172v-6c0 -7 -5 -12 -12 -12l-92 -4c-8 0 -12 4 -12 12v19c0 41 -25 63 -61 63c-37 0 -60 -22 -60 -63v-265
c0 -41 23 -63 60 -63c36 0 61 22 61 63v20c0 8 4 11 12 11l92 -4c7 0 12 -4 12 -9v-9c0 -108 -71 -172 -177 -172z" />
    <glyph glyph-name="d.sc" horiz-adv-x="430" 
d="M57 0c-7 0 -12 5 -12 12v553c0 7 5 12 12 12h158c107 0 178 -64 178 -160v-257c0 -96 -71 -160 -178 -160h-158zM161 105c0 -3 2 -5 5 -5l47 1c37 0 62 27 63 67v242c0 41 -25 67 -64 67h-46c-3 0 -5 -2 -5 -5v-367z" />
    <glyph glyph-name="eth.sc" horiz-adv-x="459" 
d="M244 577c107 0 178 -64 178 -160v-257c0 -96 -71 -160 -178 -160h-158c-7 0 -12 5 -12 12v250c0 3 -2 5 -5 5h-12c-7 0 -12 5 -12 12v43c0 7 5 12 12 12h12c3 0 5 2 5 5v226c0 7 5 12 12 12h158zM305 168v242c0 41 -25 67 -64 67h-46c-3 0 -5 -2 -5 -5v-133
c0 -3 2 -5 5 -5h39c7 0 12 -5 12 -12v-43c0 -7 -5 -12 -12 -12h-39c-3 0 -5 -2 -5 -5v-157c0 -3 2 -5 5 -5l47 1c37 0 62 27 63 67z" />
    <glyph glyph-name="dcaron.sc" horiz-adv-x="430" 
d="M160 631c-6 0 -11 3 -14 8l-65 102c-5 9 -1 14 8 14h67c6 0 11 -2 14 -8l36 -61c2 -4 5 -4 7 0l35 61c3 5 9 8 15 8h62c9 0 13 -7 8 -15l-67 -101c-3 -5 -8 -8 -14 -8h-92zM57 0c-7 0 -12 5 -12 12v553c0 7 5 12 12 12h158c107 0 178 -64 178 -160v-257
c0 -96 -71 -160 -178 -160h-158zM161 105c0 -3 2 -5 5 -5l47 1c37 0 62 27 63 67v242c0 41 -25 67 -64 67h-46c-3 0 -5 -2 -5 -5v-367z" />
    <glyph glyph-name="dcroat.sc" horiz-adv-x="459" 
d="M244 577c107 0 178 -64 178 -160v-257c0 -96 -71 -160 -178 -160h-158c-7 0 -12 5 -12 12v250c0 3 -2 5 -5 5h-12c-7 0 -12 5 -12 12v43c0 7 5 12 12 12h12c3 0 5 2 5 5v226c0 7 5 12 12 12h158zM305 168v242c0 41 -25 67 -64 67h-46c-3 0 -5 -2 -5 -5v-133
c0 -3 2 -5 5 -5h39c7 0 12 -5 12 -12v-43c0 -7 -5 -12 -12 -12h-39c-3 0 -5 -2 -5 -5v-157c0 -3 2 -5 5 -5l47 1c37 0 62 27 63 67z" />
    <glyph glyph-name="e.sc" horiz-adv-x="397" 
d="M370 488c0 -7 -5 -12 -12 -12h-192c-3 0 -5 -2 -5 -5v-127c0 -3 2 -5 5 -5h110c7 0 12 -5 12 -12v-76c0 -7 -5 -12 -12 -12h-110c-3 0 -5 -2 -5 -5v-129c0 -3 2 -5 5 -5h192c7 0 12 -5 12 -12v-76c0 -7 -5 -12 -12 -12h-301c-7 0 -12 5 -12 12v553c0 7 5 12 12 12h301
c7 0 12 -5 12 -12v-77z" />
    <glyph glyph-name="eacute.sc" horiz-adv-x="397" 
d="M304 776c10 0 14 -7 8 -15l-74 -103c-4 -6 -8 -7 -14 -7h-69c-9 0 -14 5 -9 14l59 103c3 6 9 8 15 8h84zM370 488c0 -7 -5 -12 -12 -12h-192c-3 0 -5 -2 -5 -5v-127c0 -3 2 -5 5 -5h110c7 0 12 -5 12 -12v-76c0 -7 -5 -12 -12 -12h-110c-3 0 -5 -2 -5 -5v-129
c0 -3 2 -5 5 -5h192c7 0 12 -5 12 -12v-76c0 -7 -5 -12 -12 -12h-301c-7 0 -12 5 -12 12v553c0 7 5 12 12 12h301c7 0 12 -5 12 -12v-77z" />
    <glyph glyph-name="ecaron.sc" horiz-adv-x="397" 
d="M264 645c-3 -5 -8 -8 -14 -8h-92c-6 0 -11 3 -14 8l-65 102c-5 9 -1 14 8 14h67c6 0 11 -2 14 -8l36 -61c2 -4 5 -4 7 0l35 61c3 5 9 8 15 8h62c9 0 12 -7 7 -15zM370 488c0 -7 -5 -12 -12 -12h-192c-3 0 -5 -2 -5 -5v-127c0 -3 2 -5 5 -5h110c7 0 12 -5 12 -12v-76
c0 -7 -5 -12 -12 -12h-110c-3 0 -5 -2 -5 -5v-129c0 -3 2 -5 5 -5h192c7 0 12 -5 12 -12v-76c0 -7 -5 -12 -12 -12h-301c-7 0 -12 5 -12 12v553c0 7 5 12 12 12h301c7 0 12 -5 12 -12v-77z" />
    <glyph glyph-name="uni0229.sc" horiz-adv-x="397" 
d="M370 488c0 -7 -5 -12 -12 -12h-192c-3 0 -5 -2 -5 -5v-127c0 -3 2 -5 5 -5h110c7 0 12 -5 12 -12v-76c0 -7 -5 -12 -12 -12h-110c-3 0 -5 -2 -5 -5v-129c0 -3 2 -5 5 -5h192c7 0 12 -5 12 -12v-76c0 -7 -5 -12 -12 -12h-107c-4 0 -5 -3 -3 -6c31 -36 40 -74 32 -110
c-15 -69 -87 -65 -124 -55c-7 2 -9 6 -8 14l5 36c1 8 6 10 14 9c17 -3 34 5 39 28c4 26 -11 54 -37 81c-2 2 -5 3 -7 3h-105c-7 0 -12 5 -12 12v553c0 7 5 12 12 12h301c7 0 12 -5 12 -12v-77z" />
    <glyph glyph-name="ecircumflex.sc" horiz-adv-x="397" 
d="M209 717c-2 3 -4 3 -6 0l-35 -62c-3 -5 -9 -8 -15 -8h-69c-9 0 -13 5 -8 14l65 102c3 5 8 8 14 8h98c6 0 11 -3 14 -8l67 -101c5 -8 2 -15 -7 -15h-69c-6 0 -12 3 -15 8zM370 488c0 -7 -5 -12 -12 -12h-192c-3 0 -5 -2 -5 -5v-127c0 -3 2 -5 5 -5h110c7 0 12 -5 12 -12
v-76c0 -7 -5 -12 -12 -12h-110c-3 0 -5 -2 -5 -5v-129c0 -3 2 -5 5 -5h192c7 0 12 -5 12 -12v-76c0 -7 -5 -12 -12 -12h-301c-7 0 -12 5 -12 12v553c0 7 5 12 12 12h301c7 0 12 -5 12 -12v-77z" />
    <glyph glyph-name="edieresis.sc" horiz-adv-x="397" 
d="M131 653c-35 0 -61 26 -61 63c0 36 26 62 61 62s59 -26 59 -62c0 -37 -24 -63 -59 -63zM286 653c-36 0 -61 26 -61 63c0 36 25 62 61 62c35 0 59 -26 59 -62c0 -37 -24 -63 -59 -63zM370 488c0 -7 -5 -12 -12 -12h-192c-3 0 -5 -2 -5 -5v-127c0 -3 2 -5 5 -5h110
c7 0 12 -5 12 -12v-76c0 -7 -5 -12 -12 -12h-110c-3 0 -5 -2 -5 -5v-129c0 -3 2 -5 5 -5h192c7 0 12 -5 12 -12v-76c0 -7 -5 -12 -12 -12h-301c-7 0 -12 5 -12 12v553c0 7 5 12 12 12h301c7 0 12 -5 12 -12v-77z" />
    <glyph glyph-name="edotaccent.sc" horiz-adv-x="397" 
d="M207 645c-33 0 -56 24 -56 58s23 57 56 57s54 -23 54 -57s-21 -58 -54 -58zM370 488c0 -7 -5 -12 -12 -12h-192c-3 0 -5 -2 -5 -5v-127c0 -3 2 -5 5 -5h110c7 0 12 -5 12 -12v-76c0 -7 -5 -12 -12 -12h-110c-3 0 -5 -2 -5 -5v-129c0 -3 2 -5 5 -5h192c7 0 12 -5 12 -12
v-76c0 -7 -5 -12 -12 -12h-301c-7 0 -12 5 -12 12v553c0 7 5 12 12 12h301c7 0 12 -5 12 -12v-77z" />
    <glyph glyph-name="egrave.sc" horiz-adv-x="397" 
d="M248 665c5 -9 0 -14 -9 -14h-69c-6 0 -10 1 -14 7l-74 103c-6 8 -2 15 8 15h84c6 0 12 -2 15 -8zM370 488c0 -7 -5 -12 -12 -12h-192c-3 0 -5 -2 -5 -5v-127c0 -3 2 -5 5 -5h110c7 0 12 -5 12 -12v-76c0 -7 -5 -12 -12 -12h-110c-3 0 -5 -2 -5 -5v-129c0 -3 2 -5 5 -5
h192c7 0 12 -5 12 -12v-76c0 -7 -5 -12 -12 -12h-301c-7 0 -12 5 -12 12v553c0 7 5 12 12 12h301c7 0 12 -5 12 -12v-77z" />
    <glyph glyph-name="emacron.sc" horiz-adv-x="397" 
d="M299 742c7 0 12 -5 12 -12v-56c0 -7 -5 -12 -12 -12h-190c-7 0 -12 5 -12 12v56c0 7 5 12 12 12h190zM370 488c0 -7 -5 -12 -12 -12h-192c-3 0 -5 -2 -5 -5v-127c0 -3 2 -5 5 -5h110c7 0 12 -5 12 -12v-76c0 -7 -5 -12 -12 -12h-110c-3 0 -5 -2 -5 -5v-129
c0 -3 2 -5 5 -5h192c7 0 12 -5 12 -12v-76c0 -7 -5 -12 -12 -12h-301c-7 0 -12 5 -12 12v553c0 7 5 12 12 12h301c7 0 12 -5 12 -12v-77z" />
    <glyph glyph-name="eogonek.sc" horiz-adv-x="397" 
d="M370 488c0 -7 -5 -12 -12 -12h-192c-3 0 -5 -2 -5 -5v-127c0 -3 2 -5 5 -5h110c7 0 12 -5 12 -12v-76c0 -7 -5 -12 -12 -12h-110c-3 0 -5 -2 -5 -5v-129c0 -3 2 -5 5 -5h192c7 0 12 -5 12 -12v-76c0 -7 -5 -12 -12 -12h-113c-2 0 -5 -1 -7 -3c-29 -28 -46 -58 -41 -85
c5 -24 22 -31 39 -28c8 1 13 -1 14 -9l5 -36c1 -8 -1 -12 -8 -14c-37 -10 -109 -14 -124 55c-8 37 1 77 35 114c3 3 2 6 -2 6h-99c-7 0 -12 5 -12 12v553c0 7 5 12 12 12h301c7 0 12 -5 12 -12v-77z" />
    <glyph glyph-name="f.sc" horiz-adv-x="380" 
d="M369 489c0 -7 -5 -12 -12 -12h-191c-3 0 -5 -2 -5 -5v-128c0 -3 2 -5 5 -5h111c7 0 12 -5 12 -12v-76c0 -7 -5 -12 -12 -12h-111c-3 0 -5 -2 -5 -5v-222c0 -7 -5 -12 -12 -12h-92c-7 0 -12 5 -12 12v553c0 7 5 12 12 12h300c7 0 12 -5 12 -12v-76z" />
    <glyph glyph-name="g.sc" horiz-adv-x="420" 
d="M212 -7c-106 0 -176 61 -176 163v266c0 101 70 162 176 162c105 0 177 -62 177 -164v-21c0 -7 -5 -12 -12 -12h-92c-7 0 -12 5 -12 12v23c0 40 -25 62 -61 62c-37 0 -60 -22 -60 -62v-267c0 -39 23 -61 60 -61c36 0 61 22 61 61v65c0 3 -2 5 -5 5h-40c-7 0 -12 5 -12 12
v58c0 7 5 12 12 12h149c7 0 12 -5 12 -12v-139c0 -102 -72 -163 -177 -163z" />
    <glyph glyph-name="gbreve.sc" horiz-adv-x="420" 
d="M212 616c-64 0 -109 41 -114 102c-1 8 3 12 11 12h39c7 0 12 -4 13 -12c4 -28 24 -48 51 -48c26 0 47 20 51 48c1 8 6 12 13 12h39c8 0 12 -4 11 -12c-5 -61 -51 -102 -114 -102zM212 -7c-106 0 -176 61 -176 163v266c0 101 70 162 176 162c105 0 177 -62 177 -164v-21
c0 -7 -5 -12 -12 -12h-92c-7 0 -12 5 -12 12v23c0 40 -25 62 -61 62c-37 0 -60 -22 -60 -62v-267c0 -39 23 -61 60 -61c36 0 61 22 61 61v65c0 3 -2 5 -5 5h-40c-7 0 -12 5 -12 12v58c0 7 5 12 12 12h149c7 0 12 -5 12 -12v-139c0 -102 -72 -163 -177 -163z" />
    <glyph glyph-name="uni0123.sc" horiz-adv-x="420" 
d="M212 -7c-106 0 -176 61 -176 163v266c0 101 70 162 176 162c105 0 177 -62 177 -164v-21c0 -7 -5 -12 -12 -12h-92c-7 0 -12 5 -12 12v23c0 40 -25 62 -61 62c-37 0 -60 -22 -60 -62v-267c0 -39 23 -61 60 -61c36 0 61 22 61 61v65c0 3 -2 5 -5 5h-40c-7 0 -12 5 -12 12
v58c0 7 5 12 12 12h149c7 0 12 -5 12 -12v-139c0 -102 -72 -163 -177 -163zM146 -186c-9 0 -14 5 -9 14l59 103c3 6 9 8 15 8h84c10 0 14 -7 8 -15l-74 -103c-4 -6 -8 -7 -14 -7h-69z" />
    <glyph glyph-name="gdotaccent.sc" horiz-adv-x="420" 
d="M212 642c-33 0 -56 24 -56 58s23 57 56 57s54 -23 54 -57s-21 -58 -54 -58zM212 -7c-106 0 -176 61 -176 163v266c0 101 70 162 176 162c105 0 177 -62 177 -164v-21c0 -7 -5 -12 -12 -12h-92c-7 0 -12 5 -12 12v23c0 40 -25 62 -61 62c-37 0 -60 -22 -60 -62v-267
c0 -39 23 -61 60 -61c36 0 61 22 61 61v65c0 3 -2 5 -5 5h-40c-7 0 -12 5 -12 12v58c0 7 5 12 12 12h149c7 0 12 -5 12 -12v-139c0 -102 -72 -163 -177 -163z" />
    <glyph glyph-name="h.sc" horiz-adv-x="435" 
d="M274 565c0 7 5 12 12 12h92c7 0 12 -5 12 -12v-553c0 -7 -5 -12 -12 -12h-92c-7 0 -12 5 -12 12v222c0 3 -2 5 -5 5h-103c-3 0 -5 -2 -5 -5v-222c0 -7 -5 -12 -12 -12h-92c-7 0 -12 5 -12 12v553c0 7 5 12 12 12h92c7 0 12 -5 12 -12v-221c0 -3 2 -5 5 -5h103
c3 0 5 2 5 5v221z" />
    <glyph glyph-name="hbar.sc" horiz-adv-x="435" 
d="M437 498c7 0 12 -5 12 -12v-55c0 -7 -5 -12 -12 -12h-42c-3 0 -5 -2 -5 -5v-402c0 -7 -5 -12 -12 -12h-92c-7 0 -12 5 -12 12v222c0 3 -2 5 -5 5h-103c-3 0 -5 -2 -5 -5v-222c0 -7 -5 -12 -12 -12h-92c-7 0 -12 5 -12 12v402c0 3 -2 5 -5 5h-43c-7 0 -12 5 -12 12v55
c0 7 5 12 12 12h43c3 0 5 2 5 5v62c0 7 5 12 12 12h92c7 0 12 -5 12 -12v-62c0 -3 2 -5 5 -5h103c3 0 5 2 5 5v62c0 7 5 12 12 12h92c7 0 12 -5 12 -12v-62c0 -3 2 -5 5 -5h42zM269 339c3 0 5 2 5 5v70c0 3 -2 5 -5 5h-103c-3 0 -5 -2 -5 -5v-70c0 -3 2 -5 5 -5h103z" />
    <glyph glyph-name="i.sc" horiz-adv-x="206" 
d="M57 0c-7 0 -12 5 -12 12v553c0 7 5 12 12 12h92c7 0 12 -5 12 -12v-553c0 -7 -5 -12 -12 -12h-92z" />
    <glyph glyph-name="iacute.sc" horiz-adv-x="206" 
d="M51 651c-9 0 -14 5 -9 14l59 103c3 6 9 8 15 8h84c10 0 14 -7 8 -15l-74 -103c-4 -6 -8 -7 -14 -7h-69zM57 0c-7 0 -12 5 -12 12v553c0 7 5 12 12 12h92c7 0 12 -5 12 -12v-553c0 -7 -5 -12 -12 -12h-92z" />
    <glyph glyph-name="icircumflex.sc" horiz-adv-x="206" 
d="M-20 647c-9 0 -13 5 -8 14l65 102c3 5 8 8 14 8h98c6 0 11 -3 14 -8l67 -101c5 -8 2 -15 -7 -15h-69c-6 0 -12 3 -15 8l-34 62c-2 3 -4 3 -6 0l-35 -62c-3 -5 -9 -8 -15 -8h-69zM57 0c-7 0 -12 5 -12 12v553c0 7 5 12 12 12h92c7 0 12 -5 12 -12v-553
c0 -7 -5 -12 -12 -12h-92z" />
    <glyph glyph-name="idieresis.sc" horiz-adv-x="206" 
d="M27 653c-35 0 -61 26 -61 63c0 36 26 62 61 62s59 -26 59 -62c0 -37 -24 -63 -59 -63zM182 653c-36 0 -61 26 -61 63c0 36 25 62 61 62c35 0 59 -26 59 -62c0 -37 -24 -63 -59 -63zM57 0c-7 0 -12 5 -12 12v553c0 7 5 12 12 12h92c7 0 12 -5 12 -12v-553
c0 -7 -5 -12 -12 -12h-92z" />
    <glyph glyph-name="i.sc.loclTRK" horiz-adv-x="206" 
d="M103 645c-33 0 -56 24 -56 58s23 57 56 57s54 -23 54 -57s-21 -58 -54 -58zM57 0c-7 0 -12 5 -12 12v553c0 7 5 12 12 12h92c7 0 12 -5 12 -12v-553c0 -7 -5 -12 -12 -12h-92z" />
    <glyph glyph-name="igrave.sc" horiz-adv-x="206" 
d="M144 665c5 -9 0 -14 -9 -14h-69c-6 0 -10 1 -14 7l-74 103c-6 8 -2 15 8 15h84c6 0 12 -2 15 -8zM57 0c-7 0 -12 5 -12 12v553c0 7 5 12 12 12h92c7 0 12 -5 12 -12v-553c0 -7 -5 -12 -12 -12h-92z" />
    <glyph glyph-name="ij.sc" horiz-adv-x="612" 
d="M57 0c-7 0 -12 5 -12 12v553c0 7 5 12 12 12h92c7 0 12 -5 12 -12v-553c0 -7 -5 -12 -12 -12h-92zM392 -7c-103 0 -173 62 -173 159v50c0 7 5 12 12 12h92c7 0 12 -5 12 -12v-51c0 -36 23 -58 57 -58c36 0 59 22 59 58v414c0 7 5 12 12 12h92c7 0 12 -5 12 -12v-413
c0 -97 -69 -159 -175 -159z" />
    <glyph glyph-name="imacron.sc" horiz-adv-x="206" 
d="M5 662c-7 0 -12 5 -12 12v56c0 7 5 12 12 12h190c7 0 12 -5 12 -12v-56c0 -7 -5 -12 -12 -12h-190zM57 0c-7 0 -12 5 -12 12v553c0 7 5 12 12 12h92c7 0 12 -5 12 -12v-553c0 -7 -5 -12 -12 -12h-92z" />
    <glyph glyph-name="iogonek.sc" horiz-adv-x="211" 
d="M147 -124c8 1 13 -1 14 -9l5 -36c1 -8 -1 -12 -8 -14c-37 -10 -109 -14 -124 55c-9 40 3 82 42 122c4 3 2 6 -2 6h-17c-7 0 -12 5 -12 12v553c0 7 5 12 12 12h92c7 0 12 -5 12 -12v-556c0 -6 -2 -11 -7 -15c-32 -29 -51 -61 -46 -90c5 -24 22 -31 39 -28z" />
    <glyph glyph-name="j.sc" horiz-adv-x="406" 
d="M186 -7c-103 0 -173 62 -173 159v50c0 7 5 12 12 12h92c7 0 12 -5 12 -12v-51c0 -36 23 -58 57 -58c36 0 59 22 59 58v414c0 7 5 12 12 12h92c7 0 12 -5 12 -12v-413c0 -97 -69 -159 -175 -159z" />
    <glyph glyph-name="k.sc" 
d="M57 0c-7 0 -12 5 -12 12v553c0 7 5 12 12 12h92c7 0 12 -5 12 -12v-207c0 -5 4 -6 6 -2l126 213c3 6 8 8 14 8h98c9 0 14 -5 9 -14l-128 -223c-1 -2 -1 -3 0 -6l137 -320c3 -8 0 -14 -9 -14h-99c-6 0 -11 2 -14 9l-95 223c-1 3 -5 4 -7 1l-36 -58c-1 -2 -2 -4 -2 -6v-157
c0 -7 -5 -12 -12 -12h-92z" />
    <glyph glyph-name="uni0137.sc" 
d="M57 0c-7 0 -12 5 -12 12v553c0 7 5 12 12 12h92c7 0 12 -5 12 -12v-207c0 -5 4 -6 6 -2l126 213c3 6 8 8 14 8h98c9 0 14 -5 9 -14l-128 -223c-1 -2 -1 -3 0 -6l137 -320c3 -8 0 -14 -9 -14h-99c-6 0 -11 2 -14 9l-95 223c-1 3 -5 4 -7 1l-36 -58c-1 -2 -2 -4 -2 -6v-157
c0 -7 -5 -12 -12 -12h-92zM153 -179c-9 0 -14 5 -9 14l59 103c3 6 9 8 15 8h84c10 0 14 -7 8 -15l-74 -103c-4 -6 -8 -7 -14 -7h-69z" />
    <glyph glyph-name="l.sc" horiz-adv-x="382" 
d="M57 0c-7 0 -12 5 -12 12v553c0 7 5 12 12 12h92c7 0 12 -5 12 -12v-460c0 -3 2 -5 5 -5h192c7 0 12 -5 12 -12v-76c0 -7 -5 -12 -12 -12h-301z" />
    <glyph glyph-name="lacute.sc" horiz-adv-x="382" 
d="M52 641c-9 0 -14 5 -9 14l59 103c3 6 9 8 15 8h84c10 0 14 -7 8 -15l-74 -103c-4 -6 -8 -7 -14 -7h-69zM57 0c-7 0 -12 5 -12 12v553c0 7 5 12 12 12h92c7 0 12 -5 12 -12v-460c0 -3 2 -5 5 -5h192c7 0 12 -5 12 -12v-76c0 -7 -5 -12 -12 -12h-301z" />
    <glyph glyph-name="lcaron.sc" horiz-adv-x="382" 
d="M55 627c-6 0 -11 3 -14 8l-65 102c-5 9 -1 14 8 14h67c6 0 11 -2 14 -8l36 -61c2 -4 5 -4 7 0l35 61c3 5 9 8 15 8h62c9 0 13 -7 8 -15l-67 -101c-3 -5 -8 -8 -14 -8h-92zM57 0c-7 0 -12 5 -12 12v553c0 7 5 12 12 12h92c7 0 12 -5 12 -12v-460c0 -3 2 -5 5 -5h192
c7 0 12 -5 12 -12v-76c0 -7 -5 -12 -12 -12h-301z" />
    <glyph glyph-name="uni013C.sc" horiz-adv-x="382" 
d="M57 0c-7 0 -12 5 -12 12v553c0 7 5 12 12 12h92c7 0 12 -5 12 -12v-460c0 -3 2 -5 5 -5h192c7 0 12 -5 12 -12v-76c0 -7 -5 -12 -12 -12h-301zM120 -179c-9 0 -14 5 -9 14l59 103c3 6 9 8 15 8h84c10 0 14 -7 8 -15l-74 -103c-4 -6 -8 -7 -14 -7h-69z" />
    <glyph glyph-name="lslash.sc" horiz-adv-x="562" 
d="M161 105c0 -3 2 -5 5 -5h192c7 0 12 -5 12 -12v-76c0 -7 -5 -12 -12 -12h-301c-7 0 -12 5 -12 12v150c0 4 -3 6 -6 3l-24 -19c-6 -5 -12 -4 -17 2l-35 42c-5 6 -5 12 1 17l78 62c2 1 3 4 3 6v290c0 7 5 12 12 12h92c7 0 12 -5 12 -12v-194c0 -4 3 -6 6 -3l120 95
c6 5 12 4 17 -2l35 -43c5 -6 4 -12 -2 -17l-173 -137c-2 -1 -3 -4 -3 -6v-153z" />
    <glyph glyph-name="m.sc" horiz-adv-x="482" 
d="M57 0c-7 0 -12 5 -12 12v553c0 7 5 12 12 12h91c6 0 11 -3 14 -9l76 -146c2 -3 4 -3 6 0l76 146c3 6 8 9 14 9h91c7 0 12 -5 12 -12v-553c0 -7 -5 -12 -12 -12h-92c-7 0 -12 5 -12 12v393c0 5 -4 6 -6 2l-65 -138c-3 -6 -5 -9 -8 -9s-6 3 -9 9l-66 140c-2 4 -6 3 -6 -2
v-395c0 -7 -5 -12 -12 -12h-92z" />
    <glyph glyph-name="n.sc" horiz-adv-x="464" 
d="M57 0c-7 0 -12 5 -12 12v553c0 7 5 12 12 12h92c6 0 12 -3 14 -9l136 -337c2 -4 6 -3 6 2l-1 332c0 7 5 12 12 12h91c7 0 12 -5 12 -12v-553c0 -7 -5 -12 -12 -12h-93c-6 0 -12 3 -14 9l-135 337c-2 4 -6 3 -6 -2l1 -332c0 -7 -5 -12 -12 -12h-91z" />
    <glyph glyph-name="nacute.sc" horiz-adv-x="464" 
d="M178 651c-9 0 -14 5 -9 14l59 103c3 6 9 8 15 8h84c10 0 14 -7 8 -15l-74 -103c-4 -6 -8 -7 -14 -7h-69zM57 0c-7 0 -12 5 -12 12v553c0 7 5 12 12 12h92c6 0 12 -3 14 -9l136 -337c2 -4 6 -3 6 2l-1 332c0 7 5 12 12 12h91c7 0 12 -5 12 -12v-553c0 -7 -5 -12 -12 -12
h-93c-6 0 -12 3 -14 9l-135 337c-2 4 -6 3 -6 -2l1 -332c0 -7 -5 -12 -12 -12h-91z" />
    <glyph glyph-name="ncaron.sc" horiz-adv-x="464" 
d="M181 637c-6 0 -11 3 -14 8l-65 102c-5 9 -1 14 8 14h67c6 0 11 -2 14 -8l36 -61c2 -4 5 -4 7 0l35 61c3 5 9 8 15 8h62c9 0 13 -7 8 -15l-67 -101c-3 -5 -8 -8 -14 -8h-92zM57 0c-7 0 -12 5 -12 12v553c0 7 5 12 12 12h92c6 0 12 -3 14 -9l136 -337c2 -4 6 -3 6 2l-1 332
c0 7 5 12 12 12h91c7 0 12 -5 12 -12v-553c0 -7 -5 -12 -12 -12h-93c-6 0 -12 3 -14 9l-135 337c-2 4 -6 3 -6 -2l1 -332c0 -7 -5 -12 -12 -12h-91z" />
    <glyph glyph-name="uni0146.sc" horiz-adv-x="464" 
d="M57 0c-7 0 -12 5 -12 12v553c0 7 5 12 12 12h92c6 0 12 -3 14 -9l136 -337c2 -4 6 -3 6 2l-1 332c0 7 5 12 12 12h91c7 0 12 -5 12 -12v-553c0 -7 -5 -12 -12 -12h-93c-6 0 -12 3 -14 9l-135 337c-2 4 -6 3 -6 -2l1 -332c0 -7 -5 -12 -12 -12h-91zM172 -179
c-9 0 -14 5 -9 14l59 103c3 6 9 8 15 8h84c10 0 14 -7 8 -15l-74 -103c-4 -6 -8 -7 -14 -7h-69z" />
    <glyph glyph-name="eng.sc" horiz-adv-x="464" 
d="M304 565c0 7 5 12 12 12h91c7 0 12 -5 12 -12v-565c0 -99 -8 -158 -174 -156c-9 0 -13 5 -13 12v76c0 8 5 11 13 11c52 0 48 27 48 69v12c0 2 0 3 -1 6l-127 316c-2 4 -6 3 -6 -2l1 -332c0 -7 -5 -12 -12 -12h-91c-7 0 -12 5 -12 12v553c0 7 5 12 12 12h92
c6 0 12 -3 14 -9l127 -313c1 -4 3 -4 4 -1s3 5 5 5h1c3 0 5 1 5 5z" />
    <glyph glyph-name="ntilde.sc" horiz-adv-x="464" 
d="M295 661c-19 0 -35 8 -54 19c-18 11 -26 19 -43 19c-14 0 -27 -5 -38 -23c-5 -7 -11 -8 -17 -4l-32 24c-5 4 -8 9 -5 16c19 44 50 62 83 62c24 0 43 -10 62 -22c13 -9 25 -20 43 -20c13 0 27 5 38 23c4 7 9 9 16 4l32 -21c6 -4 7 -12 1 -24c-24 -40 -59 -53 -86 -53z
M57 0c-7 0 -12 5 -12 12v553c0 7 5 12 12 12h92c6 0 12 -3 14 -9l136 -337c2 -4 6 -3 6 2l-1 332c0 7 5 12 12 12h91c7 0 12 -5 12 -12v-553c0 -7 -5 -12 -12 -12h-93c-6 0 -12 3 -14 9l-135 337c-2 4 -6 3 -6 -2l1 -332c0 -7 -5 -12 -12 -12h-91z" />
    <glyph glyph-name="o.sc" horiz-adv-x="428" 
d="M214 -7c-108 0 -178 65 -178 174v243c0 110 70 174 178 174s178 -64 178 -174v-243c0 -109 -70 -174 -178 -174zM214 93c39 0 62 24 62 69v253c0 45 -23 69 -62 69c-38 0 -62 -24 -62 -69v-253c0 -45 24 -69 62 -69z" />
    <glyph glyph-name="oacute.sc" horiz-adv-x="428" 
d="M162 645c-9 0 -14 5 -9 14l59 103c3 6 9 8 15 8h84c10 0 14 -7 8 -15l-74 -103c-4 -6 -8 -7 -14 -7h-69zM214 -7c-108 0 -178 65 -178 174v243c0 110 70 174 178 174s178 -64 178 -174v-243c0 -109 -70 -174 -178 -174zM214 93c39 0 62 24 62 69v253c0 45 -23 69 -62 69
c-38 0 -62 -24 -62 -69v-253c0 -45 24 -69 62 -69z" />
    <glyph glyph-name="ocircumflex.sc" horiz-adv-x="428" 
d="M91 641c-9 0 -13 5 -8 14l65 102c3 5 8 8 14 8h98c6 0 11 -3 14 -8l67 -101c5 -8 2 -15 -7 -15h-69c-6 0 -12 3 -15 8l-34 62c-2 3 -4 3 -6 0l-35 -62c-3 -5 -9 -8 -15 -8h-69zM214 -7c-108 0 -178 65 -178 174v243c0 110 70 174 178 174s178 -64 178 -174v-243
c0 -109 -70 -174 -178 -174zM214 93c39 0 62 24 62 69v253c0 45 -23 69 -62 69c-38 0 -62 -24 -62 -69v-253c0 -45 24 -69 62 -69z" />
    <glyph glyph-name="odieresis.sc" horiz-adv-x="428" 
d="M138 647c-35 0 -61 26 -61 63c0 36 26 62 61 62s59 -26 59 -62c0 -37 -24 -63 -59 -63zM293 647c-36 0 -61 26 -61 63c0 36 25 62 61 62c35 0 59 -26 59 -62c0 -37 -24 -63 -59 -63zM214 -7c-108 0 -178 65 -178 174v243c0 110 70 174 178 174s178 -64 178 -174v-243
c0 -109 -70 -174 -178 -174zM214 93c39 0 62 24 62 69v253c0 45 -23 69 -62 69c-38 0 -62 -24 -62 -69v-253c0 -45 24 -69 62 -69z" />
    <glyph glyph-name="ograve.sc" horiz-adv-x="428" 
d="M255 659c5 -9 0 -14 -9 -14h-69c-6 0 -10 1 -14 7l-74 103c-6 8 -2 15 8 15h84c6 0 12 -2 15 -8zM214 -7c-108 0 -178 65 -178 174v243c0 110 70 174 178 174s178 -64 178 -174v-243c0 -109 -70 -174 -178 -174zM214 93c39 0 62 24 62 69v253c0 45 -23 69 -62 69
c-38 0 -62 -24 -62 -69v-253c0 -45 24 -69 62 -69z" />
    <glyph glyph-name="ohungarumlaut.sc" horiz-adv-x="428" 
d="M113 643c-9 0 -13 5 -9 14l50 102c3 6 8 9 14 9h75c9 0 12 -6 8 -14l-54 -102c-3 -6 -9 -9 -15 -9h-69zM259 643c-9 0 -12 6 -8 14l54 102c3 6 9 9 15 9h70c9 0 12 -6 8 -14l-55 -103c-3 -6 -9 -8 -15 -8h-69zM214 -7c-108 0 -178 65 -178 174v243c0 110 70 174 178 174
s178 -64 178 -174v-243c0 -109 -70 -174 -178 -174zM214 93c39 0 62 24 62 69v253c0 45 -23 69 -62 69c-38 0 -62 -24 -62 -69v-253c0 -45 24 -69 62 -69z" />
    <glyph glyph-name="omacron.sc" horiz-adv-x="428" 
d="M116 656c-7 0 -12 5 -12 12v56c0 7 5 12 12 12h190c7 0 12 -5 12 -12v-56c0 -7 -5 -12 -12 -12h-190zM214 -7c-108 0 -178 65 -178 174v243c0 110 70 174 178 174s178 -64 178 -174v-243c0 -109 -70 -174 -178 -174zM214 93c39 0 62 24 62 69v253c0 45 -23 69 -62 69
c-38 0 -62 -24 -62 -69v-253c0 -45 24 -69 62 -69z" />
    <glyph glyph-name="oslash.sc" horiz-adv-x="459" 
d="M438 687c9 0 12 -6 9 -14l-74 -170c-1 -3 0 -4 1 -6c12 -25 18 -54 18 -87v-243c0 -109 -70 -174 -178 -174c-19 0 -38 2 -55 6c-3 1 -5 -1 -6 -3l-37 -86c-3 -7 -8 -9 -14 -9h-45c-9 0 -12 6 -9 14l47 109c1 2 1 5 -1 7c-37 30 -58 77 -58 136v243c0 110 70 174 178 174
c42 0 77 -9 105 -27c3 -2 6 -1 7 2l52 119c3 7 8 9 14 9h46zM152 171c0 -5 4 -6 6 -2l115 265c1 3 1 4 0 6c-8 29 -28 44 -59 44c-38 0 -62 -24 -62 -69v-244zM276 162v102c0 5 -4 6 -6 2l-72 -166c-1 -3 0 -5 4 -6s8 -1 12 -1c39 0 62 24 62 69z" />
    <glyph glyph-name="otilde.sc" horiz-adv-x="428" 
d="M279 655c-19 0 -35 8 -54 19c-18 11 -26 19 -43 19c-14 0 -27 -5 -38 -23c-5 -7 -11 -8 -17 -4l-32 24c-5 4 -8 9 -5 16c19 44 50 62 83 62c24 0 43 -10 62 -22c13 -9 25 -20 43 -20c13 0 27 5 38 23c4 7 9 9 16 4l32 -21c6 -4 7 -12 1 -24c-24 -40 -59 -53 -86 -53z
M214 -7c-108 0 -178 65 -178 174v243c0 110 70 174 178 174s178 -64 178 -174v-243c0 -109 -70 -174 -178 -174zM214 93c39 0 62 24 62 69v253c0 45 -23 69 -62 69c-38 0 -62 -24 -62 -69v-253c0 -45 24 -69 62 -69z" />
    <glyph glyph-name="oe.sc" horiz-adv-x="628" 
d="M601 489c0 -7 -5 -12 -12 -12h-192c-3 0 -5 -2 -5 -5v-128c0 -3 2 -5 5 -5h112c7 0 12 -5 12 -12v-76c0 -7 -5 -12 -12 -12h-112c-3 0 -5 -2 -5 -5v-129c0 -3 2 -5 5 -5h192c7 0 12 -5 12 -12v-76c0 -7 -5 -12 -12 -12h-301c-7 0 -12 5 -12 12v4c0 4 -3 6 -6 3
c-23 -17 -51 -26 -85 -26c-79 0 -149 65 -149 174v243c0 110 70 174 149 174c34 0 62 -9 85 -26c3 -3 6 -2 6 1v6c0 7 5 12 12 12h301c7 0 12 -5 12 -12v-76zM214 93c39 0 62 24 62 69v253c0 45 -23 69 -62 69c-38 0 -62 -24 -62 -69v-253c0 -45 24 -69 62 -69z" />
    <glyph glyph-name="p.sc" horiz-adv-x="417" 
d="M229 578c99 0 167 -72 167 -176c0 -101 -66 -169 -162 -169h-72c-3 0 -5 -2 -5 -5v-216c0 -7 -5 -12 -12 -12h-92c-7 0 -12 5 -12 12v554c0 7 5 12 12 12h176zM210 323c41 0 70 28 70 77c0 50 -29 78 -70 78h-48c-3 0 -5 -2 -5 -5v-145c0 -3 2 -5 5 -5h48z" />
    <glyph glyph-name="thorn.sc" horiz-adv-x="417" 
d="M228 462c99 0 167 -72 167 -175s-65 -171 -161 -171h-72c-3 0 -5 -2 -5 -5v-99c0 -7 -5 -12 -12 -12h-92c-7 0 -12 5 -12 12v553c0 7 5 12 12 12h92c7 0 12 -5 12 -12v-98c0 -3 2 -5 5 -5h66zM209 208c41 0 70 27 70 76c0 50 -29 77 -70 77h-47c-3 0 -5 -2 -5 -5v-143
c0 -3 2 -5 5 -5h47z" />
    <glyph glyph-name="q.sc" horiz-adv-x="418" 
d="M209 584c105 0 174 -67 174 -179v-233c0 -87 -42 -148 -112 -170c-3 -1 -4 -2 -4 -5v-65c0 -7 -5 -12 -12 -12h-93c-7 0 -12 5 -12 12v65c0 3 -1 4 -4 5c-68 23 -110 84 -110 170v233c0 112 69 179 173 179zM267 160v257c0 44 -24 67 -58 67s-57 -23 -57 -67v-257
c0 -44 23 -67 57 -67s58 23 58 67z" />
    <glyph glyph-name="r.sc" horiz-adv-x="424" 
d="M297 0c-7 0 -11 4 -13 10l-72 225c-1 2 -2 4 -5 4h-41c-3 0 -5 -2 -5 -5v-222c0 -7 -5 -12 -12 -12h-92c-7 0 -12 5 -12 12v554c0 7 5 12 12 12h175c100 0 168 -72 168 -174c0 -66 -30 -118 -79 -145c-3 -1 -3 -3 -2 -6l83 -239c3 -9 -2 -14 -10 -14h-95zM166 478
c-3 0 -5 -2 -5 -5v-139c0 -3 2 -5 5 -5h48c41 0 70 27 70 74s-29 75 -70 75h-48z" />
    <glyph glyph-name="racute.sc" horiz-adv-x="424" 
d="M304 766c10 0 14 -7 8 -15l-74 -103c-4 -6 -8 -7 -14 -7h-69c-9 0 -14 5 -9 14l59 103c3 6 9 8 15 8h84zM297 0c-7 0 -11 4 -13 10l-72 225c-1 2 -2 4 -5 4h-41c-3 0 -5 -2 -5 -5v-222c0 -7 -5 -12 -12 -12h-92c-7 0 -12 5 -12 12v554c0 7 5 12 12 12h175
c100 0 168 -72 168 -174c0 -66 -30 -118 -79 -145c-3 -1 -3 -3 -2 -6l83 -239c3 -9 -2 -14 -10 -14h-95zM166 478c-3 0 -5 -2 -5 -5v-139c0 -3 2 -5 5 -5h48c41 0 70 27 70 74s-29 75 -70 75h-48z" />
    <glyph glyph-name="rcaron.sc" horiz-adv-x="424" 
d="M264 635c-3 -5 -8 -8 -14 -8h-92c-6 0 -11 3 -14 8l-65 102c-5 9 -1 14 8 14h67c6 0 11 -2 14 -8l36 -61c2 -4 5 -4 7 0l35 61c3 5 9 8 15 8h62c9 0 12 -7 7 -15zM297 0c-7 0 -11 4 -13 10l-72 225c-1 2 -2 4 -5 4h-41c-3 0 -5 -2 -5 -5v-222c0 -7 -5 -12 -12 -12h-92
c-7 0 -12 5 -12 12v554c0 7 5 12 12 12h175c100 0 168 -72 168 -174c0 -66 -30 -118 -79 -145c-3 -1 -3 -3 -2 -6l83 -239c3 -9 -2 -14 -10 -14h-95zM166 478c-3 0 -5 -2 -5 -5v-139c0 -3 2 -5 5 -5h48c41 0 70 27 70 74s-29 75 -70 75h-48z" />
    <glyph glyph-name="uni0157.sc" horiz-adv-x="424" 
d="M166 239c-3 0 -5 -2 -5 -5v-222c0 -7 -5 -12 -12 -12h-92c-7 0 -12 5 -12 12v554c0 7 5 12 12 12h175c100 0 168 -72 168 -174c0 -66 -30 -118 -79 -145c-3 -1 -3 -3 -2 -6l83 -239c3 -9 -2 -14 -10 -14h-95c-7 0 -11 4 -13 10l-72 225c-1 2 -2 4 -5 4h-41zM214 478h-48
c-3 0 -5 -2 -5 -5v-139c0 -3 2 -5 5 -5h48c41 0 70 27 70 74s-29 75 -70 75zM154 -179c-9 0 -14 5 -9 14l59 103c3 6 9 8 15 8h84c10 0 14 -7 8 -15l-74 -103c-4 -6 -8 -7 -14 -7h-69z" />
    <glyph glyph-name="s.sc" horiz-adv-x="407" 
d="M205 -7c-102 0 -171 63 -171 151v18c0 7 5 12 12 12h90c7 0 12 -4 12 -9v-9c0 -40 24 -64 58 -64c33 0 58 24 58 58c0 38 -33 57 -93 94c-68 44 -140 90 -140 185s69 155 171 155c104 0 172 -64 172 -158v-11c0 -7 -5 -12 -12 -12h-90c-7 0 -12 4 -12 10v10
c0 38 -24 61 -58 61c-33 0 -56 -20 -56 -56c0 -31 21 -47 88 -92c94 -63 145 -102 145 -184c0 -97 -72 -159 -174 -159z" />
    <glyph glyph-name="sacute.sc" horiz-adv-x="407" 
d="M149 648c-9 0 -14 5 -9 14l59 103c3 6 9 8 15 8h84c10 0 14 -7 8 -15l-74 -103c-4 -6 -8 -7 -14 -7h-69zM205 -7c-102 0 -171 63 -171 151v18c0 7 5 12 12 12h90c7 0 12 -4 12 -9v-9c0 -40 24 -64 58 -64c33 0 58 24 58 58c0 38 -33 57 -93 94c-68 44 -140 90 -140 185
s69 155 171 155c104 0 172 -64 172 -158v-11c0 -7 -5 -12 -12 -12h-90c-7 0 -12 4 -12 10v10c0 38 -24 61 -58 61c-33 0 -56 -20 -56 -56c0 -31 21 -47 88 -92c94 -63 145 -102 145 -184c0 -97 -72 -159 -174 -159z" />
    <glyph glyph-name="scaron.sc" horiz-adv-x="407" 
d="M152 634c-6 0 -11 3 -14 8l-65 102c-5 9 -1 14 8 14h67c6 0 11 -2 14 -8l36 -61c2 -4 5 -4 7 0l35 61c3 5 9 8 15 8h62c9 0 13 -7 8 -15l-67 -101c-3 -5 -8 -8 -14 -8h-92zM205 -7c-102 0 -171 63 -171 151v18c0 7 5 12 12 12h90c7 0 12 -4 12 -9v-9c0 -40 24 -64 58 -64
c33 0 58 24 58 58c0 38 -33 57 -93 94c-68 44 -140 90 -140 185s69 155 171 155c104 0 172 -64 172 -158v-11c0 -7 -5 -12 -12 -12h-90c-7 0 -12 4 -12 10v10c0 38 -24 61 -58 61c-33 0 -56 -20 -56 -56c0 -31 21 -47 88 -92c94 -63 145 -102 145 -184
c0 -97 -72 -159 -174 -159z" />
    <glyph glyph-name="scedilla.sc" horiz-adv-x="407" 
d="M379 152c0 -82 -51 -139 -129 -155c-4 -1 -5 -3 -2 -6c34 -37 43 -77 35 -114c-15 -69 -87 -65 -124 -55c-7 2 -9 6 -8 14l5 36c1 8 6 10 14 9c17 -3 34 5 39 28c5 27 -12 57 -41 85c-1 1 -3 2 -5 3c-78 15 -129 72 -129 147v18c0 7 5 12 12 12h90c7 0 12 -4 12 -9v-9
c0 -40 24 -64 58 -64c33 0 58 24 58 58c0 38 -33 57 -93 94c-68 44 -140 90 -140 185s69 155 171 155c104 0 172 -64 172 -158v-11c0 -7 -5 -12 -12 -12h-90c-7 0 -12 4 -12 10v10c0 38 -24 61 -58 61c-33 0 -56 -20 -56 -56c0 -31 21 -47 88 -92c94 -63 145 -102 145 -184z
" />
    <glyph glyph-name="uni0219.sc" horiz-adv-x="407" 
d="M205 -7c-102 0 -171 63 -171 151v18c0 7 5 12 12 12h90c7 0 12 -4 12 -9v-9c0 -40 24 -64 58 -64c33 0 58 24 58 58c0 38 -33 57 -93 94c-68 44 -140 90 -140 185s69 155 171 155c104 0 172 -64 172 -158v-11c0 -7 -5 -12 -12 -12h-90c-7 0 -12 4 -12 10v10
c0 38 -24 61 -58 61c-33 0 -56 -20 -56 -56c0 -31 21 -47 88 -92c94 -63 145 -102 145 -184c0 -97 -72 -159 -174 -159zM141 -186c-9 0 -14 5 -9 14l59 103c3 6 9 8 15 8h84c10 0 14 -7 8 -15l-74 -103c-4 -6 -8 -7 -14 -7h-69z" />
    <glyph glyph-name="t.sc" horiz-adv-x="406" 
d="M376 577c7 0 12 -5 12 -12v-76c0 -7 -5 -12 -12 -12h-112c-3 0 -5 -2 -5 -5v-460c0 -7 -5 -12 -12 -12h-92c-7 0 -12 5 -12 12v460c0 3 -2 5 -5 5h-108c-7 0 -12 5 -12 12v76c0 7 5 12 12 12h346z" />
    <glyph glyph-name="tbar.sc" horiz-adv-x="406" 
d="M388 489c0 -7 -5 -12 -12 -12h-112c-3 0 -5 -2 -5 -5v-106c0 -3 2 -5 5 -5h71c7 0 12 -5 12 -12v-47c0 -7 -5 -12 -12 -12h-71c-3 0 -5 -2 -5 -5v-273c0 -7 -5 -12 -12 -12h-92c-7 0 -12 5 -12 12v273c0 3 -2 5 -5 5h-68c-7 0 -12 5 -12 12v47c0 7 5 12 12 12h68
c3 0 5 2 5 5v106c0 3 -2 5 -5 5h-108c-7 0 -12 5 -12 12v76c0 7 5 12 12 12h346c7 0 12 -5 12 -12v-76z" />
    <glyph glyph-name="tcaron.sc" horiz-adv-x="406" 
d="M261 635c-3 -5 -8 -8 -14 -8h-92c-6 0 -11 3 -14 8l-65 102c-5 9 -1 14 8 14h67c6 0 11 -2 14 -8l36 -61c2 -4 5 -4 7 0l35 61c3 5 9 8 15 8h62c9 0 12 -7 7 -15zM376 577c7 0 12 -5 12 -12v-76c0 -7 -5 -12 -12 -12h-112c-3 0 -5 -2 -5 -5v-460c0 -7 -5 -12 -12 -12h-92
c-7 0 -12 5 -12 12v460c0 3 -2 5 -5 5h-108c-7 0 -12 5 -12 12v76c0 7 5 12 12 12h346z" />
    <glyph glyph-name="uni0163.sc" horiz-adv-x="406" 
d="M264 477c-3 0 -5 -2 -5 -5v-460c0 -7 -4 -12 -10 -12h-2c-4 0 -5 -3 -2 -6c31 -36 40 -75 32 -111c-15 -69 -87 -65 -124 -55c-7 2 -9 6 -8 14l5 36c1 8 6 10 14 9c17 -3 34 5 39 28c4 26 -11 55 -38 82c-2 2 -4 3 -6 3h-4c-7 0 -12 5 -12 12v460c0 3 -2 5 -5 5h-108
c-7 0 -12 5 -12 12v76c0 7 5 12 12 12h346c7 0 12 -5 12 -12v-76c0 -7 -5 -12 -12 -12h-112z" />
    <glyph glyph-name="uni021B.sc" horiz-adv-x="407" 
d="M18 565c0 7 5 12 12 12h346c7 0 12 -5 12 -12v-76c0 -7 -5 -12 -12 -12h-112c-3 0 -5 -2 -5 -5v-460c0 -7 -5 -12 -12 -12h-92c-7 0 -12 5 -12 12v460c0 3 -2 5 -5 5h-108c-7 0 -12 5 -12 12v76zM116 -180c-9 0 -14 5 -9 14l59 103c3 6 9 8 15 8h84c10 0 14 -7 8 -15
l-74 -103c-4 -6 -8 -7 -14 -7h-69z" />
    <glyph glyph-name="u.sc" horiz-adv-x="433" 
d="M217 -7c-106 0 -176 68 -176 180v392c0 7 5 12 12 12h92c7 0 12 -5 12 -12v-400c0 -45 24 -72 60 -72s59 27 59 72v400c0 7 5 12 12 12h92c7 0 12 -5 12 -12v-392c0 -112 -69 -180 -175 -180z" />
    <glyph glyph-name="uacute.sc" horiz-adv-x="433" 
d="M165 651c-9 0 -14 5 -9 14l59 103c3 6 9 8 15 8h84c10 0 14 -7 8 -15l-74 -103c-4 -6 -8 -7 -14 -7h-69zM217 -7c-106 0 -176 68 -176 180v392c0 7 5 12 12 12h92c7 0 12 -5 12 -12v-400c0 -45 24 -72 60 -72s59 27 59 72v400c0 7 5 12 12 12h92c7 0 12 -5 12 -12v-392
c0 -112 -69 -180 -175 -180z" />
    <glyph glyph-name="ucircumflex.sc" horiz-adv-x="433" 
d="M94 647c-9 0 -13 5 -8 14l65 102c3 5 8 8 14 8h98c6 0 11 -3 14 -8l67 -101c5 -8 2 -15 -7 -15h-69c-6 0 -12 3 -15 8l-34 62c-2 3 -4 3 -6 0l-35 -62c-3 -5 -9 -8 -15 -8h-69zM217 -7c-106 0 -176 68 -176 180v392c0 7 5 12 12 12h92c7 0 12 -5 12 -12v-400
c0 -45 24 -72 60 -72s59 27 59 72v400c0 7 5 12 12 12h92c7 0 12 -5 12 -12v-392c0 -112 -69 -180 -175 -180z" />
    <glyph glyph-name="udieresis.sc" horiz-adv-x="433" 
d="M141 653c-35 0 -61 26 -61 63c0 36 26 62 61 62s59 -26 59 -62c0 -37 -24 -63 -59 -63zM296 653c-36 0 -61 26 -61 63c0 36 25 62 61 62c35 0 59 -26 59 -62c0 -37 -24 -63 -59 -63zM217 -7c-106 0 -176 68 -176 180v392c0 7 5 12 12 12h92c7 0 12 -5 12 -12v-400
c0 -45 24 -72 60 -72s59 27 59 72v400c0 7 5 12 12 12h92c7 0 12 -5 12 -12v-392c0 -112 -69 -180 -175 -180z" />
    <glyph glyph-name="ugrave.sc" horiz-adv-x="433" 
d="M258 665c5 -9 0 -14 -9 -14h-69c-6 0 -10 1 -14 7l-74 103c-6 8 -2 15 8 15h84c6 0 12 -2 15 -8zM217 -7c-106 0 -176 68 -176 180v392c0 7 5 12 12 12h92c7 0 12 -5 12 -12v-400c0 -45 24 -72 60 -72s59 27 59 72v400c0 7 5 12 12 12h92c7 0 12 -5 12 -12v-392
c0 -112 -69 -180 -175 -180z" />
    <glyph glyph-name="uhungarumlaut.sc" horiz-adv-x="433" 
d="M116 649c-9 0 -13 5 -9 14l50 102c3 6 8 9 14 9h75c9 0 12 -6 8 -14l-54 -102c-3 -6 -9 -9 -15 -9h-69zM262 649c-9 0 -12 6 -8 14l54 102c3 6 9 9 15 9h70c9 0 12 -6 8 -14l-55 -103c-3 -6 -9 -8 -15 -8h-69zM217 -7c-106 0 -176 68 -176 180v392c0 7 5 12 12 12h92
c7 0 12 -5 12 -12v-400c0 -45 24 -72 60 -72s59 27 59 72v400c0 7 5 12 12 12h92c7 0 12 -5 12 -12v-392c0 -112 -69 -180 -175 -180z" />
    <glyph glyph-name="umacron.sc" horiz-adv-x="433" 
d="M119 662c-7 0 -12 5 -12 12v56c0 7 5 12 12 12h190c7 0 12 -5 12 -12v-56c0 -7 -5 -12 -12 -12h-190zM217 -7c-106 0 -176 68 -176 180v392c0 7 5 12 12 12h92c7 0 12 -5 12 -12v-400c0 -45 24 -72 60 -72s59 27 59 72v400c0 7 5 12 12 12h92c7 0 12 -5 12 -12v-392
c0 -112 -69 -180 -175 -180z" />
    <glyph glyph-name="uogonek.sc" horiz-adv-x="433" 
d="M276 565c0 7 5 12 12 12h92c7 0 12 -5 12 -12v-392c0 -98 -53 -161 -136 -176c-2 -1 -4 -2 -5 -3c-27 -28 -42 -56 -38 -82c5 -24 22 -31 39 -28c8 1 13 -1 14 -9l5 -36c1 -8 -1 -12 -8 -14c-37 -10 -109 -14 -124 55c-8 36 1 75 32 112c3 3 2 5 -2 6
c-79 17 -128 81 -128 175v392c0 7 5 12 12 12h92c7 0 12 -5 12 -12v-400c0 -45 24 -72 60 -72s59 27 59 72v400z" />
    <glyph glyph-name="uring.sc" horiz-adv-x="433" 
d="M217 641c-60 0 -107 48 -107 109c0 60 47 107 107 107s107 -47 107 -107c0 -61 -47 -109 -107 -109zM217 696c29 0 52 24 52 54s-23 54 -52 54s-52 -24 -52 -54s23 -54 52 -54zM217 -7c-106 0 -176 68 -176 180v392c0 7 5 12 12 12h92c7 0 12 -5 12 -12v-400
c0 -45 24 -72 60 -72s59 27 59 72v400c0 7 5 12 12 12h92c7 0 12 -5 12 -12v-392c0 -112 -69 -180 -175 -180z" />
    <glyph glyph-name="v.sc" horiz-adv-x="436" 
d="M172 0c-7 0 -12 3 -14 10l-134 554c-2 9 3 13 11 13h100c7 0 12 -3 13 -11l70 -371c1 -4 5 -4 6 0l67 371c1 8 6 11 13 11h97c8 0 13 -4 11 -13l-134 -554c-2 -7 -7 -10 -14 -10h-92z" />
    <glyph glyph-name="w.sc" horiz-adv-x="614" 
d="M158 0c-7 0 -12 4 -13 11l-121 553c-2 9 3 13 11 13h95c7 0 12 -3 13 -11l57 -342c1 -4 5 -4 6 0l54 342c1 8 6 11 13 11h73c7 0 12 -3 13 -11l57 -341c1 -4 5 -4 6 0l51 341c1 8 6 11 13 11h94c8 0 12 -4 10 -13l-114 -553c-1 -7 -6 -11 -13 -11h-82c-7 0 -12 3 -13 11
l-56 338c-1 4 -5 4 -6 0l-53 -338c-1 -8 -6 -11 -13 -11h-82z" />
    <glyph glyph-name="wacute.sc" horiz-adv-x="614" 
d="M253 641c-9 0 -14 5 -9 14l59 103c3 6 9 8 15 8h84c10 0 14 -7 8 -15l-74 -103c-4 -6 -8 -7 -14 -7h-69zM158 0c-7 0 -12 4 -13 11l-121 553c-2 9 3 13 11 13h95c7 0 12 -3 13 -11l57 -342c1 -4 5 -4 6 0l54 342c1 8 6 11 13 11h73c7 0 12 -3 13 -11l57 -341
c1 -4 5 -4 6 0l51 341c1 8 6 11 13 11h94c8 0 12 -4 10 -13l-114 -553c-1 -7 -6 -11 -13 -11h-82c-7 0 -12 3 -13 11l-56 338c-1 4 -5 4 -6 0l-53 -338c-1 -8 -6 -11 -13 -11h-82z" />
    <glyph glyph-name="wcircumflex.sc" horiz-adv-x="614" 
d="M182 637c-9 0 -13 5 -8 14l65 102c3 5 8 8 14 8h98c6 0 11 -3 14 -8l67 -101c5 -8 2 -15 -7 -15h-69c-6 0 -12 3 -15 8l-34 62c-2 3 -4 3 -6 0l-35 -62c-3 -5 -9 -8 -15 -8h-69zM158 0c-7 0 -12 4 -13 11l-121 553c-2 9 3 13 11 13h95c7 0 12 -3 13 -11l57 -342
c1 -4 5 -4 6 0l54 342c1 8 6 11 13 11h73c7 0 12 -3 13 -11l57 -341c1 -4 5 -4 6 0l51 341c1 8 6 11 13 11h94c8 0 12 -4 10 -13l-114 -553c-1 -7 -6 -11 -13 -11h-82c-7 0 -12 3 -13 11l-56 338c-1 4 -5 4 -6 0l-53 -338c-1 -8 -6 -11 -13 -11h-82z" />
    <glyph glyph-name="wdieresis.sc" horiz-adv-x="614" 
d="M229 643c-35 0 -61 26 -61 63c0 36 26 62 61 62s59 -26 59 -62c0 -37 -24 -63 -59 -63zM384 643c-36 0 -61 26 -61 63c0 36 25 62 61 62c35 0 59 -26 59 -62c0 -37 -24 -63 -59 -63zM158 0c-7 0 -12 4 -13 11l-121 553c-2 9 3 13 11 13h95c7 0 12 -3 13 -11l57 -342
c1 -4 5 -4 6 0l54 342c1 8 6 11 13 11h73c7 0 12 -3 13 -11l57 -341c1 -4 5 -4 6 0l51 341c1 8 6 11 13 11h94c8 0 12 -4 10 -13l-114 -553c-1 -7 -6 -11 -13 -11h-82c-7 0 -12 3 -13 11l-56 338c-1 4 -5 4 -6 0l-53 -338c-1 -8 -6 -11 -13 -11h-82z" />
    <glyph glyph-name="wgrave.sc" horiz-adv-x="614" 
d="M346 655c5 -9 0 -14 -9 -14h-69c-6 0 -10 1 -14 7l-74 103c-6 8 -2 15 8 15h84c6 0 12 -2 15 -8zM158 0c-7 0 -12 4 -13 11l-121 553c-2 9 3 13 11 13h95c7 0 12 -3 13 -11l57 -342c1 -4 5 -4 6 0l54 342c1 8 6 11 13 11h73c7 0 12 -3 13 -11l57 -341c1 -4 5 -4 6 0
l51 341c1 8 6 11 13 11h94c8 0 12 -4 10 -13l-114 -553c-1 -7 -6 -11 -13 -11h-82c-7 0 -12 3 -13 11l-56 338c-1 4 -5 4 -6 0l-53 -338c-1 -8 -6 -11 -13 -11h-82z" />
    <glyph glyph-name="x.sc" horiz-adv-x="426" 
d="M36 0c-9 0 -13 5 -9 14l122 272c1 3 1 3 0 6l-122 271c-4 9 0 14 9 14h95c6 0 11 -2 14 -9l66 -156c2 -4 4 -5 6 0l65 156c2 6 8 9 14 9h94c9 0 13 -5 9 -14l-123 -272c-1 -3 -1 -3 0 -6l123 -271c4 -9 0 -14 -9 -14h-94c-6 0 -12 3 -14 9l-65 156c-2 4 -4 4 -6 0
l-67 -156c-3 -7 -8 -9 -14 -9h-94z" />
    <glyph glyph-name="y.sc" horiz-adv-x="424" 
d="M165 1c-7 0 -12 5 -12 12v212c0 2 0 3 -1 6l-126 332c-3 9 1 14 10 14h97c7 0 11 -4 13 -10l63 -195c1 -5 5 -5 6 0l63 195c2 6 6 10 13 10h97c9 0 13 -5 10 -14l-128 -332c-1 -3 -1 -4 -1 -6v-212c0 -7 -5 -12 -12 -12h-92z" />
    <glyph glyph-name="yacute.sc" horiz-adv-x="424" 
d="M160 641c-9 0 -14 5 -9 14l59 103c3 6 9 8 15 8h84c10 0 14 -7 8 -15l-74 -103c-4 -6 -8 -7 -14 -7h-69zM165 1c-7 0 -12 5 -12 12v212c0 2 0 3 -1 6l-126 332c-3 9 1 14 10 14h97c7 0 11 -4 13 -10l63 -195c1 -5 5 -5 6 0l63 195c2 6 6 10 13 10h97c9 0 13 -5 10 -14
l-128 -332c-1 -3 -1 -4 -1 -6v-212c0 -7 -5 -12 -12 -12h-92z" />
    <glyph glyph-name="ycircumflex.sc" horiz-adv-x="424" 
d="M89 637c-9 0 -13 5 -8 14l65 102c3 5 8 8 14 8h98c6 0 11 -3 14 -8l67 -101c5 -8 2 -15 -7 -15h-69c-6 0 -12 3 -15 8l-34 62c-2 3 -4 3 -6 0l-35 -62c-3 -5 -9 -8 -15 -8h-69zM165 1c-7 0 -12 5 -12 12v212c0 2 0 3 -1 6l-126 332c-3 9 1 14 10 14h97c7 0 11 -4 13 -10
l63 -195c1 -5 5 -5 6 0l63 195c2 6 6 10 13 10h97c9 0 13 -5 10 -14l-128 -332c-1 -3 -1 -4 -1 -6v-212c0 -7 -5 -12 -12 -12h-92z" />
    <glyph glyph-name="ydieresis.sc" horiz-adv-x="424" 
d="M136 643c-35 0 -61 26 -61 63c0 36 26 62 61 62s59 -26 59 -62c0 -37 -24 -63 -59 -63zM291 643c-36 0 -61 26 -61 63c0 36 25 62 61 62c35 0 59 -26 59 -62c0 -37 -24 -63 -59 -63zM165 1c-7 0 -12 5 -12 12v212c0 2 0 3 -1 6l-126 332c-3 9 1 14 10 14h97
c7 0 11 -4 13 -10l63 -195c1 -5 5 -5 6 0l63 195c2 6 6 10 13 10h97c9 0 13 -5 10 -14l-128 -332c-1 -3 -1 -4 -1 -6v-212c0 -7 -5 -12 -12 -12h-92z" />
    <glyph glyph-name="ygrave.sc" horiz-adv-x="424" 
d="M253 655c5 -9 0 -14 -9 -14h-69c-6 0 -10 1 -14 7l-74 103c-6 8 -2 15 8 15h84c6 0 12 -2 15 -8zM165 1c-7 0 -12 5 -12 12v212c0 2 0 3 -1 6l-126 332c-3 9 1 14 10 14h97c7 0 11 -4 13 -10l63 -195c1 -5 5 -5 6 0l63 195c2 6 6 10 13 10h97c9 0 13 -5 10 -14l-128 -332
c-1 -3 -1 -4 -1 -6v-212c0 -7 -5 -12 -12 -12h-92z" />
    <glyph glyph-name="z.sc" horiz-adv-x="373" 
d="M33 0c-7 0 -12 5 -12 12v80c0 5 1 10 4 15l204 364c2 4 0 6 -4 6h-192c-7 0 -12 5 -12 12v76c0 7 5 12 12 12h304c7 0 12 -5 12 -12v-80c0 -5 -1 -10 -4 -15l-205 -364c-2 -4 0 -6 4 -6h193c7 0 12 -5 12 -12v-76c0 -7 -5 -12 -12 -12h-304z" />
    <glyph glyph-name="zacute.sc" horiz-adv-x="373" 
d="M133 652c-9 0 -14 5 -9 14l59 103c3 6 9 8 15 8h84c10 0 14 -7 8 -15l-74 -103c-4 -6 -8 -7 -14 -7h-69zM33 0c-7 0 -12 5 -12 12v80c0 5 1 10 4 15l204 364c2 4 0 6 -4 6h-192c-7 0 -12 5 -12 12v76c0 7 5 12 12 12h304c7 0 12 -5 12 -12v-80c0 -5 -1 -10 -4 -15
l-205 -364c-2 -4 0 -6 4 -6h193c7 0 12 -5 12 -12v-76c0 -7 -5 -12 -12 -12h-304z" />
    <glyph glyph-name="zcaron.sc" horiz-adv-x="373" 
d="M136 638c-6 0 -11 3 -14 8l-65 102c-5 9 -1 14 8 14h67c6 0 11 -2 14 -8l36 -61c2 -4 5 -4 7 0l35 61c3 5 9 8 15 8h62c9 0 13 -7 8 -15l-67 -101c-3 -5 -8 -8 -14 -8h-92zM33 0c-7 0 -12 5 -12 12v80c0 5 1 10 4 15l204 364c2 4 0 6 -4 6h-192c-7 0 -12 5 -12 12v76
c0 7 5 12 12 12h304c7 0 12 -5 12 -12v-80c0 -5 -1 -10 -4 -15l-205 -364c-2 -4 0 -6 4 -6h193c7 0 12 -5 12 -12v-76c0 -7 -5 -12 -12 -12h-304z" />
    <glyph glyph-name="zdotaccent.sc" horiz-adv-x="373" 
d="M185 646c-33 0 -56 24 -56 58s23 57 56 57s54 -23 54 -57s-21 -58 -54 -58zM33 0c-7 0 -12 5 -12 12v80c0 5 1 10 4 15l204 364c2 4 0 6 -4 6h-192c-7 0 -12 5 -12 12v76c0 7 5 12 12 12h304c7 0 12 -5 12 -12v-80c0 -5 -1 -10 -4 -15l-205 -364c-2 -4 0 -6 4 -6h193
c7 0 12 -5 12 -12v-76c0 -7 -5 -12 -12 -12h-304z" />
    <glyph glyph-name="ordfeminine" unicode="&#xaa;" horiz-adv-x="284" 
d="M142 565h33c3 0 5 2 5 5v21c0 31 -14 51 -41 51c-17 0 -33 -10 -38 -27c-2 -7 -6 -10 -13 -10l-54 2c-7 0 -12 5 -11 13c7 53 53 88 114 88c73 0 119 -43 119 -109v-221c0 -7 -5 -12 -12 -12h-52c-7 0 -12 4 -12 11v2c0 4 -3 6 -6 2c-15 -14 -34 -20 -58 -20
c-40 0 -101 15 -101 101c0 82 55 103 127 103zM131 423c25 0 49 14 49 45v31c0 3 -2 5 -5 5h-32c-30 0 -51 -14 -51 -43c0 -28 16 -38 39 -38zM14 306c0 7 5 12 12 12h227c7 0 12 -5 12 -12v-39c0 -7 -5 -12 -12 -12h-227c-7 0 -12 5 -12 12v39z" />
    <glyph glyph-name="ordmasculine" unicode="&#xba;" horiz-adv-x="290" 
d="M144 360c-74 0 -119 41 -119 108v133c0 63 45 107 119 107s118 -44 118 -107v-133c0 -67 -44 -108 -118 -108zM144 426c24 0 42 20 42 47v121c0 28 -18 48 -42 48s-42 -20 -42 -48v-121c0 -27 18 -47 42 -47zM32 255c-7 0 -12 5 -12 12v39c0 7 5 12 12 12h227
c7 0 12 -5 12 -12v-39c0 -7 -5 -12 -12 -12h-227z" />
    <glyph glyph-name="uni0394" unicode="&#x394;" horiz-adv-x="553" 
d="M37 0c-7 0 -12 5 -12 12v80c0 5 0 9 2 15l204 583c2 6 6 10 13 10h64c7 0 11 -4 13 -10l205 -584c2 -6 2 -10 2 -15v-79c0 -7 -5 -12 -12 -12h-479zM140 106c-1 -4 1 -6 4 -6h265c3 0 5 2 4 6l-133 436c-1 5 -5 5 -6 0z" />
    <glyph glyph-name="uni03A9" unicode="&#x3a9;" horiz-adv-x="491" 
d="M54 0c-7 0 -12 5 -12 12v76c0 7 5 12 12 12h41c4 0 5 3 2 6c-26 29 -42 70 -42 119v293c0 115 76 190 191 190s192 -75 192 -190v-293c0 -49 -16 -90 -43 -119c-3 -3 -1 -6 3 -6h39c7 0 12 -5 12 -12v-76c0 -7 -5 -12 -12 -12h-161c-7 0 -12 5 -12 12v77c0 7 4 11 10 14
c27 10 48 40 48 81v339c0 50 -30 85 -76 85c-45 0 -75 -35 -75 -85v-339c0 -41 20 -71 46 -80c6 -3 10 -7 10 -14v-78c0 -7 -5 -12 -12 -12h-161z" />
    <glyph glyph-name="uni03BC" unicode="&#x3bc;" horiz-adv-x="443" 
d="M281 499c0 7 5 12 12 12h92c7 0 12 -5 12 -12v-487c0 -7 -5 -12 -12 -12h-92c-7 0 -12 5 -12 12v22c0 4 -3 6 -6 2c-22 -33 -55 -43 -93 -43h-15c-3 1 -5 -1 -5 -4v-177c0 -7 -5 -12 -12 -12h-92c-7 0 -12 5 -12 12v687c0 7 5 12 12 12h92c7 0 12 -5 12 -12v-332
c0 -50 20 -75 58 -75s61 30 61 80v327z" />
    <glyph glyph-name="pi" unicode="&#x3c0;" horiz-adv-x="527" 
d="M501 424c0 -7 -5 -12 -12 -12h-43c-3 0 -5 -2 -5 -5v-256c0 -49 18 -52 40 -52c8 1 12 -3 12 -11v-76c0 -7 -4 -12 -12 -12c-64 -2 -158 -9 -156 91v316c0 3 -2 5 -5 5h-111c-3 0 -5 -2 -5 -5v-395c0 -7 -5 -12 -12 -12h-92c-7 0 -12 5 -12 12v395c0 3 -2 5 -5 5h-44
c-7 0 -12 5 -12 12v75c0 7 5 12 12 12h450c7 0 12 -5 12 -12v-75z" />
    <glyph glyph-name="zero" unicode="0" horiz-adv-x="430" 
d="M214 -11c-112 0 -186 78 -186 194v334c0 116 74 194 186 194c113 0 188 -78 188 -194v-334c0 -116 -75 -194 -188 -194zM214 90c44 0 72 34 72 86v348c0 52 -28 86 -72 86c-42 0 -70 -34 -70 -86v-348c0 -52 28 -86 70 -86z" />
    <glyph glyph-name="one" unicode="1" horiz-adv-x="265" 
d="M101 696c5 2 10 4 15 4h96c7 0 12 -5 12 -12v-676c0 -7 -5 -12 -12 -12h-92c-7 0 -12 5 -12 12v572c0 3 -3 5 -6 4l-71 -21c-9 -3 -14 2 -14 10v66c0 6 3 11 9 14z" />
    <glyph glyph-name="two" unicode="2" horiz-adv-x="425" 
d="M43 0c-7 0 -12 5 -12 12v80c0 6 1 10 5 15c66 91 130 175 179 256c37 61 58 113 58 159c0 54 -26 86 -64 86s-63 -33 -62 -82v-39c0 -7 -5 -12 -12 -12h-94c-7 0 -12 5 -12 12v43c5 107 79 178 185 178c105 0 176 -75 176 -187c0 -68 -23 -130 -71 -204
c-45 -71 -97 -143 -144 -211c-2 -3 -1 -6 3 -6h214c7 0 12 -5 12 -12v-76c0 -7 -5 -12 -12 -12h-349z" />
    <glyph glyph-name="three" unicode="3" horiz-adv-x="461" 
d="M420 285c2 -23 1 -52 1 -67c0 -16 1 -43 -1 -67c-8 -94 -84 -159 -192 -159c-112 0 -189 65 -197 159c-2 18 -3 39 -3 56c0 8 5 12 12 12h92c7 0 12 -4 12 -12c0 -14 0 -29 2 -41c6 -44 36 -74 82 -74c44 0 77 31 83 74c1 21 0 47 0 64c0 15 1 46 0 65
c-7 44 -39 74 -83 74c-10 0 -22 -3 -31 -10c-6 -4 -12 -4 -17 1l-45 48c-5 6 -6 12 -1 17l146 170c3 4 1 6 -3 6h-228c-7 0 -12 5 -12 12v75c0 7 5 12 12 12h356c7 0 12 -5 12 -12v-79c0 -6 -1 -11 -5 -15l-118 -145c-2 -3 -1 -5 3 -6c70 -15 116 -86 123 -158z" />
    <glyph glyph-name="four" unicode="4" horiz-adv-x="451" 
d="M422 287c7 0 12 -5 12 -12v-81c0 -7 -5 -12 -12 -12h-30c-3 0 -5 -2 -5 -5v-165c0 -7 -5 -12 -12 -12h-92c-7 0 -12 5 -12 12v165c0 3 -2 5 -5 5h-237c-7 0 -12 5 -12 12v65c0 5 0 9 2 15l139 416c2 6 6 10 13 10h100c8 0 13 -5 10 -14l-128 -393c-1 -4 1 -6 4 -6h109
c3 0 5 2 5 5v120c0 7 5 12 12 12h92c7 0 12 -5 12 -12v-120c0 -3 2 -5 5 -5h30z" />
    <glyph glyph-name="five" unicode="5" horiz-adv-x="428" 
d="M394 290c4 -21 6 -46 6 -74c0 -25 -1 -48 -4 -70c-7 -99 -74 -154 -177 -154c-97 0 -162 49 -176 152l-3 28c0 8 5 12 12 12h92c7 0 12 -4 13 -12c0 -6 1 -12 2 -18c8 -43 28 -62 60 -62c33 0 54 22 61 61c3 19 4 40 4 64s-2 46 -6 64c-7 35 -28 55 -59 55
c-32 0 -53 -16 -62 -46c-2 -7 -6 -11 -13 -11h-93c-7 0 -12 5 -12 12v397c0 7 5 12 12 12h326c7 0 12 -5 12 -12v-76c0 -7 -5 -12 -12 -12h-217c-3 0 -5 -2 -5 -5v-195c0 -4 3 -5 6 -2c22 24 56 39 93 39c80 0 131 -54 140 -147z" />
    <glyph glyph-name="six" unicode="6" horiz-adv-x="429" 
d="M396 286c3 -20 5 -44 5 -70c0 -23 -1 -44 -2 -65c-7 -102 -75 -159 -178 -159c-96 0 -163 49 -175 152c-4 18 -6 39 -6 63l-1 325c0 108 72 176 180 176c100 0 172 -68 172 -176v-25c0 -7 -5 -12 -12 -12h-92c-7 0 -12 5 -12 12v19c0 47 -26 79 -56 79
c-38 0 -63 -32 -63 -79v-103c0 -4 3 -6 6 -3c18 17 43 27 72 27c93 0 153 -65 162 -161zM281 160c2 24 3 44 3 64c0 21 -2 44 -5 71c-8 38 -28 58 -59 58c-32 0 -53 -21 -60 -61c-3 -26 -4 -49 -4 -68c0 -20 1 -42 3 -67c7 -42 28 -66 61 -66s55 25 61 69z" />
    <glyph glyph-name="seven" unicode="7" horiz-adv-x="392" 
d="M100 0c-8 0 -12 4 -10 13l165 581c1 4 -1 6 -4 6h-135c-3 0 -5 -2 -5 -5v-36c0 -7 -5 -12 -12 -12h-71c-7 0 -12 5 -12 12l1 129c0 7 5 12 12 12h339c7 0 12 -5 12 -12v-81c0 -5 -1 -9 -2 -14l-167 -583c-2 -6 -7 -10 -14 -10h-97z" />
    <glyph glyph-name="eight" unicode="8" horiz-adv-x="434" 
d="M325 371c-4 -3 -4 -5 0 -7c21 -12 38 -30 50 -58c13 -29 21 -65 21 -106c0 -37 -6 -68 -15 -94c-26 -70 -86 -114 -165 -114c-77 0 -137 42 -164 114c-9 28 -14 60 -14 94c0 38 6 73 18 101c11 29 30 49 53 62c3 2 3 4 0 6c-22 14 -40 33 -52 59c-12 27 -19 60 -19 96
c0 37 6 69 19 96c27 58 86 92 159 92c70 0 130 -31 159 -92c14 -26 21 -59 21 -97c0 -37 -7 -69 -20 -94c-12 -25 -29 -44 -51 -58zM161 567c-6 -16 -9 -33 -9 -54c0 -19 2 -36 7 -49l5 -14c9 -25 28 -39 52 -39c28 0 49 18 57 48c6 15 9 33 9 54s-4 40 -11 55
c-9 26 -28 44 -55 44s-46 -18 -55 -45zM276 154c3 15 5 33 5 53c0 24 -3 47 -9 64c-8 32 -28 51 -56 51s-48 -20 -56 -54c-5 -17 -7 -36 -7 -60c0 -21 1 -40 5 -57c8 -37 28 -59 58 -59c31 0 53 23 60 62z" />
    <glyph glyph-name="nine" unicode="9" horiz-adv-x="423" 
d="M383 493l1 -325c0 -108 -72 -176 -180 -176c-100 0 -172 68 -172 176v25c0 7 5 12 12 12h92c7 0 12 -5 12 -12v-19c0 -47 26 -79 56 -79c38 0 63 32 63 79v103c0 4 -3 6 -6 3c-18 -17 -43 -27 -72 -27c-93 0 -153 65 -162 161c-3 20 -5 44 -5 70c0 23 1 44 2 65
c7 102 75 159 178 159c96 0 163 -49 175 -152c4 -18 6 -39 6 -63zM263 408c3 26 4 49 4 68c0 20 -1 42 -3 67c-7 42 -28 66 -61 66s-55 -25 -61 -69c-2 -24 -3 -44 -3 -64c0 -21 2 -44 5 -71c8 -38 28 -58 59 -58c32 0 53 21 60 61z" />
    <glyph glyph-name="zero.dnom" horiz-adv-x="270" 
d="M135 -7c-69 0 -114 47 -114 118v196c0 71 45 119 114 119s115 -48 115 -119v-196c0 -71 -46 -118 -115 -118zM135 59c23 0 38 18 38 48v205c0 29 -15 47 -38 47s-38 -18 -38 -47v-205c0 -30 15 -48 38 -48z" />
    <glyph glyph-name="one.dnom" horiz-adv-x="153" 
d="M46 416c5 3 10 4 15 4h57c7 0 12 -5 12 -12v-396c0 -7 -5 -12 -12 -12h-53c-7 0 -12 5 -12 12v334c0 3 -2 6 -5 5l-15 -3c-8 -2 -13 2 -13 10v33c0 6 2 11 8 15z" />
    <glyph glyph-name="two.dnom" horiz-adv-x="258" 
d="M29 0c-7 0 -12 5 -12 12v46c0 6 1 10 5 15c39 52 78 101 107 147c21 35 33 65 33 91c0 31 -15 48 -35 48s-34 -18 -34 -45v-19c0 -7 -5 -12 -12 -12h-53c-7 0 -12 5 -12 12v22c3 68 46 108 113 108c63 0 110 -36 110 -118c0 -41 -11 -74 -32 -111
c-22 -38 -49 -76 -82 -124c-2 -3 -1 -6 3 -6h107c7 0 12 -5 12 -12v-42c0 -7 -5 -12 -12 -12h-206z" />
    <glyph glyph-name="three.dnom" horiz-adv-x="275" 
d="M247 175c2 -14 3 -27 3 -44c0 -20 -2 -37 -5 -51c-6 -53 -46 -86 -105 -86c-64 0 -108 40 -112 98c-1 9 -1 18 -1 27c0 8 5 12 12 12h52c7 0 12 -4 12 -12c0 -5 0 -10 1 -15c3 -27 15 -44 36 -44c19 0 29 12 34 33c3 15 5 27 5 46c0 16 -1 28 -3 41c-5 24 -16 37 -36 37
c-5 0 -9 -1 -13 -4c-7 -4 -12 -5 -17 1l-25 27c-5 6 -5 12 -1 17l72 89c2 3 1 6 -3 6h-108c-7 0 -12 5 -12 12v42c0 7 5 12 12 12h190c7 0 12 -5 12 -12v-46c0 -6 -2 -11 -5 -15l-58 -76c-2 -3 -2 -5 1 -6c34 -9 57 -48 62 -89z" />
    <glyph glyph-name="four.dnom" horiz-adv-x="278" 
d="M257 177c7 0 12 -5 12 -12v-45c0 -7 -5 -12 -12 -12h-12c-3 0 -5 -2 -5 -5v-91c0 -7 -5 -12 -12 -12h-52c-7 0 -12 5 -12 12v91c0 3 -2 5 -5 5h-138c-7 0 -12 5 -12 12v36c0 5 0 9 2 15l80 239c2 6 6 10 13 10h57c8 0 13 -5 10 -14l-71 -223c-1 -4 1 -6 4 -6h55
c3 0 5 2 5 5v61c0 7 5 12 12 12h52c7 0 12 -5 12 -12v-61c0 -3 2 -5 5 -5h12z" />
    <glyph glyph-name="five.dnom" horiz-adv-x="253" 
d="M234 173c2 -12 4 -27 4 -44c0 -16 -1 -31 -3 -43c-5 -59 -47 -92 -109 -92c-61 0 -103 30 -109 93c-1 6 -1 12 -2 19c0 8 5 12 12 12h52c7 0 12 -4 13 -12v-5c0 -5 1 -9 2 -14c5 -18 17 -27 32 -27c17 0 28 11 32 32c3 11 3 23 3 38c0 13 0 24 -3 34c-4 20 -15 31 -32 31
c-16 0 -27 -7 -32 -21c-3 -6 -7 -10 -14 -10h-54c-7 0 -12 5 -12 12v231c0 7 5 12 12 12h194c7 0 12 -5 12 -12v-42c0 -7 -5 -12 -12 -12h-124c-3 0 -5 -2 -5 -5v-101c0 -4 3 -5 6 -2c13 10 31 17 52 17c49 0 79 -33 85 -89z" />
    <glyph glyph-name="six.dnom" horiz-adv-x="261" 
d="M241 174c3 -13 4 -27 4 -45s-1 -34 -4 -48c-6 -56 -46 -87 -108 -87c-57 0 -96 27 -106 86c-4 13 -5 27 -5 43v194c-1 66 44 107 110 107c63 0 108 -41 108 -107v-12c0 -7 -5 -12 -12 -12h-53c-7 0 -12 4 -12 10v10c0 25 -14 43 -31 43c-20 0 -34 -18 -34 -43v-68
c0 -4 3 -6 6 -2c13 13 31 20 51 20c49 0 80 -33 86 -89zM164 89c2 16 3 30 3 45c0 13 -1 29 -3 44c-5 19 -16 29 -32 29c-15 0 -26 -11 -31 -30c-2 -16 -3 -30 -3 -43c0 -14 1 -26 3 -42c4 -21 15 -32 31 -32c17 0 28 10 32 29z" />
    <glyph glyph-name="seven.dnom" horiz-adv-x="238" 
d="M62 0c-8 0 -12 5 -10 13l96 335c1 4 -1 6 -4 6h-70c-3 0 -5 -2 -5 -5v-26c0 -7 -5 -12 -12 -12h-38c-7 0 -12 5 -12 12v85c0 7 5 12 12 12h200c7 0 12 -5 12 -12v-47c0 -5 -1 -9 -2 -14l-98 -337c-2 -6 -7 -10 -14 -10h-55z" />
    <glyph glyph-name="eight.dnom" horiz-adv-x="263" 
d="M199 221c-4 -2 -4 -4 0 -6c16 -10 28 -25 35 -47c5 -17 8 -33 8 -49c0 -17 -3 -32 -8 -49c-15 -45 -53 -76 -103 -76c-49 0 -87 29 -103 76c-6 18 -7 34 -7 49c0 17 1 32 7 50c7 21 19 35 35 45c3 2 3 4 0 6c-16 11 -28 26 -35 47c-5 16 -7 31 -7 45s1 29 7 44
c16 44 54 70 103 70c48 0 87 -25 103 -70c5 -15 8 -29 8 -45c0 -15 -3 -30 -8 -44c-6 -20 -19 -35 -35 -46zM97 323c-1 -6 -1 -13 -1 -18c0 -6 0 -13 1 -20c3 -23 14 -38 34 -38s30 15 34 38c1 6 1 14 1 19s0 13 -1 19c-4 23 -15 37 -34 37s-32 -15 -34 -37zM165 100
c1 8 0 18 0 24c0 7 1 16 0 25c-3 24 -15 40 -34 40s-33 -16 -34 -40c-1 -9 -1 -18 -1 -24c0 -8 0 -17 1 -25c1 -24 15 -40 34 -40s31 16 34 40z" />
    <glyph glyph-name="nine.dnom" horiz-adv-x="261" 
d="M239 100c1 -66 -44 -107 -110 -107c-63 0 -108 41 -108 107v12c0 7 5 12 12 12h53c7 0 12 -4 12 -10v-10c0 -25 14 -43 31 -43c20 0 34 18 34 43v68c0 4 -3 6 -6 2c-13 -13 -31 -20 -51 -20c-49 0 -80 33 -86 89c-3 13 -4 27 -4 45s1 34 4 48c6 56 46 87 108 87
c57 0 96 -27 106 -86c4 -13 5 -27 5 -43v-194zM129 210c15 0 26 11 31 30c2 16 3 30 3 43c0 14 -1 26 -3 42c-4 21 -15 32 -31 32c-17 0 -28 -10 -32 -29c-2 -16 -3 -30 -3 -45c0 -13 1 -29 3 -44c5 -19 16 -29 32 -29z" />
    <glyph glyph-name="zero.numr" horiz-adv-x="270" 
d="M135 275c-69 0 -114 47 -114 118v196c0 71 45 119 114 119s115 -48 115 -119v-196c0 -71 -46 -118 -115 -118zM135 341c23 0 38 18 38 48v205c0 29 -15 47 -38 47s-38 -18 -38 -47v-205c0 -30 15 -48 38 -48z" />
    <glyph glyph-name="one.numr" horiz-adv-x="153" 
d="M46 696c5 3 10 4 15 4h57c7 0 12 -5 12 -12v-396c0 -7 -5 -12 -12 -12h-53c-7 0 -12 5 -12 12v334c0 3 -2 6 -5 5l-15 -3c-8 -2 -13 2 -13 10v33c0 6 2 11 8 15z" />
    <glyph glyph-name="two.numr" horiz-adv-x="258" 
d="M29 283c-7 0 -12 5 -12 12v46c0 6 1 10 5 15c39 52 78 101 107 147c21 35 33 65 33 91c0 31 -15 48 -35 48s-34 -18 -34 -45v-19c0 -7 -5 -12 -12 -12h-53c-7 0 -12 5 -12 12v22c3 68 46 108 113 108c63 0 110 -36 110 -118c0 -41 -11 -74 -32 -111
c-22 -38 -49 -76 -82 -124c-2 -3 -1 -6 3 -6h107c7 0 12 -5 12 -12v-42c0 -7 -5 -12 -12 -12h-206z" />
    <glyph glyph-name="three.numr" horiz-adv-x="275" 
d="M247 455c2 -14 3 -27 3 -44c0 -20 -2 -37 -5 -51c-6 -53 -46 -86 -105 -86c-64 0 -108 40 -112 98c-1 9 -1 18 -1 27c0 8 5 12 12 12h52c7 0 12 -4 12 -12c0 -5 0 -10 1 -15c3 -27 15 -44 36 -44c19 0 29 12 34 33c3 15 5 27 5 46c0 16 -1 28 -3 41c-5 24 -16 37 -36 37
c-5 0 -9 -1 -13 -4c-7 -4 -12 -5 -17 1l-25 27c-5 6 -5 12 -1 17l72 89c2 3 1 6 -3 6h-108c-7 0 -12 5 -12 12v42c0 7 5 12 12 12h190c7 0 12 -5 12 -12v-46c0 -6 -2 -11 -5 -15l-58 -76c-2 -3 -2 -5 1 -6c34 -9 57 -48 62 -89z" />
    <glyph glyph-name="four.numr" horiz-adv-x="278" 
d="M257 457c7 0 12 -5 12 -12v-45c0 -7 -5 -12 -12 -12h-12c-3 0 -5 -2 -5 -5v-91c0 -7 -5 -12 -12 -12h-52c-7 0 -12 5 -12 12v91c0 3 -2 5 -5 5h-138c-7 0 -12 5 -12 12v36c0 5 0 9 2 15l80 239c2 6 6 10 13 10h57c8 0 13 -5 10 -14l-71 -223c-1 -4 1 -6 4 -6h55
c3 0 5 2 5 5v61c0 7 5 12 12 12h52c7 0 12 -5 12 -12v-61c0 -3 2 -5 5 -5h12z" />
    <glyph glyph-name="five.numr" horiz-adv-x="253" 
d="M234 453c2 -12 4 -27 4 -44c0 -16 -1 -31 -3 -43c-5 -59 -47 -92 -109 -92c-61 0 -103 30 -109 93c-1 6 -1 12 -2 19c0 8 5 12 12 12h52c7 0 12 -4 13 -12v-5c0 -5 1 -9 2 -14c5 -18 17 -27 32 -27c17 0 28 11 32 32c3 11 3 23 3 38c0 13 0 24 -3 34c-4 20 -15 31 -32 31
c-16 0 -27 -7 -32 -21c-3 -6 -7 -10 -14 -10h-54c-7 0 -12 5 -12 12v231c0 7 5 12 12 12h194c7 0 12 -5 12 -12v-42c0 -7 -5 -12 -12 -12h-124c-3 0 -5 -2 -5 -5v-101c0 -4 3 -5 6 -2c13 10 31 17 52 17c49 0 79 -33 85 -89z" />
    <glyph glyph-name="six.numr" horiz-adv-x="261" 
d="M241 457c3 -13 4 -27 4 -45s-1 -34 -4 -48c-6 -56 -46 -87 -108 -87c-57 0 -96 27 -106 86c-4 13 -5 27 -5 43v194c-1 66 44 107 110 107c63 0 108 -41 108 -107v-12c0 -7 -5 -12 -12 -12h-53c-7 0 -12 4 -12 10v10c0 25 -14 43 -31 43c-20 0 -34 -18 -34 -43v-68
c0 -4 3 -6 6 -2c13 13 31 20 51 20c49 0 80 -33 86 -89zM164 372c2 16 3 30 3 45c0 13 -1 29 -3 44c-5 19 -16 29 -32 29c-15 0 -26 -11 -31 -30c-2 -16 -3 -30 -3 -43c0 -14 1 -26 3 -42c4 -21 15 -32 31 -32c17 0 28 10 32 29z" />
    <glyph glyph-name="seven.numr" horiz-adv-x="238" 
d="M62 280c-8 0 -12 5 -10 13l96 335c1 4 -1 6 -4 6h-70c-3 0 -5 -2 -5 -5v-26c0 -7 -5 -12 -12 -12h-38c-7 0 -12 5 -12 12v85c0 7 5 12 12 12h200c7 0 12 -5 12 -12v-47c0 -5 -1 -9 -2 -14l-98 -337c-2 -6 -7 -10 -14 -10h-55z" />
    <glyph glyph-name="eight.numr" horiz-adv-x="263" 
d="M199 502c-4 -2 -4 -4 0 -6c16 -10 28 -25 35 -47c5 -17 8 -33 8 -49c0 -17 -3 -32 -8 -49c-15 -45 -53 -76 -103 -76c-49 0 -87 29 -103 76c-6 18 -7 34 -7 49c0 17 1 32 7 50c7 21 19 35 35 45c3 2 3 4 0 6c-16 11 -28 26 -35 47c-5 16 -7 31 -7 45s1 29 7 44
c16 44 54 70 103 70c48 0 87 -25 103 -70c5 -15 8 -29 8 -45c0 -15 -3 -30 -8 -44c-6 -20 -19 -35 -35 -46zM97 604c-1 -6 -1 -13 -1 -18c0 -6 0 -13 1 -20c3 -23 14 -38 34 -38s30 15 34 38c1 6 1 14 1 19s0 13 -1 19c-4 23 -15 37 -34 37s-32 -15 -34 -37zM165 381
c1 8 0 18 0 24c0 7 1 16 0 25c-3 24 -15 40 -34 40s-33 -16 -34 -40c-1 -9 -1 -18 -1 -24c0 -8 0 -17 1 -25c1 -24 15 -40 34 -40s31 16 34 40z" />
    <glyph glyph-name="nine.numr" horiz-adv-x="261" 
d="M239 383c1 -66 -44 -107 -110 -107c-63 0 -108 41 -108 107v12c0 7 5 12 12 12h53c7 0 12 -4 12 -10v-10c0 -25 14 -43 31 -43c20 0 34 18 34 43v68c0 4 -3 6 -6 2c-13 -13 -31 -20 -51 -20c-49 0 -80 33 -86 89c-3 13 -4 27 -4 45s1 34 4 48c6 56 46 87 108 87
c57 0 96 -27 106 -86c4 -13 5 -27 5 -43v-194zM129 493c15 0 26 11 31 30c2 16 3 30 3 43c0 14 -1 26 -3 42c-4 21 -15 32 -31 32c-17 0 -28 -10 -32 -29c-2 -16 -3 -30 -3 -45c0 -13 1 -29 3 -44c5 -19 16 -29 32 -29z" />
    <glyph glyph-name="uni00B9" unicode="&#xb9;" horiz-adv-x="153" 
d="M46 841c5 3 10 4 15 4h57c7 0 12 -5 12 -12v-396c0 -7 -5 -12 -12 -12h-53c-7 0 -12 5 -12 12v334c0 3 -2 6 -5 5l-15 -3c-8 -2 -13 2 -13 10v33c0 6 2 11 8 15z" />
    <glyph glyph-name="uni00B2" unicode="&#xb2;" horiz-adv-x="258" 
d="M29 425c-7 0 -12 5 -12 12v46c0 6 1 10 5 15c39 52 78 101 107 147c21 35 33 65 33 91c0 31 -15 48 -35 48s-34 -18 -34 -45v-19c0 -7 -5 -12 -12 -12h-53c-7 0 -12 5 -12 12v22c3 68 46 108 113 108c63 0 110 -36 110 -118c0 -41 -11 -74 -32 -111
c-22 -38 -49 -76 -82 -124c-2 -3 -1 -6 3 -6h107c7 0 12 -5 12 -12v-42c0 -7 -5 -12 -12 -12h-206z" />
    <glyph glyph-name="uni00B3" unicode="&#xb3;" horiz-adv-x="275" 
d="M247 601c2 -14 3 -27 3 -44c0 -20 -2 -37 -5 -51c-6 -53 -46 -86 -105 -86c-64 0 -108 40 -112 98c-1 9 -1 18 -1 27c0 8 5 12 12 12h52c7 0 12 -4 12 -12c0 -5 0 -10 1 -15c3 -27 15 -44 36 -44c19 0 29 12 34 33c3 15 5 27 5 46c0 16 -1 28 -3 41c-5 24 -16 37 -36 37
c-5 0 -9 -1 -13 -4c-7 -4 -12 -5 -17 1l-25 27c-5 6 -5 12 -1 17l72 89c2 3 1 6 -3 6h-108c-7 0 -12 5 -12 12v42c0 7 5 12 12 12h190c7 0 12 -5 12 -12v-46c0 -6 -2 -11 -5 -15l-58 -76c-2 -3 -2 -5 1 -6c34 -9 57 -48 62 -89z" />
    <glyph glyph-name="uni2074" unicode="&#x2074;" horiz-adv-x="278" 
d="M257 603c7 0 12 -5 12 -12v-45c0 -7 -5 -12 -12 -12h-12c-3 0 -5 -2 -5 -5v-91c0 -7 -5 -12 -12 -12h-52c-7 0 -12 5 -12 12v91c0 3 -2 5 -5 5h-138c-7 0 -12 5 -12 12v36c0 5 0 9 2 15l80 239c2 6 6 10 13 10h57c8 0 13 -5 10 -14l-71 -223c-1 -4 1 -6 4 -6h55
c3 0 5 2 5 5v61c0 7 5 12 12 12h52c7 0 12 -5 12 -12v-61c0 -3 2 -5 5 -5h12z" />
    <glyph glyph-name="uni2075" unicode="&#x2075;" horiz-adv-x="253" 
d="M234 599c2 -12 4 -27 4 -44c0 -16 -1 -31 -3 -43c-5 -59 -47 -92 -109 -92c-61 0 -103 30 -109 93c-1 6 -1 12 -2 19c0 8 5 12 12 12h52c7 0 12 -4 13 -12v-5c0 -5 1 -9 2 -14c5 -18 17 -27 32 -27c17 0 28 11 32 32c3 11 3 23 3 38c0 13 0 24 -3 34c-4 20 -15 31 -32 31
c-16 0 -27 -7 -32 -21c-3 -6 -7 -10 -14 -10h-54c-7 0 -12 5 -12 12v231c0 7 5 12 12 12h194c7 0 12 -5 12 -12v-42c0 -7 -5 -12 -12 -12h-124c-3 0 -5 -2 -5 -5v-101c0 -4 3 -5 6 -2c13 10 31 17 52 17c49 0 79 -33 85 -89z" />
    <glyph glyph-name="uni2076" unicode="&#x2076;" horiz-adv-x="261" 
d="M241 600c3 -13 4 -27 4 -45s-1 -34 -4 -48c-6 -56 -46 -87 -108 -87c-57 0 -96 27 -106 86c-4 13 -5 27 -5 43v194c-1 66 44 107 110 107c63 0 108 -41 108 -107v-12c0 -7 -5 -12 -12 -12h-53c-7 0 -12 4 -12 10v10c0 25 -14 43 -31 43c-20 0 -34 -18 -34 -43v-68
c0 -4 3 -6 6 -2c13 13 31 20 51 20c49 0 80 -33 86 -89zM164 515c2 16 3 30 3 45c0 13 -1 29 -3 44c-5 19 -16 29 -32 29c-15 0 -26 -11 -31 -30c-2 -16 -3 -30 -3 -43c0 -14 1 -26 3 -42c4 -21 15 -32 31 -32c17 0 28 10 32 29z" />
    <glyph glyph-name="uni2077" unicode="&#x2077;" horiz-adv-x="238" 
d="M62 426c-8 0 -12 5 -10 13l96 335c1 4 -1 6 -4 6h-70c-3 0 -5 -2 -5 -5v-26c0 -7 -5 -12 -12 -12h-38c-7 0 -12 5 -12 12v85c0 7 5 12 12 12h200c7 0 12 -5 12 -12v-47c0 -5 -1 -9 -2 -14l-98 -337c-2 -6 -7 -10 -14 -10h-55z" />
    <glyph glyph-name="uni2078" unicode="&#x2078;" horiz-adv-x="263" 
d="M199 647c-4 -2 -4 -4 0 -6c16 -10 28 -25 35 -47c5 -17 8 -33 8 -49c0 -17 -3 -32 -8 -49c-15 -45 -53 -76 -103 -76c-49 0 -87 29 -103 76c-6 18 -7 34 -7 49c0 17 1 32 7 50c7 21 19 35 35 45c3 2 3 4 0 6c-16 11 -28 26 -35 47c-5 16 -7 31 -7 45s1 29 7 44
c16 44 54 70 103 70c48 0 87 -25 103 -70c5 -15 8 -29 8 -45c0 -15 -3 -30 -8 -44c-6 -20 -19 -35 -35 -46zM97 749c-1 -6 -1 -13 -1 -18c0 -6 0 -13 1 -20c3 -23 14 -38 34 -38s30 15 34 38c1 6 1 14 1 19s0 13 -1 19c-4 23 -15 37 -34 37s-32 -15 -34 -37zM165 526
c1 8 0 18 0 24c0 7 1 16 0 25c-3 24 -15 40 -34 40s-33 -16 -34 -40c-1 -9 -1 -18 -1 -24c0 -8 0 -17 1 -25c1 -24 15 -40 34 -40s31 16 34 40z" />
    <glyph glyph-name="uni2079" unicode="&#x2079;" horiz-adv-x="261" 
d="M239 526c1 -66 -44 -107 -110 -107c-63 0 -108 41 -108 107v12c0 7 5 12 12 12h53c7 0 12 -4 12 -10v-10c0 -25 14 -43 31 -43c20 0 34 18 34 43v68c0 4 -3 6 -6 2c-13 -13 -31 -20 -51 -20c-49 0 -80 33 -86 89c-3 13 -4 27 -4 45s1 34 4 48c6 56 46 87 108 87
c57 0 96 -27 106 -86c4 -13 5 -27 5 -43v-194zM129 636c15 0 26 11 31 30c2 16 3 30 3 43c0 14 -1 26 -3 42c-4 21 -15 32 -31 32c-17 0 -28 -10 -32 -29c-2 -16 -3 -30 -3 -45c0 -13 1 -29 3 -44c5 -19 16 -29 32 -29z" />
    <glyph glyph-name="fraction" unicode="&#x2044;" horiz-adv-x="222" 
d="M-127 0c-9 0 -13 5 -8 14l414 678c3 6 8 8 14 8h59c9 0 13 -5 8 -14l-415 -678c-3 -6 -8 -8 -14 -8h-58z" />
    <glyph glyph-name="onehalf" unicode="&#xbd;" horiz-adv-x="681" 
d="M130 292c0 -7 -5 -12 -12 -12h-53c-7 0 -12 5 -12 12v334c0 3 -2 6 -5 5l-15 -3c-8 -2 -13 2 -13 10v33c0 6 2 11 8 15l18 10c5 3 10 4 15 4h57c7 0 12 -5 12 -12v-396zM480 692c3 6 8 8 14 8h59c9 0 13 -5 8 -14l-415 -678c-3 -6 -8 -8 -14 -8h-58c-9 0 -13 5 -8 14z
M548 72c-2 -3 -1 -6 3 -6h107c7 0 12 -5 12 -12v-42c0 -7 -5 -12 -12 -12h-206c-7 0 -12 5 -12 12v46c0 6 1 10 5 15c39 52 78 101 107 147c21 35 33 65 33 91c0 31 -15 48 -35 48s-34 -18 -34 -45v-19c0 -7 -5 -12 -12 -12h-53c-7 0 -12 5 -12 12v22c3 68 46 108 113 108
c63 0 110 -36 110 -118c0 -41 -11 -74 -32 -111c-22 -38 -49 -76 -82 -124z" />
    <glyph glyph-name="onequarter" unicode="&#xbc;" horiz-adv-x="697" 
d="M130 292c0 -7 -5 -12 -12 -12h-53c-7 0 -12 5 -12 12v334c0 3 -2 6 -5 5l-15 -3c-8 -2 -13 2 -13 10v33c0 6 2 11 8 15l18 10c5 3 10 4 15 4h57c7 0 12 -5 12 -12v-396zM480 692c3 6 8 8 14 8h59c9 0 13 -5 8 -14l-415 -678c-3 -6 -8 -8 -14 -8h-58c-9 0 -13 5 -8 14z
M676 177c7 0 12 -5 12 -12v-45c0 -7 -5 -12 -12 -12h-12c-3 0 -5 -2 -5 -5v-91c0 -7 -5 -12 -12 -12h-52c-7 0 -12 5 -12 12v91c0 3 -2 5 -5 5h-138c-7 0 -12 5 -12 12v36c0 5 0 9 2 15l80 239c2 6 6 10 13 10h57c8 0 13 -5 10 -14l-71 -223c-1 -4 1 -6 4 -6h55c3 0 5 2 5 5
v61c0 7 5 12 12 12h52c7 0 12 -5 12 -12v-61c0 -3 2 -5 5 -5h12z" />
    <glyph glyph-name="threequarters" unicode="&#xbe;" horiz-adv-x="771" 
d="M554 692c3 6 8 8 14 8h59c9 0 13 -5 8 -14l-415 -678c-3 -6 -8 -8 -14 -8h-58c-9 0 -13 5 -8 14zM245 360c-6 -53 -46 -86 -105 -86c-64 0 -108 40 -112 98c-1 9 -1 18 -1 27c0 8 5 12 12 12h52c7 0 12 -4 12 -12c0 -5 0 -10 1 -15c3 -27 15 -44 36 -44c19 0 29 12 34 33
c3 15 5 27 5 46c0 16 -1 28 -3 41c-5 24 -16 37 -36 37c-5 0 -9 -1 -13 -4c-7 -4 -12 -5 -17 1l-25 27c-5 6 -5 12 -1 17l72 89c2 3 1 6 -3 6h-108c-7 0 -12 5 -12 12v42c0 7 5 12 12 12h190c7 0 12 -5 12 -12v-46c0 -6 -2 -11 -5 -15l-58 -76c-2 -3 -1 -5 2 -6
c34 -10 56 -48 61 -89c2 -14 3 -27 3 -44c0 -20 -2 -37 -5 -51zM750 177c7 0 12 -5 12 -12v-45c0 -7 -5 -12 -12 -12h-12c-3 0 -5 -2 -5 -5v-91c0 -7 -5 -12 -12 -12h-52c-7 0 -12 5 -12 12v91c0 3 -2 5 -5 5h-138c-7 0 -12 5 -12 12v36c0 5 0 9 2 15l80 239c2 6 6 10 13 10
h57c8 0 13 -5 10 -14l-71 -223c-1 -4 1 -6 4 -6h55c3 0 5 2 5 5v61c0 7 5 12 12 12h52c7 0 12 -5 12 -12v-61c0 -3 2 -5 5 -5h12z" />
    <glyph glyph-name="oneeighth" unicode="&#x215b;" horiz-adv-x="690" 
d="M130 292c0 -7 -5 -12 -12 -12h-53c-7 0 -12 5 -12 12v334c0 3 -2 6 -5 5l-15 -3c-8 -2 -13 2 -13 10v33c0 6 2 11 8 15l18 10c5 3 10 4 15 4h57c7 0 12 -5 12 -12v-396zM480 692c3 6 8 8 14 8h59c9 0 13 -5 8 -14l-415 -678c-3 -6 -8 -8 -14 -8h-58c-9 0 -13 5 -8 14z
M626 221c-4 -2 -4 -4 0 -6c16 -10 28 -25 35 -47c5 -17 8 -33 8 -49c0 -17 -3 -32 -8 -49c-15 -45 -53 -76 -103 -76c-49 0 -87 29 -103 76c-6 18 -7 34 -7 49c0 17 1 32 7 50c7 21 19 35 35 45c3 2 3 4 0 6c-16 11 -28 26 -35 47c-5 16 -7 31 -7 45s1 29 7 44
c16 44 54 70 103 70c48 0 87 -25 103 -70c5 -15 8 -29 8 -45c0 -15 -3 -30 -8 -44c-6 -20 -19 -35 -35 -46zM524 323c-1 -6 -1 -13 -1 -18c0 -6 0 -13 1 -20c3 -23 14 -38 34 -38s30 15 34 38c1 6 1 14 1 19s0 13 -1 19c-4 23 -15 37 -34 37s-32 -15 -34 -37zM592 100
c1 8 0 18 0 24c0 7 1 16 0 25c-3 24 -15 40 -34 40s-33 -16 -34 -40c-1 -9 -1 -18 -1 -24c0 -8 0 -17 1 -25c1 -24 15 -40 34 -40s31 16 34 40z" />
    <glyph glyph-name="threeeighths" unicode="&#x215c;" horiz-adv-x="764" 
d="M554 692c3 6 8 8 14 8h59c9 0 13 -5 8 -14l-415 -678c-3 -6 -8 -8 -14 -8h-58c-9 0 -13 5 -8 14zM245 360c-6 -53 -46 -86 -105 -86c-64 0 -108 40 -112 98c-1 9 -1 18 -1 27c0 8 5 12 12 12h52c7 0 12 -4 12 -12c0 -5 0 -10 1 -15c3 -27 15 -44 36 -44c19 0 29 12 34 33
c3 15 5 27 5 46c0 16 -1 28 -3 41c-5 24 -16 37 -36 37c-5 0 -9 -1 -13 -4c-7 -4 -12 -5 -17 1l-25 27c-5 6 -5 12 -1 17l72 89c2 3 1 6 -3 6h-108c-7 0 -12 5 -12 12v42c0 7 5 12 12 12h190c7 0 12 -5 12 -12v-46c0 -6 -2 -11 -5 -15l-58 -76c-2 -3 -1 -5 2 -6
c34 -10 56 -48 61 -89c2 -14 3 -27 3 -44c0 -20 -2 -37 -5 -51zM700 221c-4 -2 -4 -4 0 -6c16 -10 28 -25 35 -47c5 -17 8 -33 8 -49c0 -17 -3 -32 -8 -49c-15 -45 -53 -76 -103 -76c-49 0 -87 29 -103 76c-6 18 -7 34 -7 49c0 17 1 32 7 50c7 21 19 35 35 45c3 2 3 4 0 6
c-16 11 -28 26 -35 47c-5 16 -7 31 -7 45s1 29 7 44c16 44 54 70 103 70c48 0 87 -25 103 -70c5 -15 8 -29 8 -45c0 -15 -3 -30 -8 -44c-6 -20 -19 -35 -35 -46zM598 323c-1 -6 -1 -13 -1 -18c0 -6 0 -13 1 -20c3 -23 14 -38 34 -38s30 15 34 38c1 6 1 14 1 19s0 13 -1 19
c-4 23 -15 37 -34 37s-32 -15 -34 -37zM666 100c1 8 0 18 0 24c0 7 1 16 0 25c-3 24 -15 40 -34 40s-33 -16 -34 -40c-1 -9 -1 -18 -1 -24c0 -8 0 -17 1 -25c1 -24 15 -40 34 -40s31 16 34 40z" />
    <glyph glyph-name="fiveeighths" unicode="&#x215d;" horiz-adv-x="729" 
d="M519 692c3 6 8 8 14 8h59c9 0 13 -5 8 -14l-415 -678c-3 -6 -8 -8 -14 -8h-58c-9 0 -13 5 -8 14zM235 366c-5 -59 -47 -92 -109 -92c-61 0 -103 30 -109 93c-1 6 -1 12 -2 19c0 8 5 12 12 12h52c7 0 12 -4 13 -12v-5c0 -5 1 -9 2 -14c5 -18 17 -27 32 -27
c17 0 28 11 32 32c3 11 3 23 3 38c0 13 0 24 -3 34c-4 20 -15 31 -32 31c-16 0 -27 -7 -32 -21c-3 -6 -7 -10 -14 -10h-54c-7 0 -12 5 -12 12v231c0 7 5 12 12 12h194c7 0 12 -5 12 -12v-42c0 -7 -5 -12 -12 -12h-124c-3 0 -5 -2 -5 -5v-101c0 -4 3 -5 6 -2
c13 10 31 17 52 17c49 0 79 -33 85 -89c2 -12 4 -27 4 -44c0 -16 -1 -31 -3 -43zM665 221c-4 -2 -4 -4 0 -6c16 -10 28 -25 35 -47c5 -17 8 -33 8 -49c0 -17 -3 -32 -8 -49c-15 -45 -53 -76 -103 -76c-49 0 -87 29 -103 76c-6 18 -7 34 -7 49c0 17 1 32 7 50
c7 21 19 35 35 45c3 2 3 4 0 6c-16 11 -28 26 -35 47c-5 16 -7 31 -7 45s1 29 7 44c16 44 54 70 103 70c48 0 87 -25 103 -70c5 -15 8 -29 8 -45c0 -15 -3 -30 -8 -44c-6 -20 -19 -35 -35 -46zM563 323c-1 -6 -1 -13 -1 -18c0 -6 0 -13 1 -20c3 -23 14 -38 34 -38
s30 15 34 38c1 6 1 14 1 19s0 13 -1 19c-4 23 -15 37 -34 37s-32 -15 -34 -37zM631 100c1 8 0 18 0 24c0 7 1 16 0 25c-3 24 -15 40 -34 40s-33 -16 -34 -40c-1 -9 -1 -18 -1 -24c0 -8 0 -17 1 -25c1 -24 15 -40 34 -40s31 16 34 40z" />
    <glyph glyph-name="seveneighths" unicode="&#x215e;" horiz-adv-x="697" 
d="M131 290c-2 -6 -7 -10 -14 -10h-55c-8 0 -12 5 -10 13l96 335c1 4 -1 6 -4 6h-70c-3 0 -5 -2 -5 -5v-26c0 -7 -5 -12 -12 -12h-38c-7 0 -12 5 -12 12v85c0 7 5 12 12 12h200c7 0 12 -5 12 -12v-47c0 -5 -1 -9 -2 -14zM487 692c3 6 8 8 14 8h59c9 0 13 -5 8 -14l-415 -678
c-3 -6 -8 -8 -14 -8h-58c-9 0 -13 5 -8 14zM633 221c-4 -2 -4 -4 0 -6c16 -10 28 -25 35 -47c5 -17 8 -33 8 -49c0 -17 -3 -32 -8 -49c-15 -45 -53 -76 -103 -76c-49 0 -87 29 -103 76c-6 18 -7 34 -7 49c0 17 1 32 7 50c7 21 19 35 35 45c3 2 3 4 0 6c-16 11 -28 26 -35 47
c-5 16 -7 31 -7 45s1 29 7 44c16 44 54 70 103 70c48 0 87 -25 103 -70c5 -15 8 -29 8 -45c0 -15 -3 -30 -8 -44c-6 -20 -19 -35 -35 -46zM531 323c-1 -6 -1 -13 -1 -18c0 -6 0 -13 1 -20c3 -23 14 -38 34 -38s30 15 34 38c1 6 1 14 1 19s0 13 -1 19c-4 23 -15 37 -34 37
s-32 -15 -34 -37zM599 100c1 8 0 18 0 24c0 7 1 16 0 25c-3 24 -15 40 -34 40s-33 -16 -34 -40c-1 -9 -1 -18 -1 -24c0 -8 0 -17 1 -25c1 -24 15 -40 34 -40s31 16 34 40z" />
    <glyph glyph-name="period" unicode="." horiz-adv-x="246" 
d="M120 -1c-43 0 -74 34 -74 77c0 42 37 76 74 76c38 0 75 -34 75 -76c0 -43 -32 -77 -75 -77z" />
    <glyph glyph-name="comma" unicode="," horiz-adv-x="199" 
d="M45 -91c-8 0 -13 5 -12 13l26 224c1 8 5 11 12 11h80c8 0 12 -4 10 -13l-49 -224c-1 -7 -6 -11 -13 -11h-54z" />
    <glyph glyph-name="colon" unicode=":" horiz-adv-x="252" 
d="M127 334c-43 0 -74 34 -74 77c0 42 36 76 74 76s74 -34 74 -76c0 -43 -31 -77 -74 -77zM127 3c-43 0 -74 34 -74 77s36 77 74 77s74 -34 74 -77s-31 -77 -74 -77z" />
    <glyph glyph-name="semicolon" unicode=";" horiz-adv-x="218" 
d="M109 325c-43 0 -74 35 -74 78c0 42 36 76 74 76s74 -34 74 -76c0 -43 -31 -78 -74 -78zM52 -89c-8 0 -13 5 -12 13l19 219c1 7 5 11 12 11h81c8 0 12 -4 10 -13l-43 -219c-1 -8 -6 -11 -13 -11h-54z" />
    <glyph glyph-name="ellipsis" unicode="&#x2026;" horiz-adv-x="714" 
d="M120 -1c-43 0 -74 34 -74 77c0 42 37 76 74 76c38 0 75 -34 75 -76c0 -43 -32 -77 -75 -77zM354 -1c-43 0 -74 34 -74 77c0 42 37 76 74 76c38 0 75 -34 75 -76c0 -43 -32 -77 -75 -77zM588 -1c-43 0 -74 34 -74 77c0 42 37 76 74 76c38 0 75 -34 75 -76
c0 -43 -32 -77 -75 -77z" />
    <glyph glyph-name="exclam" unicode="!" horiz-adv-x="273" 
d="M102 236c-7 0 -12 5 -12 12l-11 440c0 7 5 12 12 12h92c7 0 12 -5 12 -12l-12 -440c0 -7 -5 -12 -12 -12h-69zM135 2c-43 0 -74 35 -74 77c0 43 36 77 74 77s74 -34 74 -77c0 -42 -31 -77 -74 -77z" />
    <glyph glyph-name="exclamdown" unicode="&#xa1;" horiz-adv-x="273" 
d="M135 708c43 0 74 -35 74 -77c0 -43 -36 -77 -74 -77s-74 34 -74 77c0 42 31 77 74 77zM90 462c0 7 5 12 12 12h69c7 0 12 -5 12 -12l12 -440c0 -7 -5 -12 -12 -12h-92c-7 0 -12 5 -12 12z" />
    <glyph glyph-name="question" unicode="?" horiz-adv-x="413" 
d="M147 214c-7 0 -12 5 -12 12v41c0 136 139 141 139 251c0 52 -26 86 -66 86c-44 0 -71 -37 -71 -89v-21c0 -8 -4 -11 -12 -11l-92 4c-7 0 -12 6 -12 13v15c0 116 77 195 190 195c110 0 180 -75 180 -188c0 -167 -140 -169 -140 -262v-34c0 -7 -5 -12 -12 -12h-92zM198 -1
c-38 0 -68 32 -68 72s31 72 68 72s69 -32 69 -72s-31 -72 -69 -72z" />
    <glyph glyph-name="questiondown" unicode="&#xbf;" horiz-adv-x="413" 
d="M215 501c38 0 68 -32 68 -72s-31 -72 -68 -72s-69 32 -69 72s31 72 69 72zM266 286c7 0 12 -5 12 -12v-41c0 -136 -139 -141 -139 -251c0 -52 26 -86 66 -86c44 0 71 37 71 89v21c0 8 4 11 12 11l92 -4c7 0 12 -6 12 -13v-15c0 -116 -77 -195 -190 -195
c-110 0 -180 75 -180 188c0 167 140 169 140 262v34c0 7 5 12 12 12h92z" />
    <glyph glyph-name="periodcentered" unicode="&#xb7;" horiz-adv-x="148" 
d="M74 -1c-43 0 -74 34 -74 77c0 42 37 76 74 76c38 0 75 -34 75 -76c0 -43 -32 -77 -75 -77z" />
    <glyph glyph-name="bullet" unicode="&#x2022;" horiz-adv-x="302" 
d="M152 148c-69 0 -125 57 -125 125c0 70 56 124 125 124c68 0 124 -54 124 -124c0 -68 -56 -125 -124 -125z" />
    <glyph glyph-name="asterisk" unicode="*" horiz-adv-x="361" 
d="M159 395c-7 0 -12 5 -12 12v95c0 4 -3 5 -6 3l-81 -48c-6 -4 -12 -2 -16 5l-21 39c-4 6 -2 12 4 16l85 50c3 2 3 5 0 7l-85 49c-6 4 -7 10 -4 16l21 41c3 7 11 9 17 5l80 -49c3 -2 6 -1 6 3v95c0 7 5 12 12 12h44c7 0 12 -5 12 -12l-1 -95c0 -4 3 -5 6 -3l80 49
c6 4 13 2 17 -5l21 -41c3 -6 2 -12 -4 -16l-84 -49c-3 -2 -3 -5 0 -7l84 -50c6 -4 8 -10 5 -16l-22 -41c-4 -7 -11 -8 -17 -4l-80 49c-3 2 -6 1 -6 -3l1 -95c0 -7 -5 -12 -12 -12h-44z" />
    <glyph glyph-name="numbersign" unicode="#" horiz-adv-x="606" 
d="M565 425c0 -7 -5 -12 -12 -12h-61c-3 0 -6 -2 -6 -5l-17 -120c0 -3 1 -5 4 -5h46c7 0 12 -5 12 -12v-75c0 -7 -5 -12 -12 -12h-61c-3 0 -6 -2 -6 -5l-21 -145c-1 -8 -6 -11 -13 -11l-92 1c-8 0 -12 4 -11 13l21 142c0 3 -1 5 -4 5h-105c-3 0 -6 -2 -6 -5l-21 -145
c-1 -8 -6 -11 -13 -11l-92 1c-8 0 -12 4 -11 13l21 142c0 3 -1 5 -4 5h-47c-7 0 -12 5 -12 12v75c0 7 5 12 12 12h62c3 0 6 2 6 5l17 120c0 3 -1 5 -4 5h-47c-7 0 -12 5 -12 12v76c0 7 5 12 12 12h62c3 0 6 2 6 5l21 145c1 8 6 11 13 11l92 -1c8 0 12 -4 11 -13l-21 -142
c0 -3 1 -5 4 -5h105c3 0 6 2 6 5l21 145c1 8 6 11 13 11l92 -1c8 0 12 -4 11 -13l-21 -142c0 -3 1 -5 4 -5h46c7 0 12 -5 12 -12v-76zM347 283c3 0 6 2 6 5l17 120c0 3 -1 5 -4 5h-105c-3 0 -6 -2 -6 -5l-17 -120c0 -3 1 -5 4 -5h105z" />
    <glyph glyph-name="slash" unicode="/" horiz-adv-x="361" 
d="M31 0c-8 0 -12 6 -10 14l205 676c2 6 6 10 13 10h92c8 0 12 -6 10 -14l-205 -676c-2 -6 -6 -10 -13 -10h-92z" />
    <glyph glyph-name="backslash" unicode="\" horiz-adv-x="361" 
d="M340 14c2 -8 -2 -14 -10 -14h-92c-7 0 -11 4 -13 10l-205 676c-2 8 2 14 10 14h92c7 0 11 -4 13 -10z" />
    <glyph glyph-name="parenleft" unicode="(" horiz-adv-x="279" 
d="M116 -96c-6 0 -11 2 -14 8c-57 94 -102 238 -102 418c0 181 45 328 103 422c3 6 8 8 14 8h90c9 0 13 -6 10 -14c-43 -94 -87 -239 -87 -416c0 -175 44 -318 87 -412c3 -8 -1 -14 -10 -14h-91z" />
    <glyph glyph-name="parenright" unicode=")" horiz-adv-x="279" 
d="M177 -88c-3 -6 -8 -8 -14 -8h-91c-9 0 -13 6 -10 14c43 94 87 237 87 412c0 177 -44 322 -87 416c-3 8 1 14 10 14h90c6 0 11 -2 14 -8c58 -94 103 -241 103 -422c0 -180 -45 -324 -102 -418z" />
    <glyph glyph-name="braceleft" unicode="{" horiz-adv-x="319" 
d="M208 -138c-75 0 -115 42 -115 120v211c0 55 -18 84 -55 90c-7 1 -11 5 -11 12v69c0 7 4 12 11 13c37 6 55 34 55 88v206c0 78 40 120 115 120h71c7 0 12 -5 12 -12v-76c0 -7 -5 -12 -12 -12h-20c-30 0 -50 -25 -50 -67v-173c0 -62 -18 -100 -53 -118c-3 -2 -3 -4 0 -6
c35 -19 53 -58 53 -120v-177c0 -43 20 -67 50 -67h20c7 0 12 -5 12 -12v-77c0 -7 -5 -12 -12 -12h-71z" />
    <glyph glyph-name="braceright" unicode="}" horiz-adv-x="319" 
d="M111 -138h-71c-7 0 -12 5 -12 12v77c0 7 5 12 12 12h20c30 0 50 24 50 67v177c0 62 18 101 53 120c3 2 3 4 0 6c-35 18 -53 56 -53 118v173c0 42 -20 67 -50 67h-20c-7 0 -12 5 -12 12v76c0 7 5 12 12 12h71c75 0 115 -42 115 -120v-206c0 -54 18 -82 55 -88
c7 -1 11 -6 11 -13v-69c0 -7 -4 -11 -11 -12c-37 -6 -55 -35 -55 -90v-211c0 -78 -40 -120 -115 -120z" />
    <glyph glyph-name="bracketleft" unicode="[" horiz-adv-x="330" 
d="M39 -138c-7 0 -12 5 -12 12v905c0 7 5 12 12 12h186c7 0 12 -5 12 -12v-76c0 -7 -5 -12 -12 -12h-77c-3 0 -5 -2 -5 -5v-718c0 -3 2 -5 5 -5h77c7 0 12 -5 12 -12v-77c0 -7 -5 -12 -12 -12h-186z" />
    <glyph glyph-name="bracketright" unicode="]" horiz-adv-x="330" 
d="M303 -126c0 -7 -5 -12 -12 -12h-186c-7 0 -12 5 -12 12v77c0 7 5 12 12 12h77c3 0 5 2 5 5v718c0 3 -2 5 -5 5h-77c-7 0 -12 5 -12 12v76c0 7 5 12 12 12h186c7 0 12 -5 12 -12v-905z" />
    <glyph glyph-name="hyphen" unicode="-" horiz-adv-x="325" 
d="M39 251c-7 0 -12 5 -12 12v76c0 7 5 12 12 12h247c7 0 12 -5 12 -12v-76c0 -7 -5 -12 -12 -12h-247z" />
    <glyph glyph-name="uni00AD" unicode="&#xad;" horiz-adv-x="325" 
d="M39 251c-7 0 -12 5 -12 12v76c0 7 5 12 12 12h247c7 0 12 -5 12 -12v-76c0 -7 -5 -12 -12 -12h-247z" />
    <glyph glyph-name="endash" unicode="&#x2013;" horiz-adv-x="377" 
d="M39 234c-7 0 -12 5 -12 12v76c0 7 5 12 12 12h300c7 0 12 -5 12 -12v-76c0 -7 -5 -12 -12 -12h-300z" />
    <glyph glyph-name="emdash" unicode="&#x2014;" horiz-adv-x="593" 
d="M39 234c-7 0 -12 5 -12 12v76c0 7 5 12 12 12h515c7 0 12 -5 12 -12v-76c0 -7 -5 -12 -12 -12h-515z" />
    <glyph glyph-name="underscore" unicode="_" horiz-adv-x="405" 
d="M29 0c-7 0 -12 5 -12 12v65c0 7 5 12 12 12h347c7 0 12 -5 12 -12v-65c0 -7 -5 -12 -12 -12h-347z" />
    <glyph glyph-name="quotesinglbase" unicode="&#x201a;" horiz-adv-x="600" 
d="M45 -91c-8 0 -13 5 -12 13l26 224c1 8 5 11 12 11h80c8 0 12 -4 10 -13l-49 -224c-1 -7 -6 -11 -13 -11h-54z" />
    <glyph glyph-name="quotedblbase" unicode="&#x201e;" horiz-adv-x="309" 
d="M149 128c8 0 12 -5 9 -14l-66 -194c-2 -6 -6 -10 -13 -10h-65c-8 0 -13 4 -11 13l45 194c2 7 6 11 13 11h88zM301 128c8 0 13 -5 10 -14l-67 -194c-2 -6 -6 -10 -13 -10h-66c-8 0 -13 4 -11 13l47 195c2 7 6 10 13 10h87z" />
    <glyph glyph-name="quotedblleft" unicode="&#x201c;" horiz-adv-x="316" 
d="M15 482c-8 0 -13 5 -10 14l67 194c2 6 6 10 13 10h66c8 0 13 -4 11 -13l-47 -195c-2 -7 -6 -10 -13 -10h-87zM167 482c-8 0 -12 5 -9 14l66 194c2 6 6 10 13 10h65c8 0 13 -4 11 -13l-45 -194c-2 -7 -6 -11 -13 -11h-88z" />
    <glyph glyph-name="quotedblright" unicode="&#x201d;" horiz-adv-x="316" 
d="M149 700c8 0 12 -5 9 -14l-66 -194c-2 -6 -6 -10 -13 -10h-65c-8 0 -13 4 -11 13l45 194c2 7 6 11 13 11h88zM301 700c8 0 13 -5 10 -14l-67 -194c-2 -6 -6 -10 -13 -10h-66c-8 0 -13 4 -11 13l47 195c2 7 6 10 13 10h87z" />
    <glyph glyph-name="quoteleft" unicode="&#x2018;" horiz-adv-x="165" 
d="M14 482c-8 0 -12 5 -9 14l65 194c2 6 6 10 13 10h68c8 0 13 -4 11 -13l-43 -194c-1 -7 -6 -11 -13 -11h-92z" />
    <glyph glyph-name="quoteright" unicode="&#x2019;" horiz-adv-x="165" 
d="M151 700c8 0 12 -5 9 -14l-65 -194c-2 -6 -6 -10 -13 -10h-68c-8 0 -13 4 -11 13l43 194c1 7 6 11 13 11h92z" />
    <glyph glyph-name="guillemotleft" unicode="&#xab;" horiz-adv-x="463" 
d="M244 121c5 -9 0 -14 -9 -14h-79c-6 0 -12 3 -15 8l-87 158c-3 5 -3 11 0 16l87 158c3 5 9 8 15 8h79c9 0 14 -5 9 -14l-89 -157c-1 -2 -1 -4 0 -6zM401 121c5 -9 0 -14 -9 -14h-79c-6 0 -12 3 -15 8l-87 158c-3 5 -3 11 0 16l87 158c3 5 9 8 15 8h79c9 0 14 -5 9 -14
l-89 -157c-1 -2 -1 -4 0 -6z" />
    <glyph glyph-name="guillemotright" unicode="&#xbb;" horiz-adv-x="463" 
d="M71 107c-9 0 -14 5 -9 14l89 157c1 2 1 4 0 6l-89 157c-5 9 0 14 9 14h79c6 0 12 -3 15 -8l87 -158c3 -5 3 -11 0 -16l-87 -158c-3 -5 -9 -8 -15 -8h-79zM228 107c-9 0 -14 5 -9 14l89 157c1 2 1 4 0 6l-89 157c-5 9 0 14 9 14h79c6 0 12 -3 15 -8l87 -158
c3 -5 3 -11 0 -16l-87 -158c-3 -5 -9 -8 -15 -8h-79z" />
    <glyph glyph-name="guilsinglleft" unicode="&#x2039;" horiz-adv-x="298" 
d="M236 121c5 -9 0 -14 -9 -14h-79c-6 0 -12 3 -15 8l-87 158c-3 5 -3 11 0 16l87 158c3 5 9 8 15 8h79c9 0 14 -5 9 -14l-89 -157c-1 -2 -1 -4 0 -6z" />
    <glyph glyph-name="guilsinglright" unicode="&#x203a;" horiz-adv-x="311" 
d="M71 107c-9 0 -14 5 -9 14l89 157c1 2 1 4 0 6l-89 157c-5 9 0 14 9 14h79c6 0 12 -3 15 -8l87 -158c3 -5 3 -11 0 -16l-87 -158c-3 -5 -9 -8 -15 -8h-79z" />
    <glyph glyph-name="quotedbl" unicode="&#x22;" horiz-adv-x="306" 
d="M41 477c-7 0 -13 5 -13 12l-10 196c0 8 3 12 11 12h87c8 0 11 -4 11 -12l-10 -196c0 -7 -6 -12 -13 -12h-63zM201 477c-7 0 -13 5 -13 12l-10 196c0 8 3 12 11 12h87c8 0 11 -4 11 -12l-10 -196c0 -7 -6 -12 -13 -12h-63z" />
    <glyph glyph-name="quotesingle" unicode="'" horiz-adv-x="152" 
d="M41 480c-7 0 -13 5 -13 12l-10 195c0 8 3 12 11 12h93c8 0 11 -4 11 -12l-11 -195c0 -7 -6 -12 -13 -12h-68z" />
    <glyph glyph-name="space" unicode=" " horiz-adv-x="200" 
 />
    <glyph glyph-name="uni00A0" unicode="&#xa0;" horiz-adv-x="200" 
 />
    <glyph glyph-name="CR" unicode="&#xd;" horiz-adv-x="200" 
 />
    <glyph glyph-name="cent" unicode="&#xa2;" horiz-adv-x="422" 
d="M393 441c0 -7 -5 -12 -12 -12l-92 -4c-8 0 -12 4 -12 11v11c0 33 -25 62 -62 62c-36 0 -61 -29 -61 -71v-185c0 -42 25 -71 61 -71c37 0 62 29 62 63v10c0 7 5 12 12 12l92 -1c7 0 12 -5 12 -12v-18c0 -77 -47 -133 -127 -149c-3 -1 -5 -3 -5 -6l3 -68
c0 -7 -5 -12 -12 -12h-74c-7 0 -12 5 -12 12l3 68c0 3 -2 5 -5 6c-79 16 -126 75 -126 158v202c0 80 47 140 126 157c3 1 5 3 5 6l-3 68c0 7 5 12 12 12h74c7 0 12 -5 12 -12l-3 -68c0 -3 2 -5 5 -6c80 -17 127 -75 127 -149v-14z" />
    <glyph glyph-name="currency" unicode="&#xa4;" horiz-adv-x="547" 
d="M483 302c0 -38 -10 -75 -29 -106c-1 -3 -1 -5 1 -7l64 -64c5 -5 6 -11 0 -17l-57 -50c-5 -5 -11 -6 -17 0l-62 61c-2 2 -4 2 -7 1c-31 -19 -68 -29 -106 -29c-36 0 -72 9 -102 26c-3 1 -5 1 -7 -1l-59 -58c-6 -6 -12 -5 -17 0l-57 50c-6 6 -5 12 0 17l60 59c2 2 2 4 1 7
c-21 32 -33 71 -33 111c0 39 11 76 30 107c1 3 1 5 -1 7l-63 64c-5 5 -6 11 0 17l56 49c5 5 11 6 17 0l60 -60c2 -2 4 -2 7 -1c32 19 69 29 108 29c40 0 79 -11 111 -32c3 -1 5 -1 7 1l63 63c5 5 12 5 17 0l57 -49c6 -5 5 -12 0 -17l-68 -68c-2 -2 -2 -4 -1 -7
c17 -30 27 -65 27 -103zM157 302c0 -62 51 -113 113 -113s113 50 113 113s-52 114 -113 114c-62 0 -113 -51 -113 -114z" />
    <glyph glyph-name="dollar" unicode="$" horiz-adv-x="440" 
d="M410 180c0 -102 -61 -171 -150 -185c-3 -1 -5 -2 -5 -6l1 -54c0 -7 -5 -12 -12 -12h-52c-7 0 -12 5 -12 12l1 56c0 3 -1 5 -4 6c-84 18 -137 86 -137 176v28c0 7 5 12 12 12h90c7 0 12 -5 12 -12v-22c0 -53 30 -87 70 -87c41 0 71 32 71 82c0 53 -35 78 -105 130
c-76 55 -152 111 -152 223c0 95 55 161 137 177c3 1 5 3 5 6l-1 62c0 7 5 12 12 12h51c7 0 12 -5 12 -12l-1 -61c0 -3 2 -5 5 -6c90 -15 147 -86 147 -185v-24c0 -7 -5 -12 -12 -12h-91c-7 0 -12 5 -12 12v26c0 52 -29 86 -71 86c-38 0 -67 -29 -67 -81
c0 -50 27 -75 101 -130c102 -76 157 -119 157 -217z" />
    <glyph glyph-name="Euro" unicode="&#x20ac;" horiz-adv-x="495" 
d="M283 92c33 0 54 24 58 62c1 8 5 12 13 11l91 -12c7 -1 12 -6 10 -14c-15 -91 -79 -147 -172 -147c-105 0 -174 74 -174 188v76c0 3 -2 5 -5 5h-50c-7 0 -12 5 -12 12v39c0 7 5 12 12 12h50c3 0 5 2 5 5v40c0 3 -2 5 -5 5h-50c-7 0 -12 5 -12 12v38c0 7 5 12 12 12h50
c3 0 5 2 5 5v80c0 115 69 187 174 187c95 0 161 -57 174 -151c1 -8 -4 -12 -11 -13l-92 -11c-8 -1 -12 3 -13 11c-3 39 -25 64 -58 64c-35 0 -58 -32 -58 -79v-88c0 -3 2 -5 5 -5h150c8 0 13 -5 10 -14l-13 -38c-2 -6 -6 -10 -13 -10h-134c-3 0 -5 -2 -5 -5v-40
c0 -3 2 -5 5 -5h119c8 0 12 -5 9 -14l-13 -39c-2 -6 -6 -10 -13 -10h-102c-3 0 -5 -2 -5 -5v-85c0 -47 23 -79 58 -79z" />
    <glyph glyph-name="florin" unicode="&#x192;" horiz-adv-x="474" 
d="M226 554c18 117 72 163 212 151c8 -1 12 -6 12 -13l-2 -71c0 -7 -5 -12 -12 -12h-26c-45 -1 -62 -33 -70 -81l-19 -119c0 -3 1 -5 4 -5h62c7 0 12 -5 12 -12v-62c0 -7 -5 -12 -12 -12h-76c-3 0 -6 -2 -6 -5l-60 -367c-18 -116 -72 -163 -211 -151c-8 1 -12 5 -12 12l1 72
c0 7 5 12 12 12h26c44 1 63 33 70 81l55 341c0 3 -1 5 -4 5h-46c-7 0 -12 5 -12 12v62c0 7 5 12 12 12h61c3 0 6 2 6 5z" />
    <glyph glyph-name="franc" unicode="&#x20a3;" horiz-adv-x="478" 
d="M465 612c0 -7 -5 -12 -12 -12h-215c-3 0 -5 -2 -5 -5v-189c0 -3 2 -5 5 -5h127c7 0 12 -5 12 -12v-77c0 -7 -5 -12 -12 -12h-127c-3 0 -5 -2 -5 -5v-93c0 -3 2 -5 5 -5h93c7 0 12 -5 12 -12v-47c0 -7 -5 -12 -12 -12h-93c-3 0 -5 -2 -5 -5v-109c0 -7 -5 -12 -12 -12h-92
c-7 0 -12 5 -12 12v109c0 3 -2 5 -5 5h-46c-7 0 -12 5 -12 12v47c0 7 5 12 12 12h46c3 0 5 2 5 5v486c0 7 5 12 12 12h324c7 0 12 -5 12 -12v-76z" />
    <glyph glyph-name="sterling" unicode="&#xa3;" horiz-adv-x="512" 
d="M213 106c-3 -3 -1 -6 3 -6h259c7 0 12 -5 12 -12v-76c0 -7 -5 -12 -12 -12h-378c-7 0 -12 5 -12 12v79c0 6 2 10 7 15c22 22 32 56 32 103v81c0 3 -2 5 -5 5h-53c-7 0 -12 5 -12 12v70c0 7 5 12 12 12h53c3 0 5 2 5 5v104c0 130 67 206 173 210c97 3 159 -52 181 -154
c2 -8 -1 -13 -9 -14l-89 -11c-7 -1 -13 3 -14 11c-10 48 -32 69 -65 68c-42 -2 -62 -38 -62 -105v-109c0 -3 2 -5 5 -5h134c7 0 12 -5 12 -12v-70c0 -7 -5 -12 -12 -12h-134c-3 0 -5 -2 -5 -5v-80c0 -47 -12 -83 -26 -104z" />
    <glyph glyph-name="uni20BA" unicode="&#x20ba;" horiz-adv-x="573" 
d="M523 277c7 0 12 -4 12 -12c-2 -140 -86 -251 -263 -262c-38 -2 -76 -3 -115 -3c-8 0 -12 5 -12 12v275c0 3 -3 5 -6 4l-66 -20c-7 -2 -13 1 -15 9l-13 42c-2 8 1 12 8 14l88 27c2 1 4 2 4 5v47c0 3 -3 5 -6 4l-66 -20c-7 -2 -13 1 -15 9l-13 42c-2 8 1 12 8 14l88 27
c2 1 4 2 4 5v192c0 7 5 12 12 12h92c7 0 12 -5 12 -12v-154c0 -3 3 -5 6 -4l126 38c7 2 13 0 15 -8l13 -43c2 -8 -1 -12 -8 -14l-148 -45c-2 -1 -4 -2 -4 -5v-47c0 -3 3 -5 6 -4l126 38c7 2 13 0 15 -8l13 -43c2 -8 -1 -12 -8 -14l-148 -45c-2 -1 -4 -2 -4 -5v-220
c0 -3 2 -5 5 -5c100 8 152 66 153 165c0 8 5 12 12 12h92z" />
    <glyph glyph-name="uni20BD" unicode="&#x20bd;" horiz-adv-x="522" 
d="M324 295h-85c-3 0 -5 -2 -5 -5v-62c0 -3 2 -5 5 -5h157c7 0 12 -5 12 -12v-43c0 -7 -5 -12 -12 -12h-157c-3 0 -5 -2 -5 -5v-139c0 -7 -5 -12 -12 -12h-92c-7 0 -12 5 -12 12v139c0 3 -2 5 -5 5h-46c-7 0 -12 5 -12 12v43c0 7 5 12 12 12h46c3 0 5 2 5 5v62
c0 3 -2 5 -5 5h-47c-7 0 -12 5 -12 12v67c0 7 5 12 12 12h47c3 0 5 2 5 5v298c0 7 5 12 12 12h188c107 0 179 -84 179 -206c0 -121 -70 -200 -173 -200zM239 601c-3 0 -5 -2 -5 -5v-205c0 -3 2 -5 5 -5h61c48 0 81 40 81 106c0 68 -33 109 -81 109h-61z" />
    <glyph glyph-name="yen" unicode="&#xa5;" horiz-adv-x="528" 
d="M450 700c8 0 13 -5 10 -14l-121 -343c-1 -4 1 -6 4 -6h104c7 0 12 -5 12 -12v-42c0 -7 -5 -12 -12 -12h-122c-3 0 -5 -2 -5 -5v-47c0 -3 2 -5 5 -5h122c7 0 12 -5 12 -12v-42c0 -7 -5 -12 -12 -12h-122c-3 0 -5 -2 -5 -5v-130c0 -7 -5 -12 -12 -12h-92c-7 0 -12 5 -12 12
v130c0 3 -2 5 -5 5h-121c-7 0 -12 5 -12 12v42c0 7 5 12 12 12h121c3 0 5 2 5 5v47c0 3 -2 5 -5 5h-121c-7 0 -12 5 -12 12v42c0 7 5 12 12 12h103c3 0 5 2 4 6l-121 343c-3 9 2 14 10 14h96c7 0 12 -4 14 -10l75 -257c1 -4 5 -4 6 0l75 257c2 6 7 10 14 10h96z" />
    <glyph glyph-name="uni2219" unicode="&#x2219;" horiz-adv-x="302" 
d="M152 177c-69 0 -125 57 -125 125c0 70 56 124 125 124c68 0 124 -54 124 -124c0 -68 -56 -125 -124 -125z" />
    <glyph glyph-name="uni2215" unicode="&#x2215;" horiz-adv-x="440" 
d="M32 0c-9 0 -12 6 -9 14l290 677c3 7 8 9 14 9h82c9 0 12 -6 9 -14l-289 -677c-3 -7 -8 -9 -14 -9h-83z" />
    <glyph glyph-name="plus" unicode="+" 
d="M401 358c7 0 12 -5 12 -12v-64c0 -7 -5 -12 -12 -12h-132c-3 0 -5 -2 -5 -5v-132c0 -7 -5 -12 -12 -12h-64c-7 0 -12 5 -12 12v132c0 3 -2 5 -5 5h-132c-7 0 -12 5 -12 12v64c0 7 5 12 12 12h132c3 0 5 2 5 5v132c0 7 5 12 12 12h64c7 0 12 -5 12 -12v-132
c0 -3 2 -5 5 -5h132z" />
    <glyph glyph-name="minus" unicode="&#x2212;" 
d="M39 268c-7 0 -12 5 -12 12v64c0 7 5 12 12 12h362c7 0 12 -5 12 -12v-64c0 -7 -5 -12 -12 -12h-362z" />
    <glyph glyph-name="multiply" unicode="&#xd7;" horiz-adv-x="389" 
d="M354 424c5 -5 5 -11 0 -16l-93 -93c-2 -2 -2 -6 0 -8l93 -93c5 -6 5 -12 0 -17l-45 -45c-5 -5 -12 -6 -17 0l-93 93c-2 2 -6 2 -8 0l-94 -94c-5 -5 -11 -5 -16 0l-46 46c-5 5 -5 11 0 16l94 94c2 2 2 6 0 8l-93 93c-6 6 -5 12 0 17l45 45c5 5 11 6 17 0l93 -93
c2 -2 6 -2 8 0l93 93c5 5 11 5 16 0z" />
    <glyph glyph-name="divide" unicode="&#xf7;" 
d="M220 417c-35 0 -63 28 -63 63c0 34 28 62 63 62c34 0 63 -28 63 -62c0 -35 -29 -63 -63 -63zM39 273c-7 0 -12 5 -12 12v64c0 7 5 12 12 12h362c7 0 12 -5 12 -12v-64c0 -7 -5 -12 -12 -12h-362zM220 94c-35 0 -63 28 -63 63c0 34 28 62 63 62c34 0 63 -28 63 -62
c0 -35 -29 -63 -63 -63z" />
    <glyph glyph-name="equal" unicode="=" 
d="M39 372c-7 0 -12 5 -12 12v64c0 7 5 12 12 12h362c7 0 12 -5 12 -12v-64c0 -7 -5 -12 -12 -12h-362zM39 181c-7 0 -12 5 -12 12v64c0 7 5 12 12 12h362c7 0 12 -5 12 -12v-64c0 -7 -5 -12 -12 -12h-362z" />
    <glyph glyph-name="notequal" unicode="&#x2260;" 
d="M413 385c0 -7 -5 -12 -12 -12h-123c-2 0 -5 -2 -6 -4l-40 -93c-1 -3 0 -6 3 -6h166c7 0 12 -5 12 -12v-64c0 -7 -5 -12 -12 -12h-206c-2 0 -5 -2 -6 -4l-37 -84c-3 -7 -8 -9 -14 -9h-47c-9 0 -13 5 -9 14l34 77c1 3 0 6 -3 6h-74c-7 0 -12 5 -12 12v64c0 7 5 12 12 12
h114c2 0 5 2 6 4l40 93c1 3 0 6 -3 6h-157c-7 0 -12 5 -12 12v64c0 7 5 12 12 12h198c2 0 5 2 6 4l34 78c3 7 8 9 14 9h47c9 0 13 -5 9 -14l-31 -71c-1 -3 0 -6 3 -6h82c7 0 12 -5 12 -12v-64z" />
    <glyph glyph-name="greater" unicode="&#x3e;" 
d="M41 59c-8 -4 -14 0 -14 9v85c0 6 3 11 9 14l259 114c4 2 4 4 0 6l-259 114c-6 3 -9 8 -9 14v85c0 9 6 13 14 9l363 -171c6 -3 9 -8 9 -14v-81c0 -6 -3 -11 -9 -14z" />
    <glyph glyph-name="less" unicode="&#x3c;" 
d="M412 68c0 -9 -6 -13 -14 -9l-363 170c-6 3 -9 8 -9 14v81c0 6 3 11 9 14l363 171c8 4 14 0 14 -9v-85c0 -6 -3 -11 -9 -14l-259 -114c-4 -2 -4 -4 0 -6l259 -114c6 -3 9 -8 9 -14v-85z" />
    <glyph glyph-name="greaterequal" unicode="&#x2265;" 
d="M41 134c-8 -4 -14 0 -14 9v85c0 6 3 11 9 14l259 114c4 2 4 4 0 6l-259 114c-6 3 -9 8 -9 14v85c0 9 6 13 14 9l363 -171c6 -3 9 -8 9 -14v-81c0 -6 -3 -11 -9 -14zM39 18c-7 0 -12 5 -12 12v64c0 7 5 12 12 12h362c7 0 12 -5 12 -12v-64c0 -7 -5 -12 -12 -12h-362z" />
    <glyph glyph-name="lessequal" unicode="&#x2264;" 
d="M412 143c0 -9 -6 -13 -14 -9l-363 170c-6 3 -9 8 -9 14v81c0 6 3 11 9 14l363 171c8 4 14 0 14 -9v-85c0 -6 -3 -11 -9 -14l-259 -114c-4 -2 -4 -4 0 -6l259 -114c6 -3 9 -8 9 -14v-85zM412 30c0 -7 -5 -12 -12 -12h-362c-7 0 -12 5 -12 12v64c0 7 5 12 12 12h362
c7 0 12 -5 12 -12v-64z" />
    <glyph glyph-name="plusminus" unicode="&#xb1;" 
d="M264 424c0 -3 2 -5 5 -5h132c7 0 12 -5 12 -12v-64c0 -7 -5 -12 -12 -12h-132c-3 0 -5 -2 -5 -5v-132c0 -7 -5 -12 -12 -12h-64c-7 0 -12 5 -12 12v132c0 3 -2 5 -5 5h-132c-7 0 -12 5 -12 12v64c0 7 5 12 12 12h132c3 0 5 2 5 5v132c0 7 5 12 12 12h64c7 0 12 -5 12 -12
v-132zM39 18c-7 0 -12 5 -12 12v64c0 7 5 12 12 12h362c7 0 12 -5 12 -12v-64c0 -7 -5 -12 -12 -12h-362z" />
    <glyph glyph-name="approxequal" unicode="&#x2248;" horiz-adv-x="480" 
d="M325 341c-37 0 -62 15 -87 29c-24 15 -45 29 -70 29c-29 0 -51 -16 -67 -38c-4 -6 -10 -8 -16 -4l-49 30c-6 4 -8 9 -6 16c21 55 70 97 128 97c33 0 57 -13 79 -26c26 -16 50 -32 81 -32c26 0 42 16 56 36c5 7 11 8 17 4l52 -33c6 -4 8 -10 5 -16
c-27 -48 -68 -92 -123 -92zM325 131c-37 0 -62 15 -87 29c-24 15 -45 29 -70 29c-29 0 -51 -16 -67 -38c-4 -6 -10 -8 -16 -4l-49 30c-6 4 -8 9 -6 16c21 55 70 97 128 97c33 0 57 -13 79 -26c26 -16 50 -32 81 -32c26 0 42 16 56 36c5 7 11 8 17 4l52 -33c6 -4 8 -10 5 -16
c-27 -48 -68 -92 -123 -92z" />
    <glyph glyph-name="asciitilde" unicode="~" horiz-adv-x="480" 
d="M325 213c-37 0 -62 15 -87 29c-24 15 -45 29 -70 29c-29 0 -51 -16 -67 -38c-4 -6 -10 -8 -16 -4l-49 30c-6 4 -8 9 -6 16c21 55 70 97 128 97c33 0 57 -13 79 -26c26 -16 50 -32 81 -32c26 0 42 16 56 36c5 7 11 8 17 4l52 -33c6 -4 8 -10 5 -16
c-27 -48 -68 -92 -123 -92z" />
    <glyph glyph-name="logicalnot" unicode="&#xac;" 
d="M401 356c7 0 12 -5 12 -12v-69v-7h-1v-88c0 -7 -5 -12 -12 -12h-65c-7 0 -12 5 -12 12v83c0 3 -2 5 -5 5h-279c-7 0 -12 5 -12 12v64c0 7 5 12 12 12h362z" />
    <glyph glyph-name="infinity" unicode="&#x221e;" horiz-adv-x="651" 
d="M471 495c87 0 153 -74 153 -176c0 -103 -67 -175 -155 -175c-62 0 -106 40 -144 92c-3 3 -5 3 -8 0c-34 -47 -80 -92 -141 -92c-82 0 -149 75 -149 177c0 103 68 174 151 174c63 0 106 -43 141 -91c2 -3 4 -3 7 0c37 50 82 91 145 91zM177 234c29 0 52 25 91 83
c1 3 1 5 0 8c-35 54 -57 80 -89 80c-33 0 -62 -31 -62 -84c0 -52 27 -87 60 -87zM470 234c36 0 64 33 64 85s-27 86 -61 86c-32 0 -63 -25 -100 -82c-1 -3 -1 -6 2 -10c31 -50 59 -79 95 -79z" />
    <glyph glyph-name="integral" unicode="&#x222b;" horiz-adv-x="332" 
d="M34 -204c-8 0 -12 5 -12 12v71c0 7 5 12 12 12h13c43 1 56 33 56 81l3 582c1 117 49 148 190 150c8 0 12 -5 12 -12v-71c0 -7 -5 -12 -12 -12h-14c-45 -1 -57 -33 -58 -81l-2 -582c-1 -117 -50 -148 -188 -150z" />
    <glyph glyph-name="uni2126" unicode="&#x2126;" horiz-adv-x="491" 
d="M54 0c-7 0 -12 5 -12 12v76c0 7 5 12 12 12h41c4 0 5 3 2 6c-26 29 -42 70 -42 119v293c0 115 76 190 191 190s192 -75 192 -190v-293c0 -49 -16 -90 -43 -119c-3 -3 -1 -6 3 -6h39c7 0 12 -5 12 -12v-76c0 -7 -5 -12 -12 -12h-161c-7 0 -12 5 -12 12v77c0 7 4 11 10 14
c27 10 48 40 48 81v339c0 50 -30 85 -76 85c-45 0 -75 -35 -75 -85v-339c0 -41 20 -71 46 -80c6 -3 10 -7 10 -14v-78c0 -7 -5 -12 -12 -12h-161z" />
    <glyph glyph-name="uni2206" unicode="&#x2206;" horiz-adv-x="553" 
d="M37 0c-7 0 -12 5 -12 12v79c0 5 0 9 2 15l204 584c2 6 6 10 13 10h64c7 0 11 -4 13 -10l205 -585c2 -6 2 -10 2 -15v-78c0 -7 -5 -12 -12 -12h-479zM140 106c-1 -4 1 -6 4 -6h265c3 0 5 2 4 6l-133 436c-1 5 -5 5 -6 0z" />
    <glyph glyph-name="product" unicode="&#x220f;" horiz-adv-x="478" 
d="M412 800c7 0 12 -5 12 -12v-976c0 -7 -5 -12 -12 -12h-92c-7 0 -12 5 -12 12v883c0 3 -2 5 -5 5h-128c-3 0 -5 -2 -5 -5v-883c0 -7 -5 -12 -12 -12h-92c-7 0 -12 5 -12 12v976c0 7 5 12 12 12h346z" />
    <glyph glyph-name="summation" unicode="&#x2211;" horiz-adv-x="504" 
d="M66 -200c-7 0 -12 5 -12 12v80c0 5 1 10 3 15l196 403c1 3 1 4 0 6l-194 333c-3 5 -4 10 -4 15v80c0 7 5 12 12 12h393c7 0 12 -5 12 -12v-76c0 -7 -5 -12 -12 -12h-291c-4 0 -5 -2 -3 -6l199 -329c3 -6 4 -11 1 -16l-201 -399c-2 -4 1 -6 4 -6h291c7 0 12 -5 12 -12v-76
c0 -7 -5 -12 -12 -12h-394z" />
    <glyph glyph-name="radical" unicode="&#x221a;" horiz-adv-x="700" 
d="M160 -200c-7 0 -11 4 -13 10l-126 374c-2 7 -1 12 7 15l85 28c8 3 14 -1 16 -8l66 -222c1 -5 6 -4 7 0l177 785c2 7 6 11 13 11h250c7 0 12 -5 12 -12v-76c0 -7 -5 -12 -12 -12h-167c-3 0 -4 -1 -5 -4l-205 -879c-2 -7 -6 -10 -13 -10h-92z" />
    </font>
</defs>
</svg>
