<?xml version="1.0" encoding="utf-8"?>
<!-- Generator: Adobe Illustrator 19.0.0, SVG Export Plug-In . SVG Version: 6.00 Build 0)  -->
<svg version="1.1" id="Layer_1" xmlns="http://www.w3.org/2000/svg" xmlns:xlink="http://www.w3.org/1999/xlink" x="0px" y="0px"
	 viewBox="0 0 266.1 40" style="enable-background:new 0 0 266.1 40;" xml:space="preserve">
<style type="text/css">
	.st0{fill:#999999;}
	.st1{fill-rule:evenodd;clip-rule:evenodd;fill:#999999;}
	.st2{fill:#FF0000;}
	.st3{fill-rule:evenodd;clip-rule:evenodd;fill:#FF0000;}
	.st4{fill-rule:evenodd;clip-rule:evenodd;}
</style>
<polygon id="XMLID_41_" points="0.2,0 9.2,0 9.2,3.2 3.7,3.2 3.7,36.8 9,36.8 9,40 0,40 0,0 0.2,0 "/>
<polygon id="XMLID_40_" points="265.9,0 256.9,0 256.9,3.2 262.4,3.2 262.4,36.8 257.1,36.8 257.1,40 266.1,40 266.1,0 265.9,0 "/>
<path id="XMLID_39_" class="st0" d="M126.7,14.1v4l5.4-0.8v-2c0-3.9-1.4-4.9-5.8-4.9h-14c-4.4,0-5.8,1-5.8,4.9v11
	c0,3.9,1.4,4.9,5.8,4.9h14c4.4,0,5.8-1,5.8-4.9v-2.5l-5.4-1v4.5H112V14.1H126.7L126.7,14.1z"/>
<path class="st1" d="M138.7,18.2v9c0,3.2,1.2,4.1,5,4.1h14.8c3.8,0,5-0.8,5-4.1v-9c0-3.3-1.2-4.1-5-4.1h-14.8
	C139.9,14.1,138.7,14.9,138.7,18.2L138.7,18.2 M143.4,28V17.3h15.5V28H143.4L143.4,28z"/>
<path class="st1" d="M170.3,31.3h11.7c8.4,0,12.7-2.8,12.7-8.6c0-5.3-3.9-8.5-11.5-8.5h-12.9V31.3L170.3,31.3 M175.1,28.1V17.2h8.2
	c4.4,0,6.7,1.7,6.7,5.2c0,4.5-2.9,5.6-8.9,5.6H175.1L175.1,28.1z"/>
<polygon id="XMLID_34_" class="st0" points="200.6,31.3 221.4,31.3 221.4,28.1 205.3,28.1 205.3,23.9 214.5,23.9 214.5,20.9 
	205.3,20.9 205.3,17.2 221.1,17.2 221.1,14.1 200.6,14.1 200.6,31.3 "/>
<path class="st1" d="M227.5,31.3h4.6v-6.5h4.4l8,6.5h6.7l-9.1-6.5h2.6c3.1,0,4.5-0.9,4.5-3.3v-4.1c0-2.4-1.4-3.3-4.5-3.3h-17.3V31.3
	L227.5,31.3 M242.7,17.1c1.4,0,2.1,0.2,2.1,1.4v2c0,1.1-0.7,1.4-2.1,1.4h-10.6v-4.7H242.7L242.7,17.1z"/>
<polygon id="XMLID_31_" class="st0" points="33,14.1 43.8,14.1 43.8,10.4 16.8,10.4 16.8,14.1 27.5,14.1 27.5,31.3 33,31.3 33,14.1 
	"/>
<path class="st1" d="M46.6,18.2v9c0,3.2,1.2,4.1,5,4.1h14.8c3.8,0,5-0.8,5-4.1v-9c0-3.3-1.2-4.1-5-4.1H51.6
	C47.8,14.1,46.6,14.9,46.6,18.2L46.6,18.2 M51.2,28V17.3h15.5V28H51.2L51.2,28z"/>
<path class="st1" d="M93.5,17.1c1.4,0,2.1,0.2,2.1,1.4v1.8c0,1.1-0.7,1.4-2.1,1.4H82.8v-4.5H93.5L93.5,17.1 M78.2,31.3h4.6v-6.7
	h12.6c3.1,0,4.5-0.9,4.5-3.3v-3.8c0-2.4-1.4-3.3-4.5-3.3H78.2V31.3L78.2,31.3z"/>
<path id="XMLID_26_" class="st2" d="M125.5,12.9v4l5.4-0.8v-2c0-3.9-1.4-4.9-5.8-4.9h-14c-4.4,0-5.8,1-5.8,4.9v11
	c0,3.9,1.4,4.9,5.8,4.9h14c4.4,0,5.8-1,5.8-4.9v-2.5l-5.4-1v4.5h-14.7V12.9H125.5L125.5,12.9z"/>
<path class="st3" d="M137.5,17v9c0,3.2,1.2,4.1,5,4.1h14.8c3.8,0,5-0.8,5-4.1v-9c0-3.3-1.2-4.1-5-4.1h-14.8
	C138.8,12.9,137.5,13.7,137.5,17L137.5,17 M142.2,26.8V16.1h15.5v10.7H142.2L142.2,26.8z"/>
<path class="st3" d="M169.1,30.1h11.7c8.4,0,12.7-2.8,12.7-8.6c0-5.3-3.9-8.5-11.5-8.5h-12.9V30.1L169.1,30.1 M173.9,26.9V16h8.2
	c4.4,0,6.7,1.7,6.7,5.2c0,4.5-2.9,5.6-8.9,5.6H173.9L173.9,26.9z"/>
<polygon id="XMLID_21_" class="st2" points="199.4,30.1 220.2,30.1 220.2,26.9 204.1,26.9 204.1,22.7 213.3,22.7 213.3,19.7 
	204.1,19.7 204.1,16 219.9,16 219.9,12.9 199.4,12.9 199.4,30.1 "/>
<path class="st3" d="M226.3,30.1h4.6v-6.5h4.4l8,6.5h6.7l-9.1-6.5h2.6c3.1,0,4.5-0.9,4.5-3.3v-4.1c0-2.4-1.4-3.3-4.5-3.3h-17.3V30.1
	L226.3,30.1 M241.5,15.9c1.4,0,2.1,0.2,2.1,1.4v2c0,1.1-0.7,1.4-2.1,1.4h-10.6v-4.7H241.5L241.5,15.9z"/>
<polygon id="XMLID_18_" points="31.8,12.9 42.6,12.9 42.6,9.2 15.6,9.2 15.6,12.9 26.3,12.9 26.3,30.1 31.8,30.1 31.8,12.9 "/>
<path class="st4" d="M45.4,17v9c0,3.2,1.2,4.1,5,4.1h14.8c3.8,0,5-0.8,5-4.1v-9c0-3.3-1.2-4.1-5-4.1H50.4
	C46.6,12.9,45.4,13.7,45.4,17L45.4,17 M50,26.8V16.1h15.5v10.7H50L50,26.8z"/>
<path class="st4" d="M92.3,15.9c1.4,0,2.1,0.2,2.1,1.4V19c0,1.1-0.7,1.4-2.1,1.4H81.6v-4.5H92.3L92.3,15.9 M77,30.1h4.6v-6.7h12.6
	c3.1,0,4.5-0.9,4.5-3.3v-3.8c0-2.4-1.4-3.3-4.5-3.3H77V30.1L77,30.1z"/>
</svg>
