<?xml version="1.0" encoding="utf-8"?>
<!-- Generator: Adobe Illustrator 19.0.0, SVG Export Plug-In . SVG Version: 6.00 Build 0)  -->
<svg version="1.1" id="Layer_1" xmlns="http://www.w3.org/2000/svg" xmlns:xlink="http://www.w3.org/1999/xlink" x="0px" y="0px"
	 viewBox="0 0 92.8 40" style="enable-background:new 0 0 92.8 40;" xml:space="preserve">
<style type="text/css">
	.st0{fill:#FBB118;}
	.st1{fill:#33C5F3;}
	.st2{fill:#69BC45;}
	.st3{fill:#23A5DE;}
	.st4{fill:#F37A20;}
	.st5{fill:#2C8B43;}
</style>
<g id="XMLID_47_">
	<g id="XMLID_59_">
		<path id="XMLID_45_" class="st0" d="M56.9,20c0-3.2-2-5.2-5-5.2c-3,0-5,2.2-5,5.2c0,3.1,2.1,5.2,5,5.2
			C54.9,25.3,56.9,23.1,56.9,20z"/>
		<path id="XMLID_44_" class="st0" d="M59.6,0.5L48.2,4.6c-2.7,1.1-3.3,2.8-3.3,3.8c0,0.7,0,2.3,0,4.2c1.8-1.4,4.2-2.2,7-2.2
			c6.1,0,10.2,3.5,10.2,9.7c0,6.2-4.2,9.7-10.2,9.7c-2.8,0-5.2-0.8-7-2.2c0,1.8,0,3.4,0,3.9c0,0.8,0.6,2.4,3.3,3.5l11.6,4.4
			c2.6,1.2,4.8-0.2,4.8-3.1V3.8C64.5,0.9,62.3-0.6,59.6,0.5z"/>
	</g>
	<path id="XMLID_56_" d="M87.4,16.2c-0.1-1.1-1.3-1.6-2.8-1.6c-1.5,0-2.9,0.8-2.9,2.2v1.7c1.1-0.8,2.8-1.3,4.3-1.3
		c3.9,0,6.8,2.1,6.8,6c0,4.5-4,6.4-8.1,6.4c-4,0-8.2-1.8-8.2-6.4v-6.4c0-4.4,3.9-6.3,8-6.3c4.2,0,7.8,1.4,7.8,5.7H87.4z M87.6,23.2
		c0-1.4-1.1-2.2-2.8-2.2c-2,0-3,1-3,2.2c0,1.1,1,2.1,3,2.1C86.3,25.3,87.6,24.6,87.6,23.2z"/>
	<path id="XMLID_53_" class="st1" d="M17.5,0.3L3.4,4.8C0.7,5.8,0,7.4,0,8.4c0,1,0,4.1,0,7v9.4c0,2.9,0,5.9,0,6.7
		c0,0.8,0.7,2.3,3.4,3.3l14.2,4.9c2.7,1,4.9-0.5,4.9-3.4V3.8C22.5,0.9,20.2-0.7,17.5,0.3z M20.1,18h-4.4l-0.2-2.7h-1.7v9.9h2.2v4.1
		H6.4v-4.1h2.2v-9.9H6.9L6.8,18H2.4v-7.2h17.8V18z"/>
	<path id="XMLID_39_" class="st2" d="M38.6,0.5L27.1,4.6c-2.7,1.1-3.3,2.8-3.3,3.8c0,1,0,4.1,0,7v2c1-3.8,4.3-7.1,9.9-7.1
		c2.4,0,4.8,0.8,6.5,2.4v5.3h-4.4l-0.1-3c-0.7-0.2-1.3-0.3-1.9-0.3c-3.2,0-5.1,2.3-5.1,5.2c0,3.1,2,5.2,5,5.2c1.5,0,3.2-0.6,4.4-1.8
		l3.1,3.4c-2.1,2-4.5,2.9-7.5,2.9c-5,0-8.8-2.5-9.9-7v2c0,2.9,0,5.9,0,6.7c0,0.8,0.6,2.4,3.3,3.5l11.6,4.4c2.6,1.2,4.8-0.2,4.8-3.1
		V3.8C43.5,0.9,41.3-0.6,38.6,0.5z"/>
	<polygon id="XMLID_38_" points="73.1,25.3 73.1,10.5 65.9,13.1 65.9,17.2 68.2,16.6 68.2,25.3 65.9,25.3 65.9,29.3 75.8,29.3 
		75.8,25.3 	"/>
	<path id="XMLID_37_" class="st3" d="M13.9,23.2v1.9h2.2v4.1H6.4v-1.9c-3.6,2.1-6.4,3.8-6.4,4c0,0.8,0.7,2.3,3.4,3.3l14.2,4.9
		c2.7,1,4.9-0.5,4.9-3.4V18.5C22.5,18.5,18.5,20.7,13.9,23.2z"/>
	<path id="XMLID_36_" class="st4" d="M62.1,20C62.1,20,62.1,20,62.1,20c0,6.2-4.2,9.7-10.2,9.7c-1.4,0-2.8-0.2-4-0.6
		c-1.8,1.2-3,2.1-3,2.3c0,0.8,0.6,2.4,3.3,3.5l11.6,4.4c2.6,1.2,4.8-0.2,4.8-3.1V18.5C64.5,18.5,63.6,19.1,62.1,20z"/>
	<path id="XMLID_35_" class="st5" d="M32.9,25.2c0.3,0,0.5,0.1,0.8,0.1c1.5,0,3.2-0.6,4.4-1.8l3.1,3.4c-2.1,2-4.5,2.9-7.5,2.9
		c-2.2,0-4.1-0.5-5.7-1.4c-2.4,1.6-4.1,2.8-4.1,3.1c0,0.8,0.6,2.4,3.3,3.5l11.6,4.4c2.6,1.2,4.8-0.2,4.8-3.1V18.5
		C43.5,18.5,38,21.9,32.9,25.2z"/>
</g>
</svg>
