<?xml version="1.0" encoding="UTF-8" standalone="no"?>
<svg width="135px" height="21px" viewBox="0 0 135 21" version="1.1" xmlns="http://www.w3.org/2000/svg" xmlns:xlink="http://www.w3.org/1999/xlink">
    <defs></defs>
    <g id="Profile-Web" stroke="none" stroke-width="1" fill="none" fill-rule="evenodd">
        <g id="Profile-v2-Edit-Profile" transform="translate(-20.000000, -14.000000)">
            <g id="logo_topcoder" transform="translate(20.200500, 14.944845)">
                <g id="Group-5" transform="translate(54.134759, 1.587302)" fill="#57585A">
                    <path d="M1.73319872,12.4764444 L1.73319872,5.10438095 L0.02368,5.10438095 L0.02368,4.11898413 L1.73319872,4.11898413 L1.73319872,1.29009524 L2.86591316,1.29009524 L2.86591316,4.11898413 L4.96007358,4.11898413 L4.96007358,5.10438095 L2.86591316,5.10438095 L2.86591316,12.3050159 C2.86591316,13.1408889 3.2078169,13.719619 3.93436235,13.719619 C4.4256907,13.719619 4.85307037,13.483746 5.08828749,13.2266032 L5.51566717,14.083746 C5.10981476,14.4694603 4.61816984,14.7269206 3.76341048,14.7269206 C2.39547893,14.7269206 1.73319872,13.8910476 1.73319872,12.4764444" id="Fill-3"></path>
                    <path d="M15.1106259,9.28355556 C15.1106259,6.99022222 13.7642216,4.86895238 11.3281574,4.86895238 C8.93451465,4.86895238 7.56689968,6.99022222 7.56689968,9.28355556 C7.56689968,11.5978413 8.93451465,13.719746 11.3281574,13.719746 C13.7642216,13.719746 15.1106259,11.5978413 15.1106259,9.28355556 M6.37023658,9.28355556 C6.37023658,6.26165079 8.31465583,3.86165079 11.3281574,3.86165079 C14.3840804,3.86165079 16.307289,6.26165079 16.307289,9.28355556 C16.307289,12.3051429 14.3840804,14.7267302 11.3281574,14.7267302 C8.31465583,14.7267302 6.37023658,12.3051429 6.37023658,9.28355556" id="Fill-5"></path>
                    <g id="Group-9" transform="translate(18.678075, 3.809524)">
                        <path d="M8.18549219,5.47403175 C8.18549219,2.96673016 6.88182588,1.05942857 4.57397561,1.05942857 C3.14177882,1.05942857 1.77416385,1.91657143 1.1758323,2.90228571 L1.1758323,8.02419048 C1.77416385,9.00990476 3.14177882,9.91022222 4.57397561,9.91022222 C6.88182588,9.91022222 8.18549219,7.98101587 8.18549219,5.47403175 M1.1758323,8.98831746 L1.1758323,14.6032381 L0.0646451337,14.6032381 L0.0646451337,0.309269841 L1.1758323,0.309269841 L1.1758323,1.93784127 C1.90237775,0.888 3.22757134,0.0521269841 4.76613818,0.0521269841 C7.5228954,0.0521269841 9.38215529,2.15212698 9.38215529,5.47403175 C9.38215529,8.77434921 7.5228954,10.9172063 4.76613818,10.9172063 C3.31304727,10.9172063 2.00938096,10.1670476 1.1758323,8.98831746" id="Fill-7"></path>
                    </g>
                    <path d="M29.8326845,9.28355556 C29.8326845,6.26165079 31.8201583,3.86165079 34.8548706,3.86165079 C36.6501818,3.86165079 37.675893,4.56863492 38.5094417,5.61879365 L37.7401583,6.30450794 C36.9920856,5.27593651 36.0518503,4.86895238 34.9188193,4.86895238 C32.5039658,4.86895238 31.0296642,6.79752381 31.0296642,9.28355556 C31.0296642,11.7692698 32.5039658,13.719746 34.9188193,13.719746 C36.0518503,13.719746 36.9920856,13.2908571 37.7401583,12.2622857 L38.5094417,12.948 C37.675893,14.0194286 36.6501818,14.7267302 34.8548706,14.7267302 C31.8201583,14.7267302 29.8326845,12.3051429 29.8326845,9.28355556" id="Fill-10"></path>
                    <path d="M48.7021305,9.28355556 C48.7021305,6.99022222 47.3557262,4.86895238 44.919662,4.86895238 C42.5260193,4.86895238 41.1584043,6.99022222 41.1584043,9.28355556 C41.1584043,11.5978413 42.5260193,13.719746 44.919662,13.719746 C47.3557262,13.719746 48.7021305,11.5978413 48.7021305,9.28355556 M39.9614246,9.28355556 C39.9614246,6.26165079 41.9061604,3.86165079 44.919662,3.86165079 C47.9752684,3.86165079 49.8987936,6.26165079 49.8987936,9.28355556 C49.8987936,12.3051429 47.9752684,14.7267302 44.919662,14.7267302 C41.9061604,14.7267302 39.9614246,12.3051429 39.9614246,9.28355556" id="Fill-12"></path>
                    <path d="M59.9421844,11.8765397 L59.9421844,6.75463492 C59.3435363,5.74733333 57.997132,4.86892063 56.5443576,4.86892063 C54.2574015,4.86892063 52.9322079,6.79749206 52.9322079,9.30479365 C52.9322079,11.8120952 54.2574015,13.7197143 56.5443576,13.7197143 C57.997132,13.7197143 59.3435363,12.862254 59.9421844,11.8765397 L59.9421844,11.8765397 Z M59.9421844,14.4695556 L59.9421844,12.8193968 C59.2156389,13.8911429 57.8907619,14.7270159 56.3515619,14.7270159 C53.616332,14.7270159 51.7358614,12.626381 51.7358614,9.30479365 C51.7358614,6.02606349 53.616332,3.86161905 56.3515619,3.86161905 C57.8261801,3.86161905 59.1086357,4.61146032 59.9421844,5.79019048 L59.9421844,0.175904762 L61.0745822,0.175904762 L61.0745822,14.4695556 L59.9421844,14.4695556 Z" id="Fill-14"></path>
                    <path d="M68.4681557,4.82606349 C66.0320916,4.82606349 64.8135846,6.96892063 64.7284252,8.7692381 L72.2294135,8.7692381 C72.2078862,7.01177778 71.0539611,4.82606349 68.4681557,4.82606349 M63.5099183,9.28352381 C63.5099183,6.28320635 65.625606,3.86161905 68.4893664,3.86161905 C71.6307653,3.86161905 73.3618113,6.36892063 73.3618113,9.34765079 L73.3618113,9.64765079 L64.7284252,9.64765079 C64.8347953,11.8978095 66.3309407,13.762254 68.7673215,13.762254 C70.0706712,13.762254 71.2676509,13.2695556 72.143621,12.3266984 L72.7210584,13.0552698 C71.6950306,14.1266984 70.3913643,14.7266984 68.6818456,14.7266984 C65.668344,14.7266984 63.5099183,12.4765397 63.5099183,9.28352381" id="Fill-16"></path>
                    <path d="M75.7970524,14.4695556 L75.7970524,4.11907937 L76.9082396,4.11907937 L76.9082396,5.89749206 C77.7842096,4.74034921 78.959662,3.90447619 80.3918588,3.90447619 L80.3918588,5.12606349 C80.1993797,5.08320635 80.0499551,5.08320635 79.8359487,5.08320635 C78.7890267,5.08320635 77.3783572,6.02606349 76.9082396,6.92606349 L76.9082396,14.4695556 L75.7970524,14.4695556 Z" id="Fill-18"></path>
                </g>
                <g id="Group-2">
                    <path d="M12.4577477,5.4603671 C6.70453397,4.42937966 1.28350422,4.51815325 0.194765437,7.40410847 C-0.572876839,9.43855774 0.997753698,12.5080989 3.69401789,15.537363 C4.48917538,16.4306116 5.40917758,16.7153994 6.27352377,16.7093075 C7.07275671,12.7374751 10.2608682,8.49314849 12.4577477,5.4603671 Z" id="Fill-1" fill="#2AA7DF"></path>
                    <path d="M25.7422085,8.54573795 C28.6961661,7.35014317 32.7144305,6.15182287 36.5819458,5.45923796 C36.7798229,5.65032719 36.9743769,5.8462618 37.1662119,6.04552759 C33.5787456,2.31580488 28.9272745,0.0163744967 24.5159748,0.0163744967 C20.3406171,0.0163744967 15.9498603,2.07626195 12.4500037,5.45923796 C16.317519,6.15182287 20.3357834,7.35014317 23.289741,8.54573795 C23.6634417,8.69715573 24.0755094,8.85977842 24.5159748,9.03209185 C24.9564401,8.85977842 25.3685078,8.69715573 25.7422085,8.54573795 Z" id="Fill-4" fill="#8AC441"></path>
                    <path d="M12.4562753,5.46419658 C9.42002608,8.43247007 6.26725224,14.2470578 6.26725224,16.706084 C7.31477558,16.7060836 8.5648659,16.2004106 9.46651534,15.7342571 C13.9594775,13.4113921 18.602869,9.64368071 24.4899553,9.03060745 C21.500509,7.7265862 15.7294554,5.90319333 12.4562753,5.46419658 Z" id="Fill-7" fill="#0A72B8"></path>
                    <path d="M36.590903,5.45427912 C42.3314446,4.42974077 47.7332522,4.52384597 48.8198434,7.40410847 C49.5874857,9.43855774 48.0168552,12.5080989 45.320591,15.537363 C44.5938878,16.3537127 43.7629102,16.6618557 42.9654396,16.7042108 C40.4648081,11.4959232 39.9433362,10.5583457 36.590903,5.45427912 Z" id="Fill-9" fill="#F59022"></path>
                    <path d="M36.5858087,5.45756365 C39.6220579,8.42583713 42.9754439,16.706084 42.9754439,16.706084 C41.5265001,16.7669989 40.1183583,15.9597042 39.7033689,15.7215632 C33.4725595,12.146023 29.59554,9.70006226 24.5030545,9.03209916 C27.5367177,7.58995531 34.1590967,5.76005128 36.5858087,5.45756365 Z" id="Fill-12" fill="#FFF100"></path>
                </g>
            </g>
        </g>
    </g>
</svg>