<svg xmlns="http://www.w3.org/2000/svg" width="16" height="16" viewBox="0 0 16 16">
    <path fill="#59A7FF" fill-rule="evenodd" d="M2,13.0128923 L3.92957589,13.0128923 C5.48348214,13.0128923 6.26897321,13.1042009 7.30206473,13.1042009 C11.7588728,13.1042009 13.3640067,11.7179704 13.3640067,9.16132978 C13.3640067,7.45966963 11.9040179,6.05683759 10.2220424,6.05683759 C11.7417969,5.65840009 12.4589844,4.42988447 12.4589844,3.07685713 C12.4589844,1.15107588 10.8282366,-0.0940413115 7.67773438,0.00556806348 C6.21774554,0.055372751 4.63822545,0.0719743135 4.69799107,0.121779001 L2.03415179,0.121779001 L2.03415179,1.48310713 L3.3233817,1.66572431 L3.3233817,11.4938493 L2,11.8507829 L2,13.0128923 Z M6.34581473,5.69160322 L6.36289062,1.40009931 C6.55072545,1.30879072 7.01177455,1.27558759 7.26791295,1.27558759 C9.09503348,1.27558759 9.54754464,2.21357588 9.54754464,3.28437666 C9.54754464,4.18086103 9.53046875,5.75800947 7.45574777,5.75800947 C6.84101562,5.75800947 6.52511161,5.74970869 6.34581473,5.69160322 L6.34581473,5.69160322 Z M6.32873884,11.6515642 L6.32873884,7.10273603 C6.88370536,6.99482588 7.44720982,7.00312666 7.95948661,7.00312666 C9.72684152,7.00312666 10.1793527,8.14033369 10.1793527,9.29414228 C10.1793527,10.3566423 9.76953125,11.8756853 8.07901786,11.8756853 C7.30206473,11.8756853 6.61049107,11.7926774 6.32873884,11.6515642 L6.32873884,11.6515642 Z"/>
</svg>
