<svg xmlns="http://www.w3.org/2000/svg" width="16" height="16" viewBox="0 0 16 16">
    <g fill="#59A7FF" fill-rule="evenodd">
        <path d="M8.82477679,12.1235352 C11.5654576,12.1235352 13.8109375,10.6542969 13.8109375,6.27978516 L13.8109375,1.31982422 L15.0916295,1.12060547 L15.0916295,0 L10.6689732,0 L10.6689732,1.12060547 L12.1545759,1.31982422 L12.1716518,6.28808594 C12.1801897,9.54199219 11.0787946,10.9199219 9.1577567,10.9199219 C7.40747768,10.9199219 5.81941964,10.1811523 5.81941964,6.66162109 L5.81941964,1.30322266 L7.29648437,1.12060547 L7.29648437,0 L2.02857143,0 L2.02857143,1.12060547 L3.37756696,1.30322266 C3.36902902,3.36181641 3.36049107,4.54492188 3.36049107,6.5703125 C3.34341518,10.2641602 4.97416295,12.1235352 8.82477679,12.1235352 Z"/>
        <rect width="14.4" height="2" x="1" y="14"/>
    </g>
</svg>
