<?xml version="1.0" encoding="utf-8"?>
<!-- Generator: Adobe Illustrator 19.1.0, SVG Export Plug-In . SVG Version: 6.00 Build 0)  -->
<!DOCTYPE svg PUBLIC "-//W3C//DTD SVG 1.1//EN" "http://www.w3.org/Graphics/SVG/1.1/DTD/svg11.dtd">
<svg version="1.1" id="Layer_1" xmlns="http://www.w3.org/2000/svg" xmlns:xlink="http://www.w3.org/1999/xlink" x="0px" y="0px"
	 width="16px" height="16px" viewBox="0 0 16 16" enable-background="new 0 0 16 16" xml:space="preserve">
<rect x="5" y="1" fill="#59A7FF" width="11" height="2"/>
<rect x="5" y="7" fill="#59A7FF" width="11" height="2"/>
<rect x="5" y="13" fill="#59A7FF" width="11" height="2"/>
<path data-color="color-2" fill="#59A7FF" d="M0.36821,4V3.45122l0.59736-0.04859c0.09718-0.00678,0.11111-0.03465,0.11111-0.13861V0.8403
	c0-0.08324-0.02072-0.12505-0.0904-0.14576L0.38215,0.56949L0.45861,0h1.66667v3.26403c0,0.11111,0.00678,0.13183,0.11111,0.13861
	l0.56949,0.04859V4H0.36821z"/>
<path data-color="color-2" fill="#59A7FF" d="M0.04735,10V9.37047l0.90704-0.88648c0.68349-0.6633,0.97458-0.93384,0.97458-1.31963
	c0-0.25071-0.12187-0.43315-0.4805-0.43315c-0.37258,0-0.52822,0.12187-0.52822,0.60237L0,7.25209
	C0.00661,6.1762,0.82555,6,1.5362,6c1.0491,0,1.42131,0.44673,1.42131,1.08287c0,0.63651-0.43975,1.05607-0.93384,1.5296
	L1.2587,9.34367h0.99514c0.06754,0,0.0947-0.01358,0.10829-0.08149l0.0947-0.53446h0.71726V10H0.04735z"/>
<path data-color="color-2" fill="#59A7FF" d="M2.34447,13.68226c0.56643,0.0867,0.87927,0.42627,0.87927,1.02557
	C3.22373,15.5871,2.56447,16,1.61187,16C0.93923,16,0.33993,15.7605,0,15.38733l0.53283-0.58594
	c0.25323,0.24637,0.53283,0.43927,0.9992,0.43927c0.37316,0,0.69286-0.13294,0.69286-0.5993
	c0-0.4064-0.25323-0.57293-0.66613-0.57293c-0.16653,0-0.29297,0.01337-0.4931,0.0466v-0.66577l0.32656-0.0401
	c0.47937-0.05997,0.7391-0.29297,0.7391-0.71924c0-0.25323-0.11307-0.4595-0.48623-0.4595
	c-0.35944,0-0.53247,0.11993-0.53247,0.5928l-0.9125-0.0802c0-1.0523,0.79257-1.2322,1.49193-1.2322
	c1.02557,0,1.4186,0.39303,1.4186,1.10577c0,0.55957-0.34643,0.9125-0.7662,1.03893V13.68226z"/>
</svg>
