<svg width="48" height="48" viewBox="0 0 48 48" fill="none" xmlns="http://www.w3.org/2000/svg">
    <path d="M20.863 3.44312C22.5463 1.59557 25.4537 1.59557 27.137 3.44312C28.2537 4.66874 29.9818 5.1318 31.5617 4.62871C33.9433 3.87033 36.4612 5.32405 36.9952 7.76573C37.3494 9.38547 38.6145 10.6506 40.2343 11.0048C42.6759 11.5388 44.1297 14.0567 43.3713 16.4383C42.8682 18.0182 43.3313 19.7463 44.5569 20.863C46.4044 22.5463 46.4044 25.4537 44.5569 27.137C43.3313 28.2537 42.8682 29.9818 43.3713 31.5617C44.1297 33.9433 42.6759 36.4612 40.2343 36.9952C38.6145 37.3494 37.3494 38.6145 36.9952 40.2343C36.4612 42.6759 33.9433 44.1297 31.5617 43.3713C29.9818 42.8682 28.2537 43.3313 27.137 44.5569C25.4537 46.4044 22.5463 46.4044 20.863 44.5569C19.7463 43.3313 18.0182 42.8682 16.4383 43.3713C14.0567 44.1297 11.5388 42.6759 11.0048 40.2343C10.6506 38.6145 9.38547 37.3494 7.76573 36.9952C5.32405 36.4612 3.87033 33.9433 4.62871 31.5617C5.1318 29.9818 4.66874 28.2537 3.44312 27.137C1.59557 25.4537 1.59557 22.5463 3.44312 20.863C4.66874 19.7463 5.1318 18.0182 4.62871 16.4383C3.87033 14.0567 5.32405 11.5388 7.76573 11.0048C9.38547 10.6506 10.6506 9.38547 11.0048 7.76573C11.5388 5.32405 14.0567 3.87033 16.4383 4.62871C18.0182 5.1318 19.7463 4.66874 20.863 3.44312Z" fill="url(#paint0_linear_5048_15486)"/>
    <circle opacity="0.2" cx="24" cy="24" r="16.9263" fill="white"/>
    <path fill-rule="evenodd" clip-rule="evenodd" d="M23.5859 14.8346C23.8467 14.7042 24.1537 14.7042 24.4144 14.8346L26.2671 15.761C26.7246 15.9897 26.9101 16.5462 26.6813 17.0037C26.4525 17.4613 25.8961 17.6468 25.4385 17.418L24.0002 16.6988L22.5618 17.418C22.1042 17.6468 21.5478 17.4613 21.319 17.0037C21.0902 16.5462 21.2757 15.9897 21.7333 15.761L23.5859 14.8346ZM19.2708 18.0278C19.4996 18.4854 19.3141 19.0418 18.8565 19.2706L18.661 19.3684L18.8565 19.4662C19.3141 19.695 19.4996 20.2514 19.2708 20.709C19.042 21.1666 18.4856 21.3521 18.028 21.1233L17.516 20.8672V21.6842C17.516 22.1958 17.1012 22.6105 16.5896 22.6105C16.0781 22.6105 15.6633 22.1958 15.6633 21.6842V19.3684C15.6633 19.0176 15.8616 18.6968 16.1754 18.5399L18.028 17.6136C18.4856 17.3848 19.042 17.5703 19.2708 18.0278ZM28.7295 18.0278C28.9583 17.5703 29.5147 17.3848 29.9723 17.6136L31.825 18.5399C32.1388 18.6968 32.337 19.0176 32.337 19.3684V21.6842C32.337 22.1958 31.9223 22.6105 31.4107 22.6105C30.8991 22.6105 30.4844 22.1958 30.4844 21.6842V20.8672L29.9723 21.1233C29.5147 21.3521 28.9583 21.1666 28.7295 20.709C28.5008 20.2514 28.6862 19.695 29.1438 19.4662L29.3394 19.3684L29.1438 19.2706C28.6862 19.0418 28.5008 18.4854 28.7295 18.0278ZM21.319 21.7331C21.5478 21.2755 22.1042 21.0901 22.5618 21.3189L24.0002 22.038L25.4385 21.3189C25.8961 21.0901 26.4525 21.2755 26.6813 21.7331C26.9101 22.1907 26.7246 22.7471 26.2671 22.9759L24.9265 23.6462V25.3895C24.9265 25.9011 24.5118 26.3158 24.0002 26.3158C23.4886 26.3158 23.0739 25.9011 23.0739 25.3895V23.6462L21.7333 22.9759C21.2757 22.7471 21.0902 22.1907 21.319 21.7331ZM16.5896 25.3895C17.1012 25.3895 17.516 25.8042 17.516 26.3158V28.0591L18.8565 28.7294C19.3141 28.9582 19.4996 29.5146 19.2708 29.9722C19.042 30.4297 18.4856 30.6152 18.028 30.3864L16.1754 29.4601C15.8616 29.3032 15.6633 28.9824 15.6633 28.6316V26.3158C15.6633 25.8042 16.0781 25.3895 16.5896 25.3895ZM31.4107 25.3895C31.9223 25.3895 32.337 25.8042 32.337 26.3158V28.6316C32.337 28.9824 32.1388 29.3032 31.825 29.4601L29.9723 30.3864C29.5147 30.6152 28.9583 30.4297 28.7295 29.9722C28.5008 29.5146 28.6862 28.9582 29.1438 28.7294L30.4844 28.0591V26.3158C30.4844 25.8042 30.8991 25.3895 31.4107 25.3895ZM24.0002 29.0947C24.5118 29.0947 24.9265 29.5095 24.9265 30.0211V30.838L25.4385 30.582C25.8961 30.3532 26.4525 30.5387 26.6813 30.9963C26.9101 31.4538 26.7246 32.0103 26.2671 32.2391L24.4144 33.1654C24.1537 33.2958 23.8467 33.2958 23.5859 33.1654L21.7333 32.2391C21.2757 32.0103 21.0902 31.4538 21.319 30.9963C21.5478 30.5387 22.1042 30.3532 22.5618 30.582L23.0739 30.838V30.0211C23.0739 29.5095 23.4886 29.0947 24.0002 29.0947Z" fill="white"/>
    <defs>
       <linearGradient id="paint0_linear_5048_15486" x1="-1.49435e-07" y1="35.76" x2="49.4435" y2="31.3673" gradientUnits="userSpaceOnUse">
          <stop stop-color="#723390"/>
          <stop offset="1" stop-color="#8C384F"/>
       </linearGradient>
    </defs>
 </svg>