<svg width="48" height="48" viewBox="0 0 48 48" fill="none" xmlns="http://www.w3.org/2000/svg">
    <path d="M20.863 3.44312C22.5463 1.59557 25.4537 1.59557 27.137 3.44312C28.2537 4.66874 29.9818 5.1318 31.5617 4.62871C33.9433 3.87033 36.4612 5.32405 36.9952 7.76573C37.3494 9.38547 38.6145 10.6506 40.2343 11.0048C42.6759 11.5388 44.1297 14.0567 43.3713 16.4383C42.8682 18.0182 43.3313 19.7463 44.5569 20.863C46.4044 22.5463 46.4044 25.4537 44.5569 27.137C43.3313 28.2537 42.8682 29.9818 43.3713 31.5617C44.1297 33.9433 42.6759 36.4612 40.2343 36.9952C38.6145 37.3494 37.3494 38.6145 36.9952 40.2343C36.4612 42.6759 33.9433 44.1297 31.5617 43.3713C29.9818 42.8682 28.2537 43.3313 27.137 44.5569C25.4537 46.4044 22.5463 46.4044 20.863 44.5569C19.7463 43.3313 18.0182 42.8682 16.4383 43.3713C14.0567 44.1297 11.5388 42.6759 11.0048 40.2343C10.6506 38.6145 9.38547 37.3494 7.76573 36.9952C5.32405 36.4612 3.87033 33.9433 4.62871 31.5617C5.1318 29.9818 4.66874 28.2537 3.44312 27.137C1.59557 25.4537 1.59557 22.5463 3.44312 20.863C4.66874 19.7463 5.1318 18.0182 4.62871 16.4383C3.87033 14.0567 5.32405 11.5388 7.76573 11.0048C9.38547 10.6506 10.6506 9.38547 11.0048 7.76573C11.5388 5.32405 14.0567 3.87033 16.4383 4.62871C18.0182 5.1318 19.7463 4.66874 20.863 3.44312Z" fill="url(#paint0_linear_5048_15470)"/>
    <circle opacity="0.2" cx="24" cy="24" r="16.9263" fill="white"/>
    <path fill-rule="evenodd" clip-rule="evenodd" d="M26.0773 15.6908C26.5736 15.8149 26.8754 16.3178 26.7513 16.8141L23.046 31.6352C22.922 32.1315 22.419 32.4333 21.9227 32.3092C21.4264 32.1851 21.1247 31.6822 21.2487 31.1859L24.954 16.3648C25.0781 15.8685 25.581 15.5667 26.0773 15.6908ZM19.0971 19.6397C19.4589 20.0015 19.4589 20.588 19.0971 20.9497L16.0469 24L19.0971 27.0503C19.4589 27.412 19.4589 27.9985 19.0971 28.3603C18.7354 28.722 18.1489 28.722 17.7871 28.3603L14.0819 24.655C13.7201 24.2933 13.7201 23.7067 14.0819 23.345L17.7871 19.6397C18.1489 19.278 18.7354 19.278 19.0971 19.6397ZM28.9029 19.6397C29.2647 19.278 29.8512 19.278 30.2129 19.6397L33.9182 23.345C34.2799 23.7067 34.2799 24.2933 33.9182 24.655L30.2129 28.3603C29.8512 28.722 29.2647 28.722 28.9029 28.3603C28.5412 27.9985 28.5412 27.412 28.9029 27.0503L31.9532 24L28.9029 20.9497C28.5412 20.588 28.5412 20.0015 28.9029 19.6397Z" fill="white"/>
    <defs>
       <linearGradient id="paint0_linear_5048_15470" x1="-1.49435e-07" y1="35.76" x2="49.4435" y2="31.3673" gradientUnits="userSpaceOnUse">
          <stop stop-color="#048467"/>
          <stop offset="1" stop-color="#064871"/>
       </linearGradient>
    </defs>
 </svg>