<?xml version="1.0" encoding="UTF-8" standalone="no"?>
<svg width="32px" height="32px" viewBox="0 0 32 32" version="1.1" xmlns="http://www.w3.org/2000/svg" xmlns:xlink="http://www.w3.org/1999/xlink" xmlns:sketch="http://www.bohemiancoding.com/sketch/ns">
    <!-- Generator: Sketch 3.4 (15588) - http://www.bohemiancoding.com/sketch -->
    <title>ico-track-develop</title>
    <desc>Created with Sketch.</desc>
    <defs></defs>
    <g id="Page-1" stroke="none" stroke-width="1" fill="none" fill-rule="evenodd" sketch:type="MSPage">
        <g id="ico-track-develop" sketch:type="MSArtboardGroup" stroke="#05C14F" stroke-width="1.2" stroke-linecap="round" stroke-linejoin="round">
            <g id="Group" sketch:type="MSLayerGroup" transform="translate(2.000000, 1.000000)">
                <path d="M11.5,29.5 L0.5,29.5 L0.5,21.5 L11.5,21.5 L11.5,29.5 L11.5,29.5 Z" id="Stroke-91" sketch:type="MSShapeGroup"></path>
                <path d="M11.141,5.0649 L21.49551,5.0649 L21.49551,8.334749" id="Stroke-93" sketch:type="MSShapeGroup"></path>
                <path d="M12.3507,25.893209 L21.558602,25.893209 L21.558602,21.6618" id="Stroke-95" sketch:type="MSShapeGroup"></path>
                <path d="M10.71429,5.357143 C10.71429,8.316071 8.316071,10.71429 5.357143,10.71429 C2.398215,10.71429 0,8.316071 0,5.357143 C0,2.398215 2.398215,0 5.357143,0 C8.316071,0 10.71429,2.398215 10.71429,5.357143 L10.71429,5.357143 L10.71429,5.357143 Z" id="Stroke-97" sketch:type="MSShapeGroup"></path>
                <path d="M21.525983,8.1232 L14.6591,14.990083 L21.525983,21.85697 L28.39287,14.990083 L21.525983,8.1232 L21.525983,8.1232 Z" id="Stroke-99" sketch:type="MSShapeGroup"></path>
            </g>
        </g>
    </g>
</svg>