<svg width="155" height="24" viewBox="0 0 155 24" fill="none" xmlns="http://www.w3.org/2000/svg">
<path fill-rule="evenodd" clip-rule="evenodd" d="M3 6C3 4.34315 4.34315 3 6 3H18C19.6569 3 21 4.34315 21 6V13.999C21 13.9997 21 14.0003 21 14.001V18C21 19.6569 19.6569 21 18 21H6C4.34315 21 3 19.6569 3 18V16.0002C3 16.0001 3 15.9999 3 15.9998V6ZM5 16.4142V18C5 18.5523 5.44772 19 6 19H18C18.5523 19 19 18.5523 19 18V14.4142L17.7071 13.1213C17.3166 12.7308 16.6834 12.7308 16.2929 13.1213L15.4142 14L16.7071 15.2929C17.0976 15.6834 17.0976 16.3166 16.7071 16.7071C16.3166 17.0976 15.6834 17.0976 15.2929 16.7071L13.2933 14.7075C13.2932 14.7074 13.293 14.7072 13.2929 14.7071C13.2928 14.707 13.2926 14.7068 13.2925 14.7067L10.7071 12.1213C10.3166 11.7308 9.68342 11.7308 9.29289 12.1213L5 16.4142ZM14 12.5858L12.1213 10.7071C10.9497 9.53553 9.05025 9.53553 7.87868 10.7071L5 13.5858V6C5 5.44772 5.44772 5 6 5H18C18.5523 5 19 5.44772 19 6V11.5922C17.8221 10.5369 16.0106 10.5752 14.8787 11.7071L14 12.5858ZM13 8C13 7.44772 13.4477 7 14 7H14.01C14.5623 7 15.01 7.44772 15.01 8C15.01 8.55228 14.5623 9 14.01 9H14C13.4477 9 13 8.55228 13 8Z" fill="#137D60"/>
<path d="M32.792 12.2881H30.2012V10.9277H32.792C33.2432 10.9277 33.6077 10.8548 33.8857 10.709C34.1637 10.5632 34.3665 10.3626 34.4941 10.1074C34.6263 9.84766 34.6924 9.55143 34.6924 9.21875C34.6924 8.9043 34.6263 8.61035 34.4941 8.33691C34.3665 8.05892 34.1637 7.83561 33.8857 7.66699C33.6077 7.49837 33.2432 7.41406 32.792 7.41406H30.7275V16H29.0117V6.04688H32.792C33.5622 6.04688 34.2161 6.18359 34.7539 6.45703C35.2962 6.72591 35.7087 7.09961 35.9912 7.57812C36.2738 8.05208 36.415 8.5944 36.415 9.20508C36.415 9.84766 36.2738 10.3991 35.9912 10.8594C35.7087 11.3197 35.2962 11.6729 34.7539 11.9189C34.2161 12.165 33.5622 12.2881 32.792 12.2881ZM39.416 5.5V16H37.7754V5.5H39.416ZM39.1289 12.0283L38.5957 12.0215C38.6003 11.5111 38.6709 11.0394 38.8076 10.6064C38.9489 10.1735 39.1449 9.79753 39.3955 9.47852C39.6507 9.15495 39.9561 8.90658 40.3115 8.7334C40.667 8.55566 41.0612 8.4668 41.4941 8.4668C41.8587 8.4668 42.1868 8.51693 42.4785 8.61719C42.7747 8.71745 43.0299 8.87923 43.2441 9.10254C43.4583 9.32129 43.6201 9.6084 43.7295 9.96387C43.8434 10.3148 43.9004 10.7432 43.9004 11.249V16H42.2461V11.2354C42.2461 10.8799 42.1937 10.5973 42.0889 10.3877C41.9886 10.1781 41.8405 10.0277 41.6445 9.93652C41.4486 9.84082 41.2093 9.79297 40.9268 9.79297C40.6305 9.79297 40.3685 9.85221 40.1406 9.9707C39.9173 10.0892 39.7305 10.251 39.5801 10.4561C39.4297 10.6611 39.3158 10.8981 39.2383 11.167C39.1654 11.4359 39.1289 11.723 39.1289 12.0283ZM45.2539 12.3838V12.2266C45.2539 11.6934 45.3314 11.1989 45.4863 10.7432C45.6413 10.2829 45.8646 9.88411 46.1562 9.54688C46.4525 9.20508 46.8125 8.94076 47.2363 8.75391C47.6647 8.5625 48.1478 8.4668 48.6855 8.4668C49.2279 8.4668 49.7109 8.5625 50.1348 8.75391C50.5632 8.94076 50.9255 9.20508 51.2217 9.54688C51.5179 9.88411 51.7435 10.2829 51.8984 10.7432C52.0534 11.1989 52.1309 11.6934 52.1309 12.2266V12.3838C52.1309 12.917 52.0534 13.4115 51.8984 13.8672C51.7435 14.3229 51.5179 14.7217 51.2217 15.0635C50.9255 15.4007 50.5654 15.665 50.1416 15.8564C49.7178 16.0433 49.237 16.1367 48.6992 16.1367C48.1569 16.1367 47.6715 16.0433 47.2432 15.8564C46.8193 15.665 46.4593 15.4007 46.1631 15.0635C45.8669 14.7217 45.6413 14.3229 45.4863 13.8672C45.3314 13.4115 45.2539 12.917 45.2539 12.3838ZM46.9014 12.2266V12.3838C46.9014 12.7165 46.9355 13.0309 47.0039 13.3271C47.0723 13.6234 47.1794 13.8831 47.3252 14.1064C47.471 14.3298 47.6579 14.5052 47.8857 14.6328C48.1136 14.7604 48.3848 14.8242 48.6992 14.8242C49.0046 14.8242 49.2689 14.7604 49.4922 14.6328C49.7201 14.5052 49.9069 14.3298 50.0527 14.1064C50.1986 13.8831 50.3057 13.6234 50.374 13.3271C50.4469 13.0309 50.4834 12.7165 50.4834 12.3838V12.2266C50.4834 11.8984 50.4469 11.5885 50.374 11.2969C50.3057 11.0007 50.1963 10.7386 50.0459 10.5107C49.9001 10.2829 49.7132 10.1051 49.4854 9.97754C49.262 9.84538 48.9954 9.7793 48.6855 9.7793C48.3757 9.7793 48.1068 9.84538 47.8789 9.97754C47.6556 10.1051 47.471 10.2829 47.3252 10.5107C47.1794 10.7386 47.0723 11.0007 47.0039 11.2969C46.9355 11.5885 46.9014 11.8984 46.9014 12.2266ZM56.9023 8.60352V9.80664H52.7324V8.60352H56.9023ZM53.9355 6.79199H55.583V13.9561C55.583 14.1839 55.6149 14.3594 55.6787 14.4824C55.7471 14.6009 55.8405 14.6807 55.959 14.7217C56.0775 14.7627 56.2165 14.7832 56.376 14.7832C56.4899 14.7832 56.5993 14.7764 56.7041 14.7627C56.8089 14.749 56.8932 14.7354 56.957 14.7217L56.9639 15.9795C56.8271 16.0205 56.6676 16.057 56.4854 16.0889C56.3076 16.1208 56.1025 16.1367 55.8701 16.1367C55.4919 16.1367 55.1569 16.0706 54.8652 15.9385C54.5736 15.8018 54.3457 15.5807 54.1816 15.2754C54.0176 14.9701 53.9355 14.5645 53.9355 14.0586V6.79199ZM57.6953 12.3838V12.2266C57.6953 11.6934 57.7728 11.1989 57.9277 10.7432C58.0827 10.2829 58.306 9.88411 58.5977 9.54688C58.8939 9.20508 59.2539 8.94076 59.6777 8.75391C60.1061 8.5625 60.5892 8.4668 61.127 8.4668C61.6693 8.4668 62.1523 8.5625 62.5762 8.75391C63.0046 8.94076 63.3669 9.20508 63.6631 9.54688C63.9593 9.88411 64.1849 10.2829 64.3398 10.7432C64.4948 11.1989 64.5723 11.6934 64.5723 12.2266V12.3838C64.5723 12.917 64.4948 13.4115 64.3398 13.8672C64.1849 14.3229 63.9593 14.7217 63.6631 15.0635C63.3669 15.4007 63.0068 15.665 62.583 15.8564C62.1592 16.0433 61.6784 16.1367 61.1406 16.1367C60.5983 16.1367 60.113 16.0433 59.6846 15.8564C59.2607 15.665 58.9007 15.4007 58.6045 15.0635C58.3083 14.7217 58.0827 14.3229 57.9277 13.8672C57.7728 13.4115 57.6953 12.917 57.6953 12.3838ZM59.3428 12.2266V12.3838C59.3428 12.7165 59.377 13.0309 59.4453 13.3271C59.5137 13.6234 59.6208 13.8831 59.7666 14.1064C59.9124 14.3298 60.0993 14.5052 60.3271 14.6328C60.555 14.7604 60.8262 14.8242 61.1406 14.8242C61.446 14.8242 61.7103 14.7604 61.9336 14.6328C62.1615 14.5052 62.3483 14.3298 62.4941 14.1064C62.64 13.8831 62.7471 13.6234 62.8154 13.3271C62.8883 13.0309 62.9248 12.7165 62.9248 12.3838V12.2266C62.9248 11.8984 62.8883 11.5885 62.8154 11.2969C62.7471 11.0007 62.6377 10.7386 62.4873 10.5107C62.3415 10.2829 62.1546 10.1051 61.9268 9.97754C61.7035 9.84538 61.4368 9.7793 61.127 9.7793C60.8171 9.7793 60.5482 9.84538 60.3203 9.97754C60.097 10.1051 59.9124 10.2829 59.7666 10.5107C59.6208 10.7386 59.5137 11.0007 59.4453 11.2969C59.377 11.5885 59.3428 11.8984 59.3428 12.2266Z" fill="#137D60"/>
<rect x="78" width="1" height="24" fill="#D4D4D4"/>
<path fill-rule="evenodd" clip-rule="evenodd" d="M93 8C93 6.34315 94.3431 5 96 5H104C105.657 5 107 6.34315 107 8V8.38197L110.106 6.82918C111.435 6.16428 113 7.13127 113 8.61803V15.382C113 16.8687 111.435 17.8357 110.106 17.1708L107 15.618V16C107 17.6569 105.657 19 104 19H96C94.3431 19 93 17.6569 93 16V8ZM105 13.9783C105 13.9923 105 14.0062 105 14.0201V16C105 16.5523 104.552 17 104 17H96C95.4477 17 95 16.5523 95 16V8C95 7.44772 95.4477 7 96 7H104C104.552 7 105 7.44772 105 8V9.97988C105 9.99379 105 10.0077 105 10.0217V13.9783ZM107 13.382L111 15.382L111 8.61803L107 10.618V13.382Z" fill="#137D60"/>
<path d="M123.423 14.1816L126.041 6.04688H127.935L124.366 16H123.088L123.423 14.1816ZM121.003 6.04688L123.601 14.1816L123.956 16H122.671L119.116 6.04688H121.003ZM130.648 8.60352V16H128.994V8.60352H130.648ZM128.885 6.66211C128.885 6.41146 128.967 6.2041 129.131 6.04004C129.299 5.87142 129.532 5.78711 129.828 5.78711C130.12 5.78711 130.35 5.87142 130.519 6.04004C130.687 6.2041 130.771 6.41146 130.771 6.66211C130.771 6.9082 130.687 7.11328 130.519 7.27734C130.35 7.44141 130.12 7.52344 129.828 7.52344C129.532 7.52344 129.299 7.44141 129.131 7.27734C128.967 7.11328 128.885 6.9082 128.885 6.66211ZM136.965 14.4688V5.5H138.619V16H137.122L136.965 14.4688ZM132.152 12.3838V12.2402C132.152 11.6797 132.218 11.1693 132.351 10.709C132.483 10.2441 132.674 9.84538 132.925 9.5127C133.175 9.17546 133.481 8.91797 133.841 8.74023C134.201 8.55794 134.606 8.4668 135.058 8.4668C135.504 8.4668 135.896 8.55339 136.233 8.72656C136.571 8.89974 136.858 9.14811 137.095 9.47168C137.332 9.79069 137.521 10.1735 137.662 10.6201C137.803 11.0622 137.904 11.5544 137.963 12.0967V12.5547C137.904 13.0833 137.803 13.5664 137.662 14.0039C137.521 14.4414 137.332 14.8197 137.095 15.1387C136.858 15.4577 136.568 15.7038 136.227 15.877C135.889 16.0501 135.495 16.1367 135.044 16.1367C134.597 16.1367 134.194 16.0433 133.834 15.8564C133.479 15.6696 133.175 15.4076 132.925 15.0703C132.674 14.7331 132.483 14.3366 132.351 13.8809C132.218 13.4206 132.152 12.9215 132.152 12.3838ZM133.8 12.2402V12.3838C133.8 12.721 133.829 13.0355 133.889 13.3271C133.952 13.6188 134.05 13.8763 134.183 14.0996C134.315 14.3184 134.486 14.4915 134.695 14.6191C134.91 14.7422 135.165 14.8037 135.461 14.8037C135.835 14.8037 136.142 14.7217 136.384 14.5576C136.625 14.3936 136.814 14.1725 136.951 13.8945C137.092 13.612 137.188 13.2975 137.238 12.9512V11.7139C137.211 11.445 137.154 11.1943 137.067 10.9619C136.985 10.7295 136.874 10.5267 136.732 10.3535C136.591 10.1758 136.416 10.0391 136.206 9.94336C136.001 9.8431 135.757 9.79297 135.475 9.79297C135.174 9.79297 134.919 9.85677 134.709 9.98438C134.499 10.112 134.326 10.2874 134.189 10.5107C134.057 10.734 133.959 10.9938 133.896 11.29C133.832 11.5863 133.8 11.903 133.8 12.2402ZM143.603 16.1367C143.056 16.1367 142.561 16.0479 142.119 15.8701C141.682 15.6878 141.308 15.4349 140.998 15.1113C140.693 14.7878 140.458 14.4072 140.294 13.9697C140.13 13.5322 140.048 13.0605 140.048 12.5547V12.2812C140.048 11.7025 140.132 11.1784 140.301 10.709C140.469 10.2396 140.704 9.83854 141.005 9.50586C141.306 9.16862 141.661 8.91113 142.071 8.7334C142.481 8.55566 142.926 8.4668 143.404 8.4668C143.933 8.4668 144.396 8.55566 144.792 8.7334C145.188 8.91113 145.517 9.16178 145.776 9.48535C146.041 9.80436 146.237 10.1849 146.364 10.627C146.496 11.069 146.562 11.5566 146.562 12.0898V12.7939H140.848V11.6113H144.936V11.4814C144.926 11.1852 144.867 10.9072 144.758 10.6475C144.653 10.3877 144.491 10.1781 144.272 10.0186C144.054 9.85905 143.762 9.7793 143.397 9.7793C143.124 9.7793 142.88 9.83854 142.666 9.95703C142.456 10.071 142.281 10.2373 142.14 10.4561C141.998 10.6748 141.889 10.9391 141.812 11.249C141.739 11.5544 141.702 11.8984 141.702 12.2812V12.5547C141.702 12.8783 141.745 13.179 141.832 13.457C141.923 13.7305 142.055 13.9697 142.229 14.1748C142.402 14.3799 142.611 14.5417 142.857 14.6602C143.104 14.7741 143.384 14.8311 143.698 14.8311C144.095 14.8311 144.448 14.7513 144.758 14.5918C145.068 14.4323 145.337 14.2067 145.564 13.915L146.433 14.7559C146.273 14.9883 146.066 15.2116 145.811 15.4258C145.555 15.6354 145.243 15.8063 144.874 15.9385C144.509 16.0706 144.086 16.1367 143.603 16.1367ZM147.533 12.3838V12.2266C147.533 11.6934 147.611 11.1989 147.766 10.7432C147.921 10.2829 148.144 9.88411 148.436 9.54688C148.732 9.20508 149.092 8.94076 149.516 8.75391C149.944 8.5625 150.427 8.4668 150.965 8.4668C151.507 8.4668 151.99 8.5625 152.414 8.75391C152.842 8.94076 153.205 9.20508 153.501 9.54688C153.797 9.88411 154.023 10.2829 154.178 10.7432C154.333 11.1989 154.41 11.6934 154.41 12.2266V12.3838C154.41 12.917 154.333 13.4115 154.178 13.8672C154.023 14.3229 153.797 14.7217 153.501 15.0635C153.205 15.4007 152.845 15.665 152.421 15.8564C151.997 16.0433 151.516 16.1367 150.979 16.1367C150.436 16.1367 149.951 16.0433 149.522 15.8564C149.099 15.665 148.739 15.4007 148.442 15.0635C148.146 14.7217 147.921 14.3229 147.766 13.8672C147.611 13.4115 147.533 12.917 147.533 12.3838ZM149.181 12.2266V12.3838C149.181 12.7165 149.215 13.0309 149.283 13.3271C149.352 13.6234 149.459 13.8831 149.604 14.1064C149.75 14.3298 149.937 14.5052 150.165 14.6328C150.393 14.7604 150.664 14.8242 150.979 14.8242C151.284 14.8242 151.548 14.7604 151.771 14.6328C151.999 14.5052 152.186 14.3298 152.332 14.1064C152.478 13.8831 152.585 13.6234 152.653 13.3271C152.726 13.0309 152.763 12.7165 152.763 12.3838V12.2266C152.763 11.8984 152.726 11.5885 152.653 11.2969C152.585 11.0007 152.476 10.7386 152.325 10.5107C152.179 10.2829 151.993 10.1051 151.765 9.97754C151.541 9.84538 151.275 9.7793 150.965 9.7793C150.655 9.7793 150.386 9.84538 150.158 9.97754C149.935 10.1051 149.75 10.2829 149.604 10.5107C149.459 10.7386 149.352 11.0007 149.283 11.2969C149.215 11.5885 149.181 11.8984 149.181 12.2266Z" fill="#137D60"/>
</svg>
