<svg width="32" height="32" viewBox="0 0 32 32" fill="none" xmlns="http://www.w3.org/2000/svg">
<g opacity="0.8">
<path fill-rule="evenodd" clip-rule="evenodd" d="M16.0002 28.8C23.0694 28.8 28.8002 23.0693 28.8002 16C28.8002 8.93077 23.0694 3.20001 16.0002 3.20001C8.93095 3.20001 3.2002 8.93077 3.2002 16C3.2002 23.0693 8.93095 28.8 16.0002 28.8ZM15.2877 11.4687C14.7967 11.1414 14.1655 11.1109 13.6452 11.3893C13.125 11.6678 12.8002 12.2099 12.8002 12.8V19.2C12.8002 19.7901 13.125 20.3323 13.6452 20.6107C14.1655 20.8891 14.7967 20.8586 15.2877 20.5313L20.0877 17.3313C20.5328 17.0345 20.8002 16.535 20.8002 16C20.8002 15.465 20.5328 14.9655 20.0877 14.6687L15.2877 11.4687Z" fill="white"/>
</g>
</svg>
