<svg xmlns="http://www.w3.org/2000/svg" width="30" height="30" viewBox="0 0 30 30">
    <g fill="none" fill-rule="evenodd">
        <circle cx="14.98" cy="9.61" r="2.5" fill="#D8D8D8" stroke="#444" stroke-width="2"/>
        <path fill="#FFE3CF" d="M15 7.476c1.192 0 2.16.969 2.16 2.16 0 1.19-.968 2.16-2.16 2.16-1.19 0-2.16-.97-2.16-2.16 0-1.191.97-2.16 2.16-2.16"/>
        <path stroke="#444" stroke-width="2" d="M7.915 15.05c-1.53-1.433-2.46-3.333-2.46-5.418 0-2.146.987-4.098 2.599-5.546M21.902 4.048c1.638 1.45 2.643 3.418 2.643 5.584 0 2.086-.932 3.987-2.463 5.421M25.725 19.072C28.37 16.638 30 13.308 30 9.634c0-3.69-1.646-7.034-4.312-9.472M4.285.188C1.634 2.623 0 5.958 0 9.634c0 3.672 1.628 7.001 4.27 9.435"/>
        <path fill="#CEE6FF" stroke="#444" stroke-width="2" d="M15 18l6 11H9z"/>
        <path stroke="#444" stroke-width="2" d="M12 24h6"/>
    </g>
</svg>
