<?xml version="1.0" encoding="utf-8"?>
<!-- Generator: Adobe Illustrator 19.0.0, SVG Export Plug-In . SVG Version: 6.00 Build 0)  -->
<svg version="1.1" id="Layer_1" xmlns="http://www.w3.org/2000/svg" xmlns:xlink="http://www.w3.org/1999/xlink" x="0px" y="0px"
	 viewBox="0 0 221.5 227.5" style="enable-background:new 0 0 221.5 227.5;" xml:space="preserve">
<style type="text/css">
	.st0{fill:#FFFFFF;}
	.st1{fill:#D8DF29;}
	.st2{fill:#FBED1F;}
	.st3{fill:#F69220;}
	.st4{fill:#0A73B7;}
	.st5{fill:#29A5DE;}
	.st6{fill:#8BC544;}
</style>
<g>
	<g>
		<g id="XMLID_101_">
			<path id="XMLID_113_" class="st0" d="M15.6,186.9H0v-12.7h45.7v12.7H30v39.5H15.6V186.9z"/>
			<path id="XMLID_111_" class="st0" d="M44.3,200.5v-0.1c0-15.2,11.6-27.1,27.4-27.1c10.7,0,17.5,4.5,22.1,10.8L83,192.4
				c-3-3.7-6.4-6.1-11.4-6.1c-7.3,0-12.4,6.3-12.4,13.9v0.1c0,7.8,5.1,13.9,12.4,13.9c5.4,0,8.6-2.5,11.8-6.3l10.9,7.7
				c-4.9,6.8-11.5,11.8-23,11.8C56.3,227.5,44.3,216.1,44.3,200.5z"/>
			<path id="XMLID_108_" class="st0" d="M93.6,200.5v-0.1c0-15,12.1-27.1,28.2-27.1c16.1,0,28,12,28,27v0.1
				c0,15-12.1,27.1-28.2,27.1C105.5,227.5,93.6,215.5,93.6,200.5z M134.9,200.5v-0.1c0-7.6-5.4-14.1-13.3-14.1s-13.3,6.4-13.3,13.9
				v0.1c0,7.5,5.4,14.1,13.4,14.1C129.6,214.4,134.9,208,134.9,200.5z"/>
			<path id="XMLID_106_" class="st0" d="M161,187.3l-8.8,2.1l-2.8-11.2l15.3-4.3h10.5v52.5H161V187.3z"/>
			<path id="XMLID_102_" class="st0" d="M178.6,212v-0.1c0-6.3,3.3-10.1,8.9-12.5c-3.9-2.2-7.1-5.7-7.1-11.4v-0.1
				c0-8.3,7.9-14.5,19.6-14.5c11.7,0,19.7,6.2,19.7,14.5v0.1c0,5.7-3.1,9.2-7.2,11.4c5.3,2.5,8.9,6,8.9,12.4v0.1
				c0,9.4-8.9,15.4-21.5,15.4C187.5,227.3,178.6,221.1,178.6,212z M207.5,210.6v-0.1c0-3.4-3.1-5.7-7.5-5.7c-4.4,0-7.5,2.3-7.5,5.7
				v0.1c0,3.1,2.7,5.9,7.5,5.9C204.8,216.5,207.5,213.7,207.5,210.6z M206.5,189.7v-0.1c0-2.9-2.5-5.5-6.5-5.5
				c-3.9,0-6.4,2.6-6.4,5.5v0.1c0,3.3,2.5,5.7,6.4,5.7C203.9,195.4,206.5,193,206.5,189.7z"/>
		</g>
	</g>
	<g>
		<path class="st1" d="M39,50.8c0,0,11.7-20.7,33.2-16.8c25.1,4.6,38,39.2,84.2,39.2c0,0-16.2-2.6-44.4-33.4
			C92.2,18.2,62.9,4.1,39,50.8z"/>
		<path class="st2" d="M35.8,64.2c0,0,8.1-14.3,23-11.6c17.4,3.2,26.6,20.7,64.7,20.7c0,0-13.8-1.1-34.4-16.7
			C72.8,44.3,52.3,31.9,35.8,64.2z"/>
		<path class="st3" d="M35.8,91.4c0,0,8.1,14.3,23,11.6c17.4-3.2,26.6-20.7,64.7-20.7c0,0-13.8,1.1-34.4,16.7
			C72.8,111.3,52.3,123.7,35.8,91.4z"/>
		<g>
			<path class="st4" d="M164.8,33.4c16.2,19.7,6,26.2,6,26.2l0,0c4.4,2,8.1,2,11.6,0c2-4,2-9.3-0.4-15.5C169.5,18.1,142.9,0,112,0
				c-6.1,0-12.1,0.7-17.8,2.1l0,0C119-2.6,148.6,13.7,164.8,33.4z"/>
		</g>
		<path class="st5" d="M110.5,22.4c23.9,23.2,41.7,47.7,62.3,44c4.8-0.9,8-3.3,9.7-6.8c-10.5,6-23.3-5.6-50.9-37
			c-27.7-31.4-63.6-8.9-63.6-8.9C69.1,13.2,90.7,3.2,110.5,22.4z"/>
		<path class="st6" d="M39,104.5c0,0,11.7,20.7,33.2,16.8c25.1-4.6,38-39.2,84.2-39.2c0,0-16.2,2.6-44.4,33.4
			C92.2,137.1,62.9,151.2,39,104.5z"/>
		<g>
			<path class="st4" d="M164.8,121.9c16.2-19.7,6-26.2,6-26.2l0,0c4.4-2,8.1-2,11.6,0c2,4,2,9.3-0.4,15.5
				c-12.5,26.1-39.1,44.2-70,44.2c-6.1,0-12.1-0.7-17.8-2.1h0C119,157.9,148.6,141.7,164.8,121.9z"/>
		</g>
		<path class="st5" d="M110.5,133c23.9-23.2,41.7-47.7,62.3-44c4.8,0.9,8,3.3,9.7,6.8c-10.5-6-23.3,5.6-50.9,37
			c-27.7,31.4-63.6,9-63.6,9C69.1,142.2,90.7,152.2,110.5,133z"/>
	</g>
</g>
</svg>
