<svg width="18" height="18" viewBox="0 0 18 18" fill="none" xmlns="http://www.w3.org/2000/svg">
<path fill-rule="evenodd" clip-rule="evenodd" d="M2 14C2 15.1046 2.89543 16 4 16H14C15.1046 16 16 15.1046 16 14V13C16 12.4477 16.4477 12 17 12C17.5523 12 18 12.4477 18 13V14C18 16.2091 16.2091 18 14 18H4C1.79086 18 1.40276e-07 16.2091 4.37115e-08 14L0 13C-2.41411e-08 12.4477 0.447715 12 1 12C1.55228 12 2 12.4477 2 13V14ZM4.29289 8.29289C4.68342 7.90237 5.31658 7.90237 5.70711 8.29289L8 10.5858L8 1C8 0.447716 8.44771 2.41411e-08 9 0C9.55228 -2.41411e-08 10 0.447716 10 1L10 10.5858L12.2929 8.29289C12.6834 7.90237 13.3166 7.90237 13.7071 8.29289C14.0976 8.68342 14.0976 9.31658 13.7071 9.70711L9.70711 13.7071C9.31658 14.0976 8.68342 14.0976 8.29289 13.7071L4.29289 9.70711C3.90237 9.31658 3.90237 8.68342 4.29289 8.29289Z" fill="#137D60"/>
</svg>
