<?xml version="1.0" encoding="utf-8"?>
<!-- Generator: Adobe Illustrator 19.2.1, SVG Export Plug-In . SVG Version: 6.00 Build 0)  -->
<!DOCTYPE svg PUBLIC "-//W3C//DTD SVG 1.1//EN" "http://www.w3.org/Graphics/SVG/1.1/DTD/svg11.dtd">
<svg version="1.1" id="Layer_1" xmlns="http://www.w3.org/2000/svg" xmlns:xlink="http://www.w3.org/1999/xlink" x="0px" y="0px"
	 width="16px" height="16px" viewBox="0 0 16 16" enable-background="new 0 0 16 16" xml:space="preserve">
<rect x="5" y="7" width="2" height="6"/>
<rect x="9" y="7" width="2" height="6"/>
<path d="M12,1c0-0.552-0.447-1-1-1H5C4.447,0,4,0.448,4,1v2H0v2h1v10c0,0.552,0.447,1,1,1h12c0.553,0,1-0.448,1-1V5h1V3h-4V1z M6,2
	h4v1H6V2z M13,5v9H3V5H13z"/>
</svg>
