<svg width="20" height="20" viewBox="0 0 20 20" fill="none" xmlns="http://www.w3.org/2000/svg">
<path fill-rule="evenodd" clip-rule="evenodd" d="M8 2C4.68629 2 2 4.68629 2 8C2 11.3137 4.68629 14 8 14C11.3137 14 14 11.3137 14 8C14 4.68629 11.3137 2 8 2ZM0 8C0 3.58172 3.58172 0 8 0C12.4183 0 16 3.58172 16 8C16 9.84871 15.3729 11.551 14.3199 12.9056L19.7071 18.2929C20.0976 18.6834 20.0976 19.3166 19.7071 19.7071C19.3166 20.0976 18.6834 20.0976 18.2929 19.7071L12.9056 14.3199C11.551 15.3729 9.84871 16 8 16C3.58172 16 0 12.4183 0 8ZM8 4C8.55228 4 9 4.44772 9 5V7H11C11.5523 7 12 7.44772 12 8C12 8.55228 11.5523 9 11 9H9V11C9 11.5523 8.55228 12 8 12C7.44772 12 7 11.5523 7 11V9H5C4.44772 9 4 8.55228 4 8C4 7.44772 4.44772 7 5 7H7V5C7 4.44772 7.44772 4 8 4Z" fill="#137D60"/>
</svg>
