<svg width="47" height="37" viewBox="0 0 47 37" fill="none" xmlns="http://www.w3.org/2000/svg">
<path d="M25.0923 30.2L25.0923 17C25.0923 16.4333 24.9038 15.9583 24.5268 15.575C24.1497 15.1917 23.6825 15 23.1251 15C22.5677 15 22.1005 15.1917 21.7235 15.575C21.3464 15.9583 21.1579 16.4333 21.1579 17L21.1579 30.2L17.4202 26.4C17.0595 26.0333 16.6005 25.85 16.0432 25.85C15.4858 25.85 15.0268 26.0333 14.6661 26.4C14.3054 26.7667 14.1251 27.2333 14.1251 27.8C14.1251 28.3667 14.3054 28.8333 14.6661 29.2L21.7481 36.4C22.1415 36.8 22.6005 37 23.1251 37C23.6497 37 24.1087 36.8 24.5022 36.4L31.5841 29.2C31.9448 28.8333 32.1251 28.3667 32.1251 27.8C32.1251 27.2333 31.9448 26.7667 31.5841 26.4C31.2235 26.0333 30.7645 25.85 30.2071 25.85C29.6497 25.85 29.1907 26.0333 28.83 26.4L25.0923 30.2Z" fill="#137D60"/>
<path fill-rule="evenodd" clip-rule="evenodd" d="M1.3586 1.3586C2.26433 0.452867 3.35314 0 4.62502 0H41.6252C42.8971 0 43.9859 0.452867 44.8916 1.3586C45.7974 2.26433 46.2502 3.35314 46.2502 4.62502V32.3752C46.2502 33.647 45.7974 34.7359 44.8916 35.6416C43.9859 36.5473 42.8971 37.0002 41.6252 37.0002H34.3752C33.72 37.0002 33.1707 36.7786 32.7275 36.3353C32.2843 35.8921 32.0627 35.3429 32.0627 34.6877C32.0627 34.0325 32.2843 33.4832 32.7275 33.04C33.1707 32.5968 33.72 32.3752 34.3752 32.3752H41.6252V9.25023H4.62502V32.3752H11.8751C12.5303 32.3752 13.0795 32.5968 13.5227 33.04C13.966 33.4832 14.1876 34.0325 14.1876 34.6877C14.1876 35.3429 13.966 35.8921 13.5227 36.3353C13.0795 36.7786 12.5303 37.0002 11.8751 37.0002H4.62502C3.35314 37.0002 2.26433 36.5473 1.3586 35.6416C0.452867 34.7359 0 33.647 0 32.3752V4.62502C0 3.35314 0.452867 2.26433 1.3586 1.3586Z" fill="#137D60"/>
</svg>
