<svg xmlns="http://www.w3.org/2000/svg" width="27" height="27" viewBox="0 0 50 50">
    <g fill="none" fill-rule="evenodd" stroke="#444" stroke-width="2">
        <path d="M29.516 21.721a4.918 4.918 0 0 1-4.92 4.918 4.918 4.918 0 1 1 0-9.836 4.918 4.918 0 0 1 4.92 4.918z"/>
        <path d="M3.885 26.787a21.374 21.374 0 0 1-.606-5.066C3.28 9.951 12.822.41 24.597.41 36.37.41 45.914 9.95 45.914 21.72c0 1.743-.209 3.437-.604 5.058"/>
        <path fill="#CEE6FF" d="M0 49.59h49.194V33.333H0z"/>
        <path d="M6 42h39"/>
    </g>
</svg>
