<?xml version="1.0" encoding="UTF-8" standalone="no"?>
<svg width="30px" height="30px" viewBox="0 0 30 30" version="1.1" xmlns="http://www.w3.org/2000/svg" xmlns:xlink="http://www.w3.org/1999/xlink">
    <!-- Generator: sketchtool 49.3 (51167) - http://www.bohemiancoding.com/sketch -->
    <title>3718EF2C-87D0-4748-AA1B-EF8491753D7E</title>
    <desc>Created with sketchtool.</desc>
    <defs></defs>
    <g id="Symbols" stroke="none" stroke-width="1" fill="none" fill-rule="evenodd">
        <g id="icon/profile/hobby">
            <polygon id="Path" fill="#CEE6FF" points="17.7499001 18.3115794 19.7842307 13.6245089 15.0186172 10 10.2589693 13.5809957 12.2951043 18.3115794"></polygon>
            <polygon id="Path" fill="#CEE6FF" transform="translate(2.789855, 11.244059) scale(-1, 1) rotate(73.000000) translate(-2.789855, -11.244059) " points="-1.71014532 10.7475616 3.28985468 13.726544 7.28985468 9.7545674 3.28985468 8.76157324"></polygon>
            <polygon id="Path" fill="#CEE6FF" transform="translate(7.789855, 25.244059) scale(-1, 1) rotate(144.000000) translate(-7.789855, -25.244059) " points="3.28985468 24.7475616 8.28985468 27.726544 12.2898547 23.7545674 8.28985468 22.7615732"></polygon>
            <polygon id="Path" fill="#CEE6FF" points="10 2.02101752 15 5 19 1.02802336 15 0.0350292056"></polygon>
            <polygon id="Path" fill="#CEE6FF" transform="translate(26.789855, 11.244059) rotate(73.000000) translate(-26.789855, -11.244059) " points="22.2898547 10.7475616 27.2898547 13.726544 31.2898547 9.7545674 27.2898547 8.76157324"></polygon>
            <polygon id="Path" fill="#CEE6FF" transform="translate(21.789855, 25.244059) rotate(144.000000) translate(-21.789855, -25.244059) " points="17.2898547 24.7475616 22.2898547 27.726544 26.2898547 23.7545674 22.2898547 22.7615732"></polygon>
            <g id="Page-1" stroke="#444444">
                <path d="M14.9914175,29.0167465 C16.1831368,29.0167465 17.3404,28.8664661 18.4459439,28.5855666 L20.1321544,22.3118867 L26.9482947,22.3201227 C28.0711018,20.494854 28.7837333,18.3943633 28.9655579,16.1454498 L23.4238035,12.1143049 L25.7659789,6.05416472 C24.2767158,4.26933995 22.351593,2.86165304 20.1562596,1.98969042 L14.7798035,6.09926986 L9.57882105,2.08743575 C7.4909614,2.96328855 5.65906667,4.33007593 4.22717193,6.0420736 L6.5741193,12.1143049 L1.01818947,16.156104 C1.20120702,18.4007068 1.91355789,20.4979381 3.03450526,22.3201227 L9.89313684,22.3118867 L11.5821193,28.5959404 C12.6742246,28.8695502 13.8157333,29.0167465 14.9914175,29.0167465 M10.4943298,28.2737909 L9.15166316,23.278896 L3.68622456,23.2855199 C5.37408421,25.5793984 7.74362807,27.3407769 10.4943298,28.2737909 M0.967417544,14.9977395 L5.40429474,11.7701811 L3.53769825,6.94070678 C1.92303158,9.22067173 0.969768421,11.9993516 0.967417544,14.9977395 M10.6504,1.69130257 L14.7826456,4.88125584 L19.0676982,1.60641939 C17.7770316,1.21407126 16.4088912,1.00109229 14.9914175,1.00109229 C13.4764,1.00109229 12.0180491,1.24533294 10.6504,1.69130257 M26.4547509,6.95451519 L24.593593,11.7701811 L29.0151368,14.9865245 C29.0104,11.9984755 28.0613825,9.22911799 26.4547509,6.95451519 M26.2965404,23.2855199 L20.8736632,23.278896 L19.535207,28.2577395 C22.2660842,27.3209404 24.6183649,25.5661857 26.2965404,23.2855199 M15.6794175,29.9652862 C15.4513825,29.9757301 15.2220842,29.9827745 14.9914175,29.9827745 C14.7614175,29.9827745 14.5328211,29.9757301 14.305207,29.9652862 C14.2553474,29.9632185 14.2053474,29.9610806 14.1554526,29.9582418 C13.939207,29.9464661 13.7240842,29.9304147 13.5101895,29.9094217 C13.4584351,29.9042348 13.4069263,29.8978914 13.3552421,29.8922138 C13.1750667,29.872903 12.9960842,29.8499825 12.8180491,29.8242932 C12.7670316,29.8167582 12.7158386,29.8104147 12.6650667,29.8025993 C12.4669263,29.7716881 12.2706456,29.7358353 12.0754526,29.6974241 C12.0031719,29.6832301 11.9311719,29.66816 11.8593474,29.6530549 C11.2279789,29.518861 10.6116281,29.3443633 10.0126105,29.1334871 C9.85864561,29.0794451 9.70632982,29.0218984 9.55475088,28.9629498 C9.5209614,28.9497371 9.48724211,28.9365596 9.45345263,28.9231016 C8.97482105,28.7329731 8.50847018,28.5195386 8.05580351,28.2830082 C8.0489614,28.2794334 8.0418386,28.276139 8.03499649,28.272389 C7.88885614,28.1957068 7.7441193,28.1162558 7.60078596,28.0348423 C7.5766807,28.0212091 7.55285614,28.0072956 7.52899649,27.9935923 C7.08478596,27.7384171 6.65510175,27.4615129 6.24117193,27.163861 C6.23454035,27.1591297 6.22762807,27.1544334 6.22103158,27.1495269 C6.08247018,27.0495035 5.94597895,26.947097 5.81113684,26.8426227 C5.80194386,26.8355432 5.7929614,26.8284988 5.78397895,26.8211741 C5.37222456,26.5006367 4.97759298,26.1591414 4.60190877,25.7980549 C4.59980351,25.7959171 4.59766316,25.7940245 4.59527719,25.7917114 C4.08738246,25.3029848 3.61397895,24.778896 3.17903158,24.2229848 C2.91927719,23.8911624 2.67275088,23.548896 2.44131228,23.1953797 C2.2729614,22.9383119 2.11264561,22.6755666 1.95987368,22.4079147 C1.94903158,22.3887792 1.93766316,22.369889 1.92706667,22.3505783 C1.85313684,22.2201343 1.78138246,22.0883236 1.71145263,21.9555315 C1.69920702,21.9321904 1.68738246,21.9081133 1.67510175,21.8845269 C1.55278596,21.6486974 1.43685614,21.4087675 1.32657544,21.1656133 C1.30510175,21.1179848 1.28289123,21.0703563 1.26187368,21.0222722 C1.20875088,20.9019217 1.15752281,20.7807301 1.10745263,20.6585572 C1.08004912,20.5910923 1.0538386,20.5231717 1.02717193,20.4552512 C0.954189474,20.269153 0.885242105,20.0811624 0.819592982,19.8915245 C0.788189474,19.8005082 0.756540351,19.7094568 0.726785965,19.6176694 C0.693031579,19.5132652 0.660435088,19.40809 0.628821053,19.3028446 C0.595031579,19.189889 0.56317193,19.0764077 0.532014035,18.9625409 C0.496575439,18.8330432 0.462575439,18.7028797 0.430680702,18.5721554 C0.396926316,18.4340012 0.364364912,18.2955315 0.334329825,18.1561157 C0.315242105,18.0665362 0.297066667,17.9764311 0.279557895,17.8863259 C0.250750877,17.7396203 0.224575439,17.5919685 0.200470175,17.443861 C0.186750877,17.3603446 0.172821053,17.277389 0.160575439,17.193382 C0.134364912,17.0143633 0.111698246,16.8343633 0.0918385965,16.6532769 C0.0828912281,16.571653 0.0748561404,16.4896086 0.0673122807,16.4077395 C0.0524350877,16.2462091 0.040154386,16.0837325 0.0302245614,15.9206951 C0.0266807018,15.8612909 0.0214877193,15.8025175 0.0186105263,15.7431133 C0.00682105263,15.4997138 1.40350877e-05,15.2551577 1.40350877e-05,15.0088843 C1.40350877e-05,14.8328446 0.0073122807,14.6586624 0.0132070175,14.4841647 C0.0193824561,14.3053563 0.0290315789,14.1275292 0.0415578947,13.950368 C0.0425052632,13.9344568 0.0439087719,13.9188259 0.0451017544,13.9029848 C0.0835929825,13.3770736 0.149242105,12.8586273 0.240610526,12.3491881 C0.2444,12.3276343 0.248154386,12.3060456 0.252189474,12.2844217 C0.377803509,11.6007301 0.5504,10.9333703 0.765522807,10.2856016 C0.777101754,10.2512909 0.788926316,10.2169801 0.800470175,10.1826343 C0.955592982,9.72716706 1.13225965,9.28193341 1.32892632,8.84745911 C1.34618947,8.80887266 1.36341754,8.77025117 1.38110175,8.731875 C1.44390877,8.59627921 1.5084,8.46183995 1.5749614,8.3284521 C1.59313684,8.29214369 1.61204912,8.25639603 1.63047018,8.22019276 C1.77429474,7.93838201 1.92587368,7.6610222 2.0866807,7.38976051 C2.08832982,7.38692173 2.09001404,7.38415304 2.09162807,7.38127921 C2.16622456,7.25546145 2.24369825,7.13153621 2.32208421,7.00803154 C2.35113684,6.96233061 2.3804,6.91666472 2.40994386,6.87113902 C2.48927719,6.74910631 2.56931228,6.62749416 2.65218947,6.50791472 C2.9069614,6.13974883 3.1764,5.78241238 3.46236491,5.43916472 C3.6418386,5.22355724 3.82885614,5.0145035 4.01987368,4.80941005 C4.05997895,4.76651285 4.10106667,4.72449182 4.14169825,4.68191005 C4.30131228,4.51449182 4.4649614,4.35068341 4.6324,4.19090537 C4.67489123,4.15021612 4.71717193,4.10928154 4.76015439,4.06922313 C4.95941754,3.88319509 5.16271579,3.70165304 5.37190877,3.52673481 C5.37762807,3.52189836 5.38303158,3.51695678 5.38871579,3.51212033 C5.62008421,3.31929322 5.85720702,3.13323014 6.09994386,2.95431659 C6.10064561,2.95372079 6.10138246,2.95323014 6.10204912,2.95277453 C6.33113684,2.78412967 6.56601404,2.62305491 6.80478596,2.46737734 C6.8406807,2.44393107 6.87703158,2.42108061 6.91338246,2.39794977 C7.13036491,2.25891939 7.35120702,2.12528621 7.57548772,1.99733061 C7.60524211,1.98047313 7.63454035,1.963125 7.66425965,1.94640771 C8.18545263,1.65439836 8.7249614,1.3915479 9.28197895,1.16216706 C9.68906667,0.994503505 10.1037333,0.842015187 10.5278386,0.710029206 C10.5418035,0.705788551 10.5559088,0.702283879 10.5696281,0.697903037 C10.7670316,0.637167056 10.9662947,0.581267523 11.1669965,0.528452103 C11.2348211,0.510753505 11.3030316,0.494246495 11.3710667,0.477353972 C11.5271368,0.43869743 11.6844,0.402494159 11.8426105,0.368639019 C11.9099088,0.35426986 11.977207,0.339410047 12.0447509,0.325952103 C12.2633825,0.282459112 12.4834526,0.24198014 12.7054175,0.208160047 C12.7129614,0.206968458 12.720786,0.206127336 12.7285754,0.204970794 C12.9444,0.172307243 13.1621193,0.145531542 13.3809965,0.122190421 C13.449207,0.114865654 13.5179439,0.108977804 13.5866456,0.102599299 C13.7538386,0.0870735981 13.9219439,0.0743165888 14.090786,0.0642932243 C14.1592772,0.0602628505 14.2276982,0.0557768692 14.2966807,0.0526226636 C14.5271719,0.0420735981 14.7583298,0.0350292056 14.9914175,0.0350292056 C15.2178035,0.0350292056 15.4424,0.0420735981 15.6664351,0.0521320093 C15.7323649,0.0550759346 15.7982596,0.0583703271 15.8641193,0.0621553738 C16.0462246,0.0726693925 16.2272772,0.0865829439 16.4076982,0.103405374 C16.505207,0.11276285 16.6022246,0.12348715 16.6993474,0.134561916 C16.8358035,0.150017523 16.9718386,0.167225467 17.1071368,0.186325935 C17.2221193,0.202727804 17.3368912,0.220075935 17.451207,0.239036215 C17.524786,0.251337617 17.598014,0.265110981 17.6714877,0.278428738 C17.9234175,0.32416472 18.1734526,0.37526285 18.4209263,0.433405374 C18.4478386,0.439643692 18.4749965,0.445531542 18.5016632,0.452015187 C18.6544351,0.488709112 18.8065404,0.527470794 18.9576632,0.568790888 C19.5666807,0.735297897 20.1607509,0.937412383 20.7364,1.17622079 C20.8049263,1.20464369 20.8726456,1.23387266 20.9406456,1.26324182 C21.0844702,1.32541472 21.2273474,1.39000584 21.368786,1.45652453 C21.4219439,1.4815479 21.4759789,1.50544977 21.5288912,1.53103388 C21.7066807,1.61738902 21.8821544,1.70784463 22.0559439,1.8007535 C22.1234526,1.83685164 22.190014,1.87396612 22.2566456,1.91101051 C22.3838737,1.98155958 22.5097333,2.05396612 22.6344351,2.12798481 C22.6943649,2.1635222 22.7551368,2.19818341 22.8146105,2.23459696 C22.9787509,2.33521612 23.1406807,2.43923481 23.3005754,2.5459521 C23.3671368,2.59028621 23.432786,2.63605724 23.4984,2.68133762 C23.6096632,2.75805491 23.7196982,2.83627921 23.8287509,2.91597547 C23.8929614,2.9627979 23.9574877,3.00902453 24.0209614,3.05689836 C24.1707158,3.16999416 24.3182246,3.28592874 24.4637333,3.40442173 C24.5286807,3.4572722 24.5919439,3.51176986 24.6559088,3.56574182 C24.753207,3.64785631 24.8495579,3.7309521 24.9447158,3.81551986 C25.0096632,3.87306659 25.0748211,3.93050818 25.1385754,3.9892465 C25.2743649,4.11401285 25.408014,4.24088201 25.5390667,4.37048481 C25.5997684,4.43051986 25.6588211,4.49234229 25.7185053,4.55339369 C25.8046807,4.6417465 25.8901544,4.73087033 25.9742596,4.82132593 C26.0361193,4.88784463 26.0979439,4.95432827 26.1586807,5.02217874 C26.5787158,5.49043808 26.9690667,5.9857535 27.3281895,6.50448014 C27.4122947,6.62605724 27.4939439,6.74966706 27.5747158,6.8739778 C27.6026105,6.91701519 27.6304351,6.96026285 27.6578386,7.00372079 C27.9088561,7.39911799 28.1416982,7.80685164 28.3553825,8.22622079 C28.3723298,8.25997079 28.3900842,8.29344042 28.4070667,8.32733061 C28.4746105,8.46233061 28.540014,8.59838201 28.6033123,8.73569509 C28.6200842,8.77165304 28.6361544,8.80796145 28.6524351,8.84405958 C28.8512421,9.28294977 29.0294877,9.73308995 29.1858737,10.1932185 C29.1962246,10.2234638 29.2063649,10.253604 29.2165053,10.2838493 C29.4335228,10.9368049 29.6071018,11.6096671 29.733207,12.2990362 C29.7362947,12.3147722 29.7388561,12.3305783 29.7416982,12.3462442 C29.8349614,12.8659521 29.9018035,13.3948072 29.9398035,13.931653 C29.9402596,13.9381717 29.9409965,13.9445152 29.9414526,13.9508586 C29.954014,14.1322255 29.9636281,14.3144334 29.9698035,14.4974825 C29.9754175,14.6675993 29.982786,14.8373306 29.982786,15.0088843 C29.982786,15.2596086 29.9761544,15.5086507 29.9639088,15.7565713 C29.9619789,15.7957185 29.9582246,15.83441 29.9561193,15.8735572 C29.9454526,16.0584287 29.9313123,16.2424591 29.9140491,16.4254381 C29.9072421,16.4975993 29.9003649,16.5697956 29.8925754,16.6415012 C29.8708561,16.8407769 29.8462947,17.0391063 29.816786,17.2358586 C29.8078035,17.2962091 29.7971719,17.356139 29.7872772,17.4164895 C29.7615228,17.5761974 29.7329614,17.7349591 29.702014,17.8929498 C29.6854877,17.9775876 29.6685404,18.0622956 29.6505053,18.1464428 C29.6181895,18.2976694 29.5832772,18.44809 29.5461895,18.5977044 C29.5164351,18.7184054 29.4848211,18.8382301 29.4519789,18.9580199 C29.4212772,19.0705549 29.3896632,19.1825643 29.3563649,19.2943633 C29.3246807,19.4000643 29.2922947,19.5056951 29.2583298,19.610625 C29.2299789,19.6986273 29.1995579,19.7854381 29.1695579,19.8727044 C29.1017684,20.0693867 29.0304702,20.2642465 28.9549263,20.456653 C28.9317684,20.5156367 28.9090667,20.5748306 28.8852421,20.6335689 C28.8330667,20.7613843 28.7799088,20.8884988 28.7244702,21.0147021 C28.7138035,21.0389895 28.7024702,21.0628213 28.6916281,21.0873189 C28.574014,21.3505549 28.449593,21.6102161 28.317593,21.8651811 C28.3086456,21.8825993 28.2998737,21.899632 28.2911719,21.9168049 C28.0711018,22.3378563 27.832786,22.7472722 27.5753825,23.1437208 C27.3442596,23.4996203 27.085207,23.8449708 26.839593,24.1794217 L26.839593,24.1791764 C26.4887158,24.5965829 26.1683298,24.996396 25.8025404,25.3770386 C25.7980491,25.3817699 25.793207,25.3865012 25.7887509,25.3912325 C25.3088912,25.888861 24.7944351,26.3532301 24.2502246,26.7813259 C24.2286807,26.7978329 24.2074175,26.8147956 24.1859439,26.8313727 C24.0565053,26.9322371 23.9253825,27.0313143 23.7924702,27.1275526 C23.7860491,27.1322488 23.7794175,27.1369801 23.7728211,27.1417114 C23.3642947,27.4372255 22.9396982,27.7122371 22.5015228,27.9662558 C22.4634526,27.9884054 22.4254526,28.0100643 22.3871719,28.0317932 C22.2521193,28.1086857 22.1163649,28.183896 21.9786807,28.256618 C21.9676281,28.2624708 21.956014,28.2681834 21.9447158,28.2740362 C21.6546807,28.426139 21.3588561,28.568639 21.058014,28.7016414 C21.035593,28.7115596 21.0136632,28.7218984 20.9911719,28.7318166 C20.8523649,28.7924474 20.7120842,28.8502044 20.5711368,28.9068049 C20.5234175,28.92566 20.4754877,28.9445502 20.4273474,28.9634054 C20.2846807,29.0188493 20.141593,29.0733119 19.9968561,29.1245152 C19.3829263,29.3416998 18.7512421,29.5209638 18.103593,29.6577862 C18.0478386,29.6693516 17.9921544,29.6811273 17.9361895,29.6922021 C17.7295579,29.7332418 17.5217333,29.7709871 17.3120842,29.8035456 C17.2705404,29.8101694 17.2287158,29.8153213 17.1868912,29.8214895 C16.9961193,29.8493166 16.8041895,29.8738493 16.6112421,29.8945619 C16.5685053,29.8990829 16.5259789,29.9044801 16.4832772,29.9087208 C16.2658035,29.9299942 16.0471018,29.9464661 15.8270316,29.9582418 C15.7779088,29.9610806 15.728786,29.9632185 15.6794175,29.9652862" id="Fill-1" fill="#444444"></path>
                <path d="M17.6211789,18.3115794 L19.5595298,13.8456449 L15.0187579,10.3921402 L10.4836702,13.8041846 L12.4237404,18.3115794 L17.6211789,18.3115794 Z M17.6211789,18.3115794 L19.5595298,13.8456449 L15.0187579,10.3921402 L10.4836702,13.8041846 L12.4237404,18.3115794 L17.6211789,18.3115794 Z M18.259214,19.3279346 L11.7840211,19.3279346 L9.29970526,13.5212874 L15.0216,9.18663785 L20.7434596,13.5653061 L18.259214,19.3279346 Z" id="Fill-4" fill="#CEE6FF"></path>
            </g>
        </g>
    </g>
</svg>