<?xml version="1.0" encoding="UTF-8" standalone="no"?>
<svg width="30px" height="30px" viewBox="0 0 30 30" version="1.1" xmlns="http://www.w3.org/2000/svg" xmlns:xlink="http://www.w3.org/1999/xlink">
    <!-- Generator: sketchtool 49.3 (51167) - http://www.bohemiancoding.com/sketch -->
    <title>C684A6D4-9FF2-49A3-8844-5053A3CFE437</title>
    <desc>Created with sketchtool.</desc>
    <defs>
        <polygon id="path-1" points="0 1 0 29 10.7142857 20.3846154 30 20.3846154 30 1"></polygon>
        <circle id="path-2" cx="6" cy="6" r="6"></circle>
        <circle id="path-4" cx="6" cy="6" r="6"></circle>
    </defs>
    <g id="Symbols" stroke="none" stroke-width="1" fill="none" fill-rule="evenodd">
        <g id="icon/profile/language">
            <g id="Shape" fill-rule="nonzero">
                <use fill="#FFE3CF" fill-rule="evenodd" xlink:href="#path-1"></use>
                <path stroke="#444444" stroke-width="2" d="M1,2 L1,26.9127057 L10.3621022,19.3846154 L29,19.3846154 L29,2 L1,2 Z"></path>
            </g>
            <g id="icon/illustration/globe" transform="translate(9.000000, 4.800000)">
                <rect id="Rectangle" x="0" y="0" width="12" height="12"></rect>
                <mask id="mask-3" fill="white">
                    <use xlink:href="#path-2"></use>
                </mask>
                <g id="Oval">
                    <use fill="#FAFAFB" fill-rule="evenodd" xlink:href="#path-2"></use>
                    <circle stroke="#444444" stroke-width="0.777777718" cx="6" cy="6" r="5.61111114"></circle>
                </g>
                <path d="M2.48363695,1.07142857 C2.88551148,1.35172859 3.19386621,2.06422611 3.19386621,2.06422611 C3.19386621,2.06422611 3.54101863,2.29179913 3.64959424,2.58193423 C3.75816985,2.87206934 3.65567448,3.26656567 3.65567448,3.26656567 C3.65567448,3.26656567 3.96316061,4.1186668 3.81839313,4.35771409 C3.67362564,4.59676137 3.05836385,4.75057123 3.05836385,4.75057123 C3.05836385,4.75057123 2.80502076,5.19451619 2.28009387,5.28002682 C1.93641587,5.31390324 1.59244834,5.53573912 1.59244834,5.99689549 C1.59244834,6.45805186 2.08118335,7.20934333 2.08118335,7.20934333 C2.08118335,7.20934333 2.58786954,7.44319988 2.66025328,7.61394794 C2.73263702,7.78469601 2.75724749,8.18247069 2.75724749,8.18247069 C2.75724749,8.18247069 3.2393232,8.98512319 2.96773941,9.44600636 C2.88116845,9.59298629 2.47900439,9.70226505 2.47900439,9.70226505 L1.91527982,10.5 C0.651074493,9.05702426 0.0126947719,7.52194555 0.000140654843,5.89476387 C-0.0124134622,4.26758219 0.815418636,2.65980375 2.48363695,1.07142857 Z" id="Shape" stroke="#444444" fill="#CEF0AF" stroke-linecap="round" stroke-linejoin="round" mask="url(#mask-3)"></path>
                <path d="M10.5,2.34640819 C10.5,2.34640819 9.31012009,2.86674838 9.31012009,2.86674838 C9.31012009,2.86674838 8.55774544,3.70843418 8.06355759,3.6387582 C7.56936974,3.56908223 7.06686224,3.01167441 7.06686224,3.01167441 C7.06686224,3.01167441 7.10152749,1.98437181 6.94567251,1.93197548 C6.78981753,1.87957915 6.3738345,2.15828305 6.11370644,1.94925512 C5.85357838,1.74022719 6.00360959,1.15104713 6.00360959,1.15104713 C6.00360959,1.15104713 5.43759534,0.973791449 5.36826483,0.782043162 C5.29893433,0.590294874 5.36002938,0.377884907 5.41244325,0.214285714 C6.44629626,0.0624904086 7.42336262,0.179430804 8.34364232,0.5651069 C9.72406186,1.14362104 10.5,2.34640819 10.5,2.34640819 Z" id="Shape" stroke="#444444" fill="#CEF0AF" stroke-linecap="round" stroke-linejoin="round" mask="url(#mask-3)"></path>
                <path d="M10.471841,6.49013923 C10.609873,6.81469368 10.2126169,7.64301786 9.88520497,7.8047487 C9.45150839,8.01893278 9.15584382,8.28775567 9.03492778,8.47571313 C8.91401174,8.66367059 8.75527493,9.43844874 8.35857093,9.59225696 C7.96186693,9.74579198 7.02104075,10.6221983 6.52081274,10.4856013 C6.02058473,10.3490043 6.02030867,9.17071864 6.3653887,8.64126869 C6.57133246,8.32518324 6.33088069,7.63372926 6.31348866,7.39495771 C6.29609663,7.15618617 5.57170464,6.71197274 5.57142857,6.472928 C5.57142857,6.09728627 6.39962064,5.10695806 6.39962064,5.10695806 C6.39962064,5.10695806 7.078186,4.88512455 7.28523402,4.93621182 C7.49228203,4.9872991 7.88346475,5.22634384 7.88346475,5.22634384 C7.88346475,5.22634384 8.65975678,5.29464233 8.95321283,5.44817736 C9.23177552,5.70806682 9.37105687,5.83801155 9.37105687,5.83801155 C9.37105687,5.83801155 10.333809,6.16558477 10.471841,6.49013923 Z" id="Shape" stroke="#444444" fill="#CEF0AF" stroke-linecap="round" stroke-linejoin="round" mask="url(#mask-3)"></path>
                <mask id="mask-5" fill="white">
                    <use xlink:href="#path-4"></use>
                </mask>
                <use id="Oval" stroke="#444444" stroke-width="1.5" xlink:href="#path-4"></use>
            </g>
        </g>
    </g>
</svg>