<?xml version="1.0" encoding="UTF-8" standalone="no"?>
<svg width="30px" height="30px" viewBox="0 0 30 30" version="1.1" xmlns="http://www.w3.org/2000/svg" xmlns:xlink="http://www.w3.org/1999/xlink">
    <!-- Generator: sketchtool 49.3 (51167) - http://www.bohemiancoding.com/sketch -->
    <title>507F8337-4CE4-4A63-A1FA-8D19846680BC</title>
    <desc>Created with sketchtool.</desc>
    <defs></defs>
    <g id="Symbols" stroke="none" stroke-width="1" fill="none" fill-rule="evenodd">
        <g id="icon/profile/organization" fill-rule="nonzero" stroke="#262628" stroke-width="2">
            <circle id="Oval-Copy" fill="#FFFFFF" cx="7" cy="18" r="3"></circle>
            <circle id="Oval-Copy-2" fill="#FFFFFF" cx="24" cy="18" r="3"></circle>
            <circle id="Oval-Copy-3" fill="#FFFFFF" cx="16" cy="4" r="3"></circle>
            <path d="M12,29 L12,26.017 C12,25.307 11.659,24.654 11.0989167,24.292 C10.207,23.717 8.6615,23 6.5,23 C4.311,23 2.77466667,23.713 1.89283333,24.288 C1.33733333,24.65 1,25.301 1,26.007 L1,29 L12,29 Z" id="Shape-Copy" fill="#CEE6FF"></path>
            <path d="M29,29 L29,26.017 C29,25.307 28.659,24.654 28.0989167,24.292 C27.207,23.717 25.6615,23 23.5,23 C21.311,23 19.7746667,23.713 18.8928333,24.288 C18.3373333,24.65 18,25.301 18,26.007 L18,29 L29,29 Z" id="Shape-Copy-2" fill="#CEF0AF"></path>
            <path d="M21,15 L21,12.017 C21,11.307 20.659,10.654 20.0989167,10.292 C19.207,9.717 17.6615,9 15.5,9 C13.311,9 11.7746667,9.713 10.8928333,10.288 C10.3373333,10.65 10,11.301 10,12.007 L10,15 L21,15 Z" id="Shape-Copy-3" fill="#FFE3CF"></path>
        </g>
    </g>
</svg>