<?xml version="1.0" encoding="UTF-8" standalone="no"?>
<svg width="30px" height="30px" viewBox="0 0 30 30" version="1.1" xmlns="http://www.w3.org/2000/svg" xmlns:xlink="http://www.w3.org/1999/xlink">
    <!-- Generator: sketchtool 49.3 (51167) - http://www.bohemiancoding.com/sketch -->
    <title>B1CAE3B1-C2D4-40AC-BA7E-F968E700D325</title>
    <desc>Created with sketchtool.</desc>
    <defs></defs>
    <g id="Symbols" stroke="none" stroke-width="1" fill="none" fill-rule="evenodd">
        <g id="icon/profile/skill">
            <ellipse id="Oval-5" stroke="#444444" stroke-width="2" fill="#FFE3CF" cx="15.5" cy="15" rx="5.5" ry="15"></ellipse>
            <ellipse id="Oval-5-Copy" stroke="#444444" stroke-width="2" fill="#CEF0AF" transform="translate(15.000000, 15.000000) rotate(-300.000000) translate(-15.000000, -15.000000) " cx="15" cy="15" rx="5" ry="15"></ellipse>
            <ellipse id="Oval-5-Copy-2" stroke="#444444" stroke-width="2" fill="#CEE6FF" transform="translate(15.000000, 15.000000) rotate(-240.000000) translate(-15.000000, -15.000000) " cx="15" cy="15" rx="5" ry="15"></ellipse>
            <path d="M10.7522943,22.099263 C10.2741323,19.9156624 10,17.3728438 10,14.658552 C10,13.7485446 10.0308132,12.8578111 10.0897979,11.9934269 C10.9978624,11.3663974 11.9683055,10.7517081 12.9903811,10.1616125 C15.4907358,8.71803196 17.9640555,7.61564632 20.176313,6.90100757 C20.6984825,9.1538734 21,11.8119112 21,14.658552 C21,15.4417622 20.9771754,16.2106952 20.9332103,16.9608406 C20.0130182,17.5979904 19.0283236,18.2226101 17.9903811,18.8218665 C15.470359,20.2768019 12.9777991,21.3851538 10.7522943,22.099263 Z" id="Combined-Shape" stroke="#444444" stroke-width="2" fill="#FFFFFF"></path>
            <path d="M10.0676053,16.9688976 C10.023107,16.2143594 10,15.4407728 10,14.6527326 C10,11.8085284 10.3010006,9.15260419 10.8223442,6.9009726 C13.0300408,7.61577126 15.4967661,8.71610351 17.9903811,10.1557928 C19.0200343,10.7502634 19.9972868,11.3696936 20.9111516,12.0015555 C20.9695174,12.8615729 21,13.7476191 21,14.6527326 C21,17.3694126 20.7253859,19.9143177 20.2464453,22.0992079 C18.01639,21.3853032 15.5171907,20.2749011 12.9903811,18.8160468 C11.9599747,18.2211414 10.9820457,17.6012399 10.0676053,16.9688976 Z" id="Combined-Shape" stroke="#444444" stroke-width="2" fill="#FFFFFF"></path>
            <path d="M7.02505673,14.5 C8.67829935,13.0543202 10.7284157,11.5891524 13.0466699,10.2507077 C13.8703731,9.77514241 14.6910056,9.33689256 15.5,8.93767986 C16.3089944,9.33689256 17.1296269,9.77514241 17.9533301,10.2507077 C20.2715843,11.5891524 22.3217007,13.0543202 23.9749433,14.5 C22.3217007,15.9456798 20.2715843,17.4108476 17.9533301,18.7492923 C17.1296269,19.2248576 16.3089944,19.6631074 15.5,20.0623201 C14.6910056,19.6631074 13.8703731,19.2248576 13.0466699,18.7492923 C10.7284157,17.4108476 8.67829935,15.9456798 7.02505673,14.5 Z" id="Combined-Shape" stroke="#444444" stroke-width="2" fill="#FFFFFF"></path>
            <path d="M10.0530694,16.8487825 C10.0180858,16.1856507 10,15.5082024 10,14.8195801 C10,13.8979349 10.0323968,12.9963056 10.0943425,12.122226 C11.0486297,11.4528361 12.0754749,10.7970032 13.1616963,10.169873 C14.0009433,9.68533349 14.8373065,9.24005746 15.6616963,8.83581727 C16.4860861,9.24005746 17.3224493,9.68533349 18.1616963,10.169873 C19.119709,10.7229819 20.0315348,11.2984176 20.8881304,11.8857895 C20.9614792,12.8334082 21,13.8145944 21,14.8195801 C21,15.58942 20.9773965,16.3452946 20.9338493,17.0828134 C20.0640019,17.6810767 19.1367725,18.2671665 18.1616963,18.830127 C17.3224493,19.3146665 16.4860861,19.7599425 15.6616963,20.1641827 C14.8373065,19.7599425 14.0009433,19.3146665 13.1616963,18.830127 C12.0597979,18.1939457 11.0190021,17.5282272 10.0530694,16.8487825 Z" id="Combined-Shape" stroke="#444444" stroke-width="2" fill="#FFFFFF"></path>
            <circle id="Oval-6" fill="#444444" cx="15.5" cy="14.5" r="1.5"></circle>
        </g>
    </g>
</svg>