<svg width="12" height="12" viewBox="0 0 12 12" fill="none" xmlns="http://www.w3.org/2000/svg">
<path fill-rule="evenodd" clip-rule="evenodd" d="M4.60002 1.80002C3.05363 1.80002 1.80002 3.05363 1.80002 4.60002C1.80002 6.14642 3.05363 7.40002 4.60002 7.40002C6.14642 7.40002 7.40002 6.14642 7.40002 4.60002C7.40002 3.05363 6.14642 1.80002 4.60002 1.80002ZM0.400024 4.60002C0.400024 2.28043 2.28043 0.400024 4.60002 0.400024C6.91962 0.400024 8.80002 2.28043 8.80002 4.60002C8.80002 5.50711 8.51247 6.34703 8.02355 7.0336L11.395 10.405C11.6684 10.6784 11.6684 11.1216 11.395 11.395C11.1216 11.6684 10.6784 11.6684 10.405 11.395L7.0336 8.02355C6.34703 8.51247 5.50711 8.80002 4.60002 8.80002C2.28043 8.80002 0.400024 6.91962 0.400024 4.60002Z" fill="#767676"/>
</svg>
