<?xml version="1.0" encoding="UTF-8" standalone="no"?>
<svg width="64px" height="64px" viewBox="0 0 64 64" version="1.1" xmlns="http://www.w3.org/2000/svg" xmlns:xlink="http://www.w3.org/1999/xlink">
    <defs></defs>
    <g id="Languages" stroke="none" stroke-width="1" fill="none" fill-rule="evenodd">
        <g id="icons/skills/id-148" fill="#28334C">
            <g id="Group" transform="translate(2.000000, 8.000000)">
                <path d="M23.3709677,7.5483871 C29.0322581,7.06451613 30.6290323,3.43548387 37.2580645,2.80645161 C40.5,2.51612903 42.5806452,3.19354839 42.7741935,4.30645161 C42.9677419,5.37096774 41.3709677,6.09677419 39.3870968,6.24193548 C36.6774194,6.53225806 35.516129,5.51612903 35.3225806,4.59677419 C33.3387097,4.79032258 33,5.66129032 33.0967742,6.29032258 C33.2903226,7.4516129 35.7580645,8.56451613 39.9193548,8.17741935 C44.6612903,7.79032258 46.2096774,5.9516129 45.8225806,4.06451613 C45.3387097,1.64516129 41.7096774,-0.387096774 35.1774194,0.193548387 C26.8064516,0.967741935 26.8548387,4.79032258 21.1935484,5.27419355 C18.8709677,5.46774194 17.5645161,4.93548387 17.3225806,4.01612903 C17.1774194,3.09677419 18.2903226,2.66129032 19.6451613,2.56451613 C20.9032258,2.46774194 22.4032258,2.66129032 23.1290323,3.0483871 C23.6612903,2.75806452 23.8548387,2.51612903 23.7580645,2.17741935 C23.5645161,1.30645161 21.8225806,0.919354839 19.6451613,1.11290323 C15.4354839,1.5 15.4354839,3.38709677 15.5806452,4.20967742 C16.1129032,6.48387097 19.3548387,7.93548387 23.3709677,7.5483871 L23.3709677,7.5483871 Z M51.7258065,17.1290323 C46.5,18.3387097 39.8225806,19.1129032 31.7903226,19.1129032 C23.6129032,19.1129032 16.9354839,18.2419355 11.7096774,17.1290323 C7.06451613,15.9193548 4.5483871,14.6129032 3.67741935,13.2580645 C4.11290323,16.3064516 4.88709677,19.2580645 5.90322581,22.0645161 C4.74193548,22.7903226 3.62903226,23.7580645 2.66129032,24.9677419 C0.822580645,27.2903226 -1.05276898e-13,30 0.14516129,32.6612903 C0.290322581,35.3225806 1.59677419,37.5 3.67741935,39.1935484 C5.85483871,40.8870968 8.17741935,41.3709677 10.8387097,40.8870968 C11.8548387,40.7419355 13.016129,40.1612903 14.0322581,39.8709677 C11.8548387,39.8709677 10.016129,39.1451613 8.17741935,37.6935484 C6.19354839,36.2419355 4.79032258,34.1612903 4.5,31.6935484 C4.01612903,29.3709677 4.5,27.1935484 5.80645161,25.3064516 C6.09677419,24.9193548 6.38709677,24.6290323 6.72580645,24.3387097 C7.4516129,26.1774194 8.32258065,27.9193548 9.24193548,29.6129032 C11.2258065,32.6612903 13.2580645,35.3225806 15.2419355,38.1774194 C16.1129032,39.8709677 16.6935484,41.5645161 17.0806452,43.2096774 C18.3870968,45.0483871 20.2741935,46.3548387 22.5967742,47.0322581 C25.4516129,48.0483871 28.4516129,48.4354839 31.5,48.4354839 L31.8387097,48.4354839 C34.8870968,48.4354839 38.0806452,47.9516129 41.0322581,46.983871 C43.2096774,46.2580645 45.0483871,45.0483871 46.4032258,43.1129032 L46.5483871,43.1129032 C46.8870968,41.6612903 47.4193548,39.8225806 48.2419355,38.1290323 C50.2258065,35.2741935 52.2580645,32.6129032 54.2419355,29.5645161 C56.9032258,24.7258065 58.7419355,19.2096774 59.7580645,13.3064516 C58.7419355,14.7580645 56.2258065,16.1129032 51.7258065,17.1290323 L51.7258065,17.1290323 Z M11.7096774,12.9193548 C16.9354839,14.2258065 23.6129032,14.9032258 31.6451613,14.9032258 C39.8225806,14.9032258 46.3548387,14.1774194 51.5806452,12.9193548 C57.0967742,11.6129032 59.7580645,9.87096774 59.7580645,8.27419355 C59.7580645,7.06451613 58.5483871,5.9516129 56.3709677,5.08064516 C56.8548387,5.41935484 57.2419355,5.9516129 57.2419355,6.53225806 C57.2419355,8.22580645 54.7258065,9.58064516 49.6935484,10.6935484 C45.0483871,11.7096774 39.0483871,12.4354839 31.7903226,12.4354839 C24.7741935,12.4354839 18.5322581,11.7096774 14.0322581,10.7419355 C9.19354839,9.53225806 6.62903226,8.22580645 6.62903226,6.58064516 C6.62903226,5.85483871 6.96774194,5.27419355 7.93548387,4.59677419 C4.88709677,5.80645161 3.29032258,6.77419355 3.29032258,8.27419355 C3.43548387,9.96774194 6.14516129,11.6612903 11.7096774,12.9193548 L11.7096774,12.9193548 Z" id="Shape"></path>
            </g>
        </g>
    </g>
</svg>