<?xml version="1.0" encoding="UTF-8" standalone="no"?>
<svg width="64px" height="64px" viewBox="0 0 64 64" version="1.1" xmlns="http://www.w3.org/2000/svg" xmlns:xlink="http://www.w3.org/1999/xlink">
    <defs></defs>
    <g id="Languages" stroke="none" stroke-width="1" fill="none" fill-rule="evenodd">
        <g id="icons/skills/id-131">
            <path d="M33.7260681,2.99580851 L56.2739319,16.0041915 C57.227213,16.5541613 58,17.8978404 58,18.991617 L58,45.008383 C58,46.1083227 57.2218716,47.4489202 56.2739319,47.9958085 L33.7260681,61.0041915 C32.772787,61.5541613 31.2218716,61.5510798 30.2739319,61.0041915 L7.72606809,47.9958085 C6.77278701,47.4458387 6,46.1021596 6,45.008383 L6,18.991617 C6,17.8916773 6.77812836,16.5510798 7.72606809,16.0041915 L30.2739319,2.99580851 C31.227213,2.44583866 32.7781284,2.44892021 33.7260681,2.99580851 Z" id="Polygon-1" fill="#03599C"></path>
            <path d="M38.034,25.868 C37.5126641,25.2333302 36.8723371,24.7460017 36.113,24.406 C35.3536629,24.0659983 34.4753383,23.896 33.478,23.896 C32.4806617,23.896 31.5570043,24.0886647 30.707,24.474 C29.8569957,24.8593353 29.1203364,25.3976632 28.497,26.089 C27.8736635,26.7803368 27.3863351,27.6019952 27.035,28.554 C26.6836649,29.5060048 26.508,30.5373278 26.508,31.648 C26.508,32.781339 26.6836649,33.8183286 27.035,34.759 C27.3863351,35.6996714 27.8679969,36.5156632 28.48,37.207 C29.0920031,37.8983368 29.8116625,38.4366647 30.639,38.822 C31.4663375,39.2073353 32.3559952,39.4 33.308,39.4 C34.3960054,39.4 35.3593291,39.1733356 36.198,38.72 C37.0366709,38.2666644 37.7279973,37.6320041 38.272,36.816 L42.692,40.114 C41.6719949,41.5420071 40.3800078,42.5959966 38.816,43.276 C37.2519922,43.9560034 35.6426749,44.296 33.988,44.296 C32.1066573,44.296 30.3726746,44.0013363 28.786,43.412 C27.1993254,42.8226637 25.8280058,41.9783388 24.672,40.879 C23.5159942,39.7796612 22.6150032,38.4480078 21.969,36.884 C21.3229968,35.3199922 21,33.5746763 21,31.648 C21,29.7213237 21.3229968,27.9760078 21.969,26.412 C22.6150032,24.8479922 23.5159942,23.5163388 24.672,22.417 C25.8280058,21.3176612 27.1993254,20.4733363 28.786,19.884 C30.3726746,19.2946637 32.1066573,19 33.988,19 C34.6680034,19 35.3763297,19.0623327 36.113,19.187 C36.8496703,19.3116673 37.5749964,19.5099986 38.289,19.782 C39.0030036,20.0540014 39.6886634,20.4166644 40.346,20.87 C41.0033366,21.3233356 41.5926641,21.8786634 42.114,22.536 L38.034,25.868 Z" id="C" fill="#FFFFFF"></path>
        </g>
    </g>
</svg>