<?xml version="1.0" encoding="UTF-8" standalone="no"?>
<svg width="64px" height="64px" viewBox="0 0 64 64" version="1.1" xmlns="http://www.w3.org/2000/svg" xmlns:xlink="http://www.w3.org/1999/xlink">
    <defs></defs>
    <g id="Platforms" stroke="none" stroke-width="1" fill="none" fill-rule="evenodd">
        <g id="icons/skills/id-163">
            <g id="Group" transform="translate(2.000000, 15.000000)">
                <path d="M34.6666667,10.8571429 L40.047619,10.8571429 L40.047619,16.3333333 L42.7619048,16.3333333 C44,16.3333333 45.2857143,16.0952381 46.4761905,15.7142857 C47.047619,15.5238095 47.7142857,15.2380952 48.2857143,14.9047619 C47.5238095,13.9047619 47.1428571,12.6666667 47.047619,11.4285714 C46.9047619,9.76190476 47.2380952,7.57142857 48.3809524,6.28571429 L48.952381,5.61904762 L49.6190476,6.14285714 C51.3333333,7.52380952 52.7142857,9.38095238 53,11.5714286 C55.047619,10.952381 57.4285714,11.0952381 59.2380952,12.1428571 L59.952381,12.5714286 L59.5714286,13.3333333 C58.047619,16.2857143 54.8571429,17.2380952 51.7619048,17.047619 C47.0952381,28.6190476 37,34.0952381 24.7142857,34.0952381 C18.3809524,34.0952381 12.5714286,31.7142857 9.23809524,26.0952381 L9.19047619,26 L8.71428571,25 C7.57142857,22.5238095 7.23809524,19.8095238 7.47619048,17.0952381 L7.57142857,16.2857143 L12.1428571,16.2857143 L12.1428571,10.8571429 L17.5238095,10.8571429 L17.5238095,5.52380952 L28.2380952,5.52380952 L28.2380952,0.142857143 L34.6666667,0.142857143 L34.6666667,10.8571429 L34.6666667,10.8571429 Z" id="Shape" fill="#3A4D54"></path>
                <path d="M52.0952381,12.9047619 C52.4761905,10.0952381 50.3809524,7.9047619 49.047619,6.85714286 C47.5714286,8.57142857 47.3333333,13.1428571 49.6666667,15.047619 C48.3333333,16.1904762 45.6190476,17.2857143 42.7619048,17.2857143 L8.38095238,17.2857143 C8.0952381,20.2380952 8.61904762,22.952381 9.80952381,25.2857143 L10.1904762,26 C10.4285714,26.4285714 10.7142857,26.8095238 11,27.2380952 C12.4285714,27.3333333 13.7142857,27.3809524 14.9047619,27.3333333 C17.2380952,27.2857143 19.1428571,27 20.6190476,26.5238095 C20.8571429,26.4285714 21.047619,26.5714286 21.1428571,26.7619048 C21.2380952,27 21.0952381,27.1904762 20.9047619,27.2857143 C20.7142857,27.3333333 20.5238095,27.4285714 20.2857143,27.4761905 C19.1428571,27.8095238 17.9047619,28 16.3333333,28.0952381 L16.047619,28.0952381 C15.4285714,28.1428571 14.7619048,28.1428571 14.047619,28.1428571 C13.2857143,28.1428571 12.5714286,28.1428571 11.7142857,28.0952381 C14.5714286,31.3333333 19.047619,33.2380952 24.6666667,33.2380952 C36.5714286,33.2380952 46.6666667,27.952381 51.0952381,16.1428571 C54.2857143,16.4761905 57.3333333,15.6666667 58.7142857,12.952381 C56.5714286,11.6666667 53.7142857,12.0952381 52.0952381,12.9047619 L52.0952381,12.9047619 Z" id="Shape" fill="#00AADA"></path>
                <path d="M52.0952381,12.9047619 C52.4761905,10.0952381 50.3809524,7.9047619 49.047619,6.85714286 C47.5714286,8.57142857 47.3333333,13.1428571 49.6666667,15.047619 C48.3333333,16.1904762 45.6190476,17.2857143 42.7619048,17.2857143 L10.3809524,17.2857143 C10.2380952,21.8095238 11.9047619,25.2380952 14.9047619,27.2857143 C17.2380952,27.2380952 19.1428571,26.952381 20.6190476,26.4761905 C20.8571429,26.3809524 21.047619,26.5238095 21.1428571,26.7142857 C21.2380952,26.952381 21.0952381,27.1428571 20.9047619,27.2380952 C20.7142857,27.2857143 20.5238095,27.3809524 20.2857143,27.4285714 C19.1428571,27.7619048 17.8095238,28 16.2380952,28.0952381 L16.1904762,28.047619 C20.2380952,30.1428571 26.0952381,30.0952381 32.8571429,27.5238095 C40.3809524,24.6190476 47.4285714,19.0952381 52.3333333,12.8095238 C52.2380952,12.8571429 52.1428571,12.8571429 52.0952381,12.9047619 L52.0952381,12.9047619 Z" id="Shape" fill="#28B8EB"></path>
                <path d="M8.42857143,20.8571429 C8.61904762,22.4285714 9.0952381,23.9047619 9.80952381,25.2857143 L10.1904762,26 C10.4285714,26.4285714 10.7142857,26.8095238 11,27.2380952 C12.4285714,27.3333333 13.7142857,27.3809524 14.9047619,27.3333333 C17.2380952,27.2857143 19.1428571,27 20.6190476,26.5238095 C20.8571429,26.4285714 21.047619,26.5714286 21.1428571,26.7619048 C21.2380952,27 21.0952381,27.1904762 20.9047619,27.2857143 C20.7142857,27.3333333 20.5238095,27.4285714 20.2857143,27.4761905 C19.1428571,27.8095238 17.8095238,28.047619 16.2380952,28.1428571 L16.047619,28.1428571 C15.4285714,28.1904762 14.7619048,28.1904762 14.0952381,28.1904762 C13.3333333,28.1904762 12.5714286,28.1904762 11.7619048,28.1428571 C14.6190476,31.3809524 19.1428571,33.2857143 24.7619048,33.2857143 C34.952381,33.2857143 43.8095238,29.4285714 48.952381,20.9047619 L8.42857143,20.9047619 L8.42857143,20.8571429 L8.42857143,20.8571429 Z" id="Shape" fill="#028BB8"></path>
                <path d="M10.7142857,20.8571429 C11.3333333,23.6190476 12.7619048,25.8095238 14.9047619,27.2857143 C17.2380952,27.2380952 19.1428571,26.952381 20.6190476,26.4761905 C20.8571429,26.3809524 21.047619,26.5238095 21.1428571,26.7142857 C21.2380952,26.952381 21.0952381,27.1428571 20.9047619,27.2380952 C20.7142857,27.2857143 20.5238095,27.3809524 20.2857143,27.4285714 C19.1428571,27.7619048 17.8095238,28 16.1904762,28.0952381 C20.2380952,30.1904762 26.0952381,30.1428571 32.8095238,27.5714286 C36.8571429,26 40.8095238,23.6666667 44.3333333,20.8571429 L10.7142857,20.8571429 L10.7142857,20.8571429 Z" id="Shape" fill="#019BC6"></path>
                <path d="M13.047619,11.7619048 L17.7142857,11.7619048 L17.7142857,16.4285714 L13.047619,16.4285714 L13.047619,11.7619048 L13.047619,11.7619048 Z M13.4285714,12.1428571 L13.8095238,12.1428571 L13.8095238,16 L13.4285714,16 L13.4285714,12.1428571 L13.4285714,12.1428571 Z M14.0952381,12.1428571 L14.4761905,12.1428571 L14.4761905,16 L14.0952381,16 L14.0952381,12.1428571 L14.0952381,12.1428571 Z M14.8095238,12.1428571 L15.1904762,12.1428571 L15.1904762,16 L14.8095238,16 L14.8095238,12.1428571 L14.8095238,12.1428571 Z M15.5238095,12.1428571 L15.9047619,12.1428571 L15.9047619,16 L15.5238095,16 L15.5238095,12.1428571 L15.5238095,12.1428571 Z M16.2380952,12.1428571 L16.6190476,12.1428571 L16.6190476,16 L16.2380952,16 L16.2380952,12.1428571 L16.2380952,12.1428571 Z M16.952381,12.1428571 L17.3333333,12.1428571 L17.3333333,16 L16.952381,16 L16.952381,12.1428571 L16.952381,12.1428571 Z M18.3809524,6.42857143 L23.047619,6.42857143 L23.047619,11.0952381 L18.3809524,11.0952381 L18.3809524,6.42857143 L18.3809524,6.42857143 Z M18.8095238,6.80952381 L19.1904762,6.80952381 L19.1904762,10.6666667 L18.8095238,10.6666667 L18.8095238,6.80952381 L18.8095238,6.80952381 Z M19.4761905,6.80952381 L19.8571429,6.80952381 L19.8571429,10.6666667 L19.4761905,10.6666667 L19.4761905,6.80952381 L19.4761905,6.80952381 Z M20.1904762,6.80952381 L20.5714286,6.80952381 L20.5714286,10.6666667 L20.1904762,10.6666667 L20.1904762,6.80952381 L20.1904762,6.80952381 Z M20.9047619,6.80952381 L21.2857143,6.80952381 L21.2857143,10.6666667 L20.9047619,10.6666667 L20.9047619,6.80952381 L20.9047619,6.80952381 Z M21.5714286,6.80952381 L21.952381,6.80952381 L21.952381,10.6666667 L21.5714286,10.6666667 L21.5714286,6.80952381 L21.5714286,6.80952381 Z M22.2857143,6.80952381 L22.6666667,6.80952381 L22.6666667,10.6666667 L22.2857143,10.6666667 L22.2857143,6.80952381 L22.2857143,6.80952381 Z" id="Shape" fill="#00ACD3"></path>
                <path d="M18.3809524,11.7619048 L23.047619,11.7619048 L23.047619,16.4285714 L18.3809524,16.4285714 L18.3809524,11.7619048 L18.3809524,11.7619048 Z M18.8095238,12.1428571 L19.1904762,12.1428571 L19.1904762,16 L18.8095238,16 L18.8095238,12.1428571 L18.8095238,12.1428571 Z M19.4761905,12.1428571 L19.8571429,12.1428571 L19.8571429,16 L19.4761905,16 L19.4761905,12.1428571 L19.4761905,12.1428571 Z M20.1904762,12.1428571 L20.5714286,12.1428571 L20.5714286,16 L20.1904762,16 L20.1904762,12.1428571 L20.1904762,12.1428571 Z M20.9047619,12.1428571 L21.2857143,12.1428571 L21.2857143,16 L20.9047619,16 L20.9047619,12.1428571 L20.9047619,12.1428571 Z M21.5714286,12.1428571 L21.952381,12.1428571 L21.952381,16 L21.5714286,16 L21.5714286,12.1428571 L21.5714286,12.1428571 Z M22.2857143,12.1428571 L22.6666667,12.1428571 L22.6666667,16 L22.2857143,16 L22.2857143,12.1428571 L22.2857143,12.1428571 Z" id="Shape" fill="#23C2EE"></path>
                <path d="M23.7619048,11.7619048 L28.4285714,11.7619048 L28.4285714,16.4285714 L23.7619048,16.4285714 L23.7619048,11.7619048 L23.7619048,11.7619048 Z M24.1428571,12.1428571 L24.5238095,12.1428571 L24.5238095,16 L24.1428571,16 L24.1428571,12.1428571 L24.1428571,12.1428571 Z M24.8571429,12.1428571 L25.2380952,12.1428571 L25.2380952,16 L24.8571429,16 L24.8571429,12.1428571 L24.8571429,12.1428571 Z M25.5714286,12.1428571 L25.952381,12.1428571 L25.952381,16 L25.5714286,16 L25.5714286,12.1428571 L25.5714286,12.1428571 Z M26.2380952,12.1428571 L26.6190476,12.1428571 L26.6190476,16 L26.2380952,16 L26.2380952,12.1428571 L26.2380952,12.1428571 Z M26.952381,12.1428571 L27.3333333,12.1428571 L27.3333333,16 L26.952381,16 L26.952381,12.1428571 L26.952381,12.1428571 Z M27.6666667,12.1428571 L28.047619,12.1428571 L28.047619,16 L27.6666667,16 L27.6666667,12.1428571 L27.6666667,12.1428571 Z" id="Shape" fill="#00ACD3"></path>
                <path d="M23.7619048,6.42857143 L28.4285714,6.42857143 L28.4285714,11.0952381 L23.7619048,11.0952381 L23.7619048,6.42857143 L23.7619048,6.42857143 Z M24.1428571,6.80952381 L24.5238095,6.80952381 L24.5238095,10.6666667 L24.1428571,10.6666667 L24.1428571,6.80952381 L24.1428571,6.80952381 Z M24.8571429,6.80952381 L25.2380952,6.80952381 L25.2380952,10.6666667 L24.8571429,10.6666667 L24.8571429,6.80952381 L24.8571429,6.80952381 Z M25.5714286,6.80952381 L25.952381,6.80952381 L25.952381,10.6666667 L25.5714286,10.6666667 L25.5714286,6.80952381 L25.5714286,6.80952381 Z M26.2380952,6.80952381 L26.6190476,6.80952381 L26.6190476,10.6666667 L26.2380952,10.6666667 L26.2380952,6.80952381 L26.2380952,6.80952381 Z M26.952381,6.80952381 L27.3333333,6.80952381 L27.3333333,10.6666667 L26.952381,10.6666667 L26.952381,6.80952381 L26.952381,6.80952381 Z M27.6666667,6.80952381 L28.047619,6.80952381 L28.047619,10.6666667 L27.6666667,10.6666667 L27.6666667,6.80952381 L27.6666667,6.80952381 Z M29.1428571,11.7619048 L33.8095238,11.7619048 L33.8095238,16.4285714 L29.1428571,16.4285714 L29.1428571,11.7619048 L29.1428571,11.7619048 Z M29.5238095,12.1428571 L29.9047619,12.1428571 L29.9047619,16 L29.5238095,16 L29.5238095,12.1428571 L29.5238095,12.1428571 Z M30.2380952,12.1428571 L30.6190476,12.1428571 L30.6190476,16 L30.2380952,16 L30.2380952,12.1428571 L30.2380952,12.1428571 Z M30.9047619,12.1428571 L31.2857143,12.1428571 L31.2857143,16 L30.9047619,16 L30.9047619,12.1428571 L30.9047619,12.1428571 Z M31.6190476,12.1428571 L32,12.1428571 L32,16 L31.6190476,16 L31.6190476,12.1428571 L31.6190476,12.1428571 Z M32.3333333,12.1428571 L32.7142857,12.1428571 L32.7142857,16 L32.3333333,16 L32.3333333,12.1428571 L32.3333333,12.1428571 Z M33.047619,12.1428571 L33.4285714,12.1428571 L33.4285714,16 L33.047619,16 L33.047619,12.1428571 L33.047619,12.1428571 Z" id="Shape" fill="#23C2EE"></path>
                <path d="M29.1428571,6.42857143 L33.8095238,6.42857143 L33.8095238,11.0952381 L29.1428571,11.0952381 L29.1428571,6.42857143 L29.1428571,6.42857143 Z M29.5238095,6.80952381 L29.9047619,6.80952381 L29.9047619,10.6666667 L29.5238095,10.6666667 L29.5238095,6.80952381 L29.5238095,6.80952381 Z M30.2380952,6.80952381 L30.6190476,6.80952381 L30.6190476,10.6666667 L30.2380952,10.6666667 L30.2380952,6.80952381 L30.2380952,6.80952381 Z M30.9047619,6.80952381 L31.2857143,6.80952381 L31.2857143,10.6666667 L30.9047619,10.6666667 L30.9047619,6.80952381 L30.9047619,6.80952381 Z M31.6190476,6.80952381 L32,6.80952381 L32,10.6666667 L31.6190476,10.6666667 L31.6190476,6.80952381 L31.6190476,6.80952381 Z M32.3333333,6.80952381 L32.7142857,6.80952381 L32.7142857,10.6666667 L32.3333333,10.6666667 L32.3333333,6.80952381 L32.3333333,6.80952381 Z M33.047619,6.80952381 L33.4285714,6.80952381 L33.4285714,10.6666667 L33.047619,10.6666667 L33.047619,6.80952381 L33.047619,6.80952381 Z" id="Shape" fill="#00ACD3"></path>
                <path d="M29.1428571,1.04761905 L33.8095238,1.04761905 L33.8095238,5.71428571 L29.1428571,5.71428571 L29.1428571,1.04761905 L29.1428571,1.04761905 Z M29.5238095,1.42857143 L29.9047619,1.42857143 L29.9047619,5.28571429 L29.5238095,5.28571429 L29.5238095,1.42857143 L29.5238095,1.42857143 Z M30.2380952,1.42857143 L30.6190476,1.42857143 L30.6190476,5.28571429 L30.2380952,5.28571429 L30.2380952,1.42857143 L30.2380952,1.42857143 Z M30.9047619,1.42857143 L31.2857143,1.42857143 L31.2857143,5.28571429 L30.9047619,5.28571429 L30.9047619,1.42857143 L30.9047619,1.42857143 Z M31.6190476,1.42857143 L32,1.42857143 L32,5.28571429 L31.6190476,5.28571429 L31.6190476,1.42857143 L31.6190476,1.42857143 Z M32.3333333,1.42857143 L32.7142857,1.42857143 L32.7142857,5.28571429 L32.3333333,5.28571429 L32.3333333,1.42857143 L32.3333333,1.42857143 Z M33.047619,1.42857143 L33.4285714,1.42857143 L33.4285714,5.28571429 L33.047619,5.28571429 L33.047619,1.42857143 L33.047619,1.42857143 Z" id="Shape" fill="#23C2EE"></path>
                <path d="M34.5238095,11.7619048 L39.1904762,11.7619048 L39.1904762,16.4285714 L34.5238095,16.4285714 L34.5238095,11.7619048 L34.5238095,11.7619048 Z M34.9047619,12.1428571 L35.2857143,12.1428571 L35.2857143,16 L34.9047619,16 L34.9047619,12.1428571 L34.9047619,12.1428571 Z M35.5714286,12.1428571 L35.952381,12.1428571 L35.952381,16 L35.5714286,16 L35.5714286,12.1428571 L35.5714286,12.1428571 Z M36.2857143,12.1428571 L36.6666667,12.1428571 L36.6666667,16 L36.2857143,16 L36.2857143,12.1428571 L36.2857143,12.1428571 Z M37,12.1428571 L37.3809524,12.1428571 L37.3809524,16 L37,16 L37,12.1428571 L37,12.1428571 Z M37.7142857,12.1428571 L38.0952381,12.1428571 L38.0952381,16 L37.7142857,16 L37.7142857,12.1428571 L37.7142857,12.1428571 Z M38.4285714,12.1428571 L38.8095238,12.1428571 L38.8095238,16 L38.4285714,16 L38.4285714,12.1428571 L38.4285714,12.1428571 Z" id="Shape" fill="#00ACD3"></path>
                <path d="M22.7619048,23.952381 C23.4761905,23.952381 24.047619,24.5238095 24.047619,25.2380952 C24.047619,25.952381 23.4761905,26.5238095 22.7619048,26.5238095 C22.047619,26.5238095 21.4761905,25.952381 21.4761905,25.2380952 C21.4761905,24.5238095 22.047619,23.952381 22.7619048,23.952381" id="Shape" fill="#D4EEF1"></path>
                <path d="M22.7619048,24.3333333 C22.8571429,24.3333333 23,24.3333333 23.0952381,24.3809524 C23,24.4285714 22.9047619,24.5714286 22.9047619,24.7142857 C22.9047619,24.9047619 23.0952381,25.0952381 23.2857143,25.0952381 C23.4285714,25.0952381 23.5714286,25 23.6190476,24.9047619 C23.6666667,25 23.6666667,25.1428571 23.6666667,25.2380952 C23.6666667,25.7619048 23.2380952,26.1428571 22.7619048,26.1428571 C22.2380952,26.1428571 21.8571429,25.7142857 21.8571429,25.2380952 C21.8571429,24.7619048 22.2380952,24.3333333 22.7619048,24.3333333 M0.0476190476,21.3333333 L59.7619048,21.3333333 C58.4761905,21 55.6666667,20.5714286 56.0952381,18.8571429 C53.7142857,21.5714286 48.047619,20.7619048 46.5714286,19.4285714 C44.952381,21.7619048 35.6190476,20.8571429 35,19.047619 C33,21.4285714 26.7619048,21.4285714 24.7619048,19.047619 C24.0952381,20.8571429 14.7619048,21.7619048 13.1904762,19.4285714 C11.7619048,20.7619048 6.04761905,21.5714286 3.66666667,18.8571429 C4.19047619,20.5238095 1.33333333,21 0.0476190476,21.3333333" id="Shape" fill="#3A4D54"></path>
                <path d="M26.1904762,33.2380952 C23,31.7142857 21.2857143,29.6666667 20.2857143,27.4285714 C19.0952381,27.7619048 17.6666667,28 16.047619,28.0952381 C15.4285714,28.1428571 14.7619048,28.1428571 14.0952381,28.1428571 C13.2857143,28.1428571 12.4761905,28.1428571 11.6190476,28.0952381 C14.4761905,30.952381 18.0952381,33.1904762 24.7142857,33.2380952 L26.1904762,33.2380952 L26.1904762,33.2380952 Z" id="Shape" fill="#BFDBE0"></path>
                <path d="M21.4761905,29.4761905 C21.047619,28.8571429 20.6190476,28.1428571 20.2857143,27.4285714 C19.0952381,27.7619048 17.6666667,28 16.047619,28.0952381 C17.1428571,28.6666667 18.7619048,29.2380952 21.4761905,29.4761905 L21.4761905,29.4761905 Z" id="Shape" fill="#D4EEF1"></path>
            </g>
        </g>
    </g>
</svg>