<?xml version="1.0" encoding="UTF-8" standalone="no"?>
<svg width="64px" height="64px" viewBox="0 0 64 64" version="1.1" xmlns="http://www.w3.org/2000/svg" xmlns:xlink="http://www.w3.org/1999/xlink">
    <defs>
        <path id="path-1" d="M0.349349112,2.33117647 L0.426035503,2.88105882 L0.399053254,2.964 C1.6739645,3.73729412 3.96426036,6.16835294 5.59491124,5.49635294 L5.59491124,5.49635294 C5.95171598,5.55176471 6.30319527,5.484 6.62698225,5.33223529 L6.62698225,5.33223529 C7.0487574,5.37811765 7.47266272,5.23447059 7.79680473,4.96447059 L7.79680473,4.96447059 C8.18982249,4.99129412 8.57715976,4.90058824 8.93218935,4.73541176 L8.93218935,4.73541176 C9.07668639,4.74458824 9.21940828,4.71529412 9.34828402,4.65 L9.34828402,4.65 L9.41928994,4.58188235 L9.45337278,4.58682353 C9.55704142,4.57764706 9.65325444,4.54658824 9.74201183,4.49364706 L9.74201183,4.49364706 L9.81727811,4.36023529 L9.84781065,4.16717647 L9.96035503,4.16717647 L10.1055621,4.02176471 L10.1385799,3.81952941 L10.1737278,3.82870588 L10.1904142,3.46094118 L10.0519527,3.24705882 L9.94579882,3.20894118 L9.95857988,2.99505882 L9.90177515,2.82423529 L9.79633136,2.70035294 C9.73455621,2.66435294 9.66568047,2.63505882 9.59751479,2.61635294 L9.59751479,2.61635294 C9.46047337,2.42364706 9.25384615,2.30047059 9.01526627,2.26482353 L9.01526627,2.26482353 C8.70887574,1.99694118 8.33147929,1.812 7.92994083,1.73788235 L7.92994083,1.73788235 C7.6512426,1.38705882 7.27278107,1.10752941 6.82331361,1.03623529 L6.82331361,1.03623529 C6.57905325,0.830117647 6.28011834,0.697764706 5.96023669,0.668823529 L5.96023669,0.668823529 C5.64213018,0.427411765 5.27893491,0.327882353 4.88982249,0.327882353 L4.88982249,0.327882353 C3.37775148,0.327882353 1.47869822,1.82894118 0.349349112,2.33117647"></path>
        <linearGradient x1="59.6984165%" y1="16.0623241%" x2="50%" y2="100%" id="linearGradient-3">
            <stop stop-color="#F9E47E" offset="0%"></stop>
            <stop stop-color="#F5CE7B" offset="34.1433009%"></stop>
            <stop stop-color="#F7D67C" offset="55.8228205%"></stop>
            <stop stop-color="#F8E07D" offset="100%"></stop>
        </linearGradient>
        <linearGradient x1="54.351666%" y1="19.7752972%" x2="48.3655111%" y2="104.174143%" id="linearGradient-4">
            <stop stop-color="#F15A5E" offset="0%"></stop>
            <stop stop-color="#DF1B56" offset="22.1049793%"></stop>
            <stop stop-color="#A62774" offset="41.2690994%"></stop>
            <stop stop-color="#693594" offset="52.0467109%"></stop>
            <stop stop-color="#CF2062" offset="77.5883827%"></stop>
            <stop stop-color="#F5966C" offset="100%"></stop>
        </linearGradient>
    </defs>
    <g id="Brands" stroke="none" stroke-width="1" fill="none" fill-rule="evenodd">
        <g id="icons/skills/id-111">
            <path d="M58.8572426,38.8727176 L58.8462367,38.8617765 L58.8760592,38.8850706 L58.8572426,38.8727176 Z M31.9349941,34.7708353 C31.9314438,34.7701294 31.9282485,34.7694235 31.9246982,34.7687176 L31.9481302,34.7708353 L31.9981893,34.7831882 C31.9775976,34.7789529 31.9552308,34.7747176 31.9349941,34.7708353 L31.9349941,34.7708353 Z M32.2506154,34.8326 C32.2736923,34.8347176 32.2960592,34.8389529 32.318071,34.8449529 C32.2957041,34.8407176 32.2726272,34.8364824 32.2506154,34.8326 L32.2506154,34.8326 Z M11.5957041,29.1089529 L11.6379527,28.1775412 C11.7007929,28.5509529 11.7572426,28.9250706 11.8442249,29.2935412 C11.7639882,29.2624824 11.6837515,29.2310706 11.6035148,29.1993059 L11.5957041,29.1742471 L11.618071,29.1590706 L11.5957041,29.1089529 Z M11.2151124,30.6943647 L11.2122722,30.6961294 L11.3450533,30.4201294 C11.4011479,30.4409529 11.4558225,30.4610706 11.5108521,30.4815412 L11.3794911,30.5994235 L11.2151124,30.6943647 Z M10.9992544,30.3001294 L10.9960592,30.2888353 C11.066,30.3153059 11.1352308,30.3414235 11.2037515,30.3671882 C10.9609112,30.5006 10.7138107,30.6266 10.4670651,30.7533059 L10.8561775,30.3654235 L10.9992544,30.3001294 Z M17.5655266,35.7435412 C17.5637515,35.7368353 17.5630414,35.7301294 17.5626864,35.7234235 L17.5655266,35.7435412 Z M61.741858,38.1174235 L61.6357041,38.0793059 L61.6484852,37.8654235 L61.5916805,37.6942471 L61.4865917,37.5707176 L13.0900237,26.4318941 C12.614284,27.4310706 12.6568876,28.5618941 12.7438698,29.6387176 C12.4861183,29.5406 12.2290769,29.4442471 11.9706154,29.3429529 C12.0874201,28.3518941 12.2638698,27.2468353 11.9194911,26.2818941 C12.0167692,25.9321294 12.1392544,25.5954235 12.2819763,25.2622471 L12.2095503,25.2117765 C12.0153491,25.3857765 11.2534556,26.2988353 11.2158225,26.3736588 C11.006355,25.7118941 10.9602012,24.9643647 11.1686036,24.2976588 L11.089432,24.2588353 C11.089432,24.2588353 10.6591361,24.9544824 10.5788994,25.1683647 C10.4333373,25.7298941 10.4688402,26.2974235 10.609787,26.8557765 C10.1088402,26.3041294 9.86138462,25.6356588 9.84505325,24.8927176 L9.53049704,25.1856588 L9.37428402,25.4535412 L9.30114793,25.7436588 L9.2876568,26.0383647 L9.34410651,26.3288353 C9.42895858,26.5893059 9.54576331,26.8384824 9.69026036,27.0710706 C9.54256805,27.0396588 9.39310059,27.0202471 9.24185799,27.0124824 L8.77747929,28.0300118 C8.77747929,28.0300118 4.34102959,26.0468353 2.14339645,25.0113059 L2.22256805,25.1394235 C3.07676923,26.5303647 5.06528994,27.3654235 6.41404734,28.1958941 C7.76635503,29.0291882 9.26990533,29.6238941 10.7532189,30.1956588 C9.73712426,30.4554235 8.59463905,30.4201294 7.57570414,30.2041294 L7.54126627,30.2849529 C7.81463905,30.4984824 8.12564497,30.6629529 8.46398817,30.7462471 C7.67901775,30.9915412 6.94375148,31.4514235 6.60150296,32.2236588 L6.50635503,32.5473059 L6.5851716,32.5875412 C7.10884024,31.9046 8.00777515,31.4927176 8.84990533,31.3836588 L8.96848521,31.3363647 C8.34895858,31.7457765 7.70919527,32.1400118 7.06091124,32.5024824 C7.47736095,32.5466 7.90055621,32.5215412 8.28824852,32.3549529 C8.28824852,32.3549529 8.24422485,32.4802471 8.15369231,32.5695412 C7.91937278,33.2895412 8.20446154,33.8722471 8.20446154,33.8722471 C8.56659172,33.0841294 9.04801183,32.5924824 9.78824852,32.1520118 C9.5947574,32.7894235 9.70907692,33.4868353 9.90611834,34.1104824 L9.99416568,34.1083647 C10.2441065,32.7724824 10.9019763,31.6547176 11.6283669,30.5246 C11.8360592,30.6004824 12.0331006,30.6714235 12.2209112,30.7370706 C11.7299053,31.5371882 11.234284,32.4798941 11.3333373,33.4455412 L11.401503,33.7423647 L11.5559408,34.0250706 L11.7938107,34.2767176 L12.1388994,34.4771882 L12.5258817,34.6010706 L12.6480118,34.8664824 C12.7484852,35.0140118 12.8652899,35.1477765 12.998071,35.2677765 C13.166355,35.3990706 13.3562959,35.4975412 13.5607929,35.5593059 C13.7173609,35.5907176 13.8767692,35.6044824 14.0365325,35.5998941 L14.0624497,35.6496588 L14.2655266,35.9196588 L14.533574,36.1307176 L14.8442249,36.2450706 L15.205645,36.2620118 L15.5954675,36.1547176 L15.6852899,36.2747176 L15.9636331,36.5376588 L16.2561775,36.7303647 L16.5682485,36.8648353 L16.9435148,36.9227176 L17.2385444,36.9001294 L17.5353491,37.1076588 C17.7611479,37.2131882 17.9965325,37.2890706 18.241858,37.3342471 L18.5404379,37.5527176 L18.9291953,37.7306 L19.3999645,37.8393059 L19.9388994,37.8654235 C20.1611479,38.0676588 20.4196095,38.2374235 20.6926272,38.3630706 L21.0462367,38.4848353 C21.1744024,38.4947176 21.302568,38.5042471 21.4310888,38.5137765 L21.8510888,38.4368353 C22.0002012,38.5353059 22.1599645,38.6147176 22.3289586,38.6743647 L22.622568,38.7424824 L22.9165325,38.7555412 L23.2197278,38.7103647 L23.3617396,38.8028353 L23.8307337,38.9574235 C24.2077751,39.0223647 24.6011479,39.0213059 24.9806746,38.9828353 L25.1525089,39.0894235 L25.5828047,39.2390706 L26.0670651,39.3075412 L26.7281302,39.2740118 L27.1736923,39.4416588 L27.6448166,39.5090706 L28.1723905,39.4808353 L28.3736923,39.6135412 L28.8327456,39.7914235 C28.9978343,39.8140118 29.1632781,39.8369529 29.3287219,39.8595412 L29.8633964,39.7907176 L29.8662367,39.7593059 L30.1722722,39.8316588 L30.6164142,39.8298941 L31.1390178,39.7141294 C31.6573609,39.9195412 32.1817396,39.9897765 32.738426,39.9643647 C33.4002012,40.2389529 34.1439882,40.3109529 34.8522722,40.2195412 L34.8575976,40.1828353 C35.2488402,40.2883647 35.6503787,40.3448353 36.0558225,40.3533059 L36.0682485,40.3056588 C36.7690769,40.5283647 37.5078935,40.5343647 38.2360592,40.4877765 L38.2388994,40.4704824 C38.6731006,40.6151882 39.134284,40.6783647 39.5915621,40.6776588 C39.733574,40.7598941 39.8812663,40.8357765 40.0310888,40.9042471 L40.4230414,40.9998941 L40.790142,40.9991882 L41.1678935,40.9035412 L41.5246982,40.6737765 L41.9553491,40.7958941 C42.3157041,40.8456588 42.6842249,40.8654235 43.0477751,40.8491882 L43.0509704,40.8361294 L43.2164142,40.9021294 L43.7308521,40.9840118 L44.2449349,40.9395412 L44.7845799,40.7560118 C45.2844615,40.8304824 45.8042249,40.8251882 46.2994911,40.7193059 C46.7429231,40.8149529 47.1902604,40.7595412 47.6351124,40.7002471 L47.894284,40.8036588 L48.1878935,40.8463647 L48.4800828,40.7902471 L48.7531006,40.6483647 L48.8106154,40.6804824 C49.0477751,40.7740118 49.2923905,40.8375412 49.5451716,40.8710706 L49.9360592,40.8703647 L50.3393728,40.7856588 C50.6397278,40.6684824 50.9283669,40.5089529 51.1875385,40.3183647 C51.5848166,40.3600118 51.9817396,40.3211882 52.3758225,40.2636588 C52.6921538,40.3734235 53.0219763,40.4207176 53.3553491,40.4482471 C53.6162959,40.4355412 53.8744024,40.4009529 54.1293136,40.3444824 C54.4243432,40.4881294 54.7424497,40.5897765 55.0655266,40.6497765 L55.4187811,40.6490706 L55.7191361,40.5530706 L55.9513254,40.3286 C56.1558225,40.4147176 56.3709704,40.4718941 56.5914438,40.4994235 C56.7512071,40.4962471 56.9091953,40.4775412 57.0650533,40.4433059 L57.2855266,40.3663647 L57.6291953,40.3900118 L57.9785444,40.3338941 L58.3168876,40.2022471 L58.3850533,40.2156588 C58.5749941,40.2146 58.7620947,40.1902471 58.946,40.1433059 L59.2239882,40.0173059 L59.486355,39.8344824 C59.8797278,39.8613059 60.2667101,39.7709529 60.6220947,39.6054235 L60.7562959,39.6047176 L60.9149941,39.5740118 L61.0381893,39.5203647 L61.1113254,39.4526 L61.1429231,39.4571882 L61.2994911,39.4289529 L61.4322722,39.3636588 L61.5071834,39.2302471 L61.5387811,39.0375412 L61.6502604,39.0375412 L61.7954675,38.8921294 L61.8284852,38.6891882 L61.8636331,38.6987176 L61.8806746,38.3309529 L61.741858,38.1174235 Z" id="Fill-1" fill="#E1E1E1"></path>
            <g id="Group-5" transform="translate(51.704142, 33.588235)">
                <mask id="mask-2" fill="white">
                    <use xlink:href="#path-1"></use>
                </mask>
                <g id="Clip-4"></g>
                <path d="M0.349349112,2.33117647 L0.426035503,2.88105882 L0.399053254,2.964 C1.6739645,3.73729412 3.96426036,6.16835294 5.59491124,5.49635294 L5.59491124,5.49635294 C5.95171598,5.55176471 6.30319527,5.484 6.62698225,5.33223529 L6.62698225,5.33223529 C7.0487574,5.37811765 7.47266272,5.23447059 7.79680473,4.96447059 L7.79680473,4.96447059 C8.18982249,4.99129412 8.57715976,4.90058824 8.93218935,4.73541176 L8.93218935,4.73541176 C9.07668639,4.74458824 9.21940828,4.71529412 9.34828402,4.65 L9.34828402,4.65 L9.41928994,4.58188235 L9.45337278,4.58682353 C9.55704142,4.57764706 9.65325444,4.54658824 9.74201183,4.49364706 L9.74201183,4.49364706 L9.81727811,4.36023529 L9.84781065,4.16717647 L9.96035503,4.16717647 L10.1055621,4.02176471 L10.1385799,3.81952941 L10.1737278,3.82870588 L10.1904142,3.46094118 L10.0519527,3.24705882 L9.94579882,3.20894118 L9.95857988,2.99505882 L9.90177515,2.82423529 L9.79633136,2.70035294 C9.73455621,2.66435294 9.66568047,2.63505882 9.59751479,2.61635294 L9.59751479,2.61635294 C9.46047337,2.42364706 9.25384615,2.30047059 9.01526627,2.26482353 L9.01526627,2.26482353 C8.70887574,1.99694118 8.33147929,1.812 7.92994083,1.73788235 L7.92994083,1.73788235 C7.6512426,1.38705882 7.27278107,1.10752941 6.82331361,1.03623529 L6.82331361,1.03623529 C6.57905325,0.830117647 6.28011834,0.697764706 5.96023669,0.668823529 L5.96023669,0.668823529 C5.64213018,0.427411765 5.27893491,0.327882353 4.88982249,0.327882353 L4.88982249,0.327882353 C3.37775148,0.327882353 1.47869822,1.82894118 0.349349112,2.33117647" id="Fill-3" mask="url(#mask-2)"></path>
            </g>
            <path d="M61.7562722,36.8351882 L61.6497633,36.7974235 L61.6625444,36.5835412 L61.6057396,36.4123647 L61.5006509,36.2888353 C61.4388757,36.2528353 61.369645,36.2231882 61.3018343,36.2044824 C61.1644379,36.0117765 60.9581657,35.8886 60.7192308,35.8533059 C60.4131953,35.5850706 60.0354438,35.4004824 59.6339053,35.3260118 C59.3555621,34.9751882 58.9771006,34.6956588 58.5276331,34.6247176 C58.2830178,34.4186 57.9844379,34.2858941 57.6642012,34.2569529 C56.1102367,33.0774235 53.473432,35.2878941 52.0533136,35.9196588 L52.13,36.4691882 L52.1033728,36.5521294 C53.378284,37.3254235 55.6682249,39.7564824 57.2992308,39.0844824 C57.6556805,39.1398941 58.0071598,39.0721294 58.3313018,38.9203647 C58.7527219,38.9666 59.1769822,38.8229529 59.5011243,38.5522471 C59.894142,38.5794235 60.2811243,38.4890706 60.6361538,38.3235412 C60.7810059,38.3327176 60.9233728,38.3034235 61.0526036,38.2384824 L61.1236095,38.1700118 L61.1573373,38.1749529 C61.2610059,38.1661294 61.357574,38.1350706 61.4463314,38.0817765 L61.5215976,37.9483647 L61.5521302,37.7553059 L61.6646746,37.7553059 L61.8095266,37.6102471 L61.8425444,37.4076588 L61.8780473,37.4168353 L61.8947337,37.0490706 L61.7562722,36.8351882 L61.7562722,36.8351882 Z" id="Stroke-6" stroke="#231F1F" stroke-width="0.400000006" fill="url(#linearGradient-3)"></path>
            <g id="Group" transform="translate(6.260355, 23.000000)" stroke="#231F1F" stroke-width="0.200000018" fill="#9BB5C4">
                <path d="M5.11207101,2.57085882 L5.11207101,2.57085882 C4.73964497,1.76297647 4.64627219,0.863329412 4.8791716,0.00391764706 C3.65680473,1.49156471 4.62745562,3.40168235 5.33076923,4.89532941 L5.30449704,4.84168235 C5.28426036,4.08109412 5.24236686,3.3198 5.11207101,2.57085882 L5.11207101,2.57085882 Z" id="Stroke-11"></path>
                <path d="M0.969195266,8.18347059 L0.969195266,8.18347059 C2.22635503,7.44688235 3.42351479,6.61464706 4.70694675,5.92394118 C3.73168047,6.96017647 2.49404734,8.24205882 0.969195266,8.18347059 L0.969195266,8.18347059 Z" id="Stroke-16"></path>
                <path d="M2.9915858,2.77492941 L2.9915858,2.77492941 C3.94910059,3.33116471 4.70744379,4.13657647 5.34543195,5.03057647 C5.07489941,3.85034118 4.27040237,2.84163529 2.9915858,2.77492941 L2.9915858,2.77492941 Z" id="Stroke-21"></path>
                <path d="M5.01631953,1.15154118 L5.01631953,1.15154118 C5.27087574,2.47577647 5.39052071,3.81907059 5.67205917,5.13871765 C5.86661538,3.81730588 6.09986982,2.13483529 5.01631953,1.15154118 L5.01631953,1.15154118 Z" id="Stroke-26"></path>
                <path d="M3.56087574,0.707611765 L3.56087574,0.707611765 L3.31519527,0.936317647 L3.16750296,1.19361176 L3.10004734,1.46361176 L3.08584615,1.74772941 C3.37732544,2.97137647 4.31744379,3.89961176 5.1684497,4.78690588 C5.1876213,3.14961176 3.60951479,2.3022 3.56087574,0.707611765 L3.56087574,0.707611765 Z" id="Stroke-31"></path>
                <path d="M5.30446154,5.03043529 L5.30446154,5.03043529 C5.30410651,3.64902353 5.42801183,2.23690588 5.99463905,0.962082353 C4.56422485,2.08302353 4.52694675,3.50749412 5.30446154,5.03043529 L5.30446154,5.03043529 Z" id="Stroke-36"></path>
                <path d="M1.32110059,5.96622353 L1.32110059,5.96622353 C2.44654438,6.19810588 3.6035858,6.15222353 4.73435503,5.97751765 C3.65613018,6.54998824 2.34323077,6.74445882 1.32110059,5.96622353 L1.32110059,5.96622353 Z" id="Stroke-41"></path>
                <path d="M2.58699408,7.0602 C1.69942012,7.18161176 0.882497041,7.59667059 0.303443787,8.27784706 L0.398946746,7.9542 C1.17930178,6.44043529 3.14332544,6.20149412 4.66604734,5.92337647 C3.99220118,6.32184706 3.29705325,6.72278824 2.58699408,7.0602 L2.58699408,7.0602 Z" id="Stroke-46"></path>
                <path d="M1.9632426,9.48010588 L1.9632426,9.48010588 L1.8407574,9.16916471 L1.79921893,8.87128235 L1.84040237,8.57445882 C2.43507692,7.27987059 3.88004734,6.68410588 5.08785799,6.05763529 C4.45874556,7.64516471 2.62892308,7.94198824 1.9632426,9.48010588 L1.9632426,9.48010588 Z" id="Stroke-51"></path>
                <path d="M5.38732544,6.15197647 L5.38732544,6.15197647 C4.61620118,7.26444706 3.95016568,8.4768 3.70377515,9.81727059 C3.15276923,8.35503529 3.68744379,6.97362353 5.15620118,6.35597647 C5.23253254,6.28715294 5.30957396,6.21903529 5.38732544,6.15197647 L5.38732544,6.15197647 Z" id="Stroke-56"></path>
            </g>
            <path d="M55.4846391,38.6912353 C54.3634556,38.0513529 53.3750533,37.2060588 52.2638107,36.5481765 L52.1778935,35.9880588 C53.5081893,35.3559412 54.751503,34.5325294 56.1503195,34.0479412 L55.9291361,33.7038235 L55.6291361,33.5139412 L55.2517396,33.4412353 L54.8349349,33.4419412 C54.619432,33.4786471 54.4064142,33.5294706 54.1976568,33.5937059 C53.9551716,33.4871176 53.7048757,33.3992353 53.4481893,33.3335882 C53.0267692,33.2767647 52.604284,33.2785294 52.1857041,33.3522941 C51.6655858,33.149 51.1454675,33.0057059 50.5855858,32.9771176 C50.3516213,32.7265294 50.0832189,32.4960588 49.7920947,32.3135882 L49.4036923,32.1219412 L49.0120947,32.0121765 L48.6229822,31.9994706 L48.3595503,32.0382941 L48.1152899,31.8342941 L47.815645,31.7185294 L47.4844024,31.6892353 L47.2209704,31.7464118 C46.8599053,31.6013529 46.4786036,31.5124118 46.0916213,31.4764118 C45.7490178,31.3239412 45.3822722,31.2145294 45.0155266,31.1368824 C44.803574,31.1107647 44.588426,31.0991176 44.3750533,31.1022941 L43.8247574,30.7917059 L43.2716213,30.665 L42.7458225,30.6660588 L42.5274793,30.7112353 L42.7568284,30.635 C42.2533964,30.5167647 41.7595503,30.3868824 41.2383669,30.4228824 L40.9248757,30.1122941 L40.5474793,29.9026471 L40.147716,29.8154706 L39.7387219,29.8447647 L39.4351716,29.9255882 C39.0123314,29.8299412 38.5724497,29.8288824 38.1425089,29.8677059 L38.1421538,29.7914706 C37.4370651,29.6100588 36.7078343,29.4660588 35.9775385,29.5327647 L35.9764734,29.5084118 C35.6512663,29.4533529 35.3217988,29.4145294 34.9919763,29.4028824 C34.4008521,29.1208824 33.7475976,28.9641765 33.0904379,28.9733529 C32.7993136,28.8462941 32.492213,28.7467647 32.179432,28.6867647 C32.0065325,28.6655882 31.831503,28.6588824 31.6578935,28.6673529 L31.1175385,28.3115882 L30.6833373,28.1495882 L30.3361183,28.1142941 L29.9441657,27.9064118 L29.4481893,27.7832353 C29.2791953,27.7871176 29.1102012,27.7924118 28.9415621,27.7987647 L28.4207337,27.5552353 L27.9464142,27.4454706 L27.6822722,27.4461765 L27.1298462,27.1514706 L26.6448757,27.0148824 L26.1861775,26.9887647 L25.9358817,27.0282941 L26.0338698,26.9813529 C25.6568284,26.7808824 25.303574,26.5800588 24.8892544,26.4642941 L24.404284,26.4219412 L24.2022722,26.4547647 L24.319787,26.4102941 L23.9945799,26.1967647 C23.8120947,26.105 23.6214438,26.0361765 23.4226272,25.9902941 L23.1027456,25.9634706 L22.7810888,25.9906471 L22.4157633,25.7238235 L22.0617988,25.5755882 L21.6631006,25.5180588 L21.2754083,25.5332353 L20.8593136,25.6161765 L20.7623905,25.6546471 L20.276,25.4400588 L19.8038107,25.3172353 L19.3859408,25.3045294 L19.3660592,25.3084118 L18.9748166,25.0504118 L18.6378935,24.9265294 L18.2871243,24.8859412 L17.9526864,24.9282941 L17.6047574,25.0401765 L17.563929,25.0620588 L17.2412071,24.7447647 L16.9422722,24.5686471 L16.6064142,24.5079412 L16.2858225,24.563 L15.9993136,24.7045294 C15.847716,24.5806471 15.6741065,24.4874706 15.4866509,24.4292353 L15.331858,24.4006471 L15.1369467,24.4172353 L14.9743432,24.4712353 L14.7662959,24.6042941 L14.6917396,24.6784118 C14.5433373,24.6402941 14.3949349,24.6021765 14.2461775,24.5644118 L13.8723314,24.5781765 L13.5595503,24.6893529 L13.3074793,24.893 L13.1040473,25.1499412 C12.6293728,26.147 12.6694911,27.2760588 12.7582485,28.3507647 C12.2068876,29.4964118 11.2014438,30.8337059 11.3473609,32.1632353 L11.4158817,32.4604118 L11.5699645,32.7427647 L11.8081893,32.9944118 L12.1532781,33.1952353 L12.5399053,33.3191176 L12.6620355,33.5845294 C12.7628639,33.7320588 12.8796686,33.8658235 13.0120947,33.9858235 C13.1803787,34.1171176 13.3706746,34.2155882 13.5748166,34.2773529 C13.7313846,34.3087647 13.8907929,34.3221765 14.0505562,34.3179412 L14.0768284,34.3677059 L14.2799053,34.6377059 L14.5475976,34.8487647 L14.8586036,34.9631176 L15.2196686,34.9800588 L15.6098462,34.8727647 L15.6996686,34.9927647 L15.9776568,35.2557059 L16.2705562,35.4484118 L16.5826272,35.5825294 L16.9578935,35.6404118 L17.2529231,35.6178235 L17.5497278,35.8253529 C17.7751716,35.9312353 18.0109112,36.0071176 18.2562367,36.0522941 L18.5544615,36.2704118 L18.9432189,36.4486471 L19.4139882,36.5577059 L19.9532781,36.5834706 C20.1751716,36.7857059 20.4336331,36.9558235 20.7070059,37.0811176 L21.0602604,37.2032353 C21.188426,37.2124118 21.3169467,37.2219412 21.4451124,37.2318235 L21.8647574,37.1545294 C22.0142249,37.2533529 22.1739882,37.3327647 22.3433373,37.3920588 L22.6369467,37.4605294 L22.9305562,37.4735882 L23.2341065,37.4284118 L23.3761183,37.5208824 L23.8451124,37.6754706 C24.2217988,37.7404118 24.6151716,37.7393529 24.9946982,37.7008824 L25.1668876,37.8074706 L25.5968284,37.9571176 L26.0814438,38.0255882 L26.7417988,37.9920588 L27.188071,38.1597059 L27.6591953,38.2271176 L28.1867692,38.1988824 L28.388071,38.3315882 L28.8467692,38.5094706 C29.012213,38.5324118 29.1773018,38.555 29.3427456,38.5775882 L29.8777751,38.5087647 L29.8802604,38.4777059 L30.1866509,38.5493529 L30.6304379,38.5479412 L31.1537515,38.4321765 C31.6717396,38.6379412 32.1961183,38.7078235 32.7528047,38.6827647 C33.4145799,38.9566471 34.1583669,39.0293529 34.8662959,38.9372353 L34.8719763,38.9008824 C35.2632189,39.0060588 35.6647574,39.0625294 36.0698462,39.0717059 L36.0826272,39.0237059 C36.7827456,39.2467647 37.5226272,39.2527647 38.2500828,39.2058235 L38.2529231,39.1881765 C38.6871243,39.3328824 39.1483077,39.3964118 39.6059408,39.3960588 C39.7479527,39.4779412 39.8952899,39.5538235 40.0454675,39.6219412 L40.4374201,39.7179412 L40.8045207,39.7175882 L41.1822722,39.6215882 L41.5387219,39.3918235 L41.9693728,39.5139412 C42.3297278,39.5633529 42.6982485,39.5831176 43.0617988,39.5672353 L43.0653491,39.5541765 L43.2307929,39.6205294 L43.7448757,39.7017059 L44.2589586,39.6579412 L44.7986036,39.4740588 C45.2984852,39.5488824 45.8182485,39.5428824 46.3135148,39.4377059 C46.7569467,39.5333529 47.2046391,39.4775882 47.6491361,39.4186471 L47.9083077,39.5220588 L48.2022722,39.5640588 L48.4944615,39.5082941 L48.7674793,39.3664118 L48.8246391,39.3981765 C49.0617988,39.4920588 49.3067692,39.5555882 49.5595503,39.5891176 L49.9500828,39.5884118 L50.3537515,39.5037059 C50.6537515,39.3865294 50.9423905,39.227 51.2019172,39.0364118 C51.5988402,39.0780588 51.9954083,39.0392353 52.3891361,38.9817059 C52.7058225,39.0914706 53.036,39.1391176 53.3693728,39.1666471 C53.6303195,39.1539412 53.888071,39.119 54.1429822,39.0625294 C54.4380118,39.2058235 54.7564734,39.3074706 55.0795503,39.3678235 L55.4331598,39.3674706 L55.7335148,39.2711176 L56.0107929,39.0018235 C55.8297278,38.9075882 55.6543432,38.8038235 55.4846391,38.6912353 L55.4846391,38.6912353 Z" id="Stroke-61" stroke="#000000" stroke-width="0.400000006" fill="url(#linearGradient-4)"></path>
            <path d="M46.3566864,35.2045647 C40.5618935,34.5710353 34.5697041,33.9163294 31.9701775,33.3855059 C18.464142,30.6678588 13.7532544,29.1353882 2.32059172,23.7392706 L2,23.5878588 L2.18497041,23.8889176 C2.68556213,24.7038588 4.04568047,25.5240941 5.2460355,26.2479765 C5.80449704,26.5846824 6.33207101,26.9030353 6.70059172,27.1815059 C8.50982249,28.1482118 11.2889941,29.2077412 12.715503,29.6838588 C18.1914793,31.5099765 24.6792899,33.5210353 31.279645,34.5939765 C36.08,35.3757412 44.5936095,36.0191529 51.4343195,36.5362118 C55.9747929,36.8796235 59.8957396,37.1757412 61.7947929,37.4358588 L61.8352663,37.2297412 C59.5013018,36.6413882 52.8189349,35.9108 46.3566864,35.2045647" id="Fill-63" fill="#231F1F"></path>
        </g>
    </g>
</svg>