<?xml version="1.0" encoding="UTF-8" standalone="no"?>
<svg width="64px" height="64px" viewBox="0 0 64 64" version="1.1" xmlns="http://www.w3.org/2000/svg" xmlns:xlink="http://www.w3.org/1999/xlink">
    <!-- Generator: Sketch 3.6.1 (26313) - http://www.bohemiancoding.com/sketch -->
    <title>icons/skills/id-134</title>
    <desc>Created with Sketch.</desc>
    <defs>
        <rect id="path-1" x="0" y="0" width="60" height="60" rx="4"></rect>
    </defs>
    <g id="Brands" stroke="none" stroke-width="1" fill="none" fill-rule="evenodd">
        <g id="icons/skills/id-134">
            <g id="Group-4" transform="translate(2.000000, 2.000000)">
                <g id="Group-2">
                    <mask id="mask-2" fill="white">
                        <use xlink:href="#path-1"></use>
                    </mask>
                    <use id="Mask" fill="#63822C" xlink:href="#path-1"></use>
                    <path d="M15.7692308,15 L33.2046787,15 L24.4869547,29.9880287 L15.7692308,15 Z" id="Path-1064" fill="#749043" opacity="0.4" mask="url(#mask-2)"></path>
                    <path d="M24.6153846,0 L42.0508326,0 L33.3331086,14.9880287 L24.6153846,0 Z" id="Path-1064" fill="#749043" mask="url(#mask-2)"></path>
                    <path d="M7.11538462,0 L24.5508326,0 L15.8331086,14.9880287 L7.11538462,0 Z" id="Path-1064" fill="#6C8937" mask="url(#mask-2)"></path>
                    <path d="M42.1153846,0 L59.5508326,0 L50.8331086,14.9880287 L42.1153846,0 Z" id="Path-1064" fill="#6C8937" mask="url(#mask-2)"></path>
                    <path d="M-0.192307692,0 L7.17924249,0 L-0.0595881855,12.4454276 L-0.192307692,0 Z" id="Path-1064" fill="#6C8937" mask="url(#mask-2)"></path>
                    <path d="M3.27096237e-09,30.1923077 L7.26059911,30.1923077 L-1.70257844e-16,42.6751608 L3.27096237e-09,30.1923077 Z" id="Path-1064" fill="#6C8937" mask="url(#mask-2)"></path>
                    <path d="M24.6153846,30 L42.0508326,30 L33.3331086,44.9880287 L24.6153846,30 Z" id="Path-1064" fill="#6C8937" mask="url(#mask-2)"></path>
                    <path d="M7.11538462,30.1923077 L24.5508326,30.1923077 L15.8331086,45.1803364 L7.11538462,30.1923077 Z" id="Path-1064" fill="#6C8937" mask="url(#mask-2)"></path>
                    <path d="M15.7692308,15 L33.2046787,15 L24.4869547,29.9880287 L15.7692308,15 Z" id="Path-1064" fill="#698632" mask="url(#mask-2)"></path>
                    <path d="M0,17.6062144 L0,15 L15.9019016,15.0204203 L7.18417765,30.0084491 L0,17.6062144 Z" id="Path-1064" fill="#749043" mask="url(#mask-2)"></path>
                    <path d="M42.1153846,30 L59.5508326,30 L50.8331086,44.9880287 L42.1153846,30 Z" id="Path-1064" fill="#749043" mask="url(#mask-2)"></path>
                    <path d="M50.7692308,45 L59.8746621,45 L59.8746621,59.3655227 L59.4869547,59.9880287 L50.7692308,45 Z" id="Path-1064" fill="#698632" mask="url(#mask-2)"></path>
                    <path d="M15.7692308,45 L33.2046787,45 L24.4869547,59.9880287 L15.7692308,45 Z" id="Path-1064" fill="#698632" mask="url(#mask-2)"></path>
                </g>
                <path d="M13.1386719,28.3144531 C12.4863249,27.9238262 11.8085973,27.7285156 11.1054688,27.7285156 C10.4257779,27.7285156 9.82129171,27.8837875 9.29199219,28.1943359 C8.76269267,28.5048844 8.35351707,28.9355441 8.06445312,29.4863281 C7.77538918,30.0371121 7.63085938,30.6581997 7.63085938,31.3496094 C7.63085938,32.1543009 7.85253685,32.7783181 8.29589844,33.2216797 C8.73926003,33.6650413 9.33983996,33.8867188 10.0976562,33.8867188 C10.4843769,33.8867188 10.8476546,33.8437504 11.1875,33.7578125 C11.5273454,33.6718746 11.8808575,33.5292979 12.2480469,33.3300781 L11.9375,34.7363281 C11.3085906,35.009767 10.5800823,35.1464844 9.75195312,35.1464844 C9.02148072,35.1464844 8.37988558,34.9951187 7.82714844,34.6923828 C7.2744113,34.3896469 6.85058741,33.9599637 6.55566406,33.4033203 C6.26074071,32.8466769 6.11328125,32.2050818 6.11328125,31.4785156 C6.11328125,30.5019482 6.32324009,29.6279335 6.74316406,28.8564453 C7.16308804,28.0849571 7.75585555,27.4921896 8.52148438,27.078125 C9.2871132,26.6640604 10.1738231,26.4570312 11.1816406,26.4570312 C11.9707071,26.4570312 12.7246058,26.6093735 13.4433594,26.9140625 L13.1386719,28.3144531 Z M18.5292969,35 L17.09375,35 C17.09375,34.9023433 17.1054686,34.7236341 17.1289062,34.4638672 C17.1523439,34.2041003 17.1757811,34.003907 17.1992188,33.8632812 L17.1757812,33.8632812 C16.9296863,34.222658 16.7177743,34.4833976 16.5400391,34.6455078 C16.3623038,34.807618 16.1699229,34.9316402 15.9628906,35.0175781 C15.7558583,35.1035161 15.5214857,35.1464844 15.2597656,35.1464844 C14.6894503,35.1464844 14.2460953,34.9453145 13.9296875,34.5429688 C13.6132797,34.140623 13.4550781,33.5839879 13.4550781,32.8730469 C13.4550781,32.1464807 13.6259749,31.4550814 13.9677734,30.7988281 C14.309572,30.1425748 14.7665987,29.6542985 15.3388672,29.3339844 C15.9111357,29.0136703 16.5781212,28.8535156 17.3398438,28.8535156 C17.9687531,28.8535156 18.7167925,28.9472647 19.5839844,29.1347656 L18.7578125,33.0488281 C18.6992185,33.3261733 18.6464846,33.6669902 18.5996094,34.0712891 C18.5527341,34.475588 18.5292969,34.7851552 18.5292969,35 L18.5292969,35 Z M17.9902344,30.0019531 C17.7480457,29.9433591 17.4804702,29.9140625 17.1875,29.9140625 C16.7421853,29.9140625 16.3496111,30.0302723 16.0097656,30.2626953 C15.6699202,30.4951183 15.3964854,30.8476539 15.1894531,31.3203125 C14.9824208,31.7929711 14.8789062,32.2871068 14.8789062,32.8027344 C14.8789062,33.1933613 14.9541008,33.4951161 15.1044922,33.7080078 C15.2548836,33.9208995 15.4746079,34.0273438 15.7636719,34.0273438 C16.185549,34.0273438 16.565428,33.8066428 16.9033203,33.3652344 C17.2412126,32.9238259 17.4882805,32.3398474 17.6445312,31.6132812 L17.9902344,30.0019531 Z M21.6992188,35.0996094 C21.2656228,35.0996094 20.935548,34.9921886 20.7089844,34.7773438 C20.4824207,34.5624989 20.3691406,34.2578145 20.3691406,33.8632812 C20.3691406,33.6015612 20.4433586,33.1298862 20.5917969,32.4482422 C20.7402351,31.7665982 21.1894494,29.6562677 21.9394531,26.1171875 L23.3632812,26.1171875 L21.9453125,32.7792969 C21.8632808,33.1699238 21.8222656,33.4218744 21.8222656,33.5351562 C21.8222656,33.8320327 21.9921858,33.9804688 22.3320312,33.9804688 C22.531251,33.9804688 22.7089836,33.9492191 22.8652344,33.8867188 L22.6425781,34.9648438 C22.3417954,35.0546879 22.0273454,35.0996094 21.6992188,35.0996094 L21.6992188,35.0996094 Z M28.7949219,35 L27.359375,35 C27.359375,34.9023433 27.3710936,34.7236341 27.3945312,34.4638672 C27.4179689,34.2041003 27.4414061,34.003907 27.4648438,33.8632812 L27.4414062,33.8632812 C27.1953113,34.222658 26.9833993,34.4833976 26.8056641,34.6455078 C26.6279288,34.807618 26.4355479,34.9316402 26.2285156,35.0175781 C26.0214833,35.1035161 25.7871107,35.1464844 25.5253906,35.1464844 C24.9550753,35.1464844 24.5117203,34.9453145 24.1953125,34.5429688 C23.8789047,34.140623 23.7207031,33.5839879 23.7207031,32.8730469 C23.7207031,32.1464807 23.8915999,31.4550814 24.2333984,30.7988281 C24.575197,30.1425748 25.0322237,29.6542985 25.6044922,29.3339844 C26.1767607,29.0136703 26.8437462,28.8535156 27.6054688,28.8535156 C28.2343781,28.8535156 28.9824175,28.9472647 29.8496094,29.1347656 L29.0234375,33.0488281 C28.9648435,33.3261733 28.9121096,33.6669902 28.8652344,34.0712891 C28.8183591,34.475588 28.7949219,34.7851552 28.7949219,35 L28.7949219,35 Z M28.2558594,30.0019531 C28.0136707,29.9433591 27.7460952,29.9140625 27.453125,29.9140625 C27.0078103,29.9140625 26.6152361,30.0302723 26.2753906,30.2626953 C25.9355452,30.4951183 25.6621104,30.8476539 25.4550781,31.3203125 C25.2480458,31.7929711 25.1445312,32.2871068 25.1445312,32.8027344 C25.1445312,33.1933613 25.2197258,33.4951161 25.3701172,33.7080078 C25.5205086,33.9208995 25.7402329,34.0273438 26.0292969,34.0273438 C26.451174,34.0273438 26.831053,33.8066428 27.1689453,33.3652344 C27.5068376,32.9238259 27.7539055,32.3398474 27.9101562,31.6132812 L28.2558594,30.0019531 Z M36.5234375,31.0976562 C36.5234375,31.8398475 36.3584001,32.5361296 36.0283203,33.1865234 C35.6982405,33.8369173 35.2509794,34.3261702 34.6865234,34.6542969 C34.1220675,34.9824235 33.474613,35.1464844 32.7441406,35.1464844 C32.3339823,35.1464844 31.9169943,35.092774 31.4931641,34.9853516 C31.0693338,34.8779292 30.710939,34.7324228 30.4179688,34.5488281 L32.2050781,26.1171875 L33.6289062,26.1171875 L33.0429688,28.8769531 L32.7734375,30.03125 L32.8027344,30.03125 C33.0839858,29.6210917 33.3818344,29.3222666 33.6962891,29.1347656 C34.0107438,28.9472647 34.3554669,28.8535156 34.7304688,28.8535156 C35.2968778,28.8535156 35.7373031,29.0507793 36.0517578,29.4453125 C36.3662125,29.8398457 36.5234375,30.3906215 36.5234375,31.0976562 L36.5234375,31.0976562 Z M35.1054688,31.2148438 C35.1054688,30.3867146 34.7910188,29.9726562 34.1621094,29.9726562 C33.7636699,29.9726562 33.3916033,30.1904275 33.0458984,30.6259766 C32.7001936,31.0615256 32.4628913,31.5898406 32.3339844,32.2109375 L31.9824219,33.8808594 C32.2363294,34.0175788 32.5546856,34.0859375 32.9375,34.0859375 C33.3515646,34.0859375 33.7216781,33.9570325 34.0478516,33.6992188 C34.3740251,33.441405 34.631835,33.0839867 34.8212891,32.6269531 C35.0107431,32.1699196 35.1054688,31.6992212 35.1054688,31.2148438 L35.1054688,31.2148438 Z M42.3242188,35 L40.8886719,35 C40.8886719,34.9023433 40.9003905,34.7236341 40.9238281,34.4638672 C40.9472657,34.2041003 40.970703,34.003907 40.9941406,33.8632812 L40.9707031,33.8632812 C40.7246081,34.222658 40.5126962,34.4833976 40.3349609,34.6455078 C40.1572257,34.807618 39.9648448,34.9316402 39.7578125,35.0175781 C39.5507802,35.1035161 39.3164076,35.1464844 39.0546875,35.1464844 C38.4843721,35.1464844 38.0410172,34.9453145 37.7246094,34.5429688 C37.4082015,34.140623 37.25,33.5839879 37.25,32.8730469 C37.25,32.1464807 37.4208967,31.4550814 37.7626953,30.7988281 C38.1044939,30.1425748 38.5615206,29.6542985 39.1337891,29.3339844 C39.7060575,29.0136703 40.3730431,28.8535156 41.1347656,28.8535156 C41.763675,28.8535156 42.5117144,28.9472647 43.3789062,29.1347656 L42.5527344,33.0488281 C42.4941403,33.3261733 42.4414065,33.6669902 42.3945312,34.0712891 C42.347656,34.475588 42.3242188,34.7851552 42.3242188,35 L42.3242188,35 Z M41.7851562,30.0019531 C41.5429675,29.9433591 41.2753921,29.9140625 40.9824219,29.9140625 C40.5371071,29.9140625 40.1445329,30.0302723 39.8046875,30.2626953 C39.4648421,30.4951183 39.1914073,30.8476539 38.984375,31.3203125 C38.7773427,31.7929711 38.6738281,32.2871068 38.6738281,32.8027344 C38.6738281,33.1933613 38.7490227,33.4951161 38.8994141,33.7080078 C39.0498054,33.9208995 39.2695298,34.0273438 39.5585938,34.0273438 C39.9804709,34.0273438 40.3603499,33.8066428 40.6982422,33.3652344 C41.0361345,32.9238259 41.2832023,32.3398474 41.4394531,31.6132812 L41.7851562,30.0019531 Z M48.171875,30.2773438 C47.9999991,30.1757807 47.7958996,30.087891 47.5595703,30.0136719 C47.323241,29.9394528 47.0878918,29.9023438 46.8535156,29.9023438 C46.525389,29.9023438 46.2802742,29.971679 46.1181641,30.1103516 C45.9560539,30.2490241 45.875,30.4277333 45.875,30.6464844 C45.875,30.8417979 45.9414056,31.0039056 46.0742188,31.1328125 C46.2070319,31.2617194 46.3984363,31.3945306 46.6484375,31.53125 C47.1562525,31.8164077 47.5029288,32.0878893 47.6884766,32.3457031 C47.8740244,32.6035169 47.9667969,32.9062483 47.9667969,33.2539062 C47.9667969,33.6328144 47.868165,33.9628892 47.6708984,34.2441406 C47.4736318,34.525392 47.1855488,34.7460929 46.8066406,34.90625 C46.4277325,35.0664071 45.9648465,35.1464844 45.4179688,35.1464844 C45.1210923,35.1464844 44.8066423,35.1132816 44.4746094,35.046875 C44.1425765,34.9804684 43.8886728,34.9003911 43.7128906,34.8066406 L43.9472656,33.6464844 C44.1621104,33.7753913 44.4169907,33.8847652 44.7119141,33.9746094 C45.0068374,34.0644536 45.2910143,34.109375 45.5644531,34.109375 C45.9082048,34.109375 46.1640617,34.0449225 46.3320312,33.9160156 C46.5000008,33.7871087 46.5839844,33.6093761 46.5839844,33.3828125 C46.5839844,33.2070304 46.5263678,33.0546881 46.4111328,32.9257812 C46.2958979,32.7968744 46.0722673,32.642579 45.7402344,32.4628906 C45.2988259,32.2246082 44.9775401,31.9726576 44.7763672,31.7070312 C44.5751943,31.4414049 44.4746094,31.128908 44.4746094,30.7695312 C44.4746094,30.4023419 44.569335,30.0732436 44.7587891,29.7822266 C44.9482431,29.4912095 45.2216779,29.2636727 45.5791016,29.0996094 C45.9365252,28.9355461 46.3613257,28.8535156 46.8535156,28.8535156 C47.1464858,28.8535156 47.4326158,28.8798825 47.7119141,28.9326172 C47.9912123,28.9853518 48.2265615,29.0507809 48.4179688,29.1289062 L48.171875,30.2773438 Z M55.0625,30.4707031 C55.0625,30.6816417 55.0039068,31.0664035 54.8867188,31.625 L54.171875,35 L52.7539062,35 L53.4804688,31.53125 C53.5585941,31.1132792 53.5976562,30.8574223 53.5976562,30.7636719 C53.5976562,30.2363255 53.3593774,29.9726562 52.8828125,29.9726562 C52.628905,29.9726562 52.360353,30.0732412 52.0771484,30.2744141 C51.7939439,30.4755869 51.5439464,30.7402327 51.3271484,31.0683594 C51.1103505,31.396486 50.9667972,31.7304671 50.8964844,32.0703125 L50.2695312,35 L48.8457031,35 L50.7382812,26.1171875 L52.15625,26.1171875 L51.265625,30.2832031 L51.2890625,30.2832031 C51.6132829,29.8300759 51.9726543,29.4785169 52.3671875,29.2285156 C52.7617207,28.9785144 53.156248,28.8535156 53.5507812,28.8535156 C54.0507837,28.8535156 54.4277331,28.9951158 54.6816406,29.2783203 C54.9355481,29.5615249 55.0625,29.9589818 55.0625,30.4707031 L55.0625,30.4707031 Z" id="Calabash" fill="#FFFFFF"></path>
            </g>
        </g>
    </g>
</svg>