<?xml version="1.0" encoding="UTF-8" standalone="no"?>
<svg width="64px" height="64px" viewBox="0 0 64 64" version="1.1" xmlns="http://www.w3.org/2000/svg" xmlns:xlink="http://www.w3.org/1999/xlink" xmlns:sketch="http://www.bohemiancoding.com/sketch/ns">
    <!-- Generator: Sketch 3.4.2 (15857) - http://www.bohemiancoding.com/sketch -->
    <title>icons/skills/id-18</title>
    <desc>Created with Sketch.</desc>
    <defs></defs>
    <g id="Brands" stroke="none" stroke-width="1" fill="none" fill-rule="evenodd" sketch:type="MSPage">
        <g id="icons/skills/id-18" sketch:type="MSArtboardGroup" fill="#A80030">
            <path d="M36.8063275,33.6989033 C35.8123523,33.712381 36.994533,34.2105719 38.2922362,34.410811 C38.6508374,34.1311502 38.9762259,33.84812 39.2659949,33.5727912 C38.4578185,33.7701422 37.6356831,33.7744743 36.8063275,33.6989033 M42.1425061,32.3689501 C42.7340778,31.5521095 43.1663246,30.6572912 43.3179479,29.7321482 C43.185097,30.391108 42.8274585,30.9610192 42.4900364,31.5617364 C40.6320489,32.7318834 42.3153086,30.8671571 42.4890737,30.1581375 C40.4914965,32.6731595 42.2147077,31.666188 42.1425061,32.3689501 M44.1126467,27.2436001 C44.2325014,25.4530008 43.7598216,26.0190612 43.6009782,26.7020882 C43.7858142,26.7988384 43.9331055,27.964172 44.1126467,27.2436001 M33.036442,2.77351967 C33.566883,2.86882576 34.1825218,2.94199004 34.0963613,3.06810214 C34.676862,2.94150869 34.8087503,2.82454212 33.036442,2.77351967 M34.0963613,3.06858349 L33.7213944,3.14607985 L34.0703687,3.11527384 L34.0963613,3.06858349 M50.6411142,27.922295 C50.7003195,29.5299837 50.1703599,30.3102422 49.6933481,31.6907365 L48.8336678,32.1200953 C48.1309057,33.4861493 48.9020187,32.987477 48.3990143,34.0738702 C47.3010688,35.0495544 45.0676331,37.1279974 44.3528373,37.3171655 C43.8310605,37.3060946 44.7061438,36.702008 44.8207036,36.4647055 C43.351642,37.474565 43.6418924,37.9794947 41.3944977,38.5932082 L41.3290349,38.4463983 C35.7858784,41.0538383 28.0872639,35.8866114 28.1888274,28.8358858 C28.1296221,29.284017 28.0208384,29.1713825 27.8976144,29.3528492 C27.6116961,25.7249601 29.5731725,22.0811867 32.8809679,20.5943153 C36.1165617,18.9919214 39.9095517,19.6494372 42.2272226,21.8092274 C40.9545493,20.1413707 38.4202736,18.3738759 35.417169,18.5394582 C32.4756763,18.5861485 29.7238332,20.4552069 28.8059103,22.4845529 C27.2983412,23.4337631 27.1236134,26.1427666 26.4670603,26.6375881 C25.5837942,33.1313989 28.1291408,35.9361898 32.4347621,39.236765 C33.112013,39.6935604 32.6253743,39.7628739 32.717311,40.1104042 C31.2867569,39.4403735 29.9765387,38.42907 28.8997724,37.1910534 C29.4706463,38.0281105 30.0877292,38.8415817 30.885316,39.4803251 C29.536109,39.0235297 27.7344388,36.2119999 27.2078485,36.0974401 C29.5337023,40.2605835 36.6417079,43.3989459 40.3644217,41.8422796 C38.6416918,41.9053357 36.4539838,41.8774178 34.5184999,41.1621407 C33.7059914,40.7438528 32.6008257,39.8774338 32.7981767,39.7147396 C37.877799,41.6131599 43.1258917,41.1529952 47.5205616,37.6290764 C48.6387235,36.7578439 49.8603744,35.2767487 50.2131995,35.2560509 C49.6813145,36.0555631 50.3036921,35.641126 49.8955125,36.3467762 C51.010305,34.5499194 49.4117619,35.6146521 51.0478498,33.2430707 L51.6524178,34.0753143 C51.4276302,32.5841108 53.5046292,30.7728137 53.2938005,28.4137472 C53.770331,27.6922127 53.8252042,29.1896736 53.3197931,30.8498287 C54.0211112,29.0086883 53.5046292,28.7126618 53.6851331,27.193059 C53.8795961,27.7042463 54.1351897,28.2462395 54.2665966,28.7853447 C53.8093198,27.0062976 54.7359069,25.7884975 54.9645452,24.7550521 C54.7397576,24.6549326 54.2598578,25.5415681 54.1501113,23.4400205 C54.166477,22.5273925 54.4042609,22.962046 54.4957163,22.7372584 C54.316175,22.6337695 53.8463833,21.9343768 53.5599837,20.59239 C53.7674429,20.2771097 54.1140105,21.4097119 54.3970408,21.4564023 C54.2150928,20.3892628 53.9022192,19.5757916 53.8901856,18.7565443 C53.0656435,17.0338144 53.5984912,18.9866267 52.9294232,18.0172 C52.0519332,15.2797972 53.6576965,17.3818261 53.7659989,16.1385147 C55.0959521,18.0653344 55.8545501,21.0520734 56.2025618,22.2886459 C55.9368599,20.7805954 55.5079825,19.3197166 54.983799,17.9060096 C55.3876465,18.0764053 54.333022,14.8032667 55.5089452,16.9707584 C54.2531189,12.3498568 50.1342591,8.03268325 46.3451198,6.00670673 C46.8081726,6.43077071 47.3939682,6.96409977 47.1841022,7.04737226 C45.2996408,5.9253596 45.6308054,5.83775501 45.3612528,5.36363126 C43.8257658,4.7393282 43.7251649,5.41369103 42.7085665,5.36507529 C39.8147269,3.8305509 39.2568494,3.99324514 36.5940548,3.03152 L36.7153535,3.59806179 C34.7976793,2.95931842 34.4814364,3.84017778 32.4097322,3.59998716 C32.2831388,3.50131166 33.0735055,3.24379267 33.7238011,3.14896792 C31.870627,3.39349063 31.9572689,2.78362789 30.1435651,3.21635607 C30.5907336,2.90300118 31.0624506,2.69554195 31.5394624,2.42839608 C30.0285239,2.52033277 27.9317898,3.30829275 28.578716,2.59157167 C26.1137538,3.69192385 21.7349683,5.23559378 19.2781889,7.53978709 L19.2006926,7.02330507 C18.0748292,8.37540012 14.2909847,11.0603365 13.9896634,12.8100216 L13.6888234,12.8802978 C13.1025465,13.8718663 12.7242102,14.9962856 12.259232,16.0172161 C11.4929325,17.3231021 11.1357753,16.5197391 11.2450404,16.7243103 C9.73747125,19.7803628 8.98898146,22.3478512 8.34253659,24.4532495 C8.80366406,25.142534 8.35312616,28.5995459 8.527854,31.3672734 C7.77118137,45.0345525 18.1200755,58.3042414 29.4326201,61.3689581 C31.0908499,61.9610111 33.5562934,61.9388693 35.6535088,62 C33.1789198,61.2919431 32.8588261,61.6255144 30.4487371,60.7846066 C28.7091602,59.9658406 28.3284172,59.0305894 27.0966581,57.9620059 L27.5847408,58.8236115 C25.1688757,57.9692261 26.1801793,57.7656176 24.2143708,57.1432399 L24.7356662,56.4635823 C23.9525197,56.404377 22.6615553,55.1447 22.3087302,54.44627 L21.4524194,54.4799641 C20.4233061,53.2101788 19.8750554,52.2956254 19.9150069,51.5866058 L19.6382342,52.079502 C19.3243979,51.5408781 15.8524643,47.3175666 17.6536532,48.3009523 C17.3186379,47.9943362 16.8738761,47.8027613 16.3915695,46.926234 L16.7583536,46.5069835 C15.8909718,45.392191 15.1626985,43.9621182 15.218053,43.4860691 C15.6801432,44.1108535 16.0011996,44.2273387 16.3188866,44.3346784 C14.1297344,38.9027124 14.0069917,44.0352825 12.348762,38.8054809 L12.6996617,38.7770816 C12.4305904,38.37179 12.2674148,37.9318417 12.0512914,37.5005576 L12.2033961,35.9790295 C10.6274761,34.1566614 11.7624851,28.2303552 11.9901608,24.9798397 C12.1480416,23.6580693 13.3056737,22.2511011 14.186533,20.0451019 L13.6503159,19.9526839 C14.6760598,18.1635286 19.5068273,12.767182 21.7441138,13.0449174 C22.8276189,11.6831955 21.5294344,13.0396226 21.3176431,12.6969058 C23.6978887,10.2329063 24.4463785,10.9558848 26.0531045,10.5130484 C27.7859426,9.48441649 24.5662332,10.9140079 25.3874059,10.1207531 C28.382809,9.35589767 27.5101325,8.38165759 31.4176824,7.99321305 C31.8301941,8.22762754 30.461252,8.35518367 30.1175725,8.65987437 C32.6133407,7.43918621 38.0154634,7.71692165 41.5239792,9.3376066 C45.595186,11.2398777 50.1693972,16.8648627 50.3499012,22.1562763 L50.555435,22.2111495 C50.4514647,24.3146224 50.8774541,26.7473346 50.1390725,28.981733 L50.6411142,27.922295 M25.9553917,35.0635133 L25.8158019,35.7604993 C26.4689856,36.6485788 26.9878744,37.610304 27.821562,38.3034392 C27.2218075,37.1318481 26.7756017,36.6476161 25.9553917,35.0635133 M27.499543,35.002864 C27.153938,34.6201956 26.9488855,34.1600308 26.7197658,33.7013101 C26.9392586,34.5075611 27.3878712,35.200215 27.8051963,35.9049025 L27.499543,35.002864 M54.832657,29.0616361 L54.6863285,29.4284201 C54.4187012,31.3302099 53.8406072,33.2122646 52.9539717,34.9576177 C53.9335066,33.1164772 54.5664738,31.1025343 54.832657,29.0616361 M33.2333116,2.29698919 C33.9052677,2.05005977 34.8857653,2.16173155 35.5986356,2 C34.6696419,2.07797771 33.7444989,2.12466807 32.8309081,2.24211599 L33.2333116,2.29698919 M9.63446365,14.8451436 C9.78945639,16.2790672 8.5552906,16.8355007 9.90738565,15.8901413 C10.6322896,14.2583854 9.62435543,15.4400847 9.63446365,14.8451436 M8.0455474,21.4819135 C8.35649556,20.5259645 8.41329414,19.9512399 8.53218609,19.3986571 C7.67154318,20.4985279 8.13604005,20.7334237 8.0455474,21.4819135" id="Shape" sketch:type="MSShapeGroup"></path>
        </g>
    </g>
</svg>