<?xml version="1.0" encoding="UTF-8" standalone="no"?>
<svg width="64px" height="64px" viewBox="0 0 64 64" version="1.1" xmlns="http://www.w3.org/2000/svg" xmlns:xlink="http://www.w3.org/1999/xlink">
    <defs></defs>
    <g id="Frameworks" stroke="none" stroke-width="1" fill="none" fill-rule="evenodd">
        <g id="icons/skills/id-147" fill="#EE4323">
            <path d="M44.4322337,24.6721014 L44.0651486,24.471609 C44.2583768,24.938456 44.3213333,25.336535 44.3145534,25.6924815 C44.3833213,25.4043343 44.4288437,25.1069858 44.4346551,24.7980144 C44.4390136,25.1820493 44.3925226,25.5428387 44.3024463,25.8784455 L44.3145534,25.6919973 C44.2084958,26.1385044 44.0312489,26.5520804 43.7944355,26.9307882 L43.9082416,26.8097179 C42.5135122,29.1434683 38.708516,29.6534162 36.8319269,27.2431494 C33.8196988,23.3737439 36.8939149,19.202147 37.3244408,15.1046451 C37.862477,9.96932887 34.6424923,4.98365551 30.6495951,2 C32.8487154,5.55752855 29.9512619,10.2647403 27.6330085,12.8953549 C25.3849759,15.4470318 22.6516937,17.5768998 20.1702376,19.8937003 C17.505239,22.3843577 14.9414552,25.0052867 12.7515363,27.9269543 C8.36927712,33.7741636 5.68587585,41.1284555 7.65786826,48.4241495 C9.62792355,55.7154849 15.9429484,60.3563501 23.074471,61.9970943 C19.4767472,60.4415836 16.1100253,56.489366 16.1022768,52.4456193 C16.0930755,48.0357561 18.8868928,44.2927479 22.3625779,41.8330845 C21.9446434,43.4113564 21.716547,44.8549982 22.7514556,46.2666774 C23.7142063,47.5795633 25.3995043,48.2168772 26.9903676,47.8706162 C30.7091617,47.0575084 30.8791443,42.9696921 28.6751813,40.5879979 C26.4954323,38.2305178 24.3868727,35.5655192 25.2159618,32.1455265 C25.6314749,30.4311716 26.6843019,28.8262642 28.0184962,27.6775495 C26.992789,30.371605 29.9057394,33.0283708 31.8244609,34.350458 C35.1543774,36.6464345 38.8058565,38.3820977 41.8674812,41.0727632 C45.0869816,43.9009645 47.4652858,47.7248477 46.984879,52.160862 C46.4637926,56.9683199 42.6437838,60.3122806 38.3593494,62 C47.4134678,60.0008878 56.7707461,52.9734856 56.9610686,42.9309496 C57.120397,34.6700835 51.4533402,28.3119577 44.4322337,24.6721014 L44.4322337,24.6721014 Z" id="Shape"></path>
        </g>
    </g>
</svg>