<?xml version="1.0" encoding="UTF-8" standalone="no"?>
<svg width="64px" height="64px" viewBox="0 0 64 64" version="1.1" xmlns="http://www.w3.org/2000/svg" xmlns:xlink="http://www.w3.org/1999/xlink">
    <!-- Generator: Sketch 3.6.1 (26313) - http://www.bohemiancoding.com/sketch -->
    <title>icons/skills/id-112</title>
    <desc>Created with Sketch.</desc>
    <defs></defs>
    <g id="Brands" stroke="none" stroke-width="1" fill="none" fill-rule="evenodd">
        <g id="icons/skills/id-112" fill="#32383D">
            <path d="M24.2045455,29.8575 C23.5016818,29.8575 22.9318182,31.9740729 22.9318182,34.585 C22.9318182,37.1959271 23.5016818,39.3125 24.2045455,39.3125 C24.9074091,39.3125 25.4772727,37.1959271 25.4772727,34.585 C25.4772727,31.9740729 24.9074091,29.8575 24.2045455,29.8575 L24.2045455,29.8575 Z M47.2727273,45.6666667 L16.7272727,45.6666667 L14.1818182,25.3333333 L19.2727273,15.1666667 L27.4546136,15.1666667 L26.9090909,18.9791667 L37.0909091,18.9791667 L36.5453864,15.1666667 L44.7272727,15.1666667 L49.8181818,25.3333333 L47.2727273,45.6666667 Z M47.2727273,5 L16.7272727,5 L4,25.3333333 L9.09090909,58.375 L18.1590909,58.375 L17.5227273,50.75 L21.9772727,50.75 L22.6136364,58.375 L41.3863636,58.375 L42.0227273,50.75 L46.4772727,50.75 L45.8409091,58.375 L54.9090909,58.375 L60,25.3333333 L47.2727273,5 Z M40.2727273,29.4635417 C39.5698636,29.4635417 39,31.5801146 39,34.1910417 C39,36.8019688 39.5698636,38.9185417 40.2727273,38.9185417 C40.9755909,38.9185417 41.5454545,36.8019688 41.5454545,34.1910417 C41.5454545,31.5801146 40.9755909,29.4635417 40.2727273,29.4635417 L40.2727273,29.4635417 Z" id="Page-1"></path>
        </g>
    </g>
</svg>