<?xml version="1.0" encoding="UTF-8" standalone="no"?>
<svg width="64px" height="64px" viewBox="0 0 64 64" version="1.1" xmlns="http://www.w3.org/2000/svg" xmlns:xlink="http://www.w3.org/1999/xlink">
    <defs></defs>
    <g id="Skills---Develop" stroke="none" stroke-width="1" fill="none" fill-rule="evenodd">
        <g id="icons/skills/id-167">
            <rect id="bg" fill="#A3A3AE" x="9" y="9" width="50" height="50" rx="4"></rect>
            <rect id="bg" fill="#D1D3D4" x="5" y="5" width="50" height="50" rx="4"></rect>
            <rect id="block" fill="#394146" x="11" y="39" width="8" height="8"></rect>
            <rect id="Rectangle-41" fill="#2FC087" x="11" y="29" width="8" height="8"></rect>
            <rect id="Rectangle-41" fill="#15B6FD" x="11" y="19" width="8" height="8"></rect>
            <rect id="Rectangle-41" fill="#15B6FD" x="21" y="39" width="8" height="8"></rect>
            <rect id="Rectangle-41" fill="#394146" x="21" y="29" width="8" height="8"></rect>
            <rect id="Rectangle-41" fill="#2FC087" x="21" y="19" width="8" height="8"></rect>
            <rect id="Rectangle-41" fill="#2FC087" x="31" y="39" width="8" height="8"></rect>
            <rect id="Rectangle-41" fill="#394146" x="31" y="29" width="8" height="8"></rect>
            <rect id="Rectangle-41" fill="#394146" x="41" y="39" width="8" height="8"></rect>
            <rect id="Rectangle-41" fill="#666666" x="41" y="29" width="8" height="8"></rect>
            <rect id="block" fill="#05C14F" transform="translate(45.000000, 19.000000) rotate(-330.000000) translate(-45.000000, -19.000000) " x="41" y="15" width="8" height="8"></rect>
            <path d="M31,9 L38.2928932,9.70710678 L39,17 L31,17 L31,9 Z" id="block" fill="#394146" transform="translate(35.000000, 13.000000) rotate(-45.000000) translate(-35.000000, -13.000000) "></path>
        </g>
    </g>
</svg>