<?xml version="1.0" encoding="UTF-8" standalone="no"?>
<svg width="64px" height="64px" viewBox="0 0 64 64" version="1.1" xmlns="http://www.w3.org/2000/svg" xmlns:xlink="http://www.w3.org/1999/xlink">
    <defs></defs>
    <g id="Technologies" stroke="none" stroke-width="1" fill="none" fill-rule="evenodd">
        <g id="icons/skills/id-106">
            <g id="Oval-3-+-Shape-+-Path" transform="translate(2.000000, 2.000000)">
                <circle id="Oval-3" fill="#097DCE" cx="30" cy="30" r="30"></circle>
                <path d="M42,31.7211485 L42,41 C42,45.8789776 37.7057553,50 32,50 L28,50 C22.2942447,50 18,45.8789776 18,41 L18,37.5135284 L20.3668837,39.9171471 L23,37.2431638 L23,41 C23,43.1070287 25.0622322,45 28,45 L32,45 C34.9377678,45 37,43.1070287 37,41 L37,41 L37,31.057375 L34.4250614,33.6722776 L31.5749386,30.8657138 L37.7481241,24.5967181 L39.1731855,23.1495392 L40.5982469,24.5967181 L46.7714324,30.8657138 L43.9213096,33.6722776 L42,31.7211485 L42,31.7211485 Z" id="Shape" fill="#85CCFF"></path>
                <path d="M18,29.2116208 L18,19 C18,14.1214955 22.294441,10 28,10 L32,10 C37.705559,10 42,14.1214955 42,19 L42,22.6739833 L42,22.6739833 L39.3668837,20 L37,22.4036187 L37,19 C37,16.8933148 34.9374397,15 32,15 L28,15 C25.0625603,15 23,16.8933148 23,19 L23,28.5478472 L24.9213096,26.5967181 L27.7714324,29.4032819 L21.5982469,35.6722776 L20.1731855,37.1194565 L18.7481241,35.6722776 L12.5749386,29.4032819 L15.4250614,26.5967181 L18,29.2116208 L18,29.2116208 Z" id="Path" fill="#FFFFFF"></path>
            </g>
        </g>
    </g>
</svg>