<?xml version="1.0" encoding="UTF-8" standalone="no"?>
<svg width="64px" height="64px" viewBox="0 0 64 64" version="1.1" xmlns="http://www.w3.org/2000/svg" xmlns:xlink="http://www.w3.org/1999/xlink">
    <!-- Generator: Sketch 3.6.1 (26313) - http://www.bohemiancoding.com/sketch -->
    <title>icons/skills/id-156</title>
    <desc>Created with Sketch.</desc>
    <defs>
        <radialGradient cx="50%" cy="50%" fx="50%" fy="50%" r="50%" id="radialGradient-1">
            <stop stop-color="#378EE6" offset="0%"></stop>
            <stop stop-color="#378EE6" offset="39.0276155%"></stop>
            <stop stop-color="#98C4F2" offset="58.6645028%"></stop>
            <stop stop-color="#378EE6" offset="59.8715526%"></stop>
            <stop stop-color="#378EE6" offset="76.2547646%"></stop>
            <stop stop-color="#FFFFFF" offset="100%"></stop>
        </radialGradient>
        <path id="path-2" d="M19.76,9.511 C12.674,12.197 9.107,20.118 11.793,27.203 L11.793,27.203 C14.479,34.289 22.399,37.856 29.485,35.17 L29.485,35.17 C36.57,32.485 40.137,24.564 37.452,17.478 L37.452,17.478 C35.373,11.994 30.157,8.617 24.62,8.617 L24.62,8.617 C23.004,8.617 21.36,8.905 19.76,9.511"></path>
    </defs>
    <g id="Skills---Design" stroke="none" stroke-width="1" fill="none" fill-rule="evenodd">
        <g id="icons/skills/id-156">
            <g id="Group" transform="translate(5.000000, 5.000000)">
                <path d="M50,54 L8,54 C5.8,54 4,52.2 4,50 L4,8 C4,5.8 5.8,4 8,4 L50,4 C52.2,4 54,5.8 54,8 L54,50 C54,52.2 52.2,54 50,54 L50,54 Z" id="Shape" fill="#376FA6"></path>
                <path d="M46,50 L4,50 C1.8,50 0,48.2 0,46 L0,4 C0,1.8 1.8,0 4,0 L46,0 C48.2,0 50,1.8 50,4 L50,46 C50,48.2 48.2,50 46,50 L46,50 Z" id="Shape" fill="#378EE6"></path>
            </g>
            <g id="Fill-6">
                <use fill="none" xlink:href="#path-2"></use>
                <use fill="url(#radialGradient-1)" fill-rule="evenodd" xlink:href="#path-2"></use>
            </g>
            <g id="Group-17" transform="translate(21.000000, 18.000000)">
                <path d="M13.1465,27.7301 C12.9955,27.3531 12.7745,26.9071 12.6825,26.7931 C12.0255,26.2321 10.0225,25.8521 8.5605,25.5761 C7.7805,25.4271 7.1065,25.2991 6.5825,25.1431 C5.4505,24.8061 4.9615,24.2921 4.3065,22.7531 C4.2805,22.7161 4.2385,22.6331 4.2045,22.5441 L2.4645,17.9561 C2.1965,17.2461 2.2405,16.4721 2.5895,15.7761 C2.9235,15.1091 3.5025,14.5931 4.2185,14.3221 C4.2995,14.2911 4.3825,14.2641 4.4655,14.2401 L1.2905,5.8611 C0.9955,5.0841 1.0115,4.2401 1.3345,3.4851 C1.6635,2.7171 2.2705,2.1331 3.0425,1.8401 C3.3825,1.7111 3.7405,1.6461 4.1045,1.6461 C5.3835,1.6461 6.5545,2.4671 7.0185,3.6901 L7.9205,6.0701 C8.2305,5.7281 8.6215,5.4601 9.0675,5.2911 C9.4065,5.1631 9.7615,5.0971 10.1215,5.0971 C10.8215,5.0971 11.4685,5.3381 11.9685,5.7561 C12.2975,5.2591 12.7855,4.8551 13.3895,4.6251 C13.7315,4.4961 14.0885,4.4301 14.4505,4.4301 C15.4325,4.4301 16.3095,4.9011 16.8235,5.6701 C17.1355,5.3041 17.5445,5.0081 18.0325,4.8231 C18.3725,4.6941 18.7265,4.6291 19.0855,4.6291 C20.2875,4.6291 21.3315,5.3371 21.7475,6.4321 L25.4515,16.2061 C25.5035,16.3441 25.5455,16.4891 25.5755,16.6361 C26.1475,18.1151 26.2435,18.4251 26.2755,18.5291 C26.5405,19.3861 25.9465,20.2071 25.3165,21.0741 C25.0435,21.4511 24.6685,21.9661 24.5985,22.2151 C24.4405,22.7701 24.6315,23.1101 24.6395,23.1251 L25.2595,24.1931 L24.1275,24.6681 L13.5305,28.6841 L13.1465,27.7301 Z" id="Fill-9" fill="#FFFFFF"></path>
                <path d="M4.1042,0.5967 L4.1042,0.5967 C3.6132,0.5967 3.1302,0.6847 2.6702,0.8597 C1.6292,1.2537 0.8122,2.0397 0.3702,3.0727 C-0.0598,4.0787 -0.0818,5.2007 0.3092,6.2337 L3.1362,13.6907 C1.5632,14.6647 0.8282,16.5977 1.4842,18.3267 L3.2232,22.9167 C3.2692,23.0367 3.3232,23.1497 3.3822,23.2607 C4.0492,24.8017 4.6972,25.6767 6.2822,26.1487 C6.8582,26.3207 7.5572,26.4527 8.3652,26.6057 C9.3212,26.7867 11.2322,27.1487 11.9082,27.5407 C11.9882,27.6957 12.0962,27.9307 12.1732,28.1217 L12.9412,30.0277 L14.8632,29.3017 L24.4992,25.6497 L26.9982,24.7027 L25.5852,22.6457 C25.5842,22.6217 25.5872,22.5847 25.5992,22.5337 C25.6832,22.3557 25.9842,21.9407 26.1662,21.6897 C26.8842,20.6997 27.6982,19.5777 27.2772,18.2167 C27.2182,18.0277 27.0832,17.6267 26.5832,16.3337 C26.5442,16.1637 26.4932,15.9967 26.4322,15.8337 L22.7282,6.0617 C22.1652,4.5777 20.7022,3.5797 19.0872,3.5797 C18.5992,3.5797 18.1202,3.6687 17.6612,3.8427 C17.3892,3.9447 17.1362,4.0737 16.9022,4.2237 C16.2282,3.6877 15.3732,3.3807 14.4502,3.3807 C13.9612,3.3807 13.4792,3.4697 13.0182,3.6447 C12.5482,3.8227 12.1232,4.0817 11.7582,4.4057 C11.2552,4.1757 10.6982,4.0487 10.1222,4.0487 C9.6342,4.0487 9.1542,4.1367 8.6952,4.3107 C8.6012,4.3467 8.5092,4.3847 8.4192,4.4267 L7.9992,3.3187 C7.3822,1.6907 5.8172,0.5967 4.1042,0.5967 L4.1042,0.5967 Z M4.1042,2.6947 C4.9292,2.6947 5.7172,3.2187 6.0372,4.0627 L8.8252,11.4167 C8.8662,11.5077 8.9592,11.5647 9.0622,11.5647 C9.0952,11.5647 9.1302,11.5577 9.1642,11.5457 C9.3022,11.4927 9.3722,11.3517 9.3332,11.2237 L8.3342,8.5867 C7.9872,7.6717 8.4812,6.6347 9.4392,6.2727 C9.6642,6.1867 9.8952,6.1467 10.1212,6.1467 C10.8552,6.1467 11.5362,6.5727 11.8012,7.2727 L12.7512,9.7797 L12.7562,9.7777 L12.8002,9.8957 C12.8382,9.9947 12.9362,10.0537 13.0442,10.0537 C13.0792,10.0537 13.1152,10.0477 13.1502,10.0347 C13.2942,9.9797 13.3702,9.8297 13.3202,9.6987 L13.2752,9.5807 L12.6472,7.9247 C12.3002,7.0087 12.7992,5.9707 13.7612,5.6057 C13.9892,5.5197 14.2222,5.4787 14.4502,5.4787 C15.1862,5.4787 15.8672,5.9047 16.1322,6.6037 L16.8062,8.3807 C16.8442,8.4777 16.9412,8.5367 17.0482,8.5367 C17.0832,8.5367 17.1182,8.5307 17.1532,8.5177 C17.2962,8.4627 17.3722,8.3137 17.3232,8.1827 L17.2992,8.1187 C17.2982,8.1167 17.2982,8.1147 17.2972,8.1127 L17.2792,8.0637 L17.2842,8.0617 C16.9782,7.1607 17.4662,6.1597 18.4042,5.8037 C18.6302,5.7187 18.8612,5.6777 19.0872,5.6777 C19.8202,5.6777 20.5012,6.1047 20.7662,6.8047 L24.4702,16.5777 C24.5132,16.6907 24.5432,16.8057 24.5612,16.9217 C24.8842,17.7567 25.1802,18.5377 25.2732,18.8367 C25.4722,19.4817 23.8642,20.9657 23.5902,21.9267 C23.2842,23.0017 23.7552,23.6877 23.7552,23.6877 L14.1202,27.3397 C14.1202,27.3397 13.7002,26.2927 13.4202,26.0497 C12.0952,24.9067 8.4412,24.6037 6.8812,24.1387 C6.1732,23.9277 5.8592,23.7237 5.2712,22.3417 C5.2422,22.2857 5.2082,22.2337 5.1852,22.1727 L3.4452,17.5837 C3.1072,16.6917 3.6202,15.6707 4.5902,15.3027 C4.8252,15.2137 5.0662,15.1717 5.3002,15.1717 C5.5402,15.1717 5.7742,15.2157 5.9892,15.2987 L2.2712,5.4897 C1.8622,4.4107 2.3732,3.2157 3.4132,2.8217 C3.6402,2.7357 3.8732,2.6947 4.1042,2.6947 L4.1042,2.6947 Z" id="Fill-11" fill="#3D3D3D"></path>
                <path d="M29.8715,28.2154 L12.4895,34.8034 L10.1895,28.7344 L27.5715,22.1464 L29.8715,28.2154 Z" id="Fill-13" stroke="#3D3D3D" stroke-width="2" fill="#00BDB8"></path>
            </g>
        </g>
    </g>
</svg>