<?xml version="1.0" encoding="UTF-8" standalone="no"?>
<svg width="64px" height="64px" viewBox="0 0 64 64" version="1.1" xmlns="http://www.w3.org/2000/svg" xmlns:xlink="http://www.w3.org/1999/xlink">
    <!-- Generator: Sketch 3.6.1 (26313) - http://www.bohemiancoding.com/sketch -->
    <title>icons/skills/id-159</title>
    <desc>Created with Sketch.</desc>
    <defs></defs>
    <g id="Skills---Develop" stroke="none" stroke-width="1" fill="none" fill-rule="evenodd">
        <g id="icons/skills/id-159">
            <g id="id-159" transform="translate(5.000000, 5.000000)">
                <g id="Layer_1">
                    <g id="Group">
                        <g id="Shape">
                            <path d="M50,54 L8,54 C5.8,54 4,52.2 4,50 L4,8 C4,5.8 5.8,4 8,4 L50,4 C52.2,4 54,5.8 54,8 L54,50 C54,52.2 52.2,54 50,54 L50,54 Z" fill="#388E3C"></path>
                            <path d="M46,50 L4,50 C1.8,50 0,48.2 0,46 L0,4 C0,1.8 1.8,0 4,0 L46,0 C48.2,0 50,1.8 50,4 L50,46 C50,48.2 48.2,50 46,50 L46,50 Z" fill="#66BB6A"></path>
                        </g>
                        <g transform="translate(7.000000, 11.000000)" id="Oval" fill="#FFFFFF">
                            <ellipse cx="18" cy="22" rx="18" ry="6"></ellipse>
                            <ellipse opacity="0.66" cx="18" cy="14" rx="18" ry="6"></ellipse>
                            <ellipse opacity="0.33" cx="18" cy="6" rx="18" ry="6"></ellipse>
                        </g>
                    </g>
                </g>
            </g>
        </g>
    </g>
</svg>