<?xml version="1.0" encoding="UTF-8" standalone="no"?>
<svg width="64px" height="64px" viewBox="0 0 64 64" version="1.1" xmlns="http://www.w3.org/2000/svg" xmlns:xlink="http://www.w3.org/1999/xlink">
    <!-- Generator: Sketch 3.6.1 (26313) - http://www.bohemiancoding.com/sketch -->
    <title>icons/skills/id-113</title>
    <desc>Created with Sketch.</desc>
    <defs>
        <path id="path-1" d="M0,0.270794702 L57.8932185,0.270794702 L57.8932185,40.7152318 L0,40.7152318"></path>
        <path id="path-3" d="M0,0.270794702 L57.8932185,0.270794702 L57.8932185,40.7152318 L0,40.7152318"></path>
    </defs>
    <g id="Brands" stroke="none" stroke-width="1" fill="none" fill-rule="evenodd">
        <g id="icons/skills/id-113">
            <g id="Page-1" transform="translate(3.000000, 12.000000)">
                <g id="Group-3">
                    <mask id="mask-2" fill="white">
                        <use xlink:href="#path-1"></use>
                    </mask>
                    <g id="Clip-2"></g>
                    <path d="M10.4512159,24.1521603 C19.5472291,22.2838689 28.4492689,19.7345576 37.098951,16.3640278 C39.3110172,15.502094 41.3744344,14.2575907 43.4966199,13.1698026 C44.0305272,12.8959351 44.1780238,12.474955 43.8968583,11.8842 C42.848249,9.68327285 41.9029642,7.43010728 40.7790702,5.26912715 C39.4811762,2.77397483 37.3770437,1.12884901 34.6118649,0.623365563 C32.8146331,0.294570861 30.9263682,0.195471523 29.1026331,0.326835762 C23.9037589,0.701723179 19.0432821,2.35184238 14.4651232,4.77862384 C11.8378384,6.17100795 10.1055205,8.42724636 9.14141457,11.2312199 C7.6549245,15.5539483 7.88231523,19.9258424 8.81684503,24.397604 C9.43295099,24.3065709 9.94765298,24.2554848 10.4512159,24.1521603" id="Fill-1" fill="#221F20" mask="url(#mask-2)"></path>
                </g>
                <g id="Group-6">
                    <mask id="mask-4" fill="white">
                        <use xlink:href="#path-3"></use>
                    </mask>
                    <g id="Clip-5"></g>
                    <path d="M57.1571179,15.2573417 C55.5861245,14.1733947 53.8004159,13.7554874 51.9244424,13.6832755 C48.5101245,13.5519113 45.3097536,14.4630106 42.1969589,15.7482291 C36.900906,17.9345603 32.1779391,21.0769311 27.6846675,24.5715272 C26.4593695,25.5241099 25.1687735,26.216653 23.6968795,26.673355 C19.5135815,27.9720172 15.3133828,29.1708119 10.9437934,29.6993417 C10.0269325,29.8099642 9.6820053,29.5149709 9.5210649,28.6764675 C9.29329007,27.4880437 8.98523709,26.3149841 8.70061457,25.0877656 C6.54808477,26.1402159 4.62486623,27.3970106 2.97397881,29.0471298 C0.983925828,31.0364146 -0.18106755,33.318004 0.0228927152,36.2521894 C0.195356291,38.7304411 2.03023046,40.6233152 4.52768742,40.7074344 C6.86420397,40.7861762 9.06897219,40.2522689 11.1857801,39.368057 C15.0683232,37.7463616 18.413502,35.2550503 21.570853,32.5455669 C25.910098,28.8220437 30.3918464,25.3017126 35.2342702,22.2553682 C35.882257,21.8474477 36.6420185,21.4595007 37.3829589,21.3834477 C40.9251841,21.0196993 44.477396,20.7412225 48.0296079,20.4823351 C50.7344821,20.2852887 53.3994093,19.9349841 55.7912371,18.5579642 C56.4530517,18.1769311 57.0799126,17.6284278 57.5316212,17.0161629 C58.1223762,16.2156861 57.9844821,15.8281232 57.1571179,15.2573417" id="Fill-4" fill="#221F20" mask="url(#mask-4)"></path>
                </g>
            </g>
        </g>
    </g>
</svg>