<?xml version="1.0" encoding="UTF-8" standalone="no"?>
<svg width="64px" height="64px" viewBox="0 0 64 64" version="1.1" xmlns="http://www.w3.org/2000/svg" xmlns:xlink="http://www.w3.org/1999/xlink">
    <!-- Generator: Sketch 3.6.1 (26313) - http://www.bohemiancoding.com/sketch -->
    <title>icons/skills/id-129</title>
    <desc>Created with Sketch.</desc>
    <defs></defs>
    <g id="Skills---Design" stroke="none" stroke-width="1" fill="none" fill-rule="evenodd">
        <g id="icons/skills/id-129">
            <g id="Group" transform="translate(7.000000, 13.000000)">
                <rect id="Rectangle-66" fill="#D8D8D8" x="0" y="4" width="4" height="34"></rect>
                <path d="M0,40 L0,38 L4,38 L4,40 L2,44 L0,40 Z" id="Shape" fill="#394146"></path>
                <path d="M0,4 L0,2 C0,0.9 0.9,0 2,0 C3.1,0 4,0.9 4,2 L4,4 L0,4 Z" id="Shape" fill="#39BEF8"></path>
                <path d="M4,17 L4,22 L2.1,23 L2.5,20.8 L1,19.3 L3.1,19 L4,17 Z" id="Shape" fill="#39BEF8"></path>
            </g>
            <g id="Group-2" transform="translate(13.000000, 7.000000)">
                <path d="M0,2.0061411 C0,0.898179965 0.891941149,0 1.9999204,0 L32.0000796,0 C33.1046051,0 34,0.898241717 34,2.0061411 L34,43.9938589 C34,45.10182 33.1080589,46 32.0000796,46 L1.9999204,46 C0.895394863,46 0,45.1017583 0,43.9938589 L0,2.0061411 L0,2.0061411 Z" id="Rectangle-67" fill="#D8D8D8"></path>
                <path d="M2,5.00877516 C2,4.45164402 2.44736519,4 2.99815369,4 L31.0018463,4 C31.5531114,4 32,4.44921875 32,5.00877516 L32,42.9912248 C32,43.548356 31.5526348,44 31.0018463,44 L2.99815369,44 C2.44688863,44 2,43.5507812 2,42.9912248 L2,5.00877516 L2,5.00877516 Z" id="Rectangle-67" fill="#FFFFFF"></path>
                <path d="M0,1.99791312 C0,0.894496173 0.891941149,0 1.9999204,0 L32.0000796,0 C33.1046051,0 34,0.898260623 34,1.99791312 L34,6 L0,6 L0,1.99791312 L0,1.99791312 Z" id="Rectangle-path" fill="#39BEF8"></path>
                <path d="M7,8 L7.9,10 L10,10.3 L8.5,11.8 L8.9,14 L7,13 L5.1,14 L5.5,11.8 L4,10.3 L6.1,10 L7,8 Z" id="Shape" fill="#39BEF8"></path>
            </g>
            <g id="Group-3" transform="translate(21.000000, 33.000000)">
                <path d="M0,2.00494659 C0,0.897645164 0.889892578,0 1.99970728,0 L34.0002927,0 C35.1047006,0 36,0.897026226 36,2.00494659 L36,21.9950534 C36,23.1023548 35.1101074,24 34.0002927,24 L1.99970728,24 C0.895299444,24 0,23.1029738 0,21.9950534 L0,2.00494659 L0,2.00494659 Z" id="Rectangle-67" fill="#D8D8D8"></path>
                <path d="M2,2.99180311 C2,2.44404538 2.45236206,2 2.99278641,2 L33.0072136,2 C33.5555144,2 34,2.45530558 34,2.99180311 L34,21.0081969 C34,21.5559546 33.5476379,22 33.0072136,22 L2.99278641,22 C2.44448561,22 2,21.5446944 2,21.0081969 L2,2.99180311 L2,2.99180311 Z" id="Rectangle-67" fill="#FFFFFF"></path>
                <path d="M0,1 L0,0 L36,0 L36,1 L18,13 L0,1 Z" id="Shape" fill="#39BEF8"></path>
                <path d="M18,3 L18.9,5 L21,5.3 L19.5,6.8 L19.9,9 L18,8 L16.1,9 L16.5,6.8 L15,5.3 L17.1,5 L18,3 Z" id="Shape" fill="#FFFFFF"></path>
            </g>
            <g id="Group" transform="translate(35.000000, 15.000000)">
                <path d="M0,1.00684547 C0,0.450780073 0.43945834,0 1.00246167,0 L20.9975383,0 C21.5511826,0 22,0.449948758 22,1.00684547 L22,12.9931545 C22,13.5492199 21.5605417,14 20.9975383,14 L1.00246167,14 C0.448817378,14 0,13.5500512 0,12.9931545 L0,1.00684547 L0,1.00684547 Z" id="Rectangle-path" fill="#39BEF8"></path>
                <path d="M11,4 L11.9,6 L14,6.3 L12.5,7.8 L12.9,10 L11,9 L9.1,10 L9.5,7.8 L8,6.3 L10.1,6 L11,4 Z" id="Shape" fill="#FFFFFF"></path>
            </g>
        </g>
    </g>
</svg>