<?xml version="1.0" encoding="UTF-8" standalone="no"?>
<svg width="64px" height="64px" viewBox="0 0 64 64" version="1.1" xmlns="http://www.w3.org/2000/svg" xmlns:xlink="http://www.w3.org/1999/xlink">
    <!-- Generator: Sketch 3.6.1 (26313) - http://www.bohemiancoding.com/sketch -->
    <title>icons/skills/id-103</title>
    <desc>Created with Sketch.</desc>
    <defs></defs>
    <g id="Skills---Develop" stroke="none" stroke-width="1" fill="none" fill-rule="evenodd">
        <g id="icons/skills/id-103">
            <path d="M55,59 L13,59 C10.8,59 9,57.2 9,55 L9,13 C9,10.8 10.8,9 13,9 L55,9 C57.2,9 59,10.8 59,13 L59,55 C59,57.2 57.2,59 55,59 L55,59 Z" id="XMLID_2006_" fill="#2F8D6D"></path>
            <path d="M51,55 L9,55 C6.8,55 5,53.2 5,51 L5,9 C5,6.8 6.8,5 9,5 L51,5 C53.2,5 55,6.8 55,9 L55,51 C55,53.2 53.2,55 51,55 L51,55 Z" id="XMLID_20_" fill="#2FC087"></path>
            <path d="M30.1,25 L25.1,20 L30.1,15 L35.1,20 L30.1,25 L30.1,25 Z" id="XMLID_1989_" stroke="#FFFFFF" stroke-width="2"></path>
            <g id="XMLID_1963_" transform="translate(15.000000, 9.000000)">
                <path d="M15,0 L15,4" id="XMLID_1988_" stroke="#FFFFFF" stroke-width="2"></path>
                <path d="M11,11 L3,11 L3,16" id="XMLID_1987_" stroke="#FFFFFF" stroke-width="2"></path>
                <path d="M19,11 L27,11 L27,16" id="XMLID_1986_" stroke="#FFFFFF" stroke-width="2"></path>
                <path d="M3,26 L3,31" id="XMLID_1985_" stroke="#FFFFFF" stroke-width="2"></path>
                <path d="M27,26 L27,31" id="XMLID_1984_" stroke="#FFFFFF" stroke-width="2"></path>
                <path d="M15,42 L15,36" id="XMLID_1983_" stroke="#FFFFFF" stroke-width="2"></path>
                <path d="M3,18 L0,15 L6,15 L3,18 L3,18 Z" id="XMLID_1981_" fill="#FFFFFF"></path>
                <path d="M15,44 L12,41 L18,41 L15,44 L15,44 Z" id="XMLID_1979_" fill="#FFFFFF"></path>
                <path d="M27,18 L24,15 L30,15 L27,18 L27,18 Z" id="XMLID_1977_" fill="#FFFFFF"></path>
                <path d="M15,6 L12,3 L18,3 L15,6 L15,6 Z" id="XMLID_1975_" fill="#FFFFFF"></path>
                <path d="M3,33 L0,30 L6,30 L3,33 L3,33 Z" id="XMLID_1973_" fill="#FFFFFF"></path>
                <path d="M27,33 L24,30 L30,30 L27,33 L27,33 Z" id="XMLID_1964_" fill="#FFFFFF"></path>
            </g>
            <path d="M22.5,35 L13.5,35 C11.6,35 10,33.4 10,31.5 L10,31.5 C10,29.6 11.6,28 13.5,28 L22.5,28 C24.4,28 26,29.6 26,31.5 L26,31.5 C26,33.4 24.4,35 22.5,35 L22.5,35 Z" id="XMLID_1962_" stroke="#FFFFFF" stroke-width="2"></path>
            <path d="M46.5,35 L37.5,35 C35.6,35 34,33.4 34,31.5 L34,31.5 C34,29.6 35.6,28 37.5,28 L46.5,28 C48.4,28 50,29.6 50,31.5 L50,31.5 C50,33.4 48.4,35 46.5,35 L46.5,35 Z" id="XMLID_1961_" stroke="#FFFFFF" stroke-width="2"></path>
            <rect id="XMLID_1960_" fill="#FFFFFF" x="14" y="42" width="32" height="4"></rect>
        </g>
    </g>
</svg>