<?xml version="1.0" encoding="UTF-8" standalone="no"?>
<svg width="64px" height="64px" viewBox="0 0 64 64" version="1.1" xmlns="http://www.w3.org/2000/svg" xmlns:xlink="http://www.w3.org/1999/xlink">
    <defs></defs>
    <g id="Languages" stroke="none" stroke-width="1" fill="none" fill-rule="evenodd">
        <g id="icons/skills/id-154">
            <g id="css3-original-wordmark" transform="translate(7.000000, 4.000000)">
                <path d="M4.68734694,50.3978231 L0.280816327,0.975782313 L48.6982313,0.975782313 L44.2878912,50.3896599 L24.4598639,55.8873469 L4.68734694,50.3978231 L4.68734694,50.3978231 Z" id="Shape" fill="#1572B6"></path>
                <path d="M24.4903401,51.6854422 L40.5115646,47.2435374 L44.2808163,5.01714286 L24.4903401,5.01714286 L24.4903401,51.6854422 L24.4903401,51.6854422 Z" id="Shape" fill="#33A9DC"></path>
                <path d="M24.4897959,22.922449 L32.5104762,22.922449 L33.065034,16.7156463 L24.4897959,16.7156463 L24.4897959,10.6541497 L39.6892517,10.6541497 L39.5439456,12.2802721 L38.0544218,28.9834014 L24.4897959,28.9834014 L24.4897959,22.922449 L24.4897959,22.922449 Z" id="Shape" fill="#FFFFFF"></path>
                <path d="M24.5262585,38.6644898 L24.4995918,38.6721088 L17.7491156,36.8489796 L17.3170068,32.0146939 L11.2331973,32.0146939 L12.0827211,41.5319728 L24.4985034,44.9785034 L24.5268027,44.9703401 L24.5268027,38.6644898 L24.5262585,38.6644898 Z" id="Shape" fill="#EBEBEB"></path>
                <path d="M31.9956463,28.7270748 L31.2653061,36.8446259 L24.505034,38.6693878 L24.505034,44.9757823 L36.9311565,41.5319728 L37.022585,40.5077551 L38.0772789,28.7270748 L31.9956463,28.7270748 L31.9956463,28.7270748 Z" id="Shape" fill="#FFFFFF"></path>
                <path d="M24.5110204,10.6541497 L24.5110204,16.715102 L9.86993197,16.715102 L9.74802721,15.3529252 L9.47210884,12.2802721 L9.32680272,10.6541497 L24.5110204,10.6541497 L24.5110204,10.6541497 Z M24.4897959,22.9229932 L24.4897959,28.9844898 L17.8247619,28.9844898 L17.7034014,27.6223129 L17.4269388,24.5491156 L17.2816327,22.9229932 L24.4897959,22.9229932 L24.4897959,22.9229932 Z" id="Shape" fill="#EBEBEB"></path>
            </g>
        </g>
    </g>
</svg>