<?xml version="1.0" encoding="UTF-8" standalone="no"?>
<svg width="64px" height="64px" viewBox="0 0 64 64" version="1.1" xmlns="http://www.w3.org/2000/svg" xmlns:xlink="http://www.w3.org/1999/xlink">
    <!-- Generator: Sketch 3.6.1 (26313) - http://www.bohemiancoding.com/sketch -->
    <title>icons/skills/id-196</title>
    <desc>Created with Sketch.</desc>
    <defs></defs>
    <g id="Platforms" stroke="none" stroke-width="1" fill="none" fill-rule="evenodd">
        <g id="icons/skills/id-196">
            <path d="M3.09583412,29.8978195 L16.0832605,8.17252905 C16.9022067,6.84883011 18.3647616,6 19.3301171,6 L45.3049699,6 C46.2746261,6 47.7350307,6.85258519 48.5518265,8.17252905 L61.5392529,29.8978195 C62,31.5737705 62,33.0491803 61.5392529,34.2428776 L48.5518265,55.9681681 C47.7328803,57.291867 46.2703254,58.1406971 45.3049699,58.1406971 L19.3301171,58.1406971 C18.3604609,58.1406971 16.9000563,57.2881119 16.0832605,55.9681681 L3.09583412,34.2428776 C2.49180329,33.0491803 2.49180328,31.0819672 3.09583412,29.8978195 Z" id="Polygon-4" fill="#4285F5"></path>
            <path d="M13.0623682,32.854422 L18.5893555,28.1374512 L20.3633423,29.3415527 L31.2193604,19.2608643 L29.2529297,17.4575195 L32.7037356,12.0509644 L59.877552,37.150259 L48.3793338,56.0384753 C47.5603876,57.3621742 46.0978327,58.2110044 45.1324772,58.2110044 L40.8557375,58.2110062 L13.0623682,32.854422 Z" id="Path-168" fill="#3D7DE3"></path>
            <g id="Group-2" transform="translate(12.817871, 11.888901)" fill="#FFFFFF">
                <path d="M19.1635565,30.8012731 C25.6376659,30.8012731 30.8859686,25.5529704 30.8859686,19.078861 C30.8859686,12.6047515 25.6376659,7.35644887 19.1635565,7.35644887 C12.689447,7.35644887 7.44114436,12.6047515 7.44114436,19.078861 C7.44114436,25.5529704 12.689447,30.8012731 19.1635565,30.8012731 L19.1635565,30.8012731 L19.1635565,30.8012731 L19.1635565,30.8012731 L19.1635565,30.8012731 L19.1635565,30.8012731 L19.1635565,30.8012731 Z M19.200221,27.9235055 C24.064734,27.9235055 28.0082009,23.9800385 28.0082009,19.1155255 C28.0082009,14.2510126 24.064734,10.3075456 19.200221,10.3075456 C14.335708,10.3075456 10.3922411,14.2510126 10.3922411,19.1155255 C10.3922411,23.9800385 14.335708,27.9235055 19.200221,27.9235055 L19.200221,27.9235055 L19.200221,27.9235055 L19.200221,27.9235055 L19.200221,27.9235055 L19.200221,27.9235055 L19.200221,27.9235055 Z" id="Oval-5"></path>
                <path d="M16.0731558,22.1382457 L14.8220929,23.3893085 C15.9219687,24.517642 17.4584981,25.2183106 19.1586774,25.2183106 C22.5030577,25.2183106 25.2142136,22.5071547 25.2142136,19.1627743 C25.2142136,17.462595 24.5135451,15.9260657 23.3852116,14.8261898 L22.1341487,16.0772527 C21.363229,15.3336608 20.314364,14.8763031 19.1586774,14.8763031 C16.7913247,14.8763031 14.8722062,16.7954217 14.8722062,19.1627743 C14.8722062,20.3184609 15.3295639,21.3673259 16.0731558,22.1382457 L16.0731558,22.1382457 Z M19.1320196,21.7564317 C20.5791797,21.7564317 21.7523347,20.5832766 21.7523347,19.1361165 C21.7523347,17.6889564 20.5791797,16.5158013 19.1320196,16.5158013 C17.6848594,16.5158013 16.5117044,17.6889564 16.5117044,19.1361165 C16.5117044,20.5832766 17.6848594,21.7564317 19.1320196,21.7564317 L19.1320196,21.7564317 Z M18.1798575,0.149051094 C18.2618325,-0.0212930146 19.8193557,-0.0212930125 19.9493428,0.149051098 C20.0793299,0.319395209 22.000817,5.54443512 22.000817,5.54443512 C22.000817,5.54443512 20.1352473,5.24951761 19.1148038,5.24951757 C18.0943603,5.24951753 16.3987445,5.5230608 16.3987445,5.5230608 C16.3987445,5.5230608 18.0978826,0.319395203 18.1798575,0.149051094 L18.1798575,0.149051094 Z M0.687615557,17.8141627 L5.71967125,16.2097391 C5.71967125,16.2097391 5.14584688,18.7509613 5.63769634,20.9642839 L0.882913523,20.9642839 C0.430310066,20.9642839 0.0634024693,20.5964924 0.0634024693,20.1461579 L0.0634024693,18.6681312 C0.0634024693,18.3064156 0.343897718,17.9237539 0.687615557,17.8141627 L0.687615557,17.8141627 Z M37.7334005,17.8141627 L32.7013449,16.2097391 C32.7013449,16.2097391 33.2751692,18.7509613 32.7833198,20.9642839 L37.5381026,20.9642839 C37.990706,20.9642839 38.3576136,20.5964924 38.3576136,20.1461579 L38.3576136,18.6681312 C38.3576136,18.3064156 38.0771184,17.9237539 37.7334005,17.8141627 L37.7334005,17.8141627 Z" id="Oval-1"></path>
            </g>
        </g>
    </g>
</svg>