<?xml version="1.0" encoding="UTF-8" standalone="no"?>
<svg width="64px" height="64px" viewBox="0 0 64 64" version="1.1" xmlns="http://www.w3.org/2000/svg" xmlns:xlink="http://www.w3.org/1999/xlink">
    <!-- Generator: Sketch 3.6.1 (26313) - http://www.bohemiancoding.com/sketch -->
    <title>icons/skills/id-142</title>
    <desc>Created with Sketch.</desc>
    <defs></defs>
    <g id="Brands" stroke="none" stroke-width="1" fill="none" fill-rule="evenodd">
        <g id="icons/skills/id-142">
            <g id="Page-1" transform="translate(2.000000, 2.000000)">
                <path d="M60,30 C60,46.5683168 46.5683168,60 30,60 C13.4316832,60 0,46.5683168 0,30 C0,13.4316832 13.4316832,0 30,0 C46.5683168,0 60,13.4316832 60,30" id="Fill-1" fill="#FAFBFB"></path>
                <path d="M18.6390297,17.8135842 C13.6982376,22.9902178 12.2528911,28.792396 14.2827921,35.2569505 C17.0534851,44.0781386 26.5067525,48.6274455 35.492495,45.7593267 C36.7138812,45.3696238 38.1099208,45.4611089 39.4263564,45.4474455 C43.0406139,45.4094257 46.6548713,45.4343762 50.7592277,45.4343762 C46.5907129,51.0054653 41.3754653,54.2609109 34.982198,55.4389307 C18.2659604,58.5191287 3.78279208,46.0563564 4.12912871,29.0359604 C4.27645545,21.7872475 11.0214059,16.3801188 18.6390297,17.8135842" id="Fill-3" fill="#66B247"></path>
                <path d="M10.623505,13.2721188 C14.2561782,8.27132673 19.4132079,5.6449901 25.2646931,4.54182178 C41.0607327,1.56558416 55.7595446,13.7295446 55.8765743,29.6782574 C55.9365743,37.9059802 51.3052871,42.1220198 42.9326139,41.7483564 C44.0910297,38.5915248 45.7490495,35.4465743 46.3787525,32.1073663 C48.3718218,21.5295446 38.0797426,11.4899406 27.4888515,13.6285545 C24.7858812,14.173901 22.4559802,13.9517228 19.8023168,13.3725149 C16.9294455,12.7451881 13.7886535,13.3457822 10.7648911,13.4105347 L10.623505,13.2721188 Z" id="Fill-5" fill="#6080BF"></path>
                <path d="M26.439505,17.1399208 C33.7393069,14.5094257 42.5438614,20.0977426 43.3672277,27.8234851 C43.7919802,31.8102178 43.0880198,35.4595248 40.499703,38.6858614 C38.3943564,41.3110099 36.7672277,41.4090297 35.1531683,38.4060594 C33.5711881,35.4636832 32.3533663,32.3133861 31.1325743,29.1927921 C30.3448515,27.1789307 29.950396,25.011802 29.1763366,22.9908119 C28.4408911,21.0702178 27.440495,19.2512079 26.439505,17.1399208" id="Fill-7" fill="#98B2DC"></path>
                <path d="M21.664099,40.5259604 C14.9619208,35.8406139 14.4771683,25.0477426 20.8431089,20.0368515 C21.4300396,19.5746733 23.1082574,19.6827921 23.7130099,20.1948713 C27.2684554,23.2043762 28.0579604,27.7679406 25.9882574,31.8865545 C24.5773663,34.6940792 23.1753861,37.5063564 21.664099,40.5259604" id="Fill-9" fill="#97CA4D"></path>
                <path d="M28.6893861,31.2031485 C30.307604,35.2867129 31.8367129,39.1457228 33.4038416,43.0991881 C33.2773069,43.1556238 32.9125545,43.4710693 32.5751287,43.4443366 C30.2731485,43.2607723 27.9765149,43.0047327 25.6786931,42.7724554 C25.9466139,40.6855248 26.0303762,38.5522574 26.5388911,36.5253267 C26.9862178,34.7431485 27.9087921,33.0809703 28.6893861,31.2031485" id="Fill-11" fill="#99CA50"></path>
            </g>
        </g>
    </g>
</svg>