<?xml version="1.0" encoding="utf-8"?>
<!-- Generator: Adobe Illustrator 23.0.1, SVG Export Plug-In . SVG Version: 6.00 Build 0)  -->
<svg version="1.1" id="Layer_1" xmlns="http://www.w3.org/2000/svg" xmlns:xlink="http://www.w3.org/1999/xlink" x="0px" y="0px"
	 viewBox="0 0 54 54" style="enable-background:new 0 0 54 54;" xml:space="preserve">
<style type="text/css">
	.st0{fill:#FFCC06;}
	.st1{fill:#65C9D3;}
	.st2{fill:#EE376D;}
</style>
<g>
	<path class="st0" d="M39.8,24.6c-0.3,0.8-0.7,1.5-1.1,2.3c-4.3-5.5-10.7-9.2-17.7-10.1c-1.2-0.2-2.4-0.2-3.6-0.2
		c-6.3,0-12.4,2.2-17.2,6.2C2.7,8,16.5-2,31.3,0.3c1.8,0.3,3.6,0.8,5.3,1.4c1.1,0.4,2.1,0.9,3.1,1.4v0c0.6,1.3,1,2.6,1.4,4
		C42.6,12.9,42.2,19.1,39.8,24.6z"/>
	<path class="st1" d="M36.5,52.3C22.6,57.5,7,50.5,1.7,36.5c-0.6-1.7-1.1-3.5-1.4-5.3c-0.2-0.9-0.3-1.9-0.3-2.9l0,0
		c4.4-6.1,11.1-10.2,18.5-11.1c0.8-0.1,1.6-0.2,2.5-0.2c-5.5,13.9,1.2,29.6,15.1,35.1C36.2,52.1,36.4,52.2,36.5,52.3L36.5,52.3z"/>
	<path class="st2" d="M54,27c0,8-3.6,15.7-9.8,20.8c-1,0.9-2.2,1.7-2.8,2C34,49,27.1,45.2,22.6,39.2c-0.5-0.7-1-1.3-1.4-2.1
		c13.4-1.8,23.4-13.2,23.4-26.8c0-1.4-0.1-2.8-0.3-4.2C50.4,11.3,54,19,54,27z"/>
</g>
</svg>
