<?xml version="1.0" encoding="UTF-8" standalone="no"?>
<svg width="64px" height="64px" viewBox="0 0 64 64" version="1.1" xmlns="http://www.w3.org/2000/svg" xmlns:xlink="http://www.w3.org/1999/xlink">
    <!-- Generator: Sketch 3.6.1 (26313) - http://www.bohemiancoding.com/sketch -->
    <title>icons/skills/id-138</title>
    <desc>Created with Sketch.</desc>
    <defs>
        <radialGradient cx="26.1904762%" cy="86.4966299%" fx="26.1904762%" fy="86.4966299%" r="133.307641%" id="radialGradient-1">
            <stop stop-color="#FAFEFF" offset="0%"></stop>
            <stop stop-color="#E8F9FD" offset="56.2954673%"></stop>
            <stop stop-color="#89DEF6" offset="93.0553436%"></stop>
            <stop stop-color="#79D9F4" offset="100%"></stop>
        </radialGradient>
    </defs>
    <g id="Brands" stroke="none" stroke-width="1" fill="none" fill-rule="evenodd">
        <g id="icons/skills/id-138">
            <g id="chatter" transform="translate(2.000000, 2.000000)">
                <rect id="Rectangle-4" fill="#00A2DF" x="0" y="0" width="60" height="60" rx="9.94285714"></rect>
                <path d="M-5.68434189e-13,19.9232903 C1.57688362,19.4525164 3.24522861,19.2 4.97142857,19.2 C9.4148875,19.2 13.4749917,20.8732074 16.5785333,23.635284 C19.8317388,21.2745118 23.8135756,19.8857143 28.1142857,19.8857143 C35.2012444,19.8857143 41.4223234,23.6569042 44.943998,29.3341469 C47.8384806,28.1063489 51.0131435,27.4285714 54.3428571,27.4285714 C56.2899297,27.4285714 58.1839842,27.660331 60,28.0983046 L60,50.0585646 C60,55.5490678 55.5514858,60 50.0585646,60 L9.94143537,60 C4.45093222,60 5.52193212e-14,55.5514858 5.52193212e-14,50.0585646 L5.52193212e-14,19.9232903 L-5.68434189e-13,19.9232903 Z" id="Oval-11" fill="url(#radialGradient-1)"></path>
                <path d="M30.4773222,8.15941593 C31.1351222,8.17081593 31.7920222,8.21181593 32.4460222,8.28361593 C32.8910222,8.33251593 33.3345222,8.39511593 33.7753222,8.47351593 C34.1856222,8.54641593 34.5936222,8.63281593 34.9976222,8.73531593 C35.2782222,8.80651593 35.5568222,8.88531593 35.8327222,8.97301593 C37.3319222,9.44941593 38.8014222,10.2002159 39.8428222,11.4075159 C40.0062222,11.5969159 40.1579222,11.7964159 40.2958222,12.0051159 C40.5107222,12.3302159 40.6858222,12.6757159 40.8327222,13.0363159 L40.8443222,13.0668159 C40.9422222,13.1064159 41.0393222,13.1477159 41.1363222,13.1895159 C41.2528222,13.2413159 41.3684222,13.2944159 41.4835222,13.3491159 C42.0304222,13.6171159 42.5553222,13.9268159 43.0350222,14.3035159 C43.8045222,14.9076159 44.4453222,15.6743159 44.8470222,16.5701159 C45.0743222,17.0769159 45.2231222,17.6171159 45.2934222,18.1679159 C45.3416222,18.5447159 45.3522222,18.9253159 45.3350222,19.3046159 C45.3030222,20.0132159 45.1698222,20.7185159 44.9193222,21.3829159 C44.5012222,22.4918159 43.7501222,23.4740159 42.7414222,24.1066159 C42.4624222,24.2816159 42.1659222,24.4289159 41.8573222,24.5442159 C41.1501222,24.8084159 40.3815222,24.9011159 39.6326222,24.8006159 C39.4382222,24.7745159 39.2461222,24.7341159 39.0553222,24.6889159 C38.7327222,24.6126159 38.4152222,24.5171159 38.1016222,24.4102159 C37.7313222,24.2840159 37.3666222,24.1422159 36.9975222,24.0125159 C36.8730222,23.9702159 36.8735222,23.9704159 36.7485222,23.9296159 C36.4681222,23.8427159 36.1857222,23.7670159 35.8969222,23.7135159 C35.3953222,23.6205159 34.8836222,23.5857159 34.3739222,23.5865159 C33.7789222,23.5873159 33.1821222,23.6654159 32.6124222,23.8397159 C32.2302222,23.9568159 31.8611222,24.1175159 31.5187222,24.3243159 C31.3021222,24.4552159 31.0965222,24.6041159 30.9047222,24.7694159 C30.7859222,24.8718159 30.6723222,24.9804159 30.5645222,25.0944159 C29.6739222,26.0358159 29.2049222,27.2994159 28.9553222,28.5512159 C28.9045222,28.8060159 28.8624222,29.0625159 28.8279222,29.3200159 C28.7834222,29.6520159 28.7513222,29.9857159 28.7295222,30.3199159 C28.6804222,31.0724159 28.6911222,31.8276159 28.8054222,32.5740159 C28.8752222,33.0295159 28.9822222,33.4794159 29.1306222,33.9157159 C29.1984222,34.1150159 29.2763222,34.3101159 29.3597222,34.5033159 L29.3680222,34.5218159 C29.6325222,34.6140159 29.9071222,34.6944159 30.1865222,34.7247159 C30.2079222,34.7266159 30.2293222,34.7284159 30.2509222,34.7291159 C30.6155222,34.7333159 30.9819222,34.7186159 31.3453222,34.6897159 C31.9986222,34.6378159 32.6541222,34.5266159 33.2604222,34.2695159 C33.6206222,34.1167159 33.9569222,33.9157159 34.2868222,33.7066159 C34.5353222,33.5493159 34.7814222,33.3884159 35.0298222,33.2308159 C35.2074222,33.1201159 35.3860222,33.0115159 35.5660222,32.9048159 C35.9311222,32.6961159 36.3166222,32.5300159 36.7207222,32.4129159 C38.3406222,31.9439159 40.1660222,32.2361159 41.5455222,33.2105159 C41.8160222,33.4016159 42.0686222,33.6181159 42.2981222,33.8568159 C42.6928222,34.2673159 43.0176222,34.7429159 43.2590222,35.2585159 C43.3839222,35.5253159 43.4843222,35.8015159 43.5668222,36.0841159 C43.6684222,36.1050159 43.6678222,36.1056159 43.7686222,36.1288159 C44.0713222,36.2059159 44.3678222,36.3000159 44.6555222,36.4227159 C45.2970222,36.6961159 45.8859222,37.0914159 46.3747222,37.5893159 C46.5803222,37.7987159 46.7680222,38.0256159 46.9351222,38.2669159 C47.5084222,39.0946159 47.8205222,40.0748159 47.8953222,41.0748159 C47.9180222,41.3770159 47.9231222,41.6818159 47.8976222,41.9839159 C47.8685222,42.3307159 47.8010222,42.6740159 47.6999222,43.0069159 C47.3134222,44.2799159 46.4556222,45.3559159 45.4636222,46.2181159 C45.2977222,46.3623159 45.1273222,46.5012159 44.9531222,46.6353159 C44.2260222,47.1949159 43.4356222,47.6703159 42.6153222,48.0798159 C41.6539222,48.5598159 40.6481222,48.9504159 39.6201222,49.2626159 C38.4546222,49.6165159 37.2577222,49.8702159 36.0483222,50.0166159 C34.9587222,50.1484159 33.8569222,50.1934159 32.7609222,50.1285159 C31.2212222,50.0374159 29.6956222,49.7308159 28.2412222,49.2173159 C26.7670222,48.6969159 25.3695222,47.9656159 24.0969222,47.0580159 C23.2080222,46.4239159 22.3803222,45.7046159 21.6253222,44.9160159 C21.2566222,44.5309159 20.9071222,44.1287159 20.5725222,43.7138159 L20.5311222,43.6617159 C20.4146222,43.5848159 20.2989222,43.5067159 20.1838222,43.4278159 C20.0647222,43.3447159 19.9464222,43.2606159 19.8288222,43.1755159 C18.9248222,42.5095159 18.0835222,41.7647159 17.3196222,40.9415159 C15.6622222,39.1553159 14.3804222,37.0375159 13.5114222,34.7637159 C12.8898222,33.1373159 12.4782222,31.4335159 12.2642222,29.7062159 C12.1797222,29.0245159 12.1259222,28.3390159 12.1013222,27.6525159 C12.0840222,27.1706159 12.0772222,26.6877159 12.0995222,26.2058159 C12.1487222,25.1416159 12.3008222,24.0813159 12.5231222,23.0400159 C12.8764222,21.3851159 13.4192222,19.7694159 14.1435222,18.2398159 C14.5000222,17.4871159 14.9020222,16.7576159 15.3432222,16.0514159 C15.6519222,15.5573159 15.9837222,15.0771159 16.3423222,14.6178159 C16.9175222,13.8809159 17.5597222,13.1966159 18.2574222,12.5745159 C20.9963222,10.1328159 24.5490222,8.69111593 28.1773222,8.27771593 C28.7938222,8.20741593 29.4121222,8.17111593 30.0323222,8.15931593 C30.2549222,8.15781593 30.2545222,8.15781593 30.4773222,8.15941593 L30.4773222,8.15941593 Z" id="Page-1" fill="#FFFFFF"></path>
                <path d="M33.6683036,48.5142857 C25.0285714,48.5142857 17.8285714,41.1428571 17.8285714,30.6169085 C17.8285714,29.1428571 18.2216375,24.7062715 21.0857143,20.4 C24.3357305,15.4843504 29.9794428,13.7142857 34.2857143,13.7142857 C36.3982248,13.7142857 43.5428571,14.2285714 43.5428571,19.0285714 C43.5428571,21.9428571 41.461243,23.5151057 39.6,23.1428571 C37.8857143,22.8 37.0285714,21.9428571 34.2857143,21.9428571 C31.5428571,21.9428571 27.2571429,23.3142857 26.9142857,30.6169085 C26.5714286,37.9195313 32.5714286,40.2857143 34.2857143,40.2857143 C37.8857143,40.2857143 38.6406793,39.2881752 40.4571429,38.2285714 C42.5142857,37.0285714 46.1142857,38.0571429 46.1142857,41.6571429 C46.1142857,45.2746205 39.5651786,48.5142857 33.6683036,48.5142857 Z" id="c" fill="#FFC670"></path>
                <path d="M29.5540179,44.7428571 C20.9142857,44.7428571 13.7142857,37.3714286 13.7142857,26.8454799 C13.7142857,25.3714286 14.1073518,20.934843 16.9714286,16.6285714 C20.2214448,11.7129219 25.865157,9.94285714 30.1714286,9.94285714 C32.2839391,9.94285714 39.4285714,10.4571429 39.4285714,15.2571429 C39.4285714,18.1714286 37.3469573,19.7436772 35.4857143,19.3714286 C33.7714286,19.0285714 32.9142857,18.1714286 30.1714286,18.1714286 C27.4285714,18.1714286 23.1428571,19.5428571 22.8,26.8454799 C22.4571429,34.1481027 28.4571429,36.5142857 30.1714286,36.5142857 C33.7714286,36.5142857 34.5263936,35.5167466 36.3428571,34.4571429 C38.4,33.2571429 42,34.2857143 42,37.8857143 C42,41.5031919 35.4508929,44.7428571 29.5540179,44.7428571 Z" id="c" fill="#FF3724"></path>
            </g>
        </g>
    </g>
</svg>