<?xml version="1.0" encoding="UTF-8" standalone="no"?>
<svg width="64px" height="64px" viewBox="0 0 64 64" version="1.1" xmlns="http://www.w3.org/2000/svg" xmlns:xlink="http://www.w3.org/1999/xlink">
    <!-- Generator: Sketch 3.6.1 (26313) - http://www.bohemiancoding.com/sketch -->
    <title>icons/skills/id-157</title>
    <desc>Created with Sketch.</desc>
    <defs>
        <linearGradient x1="-79.2484128%" y1="-92.819878%" x2="102.393822%" y2="106.041826%" id="linearGradient-1">
            <stop stop-color="#F9A03C" offset="0%"></stop>
            <stop stop-color="#F7974E" offset="100%"></stop>
        </linearGradient>
        <linearGradient x1="-258.923825%" y1="-245.99449%" x2="97.6202479%" y2="98.283081%" id="linearGradient-2">
            <stop stop-color="#F9A03C" offset="0%"></stop>
            <stop stop-color="#F7974E" offset="100%"></stop>
        </linearGradient>
        <linearGradient x1="-208.625688%" y1="-261.967947%" x2="91.6852743%" y2="101.690818%" id="linearGradient-3">
            <stop stop-color="#F9A03C" offset="0%"></stop>
            <stop stop-color="#F7974E" offset="100%"></stop>
        </linearGradient>
        <linearGradient x1="15.4024229%" y1="-1.82169774%" x2="79.0804991%" y2="92.1067478%" id="linearGradient-4">
            <stop stop-color="#F26D58" offset="0%"></stop>
            <stop stop-color="#F9A03C" offset="100%"></stop>
        </linearGradient>
        <linearGradient x1="15.8436473%" y1="10.9928244%" x2="120.126091%" y2="68.9196662%" id="linearGradient-5">
            <stop stop-color="#B84E51" offset="0%"></stop>
            <stop stop-color="#F68E48" offset="100%"></stop>
        </linearGradient>
        <linearGradient x1="49.1718487%" y1="23.4664325%" x2="50.5165262%" y2="147.391179%" id="linearGradient-6">
            <stop stop-color="#F9A03C" offset="0%"></stop>
            <stop stop-color="#F7974E" offset="100%"></stop>
        </linearGradient>
    </defs>
    <g id="Brands" stroke="none" stroke-width="1" fill="none" fill-rule="evenodd">
        <g id="icons/skills/id-157">
            <path d="M61.8875,45.1606251 C61.9143751,44.899375 61.9337499,44.6356251 61.9487499,44.370625 C61.9668751,44.0568749 43.0668751,26.124375 43.0668751,26.124375 L42.6150001,26.124375 C42.6150001,26.124375 61.7718751,46.3312499 61.8875,45.1606251 L61.8875,45.1606251 L61.8875,45.1606251 L61.8875,45.1606251 Z" id="Shape" fill="url(#linearGradient-1)"></path>
            <path d="M21.56375,38.9399999 C21.53875,38.995 21.51375,39.0500001 21.488125,39.1049999 C21.46125,39.1625001 21.43375,39.22 21.40625,39.2768751 C20.80375,40.5331251 29.8406251,49.3675 30.5675,48.2943749 C30.6006249,48.2468751 30.6337501,48.1968749 30.666875,48.1493751 C30.7037499,48.0931251 30.74,48.0393749 30.7762501,47.9831249 C31.3575001,47.100625 21.821875,38.3662499 21.56375,38.9399999 L21.56375,38.9399999 L21.56375,38.9399999 L21.56375,38.9399999 Z" id="Shape" fill="url(#linearGradient-2)"></path>
            <path d="M34.3337499,51.3631251 C34.308125,51.4193751 34.12625,51.7268751 33.9600001,51.889375 C33.9318751,51.945625 42.7818751,60.7225 42.7818751,60.7225 L43.5787501,60.7225 C43.5793749,60.7225 35.2712499,51.7343751 34.3337499,51.3631251 L34.3337499,51.3631251 L34.3337499,51.3631251 L34.3337499,51.3631251 Z" id="Shape" fill="url(#linearGradient-3)"></path>
            <path d="M61.9612501,44.21125 C61.5474999,53.3862501 53.9568751,60.7225 44.6831251,60.7225 L43.4293749,60.7225 L34.1681251,51.59875 C34.9299999,50.524375 35.6381251,49.4112501 36.2687499,48.2506251 L44.6831251,48.2506251 C47.3443749,48.2506251 49.5099999,46.08625 49.5099999,43.42375 C49.5099999,40.7624999 47.3443749,38.5968749 44.6831251,38.5968749 L39.7037499,38.5968749 C40.083125,36.59125 40.2906249,34.523125 40.2906249,32.4074999 C40.2906249,30.259375 40.079375,28.1618751 39.6862501,26.124375 L42.779375,26.124375 L61.9068751,44.9712501 C61.9293751,44.7187499 61.9475,44.46625 61.9612501,44.21125 L61.9612501,44.21125 L61.9612501,44.21125 L61.9612501,44.21125 Z M7.03125001,4 L2,4 L2,16.471875 L7.03125001,16.471875 C15.81875,16.471875 22.96875,23.62 22.96875,32.4074999 C22.96875,34.7981249 22.435625,37.0675 21.488125,39.1049999 L30.666875,48.1493751 C33.6806251,43.6400001 35.4425,38.22625 35.4425,32.4074999 C35.4425,16.74375 22.696875,4 7.03125001,4 L7.03125001,4 L7.03125001,4 L7.03125001,4 Z" id="Shape" fill="url(#linearGradient-4)"></path>
            <path d="M44.6831251,4 L24.309375,4 C29.2856251,7.03812501 33.40625,11.34625 36.2137501,16.471875 L44.6831251,16.471875 C47.3443749,16.471875 49.5099999,18.63625 49.5099999,21.29875 C49.5099999,23.960625 47.3443749,26.125 44.6831251,26.125 L42.7800001,26.125 L61.9074999,44.9718749 C61.9524999,44.460625 61.9806249,43.9462499 61.9806249,43.42375 C61.9806249,39.2193749 60.471875,35.3624999 57.966875,32.3606249 C60.471875,29.3600001 61.9806249,25.5025 61.9806249,21.29875 C61.9806249,11.760625 54.2218749,4 44.6831251,4 L44.6831251,4 L44.6831251,4 L44.6831251,4 Z" id="Shape" fill="url(#linearGradient-5)"></path>
            <path d="M43.4293749,60.7225 L24.455,60.7225 C28.274375,58.36375 31.57625,55.2500001 34.1681251,51.59875 L43.4293749,60.7225 L43.4293749,60.7225 L43.4293749,60.7225 Z M30.666875,48.1493751 L21.48875,39.1049999 C18.953125,44.554375 13.4275,48.3443751 7.03125001,48.3443751 L2,48.3443751 L2,60.8150001 L7.03125001,60.8150001 C16.8775,60.8150001 25.5681249,55.7787501 30.666875,48.1493751 L30.666875,48.1493751 L30.666875,48.1493751 L30.666875,48.1493751 Z" id="Shape" fill="url(#linearGradient-6)"></path>
        </g>
    </g>
</svg>