<?xml version="1.0" encoding="UTF-8" standalone="no"?>
<svg width="64px" height="64px" viewBox="0 0 64 64" version="1.1" xmlns="http://www.w3.org/2000/svg" xmlns:xlink="http://www.w3.org/1999/xlink">
    <defs></defs>
    <g id="Languages" stroke="none" stroke-width="1" fill="none" fill-rule="evenodd">
        <g id="icons/skills/id-132">
            <path d="M30.2739319,3.09258271 C31.227213,2.54261285 32.7781284,2.5456944 33.7260681,3.09258271 L56.2739319,16.1009657 C57.227213,16.6509355 58,17.9946146 58,19.0883912 L58,45.1051572 C58,46.2050969 57.2218716,47.5456944 56.2739319,48.0925827 L33.7260681,61.1009657 C32.772787,61.6509355 31.2218716,61.647854 30.2739319,61.1009657 L7.72606809,48.0925827 C6.77278701,47.5426129 6,46.1989338 6,45.1051572 L6,19.0883912 C6,17.9884515 6.77812836,16.647854 7.72606809,16.1009657 L30.2739319,3.09258271 L30.2739319,3.09258271 Z" id="Polygon-1" fill="#68217A"></path>
            <path d="M40.5967742,33.3548387 L41.0322581,31.2741935 L39,31.2741935 L39,29 L41.4677419,29 L42.0483871,26 L44.4193548,26 L43.8387097,28.9516129 L45.6774194,28.9516129 L46.2580645,26 L48.5806452,26 L48,28.9516129 L49.1612903,28.9516129 L49.1612903,31.2258065 L47.5645161,31.2258065 L47.1290323,33.3064516 L49.1612903,33.3064516 L49.1612903,35.5806452 L46.6935484,35.5806452 L46.1129032,38.483871 L43.7419355,38.483871 L44.3225806,35.5806452 L42.483871,35.5806452 L41.9032258,38.483871 L39.5806452,38.483871 L40.1612903,35.5806452 L39,35.5806452 L39,33.3064516 L40.5967742,33.3064516 L40.5967742,33.3548387 Z M42.9193548,33.3548387 L44.7580645,33.3548387 L45.1935484,31.2741935 L43.3548387,31.2741935 L42.9193548,33.3548387 L42.9193548,33.3548387 Z" id="Shape" fill="#FFFFFF"></path>
            <path d="M33.034,26.868 C32.5126641,26.2333302 31.8723371,25.7460017 31.113,25.406 C30.3536629,25.0659983 29.4753383,24.896 28.478,24.896 C27.4806617,24.896 26.5570043,25.0886647 25.707,25.474 C24.8569957,25.8593353 24.1203364,26.3976632 23.497,27.089 C22.8736635,27.7803368 22.3863351,28.6019952 22.035,29.554 C21.6836649,30.5060048 21.508,31.5373278 21.508,32.648 C21.508,33.781339 21.6836649,34.8183286 22.035,35.759 C22.3863351,36.6996714 22.8679969,37.5156632 23.48,38.207 C24.0920031,38.8983368 24.8116625,39.4366647 25.639,39.822 C26.4663375,40.2073353 27.3559952,40.4 28.308,40.4 C29.3960054,40.4 30.3593291,40.1733356 31.198,39.72 C32.0366709,39.2666644 32.7279973,38.6320041 33.272,37.816 L37.692,41.114 C36.6719949,42.5420071 35.3800078,43.5959966 33.816,44.276 C32.2519922,44.9560034 30.6426749,45.296 28.988,45.296 C27.1066573,45.296 25.3726746,45.0013363 23.786,44.412 C22.1993254,43.8226637 20.8280058,42.9783388 19.672,41.879 C18.5159942,40.7796612 17.6150032,39.4480078 16.969,37.884 C16.3229968,36.3199922 16,34.5746763 16,32.648 C16,30.7213237 16.3229968,28.9760078 16.969,27.412 C17.6150032,25.8479922 18.5159942,24.5163388 19.672,23.417 C20.8280058,22.3176612 22.1993254,21.4733363 23.786,20.884 C25.3726746,20.2946637 27.1066573,20 28.988,20 C29.6680034,20 30.3763296,20.0623327 31.113,20.187 C31.8496704,20.3116673 32.5749964,20.5099986 33.289,20.782 C34.0030036,21.0540014 34.6886634,21.4166644 35.346,21.87 C36.0033366,22.3233356 36.5926641,22.8786634 37.114,23.536 L33.034,26.868 Z" id="C" fill="#FFFFFF"></path>
        </g>
    </g>
</svg>