<?xml version="1.0" encoding="UTF-8" standalone="no"?>
<svg width="64px" height="64px" viewBox="0 0 64 64" version="1.1" xmlns="http://www.w3.org/2000/svg" xmlns:xlink="http://www.w3.org/1999/xlink">
    <defs></defs>
    <g id="Technologies" stroke="none" stroke-width="1" fill="none" fill-rule="evenodd">
        <g id="icons/skills/id-155">
            <circle id="Oval-3" fill="#6EC2D9" cx="32" cy="32" r="30"></circle>
            <path d="M47.8280397,33.7811307 L30.7488994,16.7019904 C30.3612008,16.3142918 29.5978049,16 29.0448037,16 L19.9932245,16 C18.3401122,16 17,17.3471077 17,18.9932245 L17,28.0448037 C17,28.5982512 17.3208092,29.3677182 17.7019904,29.7488994 L34.7811307,46.8280397 C35.1688293,47.2157383 35.8056308,47.2075205 36.1845796,46.8285717 L47.8285717,35.1845796 C48.2159765,34.7971748 48.209221,34.1623119 47.8280397,33.7811307 Z M22.4362121,23.6106969 C22.4362121,22.4092941 23.4092941,21.4362121 24.6106969,21.4362121 C25.8120998,21.4362121 26.7851818,22.4092941 26.7851818,23.6106969 C26.7851818,24.8120998 25.8120998,25.7851818 24.6106969,25.7851818 C23.4092941,25.7851818 22.4362121,24.8120998 22.4362121,23.6106969 L22.4362121,23.6106969 Z" id="Stroke-4736" fill="#FFFFFF"></path>
            <path d="M32.2213939,26.8724242 L39.8320908,34.4831211" id="Stroke-4740" stroke="#A3A3AE" stroke-width="2" stroke-linecap="round" stroke-linejoin="round"></path>
            <path d="M27.8724242,31.2213939 L35.4831211,38.8320908" id="Stroke-4741" stroke="#A3A3AE" stroke-width="2" stroke-linecap="round" stroke-linejoin="round"></path>
        </g>
    </g>
</svg>