<?xml version="1.0" encoding="UTF-8" standalone="no"?>
<svg width="64px" height="64px" viewBox="0 0 64 64" version="1.1" xmlns="http://www.w3.org/2000/svg" xmlns:xlink="http://www.w3.org/1999/xlink">
    <!-- Generator: Sketch 3.6.1 (26313) - http://www.bohemiancoding.com/sketch -->
    <title>icons/skills/id-189</title>
    <desc>Created with Sketch.</desc>
    <defs></defs>
    <g id="Skills---Develop" stroke="none" stroke-width="1" fill="none" fill-rule="evenodd">
        <g id="icons/skills/id-189">
            <g id="id-189" transform="translate(5.000000, 5.000000)">
                <g id="Layer_1">
                    <g id="Group">
                        <path d="M50,54 L8,54 C5.8,54 4,52.2 4,50 L4,8 C4,5.8 5.8,4 8,4 L50,4 C52.2,4 54,5.8 54,8 L54,50 C54,52.2 52.2,54 50,54 L50,54 Z" id="Shape" fill="#A3A18E"></path>
                        <path d="M46,50 L4,50 C1.8,50 0,48.2 0,46 L0,20 L50,20 L50,46 C50,48.2 48.2,50 46,50 L46,50 Z" id="Shape" fill="#D6CFAA"></path>
                        <path d="M50,20 L0,20 L0,4 C0,1.8 1.8,0 4,0 L46,0 C48.2,0 50,1.8 50,4 L50,20 L50,20 Z" id="Shape" fill="#EAE3BE"></path>
                        <g transform="translate(6.000000, 5.000000)" id="Shape" fill="#424242">
                            <path d="M4.1,4.2 L2.7,4.2 L2.7,9 L1,9 L1,4.2 L0.1,4.2 L0.1,3.4 L1,3 L1,2.6 C1,1.9 1.2,1.4 1.5,1.1 C1.8,0.8 2.4,0.6 3.1,0.6 C3.7,0.6 4.2,0.7 4.6,0.9 L4.2,2 C3.9,1.9 3.6,1.8 3.3,1.8 C3.1,1.8 2.9,1.9 2.8,2 C2.7,2.1 2.6,2.3 2.6,2.5 L2.6,3 L4,3 L4,4.2 L4.1,4.2 Z"></path>
                            <path d="M9.3,9 L9.1,8.2 L9,8.2 C8.8,8.5 8.6,8.7 8.3,8.8 C8,8.9 7.6,9 7.2,9 C6.5,9 6,8.8 5.6,8.4 C5.2,8 5.1,7.5 5.1,6.8 L5.1,3 L6.7,3 L6.7,6.5 C6.7,6.9 6.8,7.3 6.9,7.5 C7.1,7.7 7.3,7.8 7.6,7.8 C8.1,7.8 8.4,7.6 8.6,7.3 C8.8,7 8.9,6.5 8.9,5.8 L8.9,3 L10.5,3 L10.5,9 L9.3,9 L9.3,9 Z"></path>
                            <path d="M17.8,9 L16.2,9 L16.2,5.5 C16.2,5.1 16.1,4.7 16,4.5 C15.9,4.3 15.6,4.2 15.3,4.2 C14.8,4.2 14.5,4.4 14.3,4.7 C14.1,5 14,5.5 14,6.2 L14,9 L12.4,9 L12.4,3 L13.7,3 L13.9,3.8 L14,3.8 C14.2,3.5 14.4,3.3 14.8,3.1 C15.1,3 15.5,2.9 15.9,2.9 C16.6,2.9 17.1,3.1 17.5,3.5 C17.9,3.9 18,4.4 18,5.1 L18,9 L17.8,9 Z"></path>
                            <path d="M21.9,9.1 C20,9.1 19.1,8.1 19.1,6 C19.1,5 19.4,4.2 19.9,3.7 C20.4,3.2 21.1,2.9 22.1,2.9 C22.8,2.9 23.4,3 24,3.3 L23.5,4.6 C23.2,4.5 23,4.4 22.8,4.3 C22.6,4.2 22.4,4.2 22.1,4.2 C21.2,4.2 20.8,4.8 20.8,6 C20.8,7.2 21.2,7.8 22.1,7.8 C22.4,7.8 22.7,7.8 23,7.7 C23.3,7.6 23.5,7.5 23.8,7.3 L23.8,8.7 C23.5,8.9 23.3,9 23,9 C22.7,9.1 22.3,9.1 21.9,9.1 L21.9,9.1 Z"></path>
                            <path d="M24.7,6 C24.7,5.1 24.8,4.2 25.1,3.3 C25.4,2.4 25.8,1.7 26.3,1.1 L27.6,1.1 C27.1,1.8 26.7,2.6 26.5,3.4 C26.3,4.2 26.1,5.1 26.1,6 C26.1,6.9 26.2,7.7 26.5,8.5 C26.8,9.3 27.1,10.1 27.6,10.7 L26.3,10.7 C25.8,10.1 25.4,9.4 25.1,8.6 C24.9,7.8 24.7,6.9 24.7,6 L24.7,6 Z"></path>
                            <path d="M30.1,5.9 L28.2,3 L30,3 L31.2,4.9 L32.4,3 L34.3,3 L32.3,5.9 L34.3,9 L32.4,9 L31.1,6.9 L29.9,9 L28,9 L30.1,5.9 L30.1,5.9 Z"></path>
                            <path d="M37.7,6 C37.7,6.9 37.6,7.8 37.3,8.6 C37,9.4 36.6,10.1 36.1,10.7 L34.8,10.7 C35.3,10 35.7,9.3 35.9,8.5 C36.2,7.7 36.3,6.8 36.3,6 C36.3,5.1 36.2,4.3 35.9,3.4 C35.6,2.5 35.3,1.8 34.8,1.1 L36,1.1 C36.5,1.7 36.9,2.5 37.2,3.3 C37.5,4.2 37.7,5 37.7,6 L37.7,6 Z"></path>
                        </g>
                        <g opacity="0.5" transform="translate(10.000000, 27.000000)" id="Shape" fill="#424242">
                            <path d="M2.7,10.6 C2.7,10.1 2.5,9.7 2.1,9.4 C1.7,9.1 1.2,9 0.4,9 L0.4,7 C1.1,7 1.7,6.9 2.1,6.6 C2.5,6.3 2.7,6 2.7,5.5 L2.7,5.4 L2.7,2.6 C2.7,1.7 3,1.1 3.6,0.7 C4.2,0.3 5.2,0.2 6.6,0.2 L6.6,2.2 C6,2.2 5.6,2.3 5.4,2.5 C5.2,2.7 5.1,3 5.1,3.4 L5.1,6 C5.1,7.1 4.4,7.8 3,8 L3,8.1 C4.4,8.3 5.1,8.9 5.1,10 L5.1,10 L5.1,12.6 C5.1,13 5.2,13.3 5.4,13.5 C5.6,13.7 6,13.8 6.6,13.8 L6.6,15.8 C5.2,15.8 4.2,15.6 3.6,15.3 C3,15 2.7,14.3 2.7,13.4 L2.7,10.6 L2.7,10.6 Z"></path>
                            <path d="M8.3,11.7 C8.3,11.2 8.4,10.8 8.7,10.6 C9,10.4 9.3,10.2 9.9,10.2 C10.4,10.2 10.8,10.3 11,10.6 C11.3,10.9 11.4,11.2 11.4,11.7 C11.4,12.2 11.3,12.5 11,12.8 C10.7,13.1 10.4,13.2 9.9,13.2 C9.4,13.2 9,13.1 8.8,12.8 C8.6,12.5 8.3,12.2 8.3,11.7 L8.3,11.7 Z"></path>
                            <path d="M13.5,11.7 C13.5,11.2 13.6,10.8 13.9,10.6 C14.2,10.4 14.5,10.2 15.1,10.2 C15.6,10.2 16,10.3 16.2,10.6 C16.5,10.9 16.6,11.2 16.6,11.7 C16.6,12.2 16.5,12.5 16.2,12.8 C15.9,13.1 15.6,13.2 15.1,13.2 C14.6,13.2 14.2,13.1 14,12.8 C13.8,12.5 13.5,12.2 13.5,11.7 L13.5,11.7 Z"></path>
                            <path d="M18.6,11.7 C18.6,11.2 18.7,10.8 19,10.6 C19.3,10.4 19.6,10.2 20.2,10.2 C20.7,10.2 21.1,10.3 21.3,10.6 C21.6,10.9 21.7,11.2 21.7,11.7 C21.7,12.2 21.6,12.5 21.3,12.8 C21,13.1 20.7,13.2 20.2,13.2 C19.7,13.2 19.3,13.1 19.1,12.8 C18.9,12.5 18.6,12.2 18.6,11.7 L18.6,11.7 Z"></path>
                            <path d="M27.3,13.4 C27.3,14.1 27.2,14.6 26.9,14.9 C26.6,15.2 26.3,15.5 25.7,15.6 C25.1,15.8 24.4,15.8 23.4,15.8 L23.4,13.8 C24,13.8 24.4,13.7 24.6,13.5 C24.8,13.3 24.9,13 24.9,12.6 L24.9,10 L24.9,9.9 C24.9,9.4 25.1,9 25.4,8.7 C25.7,8.4 26.3,8.2 26.9,8.1 L26.9,8 C25.6,7.8 24.9,7.2 24.9,6 L24.9,3.4 C24.9,3 24.8,2.7 24.6,2.5 C24.4,2.3 24,2.2 23.4,2.2 L23.4,0.2 C24.4,0.2 25.1,0.3 25.7,0.4 C26.3,0.5 26.7,0.8 26.9,1.1 C27.1,1.4 27.3,1.9 27.3,2.6 L27.3,5.4 L27.3,5.5 C27.3,6 27.5,6.4 27.8,6.6 C28.2,6.8 28.7,7 29.5,7 L29.5,9.1 C28.8,9.1 28.2,9.2 27.8,9.5 C27.4,9.7 27.2,10.1 27.2,10.7 L27.2,13.4 L27.3,13.4 Z"></path>
                        </g>
                    </g>
                </g>
            </g>
        </g>
    </g>
</svg>