<?xml version="1.0" encoding="UTF-8" standalone="no"?>
<svg width="64px" height="64px" viewBox="0 0 64 64" version="1.1" xmlns="http://www.w3.org/2000/svg" xmlns:xlink="http://www.w3.org/1999/xlink">
    <defs></defs>
    <g id="Frameworks" stroke="none" stroke-width="1" fill="none" fill-rule="evenodd">
        <g id="icons/skills/id-110">
            <g id="angularjs-original" transform="translate(3.000000, 2.000000)">
                <path d="M28.4809524,0.0123809524 L0.263333333,9.94285714 L4.72190476,46.9128571 L28.5109524,59.987619 L52.422381,46.7361905 L56.8795238,9.76714286 L28.4809524,0.0123809524 Z" id="Shape" fill="#B3B3B3"></path>
                <path d="M54.0647619,11.9038095 L28.4152381,3.15666667 L28.4152381,56.8638095 L49.9109524,44.9671429 L54.0647619,11.9038095 Z" id="Shape" fill="#A6120D"></path>
                <path d="M3.42904762,12.0614286 L7.25095238,45.1252381 L28.4147619,56.8638095 L28.4147619,3.15571429 L3.42904762,12.0614286 Z" id="Shape" fill="#DD1B16"></path>
                <path d="M35.4757143,31.747619 L28.4152381,35.0495238 L20.9733333,35.0495238 L17.4747619,43.7990476 L10.9685714,43.92 L28.4152381,5.10666667 L35.4757143,31.747619 L35.4757143,31.747619 Z M34.7928571,30.0852381 L28.4619048,17.5514286 L23.2685714,29.8695238 L28.4147619,29.8695238 L34.7928571,30.0852381 L34.7928571,30.0852381 Z" id="Shape" fill="#F2F2F2"></path>
                <path d="M28.4147619,5.10666667 L28.4614286,17.5514286 L34.3542857,29.8790476 L28.427619,29.8790476 L28.4147619,35.0414286 L36.6095238,35.0495238 L40.4390476,43.9209524 L46.6647619,44.0361905 L28.4147619,5.10666667 Z" id="Shape" fill="#B3B3B3"></path>
            </g>
        </g>
    </g>
</svg>