<?xml version="1.0" encoding="UTF-8" standalone="no"?>
<svg width="60px" height="60px" viewBox="0 0 60 60" version="1.1" xmlns="http://www.w3.org/2000/svg" xmlns:xlink="http://www.w3.org/1999/xlink" xmlns:sketch="http://www.bohemiancoding.com/sketch/ns">
    <!-- Generator: Sketch 3.3.3 (12081) - http://www.bohemiancoding.com/sketch -->
    <title>icons/skills/id 328</title>
    <desc>Created with Sketch.</desc>
    <defs></defs>
    <g id="Page-1" stroke="none" stroke-width="1" fill="none" fill-rule="evenodd" sketch:type="MSPage">
        <g id="icons/skills/id-328" sketch:type="MSArtboardGroup">
            <g id="Imported-Layers" sketch:type="MSLayerGroup" transform="translate(0.000000, 9.000000)">
                <path d="M24.9679021,4.69880718 C26.9026568,2.68305088 29.5965662,1.43250426 32.5762687,1.43250426 C36.5374094,1.43250426 39.9923573,3.64067304 41.8327895,6.91922039 C43.4323697,6.20500676 45.2021609,5.80726458 47.0645255,5.80726458 C54.2082764,5.80726458 60.0000269,11.6493383 60.0000269,18.8555224 C60.0000269,26.062783 54.2082764,31.9048567 47.0645255,31.9048567 C46.1924798,31.9048567 45.3406172,31.8165892 44.5160691,31.6508184 C42.8961713,34.5405042 39.8080181,36.4938273 36.263188,36.4938273 C34.7799972,36.4938273 33.3770007,36.151656 32.1265886,35.5414528 C30.4846238,39.40558 26.6565572,42.1153668 22.1963549,42.1153668 C17.5508716,42.1153668 13.59148,39.1762996 12.0720941,35.0538284 C11.4080692,35.1940339 10.7194209,35.2680387 10.0139533,35.2680387 C4.48323791,35.2680387 2.69108377e-05,30.7381374 2.69108377e-05,25.1499674 C2.69108377e-05,21.4041133 2.01322668,18.134312 5.00692281,16.3847039 C4.39066463,14.96583 4.04849333,13.401503 4.04849333,11.7560398 C4.04849333,5.3293281 9.26623564,0.11871716 15.7016934,0.11871716 C19.4803786,0.11871716 22.838313,1.91488102 24.9679021,4.69880718" id="Fill-1" fill="#149CD8" sketch:type="MSShapeGroup"></path>
                <path d="M8.68991315,21.896918 C8.65196886,21.9956808 8.70309946,22.0159985 8.71547844,22.0328178 C8.82836941,22.1147613 8.94206769,22.1738306 9.05764974,22.2400312 C9.66960219,22.5644414 10.2480506,22.6587639 10.852199,22.6587639 C12.0831007,22.6587639 12.8476376,22.0045614 12.8476376,20.950733 L12.8476376,20.9305499 C12.8476376,19.9559739 11.9843379,19.6015581 11.1758018,19.3459052 L11.0699076,19.3122666 C10.4597044,19.1139338 9.9333284,18.9427808 9.9333284,18.5407329 L9.9333284,18.5204152 C9.9333284,18.1764947 10.2410538,17.9233983 10.7180484,17.9233983 C11.2480574,17.9233983 11.8768291,18.0997988 12.2815681,18.3238316 C12.2815681,18.3238316 12.4014559,18.4005275 12.4446478,18.28508 C12.4684639,18.2223777 12.6731208,17.6712438 12.6951877,17.6112326 C12.7180619,17.5469157 12.6775611,17.4984762 12.6351765,17.4729109 C12.1721755,17.1915581 11.5329086,16.9992801 10.8715748,16.9992801 L10.7489959,17.000222 C9.62197001,17.000222 8.83536622,17.6809317 8.83536622,18.6561804 L8.83536622,18.6764981 C8.83536622,19.7038193 9.70310618,20.0380519 10.5162171,20.2700233 L10.6467347,20.3105242 C11.2393114,20.4921723 11.7498099,20.649197 11.7498099,21.0653732 L11.7498099,21.0866327 C11.7498099,21.4674211 11.4173265,21.751465 10.8830119,21.751465 C10.6748565,21.751465 10.0125808,21.7479665 9.29742531,21.2955954 C9.21104152,21.2443302 9.16166013,21.2082697 9.09465214,21.1676343 C9.05939895,21.1455674 8.97126595,21.1077577 8.93237979,21.2232052 L8.68991315,21.896918 L8.68991315,21.896918 Z" id="Fill-2" fill="#FEFEFE" sketch:type="MSShapeGroup"></path>
                <path d="M26.7078223,21.896918 C26.669878,21.9956808 26.7210086,22.0159985 26.7333876,22.0328178 C26.8462786,22.1147613 26.9599769,22.1738306 27.0755589,22.2400312 C27.6875114,22.5644414 28.2659598,22.6587639 28.8701081,22.6587639 C30.1010098,22.6587639 30.8655467,22.0045614 30.8655467,20.950733 L30.8655467,20.9305499 C30.8655467,19.9559739 30.0022471,19.6015581 29.1937109,19.3459052 L29.0878168,19.3122666 C28.4776135,19.1139338 27.9512376,18.9427808 27.9512376,18.5407329 L27.9512376,18.5204152 C27.9512376,18.1764947 28.258963,17.9233983 28.7359576,17.9233983 C29.2659665,17.9233983 29.8947383,18.0997988 30.2994773,18.3238316 C30.2994773,18.3238316 30.419365,18.4005275 30.4625569,18.28508 C30.486373,18.2223777 30.6910299,17.6712438 30.7130968,17.6112326 C30.735971,17.5469157 30.6954702,17.4984762 30.6530857,17.4729109 C30.1900847,17.1915581 29.5517596,16.9992801 28.8894839,16.9992801 L28.7669051,17.000222 C27.6398792,17.000222 26.8532754,17.6809317 26.8532754,18.6561804 L26.8532754,18.6764981 C26.8532754,19.7038193 27.7219572,20.0380519 28.5341263,20.2700233 L28.6646439,20.3105242 C29.2572205,20.4921723 29.768661,20.649197 29.768661,21.0653732 L29.768661,21.0866327 C29.768661,21.4674211 29.4361776,21.751465 28.900921,21.751465 C28.6927657,21.751465 28.0314319,21.7479665 27.3153345,21.2955954 C27.2289507,21.2443302 27.1778201,21.2100189 27.1125613,21.1676343 C27.0904944,21.1536407 26.986484,21.1130053 26.9512308,21.2232052 L26.7078223,21.896918 L26.7078223,21.896918 Z" id="Fill-3" fill="#FEFEFE" sketch:type="MSShapeGroup"></path>
                <path d="M39.0081742,19.8324531 C39.0081742,20.4277209 38.8970324,20.8977186 38.6783819,21.2292602 C38.4614805,21.5573033 38.1342447,21.7178264 37.6783751,21.7178264 C37.2215637,21.7178264 36.8962116,21.5573033 36.6828087,21.2292602 C36.4667147,20.8977186 36.3574567,20.4277209 36.3574567,19.8324531 C36.3574567,19.2381273 36.4667147,18.7689368 36.6818668,18.4410283 C36.8962116,18.1164836 37.2215637,17.9585169 37.6783751,17.9585169 C38.1342447,17.9585169 38.4614805,18.1164836 38.6783819,18.4410283 C38.8970324,18.7689368 39.0081742,19.2381273 39.0081742,19.8324531 M40.0354954,18.728436 C39.9349834,18.3872066 39.7771514,18.086478 39.5681887,17.8360726 C39.3590915,17.5847254 39.0937506,17.3827596 38.7788938,17.2363646 C38.4649789,17.0899697 38.0945512,17.015023 37.6783751,17.015023 C37.2612571,17.015023 36.8900221,17.0899697 36.5761072,17.2363646 C36.2621923,17.3827596 35.9967169,17.5847254 35.7877542,17.83688 C35.5778497,18.0874199 35.4209595,18.3881485 35.3204475,18.728436 C35.219801,19.0679162 35.1686704,19.4391512 35.1686704,19.8324531 C35.1686704,20.225755 35.219801,20.5979319 35.3204475,20.9364702 C35.4209595,21.2768923 35.5778497,21.5776209 35.7877542,21.8289682 C35.9967169,22.0801808 36.2629996,22.2813394 36.5770491,22.4241013 C36.890964,22.5669979 37.2612571,22.639388 37.6783751,22.639388 C38.0945512,22.639388 38.464037,22.5669979 38.7788938,22.4241013 C39.0928088,22.2813394 39.3582842,22.0801808 39.5681887,21.8289682 C39.7771514,21.5785628 39.9349834,21.2778342 40.0354954,20.9364702 C40.1360074,20.59699 40.187138,20.225755 40.187138,19.8324531 C40.187138,19.4391512 40.1360074,19.0679162 40.0354954,18.728436" id="Fill-4" fill="#FEFEFE" sketch:type="MSShapeGroup"></path>
                <path d="M48.4720565,21.5580568 C48.4385525,21.4584867 48.340597,21.496431 48.340597,21.496431 C48.1916455,21.553751 48.0328716,21.605689 47.8626605,21.6321961 C47.6916422,21.6595106 47.5028626,21.6726969 47.3000895,21.6726969 C46.8035845,21.6726969 46.4077261,21.5245528 46.1246241,21.2327047 C45.8415221,20.9399148 45.6819408,20.467226 45.68369,19.827959 C45.6854392,19.2468195 45.8256447,18.8095184 46.0779338,18.4752858 C46.3283391,18.1437442 46.7102039,17.9735332 47.218146,17.9735332 C47.6413189,17.9735332 47.9650563,18.0229146 48.3035946,18.1286742 C48.3035946,18.1286742 48.3847308,18.1639274 48.4226751,18.0581678 C48.5134991,17.8076279 48.5795653,17.63042 48.6757715,17.3561986 C48.703086,17.2777535 48.636078,17.2450568 48.61132,17.2353689 C48.478246,17.1832964 48.164331,17.0978545 47.9261701,17.0616595 C47.7048285,17.0281555 47.4447352,17.0105289 47.1554437,17.0105289 C46.7243321,17.0105289 46.3397762,17.0845337 46.0109258,17.2309286 C45.6819408,17.3765163 45.404221,17.5784821 45.1828793,17.8296948 C44.962345,18.081042 44.794825,18.3817706 44.6836833,18.7221927 C44.5717342,19.0616729 44.5161633,19.4337152 44.5161633,19.8287663 C44.5161633,20.6806289 44.7454437,21.3694118 45.199564,21.8729136 C45.6546263,22.3799138 46.3372197,22.6365086 47.2278339,22.6365086 C47.7542099,22.6365086 48.2939067,22.5298071 48.6827683,22.3772227 C48.6827683,22.3772227 48.7569077,22.3411621 48.724211,22.2547784 L48.4720565,21.5580568 L48.4720565,21.5580568 Z" id="Fill-5" fill="#FEFEFE" sketch:type="MSShapeGroup"></path>
                <path d="M50.2696466,19.2617819 C50.319028,18.9310477 50.4098521,18.6560189 50.5509994,18.4416741 C50.7634605,18.1163221 51.0880052,17.9364231 51.5448166,17.9364231 C52.0014936,17.9364231 52.3022222,18.1163221 52.5191235,18.4416741 C52.6629619,18.6568263 52.7255296,18.9426194 52.7501531,19.2627238 L50.2696466,19.2617819 L50.2696466,19.2617819 Z M53.7280929,18.5351893 C53.6409018,18.205397 53.4248078,17.8729136 53.2836604,17.721271 C53.0597622,17.4796117 52.8401698,17.3111498 52.6232685,17.2177692 C52.3401664,17.0959977 51.9997443,17.0158034 51.6267601,17.0158034 C51.1929574,17.0158034 50.7987137,17.0890009 50.4786092,17.2388942 C50.1585048,17.3887876 49.889531,17.5942518 49.6778773,17.8500394 C49.4671654,18.104885 49.3083915,18.4081701 49.2070722,18.7530325 C49.1056183,19.0952038 49.0544877,19.468188 49.0544877,19.8622972 C49.0544877,20.2635378 49.1073675,20.6374639 49.2123198,20.9725039 C49.3182139,21.3119841 49.4874831,21.6092143 49.7158216,21.8570631 C49.9451019,22.1057192 50.2388337,22.2996118 50.5906929,22.4363189 C50.9406683,22.5712767 51.365725,22.6417831 51.8533494,22.6400339 C52.8577964,22.6373428 53.3868635,22.4134447 53.6047067,22.292615 C53.6434583,22.2705481 53.6796534,22.2335457 53.6347123,22.1260369 L53.4062393,21.4893265 C53.371928,21.3948694 53.2757217,21.4293153 53.2757217,21.4293153 C53.0262582,21.5218886 52.6734572,21.6876594 51.8481018,21.6859102 C51.3084049,21.6851028 50.9089135,21.5263289 50.6585082,21.2767309 C50.4019134,21.0228271 50.2748942,20.648901 50.2537692,20.1207758 L53.730784,20.1233324 C53.730784,20.1233324 53.8225499,20.1223905 53.8322378,20.0325083 C53.8357362,19.9955059 53.9511837,19.3182947 53.7280929,18.5351893 L53.7280929,18.5351893 Z" id="Fill-6" fill="#FEFEFE" sketch:type="MSShapeGroup"></path>
                <path d="M22.4175889,19.2617819 C22.4669703,18.9310477 22.5577944,18.6560189 22.6979999,18.4416741 C22.9123447,18.1163221 23.2359475,17.9364231 23.692759,17.9364231 C24.1494359,17.9364231 24.4511064,18.1163221 24.6680077,18.4416741 C24.8109043,18.6568263 24.873472,18.9426194 24.8980954,19.2627238 L22.4175889,19.2617819 L22.4175889,19.2617819 Z M25.8760352,18.5351893 C25.7888441,18.205397 25.5727501,17.8729136 25.4316027,17.721271 C25.2077046,17.4796117 24.9889195,17.3111498 24.7712108,17.2177692 C24.4871669,17.0959977 24.1476867,17.0158034 23.7756443,17.0158034 C23.3408998,17.0158034 22.946656,17.0890009 22.6265516,17.2388942 C22.3064472,17.3887876 22.0374733,17.5942518 21.8258196,17.8500394 C21.6151077,18.104885 21.4563338,18.4081701 21.3550145,18.7530325 C21.2535606,19.0952038 21.20243,19.468188 21.20243,19.8622972 C21.20243,20.2635378 21.2553098,20.6374639 21.3602621,20.9725039 C21.4661563,21.3119841 21.6354254,21.6092143 21.8637639,21.8570631 C22.0930442,22.1057192 22.386776,22.2996118 22.7386352,22.4363189 C23.0886107,22.5712767 23.5136673,22.6417831 24.0012917,22.6400339 C25.0057387,22.6373428 25.5348058,22.4134447 25.752649,22.292615 C25.7914006,22.2705481 25.8275957,22.2335457 25.7826546,22.1260369 L25.5541816,21.4893265 C25.5198703,21.3948694 25.423664,21.4293153 25.423664,21.4293153 C25.1742006,21.5218886 24.8213995,21.6876594 23.9960441,21.6859102 C23.4572891,21.6851028 23.0568559,21.5263289 22.8064505,21.2767309 C22.5498557,21.0228271 22.4228365,20.648901 22.4017115,20.1207758 L25.8787263,20.1233324 C25.8787263,20.1233324 25.9704923,20.1223905 25.9801802,20.0325083 C25.9836786,19.9955059 26.0991261,19.3182947 25.8760352,18.5351893 L25.8760352,18.5351893 Z" id="Fill-7" fill="#FEFEFE" sketch:type="MSShapeGroup"></path>
                <path d="M14.9005846,21.5390443 C14.7638776,21.4305936 14.7454437,21.4032791 14.700368,21.3327727 C14.6308035,21.2260712 14.5954157,21.0742941 14.5954157,20.8804015 C14.5954157,20.5752326 14.6968696,20.3548329 14.9058323,20.207496 C14.904083,20.207496 15.2057535,19.9464609 15.9147196,19.9561488 C16.4128392,19.9623383 16.8591554,20.0364776 16.8591554,20.0364776 L16.8591554,21.6176239 C16.8591554,21.6176239 16.4172794,21.7119464 15.9199672,21.741952 C15.2127504,21.7851439 14.8978936,21.5382369 14.9005846,21.5390443 M16.2842054,19.0955402 C16.143058,19.0849104 15.960468,19.0796628 15.7418174,19.0796628 C15.4437799,19.0796628 15.1554303,19.1166652 14.8847072,19.1898627 C14.6130423,19.2630602 14.3688265,19.3759511 14.158922,19.5258445 C13.9472682,19.6774871 13.777999,19.8707069 13.6546129,20.0999872 C13.5310921,20.3292676 13.4685244,20.5990487 13.4685244,20.9005846 C13.4685244,21.2092519 13.5214042,21.4764766 13.6281057,21.6951271 C13.7338653,21.9147196 13.8864497,22.0981169 14.0814187,22.2392643 C14.274504,22.380277 14.5134722,22.4834801 14.7894429,22.5460478 C15.062857,22.6087501 15.3723316,22.6405048 15.7110045,22.6405048 C16.0681113,22.6405048 16.4226616,22.6104993 16.7673894,22.5522373 C17.1086189,22.4941099 17.5266787,22.4094753 17.6430681,22.3821608 C17.7585156,22.3556536 17.8864766,22.3204004 17.8864766,22.3204004 C17.9728604,22.2983335 17.965729,22.2065676 17.965729,22.2065676 L17.9639798,19.026783 C17.9639798,18.3283122 17.778026,17.8116241 17.4120386,17.4907124 C17.0469931,17.1714153 16.5090454,17.0100848 15.8142076,17.0100848 C15.5531725,17.0100848 15.1343053,17.045338 14.8820162,17.0956613 C14.8820162,17.0956613 14.1228614,17.2428636 13.8106957,17.4880213 C13.8106957,17.4880213 13.741804,17.5302713 13.7789409,17.6264776 L14.024906,18.2878114 C14.0558534,18.3733879 14.1395461,18.3441896 14.1395461,18.3441896 C14.1395461,18.3441896 14.1660533,18.3336944 14.1968662,18.3151259 C14.8653314,17.9518296 15.7118118,17.9624594 15.7118118,17.9624594 C16.0874871,17.9624594 16.3767786,18.0391553 16.5716131,18.1872994 C16.7612,18.3336944 16.8574062,18.5523449 16.8574062,19.0161532 L16.8574062,19.1634901 C16.5592341,19.1201636 16.2842054,19.0955402 16.2842054,19.0955402" id="Fill-8" fill="#FEFEFE" sketch:type="MSShapeGroup"></path>
                <path d="M44.3339366,17.3035206 C44.3604438,17.2250755 44.3048729,17.1871312 44.2818641,17.1783852 C44.2227948,17.1563183 43.9265065,17.0936161 43.6989754,17.0786806 C43.2616743,17.0521734 43.0190731,17.1253709 42.8021717,17.2233263 C42.5862122,17.3203399 42.347244,17.4781719 42.2148427,17.657129 L42.2140353,17.2330142 C42.2140353,17.1747523 42.1725927,17.1280619 42.1143307,17.1280619 L41.2229092,17.1280619 C41.1646472,17.1280619 41.1232045,17.1747523 41.1232045,17.2330142 L41.1232045,22.4207509 C41.1232045,22.4790129 41.1698948,22.5257032 41.2290987,22.5257032 L42.1425871,22.5257032 C42.200849,22.5257032 42.2475393,22.4790129 42.2475393,22.4207509 L42.2475393,19.8291027 C42.2475393,19.4807419 42.2862909,19.1342649 42.3631214,18.9164217 C42.4380681,18.7003276 42.5403293,18.5283674 42.6673484,18.4049812 C42.794233,18.2814605 42.9388788,18.1950767 43.0976527,18.1466372 C43.2589832,18.0971212 43.4379402,18.0804365 43.5632102,18.0804365 C43.7458002,18.0804365 43.945075,18.1280687 43.945075,18.1280687 C44.0128903,18.1350655 44.0500272,18.0936228 44.0729015,18.0336116 C44.1319707,17.8749722 44.3021818,17.3979777 44.3339366,17.3035206" id="Fill-9" fill="#FEFEFE" sketch:type="MSShapeGroup"></path>
                <path d="M35.7577756,14.8993871 C35.6466338,14.8650758 35.5461218,14.842067 35.413855,14.8182509 C35.2798391,14.7936275 35.1210651,14.7812485 34.9411662,14.7812485 C34.3123945,14.7812485 33.8168314,14.9593983 33.4686051,15.3103156 C33.1229354,15.6586764 32.8874656,16.1894927 32.769327,16.8870216 L32.7269425,17.1224914 L31.9377821,17.1224914 C31.9377821,17.1224914 31.8407686,17.118993 31.8212582,17.2239453 L31.6916825,17.9470395 C31.6819946,18.0157967 31.7120002,18.0589886 31.8045735,18.0589886 L32.5735507,18.0589886 L31.7931364,22.411682 C31.7323179,22.7616574 31.6626188,23.0501416 31.5849811,23.2687922 C31.5090925,23.4848862 31.4341458,23.6462167 31.3425144,23.7634134 C31.2534395,23.8764389 31.1696123,23.9609389 31.0241592,24.009513 C30.9042714,24.0492065 30.7658152,24.0677749 30.6149799,24.0677749 C30.5311527,24.0677749 30.4192036,24.0536468 30.3363182,24.0368275 C30.2534328,24.0209501 30.2102409,24.0025162 30.1484805,23.9768163 C30.1484805,23.9768163 30.0585983,23.942505 30.0224033,24.0325217 C29.9941469,24.1065266 29.7896245,24.6700395 29.7648666,24.7397386 C29.7402431,24.8084958 29.7745545,24.8621829 29.8186882,24.8780603 C29.9209494,24.9142553 29.996838,24.9380714 30.1361016,24.9706335 C30.3301287,25.0165165 30.4933429,25.0192076 30.6457928,25.0192076 C30.9658972,25.0192076 31.2578798,24.9742665 31.4994046,24.8869408 C31.7428131,24.7986733 31.9544669,24.6452815 32.1423045,24.43901 C32.3442703,24.2149772 32.4720968,23.9804493 32.5937338,23.6603449 C32.7145635,23.3437389 32.8169592,22.950437 32.8998446,22.4918763 L33.6828154,18.0589886 L34.8282752,18.0589886 C34.8282752,18.0589886 34.9252888,18.062487 34.9446646,17.9575347 L35.0743748,17.2344405 C35.0831208,17.1656833 35.0540571,17.1224914 34.9614839,17.1224914 L33.8495281,17.1224914 C33.8547757,17.097868 33.9050989,16.7063153 34.0329254,16.3385787 C34.0875544,16.1806121 34.1899501,16.0546694 34.2771413,15.9673437 C34.3619104,15.8817672 34.4606732,15.8209487 34.568182,15.785561 C34.6783819,15.7503078 34.8036518,15.7326812 34.9411662,15.7326812 C35.0461184,15.7326812 35.1483796,15.7450602 35.2269593,15.7609376 C35.3344681,15.7839463 35.3768526,15.7961908 35.405109,15.8041295 C35.5178654,15.8393827 35.5329355,15.8058787 35.5558097,15.7512497 L35.8212851,15.0210241 C35.8485996,14.942579 35.7825335,14.909075 35.7577756,14.8993871" id="Fill-10" fill="#FEFEFE" sketch:type="MSShapeGroup"></path>
                <path d="M20.221234,22.4207106 C20.221234,22.4789725 20.1797913,22.5266047 20.1215293,22.5266047 L19.1991604,22.5266047 C19.141033,22.5266047 19.0995903,22.4789725 19.0995903,22.4207106 L19.0995903,14.9984324 C19.0995903,14.940305 19.141033,14.8934802 19.1991604,14.8934802 L20.1215293,14.8934802 C20.1797913,14.8934802 20.221234,14.940305 20.221234,14.9984324 L20.221234,22.4207106 L20.221234,22.4207106 Z" id="Fill-11" fill="#FEFEFE" sketch:type="MSShapeGroup"></path>
            </g>
        </g>
    </g>
</svg>