<?xml version="1.0" encoding="UTF-8" standalone="no"?>
<svg width="64px" height="64px" viewBox="0 0 64 64" version="1.1" xmlns="http://www.w3.org/2000/svg" xmlns:xlink="http://www.w3.org/1999/xlink">
    <!-- Generator: Sketch 3.6.1 (26313) - http://www.bohemiancoding.com/sketch -->
    <title>icons/skills/id-115</title>
    <desc>Created with Sketch.</desc>
    <defs></defs>
    <g id="Brands" stroke="none" stroke-width="1" fill="none" fill-rule="evenodd">
        <g id="icons/skills/id-115">
            <path d="M2,62 L61.8078022,62 L61.8078022,2.19186813 L2,2.19186813 L2,62 Z" id="bg" fill="#FFFFFF"></path>
            <path d="M31.4562967,24.0221429 L31.4562967,24.0221429 C33.1778352,24.3056593 34.7236593,25.1298352 35.9055275,26.3206044 L35.9144286,26.3206044 C36.102011,26.5101648 36.2856374,26.7139011 36.4544286,26.9215934 L39.4079451,25.2119231 C39.0106923,24.0129121 38.9928901,22.7578571 39.312011,21.5822527 C39.7333297,20.0080769 40.7543187,18.5984066 42.284978,17.7122527 L42.3354176,17.6819231 C43.8492637,16.8237912 45.5704725,16.6470879 47.1245385,17.0680769 C48.6987143,17.4900549 50.1172857,18.5146703 51.0017912,20.0443407 L51.0017912,20.046978 C51.8803626,21.5680769 52.059044,23.3126923 51.6393736,24.8829121 C51.221022,26.4577473 50.1954176,27.8766484 48.6664066,28.7558791 L48.2628901,28.9952198 L48.222011,28.9952198 C46.8067363,29.6690659 45.252011,29.7729121 43.8235495,29.3977473 C42.6492637,29.0858791 41.5738791,28.4321429 40.7312418,27.5024725 L37.782011,29.2052198 C38.1212418,30.1019231 38.3088242,31.0695055 38.3088242,32.0898352 C38.3088242,33.1065385 38.1212418,34.0866484 37.782011,34.9899451 L40.7312418,36.6860989 C41.5738791,35.7432418 42.6492637,35.1036813 43.8235495,34.7914835 C45.3973956,34.3609341 47.1413516,34.5435714 48.6664066,35.4326923 L48.763989,35.4778571 L48.763989,35.4847802 C50.2366264,36.3755495 51.2256374,37.7552198 51.6393736,39.3119231 C52.059044,40.8719231 51.8803626,42.6171978 51.0017912,44.1409341 L50.9477253,44.2484066 L50.9414615,44.2391758 C50.0582747,45.7071978 48.6664066,46.7018132 47.1294835,47.1237912 C45.553,47.5391758 43.8080549,47.3618132 42.284978,46.4862088 L42.284978,46.4743407 C40.7543187,45.5878571 39.7333297,44.1748901 39.312011,42.6033516 C38.9928901,41.4303846 39.0106923,40.1766484 39.4079451,38.9766484 L36.4544286,37.2725824 C36.2856374,37.4809341 36.102011,37.6751099 35.9144286,37.865 L35.9055275,37.8742308 C34.7236593,39.0597253 33.1778352,39.8829121 31.4562967,40.1571978 L31.4562967,43.5706044 C32.6833297,43.8270879 33.7804725,44.4399451 34.6415714,45.3013736 L34.6458571,45.3102747 C35.7997033,46.4575275 36.5140989,48.0574176 36.5140989,49.8158791 C36.5140989,51.5680769 35.7997033,53.1587363 34.6458571,54.3122527 L34.6415714,54.3300549 C33.4801429,55.4842308 31.8865165,56.1992857 30.1283846,56.1992857 C28.3791538,56.1992857 26.7812418,55.4842308 25.6227802,54.3300549 L25.6181648,54.3300549 L25.6181648,54.3122527 C24.463,53.1587363 23.7476154,51.5680769 23.7476154,49.8158791 C23.7476154,48.0574176 24.463,46.4575275 25.6181648,45.3102747 L25.6181648,45.3013736 L25.6227802,45.3013736 C26.4822308,44.4399451 27.5826703,43.8270879 28.8054176,43.5706044 L28.8054176,40.1571978 C27.0835495,39.8829121 25.540033,39.0597253 24.3604725,37.8742308 L24.3486044,37.865 C22.8756374,36.3847802 21.9519011,34.3484066 21.9519011,32.0898352 C21.9519011,29.8362088 22.8756374,27.8018132 24.3486044,26.3206044 L24.3604725,26.3206044 C25.540033,25.1298352 27.0835495,24.3056593 28.8054176,24.0221429 L28.8054176,20.6239011 C27.5826703,20.3581868 26.4822308,19.7456593 25.6227802,18.8904945 L25.6181648,18.8904945 L25.6181648,18.8812637 C24.463,17.7214835 23.7476154,16.1344505 23.7476154,14.3763187 C23.7476154,12.6270879 24.463,11.0252198 25.6181648,9.87137363 L25.6227802,9.86478022 C26.7812418,8.70763736 28.3791538,7.99258242 30.1283846,7.99258242 C31.8865165,7.99258242 33.4801429,8.70763736 34.6415714,9.86478022 L34.6415714,9.87137363 L34.6458571,9.87137363 C35.7997033,11.0252198 36.5140989,12.6270879 36.5140989,14.3763187 C36.5140989,16.1344505 35.7997033,17.7214835 34.6458571,18.8812637 L34.6415714,18.8904945 C33.7804725,19.7456593 32.6833297,20.3581868 31.4562967,20.6239011 L31.4562967,24.0221429 L31.4562967,24.0221429 L31.4562967,24.0221429 Z M32.2254176,12.2815934 L32.2254176,12.2815934 C31.6923407,11.7478571 30.9525604,11.4178571 30.1283846,11.4178571 C29.3055275,11.4178571 28.5716813,11.7478571 28.0448681,12.2815934 L28.031022,12.2815934 C27.5002527,12.813022 27.1705824,13.5551099 27.1705824,14.3763187 C27.1705824,15.2004945 27.5002527,15.9363187 28.031022,16.4644505 L28.0448681,16.475989 C28.5716813,17.0074176 29.3055275,17.3334615 30.1283846,17.3334615 C30.9525604,17.3334615 31.6923407,17.0074176 32.2254176,16.475989 L32.2316813,16.4644505 C32.7654176,15.9363187 33.0904725,15.2004945 33.0904725,14.3763187 C33.0904725,13.5551099 32.7654176,12.813022 32.2316813,12.2815934 L32.2254176,12.2815934 L32.2254176,12.2815934 L32.2254176,12.2815934 Z M30.1283846,52.7736813 L30.1283846,52.7736813 C30.9525604,52.7736813 31.6923407,52.4377473 32.2254176,51.9135714 L32.2316813,51.8977473 C32.7654176,51.3719231 33.0904725,50.6304945 33.0904725,49.8158791 C33.0904725,48.9917033 32.7654176,48.2525824 32.2316813,47.7198352 L32.2254176,47.7198352 C31.6923407,47.1778571 30.9525604,46.8511538 30.1283846,46.8511538 C29.3055275,46.8511538 28.5716813,47.1778571 28.0448681,47.7198352 L28.031022,47.7198352 C27.5002527,48.2525824 27.1705824,48.9917033 27.1705824,49.8158791 C27.1705824,50.6304945 27.5002527,51.3719231 28.031022,51.8977473 L28.0448681,51.9135714 C28.5716813,52.4377473 29.3055275,52.7736813 30.1283846,52.7736813 L30.1283846,52.7736813 L30.1283846,52.7736813 L30.1283846,52.7736813 Z M46.243989,43.8115934 L46.243989,43.8115934 C46.9765165,43.6187363 47.6404725,43.1486264 48.0446484,42.4385165 L48.100033,42.3346703 C48.4597033,41.6591758 48.5256374,40.8804945 48.3334396,40.1911538 C48.1395934,39.453022 47.6638791,38.7992857 46.9540989,38.3911538 L46.9125604,38.3624725 C46.2212418,37.9853297 45.4333297,37.9015934 44.710033,38.0967582 C43.9745385,38.2803846 43.3138791,38.7722527 42.911022,39.4760989 C42.5032198,40.1766484 42.4175055,40.9813736 42.613,41.7234615 C42.8147582,42.4523626 43.2865165,43.1123626 43.9913516,43.5244505 L43.9962967,43.5244505 C44.7024505,43.9302747 45.5019011,44.0047802 46.243989,43.8115934 L46.243989,43.8115934 L46.243989,43.8115934 L46.243989,43.8115934 Z M33.1623407,29.0647802 L33.1623407,29.0647802 C32.3853077,28.2893956 31.3142088,27.8041209 30.1283846,27.8041209 C28.9442088,27.8041209 27.8754176,28.2893956 27.100033,29.0647802 C26.3282747,29.8362088 25.8519011,30.9053297 25.8519011,32.0898352 C25.8519011,33.276978 26.3282747,34.3484066 27.100033,35.1300549 C27.8754176,35.8998352 28.9442088,36.3818132 30.1283846,36.3818132 C31.3142088,36.3818132 32.3853077,35.8998352 33.1623407,35.1300549 C33.9364066,34.3484066 34.4127802,33.276978 34.4127802,32.0898352 C34.4127802,30.9053297 33.9364066,29.8362088 33.1623407,29.0647802 L33.1623407,29.0647802 L33.1623407,29.0647802 L33.1623407,29.0647802 Z M48.0446484,21.756978 L48.0209121,21.7200549 C47.6134396,21.0336813 46.963,20.5760989 46.243989,20.376978 C45.5019011,20.1818132 44.7024505,20.2635714 43.9913516,20.6703846 L43.9962967,20.6703846 C43.2865165,21.0732418 42.8111319,21.7325824 42.613,22.472033 C42.4175055,23.2045604 42.5032198,24.0129121 42.911022,24.7170879 L42.9248681,24.7365385 C43.3336593,25.4321429 43.9837692,25.8992857 44.710033,26.0888462 C45.4399231,26.2925824 46.2532198,26.2065385 46.9540989,25.7984066 L46.9916813,25.7806044 C47.682011,25.3685165 48.1412418,24.7170879 48.3334396,24.0036813 C48.5292637,23.2685165 48.4508022,22.4621429 48.0446484,21.756978 L48.0446484,21.756978 L48.0446484,21.756978 L48.0446484,21.756978 Z" id="logo" fill="#221F20"></path>
        </g>
    </g>
</svg>