<?xml version="1.0" encoding="UTF-8" standalone="no"?>
<svg width="64px" height="64px" viewBox="0 0 64 64" version="1.1" xmlns="http://www.w3.org/2000/svg" xmlns:xlink="http://www.w3.org/1999/xlink">
    <defs></defs>
    <g id="Languages" stroke="none" stroke-width="1" fill="none" fill-rule="evenodd">
        <g id="icons/skills/id-140">
            <path d="M33.7260681,2.99580851 L56.2739319,16.0041915 C57.227213,16.5541613 58,17.8978404 58,18.991617 L58,45.008383 C58,46.1083227 57.2218716,47.4489202 56.2739319,47.9958085 L33.7260681,61.0041915 C32.772787,61.5541613 31.2218716,61.5510798 30.2739319,61.0041915 L7.72606809,47.9958085 C6.77278701,47.4458387 6,46.1021596 6,45.008383 L6,18.991617 C6,17.8916773 6.77812836,16.5510798 7.72606809,16.0041915 L30.2739319,2.99580851 C31.227213,2.44583866 32.7781284,2.44892021 33.7260681,2.99580851 Z" id="Polygon-1" fill="#394146"></path>
            <path d="M21,31 C23.3363229,31.31813 24.367713,30.3990878 24,28 L24,25 C24.367713,22.7502851 25.0254111,22.009122 27,22 L28,22 L28,19 L27,19 C22.3946188,19 20.3617339,20.3192702 20,24 L20,27 C20.3617339,28.8871152 19.9282511,29.8061574 18,30 L18,34 C19.9282511,33.6009122 20.3617339,34.5199544 20,37 L20,40 C20.3617339,43.5769669 22.3946188,45 27,45 L28,45 L28,42 L27,42 C25.0254111,41.9760547 24.367713,41.2348917 24,39 L24,35 C24.367713,33.2451539 23.3363229,32.0741163 21,32 L21,31 Z M43,32 C40.6716418,32.0741163 39.641791,33.2451539 40,35 L40,39 C39.641791,41.2348917 38.9552239,41.9760547 37,42 L36,42 L36,45 L37,45 C41.5970149,45 43.6119403,43.5769669 44,40 L44,37 C43.6119403,34.5199544 44.0597015,33.6009122 46,34 L46,30 C44.0597015,29.8061574 43.6119403,28.8871152 44,27 L44,24 C43.6119403,20.3192702 41.5970149,19 37,19 L36,19 L36,22 L37,22 C38.9552239,22.009122 39.641791,22.7502851 40,25 L40,28 C39.641791,30.3990878 40.6716418,31.31813 43,31 L43,32 Z" id="{-}" fill="#05C14F"></path>
        </g>
    </g>
</svg>