<?xml version="1.0" encoding="UTF-8" standalone="no"?>
<svg width="64px" height="64px" viewBox="0 0 64 64" version="1.1" xmlns="http://www.w3.org/2000/svg" xmlns:xlink="http://www.w3.org/1999/xlink">
    <!-- Generator: Sketch 3.6.1 (26313) - http://www.bohemiancoding.com/sketch -->
    <title>icons/skills/id-120</title>
    <desc>Created with Sketch.</desc>
    <defs></defs>
    <g id="Skills---Develop" stroke="none" stroke-width="1" fill="none" fill-rule="evenodd">
        <g id="icons/skills/id-120">
            <g id="Group" transform="translate(7.000000, 7.000000)">
                <path d="M46,50 L4,50 C1.8,50 0,48.2 0,46 L0,4 C0,1.8 1.8,0 4,0 L46,0 C48.2,0 50,1.8 50,4 L50,46 C50,48.2 48.2,50 46,50 L46,50 Z" id="XMLID_488_" fill="#787B84"></path>
                <circle id="XMLID_931_" fill="#F0F0F0" cx="6" cy="4" r="2"></circle>
                <circle id="XMLID_924_" fill="#F0F0F0" cx="12" cy="4" r="2"></circle>
                <circle id="XMLID_922_" fill="#F0F0F0" cx="18" cy="4" r="2"></circle>
                <path d="M46,8 L4,8 C2.9,8 2,8.9 2,10 L2,46 C2,47.1 2.9,48 4,48 L46,48 C47.1,48 48,47.1 48,46 L48,10 C48,8.9 47.1,8 46,8 L46,8 Z" id="XMLID_932_" fill="#FFFFFF"></path>
                <path d="M25.4,27.3 C26.8,29 25,30.5 25,30.5 C25,30.5 28.7,28.6 27,26.2 C25.4,24 24.2,22.9 30.7,19.1 C30.7,19.1 20.5,21.7 25.4,27.3" id="XMLID_196_" fill="#EA2D2E"></path>
                <path d="M27,13 C27,13 30.1,16.1 24.1,20.9 C19.3,24.7 23,26.9 24.1,29.4 C21.3,26.8 19.2,24.6 20.6,22.5 C22.6,19.4 28.2,18 27,13" id="XMLID_193_" fill="#EA2D2E"></path>
                <path d="M20.1,36.2 C20.1,36.2 19,36.9 20.9,37.1 C23.3,37.4 24.5,37.3 27.1,36.8 C27.1,36.8 27.8,37.2 28.7,37.6 C22.9,40.2 15.5,37.5 20.1,36.2" id="XMLID_192_" fill="#0074BD"></path>
                <path d="M19.4,32.9 C19.4,32.9 18.1,33.9 20.1,34.1 C22.6,34.4 24.6,34.4 28.1,33.7 C28.1,33.7 28.6,34.2 29.3,34.5 C22.2,36.5 14.3,34.6 19.4,32.9" id="XMLID_191_" fill="#0074BD"></path>
                <path d="M33.1,38.6 C33.1,38.6 33.9,39.3 32.2,39.8 C28.8,40.8 18.2,41.1 15.2,39.8 C14.1,39.3 16.1,38.7 16.8,38.6 C17.5,38.5 17.8,38.5 17.8,38.5 C16.6,37.7 10.1,40.1 14.5,40.9 C26.4,42.8 36.2,40 33.1,38.6" id="XMLID_190_" fill="#0074BD"></path>
                <path d="M20.6,29.5 C20.6,29.5 15.2,30.8 18.7,31.3 C20.2,31.5 23.1,31.5 25.9,31.2 C28.1,31 30.4,30.6 30.4,30.6 C30.4,30.6 29.6,30.9 29,31.3 C23.5,32.8 12.9,32.1 15.9,30.6 C18.5,29.4 20.6,29.5 20.6,29.5" id="XMLID_189_" fill="#0074BD"></path>
                <path d="M30.4,35 C36,32.1 33.4,29.3 31.6,29.6 C31.2,29.7 31,29.8 31,29.8 C31,29.8 31.2,29.5 31.5,29.4 C35.1,28.1 37.8,33.1 30.3,35.1 C30.2,35.1 30.3,35 30.4,35" id="XMLID_141_" fill="#0074BD"></path>
                <path d="M21.2,42.9 C26.6,43.2 34.8,42.7 35,40.2 C35,40.2 34.6,41.2 30.6,41.9 C26,42.8 20.3,42.7 17,42.1 C17,42.1 17.7,42.7 21.2,42.9" id="XMLID_102_" fill="#0074BD"></path>
            </g>
        </g>
    </g>
</svg>