<?xml version="1.0" encoding="UTF-8" standalone="no"?>
<svg width="64px" height="64px" viewBox="0 0 64 64" version="1.1" xmlns="http://www.w3.org/2000/svg" xmlns:xlink="http://www.w3.org/1999/xlink">
    <defs>
        <radialGradient cx="38.4590345%" cy="34.6128806%" fx="38.4590345%" fy="34.6128806%" r="86.7774404%" id="radialGradient-1">
            <stop stop-color="#B01720" offset="0%"></stop>
            <stop stop-color="#5B0810" offset="100%"></stop>
        </radialGradient>
        <rect id="path-2" x="3" y="3" width="52" height="52"></rect>
    </defs>
    <g id="Languages" stroke="none" stroke-width="1" fill="none" fill-rule="evenodd">
        <g id="icons/skills/id-101">
            <g id="Rectangle-83-+-Rectangle-84-+-{As}" transform="translate(3.000000, 3.000000)">
                <rect id="Rectangle-83" fill="#AE1720" x="0" y="0" width="58" height="58"></rect>
                <g id="Rectangle-84">
                    <use fill="none" xlink:href="#path-2"></use>
                    <use fill-opacity="0.600000024" fill="url(#radialGradient-1)" fill-rule="evenodd" xlink:href="#path-2"></use>
                </g>
                <path d="M21.268,30.44 L21.716,28.76 C22.22,26.94 22.696,24.812 23.144,22.88 L23.256,22.88 C23.732,24.784 24.236,26.94 24.74,28.76 L25.16,30.44 L21.268,30.44 Z M27.12,38 L31.488,38 L25.776,19.744 L20.82,19.744 L15.108,38 L19.308,38 L20.428,33.66 L26,33.66 L27.12,38 Z M31.908,36.404 C33.308,37.552 35.408,38.336 37.228,38.336 C40.952,38.336 42.94,36.376 42.94,33.856 C42.94,31.308 40.952,30.328 39.188,29.684 C37.76,29.152 36.472,28.816 36.472,27.92 C36.472,27.22 36.976,26.828 38.04,26.828 C39.02,26.828 39.972,27.276 40.98,28.004 L42.828,25.54 C41.624,24.644 40.056,23.776 37.928,23.776 C34.708,23.776 32.608,25.54 32.608,28.116 C32.608,30.412 34.596,31.56 36.276,32.204 C37.704,32.764 39.104,33.184 39.104,34.108 C39.104,34.836 38.572,35.284 37.34,35.284 C36.164,35.284 35.016,34.78 33.756,33.828 L31.908,36.404 Z" id="As" fill="#FFFFFF"></path>
            </g>
        </g>
    </g>
</svg>