<?xml version="1.0" encoding="UTF-8" standalone="no"?>
<svg width="64px" height="64px" viewBox="0 0 64 64" version="1.1" xmlns="http://www.w3.org/2000/svg" xmlns:xlink="http://www.w3.org/1999/xlink">
    <!-- Generator: Sketch 3.6.1 (26313) - http://www.bohemiancoding.com/sketch -->
    <title>icons/skills/id-117</title>
    <desc>Created with Sketch.</desc>
    <defs></defs>
    <g id="Technologies" stroke="none" stroke-width="1" fill="none" fill-rule="evenodd">
        <g id="icons/skills/id-117">
            <circle id="bg" fill="#097DCE" cx="32" cy="32" r="30"></circle>
            <path d="M12,37.9 L12.1,36.4 C12.1,36 12.5,35.7 12.9,35.7 L14,35.8 C14.3,35.8 14.6,35.6 14.8,35.3 C15,34.9 15.1,34.6 15.3,34.3 C15.5,34 15.5,33.6 15.3,33.4 L14.6,32.6 C14.3,32.3 14.4,31.8 14.7,31.5 L15.8,30.6 C16.1,30.3 16.6,30.4 16.9,30.7 L17.6,31.5 C17.8,31.8 18.2,31.8 18.5,31.7 C18.9,31.6 19.2,31.4 19.6,31.4 C19.9,31.3 20.2,31.1 20.2,30.7 L20.3,29.6 C20.3,29.2 20.7,28.9 21.1,28.9 L22.6,29 C23,29 23.3,29.4 23.3,29.8 L23.2,31 C23.2,31.3 23.4,31.6 23.7,31.8 C24.1,32 24.4,32.1 24.7,32.3 C25,32.5 25.4,32.5 25.6,32.3 L26.4,31.6 C26.7,31.3 27.2,31.4 27.5,31.7 L28.4,32.8 C28.7,33.1 28.6,33.6 28.3,33.9 L27.5,34.6 C27.2,34.8 27.2,35.2 27.3,35.5 C27.4,35.9 27.6,36.2 27.6,36.6 C27.7,36.9 27.9,37.2 28.3,37.2 L29.4,37.3 C29.8,37.3 30.1,37.7 30.1,38.1 L30,39.6 C30,40 29.6,40.3 29.2,40.3 L28,40.2 C27.7,40.2 27.4,40.4 27.2,40.7 C27,41.1 26.9,41.4 26.7,41.7 C26.5,42 26.5,42.4 26.7,42.6 L27.4,43.4 C27.7,43.7 27.6,44.2 27.3,44.5 L26.2,45.4 C25.9,45.7 25.4,45.6 25.1,45.3 L24.4,44.5 C24.2,44.2 23.8,44.2 23.5,44.3 C23.1,44.4 22.8,44.6 22.4,44.6 C22.1,44.7 21.8,44.9 21.8,45.3 L21.7,46.4 C21.7,46.8 21.3,47.1 20.9,47.1 L19.4,47 C19,47 18.7,46.6 18.7,46.2 L18.8,45.1 C18.8,44.8 18.6,44.5 18.3,44.3 C17.9,44.1 17.6,44 17.3,43.8 C17,43.6 16.6,43.6 16.4,43.8 L15.6,44.5 C15.3,44.8 14.8,44.7 14.5,44.4 L13.6,43.3 C13.3,43 13.4,42.5 13.7,42.2 L14.5,41.5 C14.8,41.3 14.8,40.9 14.7,40.6 C14.6,40.2 14.4,39.9 14.4,39.5 C14.3,39.2 14.1,38.9 13.7,38.9 L12.6,38.8 C12.2,38.7 11.9,38.3 12,37.9 Z M21,42 C23.209139,42 25,40.209139 25,38 C25,35.790861 23.209139,34 21,34 C18.790861,34 17,35.790861 17,38 C17,40.209139 18.790861,42 21,42 Z M21,40 C22.1045695,40 23,39.1045695 23,38 C23,36.8954305 22.1045695,36 21,36 C19.8954305,36 19,36.8954305 19,38 C19,39.1045695 19.8954305,40 21,40 Z" id="cog-small" fill="#85CCFF"></path>
            <path d="M28,29 L28,27 C28,26.4 28.5,26 29,26 L30.4,26 C30.8,26 31.2,25.7 31.4,25.3 C31.6,24.8 31.8,24.3 32,23.9 C32.2,23.5 32.1,23 31.8,22.7 L30.8,21.7 C30.4,21.3 30.4,20.7 30.8,20.3 L32.2,18.9 C32.6,18.5 33.2,18.5 33.6,18.9 L34.6,19.9 C34.9,20.2 35.4,20.3 35.8,20.1 C36.3,19.9 36.7,19.7 37.2,19.5 C37.6,19.4 37.9,19 37.9,18.5 L37.9,17 C37.9,16.4 38.4,16 38.9,16 L40.9,16 C41.5,16 41.9,16.5 41.9,17 L41.9,18.4 C41.9,18.8 42.2,19.2 42.6,19.4 C43.1,19.6 43.6,19.8 44,20 C44.4,20.2 44.9,20.1 45.2,19.8 L46.2,18.8 C46.6,18.4 47.2,18.4 47.6,18.8 L49,20.2 C49.4,20.6 49.4,21.2 49,21.6 L48,22.6 C47.7,22.9 47.6,23.4 47.8,23.8 C48,24.3 48.2,24.7 48.4,25.2 C48.5,25.6 48.9,25.9 49.4,25.9 L51,25.9 C51.6,25.9 52,26.4 52,26.9 L52,28.9 C52,29.5 51.5,29.9 51,29.9 L49.6,29.9 C49.2,29.9 48.8,30.2 48.6,30.6 C48.4,31.1 48.2,31.6 48,32 C47.8,32.4 47.9,32.9 48.2,33.2 L49.2,34.2 C49.6,34.6 49.6,35.2 49.2,35.6 L47.8,37 C47.4,37.4 46.8,37.4 46.4,37 L45.4,36 C45.1,35.7 44.6,35.6 44.2,35.8 C43.7,36 43.3,36.2 42.8,36.4 C42.4,36.5 42.1,36.9 42.1,37.4 L42.1,39 C42.1,39.6 41.6,40 41.1,40 L39.1,40 C38.5,40 38.1,39.5 38.1,39 L38.1,37.6 C38.1,37.2 37.8,36.8 37.4,36.6 C36.9,36.4 36.4,36.2 36,36 C35.6,35.8 35.1,35.9 34.8,36.2 L33.8,37.2 C33.4,37.6 32.8,37.6 32.4,37.2 L31,35.8 C30.6,35.4 30.6,34.8 31,34.4 L32,33.4 C32.3,33.1 32.4,32.6 32.2,32.2 C32,31.7 31.8,31.3 31.6,30.8 C31.5,30.4 31.1,30.1 30.6,30.1 L29,30.1 C28.5,30 28,29.5 28,29 Z M40,34 C43.3137085,34 46,31.3137085 46,28 C46,24.6862915 43.3137085,22 40,22 C36.6862915,22 34,24.6862915 34,28 C34,31.3137085 36.6862915,34 40,34 Z M40,31 C41.6568542,31 43,29.6568542 43,28 C43,26.3431458 41.6568542,25 40,25 C38.3431458,25 37,26.3431458 37,28 C37,29.6568542 38.3431458,31 40,31 Z" id="cog-big" fill="#FFFFFF"></path>
        </g>
    </g>
</svg>