<?xml version="1.0" encoding="UTF-8" standalone="no"?>
<svg width="64px" height="64px" viewBox="0 0 64 64" version="1.1" xmlns="http://www.w3.org/2000/svg" xmlns:xlink="http://www.w3.org/1999/xlink">
    <!-- Generator: Sketch 3.6.1 (26313) - http://www.bohemiancoding.com/sketch -->
    <title>icons/skills/id-187</title>
    <desc>Created with Sketch.</desc>
    <defs></defs>
    <g id="Brands" stroke="none" stroke-width="1" fill="none" fill-rule="evenodd">
        <g id="icons/skills/id-187">
            <path d="M6.0065556,2 L57.9934444,2 C60.206204,2 62,3.79568082 62,6.0065556 L62,57.9934444 C62,60.206204 60.2043192,62 57.9934444,62 L6.0065556,62 C3.79379604,62 2,60.2043192 2,57.9934444 L2,6.0065556 C2,3.79379604 3.79568082,2 6.0065556,2 Z" id="bg" fill="#F0F0F0"></path>
            <path d="M16,44 C16,44.553 16.448,45 17,45 L47,45 C47.552,45 48,44.553 48,44 L48,24 L16,24 L16,44 Z M47,19 L22,19 L22,22 L48,22 L48,20 C48,19.447 47.552,19 47,19 Z M20,19 L17,19 C16.448,19 16,19.447 16,20 L16,22 L20,22 L20,19 Z" id="Fill-1225" fill="#394146"></path>
            <path d="M31,31 L43,31 L43,33 L31,33 L31,31 Z" id="Path" fill="#FFFFFF"></path>
            <path d="M20,30 C20,29.447 20.448,29 21,29 L27,29 C27.552,29 28,29.447 28,30 L28,38 C28,38.553 27.552,39 27,39 L21,39 C20.448,39 20,38.553 20,38 L20,30 Z" id="Path" fill="#FFFFFF"></path>
            <path d="M31,35 L39,35 L39,37 L31,37 L31,35 Z" id="Path" fill="#FFFFFF"></path>
        </g>
    </g>
</svg>