<?xml version="1.0" encoding="utf-8"?>
<!-- Generator: Adobe Illustrator 23.0.1, SVG Export Plug-In . SVG Version: 6.00 Build 0)  -->
<svg version="1.1" id="Layer_1" xmlns="http://www.w3.org/2000/svg" xmlns:xlink="http://www.w3.org/1999/xlink" x="0px" y="0px"
	 viewBox="0 0 64 64" style="enable-background:new 0 0 64 64;" xml:space="preserve">
<style type="text/css">
	.st0{fill:#FFCC06;}
	.st1{fill:#65C9D3;}
	.st2{fill:#EE376D;}
</style>
<g>
	<path class="st0" d="M44.8,29.6c-0.3,0.8-0.7,1.5-1.1,2.3C39.4,26.4,33,22.7,26,21.8c-1.2-0.2-2.4-0.2-3.6-0.2
		c-6.3,0-12.4,2.2-17.2,6.2C7.7,13,21.5,3,36.3,5.3c1.8,0.3,3.6,0.8,5.3,1.4c1.1,0.4,2.1,0.9,3.1,1.4l0,0c0.6,1.3,1,2.6,1.4,4
		C47.6,17.9,47.2,24.1,44.8,29.6z"/>
	<path class="st1" d="M41.5,57.3C27.6,62.5,12,55.5,6.7,41.5c-0.6-1.7-1.1-3.5-1.4-5.3C5.1,35.3,5,34.3,5,33.3l0,0
		c4.4-6.1,11.1-10.2,18.5-11.1c0.8-0.1,1.6-0.2,2.5-0.2c-5.5,13.9,1.2,29.6,15.1,35.1C41.2,57.1,41.4,57.2,41.5,57.3L41.5,57.3z"/>
	<path class="st2" d="M59,32c0,8-3.6,15.7-9.8,20.8c-1,0.9-2.2,1.7-2.8,2C39,54,32.1,50.2,27.6,44.2c-0.5-0.7-1-1.3-1.4-2.1
		c13.4-1.8,23.4-13.2,23.4-26.8c0-1.4-0.1-2.8-0.3-4.2C55.4,16.3,59,24,59,32z"/>
</g>
</svg>
