<?xml version="1.0" encoding="UTF-8" standalone="no"?>
<svg width="64px" height="64px" viewBox="0 0 64 64" version="1.1" xmlns="http://www.w3.org/2000/svg" xmlns:xlink="http://www.w3.org/1999/xlink">
    <!-- Generator: Sketch 3.6.1 (26313) - http://www.bohemiancoding.com/sketch -->
    <title>icons/skills/id-161</title>
    <desc>Created with Sketch.</desc>
    <defs></defs>
    <g id="Brands" stroke="none" stroke-width="1" fill="none" fill-rule="evenodd">
        <g id="icons/skills/id-161">
            <g id="Page-1" transform="translate(2.000000, 2.000000)">
                <path d="M0,60 L60,60 L60,0 L0,0 L0,60 Z" id="Fill-1" fill="#2C2A2F"></path>
                <path d="M6.09667105,4.89789474 L6.09667105,14.9703947 L12.2368026,17.0360526 L12.2368026,4.89789474 L6.09667105,4.89789474 Z" id="Fill-2" fill="#BE554A"></path>
                <path d="M32.8115921,23.9580395 L36.8813289,25.3273816 L36.8813289,18.2071184 L32.8115921,18.2071184 L32.8115921,23.9580395 Z" id="Fill-3" fill="#BE554A"></path>
                <g id="Group-12" transform="translate(0.000000, 14.605263)">
                    <path d="M48.0401447,9.07038158 C45.21975,9.07038158 42.8635658,10.2759079 41.4223816,12.2495921 L45.5067237,13.6236711 C46.2168553,13.0090658 47.1527763,12.6632763 48.2308026,12.6632763 C49.62975,12.6632763 50.7421184,13.23525 51.4739605,14.3164342 L54.1123816,11.8366974 C53.0951447,10.4373553 51.1877763,9.07038158 48.0401447,9.07038158" id="Fill-4" fill="#BE554A"></path>
                    <path d="M12.2368421,2.43078947 L6.09671053,0.365131579 L6.09671053,34.7368421 L0,34.7368421 L0,40.9456579 L6.09671053,40.9456579 L6.09671053,45.3947368 L12.2368421,45.3947368 L12.2368421,40.9456579 L55.14,40.9456579 L55.14,34.7368421 L12.2368421,34.7368421 L12.2368421,2.43078947 Z" id="Fill-6" fill="#F09436"></path>
                    <path d="M32.8115921,19.8486711 C32.1436974,20.8659079 30.6811974,21.5973553 29.3458026,21.5973553 C27.02475,21.5973553 25.4351447,19.7851184 25.4351447,17.1143289 C25.4351447,14.4755132 27.02475,12.6632763 29.3458026,12.6632763 C30.6811974,12.6632763 32.1436974,13.3943289 32.8115921,14.4119605 L32.8115921,19.8486711 Z M32.8115921,9.35261842 L32.8115921,11.4234079 C31.6033026,9.83340789 29.8861974,9.07038158 28.0743553,9.07038158 C24.1633026,9.07038158 21.2698816,12.1224868 21.2698816,17.1143289 C21.2698816,22.26525 24.2268553,25.19025 28.0743553,25.19025 C29.94975,25.19025 31.6033026,24.3632763 32.8115921,22.8372237 L32.8115921,24.8085395 L36.8813289,24.8085395 L36.8813289,10.7219605 L32.8115921,9.35261842 Z" id="Fill-8" fill="#F09436"></path>
                    <path d="M48.2307632,21.5973947 C45.7826053,21.5973947 44.0655,19.7851579 44.0655,17.1143684 C44.0655,15.6198947 44.6039211,14.4048947 45.5066842,13.6237105 L41.4227368,12.2496316 C40.4591842,13.5692368 39.9010263,15.2291053 39.9010263,17.1143684 C39.9010263,21.8516053 43.3344474,25.1902895 48.0401053,25.1902895 C51.1877368,25.1902895 53.0955,23.7909474 54.1127368,22.392 L51.4739211,19.9122632 C50.7424737,20.9614737 49.6297105,21.5973947 48.2307632,21.5973947" id="Fill-10" fill="#F09436"></path>
                </g>
            </g>
        </g>
    </g>
</svg>