<?xml version="1.0" encoding="UTF-8" standalone="no"?>
<svg width="64px" height="64px" viewBox="0 0 64 64" version="1.1" xmlns="http://www.w3.org/2000/svg" xmlns:xlink="http://www.w3.org/1999/xlink">
    <defs></defs>
    <g id="Languages" stroke="none" stroke-width="1" fill="none" fill-rule="evenodd">
        <g id="icons/skills/id-162">
            <g id="Group" transform="translate(2.000000, 19.000000)">
                <path d="M59.7619048,22.2857143 C59.7619048,24.0952381 58.2857143,25.5714286 56.4761905,25.5714286 L3.52380952,25.5714286 C1.71428571,25.5714286 0.238095238,24.0952381 0.238095238,22.2857143 L0.238095238,3.42857143 C0.238095238,1.61904762 1.71428571,0.142857143 3.52380952,0.142857143 L56.4761905,0.142857143 C58.2857143,0.142857143 59.7619048,1.61904762 59.7619048,3.42857143 L59.7619048,22.2857143 L59.7619048,22.2857143 Z" id="Shape" fill="#003A2B"></path>
                <path d="M10.4761905,4.0952381 L13.3333333,4.0952381 L13.3333333,17.1428571 C11.9047619,17.4285714 10.8095238,17.5238095 9.66666667,17.5238095 C6.23809524,17.5238095 4.42857143,15.952381 4.42857143,13 C4.42857143,10.1428571 6.33333333,8.23809524 9.28571429,8.23809524 C9.76190476,8.23809524 10.0952381,8.28571429 10.5238095,8.38095238 L10.5238095,4.0952381 L10.4761905,4.0952381 L10.4761905,4.0952381 Z M10.4761905,10.6666667 C10.1428571,10.5714286 9.85714286,10.5238095 9.52380952,10.5238095 C8.0952381,10.5238095 7.28571429,11.3809524 7.28571429,12.952381 C7.28571429,14.4761905 8.0952381,15.2857143 9.52380952,15.2857143 C9.85714286,15.2857143 10.0952381,15.2857143 10.4761905,15.1904762 L10.4761905,10.6666667 L10.4761905,10.6666667 Z M17.8095238,8.47619048 L17.8095238,15 C17.8095238,17.2380952 17.6666667,18.3333333 17.1428571,19.2857143 C16.6666667,20.1904762 16.0952381,20.7619048 14.8571429,21.3809524 L12.2380952,20.1428571 C13.4761905,19.5714286 14.0952381,19.047619 14.4761905,18.2380952 C14.8571429,17.4285714 15,16.4761905 15,14.047619 L15,8.47619048 L17.8095238,8.47619048 L17.8095238,8.47619048 Z M15,4.14285714 L17.8095238,4.14285714 L17.8095238,7.04761905 L15,7.04761905 L15,4.14285714 L15,4.14285714 Z M19.5238095,9.0952381 C20.7619048,8.52380952 21.952381,8.23809524 23.2380952,8.23809524 C24.6666667,8.23809524 25.6190476,8.61904762 26.047619,9.38095238 C26.2857143,9.80952381 26.3809524,10.3333333 26.3809524,11.5238095 L26.3809524,17.2380952 C25.0952381,17.4285714 23.5238095,17.5714286 22.3333333,17.5714286 C19.952381,17.5714286 18.9047619,16.7619048 18.9047619,14.9047619 C18.9047619,12.9047619 20.3333333,12 23.7619048,11.7142857 L23.7619048,11.0952381 C23.7619048,10.5714286 23.5238095,10.3809524 22.8095238,10.3809524 C21.7619048,10.3809524 20.5714286,10.6666667 19.4761905,11.2380952 L19.4761905,9.0952381 L19.5238095,9.0952381 L19.5238095,9.0952381 Z M23.9047619,13.5714286 C22.047619,13.7619048 21.4285714,14.047619 21.4285714,14.7619048 C21.4285714,15.3333333 21.7619048,15.5714286 22.5238095,15.5714286 C22.952381,15.5714286 23.3333333,15.5238095 23.8571429,15.4285714 L23.8571429,13.5714286 L23.9047619,13.5714286 L23.9047619,13.5714286 Z M27.7619048,8.9047619 C29.4285714,8.47619048 30.8095238,8.28571429 32.1904762,8.28571429 C33.6190476,8.28571429 34.6666667,8.61904762 35.2857143,9.23809524 C35.8571429,9.85714286 36.047619,10.5238095 36.047619,11.9047619 L36.047619,17.4285714 L33.2380952,17.4285714 L33.2380952,12 C33.2380952,10.9047619 32.8571429,10.5238095 31.8571429,10.5238095 C31.4761905,10.5238095 31.1428571,10.5714286 30.5714286,10.7142857 L30.5714286,17.4285714 L27.7619048,17.4285714 L27.7619048,8.9047619 L27.7619048,8.9047619 Z M37.1428571,18.952381 C38.1428571,19.4761905 39.1428571,19.7142857 40.1428571,19.7142857 C42,19.7142857 42.7619048,18.952381 42.7619048,17.1904762 L42.7619048,17.1428571 C42.1904762,17.4285714 41.6666667,17.5238095 40.952381,17.5238095 C38.4761905,17.5238095 36.9047619,15.9047619 36.9047619,13.3333333 C36.9047619,10.1428571 39.2380952,8.33333333 43.3333333,8.33333333 C44.5238095,8.33333333 45.6666667,8.47619048 47,8.71428571 L46.047619,10.7619048 C45.2857143,10.6190476 46,10.7619048 45.4285714,10.6666667 L45.4285714,10.952381 L45.4761905,12.1428571 L45.4761905,13.6666667 C45.4761905,14.047619 45.4761905,14.4285714 45.5238095,14.8095238 L45.5238095,15.5714286 C45.5238095,18 45.3333333,19.1428571 44.7142857,20.047619 C43.8571429,21.4285714 42.3333333,22.0952381 40.1428571,22.0952381 C39.047619,22.0952381 38.0952381,21.952381 37.0952381,21.5238095 L37.0952381,18.952381 L37.1428571,18.952381 L37.1428571,18.952381 Z M42.7619048,10.5714286 L42.4761905,10.5714286 C41.9047619,10.5714286 41.2857143,10.7142857 40.8571429,10.952381 C40.1904762,11.3333333 39.8095238,12.047619 39.8095238,13 C39.8095238,14.4285714 40.5238095,15.2380952 41.7619048,15.2380952 C42.1428571,15.2380952 42.4761905,15.1428571 42.8095238,15.047619 L42.8095238,10.5714286 L42.7619048,10.5714286 L42.7619048,10.5714286 Z M51.4285714,8.23809524 C54.2380952,8.23809524 55.952381,10 55.952381,12.9047619 C55.952381,15.8571429 54.1428571,17.7142857 51.2857143,17.7142857 C48.4761905,17.7142857 46.7142857,15.952381 46.7142857,13.0952381 C46.7619048,10.0952381 48.5714286,8.23809524 51.4285714,8.23809524 L51.4285714,8.23809524 Z M51.3809524,15.3809524 C52.4761905,15.3809524 53.0952381,14.4761905 53.0952381,12.9047619 C53.0952381,11.3809524 52.4761905,10.4285714 51.3809524,10.4285714 C50.2857143,10.4285714 49.6190476,11.3333333 49.6190476,12.9047619 C49.6666667,14.5238095 50.2857143,15.3809524 51.3809524,15.3809524 L51.3809524,15.3809524 Z" id="Shape" fill="#FFFFFF"></path>
            </g>
        </g>
    </g>
</svg>