<?xml version="1.0" encoding="UTF-8" standalone="no"?>
<svg width="64px" height="64px" viewBox="0 0 64 64" version="1.1" xmlns="http://www.w3.org/2000/svg" xmlns:xlink="http://www.w3.org/1999/xlink">
    <!-- Generator: Sketch 3.6.1 (26313) - http://www.bohemiancoding.com/sketch -->
    <title>icons/skills/id-116</title>
    <desc>Created with Sketch.</desc>
    <defs></defs>
    <g id="Brands" stroke="none" stroke-width="1" fill="none" fill-rule="evenodd">
        <g id="icons/skills/id-116">
            <circle id="Oval-11" fill="#04A9DB" cx="32" cy="32" r="30"></circle>
            <g id="apache-apex-logo" transform="translate(11.000000, 14.000000)" fill="#FFFFFF">
                <path d="M17.5985915,5.59317073 C16.9478873,5.00130081 13.3690141,2.13073171 12.156338,1.03577236 C10.4408451,-0.503089431 9.4943662,-0.384715447 7.60140845,1.92357724 C6.3,3.49203252 3.93380282,6.62894309 3.63802817,7.19121951 C3.34225352,7.75349593 3.99295775,9.32195122 3.99295775,9.32195122 C3.99295775,9.32195122 2.75070423,10.564878 2.21830986,10.979187 C1.68591549,11.3934959 2.42535211,12.0741463 2.42535211,12.0741463 C2.42535211,12.0741463 1.86338028,12.4292683 1.24225352,13.0507317 C0.561971831,13.7313821 0.0887323944,14.2936585 0.384507042,15.1518699 C0.68028169,16.0100813 1.33098592,16.6315447 2.04084507,16.3060163 C2.75070423,15.9508943 4.67323944,14.441626 4.67323944,14.441626 L5.53098592,12.8731707 L5.32394366,14.8263415 C5.32394366,14.8263415 2.98732394,16.6907317 2.42535211,16.9570732 C1.86338028,17.2234146 1.56760563,16.8386992 1.41971831,17.2826016 C1.27183099,17.7560976 1.95211268,17.7560976 2.57323944,18.2 C3.40140845,18.7918699 4.05211268,19.3245528 5.82676056,18.9102439 C7.60140845,18.495935 8.96197183,17.6673171 9.73098592,16.5131707 C10.5887324,15.1518699 15.4985915,8.37495935 17.5985915,5.59317073 Z M20.3492958,34.1213008 C20.4084507,33.7069919 20.615493,32.6712195 20.8816901,31.6946341 C21.1774648,30.6292683 22.3309859,28.4985366 22.3309859,28.4985366 C22.3309859,28.4985366 20.5859155,28.1138211 19.284507,27.5515447 C17.8943662,26.9596748 16.8,26.2790244 16.8,26.2790244 C15.971831,27.9658537 14.9661972,30.5108943 14.7591549,32.0497561 C14.5521127,33.4406504 14.5521127,34.9499187 14.5521127,35.4530081 C14.5521127,36.3112195 20.171831,36.2520325 21.2070423,36.163252 C22.5676056,36.0744715 22.4492958,35.6897561 22.1535211,34.6835772 C22.0056338,34.1508943 21.9169014,33.8253659 21.5323944,33.8253659 C21.1478873,33.8253659 20.8521127,33.8253659 20.8225352,34.1804878 C20.8225352,34.3580488 20.7338028,34.4468293 20.5267606,34.4172358 C20.3197183,34.3284553 20.3197183,34.2692683 20.3492958,34.1213008 Z M27.0338028,29.060813 C27.4478873,30.6884553 27.8915493,33.8549593 27.2704225,33.9437398 C25.5549296,34.1804878 25.1704225,35.8673171 26.028169,35.8673171 C26.8859155,35.8673171 29.784507,36.0152846 30.8492958,35.8969106 C31.9140845,35.7785366 31.6183099,34.3580488 32.328169,33.7661789 C32.7422535,33.4110569 32.5056338,30.8364228 32.0619718,29.2679675 C32.0619718,29.2679675 31.2929577,29.3271545 29.5774648,29.2679675 C27.684507,29.179187 27.0338028,29.060813 27.0338028,29.060813 Z M20.0239437,6.12585366 L20.2309859,9.23317073 L22.6859155,6.51056911 L24.9042254,9.11479675 L25.3774648,6.24422764 L27.5366197,7.16162602 C26.2056338,5.71154472 25.1408451,4.61658537 24.7267606,4.23186992 C22.8929577,2.57463415 21.6802817,2.36747967 20.4971831,3.46243902 C19.9647887,3.96552846 18.5450704,5.65235772 16.8,7.9902439 L20.0239437,6.12585366 Z M40.3732394,25.0952846 C39.6042254,22.017561 38.8943662,18.8806504 36.6464789,17.1050407 C35.3450704,15.6845528 31.5295775,11.4526829 28.5422535,8.19739837 L25.8507042,7.04325203 L25.2887324,10.4465041 L22.6859155,7.39837398 L19.7577465,10.6536585 L19.5211268,7.10243902 L15.9126761,9.20357724 C14.6112676,10.9495935 13.1915493,12.9323577 11.771831,15.0039024 C8.9915493,19.0878049 6.15211268,23.8523577 4.43661972,27.1668293 C2.72112676,30.4813008 2.98732394,33.9733333 2.98732394,35.0978862 C2.98732394,36.1928455 9.34647887,35.9856911 10.7070423,35.9265041 C12.215493,35.8081301 12.0676056,35.4826016 11.7422535,34.3580488 C11.5647887,33.7661789 11.4464789,33.4406504 11.0028169,33.4406504 C10.5591549,33.4406504 10.2633803,33.4998374 10.2338028,33.7957724 C10.2338028,33.9733333 10.1746479,34.0621138 9.9084507,34.0325203 C9.64225352,34.0029268 9.58309859,33.8845528 9.61267606,33.7069919 C9.61267606,33.7069919 9.76056338,32.878374 10.056338,32.2273171 C10.3521127,31.5762602 10.9140845,30.7476423 11.5943662,29.9486179 C12.3042254,29.1495935 14.256338,27.1076423 14.256338,27.1076423 L19.0478873,19.1765854 L16.5042254,25.1544715 C16.5042254,25.1544715 19.3140845,27.3443902 23.8394366,28.0250407 C29.4,28.8536585 32.3873239,28.5873171 32.3873239,28.5873171 L30.2577465,21.8695935 C30.2577465,21.8695935 36.4985915,34.0029268 34.7830986,34.0621138 C33.0676056,34.1213008 32.6830986,35.9856911 33.5408451,35.9856911 C34.3985915,35.9856911 38.5098592,36.104065 39.5746479,35.9856911 C40.6394366,35.8673171 40.7577465,33.9141463 41.556338,32.937561 C42.3549296,31.9609756 41.1422535,28.2026016 40.3732394,25.0952846 Z" id="Shape"></path>
            </g>
        </g>
    </g>
</svg>