<?xml version="1.0" encoding="UTF-8" standalone="no"?>
<svg width="64px" height="64px" viewBox="0 0 64 64" version="1.1" xmlns="http://www.w3.org/2000/svg" xmlns:xlink="http://www.w3.org/1999/xlink">
    <defs></defs>
    <g id="Brands" stroke="none" stroke-width="1" fill="none" fill-rule="evenodd">
        <g id="icons/skills/id-109">
            <g id="android-original" transform="translate(6.000000, 2.000000)">
                <path d="M5.24380952,42.9166667 C2.60666667,42.9180952 0.463809524,40.772381 0.463333333,38.1357143 L0.462380952,23.4980952 C0.461428571,20.8638095 2.60380952,18.7185714 5.23761905,18.7180952 C6.51809524,18.7171429 7.71714286,19.2138095 8.62095238,20.1166667 C9.5247619,21.0195238 10.0219048,22.2204762 10.0228571,23.4971429 L10.0214286,38.1352381 C10.0247619,39.4109524 9.52904762,40.6109524 8.62571429,41.5133333 C7.7247619,42.4180952 6.52238095,42.9161905 5.24380952,42.9166667 M5.24,20.002381 C3.31,20.0014286 1.74571429,21.5695238 1.7452381,23.4980952 L1.74761905,38.1342857 C1.74809524,40.0695238 3.3152381,41.6314286 5.24333333,41.6333333 C7.1752381,41.6309524 8.74,40.0690476 8.73809524,38.1347619 L8.73809524,23.4961905 C8.73714286,21.5680952 7.17095238,20.0014286 5.24,20.002381" id="Shape" fill="#FFFFFF"></path>
                <path d="M42.7342857,20.7271429 L41.4495238,20.7266667 L9.96428571,20.7309524 L8.67904762,20.7314286 L8.67809524,19.4461905 C8.6752381,14.17 11.5495238,9.26285714 16.257619,6.36380952 L14.4271429,3.02238095 C14.2033333,2.63095238 14.1471429,2.1352381 14.277619,1.68190476 C14.41,1.22857143 14.7228571,0.838571429 15.1414286,0.615714286 C15.3838095,0.478571429 15.68,0.402380952 15.9790476,0.402857143 C16.627619,0.402857143 17.2214286,0.754761905 17.5347619,1.32333333 L19.4504762,4.81333333 C21.4328571,4.08619048 23.5257143,3.7152381 25.6880952,3.71571429 C27.8814286,3.7147619 29.9847619,4.08571429 31.9757143,4.81619048 L33.8885714,1.32047619 C34.1966667,0.753333333 34.7947619,0.4 35.442381,0.40047619 C35.7338095,0.4 36.0247619,0.470952381 36.2809524,0.609047619 C36.7109524,0.844761905 37.0109524,1.22142857 37.1428571,1.67809524 C37.2742857,2.13190476 37.2214286,2.61095238 36.9914286,3.02666667 L35.1619048,6.36619048 C39.862381,9.27142857 42.7333333,14.1747619 42.7328571,19.4419048 L42.7342857,20.7271429 L42.7342857,20.7271429 Z M33.4266667,6.85857143 L35.8661905,2.40380952 C35.9961905,2.17095238 35.9114286,1.87285714 35.6761905,1.74380952 C35.437619,1.6147619 35.1433333,1.70285714 35.0171429,1.93666667 L32.552381,6.43666667 C30.4790476,5.51571429 28.157619,4.99809524 25.7038095,5.00047619 C23.2552381,4.99809524 20.9380952,5.51380952 18.8709524,6.43142857 L16.4038095,1.94142857 C16.2766667,1.7047619 15.9795238,1.61809524 15.7471429,1.74857143 C15.5104762,1.8752381 15.4233333,2.17285714 15.5552381,2.4052381 L17.9957143,6.85666667 C13.2004762,9.33 9.96047619,14.0395238 9.96333333,19.4466667 L41.4480952,19.4428571 C41.4495238,14.037619 38.2152381,9.33761905 33.4266667,6.85857143 L33.4266667,6.85857143 Z M18.5428571,13.7428571 C17.8185714,13.7414286 17.2271429,13.1519048 17.2271429,12.4233333 C17.2271429,11.6980952 17.817619,11.102381 18.5442857,11.102381 C19.2742857,11.1019048 19.8647619,11.6980952 19.8657143,12.4233333 C19.8661905,13.1509524 19.2742857,13.742381 18.5428571,13.7428571 L18.5428571,13.7428571 Z M32.8795238,13.74 C32.1519048,13.7409524 31.5580952,13.1519048 31.5595238,12.4204762 C31.5595238,11.6961905 32.1509524,11.1004762 32.88,11.097619 C33.6042857,11.1 34.1980952,11.6966667 34.197619,12.4209524 C34.197619,13.15 33.6066667,13.7404762 32.8795238,13.74 L32.8795238,13.74 Z M19.862381,59.5995238 C17.227619,59.5990476 15.0833333,57.4561905 15.0828571,54.8195238 L15.0819048,48.3590476 L13.8257143,48.3604762 C12.4842857,48.3609524 11.2252381,47.8395238 10.2790476,46.8928571 C9.33142857,45.9471429 8.80904762,44.6866667 8.81095238,43.3442857 L8.80619048,20.6647619 L8.80619048,19.3785714 L10.0914286,19.3785714 L41.3404762,19.3738095 L42.6261905,19.3728571 L42.6261905,20.6580952 L42.6295238,43.3404762 C42.63,46.1066667 40.3795238,48.357619 37.6142857,48.3571429 L36.3504762,48.3580952 L36.3519048,54.8161905 C36.3519048,57.4514286 34.2080952,59.5966667 31.5742857,59.5966667 C30.297619,59.5995238 29.0995238,59.1033333 28.1942857,58.1980952 C27.2890476,57.2952381 26.7904762,56.0952381 26.7909524,54.8190476 L26.7909524,48.3580952 L24.6428571,48.3580952 L24.6428571,54.817619 C24.6419048,57.4533333 22.4985714,59.6 19.862381,59.5995238 L19.862381,59.5995238 Z" id="Shape" fill="#FFFFFF"></path>
                <path d="M10.097619,43.3438095 C10.0957143,45.4090476 11.7628571,47.0761905 13.8266667,47.0757143 L16.3661905,47.0757143 L16.3690476,54.8204762 C16.3685714,56.7490476 17.9352381,58.3161905 19.8619048,58.3166667 C21.7933333,58.3166667 23.3580952,56.747619 23.3561905,54.817619 L23.3566667,47.0752381 L28.0752381,47.0738095 L28.0747619,54.8180952 C28.0766667,56.7471429 29.6452381,58.3161905 31.5714286,58.312381 C33.5028571,58.3138095 35.0685714,56.7447619 35.0680952,54.8152381 L35.0657143,47.0728571 L37.6147619,47.072381 C39.6714286,47.0728571 41.3442857,45.4019048 41.3442857,43.3404762 L41.34,20.6571429 L10.0919048,20.6628571 L10.097619,43.3438095 L10.097619,43.3438095 Z M46.1885714,42.9104762 C43.552381,42.9109524 41.4080952,40.7685714 41.4085714,38.1314286 L41.4047619,23.4942857 C41.4057143,20.857619 43.5466667,18.7128571 46.1814286,18.7128571 C48.8195238,18.712381 50.9652381,20.8566667 50.9647619,23.4928571 L50.9661905,38.1290476 C50.9666667,40.7642857 48.8242857,42.9109524 46.1885714,42.9104762 L46.1885714,42.9104762 Z M46.1838095,19.9980952 C44.2538095,19.9961905 42.69,21.5633333 42.69,23.4942857 L42.6914286,38.1309524 C42.692381,40.0638095 44.2561905,41.627619 46.187619,41.6261905 C48.1180952,41.6257143 49.6804762,40.0638095 49.6819048,38.1295238 L49.6780952,23.4933333 C49.677619,21.5619048 48.1147619,19.9971429 46.1838095,19.9980952 L46.1838095,19.9980952 Z" id="Shape" fill="#FFFFFF"></path>
                <path d="M5.24,20.002381 C3.31,20.0014286 1.74571429,21.5695238 1.7452381,23.4980952 L1.74761905,38.1342857 C1.74809524,40.0695238 3.31333333,41.6314286 5.24380952,41.6309524 C7.1752381,41.6309524 8.74,40.0690476 8.73809524,38.1347619 L8.73809524,23.4961905 C8.73714286,21.5680952 7.17095238,20.0014286 5.24,20.002381 L5.24,20.002381 Z M33.4266667,6.85857143 L35.8661905,2.40380952 C35.9961905,2.17095238 35.9109524,1.8747619 35.6752381,1.74285714 C35.4371429,1.61666667 35.1433333,1.70238095 35.0171429,1.93666667 L32.5528571,6.43809524 C30.4795238,5.5152381 28.1590476,4.99809524 25.7038095,5.00047619 C23.2552381,4.99809524 20.9357143,5.51380952 18.8709524,6.43142857 L16.4038095,1.94142857 C16.2757143,1.7047619 15.9804762,1.61904762 15.747619,1.74809524 C15.5104762,1.87619048 15.4233333,2.17285714 15.5552381,2.4052381 L17.9957143,6.85714286 C13.2004762,9.33 9.96047619,14.0395238 9.96333333,19.4466667 L41.4480952,19.4428571 C41.4495238,14.037619 38.2152381,9.33761905 33.4266667,6.85857143 L33.4266667,6.85857143 Z M18.5428571,13.7428571 C17.8185714,13.7414286 17.2271429,13.1519048 17.2271429,12.4233333 C17.2271429,11.6980952 17.8166667,11.1019048 18.5442857,11.102381 C19.2742857,11.1019048 19.8647619,11.6980952 19.8657143,12.4233333 C19.8661905,13.1509524 19.2742857,13.742381 18.5428571,13.7428571 L18.5428571,13.7428571 Z M32.8795238,13.74 C32.1519048,13.7409524 31.5595238,13.1509524 31.5595238,12.4204762 C31.562381,11.6966667 32.1509524,11.1004762 32.88,11.097619 C33.6042857,11.1 34.1980952,11.6966667 34.197619,12.4209524 C34.1985714,13.15 33.6066667,13.7404762 32.8795238,13.74 L32.8795238,13.74 Z M10.0919048,20.6628571 L10.0971429,43.3461905 C10.0957143,45.4095238 11.7647619,47.0752381 13.8266667,47.0752381 L16.3661905,47.0761905 L16.3690476,54.8209524 C16.3685714,56.7495238 17.9361905,58.3171429 19.8619048,58.3171429 C21.7933333,58.3171429 23.3580952,56.7480952 23.3585714,54.8185714 L23.3566667,47.0757143 L28.0752381,47.0742857 L28.0771429,54.8185714 C28.0771429,56.7457143 29.6452381,58.3166667 31.5714286,58.3128571 C33.5028571,58.3142857 35.0685714,56.7452381 35.0680952,54.8157143 L35.0657143,47.0733333 L37.6142857,47.0714286 C39.6714286,47.072381 41.3447619,45.4047619 41.3457143,43.3409524 L41.3414286,20.657619 L10.0919048,20.6628571 L10.0919048,20.6628571 Z M49.6795238,23.4928571 C49.6790476,21.5619048 48.1147619,19.9971429 46.1838095,19.9980952 C44.2538095,19.9961905 42.69,21.5633333 42.69,23.4942857 L42.6928571,38.1314286 C42.692381,40.0638095 44.2561905,41.6257143 46.187619,41.6261905 C48.1180952,41.6257143 49.6814286,40.0638095 49.6819048,38.1295238 L49.6795238,23.4928571 L49.6795238,23.4928571 Z" id="Shape" fill="#A4C439"></path>
            </g>
        </g>
    </g>
</svg>