<?xml version="1.0" encoding="UTF-8" standalone="no"?>
<svg width="64px" height="64px" viewBox="0 0 64 64" version="1.1" xmlns="http://www.w3.org/2000/svg" xmlns:xlink="http://www.w3.org/1999/xlink">
    <defs></defs>
    <g id="Skills---Data" stroke="none" stroke-width="1" fill="none" fill-rule="evenodd">
        <g id="icons/skills/id-108">
            <rect id="Rectangle-7" fill="#F4AE1E" x="9" y="9" width="50" height="50" rx="4"></rect>
            <rect id="Rectangle-7" fill="#FFC321" x="5" y="5" width="50" height="50" rx="4"></rect>
            <g id="Group" transform="translate(9.000000, 8.000000)">
                <path d="M35,16 L39,16 L42,16 L42,19 L42,26 L42,29 L39,29 L35,29 L35,37 L33.5,37 L18,37 L18,34 L32,34 L32,29 L28,29 L25,29 L25,26 L25,19 L25,16 L28,16 L32,16 L32,12 L18,12 L18,9 L35,9 L35,10.5 L35,16 L35,16 L35,16 L35,16 Z M28,19 L28,19 L28,26 L39,26 L39,19 L28,19 L28,19 L28,19 L28,19 Z" id="Shape" fill="#FFFFFF"></path>
                <rect id="Rectangle-12" fill="#FBFBFB" x="9" y="18" width="3" height="10"></rect>
                <path d="M10.5,40.5 C13.5375661,40.5 16,38.0375661 16,35 C16,31.9624339 13.5375661,29.5 10.5,29.5 C7.46243388,29.5 5,31.9624339 5,35 C5,38.0375661 7.46243388,40.5 10.5,40.5 L10.5,40.5 L10.5,40.5 Z M10.5,43.5 L10.5,43.5 C5.80557963,43.5 2,39.6944204 2,35 C2,30.3055796 5.80557963,26.5 10.5,26.5 C15.1944204,26.5 19,30.3055796 19,35 C19,39.6944204 15.1944204,43.5 10.5,43.5 L10.5,43.5 L10.5,43.5 Z" id="Shape" fill="#FFFFFF"></path>
                <path d="M10.3994949,4.74264069 L10.3994949,4.74264069 L4.74264069,10.3994949 L10.3994949,16.0563492 L16.0563492,10.3994949 L10.3994949,4.74264069 L10.3994949,4.74264069 Z M12.5208153,2.62132034 L12.5208153,2.62132034 L18.1776695,8.27817459 L20.2989899,10.3994949 L18.1776695,12.5208153 L12.5208153,18.1776695 L10.3994949,20.2989899 L8.27817459,18.1776695 L2.62132034,12.5208153 L0.5,10.3994949 L2.62132034,8.27817459 L8.27817459,2.62132034 L10.3994949,0.5 L12.5208153,2.62132034 L12.5208153,2.62132034 Z" id="Shape" fill="#FFFFFF"></path>
            </g>
            <rect id="Rectangle-12" x="37" y="27" width="11" height="7"></rect>
            <circle id="Oval-4" cx="19.5" cy="43" r="5.5"></circle>
            <rect id="Rectangle-13" transform="translate(19.363961, 18.363961) rotate(-315.000000) translate(-19.363961, -18.363961) " x="14.863961" y="13.863961" width="9" height="9"></rect>
        </g>
    </g>
</svg>