<?xml version="1.0" encoding="UTF-8" standalone="no"?>
<svg width="64px" height="64px" viewBox="0 0 64 64" version="1.1" xmlns="http://www.w3.org/2000/svg" xmlns:xlink="http://www.w3.org/1999/xlink">
    <defs></defs>
    <g id="Languages" stroke="none" stroke-width="1" fill="none" fill-rule="evenodd">
        <g id="icons/skills/id-194">
            <g id="Group" transform="translate(11.000000, 3.000000)">
                <path d="M0.476190476,31.2380952 C0.571428571,32.9047619 2.23809524,32.1428571 3,31.6190476 C3.71428571,31.0952381 3.95238095,31.5238095 4,30.5238095 C4.04761905,29.8571429 4.0952381,29.2380952 4.0952381,28.5714286 C3,28.4761905 1.80952381,28.7142857 0.904761905,29.3809524 C0.476190476,29.7142857 -0.428571429,30.8095238 0.476190476,31.2380952" id="Shape" stroke="#000000" stroke-width="0.300000012" fill="#F6D2A2"></path>
                <path d="M4.38095238,11.0952381 C-2.0952381,9.28571429 2.71428571,1.04761905 7.9047619,4.42857143 L4.38095238,11.0952381 L4.38095238,11.0952381 Z" id="Shape" stroke="#000000" stroke-width="0.400000006" fill="#6AD7E5"></path>
                <path d="M33.0952381,3.80952381 C38.1904762,0.238095238 42.8571429,8.33333333 36.9047619,10.3809524 L33.0952381,3.80952381 L33.0952381,3.80952381 Z" id="Shape" stroke="#000000" stroke-width="0.400000006" fill="#6AD7E5"></path>
                <path d="M34.2380952,52 C35.5238095,52.8095238 37.9047619,55.2380952 35.952381,56.4285714 C34.0952381,58.1428571 33.047619,54.5238095 31.3809524,54.047619 C32.0952381,53.0952381 33,52.1904762 34.2380952,52" id="Shape" stroke="#000000" stroke-width="0.300000012" fill="#F6D2A2"></path>
                <path d="M11,54.7619048 C9.47619048,55 8.61904762,56.3809524 7.33333333,57.0952381 C6.14285714,57.8095238 5.66666667,56.8571429 5.57142857,56.6666667 C5.38095238,56.5714286 5.38095238,56.7619048 5.0952381,56.4761905 C4,54.7142857 6.23809524,53.4285714 7.42857143,52.5714286 C9.0952381,52.1904762 10.1428571,53.6190476 11,54.7619048" id="Shape" stroke="#000000" stroke-width="0.300000012" fill="#F6D2A2"></path>
                <path d="M4.66666667,8.85714286 C3.80952381,8.42857143 3.19047619,7.80952381 3.71428571,6.80952381 C4.19047619,5.9047619 5.0952381,6 5.95238095,6.42857143 L4.66666667,8.85714286 L4.66666667,8.85714286 Z M35.5714286,8 C36.4285714,7.57142857 37.047619,6.95238095 36.5238095,5.95238095 C36.047619,5.04761905 35.1428571,5.14285714 34.2857143,5.57142857 L35.5714286,8 L35.5714286,8 Z" id="Shape" fill="#000000"></path>
                <path d="M41.4285714,31 C41.3333333,32.6666667 39.6666667,31.9047619 38.9047619,31.3809524 C38.1904762,30.8571429 37.952381,31.2857143 37.9047619,30.2857143 C37.8571429,29.6190476 37.8095238,29 37.8095238,28.3333333 C38.9047619,28.2380952 40.0952381,28.4761905 41,29.1428571 C41.4761905,29.5238095 42.3333333,30.5714286 41.4285714,31" id="Shape" stroke="#000000" stroke-width="0.300000012" fill="#F6D2A2"></path>
                <path d="M20.3333333,0.428571429 C26.8095238,0.428571429 32.8571429,1.33333333 36.047619,7.57142857 C38.9047619,14.5238095 37.8571429,22.047619 38.3333333,29.4285714 C38.7142857,35.7619048 39.5238095,43.047619 36.6190476,48.9047619 C33.5238095,55.047619 25.8095238,56.6190476 19.4761905,56.3809524 C14.4761905,56.1904762 8.47619048,54.5714286 5.61904762,50 C2.33333333,44.6666667 3.85714286,36.7142857 4.0952381,30.7619048 C4.38095238,23.7142857 2.19047619,16.6190476 4.52380952,9.76190476 C6.85714286,2.57142857 13.3333333,0.952380952 20.3333333,0.428571429" id="Shape" stroke="#000000" stroke-width="0.5" fill="#6AD7E5"></path>
                <path d="M21.4761905,9.0952381 C22.6190476,15.8571429 33.6666667,14.047619 32.0952381,7.23809524 C30.6666667,1.14285714 21.0952381,2.85714286 21.4761905,9.0952381" id="Shape" stroke="#000000" stroke-width="0.300000012" fill="#FFFFFF"></path>
                <path d="M8.28571429,10.1904762 C9.80952381,16.047619 19.1904762,14.5714286 18.8571429,8.66666667 C18.4285714,1.61904762 6.80952381,2.95238095 8.28571429,10.1904762" id="Shape" stroke="#000000" stroke-width="0.300000012" fill="#FFFFFF"></path>
                <path d="M22.8095238,17.1904762 C22.8095238,18.047619 23,19.047619 22.8571429,20 C22.6190476,20.4285714 22.1904762,20.4761905 21.8095238,20.6190476 C21.2857143,20.5238095 20.8571429,20.1904762 20.6190476,19.7142857 C20.4761905,18.6666667 20.6666667,17.6190476 20.7142857,16.5714286 L22.8095238,17.1904762 L22.8095238,17.1904762 Z" id="Shape" stroke="#000000" stroke-width="0.300000012" fill="#FFFFFF"></path>
                <path d="M12.4761905,9.23809524 C12.4761905,10.1904762 11.7619048,10.952381 10.9047619,10.952381 C10.047619,10.952381 9.33333333,10.1904762 9.33333333,9.23809524 C9.33333333,8.28571429 10.047619,7.52380952 10.9047619,7.52380952 C11.7619048,7.52380952 12.4761905,8.28571429 12.4761905,9.23809524" id="Shape" fill="#000000"></path>
                <path d="M11.952381,9.61904762 C11.952381,9.85714286 11.7619048,10.047619 11.5714286,10.047619 C11.3809524,10.047619 11.1904762,9.85714286 11.1904762,9.61904762 C11.1904762,9.38095238 11.3809524,9.19047619 11.5714286,9.19047619 C11.8095238,9.19047619 11.952381,9.38095238 11.952381,9.61904762" id="Shape" fill="#FFFFFF"></path>
                <path d="M25.7619048,8.80952381 C25.7619048,9.76190476 25.047619,10.5238095 24.1904762,10.5238095 C23.3333333,10.5238095 22.6190476,9.76190476 22.6190476,8.80952381 C22.6190476,7.85714286 23.3333333,7.0952381 24.1904762,7.0952381 C25.047619,7.0952381 25.7619048,7.85714286 25.7619048,8.80952381" id="Shape" fill="#000000"></path>
                <path d="M25.2857143,9.19047619 C25.2857143,9.42857143 25.1428571,9.61904762 24.9047619,9.61904762 C24.7142857,9.61904762 24.5238095,9.42857143 24.5238095,9.19047619 C24.5238095,8.95238095 24.6666667,8.76190476 24.9047619,8.76190476 C25.0952381,8.76190476 25.2857143,8.95238095 25.2857143,9.19047619" id="Shape" fill="#FFFFFF"></path>
                <path d="M18.2380952,17.0952381 C17.5238095,18.7619048 18.6190476,22.1428571 20.5238095,19.6666667 C20.3809524,18.6190476 20.5714286,17.5714286 20.6190476,16.5238095 L18.2380952,17.0952381 L18.2380952,17.0952381 Z" id="Shape" stroke="#000000" stroke-width="0.300000012" fill="#FFFFFF"></path>
                <path d="M18.4761905,13.8571429 C17.1904762,13.952381 16.1428571,15.5238095 16.8095238,16.7142857 C17.7142857,18.3333333 19.6666667,16.5714286 20.9047619,16.7142857 C22.3333333,16.7619048 23.4761905,18.2380952 24.6190476,17 C25.9047619,15.6190476 24.047619,14.2857143 22.6666667,13.6666667 L18.4761905,13.8571429 L18.4761905,13.8571429 Z" id="Shape" stroke="#000000" stroke-width="0.599999964" fill="#F6D2A2"></path>
                <path d="M18.3333333,13.8095238 C18.2380952,11.5714286 22.5238095,11.2857143 23,13.1428571 C23.5238095,15.047619 18.5238095,15.4761905 18.3333333,13.8095238" id="Shape" fill="#000000"></path>
            </g>
            <path id="Shape" fill="#C6B198" d="M11.4761905,34.2380952 C11.7142857,34.1428571 12,34.0952381 12.1428571,33.8571429"></path>
            <path d="M11.4761905,34.3809524 C11.4285714,34.3809524 11.3333333,34.3333333 11.3333333,34.2857143 C11.2857143,34.1904762 11.3333333,34.0952381 11.4285714,34.0952381 C11.4761905,34.0952381 11.5238095,34.047619 11.5238095,34.047619 C11.7142857,33.952381 11.9047619,33.9047619 12,33.7619048 C12.047619,33.7142857 12.1428571,33.6666667 12.2380952,33.7142857 C12.2857143,33.7619048 12.3333333,33.8571429 12.2857143,33.952381 C12.0952381,34.1904762 11.8571429,34.2857143 11.6666667,34.3333333 L11.5714286,34.3809524 L11.4761905,34.3809524 L11.4761905,34.3809524 Z" id="Shape" fill="#000000"></path>
            <path id="Shape" fill="#C6B198" d="M52.4285714,34 C52.1904762,33.9047619 51.9047619,33.8571429 51.7619048,33.6190476"></path>
            <path d="M46.952381,59.5714286 C46.9047619,59.5714286 46.8571429,59.5238095 46.8095238,59.4761905 C46.7142857,59.2857143 46.6190476,59.047619 46.5714286,58.8571429 C46.4285714,58.4761905 46.2857143,58.0952381 46,57.8095238 C45.952381,57.7619048 45.952381,57.6666667 46,57.5714286 C46.047619,57.5238095 46.1428571,57.5238095 46.2380952,57.5714286 C46.5714286,57.9047619 46.7619048,58.3333333 46.9047619,58.7619048 L47.1428571,59.3333333 C47.1904762,59.4285714 47.1428571,59.5238095 47.0952381,59.5714286 L46.952381,59.5714286 L46.952381,59.5714286 Z" id="Path" fill="#000000"></path>
            <path d="M16.5714286,59.8095238 C16.4761905,59.8095238 16.3809524,59.7142857 16.4285714,59.6190476 C16.4761905,59.1428571 16.7142857,58.8095238 16.952381,58.4285714 C17.0952381,58.2380952 17.1904762,58.047619 17.2857143,57.8571429 C17.3333333,57.7619048 17.4285714,57.7619048 17.4761905,57.7619048 C17.5714286,57.8095238 17.5714286,57.9047619 17.5714286,57.952381 C17.4761905,58.1904762 17.3333333,58.3809524 17.1904762,58.5714286 C16.952381,58.9047619 16.7619048,59.1904762 16.7142857,59.5714286 C16.7142857,59.7619048 16.6666667,59.8095238 16.5714286,59.8095238 L16.5714286,59.8095238 Z" id="Path" fill="#000000"></path>
            <path d="M52.4285714,34.1904762 L52.3809524,34.1904762 L52.2857143,34.1428571 C52.047619,34.047619 51.8095238,34 51.6666667,33.7619048 C51.6190476,33.7142857 51.6190476,33.5714286 51.7142857,33.5238095 C51.7619048,33.4761905 51.9047619,33.4761905 51.952381,33.5714286 C52.047619,33.7142857 52.2380952,33.7619048 52.4285714,33.8571429 C52.4761905,33.8571429 52.5238095,33.9047619 52.5238095,33.9047619 C52.6190476,33.952381 52.6666667,34.047619 52.6190476,34.0952381 C52.5714286,34.1428571 52.4761905,34.1904762 52.4285714,34.1904762 L52.4285714,34.1904762 Z" id="Shape" fill="#000000"></path>
            <path d="M31.5714286,59.5714286 L30.3809524,59.5714286 C28.4285714,59.5238095 25.4761905,59.1904762 22.5714286,58 C19.7619048,56.8571429 17.7142857,55.2380952 16.3809524,53.0952381 C13.7142857,48.7619048 14.1904762,42.8095238 14.6190476,37.5238095 C14.7142857,36.1904762 14.8095238,34.952381 14.8571429,33.7619048 C14.952381,31.2857143 14.7619048,28.7142857 14.5238095,26.2857143 C14.1428571,21.8095238 13.7619048,17.1904762 15.2380952,12.7142857 C16.3809524,9.38095238 18.4285714,7 21.5238095,5.47619048 C23.952381,4.28571429 26.952381,3.61904762 31.2380952,3.28571429 C37.6190476,3.23809524 43.952381,4.14285714 47.1428571,10.4761905 C49.2380952,15.5714286 49.2380952,21.047619 49.2857143,26.3333333 C49.2857143,28.3333333 49.2857143,30.3809524 49.4285714,32.3809524 C49.4761905,33 49.5238095,33.6190476 49.5238095,34.2380952 C49.9047619,40.047619 50.3333333,46.6190476 47.6666667,51.952381 C46.3333333,54.6666667 44,56.6666667 40.8095238,57.952381 C38.2380952,59 35,59.5714286 31.5714286,59.5714286 L31.5714286,59.5714286 Z M31.3333333,3.57142857 C24.6190476,4.0952381 18.047619,5.57142857 15.6190476,12.8095238 C14.1428571,17.2380952 14.5238095,21.8095238 14.9047619,26.2380952 C15.0952381,28.7142857 15.3333333,31.2380952 15.2380952,33.7619048 C15.1904762,34.952381 15.0952381,36.1904762 15,37.5238095 C14.5714286,42.7619048 14.0952381,48.6666667 16.7142857,52.9047619 C17.8095238,54.6666667 21.3333333,58.8571429 30.4285714,59.1904762 L31.6190476,59.1904762 C42.1428571,59.1904762 46.047619,54.5238095 47.4761905,51.7619048 C50.0952381,46.5238095 49.6666667,39.952381 49.3333333,34.1904762 C49.2857143,33.5714286 49.2380952,32.952381 49.2380952,32.3333333 C49.1428571,30.3333333 49.0952381,28.2857143 49.0952381,26.2857143 C49.047619,21.047619 49.047619,15.5714286 47,10.5238095 C45.5714286,7.71428571 43.4285714,5.80952381 40.4761905,4.71428571 C37.4285714,3.71428571 34,3.57142857 31.3333333,3.57142857 L31.3333333,3.57142857 Z" id="Shape" fill="#000000"></path>
        </g>
    </g>
</svg>