<?xml version="1.0" encoding="UTF-8" standalone="no"?>
<svg width="64px" height="64px" viewBox="0 0 64 64" version="1.1" xmlns="http://www.w3.org/2000/svg" xmlns:xlink="http://www.w3.org/1999/xlink">
    <defs></defs>
    <g id="Platforms" stroke="none" stroke-width="1" fill="none" fill-rule="evenodd">
        <g id="icons/skills/id-126">
            <g id="Polygon-4-+-Path-168-+-Shape-+-Group" transform="translate(2.000000, 5.000000)">
                <path d="M1.09583412,23.8978195 L14.0832605,2.17252905 C14.9022067,0.848830107 16.3647616,0 17.3301171,0 L43.3049699,0 C44.2746261,0 45.7350307,0.852585192 46.5518265,2.17252905 L59.5392529,23.8978195 C60,25.5737705 60,27.0491803 59.5392529,28.2428776 L46.5518265,49.9681681 C45.7328803,51.291867 44.2703254,52.1406971 43.3049699,52.1406971 L17.3301171,52.1406971 C16.3604609,52.1406971 14.9000563,51.2881119 14.0832605,49.9681681 L1.09583412,28.2428776 C0.491803288,27.0491803 0.491803279,25.0819672 1.09583412,23.8978195 Z" id="Polygon-4" fill="#4285F5"></path>
                <path d="M41.4324541,52.2110044 L24.475569,35.7456232 C26.0534865,36.564487 27.845913,37.027175 29.7463359,37.027175 C36.0748912,37.027175 41.2058298,31.8962364 41.2058298,25.5676811 C41.2058298,24.2377424 40.9792345,22.9606935 40.5625479,21.7730384 L54.7782789,35.9887694 L46.3793338,50.0384753 C45.5603876,51.3621742 44.0978327,52.2110044 43.1324772,52.2110044 L41.4324541,52.2110044 L41.4324541,52.2110044 Z" id="Path-168" fill="#3D7DE3"></path>
                <g id="Shape-+-Group" transform="translate(18.172847, 13.751393)" fill="#FFFFFF">
                    <path d="M24.6075161,22.5817446 L19.6345633,17.6087918 L17.6087918,19.6345633 L22.5817446,24.6075161 L24.6075161,22.5817446 L24.6075161,22.5817446 Z M20.3406016,11.7459812 C20.3406016,16.4923106 16.4923106,20.3406016 11.7459812,20.3406016 C6.99965188,20.3406016 3.15136081,16.4923106 3.15136081,11.7459812 C3.15136081,6.99965188 6.99965188,3.15136081 11.7459812,3.15136081 C16.4923106,3.15136081 20.3406016,6.99965188 20.3406016,11.7459812 L20.3406016,11.7459812 Z M23.2054751,11.7459812 C23.2054751,5.41742595 18.0745365,0.286487347 11.7459812,0.286487347 C5.41742595,0.286487347 0.286487347,5.41742595 0.286487347,11.7459812 C0.286487347,18.0745365 5.41742595,23.2054751 11.7459812,23.2054751 C18.0745365,23.2054751 23.2054751,18.0745365 23.2054751,11.7459812 L23.2054751,11.7459812 L23.2054751,11.7459812 Z" id="Shape"></path>
                    <g id="Group" transform="translate(6.302722, 8.021646)">
                        <path d="M2.81406595,9.45408244 C1.6348091,8.9120201 0.651567745,8.01659862 2.22044605e-16,6.90347612 L7.72837503e-15,3.72433551 L2.86487347,3.72433551 L2.86487347,9.45408244 L2.81406595,9.45408244 L2.81406595,9.45408244 Z" id="Stroke-5520"></path>
                        <path d="M6.87569632,9.86354058 C6.41550717,9.97050595 5.9359826,10.0270571 5.44325959,10.0270571 C4.95053658,10.0270571 4.471012,9.97050595 4.01082286,9.86354058 L4.01082286,0.286487347 L6.87569632,0.286487347 L6.87569632,9.86354058 L6.87569632,9.86354058 Z" id="Stroke-5520"></path>
                        <path d="M10.8865192,6.90347612 C10.2349514,8.01659862 9.25171008,8.9120201 8.07245323,9.45408244 L8.02164571,9.45408244 L8.02164571,4.8702849 L10.8865192,4.8702849 L10.8865192,6.90347612 L10.8865192,6.90347612 Z" id="Stroke-5520"></path>
                    </g>
                </g>
            </g>
        </g>
    </g>
</svg>