<?xml version="1.0" encoding="UTF-8" standalone="no"?>
<svg width="64px" height="64px" viewBox="0 0 64 64" version="1.1" xmlns="http://www.w3.org/2000/svg" xmlns:xlink="http://www.w3.org/1999/xlink">
    <!-- Generator: Sketch 3.6.1 (26313) - http://www.bohemiancoding.com/sketch -->
    <title>icons/skills/id-151</title>
    <desc>Created with Sketch.</desc>
    <defs></defs>
    <g id="Skills---Design" stroke="none" stroke-width="1" fill="none" fill-rule="evenodd">
        <g id="icons/skills/id-151">
            <g id="Group" transform="translate(5.000000, 5.000000)">
                <path d="M50,54 L8,54 C5.8,54 4,52.2 4,50 L4,8 C4,5.8 5.8,4 8,4 L50,4 C52.2,4 54,5.8 54,8 L54,50 C54,52.2 52.2,54 50,54 L50,54 Z" id="Shape" fill="#0288D1"></path>
                <path d="M46,50 L4,50 C1.8,50 0,48.2 0,46 L0,4 C0,1.8 1.8,0 4,0 L46,0 C48.2,0 50,1.8 50,4 L50,46 C50,48.2 48.2,50 46,50 L46,50 Z" id="Shape" fill="#29B6F6"></path>
            </g>
            <path d="M30.8,9 C31.4,9 32,9 32.6,9.1 C33,9 33.5,9 33.9,9 C43.3,9 51,16.6 51,25.9 C51,30.5 49.2,34.6 46.2,37.6 C45.8,38.2 45.3,38.9 44.8,39.7 C41.7,44.4 46,55 46,55 L26,55 L25,48.9 L15.2,49 L14,40.1 L9,40 C9,28.2 15.7,9 30.8,9 L30.8,9 Z" id="XMLID_71_" fill="#01579B"></path>
            <g id="Group" transform="translate(18.000000, 13.000000)" fill="#FCD617">
                <rect id="Rectangle-path" transform="translate(22.783760, 5.160700) rotate(45.000000) translate(-22.783760, -5.160700) " x="21.7837696" y="3.66071439" width="1.99998082" height="2.99997123"></rect>
                <rect id="Rectangle-path" x="25" y="13" width="3" height="2"></rect>
                <rect id="Rectangle-path" transform="translate(22.838800, 22.783360) rotate(45.000000) translate(-22.838800, -22.783360) " x="21.3388144" y="21.7833696" width="2.99997123" height="1.99998082"></rect>
                <rect id="Rectangle-path" transform="translate(5.216140, 22.838500) rotate(45.000000) translate(-5.216140, -22.838500) " x="4.21614959" y="21.3385144" width="1.99998082" height="2.99997123"></rect>
                <rect id="Rectangle-path" x="0" y="13" width="3" height="2"></rect>
                <rect id="Rectangle-path" transform="translate(5.161100, 5.215840) rotate(45.000000) translate(-5.161100, -5.215840) " x="3.66111439" y="4.21584959" width="2.99997123" height="1.99998082"></rect>
                <rect id="Rectangle-path" x="13" y="0" width="2" height="3"></rect>
            </g>
            <g id="Group" transform="translate(24.000000, 19.000000)">
                <path d="M4,16 L4,20 L6,20 C6,21.1 6.9,22 8,22 C9.1,22 10,21.1 10,20 L12,20 L12,16 L4,16 L4,16 Z" id="Shape" fill="#26C6DA"></path>
                <path d="M3.8,1.1 C2.7,1.7 1.7,2.6 1.1,3.8 C-1.3,8.4 0.5,12.9 4,15 L4,16 L12,16 L12,14.9 C14.4,13.5 16,10.9 16,8 C16,2.2 9.9,-2.1 3.8,1.1 L3.8,1.1 Z" id="Shape" fill="#FCD617"></path>
            </g>
            <path d="M29,26 L32,29 L35,26" id="Shape" stroke="#FFFFFF" stroke-width="2"></path>
            <path d="M32,33 L32,29" id="Shape" stroke="#FFFFFF" stroke-width="2"></path>
        </g>
    </g>
</svg>