<?xml version="1.0" encoding="UTF-8" standalone="no"?>
<svg width="64px" height="64px" viewBox="0 0 64 64" version="1.1" xmlns="http://www.w3.org/2000/svg" xmlns:xlink="http://www.w3.org/1999/xlink">
    <defs>
        <linearGradient x1="50.9965651%" y1="-19.5372596%" x2="50.9965651%" y2="129.823384%" id="linearGradient-1">
            <stop stop-color="#0994DC" offset="0%"></stop>
            <stop stop-color="#66CEF5" offset="35%"></stop>
            <stop stop-color="#66CEF5" offset="35%"></stop>
            <stop stop-color="#127BCA" offset="84.6%"></stop>
            <stop stop-color="#127BCA" offset="84.6%"></stop>
            <stop stop-color="#127BCA" offset="100%"></stop>
        </linearGradient>
        <linearGradient x1="50.8467274%" y1="-19.3614912%" x2="50.8467274%" y2="129.620721%" id="linearGradient-2">
            <stop stop-color="#0E76BC" offset="0%"></stop>
            <stop stop-color="#36AEE8" offset="36%"></stop>
            <stop stop-color="#36AEE8" offset="36%"></stop>
            <stop stop-color="#00ADEF" offset="84.6%"></stop>
            <stop stop-color="#00ADEF" offset="84.6%"></stop>
            <stop stop-color="#00ADEF" offset="100%"></stop>
        </linearGradient>
        <linearGradient x1="49.9825154%" y1="110.737156%" x2="49.9825154%" y2="-6.2714633%" id="linearGradient-3">
            <stop stop-color="#1C63B7" offset="0%"></stop>
            <stop stop-color="#33BDF2" offset="50%"></stop>
            <stop stop-color="#33BDF2" stop-opacity="0.42" offset="100%"></stop>
        </linearGradient>
        <linearGradient x1="49.5962797%" y1="-19.801361%" x2="49.5962797%" y2="129.561688%" id="linearGradient-4">
            <stop stop-color="#166AB8" offset="0%"></stop>
            <stop stop-color="#36AEE8" offset="40%"></stop>
            <stop stop-color="#36AEE8" offset="40%"></stop>
            <stop stop-color="#0798DD" offset="84.6%"></stop>
            <stop stop-color="#0798DD" offset="84.6%"></stop>
            <stop stop-color="#0798DD" offset="100%"></stop>
        </linearGradient>
        <linearGradient x1="50.8010953%" y1="-19.4289963%" x2="50.8010953%" y2="129.936563%" id="linearGradient-5">
            <stop stop-color="#124379" offset="0%"></stop>
            <stop stop-color="#1487CB" offset="39%"></stop>
            <stop stop-color="#1487CB" offset="39%"></stop>
            <stop stop-color="#165197" offset="78%"></stop>
            <stop stop-color="#165197" offset="78%"></stop>
            <stop stop-color="#165197" offset="100%"></stop>
        </linearGradient>
        <linearGradient x1="-5.37296142%" y1="45.245554%" x2="94.616843%" y2="45.245554%" id="linearGradient-6">
            <stop stop-color="#33BDF2" stop-opacity="0.698" offset="0%"></stop>
            <stop stop-color="#1DACD8" offset="100%"></stop>
        </linearGradient>
        <linearGradient x1="50.1884062%" y1="94.4378165%" x2="50.1884062%" y2="-3.16715451%" id="linearGradient-7">
            <stop stop-color="#136AB4" offset="0%"></stop>
            <stop stop-color="#59CAF5" stop-opacity="0.549" offset="60%"></stop>
            <stop stop-color="#59CAF5" stop-opacity="0.235" offset="100%"></stop>
        </linearGradient>
        <linearGradient x1="-1.4325036%" y1="48.5090441%" x2="98.5577298%" y2="48.5090441%" id="linearGradient-8">
            <stop stop-color="#05A1E6" stop-opacity="0.247" offset="0%"></stop>
            <stop stop-color="#05A1E6" offset="100%"></stop>
        </linearGradient>
        <linearGradient x1="50.7845389%" y1="124.058479%" x2="50.7845389%" y2="-9.53162155%" id="linearGradient-9">
            <stop stop-color="#318ED5" offset="0%"></stop>
            <stop stop-color="#38A7E4" offset="100%"></stop>
        </linearGradient>
        <linearGradient x1="48.8756427%" y1="91.1819701%" x2="48.8756427%" y2="-77.0508499%" id="linearGradient-10">
            <stop stop-color="#05A1E6" offset="0%"></stop>
            <stop stop-color="#05A1E6" stop-opacity="0.549" offset="100%"></stop>
        </linearGradient>
        <linearGradient x1="50.6775978%" y1="100.155826%" x2="50.6775978%" y2="0.00972314621%" id="linearGradient-11">
            <stop stop-color="#1959A6" offset="0%"></stop>
            <stop stop-color="#05A1E6" offset="50%"></stop>
            <stop stop-color="#05A1E6" offset="50%"></stop>
            <stop stop-color="#7EC5EA" offset="91.8%"></stop>
            <stop stop-color="#7EC5EA" offset="100%"></stop>
        </linearGradient>
        <linearGradient x1="59.5916291%" y1="94.4695714%" x2="38.2822589%" y2="5.7565252%" id="linearGradient-12">
            <stop stop-color="#165096" offset="0%"></stop>
            <stop stop-color="#0D82CA" offset="100%"></stop>
        </linearGradient>
        <linearGradient x1="48.4680724%" y1="76.6899199%" x2="48.4680724%" y2="-3.52034882%" id="linearGradient-13">
            <stop stop-color="#05A1E6" offset="0%"></stop>
            <stop stop-color="#0495D6" offset="87.4%"></stop>
            <stop stop-color="#0495D6" offset="100%"></stop>
        </linearGradient>
        <linearGradient x1="65.8772655%" y1="-3.69994399%" x2="34.908494%" y2="106.185776%" id="linearGradient-14">
            <stop stop-color="#38A7E4" stop-opacity="0.329" offset="0%"></stop>
            <stop stop-color="#0E88D3" offset="96.2%"></stop>
            <stop stop-color="#0E88D3" offset="96.2%"></stop>
            <stop stop-color="#0E88D3" offset="100%"></stop>
        </linearGradient>
        <linearGradient x1="49.1430748%" y1="-0.176473574%" x2="49.1430748%" y2="101.888497%" id="linearGradient-15">
            <stop stop-color="#168CD4" offset="0%"></stop>
            <stop stop-color="#1C87CC" offset="50%"></stop>
            <stop stop-color="#154B8D" offset="100%"></stop>
        </linearGradient>
        <linearGradient x1="2.4202646%" y1="146.8406%" x2="361.122104%" y2="-314.2174%" id="linearGradient-16">
            <stop stop-color="#97D6EE" offset="0%"></stop>
            <stop stop-color="#55C1EA" offset="70.3%"></stop>
            <stop stop-color="#55C1EA" offset="100%"></stop>
        </linearGradient>
        <linearGradient x1="15.6798971%" y1="-74.2712%" x2="363.1148%" y2="323.7238%" id="linearGradient-17">
            <stop stop-color="#7ACCEC" offset="0%"></stop>
            <stop stop-color="#3FB7ED" offset="100%"></stop>
        </linearGradient>
        <linearGradient x1="48.6388326%" y1="6.38318108%" x2="48.6388326%" y2="127.848094%" id="linearGradient-18">
            <stop stop-color="#1DA7E7" offset="0%"></stop>
            <stop stop-color="#37ABE7" stop-opacity="0" offset="100%"></stop>
        </linearGradient>
    </defs>
    <g id="Languages" stroke="none" stroke-width="1" fill="none" fill-rule="evenodd">
        <g id="icons/skills/id-100">
            <g id="dot-net-original" transform="translate(2.000000, 20.000000)">
                <path d="M20.9458065,5.10919355 C23.0830645,11.6448387 23.8925806,23.3032258 30.1422581,23.3032258 C30.6174194,23.3032258 31.098871,23.2567742 31.5812903,23.1648387 C25.9006452,21.8404839 25.2270968,10.308871 21.7601613,4.33645161 C21.4882258,4.58370968 21.2191935,4.84112903 20.9458065,5.10919355" id="Shape" fill="url(#linearGradient-1)"></path>
                <path d="M21.7601613,4.33645161 C25.2270968,10.3083871 25.9006452,21.84 31.5812903,23.1648387 C32.0279032,23.0830645 32.475,22.9587097 32.9230645,22.8024194 C27.8235484,20.3037097 26.4145161,9.10596774 22.4772581,3.71516129 C22.2391935,3.91354839 21.9996774,4.12112903 21.7601613,4.33645161" id="Shape" fill="url(#linearGradient-2)"></path>
                <path d="M26.7551613,0.785322581 C26.2809677,0.785322581 25.7985484,0.831774194 25.3146774,0.923709677 C24.0508065,1.16225806 22.7656452,1.7066129 21.4708065,2.53064516 C21.8240323,2.88 22.1612903,3.27919355 22.4777419,3.71516129 C23.7953226,2.62209677 25.1037097,1.81451613 26.4067742,1.32870968 C26.8964516,1.14725806 27.3837097,1.01129032 27.8724194,0.921290323 C27.5196774,0.832258065 27.1480645,0.785322581 26.7551613,0.785322581" id="Shape" fill="#14559A"></path>
                <path d="M36.903871,20.4996774 C37.4254839,20.085 37.9480645,19.6262903 38.4716129,19.1254839 C36.3,12.6208065 35.5224194,0.795 29.2291935,0.795 C28.7791935,0.795 28.3253226,0.837096774 27.8724194,0.920806452 C33.6048387,2.34677419 34.3393548,14.8185484 36.903871,20.4996774" id="Shape" fill="url(#linearGradient-3)"></path>
                <path id="Shape" fill="#3092C4" d="M27.8729032,0.921290323 C27.5201613,0.831774194 27.1480645,0.78483871 26.7546774,0.78483871 L29.2291935,0.794032258 C28.7796774,0.794032258 28.3258065,0.835645161 27.8729032,0.921290323"></path>
                <path d="M36.7935484,21.881129 C36.5477419,21.6464516 36.3140323,21.3890323 36.0841935,21.1146774 C35.0254839,21.8641935 33.9706452,22.4327419 32.9230645,22.8029032 C33.296129,22.9848387 33.6866129,23.1203226 34.1017742,23.2040323 C34.4230645,23.2698387 34.7564516,23.3037097 35.1058065,23.3037097 C36.2820968,23.3037097 37.2120968,23.1643548 38.0027419,22.785 C37.5672581,22.548871 37.1675806,22.2440323 36.7935484,21.881129" id="Shape" fill="#1969BC"></path>
                <path d="M26.4062903,1.32967742 C31.5406452,4.01516129 31.9872581,16.1767742 36.0841935,21.1146774 C36.3590323,20.921129 36.6309677,20.7159677 36.9024194,20.4996774 C34.3379032,14.8185484 33.6048387,2.34532258 27.8733871,0.920806452 C27.3841935,1.01225806 26.8959677,1.14774194 26.4062903,1.32967742" id="Shape" fill="url(#linearGradient-4)"></path>
                <path d="M22.4772581,3.71516129 C26.4145161,9.10596774 27.8235484,20.3041935 32.9230645,22.8029032 C33.971129,22.4327419 35.0259677,21.8646774 36.0841935,21.1146774 C31.9872581,16.1767742 31.5406452,4.01564516 26.4062903,1.32967742 C25.1032258,1.81451613 23.7948387,2.62209677 22.4772581,3.71516129" id="Shape" fill="url(#linearGradient-5)"></path>
                <path d="M18.4272581,4.95193548 C17.8103226,6.34693548 17.1798387,8.18129032 16.4182258,10.575 C17.9332258,8.43967742 19.443871,6.60048387 20.9458065,5.10967742 C20.7387097,4.47387097 20.5166129,3.88693548 20.2770968,3.36483871 C19.6630645,3.83419355 19.0437097,4.36354839 18.4272581,4.95193548" id="Shape" fill="url(#linearGradient-6)"></path>
                <path d="M20.8243548,2.96177419 C20.6433871,3.09145161 20.4609677,3.22403226 20.2775806,3.36435484 C20.5170968,3.88693548 20.7387097,4.4733871 20.9453226,5.10967742 C21.2182258,4.84258065 21.4891935,4.58419355 21.7601613,4.33693548 C21.4693548,3.83709677 21.1601613,3.37596774 20.8243548,2.96177419" id="Shape" fill="#2B74B1"></path>
                <path d="M21.4708065,2.53016129 C21.2554839,2.6666129 21.041129,2.81080645 20.823871,2.96129032 C21.1601613,3.375 21.468871,3.83709677 21.7606452,4.33741935 C22.0001613,4.12064516 22.2391935,3.91209677 22.4777419,3.71467742 C22.1612903,3.27919355 21.8245161,2.87951613 21.4708065,2.53016129" id="Shape" fill="#125A9E"></path>
                <path d="M56.4924194,0.287419355 C53.5887097,11.486129 47.5233871,20.4812903 42.438871,22.7487097 L42.4287097,22.7487097 L42.1543548,22.8662903 L42.1209677,22.8793548 L42.0430645,22.9093548 L42.0082258,22.923871 L41.8809677,22.968871 L41.8287097,22.9872581 L41.7653226,23.0080645 L41.7043548,23.0293548 L41.6501613,23.0477419 L41.5417742,23.0806452 L41.4953226,23.0927419 L41.4222581,23.1125806 L41.3724194,23.126129 L41.2925806,23.1469355 L41.1953226,23.1682258 C41.4251613,23.2529032 41.6646774,23.2959677 41.9225806,23.2959677 C46.7443548,23.2959677 51.6062903,14.655 59.6506452,0.285 L56.4919355,0.285 L56.4924194,0.287419355 L56.4924194,0.287419355 Z" id="Shape" fill="url(#linearGradient-7)"></path>
                <path d="M15.3706452,1.24016129 L15.3798387,1.23241935 L15.3909677,1.22516129 L15.3972581,1.22516129 L15.4751613,1.19516129 L15.4906452,1.18741935 L15.5109677,1.17919355 L15.5946774,1.14919355 L15.5990323,1.14919355 L15.7843548,1.08435484 L15.8119355,1.07709677 L15.8912903,1.0533871 L15.9275806,1.04177419 L16.0074194,1.01806452 L16.0379032,1.00983871 L16.3030645,0.941129032 L16.3393548,0.932903226 L16.4167742,0.917903226 L16.4545161,0.906290323 L16.5324194,0.891774194 L16.5508065,0.891774194 L16.7119355,0.861774194 L16.743871,0.861774194 L16.8183871,0.848709677 L16.8604839,0.841451613 L16.9316129,0.830806452 L16.9708065,0.823064516 L17.1440323,0.807580645 C16.9770968,0.792096774 16.8058065,0.781451613 16.6306452,0.781451613 C11.2001613,0.781451613 3.71854839,10.8566129 0.348870968,23.9046774 L0.998709677,23.9046774 C2.07725806,21.9812903 3.04596774,20.1614516 3.93193548,18.4533871 C6.29274194,9.21145161 11.1,2.90854839 15.3706452,1.23870968" id="Shape" fill="url(#linearGradient-8)"></path>
                <path d="M18.4272581,4.95193548 C19.0441935,4.36354839 19.6630645,3.83419355 20.2770968,3.36435484 C20.1372581,3.05758065 19.9920968,2.77306452 19.8362903,2.51225806 C19.3398387,3.11516129 18.8859677,3.91064516 18.4272581,4.95193548" id="Shape" fill="#0D82CA"></path>
                <path d="M18.8733871,1.31612903 C19.2280645,1.61322581 19.5459677,2.02258065 19.8362903,2.51274194 C19.9277419,2.40048387 20.0206452,2.29645161 20.1169355,2.19870968 C19.7133871,1.82225806 19.2779032,1.51354839 18.8046774,1.28080645 L18.8627419,1.3083871 L18.8733871,1.31612903" id="Shape" fill="#0D82CA"></path>
                <path d="M3.93241935,18.453871 C8.88387097,8.91241935 11.2296774,2.87370968 15.371129,1.23919355 C11.1009677,2.91048387 6.29274194,9.21290323 3.93241935,18.453871" id="Shape" fill="url(#linearGradient-9)"></path>
                <path d="M20.1164516,2.19870968 C20.0201613,2.29741935 19.9282258,2.40048387 19.8358065,2.51274194 C19.9916129,2.77306452 20.1362903,3.0566129 20.2775806,3.36435484 C20.4604839,3.22403226 20.6433871,3.09193548 20.823871,2.96177419 C20.6003226,2.68548387 20.3637097,2.42903226 20.1164516,2.19870968" id="Shape" fill="#127BCA"></path>
                <path d="M6.18048387,23.8620968 L6.09048387,23.8727419 L6.07354839,23.8727419 L5.99709677,23.8804839 L5.98451613,23.8804839 L5.80258065,23.8925806 L5.78370968,23.8925806 C10.7946774,23.7522581 13.0858065,21.2433871 14.2224194,17.6037097 C15.086129,14.8451613 15.7959677,12.5206452 16.4177419,10.5706452 C14.3187097,13.5251613 12.21,17.0467742 10.0901613,20.9927419 C9.06822581,22.8943548 7.51354839,23.688871 6.18048387,23.8582258" id="Shape" fill="url(#linearGradient-10)"></path>
                <path d="M6.18048387,23.8601613 C7.51354839,23.6903226 9.06822581,22.8967742 10.0901613,20.9941935 C12.21,17.0501613 14.3196774,13.5275806 16.4167742,10.5725806 C17.1798387,8.17790323 17.8093548,6.345 18.4267742,4.94951613 C14.2466129,8.9283871 10.0504839,15.5443548 6.18,23.8577419" id="Shape" fill="url(#linearGradient-11)"></path>
                <path d="M3.93241935,18.4543548 C3.04645161,20.1624194 2.07774194,21.9822581 0.998709677,23.9056452 L2.88774194,23.9056452 C3.13790323,21.9953226 3.49209677,20.1745161 3.93193548,18.4553226" id="Shape" fill="#05A1E6"></path>
                <path d="M16.9708065,0.826935484 L16.9306452,0.834677419 L16.86,0.84483871 L16.8183871,0.852096774 L16.743871,0.86516129 L16.7119355,0.872903226 L16.5508065,0.900967742 L16.5324194,0.900967742 L16.4540323,0.916451613 L16.4148387,0.927096774 L16.338871,0.942096774 L16.3030645,0.950806452 L16.0374194,1.01951613 L16.0069355,1.02822581 L15.9266129,1.05193548 L15.8903226,1.06209677 L15.8114516,1.08580645 L15.7824194,1.09354839 L15.5980645,1.1583871 L15.5143548,1.18741935 L15.4795161,1.20193548 L15.4016129,1.23096774 L15.3754839,1.24354839 C11.2345161,2.87758065 8.88870968,8.91629032 3.93725806,18.4577419 C3.49741935,20.1764516 3.14129032,21.9977419 2.89306452,23.9080645 L3.15774194,23.9080645 L4.97467742,23.9003226 L5.8083871,23.9003226 L5.98983871,23.8882258 L6.00145161,23.8882258 L6.07790323,23.8804839 L6.09580645,23.8804839 L6.18580645,23.8698387 C10.0567742,15.5559677 14.2529032,8.94048387 18.4325806,4.9616129 C18.8922581,3.92032258 19.3456452,3.12483871 19.841129,2.52290323 C19.5508065,2.03274194 19.2333871,1.62241935 18.8791935,1.32483871 L18.8690323,1.31709677 L18.81,1.28854839 L18.7514516,1.25903226 L18.6948387,1.23145161 L18.6275806,1.2033871 L18.5753226,1.18064516 L18.4654839,1.13467742 L18.4185484,1.11725806 L18.3367742,1.08435484 L18.2927419,1.06983871 L18.1790323,1.03064516 L18.1698387,1.03064516 L18.0382258,0.993387097 L18.0087097,0.984193548 L17.8979032,0.953225806 L17.8722581,0.945967742 C17.7827419,0.921774194 17.6903226,0.903387097 17.5969355,0.885483871 L17.5683871,0.877741935 L17.448871,0.858387097 L17.4251613,0.851129032 L17.283871,0.832258065 L17.2591935,0.832258065 L17.1498387,0.82016129 L16.9766129,0.836129032" id="Shape" fill="url(#linearGradient-12)"></path>
                <path d="M45.1504839,6.48725806 C44.1972581,9.53903226 43.4264516,12.0566129 42.7543548,14.1280645 C45.3687097,10.5304839 47.943871,6.00532258 50.3956452,0.783387097 C47.5345161,1.68193548 46.0093548,3.7383871 45.1504839,6.48725806" id="Shape" fill="url(#linearGradient-13)"></path>
                <path d="M42.8370968,22.5585484 C42.7040323,22.6262903 42.57,22.6906452 42.438871,22.7491935 C47.5233871,20.4812903 53.5891935,11.486129 56.4924194,0.287419355 L55.9040323,0.287419355 C49.2324194,12.2056452 47.0869355,20.1841935 42.8370968,22.5585484" id="Shape" fill="url(#linearGradient-14)"></path>
                <path d="M39.5167742,21.5574194 C40.6233871,20.2069355 41.523871,17.9114516 42.7543548,14.1280645 C41.3351613,16.0775806 39.9067742,17.7532258 38.4769355,19.1196774 L38.4696774,19.1317742 C38.7817742,20.066129 39.123871,20.891129 39.513871,21.5569355" id="Shape" fill="#079AE1"></path>
                <path d="M39.5167742,21.5574194 C39.1403226,22.0170968 38.741129,22.3669355 38.2979032,22.6262903 C38.201129,22.6829032 38.1024194,22.736129 38.0027419,22.7845161 C38.471129,23.0370968 38.9816129,23.2064516 39.5540323,23.2737097 L39.8075806,23.2959677 L39.8225806,23.2959677 L39.9445161,23.3037097 L40.3582258,23.3037097 L40.4051613,23.2959677 L40.4966129,23.2882258 L40.541129,23.2882258 L40.6403226,23.2775806 L40.6485484,23.2775806 L40.6790323,23.2703226 L40.785,23.253871 L40.8159677,23.253871 L40.935,23.2340323 L40.9543548,23.2340323 L41.1919355,23.1837097 C40.5353226,22.9437097 39.986129,22.3770968 39.5133871,21.5704839" id="Shape" fill="#1969BC"></path>
                <path d="M30.1427419,23.3037097 C30.6179032,23.3037097 31.098871,23.2572581 31.5812903,23.1643548 C32.0283871,23.0835484 32.4754839,22.9591935 32.9230645,22.8029032 C33.296129,22.9848387 33.6870968,23.1203226 34.1012903,23.205 C34.4225806,23.2703226 34.7564516,23.3041935 35.1062903,23.3041935 L30.1427419,23.3041935 L30.1427419,23.3037097 Z" id="Shape" fill="#1E5CB3"></path>
                <path d="M35.1062903,23.3037097 C36.2816129,23.3037097 37.2125806,23.1643548 38.0027419,22.7845161 C38.471129,23.0375806 38.9816129,23.2064516 39.5540323,23.2741935 L39.8075806,23.2959677 L39.8225806,23.2959677 L39.9445161,23.3037097 L40.0906452,23.3037097 L35.1062903,23.3037097 L35.1062903,23.3037097 Z" id="Shape" fill="#1E5CB3"></path>
                <path id="Shape" fill="#1D60B5" d="M40.0906452,23.3037097 L40.3620968,23.3037097 L40.4090323,23.2959677 L40.5014516,23.2882258 L40.5459677,23.2882258 L40.6446774,23.2775806 L40.6529032,23.2775806 L40.6829032,23.2698387 L40.788871,23.253871 L40.8212903,23.2466129 L40.9408065,23.2272581 L40.9596774,23.2272581 L41.1972581,23.1769355 C41.4270968,23.2616129 41.6666129,23.3046774 41.9245161,23.3046774 L40.0916129,23.3124194 L40.0906452,23.3037097 L40.0906452,23.3037097 Z"></path>
                <path d="M38.4730645,19.1322581 L38.4730645,19.1245161 C37.9495161,19.6253226 37.4269355,20.0840323 36.9053226,20.4987097 C36.6329032,20.715 36.3609677,20.9201613 36.086129,21.1137097 C36.3164516,21.3885484 36.5501613,21.6459677 36.7964516,21.8806452 C37.17,22.2430645 37.5691935,22.5483871 38.0051613,22.7840323 C38.1043548,22.7351613 38.2035484,22.6819355 38.2998387,22.6258065 C38.7440323,22.3664516 39.1422581,22.016129 39.5191935,21.5569355 C39.1291935,20.891129 38.7870968,20.0656452 38.4754839,19.1317742" id="Shape" fill="#175FAB"></path>
                <path d="M54.041129,0.287419355 L51.0793548,0.287419355 L50.61,0.31016129 L50.3917742,0.777580645 C47.9395161,6 45.3653226,10.5251613 42.7509677,14.1227419 C41.5219355,17.9056452 40.62,20.2016129 39.513871,21.5516129 C39.9866129,22.3587097 40.5367742,22.9258065 41.1909677,23.1662903 L41.2422581,23.1551613 L41.2529032,23.1551613 L41.2891935,23.1474194 L41.3714516,23.1270968 L41.4203226,23.1130645 L41.4933871,23.0941935 L41.538871,23.081129 L41.6482258,23.0482258 L41.7024194,23.0298387 L41.7633871,23.0075806 L41.8262903,22.9877419 L41.8775806,22.9683871 L42.0053226,22.9233871 L42.0406452,22.9103226 L42.1190323,22.8798387 L42.1519355,22.8677419 L42.4267742,22.7501613 L42.4364516,22.7501613 C42.5675806,22.6925806 42.701129,22.6272581 42.8337097,22.5595161 C47.0845161,20.1846774 49.2304839,12.2066129 55.9020968,0.288870968 L54.0387097,0.288870968 L54.041129,0.287419355 L54.041129,0.287419355 Z" id="Shape" fill="url(#linearGradient-15)"></path>
                <path d="M17.145,0.811451613 L17.1754839,0.819193548 L17.2529032,0.827419355 L17.2790323,0.827419355 L17.4203226,0.845806452 L17.4440323,0.853548387 L17.5630645,0.873387097 L17.5930645,0.880645161 L17.8674194,0.941612903 L17.8925806,0.949354839 L18.0029032,0.980322581 L18.0333871,0.989516129 L18.1645161,1.02677419 L18.1746774,1.03451613 L18.2893548,1.07370968 L18.3329032,1.08774194 L18.4151613,1.12112903 L18.4616129,1.13758065 L18.5709677,1.18306452 L18.6241935,1.20580645 L18.69,1.23435484 L18.7480645,1.26193548 L18.8056452,1.29193548 C19.2793548,1.52419355 19.7148387,1.83435484 20.1183871,2.21032258 C20.2674194,2.05403226 20.4222581,1.91370968 20.583871,1.78741935 C19.7017742,1.16177419 18.7016129,0.80516129 17.5495161,0.80516129 C17.4159677,0.80516129 17.2824194,0.812903226 17.1469355,0.823064516" id="Shape" fill="#7DCBEC"></path>
                <path d="M20.1164516,2.19870968 C20.3637097,2.42854839 20.6003226,2.685 20.823871,2.96177419 C21.0406452,2.81129032 21.2554839,2.66612903 21.4708065,2.53064516 C21.1887097,2.24854839 20.891129,1.99451613 20.5809677,1.77580645 C20.4198387,1.9016129 20.2654839,2.04290323 20.1164516,2.19870968" id="Shape" fill="#5EC5ED"></path>
                <g id="Group" transform="translate(19.515484, 1.411935) scale(1, -1) translate(-19.515484, -1.411935) translate(14.630323, 0.190645)" fill="url(#linearGradient-16)">
                    <path d="M2.38640129,1.79041161 L2.7894271,1.80750968 C3.94232516,1.80750968 4.94134065,1.4508929 5.82311226,0.825592258 C6.75373548,1.56080903 7.87976516,1.81728 9.44301677,1.81728 L1.87345935,1.81728 L2.38640129,1.79041161" id="Shape"></path>
                </g>
                <g id="Group" transform="translate(23.179355, 1.411935) scale(1, -1) translate(-23.179355, -1.411935) translate(19.515484, 0.190645)" fill="url(#linearGradient-17)">
                    <path d="M4.55785548,1.81728 C2.99460387,1.81728 1.87101677,1.56080903 0.937950968,0.825592258 C1.24571613,0.608202581 1.54371097,0.354174194 1.82705032,0.0708348387 C3.12406065,0.893984516 4.40641548,1.44112258 5.67167226,1.6780529 C6.15530323,1.76842839 6.63649161,1.81483742 7.11035226,1.81483742 L4.55785548,1.81483742 L4.55785548,1.81728 L4.55785548,1.81728 Z" id="Shape"></path>
                </g>
                <path d="M42.7543548,14.13 C43.4274194,12.0570968 44.1962903,9.54048387 45.1514516,6.48774194 C46.0112903,3.73741935 47.5345161,1.68096774 50.3941935,0.783870968 L50.6148387,0.316451613 C45.9522581,0.595645161 43.7729032,2.96758065 42.6769355,6.48 C40.758871,12.6120968 39.5970968,16.5870968 38.4783871,19.1201613 C39.9067742,17.7541935 41.3351613,16.0775806 42.7543548,14.13" id="Shape" fill="url(#linearGradient-18)"></path>
            </g>
        </g>
    </g>
</svg>