<?xml version="1.0" encoding="UTF-8" standalone="no"?>
<svg width="64px" height="64px" viewBox="0 0 64 64" version="1.1" xmlns="http://www.w3.org/2000/svg" xmlns:xlink="http://www.w3.org/1999/xlink">
    <defs></defs>
    <g id="Frameworks" stroke="none" stroke-width="1" fill="none" fill-rule="evenodd">
        <g id="icons/skills/id-124">
            <g id="backbonejs-original" transform="translate(8.000000, 2.000000)">
                <path d="M0.312580645,0.339193548 L0.312580645,32.4222581 L24.1930645,46.0345161 L24.1930645,36.7814516 L8.21709677,27.675 L8.21709677,13.3708065 L24.1930645,22.4777419 L24.1930645,13.9519355 L0.312580645,0.339193548 L0.312580645,0.339193548 Z" id="Shape" fill="#002A41"></path>
                <path d="M48.0740323,0.339193548 L48.0740323,32.4222581 L24.1935484,46.0345161 L24.1935484,36.7814516 L40.1690323,27.675 L40.1690323,13.3708065 L24.1935484,22.4777419 L24.1935484,13.9519355 L48.0740323,0.339193548 L48.0740323,0.339193548 Z" id="Shape" fill="#0071B5"></path>
                <path d="M0.312580645,59.6627419 L0.312580645,27.5796774 L24.1930645,13.9664516 L24.1930645,23.2204839 L8.21709677,32.3264516 L8.21709677,45.9033871 L24.1930645,36.7969355 L24.1930645,46.0504839 L0.312580645,59.6632258 L0.312580645,59.6627419 Z" id="Shape" fill="#0071B5"></path>
                <path d="M48.0740323,59.6627419 L48.0740323,27.5796774 L24.1935484,13.9664516 L24.1935484,23.2204839 L40.1690323,32.3264516 L40.1690323,45.9033871 L24.1935484,36.7969355 L24.1935484,46.0504839 L48.0740323,59.6632258 L48.0740323,59.6627419 Z" id="Shape" fill="#002A41"></path>
            </g>
        </g>
    </g>
</svg>