<?xml version="1.0" encoding="UTF-8" standalone="no"?>
<svg width="64px" height="64px" viewBox="0 0 64 64" version="1.1" xmlns="http://www.w3.org/2000/svg" xmlns:xlink="http://www.w3.org/1999/xlink">
    <defs></defs>
    <g id="Frameworks" stroke="none" stroke-width="1" fill="none" fill-rule="evenodd">
        <g id="icons/skills/id-128" fill="#5B4282">
            <path d="M37.661264,32.511792 C36.578288,32.15544 35.019248,32.232 32.984144,32.232 L24.808,32.232 L24.808,42.904 L33.551616,42.904 C34.917632,42.904 35.877184,42.75784 36.429808,42.65576 C37.403744,42.481296 38.218064,42.143504 38.872304,41.736112 C39.52608,41.329648 40.063856,40.712992 40.486096,39.935328 C40.907408,39.157664 41.118528,38.24776 41.118528,37.230208 C41.118528,36.038656 40.813216,35.123648 40.202128,34.243904 C39.591504,33.36416 38.744704,32.868144 37.661264,32.511792 L37.661264,32.511792 Z M36.538848,27.632368 C37.613936,27.313136 38.424544,26.755408 38.969744,26.0144 C39.515408,25.272928 39.787776,24.329616 39.787776,23.209984 C39.787776,22.14928 39.53304,21.208288 39.024032,20.400928 C38.515024,19.593568 37.788864,19.281296 36.843696,18.982944 C35.898528,18.68552 34.277776,18.776 31.980976,18.776 L24.808,18.776 L24.808,28.056 L32.504368,28.056 C34.379856,28.056 35.724064,27.87968 36.538848,27.632368 L36.538848,27.632368 Z M61,10.714 C61,6.453552 57.546448,3 53.286,3 L10.714,3 C6.453552,3 3,6.453552 3,10.714 L3,53.286 C3,57.546448 6.453552,61 10.714,61 L53.286,61 C57.546448,61 61,57.546448 61,53.286 L61,10.714 L61,10.714 Z M44.552592,41.39368 C43.920624,42.680352 43.138784,43.672384 42.208464,44.37024 C41.27768,45.068096 40.11072,45.66016 38.708048,46.016512 C37.30584,46.373328 35.586256,46.616 33.551616,46.616 L20.632,46.616 L20.632,14.6 L33.35488,14.6 C35.797376,14.6 37.75592,14.882576 39.23144,15.528928 C40.707424,16.176208 41.862784,17.151536 42.699376,18.496208 C43.53504,19.84088 43.953104,21.237056 43.953104,22.705152 C43.953104,24.071632 43.581904,25.353664 42.840896,26.560064 C42.099424,27.767392 40.979792,28.73808 39.482928,29.479552 C41.415952,30.04656 42.902608,31.012608 43.941968,32.378624 C44.981328,33.745104 45.501008,35.358432 45.501008,37.219072 C45.501008,38.7164 45.185024,40.107472 44.552592,41.39368 L44.552592,41.39368 Z" id="Shape"></path>
        </g>
    </g>
</svg>