<?xml version="1.0" encoding="UTF-8" standalone="no"?>
<svg width="64px" height="64px" viewBox="0 0 64 64" version="1.1" xmlns="http://www.w3.org/2000/svg" xmlns:xlink="http://www.w3.org/1999/xlink">
    <!-- Generator: Sketch 3.6.1 (26313) - http://www.bohemiancoding.com/sketch -->
    <title>icons/skills/id-183</title>
    <desc>Created with Sketch.</desc>
    <defs></defs>
    <g id="Brands" stroke="none" stroke-width="1" fill="none" fill-rule="evenodd">
        <g id="icons/skills/id-183">
            <path d="M6.0065556,2 L57.9934444,2 C60.206204,2 62,3.79568082 62,6.0065556 L62,57.9934444 C62,60.206204 60.2043192,62 57.9934444,62 L6.0065556,62 C3.79379604,62 2,60.2043192 2,57.9934444 L2,6.0065556 C2,3.79379604 3.79568082,2 6.0065556,2 Z" id="bg" stroke="#D1D3D4" stroke-width="0.5" fill="#FFFFFF"></path>
            <path d="M23.141,23.3957166 C25.13,22.0357166 27.299,20.9367166 29.391,19.7287166 C34.942,16.5237166 40.498,13.3267166 46.043,10.1117166 C46.393,9.90871662 46.484,9.98371662 46.615,10.3257166 C48.358,14.8957166 46.658,19.6927166 43.481,22.5237166 C43.204,22.7707166 42.891,22.9667166 42.57,23.1517166 C38.741,25.3607166 34.913,27.5707166 31.086,29.7827166 C30.539,30.0987166 30.265,30.6227166 30.35,31.1567166 C30.443,31.7417166 30.916,32.2257166 31.498,32.3317166 C31.874,32.3997166 32.193,32.2467166 32.503,32.0677166 C36.257,29.9007166 40.012,27.7337166 43.766,25.5667166 C44.123,25.3607166 44.486,25.1637166 44.834,24.9437166 C45.034,24.8167166 45.121,24.8597166 45.2,25.0737166 C45.749,26.5577166 46.043,28.0847166 45.934,29.6707166 C45.694,33.1447166 44.179,35.9487166 41.332,37.9447166 C39.964,38.9037166 38.45,39.6557166 37.001,40.4997166 C36.35,40.8787166 35.715,41.2907166 35.039,41.6207166 C33.506,42.3697166 32.762,43.6857166 32.423,45.2567166 C31.722,48.5057166 34.295,51.6167166 37.621,51.5887166 C37.805,51.5867166 37.988,51.5557166 38.171,51.5357166 C38.334,51.5177166 38.462,51.5817166 38.505,51.7347166 C38.545,51.8787166 38.445,51.9807166 38.317,52.0287166 C37.892,52.1877166 37.471,52.3587166 37.037,52.4897166 C28.528,55.0707166 19.307,50.1467166 16.719,41.6437166 C16.236,40.0547166 16.034,38.4227166 16,36.3687166 C16.193,31.1397166 18.469,26.5907166 23.141,23.3957166 Z" id="logo" fill="#00ABED"></path>
        </g>
    </g>
</svg>