<?xml version="1.0" encoding="UTF-8" standalone="no"?>
<svg width="64px" height="64px" viewBox="0 0 64 64" version="1.1" xmlns="http://www.w3.org/2000/svg" xmlns:xlink="http://www.w3.org/1999/xlink">
    <!-- Generator: Sketch 3.6.1 (26313) - http://www.bohemiancoding.com/sketch -->
    <title>icons/skills/id-122</title>
    <desc>Created with Sketch.</desc>
    <defs></defs>
    <g id="Brands" stroke="none" stroke-width="1" fill="none" fill-rule="evenodd">
        <g id="icons/skills/id-122">
            <path d="M6.0065556,2 L57.9934444,2 C60.206204,2 62,3.79568082 62,6.0065556 L62,57.9934444 C62,60.206204 60.2043192,62 57.9934444,62 L6.0065556,62 C3.79379604,62 2,60.2043192 2,57.9934444 L2,6.0065556 C2,3.79379604 3.79568082,2 6.0065556,2 Z" id="bg" stroke="#D1D3D4" stroke-width="0.5" fill="#FFFFFF"></path>
            <g id="logo" transform="translate(4.000000, 26.000000)">
                <path d="M30.3115328,11.9740821 C30.0831252,11.8778168 29.8335061,11.8841583 29.5964801,11.8242879 C27.6430915,11.3309084 26.4807865,10.0738661 26.0271983,8.13256809 C25.9299952,7.71654752 25.9017001,7.29138883 25.9023691,6.86315784 C25.9057141,4.72968364 25.9039039,2.59624883 25.9039039,0.462774639 L25.9039039,0.238418154 L28.3073782,0.238418154 C28.3503522,0.31443782 28.3296129,0.394868989 28.3296916,0.471558258 C28.3309903,2.61157093 28.328393,4.75158361 28.3315806,6.89159628 C28.3335089,8.17932216 29.1504478,9.19562237 30.3879179,9.4630698 C31.8377001,9.77640474 33.2512377,8.81989616 33.5016832,7.35740383 C33.5305687,7.18874258 33.5438308,7.01996317 33.5437127,6.84874167 C33.542296,4.72184535 33.5427682,2.59494902 33.5427682,0.468052688 L33.5427682,0.240939013 L35.9598195,0.240939013 L35.9598195,11.7983309 L33.5532363,11.7983309 L33.5532363,10.8941695 C33.4218743,11.0222213 33.3236874,11.1305001 33.212868,11.2238113 C32.7158336,11.642274 32.1245869,11.8357893 31.4944197,11.9339847 C31.4529411,11.9404444 31.3996565,11.9177172 31.3740767,11.9740821 L30.3115328,11.9740821 Z" id="Fill-1" fill="#414041"></path>
                <path d="M44.3869105,2.70465367 C44.1983286,2.70465367 44.0167517,2.70280241 43.8352141,2.70500816 C43.2492408,2.71213747 42.6933729,2.84192234 42.1818957,3.1330816 C41.4214291,3.5660392 41.0290749,4.23851782 41.0214797,5.10006091 C41.00259,7.25212644 41.0128613,9.40446769 41.0114052,11.5567302 C41.0113658,11.634089 41.0114052,11.7114479 41.0114052,11.8004658 L38.5775106,11.8004658 L38.5775106,0.238780527 L41.0048725,0.238780527 L41.0048725,1.23231423 C41.4445296,0.733144686 42.007914,0.543765124 42.5913687,0.394167875 C43.1785226,0.243585916 43.7748065,0.202818893 44.3869105,0.236299056 L44.3869105,2.70465367 Z" id="Fill-3" fill="#414041"></path>
                <path d="M17.3608028,5.87437832 C16.7444486,5.03469581 16.1275435,4.19544658 15.5128422,3.35450364 C15.4609743,3.2835257 15.3780565,3.22436428 15.3939947,3.11777919 L16.2096742,3.11777919 L16.2096742,1.22772548 L15.4347649,1.22772548 C15.4352371,0.925655627 15.43567,0.623625162 15.4361422,0.321594697 L16.3644908,0.321594697 C17.2539188,1.56366938 18.1446848,2.8076741 19.0354507,4.05167882 C19.031476,4.12954974 19.0246679,4.20734188 19.0240382,4.28517342 C19.0199455,4.81317529 19.0171907,5.34117717 19.0140031,5.86913966 C18.4629363,5.87091213 17.9118696,5.87264523 17.3608028,5.87437832" id="Fill-5" fill="#74BA44"></path>
                <path d="M20.2868087,9.94097747 C20.0468706,9.60554562 19.806893,9.27011377 19.5669549,8.93468191 L19.5669549,7.34370454 L21.3972458,7.34370454 C22.2472022,8.49715526 23.0968439,9.65084231 23.9473512,10.8038598 C24.2060216,11.1545349 24.467132,11.5034376 24.7510673,11.8853478 L22.4457799,11.8853478 L22.4457799,9.94097747 L20.2868087,9.94097747" id="Fill-7" fill="#74BA44"></path>
                <path d="M19.0139834,5.86915147 C19.017171,5.3411496 19.0199651,4.81318711 19.0240579,4.28518523 C19.0246482,4.20731431 19.0314957,4.12952217 19.0354704,4.05169063 C19.0475913,4.07485103 19.0596728,4.0980902 19.0830094,4.14275668 C19.2990994,3.85435461 19.4908689,3.59844799 19.6826777,3.34254138 C20.4082378,3.34258077 21.1337979,3.34258077 21.859358,3.34262015 C22.1282996,3.34604695 22.3972413,3.34947374 22.6662223,3.35286115 C22.0104753,4.25391082 21.354689,5.15484233 20.6992174,6.05604956 C20.661202,6.10831801 20.6255871,6.16235893 20.5865091,6.21899949 C20.7373903,6.43279987 20.8842181,6.64081016 21.0310066,6.84885984 L19.0139834,6.84885984 L19.0139834,5.86915147 Z" id="Fill-9" fill="#E72484"></path>
                <path d="M15.5453757,11.8850957 L13.4929344,11.8850957 C14.2133391,10.8919559 14.9163497,9.92276426 15.6193602,8.95361199 C16.2891958,8.95369077 16.9590313,8.95369077 17.645907,8.95369077 L17.645907,10.2930155 C17.507855,10.523359 17.3429639,10.7341659 17.1735865,10.9416641 C17.1685099,10.8587909 17.1634333,10.7758782 17.1580025,10.6869391 L15.5453757,10.6869391 L15.5453757,11.8850957 Z" id="Fill-11" fill="#E72484"></path>
                <path d="M22.6662027,3.35288084 C22.397261,3.34945405 22.1283193,3.34602725 21.8593383,3.34260046 C21.85741,2.33685634 21.8554423,1.33111223 21.853514,0.32532872 L24.8935309,0.32532872 C24.1393608,1.35049133 23.4027817,2.35166639 22.6662027,3.35288084" id="Fill-13" fill="#189BD3"></path>
                <path d="M17.6459188,10.2930312 L17.6459188,8.95370652 C16.9590038,8.95370652 16.2892076,8.95370652 15.619372,8.95362775 C15.7922519,8.71863639 15.9652104,8.48368442 16.1381296,8.24865367 C16.1427339,8.33196019 16.1472989,8.41534549 16.151982,8.50085777 L18.5416826,8.50085777 L18.5416826,6.22050413 L17.5909813,6.22050413 C17.514242,6.10513542 17.4375421,5.98976672 17.3608028,5.87439801 C17.9118696,5.87262553 18.4629363,5.87089244 19.0140031,5.86915935 L19.0140031,6.84886772 L21.0310263,6.84886772 C21.1530614,7.01382645 21.2750966,7.17878519 21.397171,7.34374392 C20.7984472,7.34370454 20.1996053,7.34370454 19.5669588,7.34370454 L19.5669588,8.93468191 C19.4179665,8.73703078 19.2689743,8.53941904 19.1025091,8.31860751 C18.5974465,8.97639426 18.1544444,9.65946838 17.6459188,10.2930312" id="Fill-15" fill="#189BD3"></path>
                <path d="M17.5909656,6.22048837 L18.5417063,6.22048837 L18.5417063,8.5008814 L16.1519663,8.5008814 C16.1472832,8.41536913 16.1427182,8.33198382 16.1381138,8.2486773 C16.5963457,7.61038783 17.054617,6.97205896 17.5127309,6.33365132 C17.5394519,6.29638987 17.5649136,6.25822248 17.5909656,6.22048837" id="Fill-17" fill="#74BA44"></path>
                <path d="M21.85351,0.325340537 C21.8554384,1.33108465 21.857406,2.33686816 21.8593737,3.34261228 C21.1338136,3.34261228 20.4082535,3.34257289 19.6826935,3.3425335 C20.1134566,2.73606988 20.5408354,2.12716417 20.9761636,1.52400917 C21.2659233,1.12252293 21.5350617,0.705793361 21.85351,0.325340537" id="Fill-19" fill="#74BA44"></path>
                <path d="M20.2868087,9.94097747 L22.4457799,9.94097747 L22.4457799,11.8853478 L21.6994018,11.8853478 C21.2326696,11.2428832 20.7597195,10.59195 20.2868087,9.94097747" id="Fill-21" fill="#E72484"></path>
                <path d="M15.4347727,1.22770972 L16.2096427,1.22770972 L16.2096427,3.11776344 C15.9377495,3.11776344 15.6658564,3.11776344 15.3939632,3.11780282 C15.3079758,3.1110674 15.2814122,3.03626878 15.240524,2.98025843 C14.9138901,2.53229384 14.5885549,2.08342332 14.2629836,1.63506485 C14.2740812,1.51343338 14.2849822,1.39164436 14.2978507,1.24799477 C14.3860812,1.24799477 14.469668,1.25051562 14.5530974,1.2475221 C14.8469105,1.23700539 15.1417467,1.27241559 15.4347727,1.22770972" id="Fill-23" fill="#E72484"></path>
                <path d="M15.4347727,1.22770972 C15.1417467,1.27241559 14.8469105,1.23700539 14.5530974,1.2475221 C14.469668,1.25051562 14.3860812,1.24799477 14.2978507,1.24799477 C14.2849822,1.39164436 14.2740812,1.51343338 14.2629836,1.63506485 C13.9582696,1.20612487 13.653713,0.777421217 13.3298732,0.321578942 L15.4361108,0.321578942 C15.4356779,0.623609407 15.4352056,0.92567926 15.4347727,1.22770972" id="Fill-25" fill="#189BD3"></path>
                <path d="M15.5453757,11.8850957 L15.5453757,10.6869391 L17.1580025,10.6869391 C17.1634333,10.7758782 17.1685099,10.8587909 17.1735865,10.9416641 C16.9522625,11.2543688 16.7309779,11.5670736 16.505876,11.8850957 L15.5453757,11.8850957 Z" id="Fill-27" fill="#189BD3"></path>
                <path d="M46.7612908,5.03272639 C46.9876914,3.83823293 48.5660807,2.61329221 50.0209788,2.58004837 C51.6314805,2.54322019 52.9230223,3.70478493 53.3294257,5.03272639 L46.7612908,5.03272639 Z M55.8839387,5.0667186 C55.287458,1.85478925 52.2111966,-0.40130112 48.8489141,0.2729106 C45.0737349,1.02995618 43.0037026,5.3768237 44.858432,8.75824145 C46.0352978,10.9038473 47.8959303,11.963908 50.3452121,11.8842646 C51.9502044,11.832075 53.2923547,11.1343878 54.4053105,9.98794817 C54.5983393,9.78915477 54.787905,9.58528027 54.9474046,9.33173696 C54.0376309,9.14349966 53.1487933,8.95959509 52.2712107,8.77801444 C51.0868677,9.82677072 49.7980807,9.80750978 48.7658389,9.37340992 C47.8557897,8.99067256 47.1769029,8.36585393 46.8019823,7.39941947 L55.794685,7.39941947 C55.8417124,7.33639798 55.8390758,7.2747157 55.8560371,7.21898108 C55.9082985,7.04752325 55.8813807,6.85908901 55.9700048,6.69602092 L55.9700048,5.51436809 C55.8980666,5.37355446 55.9116829,5.21607952 55.8839387,5.0667186 L55.8839387,5.0667186 Z" id="Fill-29" fill="#414041"></path>
                <path d="M5.96479494,9.49688082 C3.98830583,9.49672327 2.43541757,7.93587804 2.43612593,5.95011045 C2.43683429,4.01944727 4.02962699,2.48018689 6.0253993,2.4815261 C7.92400787,2.48278653 9.49787154,4.0734488 9.49779283,5.99095625 C9.49775348,7.93646886 7.92514912,9.49703838 5.96479494,9.49688082 L5.96479494,9.49688082 Z M9.49527421,0.212713266 L9.49527421,1.53210743 C9.21716318,1.23208578 8.94523064,0.990201444 8.63284273,0.799915949 C7.36361434,0.0269180516 6.00107885,-0.144342833 4.56979283,0.198927316 C1.59093127,0.913394009 -0.514873366,3.84924987 0.110295994,7.10458527 C0.6375539,9.85007686 2.8973487,11.7964954 5.67649136,11.9343549 C7.1290676,12.0063963 8.41214842,11.5687121 9.44446887,10.5015221 C9.45407112,10.4915962 9.47484975,10.4925021 9.51066142,10.4829701 L9.51066142,11.8078393 L11.9428245,11.8078393 L11.9428245,0.212713266 L9.49527421,0.212713266 Z" id="Fill-31" fill="#414041"></path>
            </g>
        </g>
    </g>
</svg>