<?xml version="1.0" encoding="UTF-8" standalone="no"?>
<svg width="64px" height="64px" viewBox="0 0 64 64" version="1.1" xmlns="http://www.w3.org/2000/svg" xmlns:xlink="http://www.w3.org/1999/xlink">
    <!-- Generator: Sketch 3.6.1 (26313) - http://www.bohemiancoding.com/sketch -->
    <title>icons/skills/id-158</title>
    <desc>Created with Sketch.</desc>
    <defs></defs>
    <g id="Skills---Data" stroke="none" stroke-width="1" fill="none" fill-rule="evenodd">
        <g id="icons/skills/id-158">
            <path d="M55,59 L13,59 C10.8,59 9,57.2 9,55 L9,13 C9,10.8 10.8,9 13,9 L55,9 C57.2,9 59,10.8 59,13 L59,55 C59,57.2 57.2,59 55,59 L55,59 Z" id="Shape" fill="#F4AE1E"></path>
            <path d="M51,55 L9,55 C6.8,55 5,53.2 5,51 L5,9 C5,6.8 6.8,5 9,5 L51,5 C53.2,5 55,6.8 55,9 L55,51 C55,53.2 53.2,55 51,55 L51,55 Z" id="Shape" fill="#FFCA28"></path>
            <path d="M13,30 L47,30" id="Shape" stroke="#FFECB3" stroke-width="2"></path>
            <path d="M30,45 C21.7,45 15,38.3 15,30 C15,21.7 21.7,15 30,15 L45,30 L30,45 L30,45 Z" id="Shape" stroke="#FFECB3" stroke-width="2"></path>
            <path d="M30,15 C30,23.3 23.3,30 15,30" id="Shape" stroke="#FFECB3" stroke-width="2"></path>
            <path d="M15,30 C23.3,30 30,36.7 30,45" id="Shape" stroke="#FFECB3" stroke-width="2"></path>
            <circle id="XMLID_34_" stroke="#FFFFFF" stroke-width="2" fill="#FFCA28" cx="30" cy="15" r="3"></circle>
            <circle id="XMLID_38_" stroke="#FFFFFF" stroke-width="2" fill="#FFCA28" cx="15" cy="30" r="3"></circle>
            <circle id="XMLID_36_" stroke="#FFFFFF" stroke-width="2" fill="#FFCA28" cx="45" cy="30" r="3"></circle>
            <circle id="XMLID_51_" stroke="#FFFFFF" stroke-width="2" fill="#FFCA28" cx="30" cy="45" r="3"></circle>
        </g>
    </g>
</svg>