<?xml version="1.0" encoding="UTF-8" standalone="no"?>
<svg width="64px" height="64px" viewBox="0 0 64 64" version="1.1" xmlns="http://www.w3.org/2000/svg" xmlns:xlink="http://www.w3.org/1999/xlink">
    <defs></defs>
    <g id="Skills---Design" stroke="none" stroke-width="1" fill="none" fill-rule="evenodd">
        <g id="icons/skills/id-190">
            <rect id="Rectangle-7" fill="#376FA6" x="9" y="9" width="50" height="50" rx="4"></rect>
            <rect id="Rectangle-7" fill="#378EE6" x="5" y="5" width="50" height="50" rx="4"></rect>
            <path d="M39.4578,35 L42.9998,35" id="Stroke-1441" stroke="#FFFFFF" stroke-width="2" stroke-linecap="round" stroke-linejoin="round"></path>
            <path d="M24.9583,35 L34.9573,35" id="Stroke-1443" stroke="#FFFFFF" stroke-width="2" stroke-linecap="round" stroke-linejoin="round"></path>
            <path d="M16.9998,35 L20.4998,35" id="Stroke-1445" stroke="#FFFFFF" stroke-width="2" stroke-linecap="round" stroke-linejoin="round"></path>
            <path d="M29.515,25.9695 L21.844,41.3125 C20.766,43.4665 18.337,44.5845 16,43.9995 L16,43.9995 L26.28,23.4695" id="Stroke-1515" stroke="#FFFFFF" stroke-width="2" stroke-linecap="round" stroke-linejoin="round" fill="#394146"></path>
            <path d="M30.4846,25.9695 L38.1556,41.3125 C39.2336,43.4665 41.6626,44.5845 43.9996,43.9995 L33.7196,23.4695" id="Stroke-1516" stroke="#FFFFFF" stroke-width="2" stroke-linecap="round" stroke-linejoin="round" fill="#394146"></path>
            <path d="M25.9998,22 C25.9998,19.791 27.7908,18 29.9998,18 C32.2088,18 33.9998,19.791 33.9998,22 C33.9998,24.209 32.2088,26 29.9998,26 C27.7908,26 25.9998,24.209 25.9998,22 L25.9998,22 Z" id="Stroke-1517" stroke="#FFFFFF" stroke-width="2" stroke-linecap="round" stroke-linejoin="round" fill="#394146"></path>
            <path d="M29.9998,15 L29.9998,18" id="Stroke-1518" stroke="#FFFFFF" stroke-width="2" stroke-linecap="round" stroke-linejoin="round"></path>
            <path d="M29.9998,33 L29.9998,37" id="Stroke-1519" stroke="#FFFFFF" stroke-width="2" stroke-linecap="round" stroke-linejoin="round"></path>
        </g>
    </g>
</svg>