<?xml version="1.0" encoding="UTF-8" standalone="no"?>
<svg width="64px" height="64px" viewBox="0 0 64 64" version="1.1" xmlns="http://www.w3.org/2000/svg" xmlns:xlink="http://www.w3.org/1999/xlink">
    <defs></defs>
    <g id="Platforms" stroke="none" stroke-width="1" fill="none" fill-rule="evenodd">
        <g id="icons/skills/id-277" fill="#DF5052">
            <g id="Group" transform="translate(2.000000, 2.000000)">
                <path d="M56.8095238,30.6666667 C57.3809524,30.6666667 57.8095238,30.2380952 57.8095238,29.6666667 C57.8095238,29.4285714 57.7142857,29.1904762 57.5714286,29.047619 C57.5238095,28.952381 44.2380952,16.7619048 44.2380952,16.7619048 L55.952381,30.1428571 C56.0952381,30.4761905 56.4285714,30.6666667 56.8095238,30.6666667 L56.8095238,30.6666667 Z M59.5238095,37.4761905 L59.4285714,37.3809524 L30.4761905,10.952381 L57,39.8095238 L57.0952381,39.9047619 C57.3809524,40.1904762 57.8095238,40.3809524 58.2857143,40.3809524 C59.2380952,40.3809524 60,39.6190476 60,38.6666667 C60,38.2380952 59.8095238,37.8095238 59.5238095,37.4761905 L59.5238095,37.4761905 Z M46.7142857,55.3809524 L4.80952381,16.5714286 L43.4285714,58.7142857 C43.8571429,59.1904762 44.4761905,59.5238095 45.1904762,59.5238095 C46.4761905,59.5238095 47.5238095,58.4761905 47.5238095,57.1904762 C47.5238095,56.4761905 47.2380952,55.8095238 46.7142857,55.3809524 L46.7142857,55.3809524 Z M0,0.476190476 L51.2380952,55.047619 L51.2857143,55.0952381 C51.7142857,55.5238095 52.2857143,55.7619048 52.9047619,55.7619048 C54.1904762,55.7619048 55.2380952,54.7142857 55.2380952,53.4285714 C55.2380952,52.952381 55.0952381,52.4761905 54.8095238,52.0952381 C54.6666667,51.8571429 0,0.476190476 0,0.476190476 L0,0.476190476 Z M58.2857143,44.6666667 L16.3809524,5.85714286 L55,48 C55.4285714,48.4761905 56.047619,48.8095238 56.7619048,48.8095238 C58.047619,48.8095238 59.0952381,47.7619048 59.0952381,46.4761905 C59.0952381,45.7142857 58.7619048,45.0952381 58.2857143,44.6666667 L58.2857143,44.6666667 Z M38.047619,56.4761905 L37.952381,56.3809524 L9,29.952381 L35.5238095,58.8095238 L35.6190476,58.9047619 C35.9047619,59.1904762 36.3333333,59.3809524 36.8095238,59.3809524 C37.7619048,59.3809524 38.5238095,58.6190476 38.5238095,57.6666667 C38.5238095,57.1904762 38.3333333,56.8095238 38.047619,56.4761905 L38.047619,56.4761905 Z M15.7619048,43.1904762 L27.4761905,56.5714286 C27.6666667,56.8571429 27.952381,57.0952381 28.3333333,57.0952381 C28.9047619,57.0952381 29.3333333,56.6666667 29.3333333,56.0952381 C29.3333333,55.8571429 29.2380952,55.6190476 29.0952381,55.4761905 C29,55.4285714 15.7619048,43.1904762 15.7619048,43.1904762 L15.7619048,43.1904762 Z" id="Shape"></path>
            </g>
        </g>
    </g>
</svg>