<?xml version="1.0" encoding="UTF-8" standalone="no"?>
<svg width="64px" height="64px" viewBox="0 0 64 64" version="1.1" xmlns="http://www.w3.org/2000/svg" xmlns:xlink="http://www.w3.org/1999/xlink" xmlns:sketch="http://www.bohemiancoding.com/sketch/ns">
    <!-- Generator: Sketch 3.4.2 (15857) - http://www.bohemiancoding.com/sketch -->
    <title>icons/skills/id-25</title>
    <desc>Created with Sketch.</desc>
    <defs>
        <radialGradient cx="50.6989607%" cy="5.24049851%" fx="50.6989607%" fy="5.24049851%" r="89.513871%" id="radialGradient-1">
            <stop stop-color="#67C5D5" offset="0%"></stop>
            <stop stop-color="#66C2D3" offset="16.04%"></stop>
            <stop stop-color="#62B9CE" offset="27.95%"></stop>
            <stop stop-color="#5CA8C6" offset="38.52%"></stop>
            <stop stop-color="#5392BA" offset="48.32%"></stop>
            <stop stop-color="#4874AA" offset="57.59%"></stop>
            <stop stop-color="#3A5097" offset="66.46%"></stop>
            <stop stop-color="#2A2781" offset="74.85%"></stop>
            <stop stop-color="#1B006D" offset="81.46%"></stop>
            <stop stop-color="#596AAD" offset="100%"></stop>
        </radialGradient>
        <radialGradient cx="89.1881609%" cy="-256.271513%" fx="89.1881609%" fy="-256.271513%" r="231.105423%" id="radialGradient-2">
            <stop stop-color="#0F80BC" offset="0%"></stop>
            <stop stop-color="#0A5F9E" offset="33.76%"></stop>
            <stop stop-color="#00145A" offset="100%"></stop>
        </radialGradient>
        <radialGradient cx="-924.119257%" cy="-1093.99573%" fx="-924.119257%" fy="-1093.99573%" r="1274.16994%" id="radialGradient-3">
            <stop stop-color="#0F80BC" offset="0%"></stop>
            <stop stop-color="#0A5F9E" offset="33.76%"></stop>
            <stop stop-color="#00145A" offset="100%"></stop>
        </radialGradient>
        <radialGradient cx="-815.25793%" cy="-856.375628%" fx="-815.25793%" fy="-856.375628%" r="1234.00725%" id="radialGradient-4">
            <stop stop-color="#0F80BC" offset="0%"></stop>
            <stop stop-color="#0A5F9E" offset="33.76%"></stop>
            <stop stop-color="#00145A" offset="100%"></stop>
        </radialGradient>
        <radialGradient cx="1.54664303%" cy="-32.1745071%" fx="1.54664303%" fy="-32.1745071%" r="157.883444%" id="radialGradient-5">
            <stop stop-color="#0F80BC" offset="0%"></stop>
            <stop stop-color="#0B629B" offset="26.43%"></stop>
            <stop stop-color="#031747" offset="84.39%"></stop>
            <stop stop-color="#00022F" offset="100%"></stop>
        </radialGradient>
        <radialGradient cx="51.4923509%" cy="-47.2944329%" fx="51.4923509%" fy="-47.2944329%" r="584.979669%" id="radialGradient-6">
            <stop stop-color="#0F80BC" offset="0%"></stop>
            <stop stop-color="#0A5F9E" offset="33.76%"></stop>
            <stop stop-color="#00145A" offset="100%"></stop>
        </radialGradient>
        <radialGradient cx="1.64916622%" cy="-1574.65925%" fx="1.64916622%" fy="-1574.65925%" r="1234.2276%" id="radialGradient-7">
            <stop stop-color="#0F80BC" offset="0%"></stop>
            <stop stop-color="#0A5F9E" offset="33.76%"></stop>
            <stop stop-color="#00145A" offset="100%"></stop>
        </radialGradient>
        <ellipse id="path-8" cx="28.4298387" cy="28.2459677" rx="28.1685484" ry="28.1874194"></ellipse>
        <linearGradient x1="29.7208334%" y1="49.0243341%" x2="72.914073%" y2="53.5425263%" id="linearGradient-10">
            <stop stop-color="#0F80BC" offset="0%"></stop>
            <stop stop-color="#0A5F9E" offset="33.76%"></stop>
            <stop stop-color="#00145A" offset="100%"></stop>
        </linearGradient>
        <ellipse id="path-11" cx="28.4298387" cy="28.2459677" rx="28.1685484" ry="28.1874194"></ellipse>
        <linearGradient x1="41.7548225%" y1="63.8451248%" x2="20.4837347%" y2="111.513133%" id="linearGradient-13">
            <stop stop-color="#0F80BC" offset="0%"></stop>
            <stop stop-color="#0A5F9E" offset="33.76%"></stop>
            <stop stop-color="#00145A" offset="100%"></stop>
        </linearGradient>
        <linearGradient x1="49.9998378%" y1="78.2294327%" x2="49.9998378%" y2="21.5189525%" id="linearGradient-14">
            <stop stop-color="#000000" stop-opacity="0" offset="1.37%"></stop>
            <stop stop-color="#C4E0E3" stop-opacity="0.2" offset="65%"></stop>
            <stop stop-color="#C4E0E3" offset="82.24%"></stop>
            <stop stop-color="#CDE5E8" offset="84.98%"></stop>
            <stop stop-color="#E8F4F7" offset="94.43%"></stop>
            <stop stop-color="#F2FAFC" offset="100%"></stop>
        </linearGradient>
        <linearGradient x1="49.3594489%" y1="42.52745%" x2="60.9684282%" y2="35.0174677%" id="linearGradient-15">
            <stop stop-color="#DF731B" offset="0%"></stop>
            <stop stop-color="#DF731B" offset="54.49%"></stop>
            <stop stop-color="#EC8811" offset="70.14%"></stop>
            <stop stop-color="#F4950B" offset="85.93%"></stop>
            <stop stop-color="#F79A09" offset="100%"></stop>
        </linearGradient>
        <linearGradient x1="9.23194288%" y1="47.4281374%" x2="57.2651192%" y2="52.1461515%" id="linearGradient-16">
            <stop stop-color="#941403" offset="1.12%"></stop>
            <stop stop-color="#E85C0A" offset="89.72%"></stop>
        </linearGradient>
        <linearGradient x1="-227.874362%" y1="-2.30736879%" x2="114.917641%" y2="65.2196947%" id="linearGradient-17">
            <stop stop-color="#941403" offset="1.12%"></stop>
            <stop stop-color="#A32104" offset="13.57%"></stop>
            <stop stop-color="#C84107" offset="49.78%"></stop>
            <stop stop-color="#DF5509" offset="78.93%"></stop>
            <stop stop-color="#E85C0A" offset="97.2%"></stop>
        </linearGradient>
        <linearGradient x1="16.4710995%" y1="71.1952198%" x2="35.8757062%" y2="58.0173224%" id="linearGradient-18">
            <stop stop-color="#F2C8A9" offset="0%"></stop>
            <stop stop-color="#FFFFCC" offset="100%"></stop>
        </linearGradient>
        <linearGradient x1="36.4541348%" y1="50.2145231%" x2="91.7661425%" y2="53.1608247%" id="linearGradient-19">
            <stop stop-color="#B30000" offset="0%"></stop>
            <stop stop-color="#DF731B" offset="100%"></stop>
        </linearGradient>
        <linearGradient x1="31.0067292%" y1="21.6943338%" x2="121.871913%" y2="130.008853%" id="linearGradient-20">
            <stop stop-color="#941403" offset="0%"></stop>
            <stop stop-color="#DF731B" offset="100%"></stop>
        </linearGradient>
        <linearGradient x1="-3.64353049%" y1="48.2876635%" x2="103.642854%" y2="51.7103881%" id="linearGradient-21">
            <stop stop-color="#B30000" offset="5.62%"></stop>
            <stop stop-color="#DE5C01" offset="100%"></stop>
        </linearGradient>
        <linearGradient x1="40.8028957%" y1="38.5885611%" x2="125.743874%" y2="200.215172%" id="linearGradient-22">
            <stop stop-color="#DE7210" offset="5.62%"></stop>
            <stop stop-color="#F6C08F" offset="100%"></stop>
        </linearGradient>
        <linearGradient x1="48.9425555%" y1="37.5682508%" x2="30.236099%" y2="171.843464%" id="linearGradient-23">
            <stop stop-color="#DE7210" offset="5.62%"></stop>
            <stop stop-color="#F6C08F" offset="100%"></stop>
        </linearGradient>
        <linearGradient x1="56.0861604%" y1="88.0495299%" x2="18.087746%" y2="23.8596652%" id="linearGradient-24">
            <stop stop-color="#941403" offset="1.12%"></stop>
            <stop stop-color="#E85C0A" offset="47.19%"></stop>
            <stop stop-color="#F9BD5F" offset="100%"></stop>
        </linearGradient>
        <linearGradient x1="33.9075154%" y1="65.7559826%" x2="103.518013%" y2="2.06056998%" id="linearGradient-25">
            <stop stop-color="#DE7210" offset="19.66%"></stop>
            <stop stop-color="#F9BD5F" offset="84.27%"></stop>
            <stop stop-color="#FFFCCF" offset="100%"></stop>
        </linearGradient>
        <linearGradient x1="24.0782693%" y1="11.2000927%" x2="65.8189832%" y2="86.9339512%" id="linearGradient-26">
            <stop stop-color="#941403" offset="1.69%"></stop>
            <stop stop-color="#E35100" offset="50%"></stop>
            <stop stop-color="#DF731B" offset="100%"></stop>
        </linearGradient>
        <linearGradient x1="48.3329776%" y1="39.3868311%" x2="71.9082177%" y2="69.4264825%" id="linearGradient-27">
            <stop stop-color="#EEA272" offset="0%"></stop>
            <stop stop-color="#EFA777" offset="18.65%"></stop>
            <stop stop-color="#F2B585" offset="40.64%"></stop>
            <stop stop-color="#F6CD9C" offset="64.3%"></stop>
            <stop stop-color="#FCEEBB" offset="88.98%"></stop>
            <stop stop-color="#FFFFCC" offset="100%"></stop>
        </linearGradient>
        <linearGradient x1="47.1423617%" y1="59.7518517%" x2="98.6841267%" y2="141.821284%" id="linearGradient-28">
            <stop stop-color="#DF731B" offset="19.66%"></stop>
            <stop stop-color="#F9BD5F" offset="84.27%"></stop>
            <stop stop-color="#FFFCCF" offset="100%"></stop>
        </linearGradient>
        <linearGradient x1="63.9814579%" y1="1.50817902%" x2="-27.9092183%" y2="176.143439%" id="linearGradient-29">
            <stop stop-color="#DE7210" offset="5.62%"></stop>
            <stop stop-color="#F6C08F" offset="100%"></stop>
        </linearGradient>
        <linearGradient x1="65.1860582%" y1="23.0618297%" x2="-15.7225907%" y2="177.118615%" id="linearGradient-30">
            <stop stop-color="#DE7210" offset="5.62%"></stop>
            <stop stop-color="#F2C06E" offset="100%"></stop>
        </linearGradient>
        <linearGradient x1="122.839973%" y1="23.0055706%" x2="17.3332477%" y2="81.7859484%" id="linearGradient-31">
            <stop stop-color="#FFFAEE" offset="0.47%"></stop>
            <stop stop-color="#F5F89B" offset="27.57%"></stop>
            <stop stop-color="#F3ED91" offset="31.02%"></stop>
            <stop stop-color="#ECC267" offset="46.68%"></stop>
            <stop stop-color="#E6A046" offset="61.82%"></stop>
            <stop stop-color="#E2872E" offset="76.11%"></stop>
            <stop stop-color="#E07820" offset="89.21%"></stop>
            <stop stop-color="#DF731B" offset="100%"></stop>
        </linearGradient>
        <linearGradient x1="56.6907058%" y1="3.38658034%" x2="1.20210197%" y2="173.506473%" id="linearGradient-32">
            <stop stop-color="#DE7210" offset="5.62%"></stop>
            <stop stop-color="#F2C06E" offset="100%"></stop>
        </linearGradient>
        <linearGradient x1="70.2448116%" y1="-0.13941777%" x2="-38.3985865%" y2="178.560934%" id="linearGradient-33">
            <stop stop-color="#DE7210" offset="5.62%"></stop>
            <stop stop-color="#F2C06E" offset="100%"></stop>
        </linearGradient>
        <linearGradient x1="51.2769711%" y1="37.9229565%" x2="64.5837281%" y2="174.925892%" id="linearGradient-34">
            <stop stop-color="#DE7210" offset="5.62%"></stop>
            <stop stop-color="#F2C072" offset="100%"></stop>
        </linearGradient>
        <linearGradient x1="51.2799413%" y1="37.9251127%" x2="64.5859688%" y2="174.924721%" id="linearGradient-35">
            <stop stop-color="#DE7210" offset="5.62%"></stop>
            <stop stop-color="#F2C072" offset="100%"></stop>
        </linearGradient>
        <linearGradient x1="47.4231734%" y1="39.2771%" x2="-1.87537288%" y2="131.523881%" id="linearGradient-36">
            <stop stop-color="#DE7210" offset="5.62%"></stop>
            <stop stop-color="#EED8A5" offset="100%"></stop>
        </linearGradient>
        <linearGradient x1="47.4231734%" y1="39.2685933%" x2="-1.87452429%" y2="131.511972%" id="linearGradient-37">
            <stop stop-color="#DE7210" offset="5.62%"></stop>
            <stop stop-color="#EED8A5" offset="100%"></stop>
        </linearGradient>
        <linearGradient x1="44.2735072%" y1="52.2027176%" x2="17.262531%" y2="119.433514%" id="linearGradient-38">
            <stop stop-color="#DE7210" offset="5.62%"></stop>
            <stop stop-color="#F2C072" offset="100%"></stop>
        </linearGradient>
        <linearGradient x1="49.5747387%" y1="32.2270196%" x2="-53.1301549%" y2="186.65855%" id="linearGradient-39">
            <stop stop-color="#DE7210" offset="5.62%"></stop>
            <stop stop-color="#F2C072" offset="100%"></stop>
        </linearGradient>
        <linearGradient x1="49.5726392%" y1="32.2319063%" x2="-53.1256647%" y2="186.657073%" id="linearGradient-40">
            <stop stop-color="#DE7210" offset="5.62%"></stop>
            <stop stop-color="#F2C072" offset="100%"></stop>
        </linearGradient>
        <linearGradient x1="52.5888854%" y1="14.1798483%" x2="74.5320046%" y2="51.2047671%" id="linearGradient-41">
            <stop stop-color="#8B8B89" offset="0%"></stop>
            <stop stop-color="#120500" offset="100%"></stop>
        </linearGradient>
        <linearGradient x1="50.0027374%" y1="37.7876517%" x2="50.0027374%" y2="5.76848316%" id="linearGradient-42">
            <stop stop-color="#DE7210" offset="5.62%"></stop>
            <stop stop-color="#F6C08F" offset="100%"></stop>
        </linearGradient>
        <linearGradient x1="-24.5491339%" y1="107.079611%" x2="104.884683%" y2="-25.5435167%" id="linearGradient-43">
            <stop stop-color="#DE7210" offset="5.62%"></stop>
            <stop stop-color="#F6C08F" offset="100%"></stop>
        </linearGradient>
        <linearGradient x1="47.4257191%" y1="39.2779506%" x2="-1.87112995%" y2="131.521329%" id="linearGradient-44">
            <stop stop-color="#DE7210" offset="5.62%"></stop>
            <stop stop-color="#EED8A5" offset="100%"></stop>
        </linearGradient>
        <linearGradient x1="-23.4384759%" y1="105.933339%" x2="106.200971%" y2="-26.8476774%" id="linearGradient-45">
            <stop stop-color="#DE7210" offset="5.62%"></stop>
            <stop stop-color="#F6C08F" offset="100%"></stop>
        </linearGradient>
        <linearGradient x1="-37.8710414%" y1="-25.0016303%" x2="106.381615%" y2="91.2547489%" id="linearGradient-46">
            <stop stop-color="#DE7210" offset="5.62%"></stop>
            <stop stop-color="#F6C08F" offset="100%"></stop>
        </linearGradient>
        <linearGradient x1="-38.7090528%" y1="-6.9740634%" x2="108.095046%" y2="82.7881844%" id="linearGradient-47">
            <stop stop-color="#DE7210" offset="5.62%"></stop>
            <stop stop-color="#F6C08F" offset="100%"></stop>
        </linearGradient>
        <linearGradient x1="-38.7651403%" y1="-15.1249316%" x2="106.677175%" y2="91.7122292%" id="linearGradient-48">
            <stop stop-color="#DE7210" offset="5.62%"></stop>
            <stop stop-color="#F6C08F" offset="100%"></stop>
        </linearGradient>
        <linearGradient x1="55.7329034%" y1="48.3852836%" x2="-87.753594%" y2="-7.62902402%" id="linearGradient-49">
            <stop stop-color="#DE7210" offset="5.62%"></stop>
            <stop stop-color="#F6C08F" offset="100%"></stop>
        </linearGradient>
        <linearGradient x1="-19.8823448%" y1="109.700532%" x2="106.515959%" y2="-27.098263%" id="linearGradient-50">
            <stop stop-color="#DE7210" offset="5.62%"></stop>
            <stop stop-color="#F6C08F" offset="100%"></stop>
        </linearGradient>
        <linearGradient x1="10.1196304%" y1="107.811802%" x2="82.6183508%" y2="35.5778849%" id="linearGradient-51">
            <stop stop-color="#DE5C01" offset="0%"></stop>
            <stop stop-color="#FEFD00" offset="73.6%"></stop>
            <stop stop-color="#FEFE26" offset="77.83%"></stop>
            <stop stop-color="#FFFE54" offset="83.69%"></stop>
            <stop stop-color="#FFFF76" offset="88.9%"></stop>
            <stop stop-color="#FFFF8B" offset="93.2%"></stop>
            <stop stop-color="#FFFF92" offset="96.07%"></stop>
        </linearGradient>
        <linearGradient x1="79.6889211%" y1="57.9791002%" x2="24.822369%" y2="19.8179367%" id="linearGradient-52">
            <stop stop-color="#F79A09" offset="0%"></stop>
            <stop stop-color="#FEFD00" offset="73.6%"></stop>
            <stop stop-color="#FEFE26" offset="77.83%"></stop>
            <stop stop-color="#FFFE54" offset="83.69%"></stop>
            <stop stop-color="#FFFF76" offset="88.9%"></stop>
            <stop stop-color="#FFFF8B" offset="93.2%"></stop>
            <stop stop-color="#FFFF92" offset="96.07%"></stop>
        </linearGradient>
        <linearGradient x1="121.715968%" y1="92.5890458%" x2="19.0136549%" y2="-3.50047939%" id="linearGradient-53">
            <stop stop-color="#DE5C01" offset="0%"></stop>
            <stop stop-color="#FEFD00" offset="73.6%"></stop>
            <stop stop-color="#FEFE26" offset="77.83%"></stop>
            <stop stop-color="#FFFE54" offset="83.69%"></stop>
            <stop stop-color="#FFFF76" offset="88.9%"></stop>
            <stop stop-color="#FFFF8B" offset="93.2%"></stop>
            <stop stop-color="#FFFF92" offset="96.07%"></stop>
        </linearGradient>
        <linearGradient x1="60.238475%" y1="53.1972226%" x2="15.9900736%" y2="27.6417469%" id="linearGradient-54">
            <stop stop-color="#F79A09" offset="0%"></stop>
            <stop stop-color="#FEFD00" offset="73.6%"></stop>
            <stop stop-color="#FEFE26" offset="77.83%"></stop>
            <stop stop-color="#FFFE54" offset="83.69%"></stop>
            <stop stop-color="#FFFF76" offset="88.9%"></stop>
            <stop stop-color="#FFFF8B" offset="93.2%"></stop>
            <stop stop-color="#FFFF92" offset="96.07%"></stop>
        </linearGradient>
        <linearGradient x1="7.6444887%" y1="69.7143371%" x2="74.0427454%" y2="26.2127769%" id="linearGradient-55">
            <stop stop-color="#F79A09" offset="0%"></stop>
            <stop stop-color="#FEFD00" offset="73.6%"></stop>
            <stop stop-color="#FEFE26" offset="77.83%"></stop>
            <stop stop-color="#FFFE54" offset="83.69%"></stop>
            <stop stop-color="#FFFF76" offset="88.9%"></stop>
            <stop stop-color="#FFFF8B" offset="93.2%"></stop>
            <stop stop-color="#FFFF92" offset="96.07%"></stop>
        </linearGradient>
        <linearGradient x1="53.9058493%" y1="77.8201082%" x2="38.3146212%" y2="19.0841859%" id="linearGradient-56">
            <stop stop-color="#F79A09" offset="0%"></stop>
            <stop stop-color="#FEFD00" offset="73.6%"></stop>
            <stop stop-color="#FEFE26" offset="77.83%"></stop>
            <stop stop-color="#FFFE54" offset="83.69%"></stop>
            <stop stop-color="#FFFF76" offset="88.9%"></stop>
            <stop stop-color="#FFFF8B" offset="93.2%"></stop>
            <stop stop-color="#FFFF92" offset="96.07%"></stop>
        </linearGradient>
        <linearGradient x1="34.1108089%" y1="71.3662092%" x2="85.7261126%" y2="27.3813368%" id="linearGradient-57">
            <stop stop-color="#F79A09" offset="0%"></stop>
            <stop stop-color="#FEFD00" offset="73.6%"></stop>
            <stop stop-color="#FEFE26" offset="77.83%"></stop>
            <stop stop-color="#FFFE54" offset="83.69%"></stop>
            <stop stop-color="#FFFF76" offset="88.9%"></stop>
            <stop stop-color="#FFFF8B" offset="93.2%"></stop>
            <stop stop-color="#FFFF92" offset="96.07%"></stop>
        </linearGradient>
        <linearGradient x1="50.2021087%" y1="79.8372519%" x2="49.2229369%" y2="25.3803237%" id="linearGradient-58">
            <stop stop-color="#DE5C01" offset="0%"></stop>
            <stop stop-color="#FEFD00" offset="73.6%"></stop>
            <stop stop-color="#FEFE26" offset="77.83%"></stop>
            <stop stop-color="#FFFE54" offset="83.69%"></stop>
            <stop stop-color="#FFFF76" offset="88.9%"></stop>
            <stop stop-color="#FFFF8B" offset="93.2%"></stop>
            <stop stop-color="#FFFF92" offset="96.07%"></stop>
        </linearGradient>
        <linearGradient x1="22.670498%" y1="89.5985448%" x2="91.5800604%" y2="27.9223536%" id="linearGradient-59">
            <stop stop-color="#B9120D" offset="0%"></stop>
            <stop stop-color="#BB180D" offset="7.8%"></stop>
            <stop stop-color="#C0290C" offset="18.22%"></stop>
            <stop stop-color="#C8450A" offset="30.13%"></stop>
            <stop stop-color="#D36C08" offset="43.14%"></stop>
            <stop stop-color="#E29E05" offset="57.06%"></stop>
            <stop stop-color="#F4DA02" offset="71.51%"></stop>
            <stop stop-color="#FEFD00" offset="79.21%"></stop>
            <stop stop-color="#FEFD07" offset="81.36%"></stop>
            <stop stop-color="#FEFD1B" offset="84.55%"></stop>
            <stop stop-color="#FEFE3C" offset="88.37%"></stop>
            <stop stop-color="#FFFE69" offset="92.68%"></stop>
            <stop stop-color="#FFFFA3" offset="97.36%"></stop>
            <stop stop-color="#FFFFC7" offset="100%"></stop>
        </linearGradient>
        <linearGradient x1="40.1590755%" y1="57.2729597%" x2="140.284862%" y2="131.152821%" id="linearGradient-60">
            <stop stop-color="#DE7210" offset="5.62%"></stop>
            <stop stop-color="#F6C08F" offset="100%"></stop>
        </linearGradient>
        <linearGradient x1="33.0674227%" y1="38.6310112%" x2="149.985971%" y2="128.616368%" id="linearGradient-61">
            <stop stop-color="#DE7210" offset="5.62%"></stop>
            <stop stop-color="#F6C08F" offset="100%"></stop>
        </linearGradient>
        <linearGradient x1="22.84865%" y1="22.785479%" x2="152.849635%" y2="191.159814%" id="linearGradient-62">
            <stop stop-color="#DE7210" offset="5.62%"></stop>
            <stop stop-color="#F6C08F" offset="100%"></stop>
        </linearGradient>
    </defs>
    <g id="Brands" stroke="none" stroke-width="1" fill="none" fill-rule="evenodd" sketch:type="MSPage">
        <g id="icons/skills/id-25" sketch:type="MSArtboardGroup">
            <g id="Firefox-logo" sketch:type="MSLayerGroup" transform="translate(2.000000, 3.000000)">
                <g id="Firefox">
                    <g id="Globe" transform="translate(0.967742, 0.000000)">
                        <ellipse id="Oval" fill="#110070" sketch:type="MSShapeGroup" cx="28.9137097" cy="28.7298387" rx="28.7109677" ry="28.7298387"></ellipse>
                        <ellipse id="Oval" fill="url(#radialGradient-1)" sketch:type="MSShapeGroup" cx="28.9137097" cy="28.7298387" rx="28.1685484" ry="28.1874194"></ellipse>
                        <path d="M24.8733871,43.2803226 C24.8385484,43.1274194 24.4587097,42.6837097 24.1679032,42.5845161 C23.8780645,42.4853226 23.5930645,43.0122581 23.4062903,42.1374194 C22.7937097,42.4887097 22.5295161,42.0406452 22.5295161,42.0406452 C22.5295161,42.0406452 21.8690323,42.0793548 21.7412903,42.8879032 C21.4267742,43.26 20.6206452,44.6133871 21.048871,43.2058065 C21.48,41.7895161 20.5940323,43.0945161 20.5117742,43.8058065 C20.3579032,44.1217742 20.0980645,44.1537097 20.2616129,42.7325806 C19.6940323,42.5366129 19.4041935,41.2195161 19.7153226,41.1943548 C19.353871,40.6906452 19.6379032,39.9203226 19.938871,39.9614516 C20.2398387,40.0001613 20.7566129,39.3033871 20.7406452,39.1417742 C20.7246774,38.9806452 20.973871,39.0958065 20.9583871,38.0114516 C20.9424194,36.9241935 21.3682258,36.6551613 21.4030645,37.5643548 C21.4398387,38.4701613 21.9808065,37.2677419 21.9251613,36.8066129 C21.8690323,36.3474194 21.9793548,35.3095161 22.308871,35.9230645 C21.9251613,34.4051613 22.2280645,34.3451613 22.4583871,35.3554839 C23.0356452,35.4009677 23.0554839,35.7087097 23.0554839,35.7087097 C23.6946774,35.5514516 24.0009677,36.0329032 24.0503226,36.3029032 C24.6425806,35.6037097 25.2406452,36.3575806 25.2406452,36.3575806 C25.2406452,36.3575806 25.6533871,36.2206452 25.4559677,36.9382258 C25.2575806,37.6533871 26.3133871,37.2662903 26.0612903,36.7524194 C26.5804839,36.4896774 27.3512903,37.2856452 27.5941935,37.8285484 C27.8370968,38.373871 27.1780645,39.146129 27.6919355,39.3329032 C28.2087097,39.5187097 27.9822581,40.4177419 27.9822581,40.4177419 C27.9822581,40.4177419 29.0622581,41.0167742 28.3127419,41.531129 L28.0572581,42.1432258 C28.0572581,42.1432258 28.5459677,42.6885484 28.7124194,42.363871 C28.878871,42.0387097 28.9379032,42.6943548 28.9379032,42.6943548 C28.8754839,42.5782258 29.0579032,43.3698387 29.7314516,43.5362903 C30.4079032,43.7012903 30.836129,44.7701613 30.0851613,44.7837097 C29.3370968,44.7958065 29.2790323,44.7754839 29.0762903,45.2124194 C28.8745161,45.6474194 27.9193548,45.6629032 27.4248387,45.0996774 C26.898871,45.2777419 25.9630645,45.0483871 26.2383871,44.6274194 C25.7845161,44.8920968 25.3558065,44.1812903 25.7104839,43.8643548 C26.0651613,43.5483871 25.511129,43.1390323 25.3248387,43.5919355 C25.1404839,44.0443548 24.1616129,44.2674194 24.2298387,43.4975806 C24.2501613,43.2691935 24.7717742,43.1356452 24.7785484,43.3262903 C24.873871,43.5464516 24.9125806,43.308871 24.8733871,43.2803226 L24.8733871,43.2803226 Z" id="Shape" fill="url(#radialGradient-2)" sketch:type="MSShapeGroup"></path>
                        <g id="Group" transform="translate(45.967742, 20.806452)" sketch:type="MSShapeGroup">
                            <path d="M2.19725806,0.443225806 C2.34677419,0.591290323 2.64096774,0.558387097 2.80403226,0.512903226 C2.96806452,0.465967742 2.94483871,0.34983871 3.08612903,0.304354839 C3.225,0.257419355 3.76209677,0.512903226 3.62177419,1.07080645 C3.29612903,1.11629032 3.17806452,1.51209677 3.17806452,1.51209677 C3.17806452,1.51209677 2.85241935,1.65096774 2.68790323,1.58177419 C2.52435484,1.51209677 2.52435484,1.53483871 2.29064516,1.55758065 C2.05693548,1.58177419 1.49564516,1.2566129 2.1033871,1.2566129 C2.7116129,1.2566129 2.03419355,0.977419355 1.77677419,0.977419355 C1.52032258,0.977419355 1.72983871,0.721935484 2.03419355,0.791612903 C1.82322581,0.443225806 1.93983871,0.186290323 2.19725806,0.443225806 L2.19725806,0.443225806 Z" id="Shape" fill="url(#radialGradient-3)"></path>
                            <path d="M0.0909677419,1.70516129 C-0.0720967742,1.86677419 0.114677419,2.35548387 0.324677419,2.33129032 C0.534193548,2.30854839 0.861774194,2.21612903 0.861774194,2.21612903 C0.861774194,2.21612903 1.02483871,2.54129032 0.861774194,2.63516129 C0.698709677,2.72709677 0.223548387,2.68645161 0.839032258,2.9133871 C1.47,3.14516129 1.63258065,3.075 1.67951613,2.95887097 C1.72645161,2.84370968 1.93596774,2.44887097 2.05354839,2.47209677 C2.14693548,2.26354839 1.72645161,2.07774194 1.96064516,1.93741935 C2.19241935,1.79806452 2.00709677,1.28758065 2.00709677,1.28758065 C2.00709677,1.28758065 1.67951613,1.31032258 1.53967742,1.54306452 C1.39935484,1.77532258 1.21354839,1.52032258 1.07322581,1.52032258 C1.04951613,1.65919355 0.955645161,1.77532258 0.955645161,1.77532258 L0.862258065,1.56532258 C0.861774194,1.56483871 0.207096774,1.54258065 0.0909677419,1.70516129 L0.0909677419,1.70516129 Z" id="Shape" fill="url(#radialGradient-4)"></path>
                        </g>
                        <path d="M41.6927419,22.893871 C41.6724194,22.8343548 41.8785484,22.593871 41.8233871,22.9054839 C41.6966129,23.1270968 42.3353226,23.3264516 42.5143548,23.0796774 C43.1148387,22.2570968 41.9482258,21.8593548 41.4420968,22.2416129 C40.931129,22.6272581 40.6495161,21.8003226 41.2364516,21.6827419 C41.8214516,21.5641935 41.8708065,20.5069355 41.2262903,20.5030645 C41.7953226,20.2224194 41.0070968,19.3814516 40.3558065,19.2377419 C40.2508065,18.3329032 39.2966129,17.7575806 38.7948387,18.086129 C38.2882258,18.4156452 38.2446774,18.3575806 37.5024194,17.9070968 C36.7630645,17.4585484 36.4069355,18.84 36.9508065,19.4433871 C37.4980645,20.051129 37.1012903,21.0309677 37.1240323,20.8635484 C37.1240323,20.8635484 36.9179032,21.2341935 36.9314516,21.3730645 C36.3053226,21.5854839 36.1224194,20.703871 35.733871,20.508871 C35.4508065,20.8780645 34.9935484,21.075 34.9935484,21.075 L35.0279032,20.3235484 C35.0279032,20.3235484 33.0841935,19.2648387 32.4870968,19.5614516 C31.751129,19.788871 31.5769355,21.4925806 32.2451613,21.7417742 C32.9143548,21.993871 31.4056452,22.6214516 32.9191935,24.2172581 C34.473871,25.8556452 35.0748387,25.9025806 35.3922581,25.6359677 C35.4706452,25.5687097 35.606129,25.4680645 35.7716129,25.3562903 C35.7866129,25.4191935 35.8117742,25.4796774 35.8504839,25.5367742 C36.2395161,26.1217742 34.946129,26.5829032 34.7656452,27.4209677 C34.5822581,28.2682258 34.751129,29.8437097 35.5185484,29.8974194 C35.6646774,29.0579032 37.1008065,29.3545161 36.3193548,30.1151613 C35.523871,30.8908065 36.0817742,31.0277419 36.0817742,31.0277419 C36.0817742,31.0277419 36.1195161,32.4808065 37.3359677,32.0162903 C37.3006452,32.0995161 37.2720968,32.2059677 37.2551613,32.3220968 C36.915,32.2533871 36.0837097,32.1493548 35.8804839,32.7290323 C35.6240323,33.4606452 34.5382258,32.4812903 33.7785484,32.8098387 C33.0222581,33.1359677 31.9185484,34.2067742 32.2901613,34.9596774 C33.0043548,34.6209677 33.551129,36.1480645 32.5533871,35.8345161 C31.5522581,35.52 31.7467742,36.1166129 31.7467742,36.1166129 C31.7467742,36.1166129 30.7045161,36.9387097 31.6804839,37.8140323 C31.3054839,37.871129 30.6391935,38.2887097 30.8637097,39.2046774 C30.8637097,39.2046774 30.4354839,39.2201613 30.3779032,40.0398387 C28.9809677,40.3214516 29.066129,40.755 31.1680645,40.2798387 C30.3198387,40.7201613 31.7612903,40.9272581 32.4,40.8687097 C33.0396774,40.8106452 34.7187097,41.6385484 33.4572581,41.6467742 C32.1933871,41.6545161 32.5698387,42.2729032 34.0833871,42.3024194 C35.5945161,42.3333871 35.4358065,42.6837097 35.6603226,42.6682258 C35.8848387,42.6527419 36.8622581,43.4235484 36.8090323,43.8508065 C36.7543548,44.2785484 37.8329032,44.7222581 38.5345161,44.2320968 C38.5703226,44.6767742 40.4148387,44.3298387 40.6877419,43.5280645 C42.6851613,43.8333871 42.6391935,43.4608065 42.1945161,43.2237097 C41.1943548,43.0708065 39.3590323,41.7416129 41.3496774,42.4253226 C43.3301613,43.1080645 41.4222581,41.8882258 40.9001613,41.4193548 C39.7630645,41.1982258 39.705,40.2503226 39.705,40.2503226 C39.705,40.2503226 40.3330645,39.8927419 39.8375806,38.9990323 C41.066129,38.771129 40.3243548,38.3390323 40.4622581,37.9272581 C40.6001613,37.5140323 41.223871,36.9875806 41.4377419,36.945 C41.4783871,36.8893548 41.8127419,36.956129 41.5025806,37.0819355 C41.2345161,37.0848387 41.4246774,37.8396774 41.7454839,37.8783871 C42.8303226,38.0104839 42.5129032,36.5941935 41.8756452,36.3091935 C41.2369355,36.0217742 41.8103226,35.2427419 42.258871,35.7672581 C42.7074194,36.2908065 43.7070968,35.7029032 43.3320968,35.0395161 C43.9282258,35.4527419 44.2495161,34.1158065 43.9959677,33.3483871 C44.7933871,32.6569355 44.7677419,31.2783871 44.1508065,30.9701613 C43.8474194,30.8187097 43.7008065,30.7204839 43.6272581,30.5322581 C43.9935484,30.3590323 44.4793548,30.2312903 44.67,30.4020968 C44.9801613,30.6822581 45.8433871,29.9095161 45.7887097,29.006129 C46.1520968,29.2054839 46.7308065,27.3633871 46.2391935,26.718871 C47.3646774,25.1453226 47.0612903,25.0025806 46.6848387,25.2662903 C46.1187097,26.051129 44.2591935,26.9903226 45.7006452,25.5991935 C47.1,24.2487097 45.3285484,25.2725806 44.7358065,25.4917742 C44.0385484,26.3651613 43.2987097,25.9456452 43.2987097,25.9456452 C43.2987097,25.9456452 43.3301613,25.23 42.4296774,25.2154839 C42.8458065,24.0672581 42.1751613,24.4819355 41.9404839,24.1683871 C41.7053226,23.8553226 41.6206452,23.0898387 41.6927419,22.893871 L41.6927419,22.893871 Z" id="Shape" fill="url(#radialGradient-5)" sketch:type="MSShapeGroup"></path>
                        <path d="M27.1001613,11.3908065 C26.9254839,11.846129 27.6701613,12.5859677 28.0441935,12.3479032 C28.4191935,12.1083871 28.9562903,11.6308065 28.9562903,11.6308065 C28.9562903,11.6308065 29.5258065,12.0880645 29.2954839,12.4141935 C29.0637097,12.7393548 28.1409677,13.1051613 29.4764516,12.9570968 C30.8462903,12.8056452 31.0959677,12.5230645 31.0891935,12.2617742 C31.0819355,12.0014516 31.1574194,11.0670968 31.3945161,11.0022581 C31.4017742,10.5232258 30.4630645,10.5677419 30.7882258,10.0882258 C31.1133871,9.61112903 30.3503226,8.82725806 30.3503226,8.82725806 C30.3503226,8.82725806 29.756129,9.17516129 29.6816129,9.74080645 C29.6066129,10.3054839 29.0506452,10.001129 28.7874194,10.1308065 C28.8556452,10.4133871 28.7748387,10.7172581 28.7748387,10.7172581 L28.4308065,10.4129032 C28.4312903,10.4124194 27.1867742,10.9780645 27.1001613,11.3908065 L27.1001613,11.3908065 Z" id="Shape" fill="url(#radialGradient-6)" sketch:type="MSShapeGroup"></path>
                        <path d="M29.3274194,35.306129 C29.1643548,35.4677419 29.3516129,35.9559677 29.561129,35.9332258 C29.771129,35.9095161 30.0982258,35.8170968 30.0982258,35.8170968 C30.0982258,35.8170968 30.2612903,36.1422581 30.0982258,36.2356452 C29.9341935,36.3275806 29.46,36.2879032 30.0745161,36.513871 C30.705,36.746129 30.8690323,36.6764516 30.9159677,36.5603226 C30.9619355,36.4441935 31.1719355,36.0493548 31.2890323,36.0720968 C31.3833871,35.8635484 30.9619355,35.6782258 31.1956452,35.538871 C31.4293548,35.3980645 31.2435484,34.8875806 31.2435484,34.8875806 C31.2435484,34.8875806 30.9164516,34.9108065 30.776129,35.1435484 C30.6358065,35.3753226 30.4490323,35.1198387 30.3087097,35.1198387 C30.285,35.2591935 30.1925806,35.3753226 30.1925806,35.3753226 L30.0991935,35.1667742 C30.0987097,35.1667742 29.4440323,35.1435484 29.3274194,35.306129 L29.3274194,35.306129 Z" id="Shape" fill="url(#radialGradient-7)" sketch:type="MSShapeGroup"></path>
                        <g id="Group" transform="translate(0.483871, 0.483871)">
                            <g id="Clipped">
                                <mask id="mask-9" sketch:name="XMLID_8_" fill="white">
                                    <use xlink:href="#path-8"></use>
                                </mask>
                                <g id="XMLID_8_"></g>
                                <path d="M29.0617742,0.000967741936 C28.6204839,0.0991935484 29.3583871,1.69596774 29.3583871,1.69596774 C29.3583871,1.69596774 29.3317742,2.76822581 29.5137097,2.82290323 C29.6946774,2.87758065 30.8937097,3.17758065 31.5203226,3.95758065 C32.1498387,4.73854839 31.8227419,5.14935484 31.2987097,4.92387097 C30.7741935,4.69887097 30.9130645,5.38790323 30.9130645,5.38790323 C30.9130645,5.38790323 32.4953226,5.90225806 31.3001613,5.86935484 C30.1025806,5.83741935 32.1062903,6.71177419 31.9741935,6.80322581 C31.8420968,6.89564516 31.7666129,7.39887097 31.7666129,7.39887097 C31.7666129,7.39887097 30.7103226,7.48693548 31.6054839,7.86290323 C34.6345161,9.13887097 31.2817742,8.79435484 31.2817742,8.79435484 L30.8540323,9.32032258 L31.7003226,10.3819355 L32.351129,10.8474194 C32.351129,10.8474194 33.7219355,10.3901613 34.1491935,10.3185484 C34.5769355,10.2479032 35.6559677,9.44032258 35.6559677,9.44032258 C35.6559677,9.44032258 35.9796774,9.6716129 35.7377419,9.19983871 C35.4953226,8.72758065 36.6285484,8.93854839 36.911129,9.28983871 L38.9114516,10.1932258 C38.9375806,10.2629032 38.9820968,10.3258065 39.0527419,10.3746774 C39.4427419,10.6480645 38.7,11.1174194 38.7754839,11.6143548 C38.8509677,12.1059677 39.3043548,12.9227419 39.8017742,12.8366129 C39.7146774,12.3677419 40.6974194,12.311129 40.3553226,12.8337097 C40.0137097,13.3548387 40.3925806,13.3446774 40.3925806,13.3446774 C40.3925806,13.3446774 40.7085484,14.0806452 41.3767742,13.6717742 C41.3496774,13.8962903 41.4866129,14.3477419 42.0604839,14.3777419 C42.0604839,14.3777419 41.9995161,14.6225806 42.4708065,14.7962903 C42.4069355,15.6367742 42.6759677,15.6633871 42.7422581,14.3869355 C42.8608065,14.9467742 43.2222581,14.1590323 43.2943548,13.7820968 C43.3669355,13.4027419 44.1440323,12.57 43.9340323,13.3059677 C43.7254839,14.0356452 46.2251613,14.3027419 46.5024194,13.4312903 C46.7820968,12.5530645 47.7783871,12.0943548 47.8083871,11.9612903 C47.8383871,11.8253226 45.5908065,11.6167742 45.8390323,11.7227419 C46.0877419,11.8287097 46.5503226,11.2640323 46.3785484,10.7617742 C46.6572581,10.8179032 46.7801613,9.6483871 46.3383871,9.34548387 C46.8914516,8.18177419 46.6533871,8.14548387 46.4264516,8.37725806 C46.1506452,8.96032258 45.0125806,9.84 45.7843548,8.75612903 C46.5629032,7.66112903 45.4683871,8.61870968 45.0885484,8.85677419 C44.7551613,9.50564516 44.1696774,9.37935484 44.1696774,9.37935484 C44.1696774,9.37935484 44.0622581,8.93854839 43.436129,9.08564516 C43.5091935,8.30564516 43.1201613,8.68016129 42.8941935,8.52725806 C42.7562903,8.43387097 42.6241935,8.22387097 42.5429032,8.04387097 C43.0824194,8.26258065 43.8067742,8.49532258 43.6819355,8.09419355 C43.601129,7.83193548 44.703871,8.40532258 44.7425806,8.28580645 L46.1206452,8.09419355 L47.4604839,7.24741935 C38.8974194,-0.404516129 29.0617742,0.000967741936 29.0617742,0.000967741936 L29.0617742,0.000967741936 Z" id="Shape" fill="url(#linearGradient-10)" sketch:type="MSShapeGroup" mask="url(#mask-9)"></path>
                            </g>
                            <g id="Clipped">
                                <mask id="mask-12" sketch:name="XMLID_8_" fill="white">
                                    <use xlink:href="#path-11"></use>
                                </mask>
                                <g id="XMLID_8_"></g>
                                <path d="M16.3316129,2.46532258 C11.2156452,4.76225806 7.35532258,9.49645161 7.35532258,9.49645161 C7.35532258,9.49645161 7.80919355,10.5343548 7.96741935,10.4579032 C8.12709677,10.3824194 6.825,13.181129 7.78064516,13.338871 C8.74112903,13.496129 11.5045161,11.6075806 10.9920968,11.7808065 C10.481129,11.9530645 11.28,10.758871 11.28,10.758871 C11.28,10.758871 12.7180645,10.121129 11.8674194,10.8566129 C11.0240323,11.5877419 12.9890323,10.9470968 12.9585484,11.0966129 C12.9275806,11.2470968 13.2125806,11.6516129 13.2125806,11.6516129 C13.2125806,11.6516129 12.5385484,12.3745161 13.4090323,12.0832258 C16.3954839,11.0791935 13.8019355,12.9440323 13.8019355,12.9440323 L13.8532258,13.578871 L15.1451613,13.8033871 L15.9087097,13.7308065 C15.9087097,13.7308065 16.5769355,12.5520968 16.8348387,12.2317742 C17.0937097,11.9109677 17.3322581,10.6427419 17.3322581,10.6427419 C17.3322581,10.6427419 17.7208065,10.6020968 17.2291935,10.4162903 C16.7375806,10.23 17.6995161,9.65032258 18.1417742,9.72241935 L20.223871,9.07596774 C20.2906452,9.10887097 20.3651613,9.12580645 20.4512903,9.11564516 C20.9279032,9.06048387 20.6879032,9.89129032 21.0774194,10.2043548 C21.4625806,10.5159677 22.3485484,10.8159677 22.6659677,10.4312903 C22.2866129,10.143871 22.9920968,9.45822581 23.0820968,10.0679032 C23.1725806,10.6722581 23.4532258,10.4177419 23.4532258,10.4177419 C23.4532258,10.4177419 24.1998387,9.13354839 24.4383871,8.3966129 C24.5690323,8.57903226 25.7874194,6.79548387 25.4182258,5.94483871 C25.0451613,5.08354839 25.65,4.27258065 25.5827419,4.14725806 C25.5135484,4.0233871 25.1491935,4.40274194 25.4182258,4.31177419 C25.6896774,4.21887097 24.6493548,4.68532258 24.5114516,3.31451613 C24.3720968,1.91612903 24.1693548,3.43209677 24.0348387,3.88016129 C24.2172581,4.60983871 26.1106452,0.931935484 26.1106452,0.931935484 L28.5512903,-0.0633870968 C28.5512903,-0.0614516129 22.9959677,-0.526451613 16.3316129,2.46532258 L16.3316129,2.46532258 Z" id="Shape" fill="url(#linearGradient-13)" sketch:type="MSShapeGroup" mask="url(#mask-12)"></path>
                            </g>
                        </g>
                        <ellipse id="Oval" opacity="0.5" fill="url(#linearGradient-14)" sketch:type="MSShapeGroup" cx="28.38" cy="11.2601613" rx="14.9153226" ry="9.6633871"></ellipse>
                    </g>
                    <g id="Fox" transform="translate(0.000000, 4.354839)" sketch:type="MSShapeGroup">
                        <path d="M59.6714516,16.4922581 L58.9814516,20.9196774 C58.9814516,20.9196774 57.9948387,12.7229032 56.7856452,9.65854839 C54.9324194,4.96306452 54.1079032,5.00080645 54.1025806,5.00758065 C55.3437097,8.16193548 55.1187097,9.85645161 55.1187097,9.85645161 C55.1187097,9.85645161 52.9195161,3.86274194 47.1048387,1.95580645 C40.2183871,-0.301451613 36.7103226,0.514354839 36.7364516,0.545806452 C36.7625806,0.577741935 43.8537097,1.78548387 45.1112903,3.5133871 C45.1112903,3.5133871 42.0991935,3.5133871 39.1016129,4.37709677 C38.966129,4.41580645 50.1304839,5.7716129 52.4129032,16.9277419 C52.4129032,16.9277419 51.1891935,14.3743548 49.6756452,13.9408065 C50.6709677,16.968871 50.4154839,22.7148387 49.4675806,25.5706452 C49.3456452,25.9379032 49.2208065,23.9830645 47.3535484,23.141129 C47.9516129,27.4267742 47.3177419,34.2241935 44.3443548,36.0967742 C44.1125806,36.2424194 46.2082258,29.3864516 44.7658065,32.0370968 C36.1543548,45.2404839 25.916129,37.3790323 21.7635484,34.5769355 C25.0964516,35.3937097 28.6369355,34.8053226 30.6866129,33.4045161 C32.7551613,31.9906452 33.978871,30.9570968 35.0777419,31.2014516 C36.176129,31.4467742 36.9072581,30.3445161 36.0541935,29.3666129 C35.2001613,28.3867742 33.1262903,27.0401613 30.3208065,27.7741935 C28.3422581,28.2924194 25.8904839,30.4814516 22.1477419,28.2648387 C18.9546774,26.3729032 18.9764516,24.8366129 18.9764516,23.8577419 C18.9764516,22.8783871 19.8474194,21.39 21.4325806,21.6343548 C22.8522581,21.8535484 22.1041935,21.0198387 23.6317742,21.6343548 C24.0479032,21.8017742 23.5901613,19.6364516 22.9979032,18.2491935 C24.1383871,15.8690323 27.8385484,15.1616129 28.1148387,14.9530645 C28.6151613,14.5746774 28.3398387,14.3859677 28.5106452,13.8159677 C28.6703226,13.2851613 28.7724194,11.8504839 24.6314516,12.2467742 C22.7259677,12.4291935 21.513871,9.96 21.1166129,9.36048387 C21.2453226,8.59741935 21.4519355,7.90016129 21.7316129,7.26145161 C22.0156452,6.67935484 22.3258065,6.14612903 22.6354839,5.74258065 C22.7322581,5.61629032 22.8164516,5.50548387 22.8929032,5.40241935 C23.5103226,4.68241935 24.2680645,4.06693548 25.1777419,3.555 C25.6524194,3.28693548 19.8701613,3.53806452 17.2683871,6.92951613 C16.5701613,7.02048387 15.6120968,6.81919355 14.5412903,6.81919355 C13.1990323,6.81919355 12.1446774,6.96580645 11.1687097,7.21112903 C11.0124194,7.25032258 10.7603226,7.22903226 10.4520968,7.15548387 C9.59322581,6.26564516 7.16322581,4.12693548 7.05193548,1.22612903 C7.05193548,1.22612903 3.51870968,3.9416129 4.04758065,11.3448387 C4.00112903,15.438871 2.79241935,14.2683871 2.17064516,16.4903226 C1.88129032,17.5432258 2.60564516,18.3362903 2.60564516,18.3672581 C2.60467742,18.3832258 3.47467742,17.4256452 3.47467742,17.4256452 C3.47467742,17.4256452 -2.00419355,26.9177419 5.07145161,39.0353226 C11.1701613,49.4816129 21.4045161,54.0982258 32.0245161,53.1991935 C33.8820968,53.0782258 35.7532258,52.8014516 37.62,52.3504839 C62.3617742,46.3683871 59.6714516,16.4922581 59.6714516,16.4922581 L59.6714516,16.4922581 Z" id="Shape" fill="url(#linearGradient-15)"></path>
                        <path d="M21.0333871,9.00483871 C21.0333871,9.00483871 22.1027419,11.9269355 24.5012903,11.9172581 C29.0772581,11.898871 29.1687097,11.9622581 29.1982258,12.5187097 C29.2891935,14.2122581 28.4530645,14.7672581 28.1332258,15.0082258 C27.8124194,15.2487097 23.4551613,17.775 23.295,18.4974194 C23.1348387,19.2193548 18.2670968,11.6274194 18.2670968,11.6274194 L21.0333871,9.00483871 L21.0333871,9.00483871 Z" id="Shape" fill="url(#linearGradient-16)"></path>
                        <path d="M23.4696774,12.1548387 C23.4696774,12.1548387 24.956129,14.0525806 23.8320968,14.8117742 C22.458871,15.738871 25.7733871,15.9416129 26.9743548,15.2675806 C28.1753226,14.5935484 28.9127419,13.6030645 28.9548387,13.4554839 C28.9969355,13.3079032 29.3912903,11.9777419 26.8843548,12.4412903 C25.2991935,12.7345161 24.7185484,12.8022581 23.4696774,12.1548387 L23.4696774,12.1548387 Z" id="Shape" fill="url(#linearGradient-17)"></path>
                        <path d="M28.1337097,15.0082258 C28.3766129,14.8253226 28.9156452,14.4580645 29.1217742,13.5512903 C28.9712903,13.6122581 28.9572581,13.44 28.7796774,13.5145161 C25.4143548,17.025 25.2856452,14.5804839 23.448871,15.0725806 C21.7746774,15.5308065 21.3987097,16.1593548 21.3280645,16.2082258 C21.3527419,16.2435484 21.3783871,16.2798387 21.4030645,16.3151613 C21.8854839,16.56 22.3480645,17.3419355 22.6954839,18.0396774 C23.0351613,18.4441935 23.2630645,18.6435484 23.2959677,18.4969355 C23.4556452,17.7745161 27.8129032,15.2482258 28.1337097,15.0082258 L28.1337097,15.0082258 Z" id="Shape" fill="url(#linearGradient-18)"></path>
                        <path d="M2.99032258,17.7977419 C2.30322581,19.2391935 -2.10580645,26.6898387 5.08983871,39.0904839 C12.131129,51.2279032 24.3174194,55.1917742 36.7591935,52.4985484 C40.3108065,51.7301613 44.4058065,48.9512903 47.0153226,46.9122581 C45.3387097,42.6832258 46.331129,42.8419355 45.4325806,43.3983871 C35.4096774,49.6030645 27.4422581,43.4825806 21.2758065,42.7001613 C-1.40951613,39.825 3.07016129,17.7527419 3.07016129,17.7527419 L2.99032258,17.7977419 L2.99032258,17.7977419 Z" id="Shape" fill="url(#linearGradient-19)"></path>
                        <path d="M21.8801613,34.8062903 C24.0183871,35.4474194 28.6833871,34.8948387 30.6870968,33.4045161 C32.0370968,32.4009677 33.0570968,31.6441935 33.915,31.3277419 C32.3985484,30.2975806 32.3743548,31.7579032 29.1856452,32.4962903 C22.5430645,34.0374194 19.3180645,30.7083871 19.3180645,30.7083871 C19.7883871,33.3425806 21.4335484,34.6253226 22.173871,35.0806452 C21.9774194,34.9064516 21.8743548,34.8043548 21.8801613,34.8062903 L21.8801613,34.8062903 Z" id="Shape" fill="url(#linearGradient-20)"></path>
                        <path d="M14.6767742,46.8358065 C14.6767742,46.8358065 9.14709677,40.5958065 7.60354839,33.6077419 C5.32741935,31.4579032 3.71225806,29.64 2.63951613,28.3253226 C3.25887097,33.2980645 5.79435484,41.0182258 14.6767742,46.8358065 L14.6767742,46.8358065 Z" id="Shape" fill="url(#linearGradient-21)"></path>
                        <path d="M10.0640323,41.1687097 C10.0640323,41.1687097 6.24774194,35.7358065 7.67854839,31.1225806 C8.96564516,26.9753226 7.40516129,29.4425806 6.49741935,30.3290323 C5.58048387,31.2246774 5.10919355,27.6851613 5.13241935,27.2772581 C5.13387097,27.2685484 5.13290323,27.2646774 5.13193548,27.2641935 C5.07435484,27.2520968 3.31548387,35.7445161 10.0640323,41.1687097 L10.0640323,41.1687097 Z" id="Shape" fill="url(#linearGradient-22)"></path>
                        <path d="M4.41048387,36.4325806 C4.41048387,36.4325806 3.54048387,25.406129 6.29032258,23.8475806 C10.6572581,21.3725806 6.65467742,21.9512903 5.3883871,22.6383871 C4.10854839,23.3317742 4.22709677,18.7674194 4.40806452,18.333871 C4.58564516,17.9066129 -0.0991935484,22.6490323 4.41048387,36.4325806 L4.41048387,36.4325806 Z" id="Shape" fill="url(#linearGradient-23)"></path>
                        <path d="M23.5166129,3.9866129 C23.5166129,3.9866129 20.0593548,7.49806452 20.085,7.51016129 C20.111129,7.52274194 20.1841935,12.0174194 20.2969355,13.2914516 C20.711129,13.7806452 22.0020968,16.9630645 21.0140323,16.2566129 C20.0046774,15.5356452 20.7324194,15.5201613 20.8204839,15.8864516 C20.8229032,15.8985484 20.8229032,15.9043548 20.8204839,15.9043548 C20.7537097,15.9353226 18.3116129,10.6190323 23.5166129,3.9866129 L23.5166129,3.9866129 Z" id="Shape" fill="#A40000"></path>
                        <path d="M7.07080645,1.28080645 C7.07080645,1.28080645 3.39629032,4.09935484 4.0983871,11.8316129 C6.94258065,9.27822581 10.9645161,7.36935484 10.9645161,7.36935484 C10.2895161,6.94451613 7.19322581,4.46758065 7.07080645,1.28080645 L7.07080645,1.28080645 Z" id="Shape" fill="url(#linearGradient-24)"></path>
                        <path d="M16.1264516,9.73645161 L21.6454839,16.6001613 C20.0530645,9.85983871 21.2772581,5.81564516 25.1970968,3.60967742 C25.7772581,3.28258065 17.0075806,3.72725806 16.1264516,9.73645161 L16.1264516,9.73645161 Z" id="Shape" fill="url(#linearGradient-25)"></path>
                        <path d="M12.2380645,26.6922581 C13.1791935,20.7619355 21.4325806,21.633871 21.4325806,21.633871 C21.0643548,21.9072581 19.6504839,22.0708065 19.2454839,23.2020968 C17.9090323,26.9370968 19.1835484,35.096129 27.5090323,38.5180645 C28.3872581,38.88 10.8474194,35.456129 12.2380645,26.6922581 L12.2380645,26.6922581 Z" id="Shape" fill="url(#linearGradient-26)"></path>
                        <path d="M29.0743548,13.7119355 C29.0337097,13.7046774 28.9979032,13.7056452 28.98,13.7298387 C28.8783871,13.8658065 28.4859677,14.3293548 27.5525806,15.0895161 C25.818871,16.5 25.0882258,16.1429032 23.7967742,16.4317742 C23.208871,16.5629032 22.65,16.9577419 22.2735484,17.2741935 C22.4259677,17.5204839 22.5682258,17.7856452 22.695,18.0396774 C23.0346774,18.4441935 23.2625806,18.6435484 23.2954839,18.4969355 C23.4556452,17.7745161 27.8129032,15.2482258 28.1337097,15.0077419 C28.361129,14.8369355 28.8440323,14.4977419 29.0743548,13.7119355 L29.0743548,13.7119355 Z" id="Shape" fill="url(#linearGradient-27)"></path>
                        <path d="M23.7532258,22.6766129 C23.8016129,21.4233871 23.7140323,18.3793548 22.4109677,17.0583871 C21.4156452,16.0495161 21.1819355,14.8935484 21.0483871,13.5740323 C10.2275806,17.6158065 8.68258065,22.8991935 9.76451613,22.7274194 C18.4190323,21.3556452 20.8519355,21.1877419 23.7532258,22.6766129 L23.7532258,22.6766129 Z" id="Shape" fill="url(#linearGradient-28)"></path>
                        <path d="M0.682741935,30.0827419 C0.682741935,30.0827419 1.43467742,20.3124194 6.32516129,16.7366129 C10.1646774,13.9277419 7.18306452,14.9482258 5.70048387,15.0643548 C4.13709677,15.1882258 3.3033871,16.1390323 3.60483871,15.7891935 C3.61790323,15.7746774 3.62225806,15.7664516 3.61983871,15.7625806 C3.56854839,15.7020968 -0.0498387097,18.7383871 0.682741935,30.0827419 L0.682741935,30.0827419 Z" id="Shape" fill="url(#linearGradient-29)"></path>
                        <path d="M0.167903226,22.5764516 C0.167903226,22.5764516 2.78854839,14.2577419 8.085,14.3279032 C11.5974194,14.3748387 8.81129032,11.3598387 7.74870968,10.9016129 C6.64016129,10.4269355 6.375,10.4453226 6.11612903,10.6746774 C5.72806452,11.0182258 2.24322581,10.8856452 0.167903226,22.5764516 L0.167903226,22.5764516 Z" id="Shape" fill="url(#linearGradient-30)"></path>
                        <path d="M35.8959677,30.7190323 C36.2941935,30.3285484 36.0164516,28.8304839 33.5133871,27.9222581 C31.2420968,27.0972581 27.6967742,29.1948387 26.6448387,29.6090323 C26.6448387,29.6090323 30.6604839,28.8566129 32.1662903,29.1072581 C34.2072581,29.4469355 34.9243548,31.6722581 35.8959677,30.7190323 L35.8959677,30.7190323 Z" id="Shape" fill="url(#linearGradient-31)"></path>
                        <path d="M4.03645161,27.9783871 C4.03645161,27.9783871 3.60145161,19.8 7.26677419,16.3069355 C10.1443548,13.5633871 7.78403226,14.7319355 6.56806452,14.988871 C5.28580645,15.2608065 4.69790323,16.1390323 4.91032258,15.8162903 C4.91951613,15.8027419 4.92145161,15.7954839 4.91951613,15.7925806 C4.86967742,15.7485484 2.20064516,18.6566129 4.03645161,27.9783871 L4.03645161,27.9783871 Z" id="Shape" fill="url(#linearGradient-32)"></path>
                        <path d="M1.21354839,25.3804839 C1.21354839,25.3804839 2.76241935,17.3380645 7.16177419,14.8316129 C10.6156452,12.8627419 8.04387097,13.4279032 6.80129032,13.3843548 C5.49096774,13.3393548 4.70903226,14.0496774 4.99258065,13.7879032 C5.00467742,13.7772581 5.00854839,13.77 5.00709677,13.7675806 C4.97032258,13.7119355 1.67903226,15.8912903 1.21354839,25.3804839 L1.21354839,25.3804839 Z" id="Shape" fill="url(#linearGradient-33)"></path>
                        <path d="M6.43693548,28.6814516 C6.43693548,28.6814516 5.59016129,23.8069355 7.41483871,21.4074194 C8.87129032,19.4927419 7.59241935,20.4295161 6.91645161,20.7053226 C6.21096774,20.9937097 5.9433871,21.5622581 6.03967742,21.3537097 C6.13306452,21.15 2.90032258,23.655 6.43693548,28.6814516 L6.43693548,28.6814516 Z" id="Shape" fill="url(#linearGradient-34)"></path>
                        <path d="M7.40467742,24.0846774 C7.40467742,24.0846774 6.55790323,19.2101613 8.38258065,16.8106452 C9.83903226,14.8959677 8.56016129,15.8327419 7.88419355,16.1085484 C7.17870968,16.3969355 6.91112903,16.9654839 7.00741935,16.7569355 C7.10080645,16.5532258 3.86806452,19.0582258 7.40467742,24.0846774 L7.40467742,24.0846774 Z" id="Shape" fill="url(#linearGradient-35)"></path>
                        <path d="M2.28629032,17.4208065 C2.28629032,17.4208065 4.26387097,13.3683871 6.89274194,12.5704839 C8.99080645,11.9341935 7.54596774,11.9433871 6.89951613,11.7856452 C6.22403226,11.6220968 5.72322581,11.898871 5.90564516,11.7962903 C6.08370968,11.696129 2.35887097,11.82 2.28629032,17.4208065 L2.28629032,17.4208065 Z" id="Shape" fill="url(#linearGradient-36)"></path>
                        <path d="M2.00419355,20.6279032 C2.00419355,20.6279032 3.98177419,16.5754839 6.61064516,15.7775806 C8.70870968,15.1412903 7.26387097,15.1504839 6.61741935,14.9927419 C5.94193548,14.8291935 5.44112903,15.1059677 5.62354839,15.0033871 C5.80112903,14.9027419 2.07629032,15.0270968 2.00419355,20.6279032 L2.00419355,20.6279032 Z" id="Shape" fill="url(#linearGradient-37)"></path>
                        <path d="M3.43983871,19.7433871 C3.43983871,19.7433871 6.92806452,12.5946774 11.5659677,11.1866129 C15.2675806,10.0640323 12.7185484,10.08 11.5775806,9.80274194 C10.3862903,9.51387097 9.50274194,10.0030645 9.82403226,9.8216129 C10.1385484,9.64403226 3.56758065,9.86274194 3.43983871,19.7433871 L3.43983871,19.7433871 Z" id="Shape" fill="url(#linearGradient-38)"></path>
                        <path d="M5.82435484,15.8932258 C5.82435484,15.8932258 7.99403226,11.4469355 10.8783871,10.571129 C13.1806452,9.87290323 11.595,9.88306452 10.8856452,9.71032258 C10.1443548,9.53080645 9.59516129,9.83467742 9.795,9.72193548 C9.99048387,9.6116129 5.90370968,9.74758065 5.82435484,15.8932258 L5.82435484,15.8932258 Z" id="Shape" fill="url(#linearGradient-39)"></path>
                        <path d="M6.53177419,17.463871 C6.53177419,17.463871 8.50935484,13.4114516 11.1382258,12.6135484 C13.2362903,11.9772581 11.7914516,11.9864516 11.145,11.8287097 C10.4695161,11.6651613 9.96870968,11.9419355 10.151129,11.8393548 C10.3287097,11.7387097 6.60387097,11.8630645 6.53177419,17.463871 L6.53177419,17.463871 Z" id="Shape" fill="url(#linearGradient-40)"></path>
                        <path d="M29.1987097,12.5187097 C29.1759677,12.0962903 29.1135484,11.9583871 27.0909677,11.9240323 C27.3227419,12.0290323 27.7224194,12.2395161 28.1622581,12.6004839 C28.7433871,13.0766129 28.8377419,13.6074194 28.8977419,14.1570968 C29.0946774,13.7825806 29.238871,13.2662903 29.1987097,12.5187097 L29.1987097,12.5187097 Z" id="Shape" fill="url(#linearGradient-41)"></path>
                        <path d="M17.3235484,6.87387097 L15.5695161,9.69629032 C15.5695161,9.69629032 8.55532258,8.59645161 2.60903226,14.3491935 C2.11741935,14.8243548 6.4983871,4.17677419 17.3235484,6.87387097 L17.3235484,6.87387097 Z" id="Shape" fill="url(#linearGradient-42)"></path>
                        <path d="M11.0245161,11.9254839 C11.0245161,11.9254839 12.8937097,8.45516129 15.3174194,7.4066129 C14.0646774,7.44629032 11.2514516,8.42564516 11.0245161,11.9254839 L11.0245161,11.9254839 Z" id="Shape" fill="url(#linearGradient-43)"></path>
                        <path d="M3.83225806,15.3125806 C3.83225806,15.3125806 5.80983871,11.2601613 8.43870968,10.4622581 C10.5367742,9.82596774 9.09193548,9.83516129 8.44548387,9.67741935 C7.77,9.51387097 7.26919355,9.79064516 7.4516129,9.68806452 C7.62967742,9.58790323 3.90435484,9.71177419 3.83225806,15.3125806 L3.83225806,15.3125806 Z" id="Shape" fill="url(#linearGradient-44)"></path>
                        <path d="M7.97516129,12.4572581 C7.97516129,12.4572581 10.0156452,9.19064516 12.4437097,8.32112903 C11.2209677,8.28096774 8.41645161,9.05951613 7.97516129,12.4572581 L7.97516129,12.4572581 Z" id="Shape" fill="url(#linearGradient-45)"></path>
                        <path d="M11.4735484,6.87774194 C11.4735484,6.87774194 9.93483871,7.54983871 7.22177419,6.42193548 L9.64064516,7.63790323 L11.4735484,6.87774194 L11.4735484,6.87774194 Z" id="Shape" fill="url(#linearGradient-46)"></path>
                        <path d="M10.7298387,7.30887097 C10.7298387,7.30887097 8.67919355,8.1033871 4.73274194,6.92080645 L8.10870968,8.26403226 C8.52629032,7.87790323 10.7298387,7.30887097 10.7298387,7.30887097 L10.7298387,7.30887097 Z" id="Shape" fill="url(#linearGradient-47)"></path>
                        <path d="M12.2264516,6.65758065 C12.2264516,6.65758065 10.8653226,7.07177419 8.35112903,6.09919355 L10.77,7.31516129 C11.0254839,7.08919355 12.2264516,6.65758065 12.2264516,6.65758065 L12.2264516,6.65758065 Z" id="Shape" fill="url(#linearGradient-48)"></path>
                        <path d="M7.98193548,8.22241935 C7.98193548,8.22241935 6.97064516,9.06193548 4.38048387,9.09629032 L6.62080645,9.16935484 L7.98193548,8.22241935 L7.98193548,8.22241935 Z" id="Shape" fill="url(#linearGradient-49)"></path>
                        <path d="M5.52145161,12.5182258 C5.52145161,12.5182258 8.98258065,8.00951613 11.8330645,6.98854839 C10.3969355,6.9416129 6.03870968,8.53016129 5.52145161,12.5182258 L5.52145161,12.5182258 Z" id="Shape" fill="url(#linearGradient-50)"></path>
                    </g>
                    <g id="Fire" transform="translate(19.354839, 4.838710)" sketch:type="MSShapeGroup">
                        <path d="M39.7737097,19.7225806 C39.7737097,19.7225806 40.1467742,28.0877419 28.5266129,39.7083871 C27.2351613,40.9993548 20.2233871,47.5683871 20.4701613,49.5391935 C20.5567742,50.2354839 38.8674194,46.7303226 39.7737097,19.7225806 L39.7737097,19.7225806 Z" id="Shape" fill="url(#linearGradient-51)"></path>
                        <path d="M17.2451613,0.0464516129 C31.2416129,1.1216129 33.9522581,11.1856452 33.9532258,10.5696774 C33.9885484,0.785806452 20.673871,0.0430645161 17.2451613,0.0464516129 L17.2451613,0.0464516129 Z" id="Shape" fill="url(#linearGradient-52)"></path>
                        <path d="M21.5075806,3.87241935 C21.5075806,3.87241935 31.2106452,5.85580645 33.9474194,16.1404839 C34.3103226,17.5025806 32.7783871,7.78548387 33.251129,8.70774194 C33.7229032,9.63483871 29.3458065,4.17967742 21.5075806,3.87241935 L21.5075806,3.87241935 Z" id="Shape" fill="url(#linearGradient-53)"></path>
                        <path d="M25.3858065,3.62080645 C25.3858065,3.62080645 34.1487097,5.44741935 34.2358065,19.3509677 C34.2972581,29.1919355 35.7556452,23.0453226 37.2024194,20.8335484 C38.4498387,18.9232258 37.5972581,16.5948387 37.5672581,16.6006452 C37.5624194,16.6020968 36.9358065,14.7895161 37.3582258,15.5574194 C37.3770968,15.5912903 36.7698387,15.0570968 36.7741935,15.0566129 C36.8714516,15.0420968 36.4369355,5.06370968 25.3858065,3.62080645 L25.3858065,3.62080645 Z" id="Shape" fill="url(#linearGradient-54)"></path>
                        <path d="M35.2533871,5.50451613 C35.2533871,5.50451613 38.4009677,13.7037097 35.0651613,17.7808065 C33.9764516,19.1114516 33.8545161,25.9287097 35.1846774,25.3025806 C36.5182258,24.6754839 36.2283871,28.9224194 36.0537097,29.4058065 C36.0498387,29.415 36.048871,29.4193548 36.0508065,29.4208065 C36.1379032,29.4745161 42.6275806,18.9401613 35.2533871,5.50451613 L35.2533871,5.50451613 Z" id="Shape" fill="url(#linearGradient-55)"></path>
                        <path d="M30.8777419,14.1362903 C30.8777419,14.1362903 32.8591935,19.9374194 30.7843548,24.0846774 L32.3540323,27.5903226 C33.5051613,24.7625806 34.9708065,18.7824194 30.8777419,14.1362903 L30.8777419,14.1362903 Z" id="Shape" fill="url(#linearGradient-56)"></path>
                        <path d="M34.3625806,13.4462903 C34.3625806,13.4462903 35.7329032,22.6543548 30.7882258,30.9662903 C30.8646774,32.8887097 30.5274194,34.6287097 30.0643548,36.0624194 C30.2796774,36.3459677 30.5680645,36.54 30.9483871,36.573871 C30.7804839,36.7287097 30.6135484,36.873871 30.4519355,37.0112903 C30.1548387,37.1424194 29.8504839,37.2812903 29.5558065,37.4240323 C29.4929032,37.5706452 29.4295161,37.7129032 29.3675806,37.8493548 C29.6966129,37.6185484 30.0633871,37.3383871 30.4514516,37.0117742 C31.4612903,36.5656452 32.37,36.2191935 32.3680645,36.2172581 C32.3680645,36.2172581 32.1827419,36.2864516 31.7375806,36.4485484 C31.4380645,36.5574194 31.1762903,36.5941935 30.9479032,36.573871 C34.7666129,33.093871 39.9991935,25.3117742 34.3625806,13.4462903 L34.3625806,13.4462903 Z M28.601129,37.9253226 C28.1646774,38.1812903 27.8472581,38.4212903 27.7795161,38.6066129 C27.7296774,38.7416129 28.0272581,38.6637097 28.5416129,38.3748387 C28.5682258,38.2204839 28.59,38.0690323 28.601129,37.9253226 L28.601129,37.9253226 Z" id="Shape" fill="url(#linearGradient-57)"></path>
                        <path d="M28.263871,23.2572581 C28.263871,23.2572581 32.1624194,34.3533871 19.7027419,44.7566129 C18.9677419,45.3706452 24.7601613,45.1079032 25.2672581,44.8775806 C26.7604839,44.1991935 28.5251613,39.6725806 28.3170968,40.2145161 C28.1104839,40.7559677 34.1027419,32.2132258 28.263871,23.2572581 L28.263871,23.2572581 Z" id="Shape" fill="url(#linearGradient-58)"></path>
                        <path d="M33.716129,30.2951613 C33.716129,30.2951613 31.3645161,44.6874194 15.1059677,45.8453226 C8.73967742,46.2991935 -0.401129032,44.8093548 0.408387097,47.2374194 C0.659516129,47.9903226 1.85612903,51.1291935 4.58709677,51.8574194 C11.9782258,53.8291935 31.6427419,53.1837097 33.716129,30.2951613 L33.716129,30.2951613 Z" id="Shape" fill="url(#linearGradient-59)"></path>
                    </g>
                    <g id="Layer_6" transform="translate(6.774194, 36.774194)" sketch:type="MSShapeGroup">
                        <path d="M32.7372581,9.25112903 C32.7372581,9.25112903 22.7893548,11.523871 16.3446774,6.03774194 C10.4477419,1.0166129 13.3732258,5.24274194 14.1730645,7.32725806 C14.9946774,9.465 10.3732258,7.83145161 9.6783871,7.48790323 C8.98596774,7.14870968 20.625,14.4479032 32.7372581,9.25112903 L32.7372581,9.25112903 Z" id="Shape" fill="url(#linearGradient-60)"></path>
                        <path d="M26.3264516,14.6733871 C26.3264516,14.6733871 14.4595161,12.341129 10.7022581,4.30016129 C7.49177419,-2.56935484 8.34145161,2.4716129 8.19677419,4.76564516 C8.04483871,7.12548387 4.71725806,3.90290323 4.27258065,3.34209677 C4.26,3.32854839 4.25129032,3.31935484 4.25032258,3.32177419 C4.18403226,3.36532258 10.3708065,13.0640323 26.3264516,14.6733871 L26.3264516,14.6733871 Z" id="Shape" fill="url(#linearGradient-61)"></path>
                        <path d="M13.3630645,13.6335484 C13.3630645,13.6335484 7.695,9.2433871 5.13967742,3.22354839 C2.99225806,2.47741935 0.136935484,0.771774194 0.0803225806,0.48 C0.987580645,5.15758065 5.76387097,10.6190323 13.3630645,13.6335484 L13.3630645,13.6335484 Z" id="Shape" fill="url(#linearGradient-62)"></path>
                    </g>
                </g>
            </g>
        </g>
    </g>
</svg>