<?xml version="1.0" encoding="UTF-8" standalone="no"?>
<svg width="64px" height="64px" viewBox="0 0 64 64" version="1.1" xmlns="http://www.w3.org/2000/svg" xmlns:xlink="http://www.w3.org/1999/xlink">
    <defs></defs>
    <g id="Skills---Develop" stroke="none" stroke-width="1" fill="none" fill-rule="evenodd">
        <g id="icons/skills/id-200">
            <rect id="Rectangle-7" fill="#2F8D6D" x="9" y="9" width="50" height="50" rx="4"></rect>
            <rect id="Rectangle-7" fill="#2FC087" x="5" y="5" width="50" height="50" rx="4"></rect>
            <g id="Group" transform="translate(14.000000, 15.000000)" stroke="#FFFFFF" stroke-width="2" stroke-linecap="round" stroke-linejoin="round">
                <path d="M20.5700571,13.4109231 L23.5963429,19.1397692" id="Stroke-1184"></path>
                <path d="M10.2140571,16.1543077 L13.1992,10.797" id="Stroke-1185"></path>
                <path d="M17.1428571,24.2307692 L11.4285714,24.2307692" id="Stroke-1186"></path>
                <path d="M0,24.2307692 C0,21.045 2.55885714,18.4615385 5.71428571,18.4615385 C8.86971429,18.4615385 11.4285714,21.045 11.4285714,24.2307692 C11.4285714,27.4165385 8.86971429,30 5.71428571,30 C2.55885714,30 0,27.4165385 0,24.2307692 L0,24.2307692 Z" id="Stroke-1187"></path>
                <path d="M20.5714286,24.2307692 C20.5714286,21.045 23.1302857,18.4615385 26.2857143,18.4615385 C29.4411429,18.4615385 32,21.045 32,24.2307692 C32,27.4165385 29.4411429,30 26.2857143,30 C23.1302857,30 20.5714286,27.4165385 20.5714286,24.2307692 L20.5714286,24.2307692 Z" id="Stroke-1188"></path>
                <path d="M10.2857143,5.76923077 C10.2857143,2.58346154 12.8445714,0 16,0 C19.1554286,0 21.7142857,2.58346154 21.7142857,5.76923077 C21.7142857,8.955 19.1554286,11.5384615 16,11.5384615 C12.8445714,11.5384615 10.2857143,8.955 10.2857143,5.76923077 L10.2857143,5.76923077 Z" id="Stroke-1189"></path>
            </g>
        </g>
    </g>
</svg>