<?xml version="1.0" encoding="UTF-8" standalone="no"?>
<svg width="64px" height="64px" viewBox="0 0 64 64" version="1.1" xmlns="http://www.w3.org/2000/svg" xmlns:xlink="http://www.w3.org/1999/xlink">
    <defs></defs>
    <g id="Tools" stroke="none" stroke-width="1" fill="none" fill-rule="evenodd">
        <g id="icons/skills/id-206">
            <g id="grunt-original" transform="translate(9.000000, 2.000000)">
                <path d="M38.1430645,42.0551613 C39.8777419,40.7637097 40.7675806,39.1301613 41.1808065,37.1080645 C43.1927419,39.0977419 43.9016129,41.4377419 43.7356452,44.0806452 C43.5106452,47.6646774 41.8645161,50.2766129 38.4658065,51.6798387 C38.1996774,51.7901613 37.9596774,52.08 37.8130645,52.3451613 C36.2201613,55.2314516 33.8767742,57.0580645 30.5743548,57.5801613 C30.2975806,57.6237097 30.0212903,57.7814516 29.7832258,57.9425806 C25.856129,60.5927419 19.6137097,60.5830645 15.6662903,57.9241935 C15.4074194,57.7495161 15.0895161,57.6198387 14.7817742,57.5670968 C11.8122581,57.0537097 9.55645161,55.4874194 8.02983871,52.9166129 C7.58612903,52.1685484 7.07032258,51.6653226 6.26806452,51.2990323 C0.536612903,48.6832258 0.634354839,40.2029032 4.21983871,37.2483871 C4.56967742,38.1120968 4.83967742,39.0193548 5.2916129,39.8254839 C5.74741935,40.638871 6.38322581,41.351129 6.94016129,42.1079032 L7.21306452,42.0333871 C7.30741935,41.0854839 7.43322581,40.1395161 7.48790323,39.1896774 C7.56483871,37.8522581 7.6233871,36.5114516 7.62725806,35.1716129 C7.63209677,33.536129 7.02048387,32.2625806 5.47596774,31.4670968 C4.34516129,30.8845161 3.21629032,30.2395161 2.23209677,29.4425806 C-0.173709677,27.4945161 -0.112741935,24.8685484 2.31919355,22.9843548 C2.90322581,22.5324194 3.24967742,22.016129 3.31790323,21.2854839 C3.4616129,19.7458065 3.70354839,18.2104839 2.60080645,16.8527419 C2.295,16.4762903 2.14112903,15.9537097 1.995,15.4741935 C1.28274194,13.1433871 2.42951613,11.2853226 4.845,10.9064516 C5.54129032,10.7970968 5.92016129,10.6170968 6.0033871,9.8066129 C6.15193548,8.36225806 5.84177419,7.37032258 4.51112903,6.67451613 C3.45193548,6.12 2.27080645,5.79774194 1.10129032,5.35596774 C2.46774194,3.39241935 4.5,2.49725806 6.8816129,2.35354839 C10.0306452,2.16290323 12.4993548,3.60048387 14.5998387,5.80548387 C14.9487097,6.17129032 15.2404839,6.59419355 15.6077419,6.93870968 C15.7891935,7.10951613 16.0882258,7.25080645 16.32,7.23193548 C16.4404839,7.22177419 16.6025806,6.84048387 16.6219355,6.61693548 C16.7796774,4.76806452 17.6148387,3.27580645 18.9779032,2.05935484 C19.2101613,1.85225806 19.5043548,1.71435484 19.7758065,1.54064516 L20.4445161,4.67225806 L20.7348387,4.66935484 C21.213871,2.16048387 22.9258065,0.882096774 25.1675806,0.0759677419 C25.1206452,0.826935484 25.0108065,1.53048387 25.0519355,2.22483871 C25.0920968,2.89016129 25.2880645,3.54677419 25.4404839,4.33403226 C26.7154839,3.44467742 27.8254839,2.52145161 29.2795161,2.55967742 C28.9664516,3.75096774 28.6262903,4.91080645 28.3659677,6.08854839 C28.2324194,6.69290323 28.3993548,7.26580645 29.1682258,7.24983871 C29.4493548,7.24403226 29.7962903,7.02483871 29.9912903,6.79790323 C31.6480645,4.87258065 33.4848387,3.22548387 36.0406452,2.59209677 C39.3004839,1.78403226 42.5816129,2.87758065 44.4387097,5.47258065 C44.0859677,5.55919355 43.7540323,5.61387097 43.4409677,5.72322581 C42.6324194,6.00677419 41.7754839,6.21435484 41.0409677,6.63290323 C39.4848387,7.51983871 39.2356452,8.35790323 39.6082258,10.3475806 C39.6420968,10.5270968 39.9275806,10.7162903 40.1356452,10.7927419 C40.466129,10.9137097 40.8382258,10.9166129 41.1783871,11.0172581 C43.1656452,11.6022581 44.115,13.2483871 43.5474194,15.2351613 C43.346129,15.9396774 43.0296774,16.6354839 42.6396774,17.2562903 C41.628871,18.8651613 42.003871,20.5224194 42.4180645,22.1627419 C42.51,22.526129 42.9924194,22.815 43.3354839,23.0883871 C45.4306452,24.7582258 45.6324194,27.3048387 43.6204839,29.0864516 C42.5012903,30.0774194 41.1445161,30.821129 39.8322581,31.5667742 C38.6269355,32.2514516 37.9180645,33.2520968 37.9141935,34.5706452 C37.9040323,37.065 38.0569355,39.5598387 38.1430645,42.0551613 L38.1430645,42.0551613 Z M29.4812903,37.7622581 L29.4716129,37.7695161 C29.4648387,37.8251613 29.4827419,37.871129 29.5258065,37.9074194 L29.6772581,38.2703226 C30.2153226,39.6827419 30.731129,41.1043548 31.2967742,42.5051613 C31.9717742,44.1779032 31.5048387,44.1159677 33.6445161,43.9229032 L35.4135484,43.5991935 C36.3391935,43.5812903 36.5801613,43.1191935 36.5075806,42.2182258 C36.3304839,40.0282258 36.266129,37.8290323 36.1422581,35.6341935 C35.9840323,32.8359677 37.0785484,30.8395161 39.7006452,29.6525806 C40.6529032,29.2214516 41.5587097,28.5585484 42.2980645,27.8148387 C43.4225806,26.6830645 43.1027419,24.963871 41.73,24.1766129 L41.6119355,25.1458065 C40.5696774,23.5151613 40.2677419,21.8593548 39.9953226,20.1929032 L39.9672581,19.3040323 C40.0098387,19.2512903 40.0146774,19.1951613 39.9803226,19.1366129 L40.4056452,15.9154839 L40.5701613,15.9396774 L40.8096774,16.9485484 C41.1537097,16.3466129 41.4367742,15.9304839 41.6409677,15.48 C42.4422581,13.7070968 41.7212903,12.521129 39.7524194,12.5467742 C38.5785484,12.5617742 37.3809677,12.7359677 36.2414516,13.0248387 C33.2670968,13.7791935 30.8283871,15.5574194 28.4003226,17.3341935 C28.1579032,17.5117742 27.903871,17.6743548 27.6551613,17.8437097 L27.54,17.7091935 L28.8,15.9048387 L29.1101613,15.5429032 C29.1527419,15.5153226 29.178871,15.4766129 29.1880645,15.4262903 L33.8995161,11.6520968 L31.035,10.1240323 L30.9962903,10.1303226 L30.7887097,9.97693548 C27.4804839,8.42516129 23.9622581,8.10870968 20.4140323,8.53258065 C18.4683871,8.76483871 16.5812903,9.48629032 14.6675806,9.9866129 C13.5406452,10.4245161 12.468871,10.9470968 11.7382258,11.7522581 L16.4472581,15.5796774 L16.4453226,15.5719355 L16.6151613,15.8056452 L17.9409677,17.7164516 C16.4443548,16.8783871 15.0943548,15.9227419 13.7051613,15.0275806 C11.553871,13.6417742 9.22064516,12.7151613 6.64790323,12.5341935 C5.55870968,12.4577419 4.27112903,12.3270968 3.705,13.4937097 C3.11903226,14.7014516 3.91741935,15.768871 4.59048387,16.7612903 C4.61564516,16.7985484 4.69403226,16.8 4.78112903,16.8295161 L4.89,15.8879032 C5.10725806,16.3490323 5.24129032,16.8048387 5.29451613,17.2698387 C5.39903226,18.1824194 5.45903226,19.1003226 5.53790323,20.0162903 C5.36032258,20.883871 5.24419355,21.7708065 4.98774194,22.6146774 C4.72596774,23.4764516 4.32677419,24.296129 3.98758065,25.1346774 L3.79451613,25.0451613 L3.73887097,24.1824194 C2.19048387,25.1264516 2.10145161,27.0614516 3.58935484,28.2479032 C4.4883871,28.9645161 5.51564516,29.5398387 6.53758065,30.0803226 C8.46,31.0964516 9.33387097,32.7227419 9.3033871,34.8135484 C9.26903226,37.2203226 9.1233871,39.626129 8.985,42.0304839 C8.91048387,43.3243548 8.87177419,43.3224194 10.0475806,43.5972581 L11.9869355,43.9287097 C12.603871,43.878871 13.3993548,44.4483871 13.7743548,43.5324194 C14.5146774,41.7251613 15.1959677,39.8937097 15.9014516,38.0724194 C15.9319355,38.028871 15.9464516,37.9804839 15.9454839,37.9272581 L16.125,37.5454839 L16.8430645,36.1751613 L17.0574194,36.2506452 C16.7366129,39.4620968 15.6053226,42.4896774 14.6414516,45.6372581 C20.0167742,45.6372581 25.2454839,45.6377419 30.4737097,45.6343548 C30.5579032,45.6343548 30.6416129,45.5941935 30.6977419,45.5796774 L28.0843548,35.6685484 L28.3785484,35.5780645 L29.3525806,37.5445161 L29.4812903,37.7622581 L29.4812903,37.7622581 Z M35.606129,52.5730645 C33.6324194,52.4753226 32.9458065,53.0559677 32.4783871,55.2832258 C33.7645161,54.6004839 34.8914516,53.8316129 35.5925806,52.5614516 L35.6196774,52.4946774 L35.606129,52.5730645 L35.606129,52.5730645 Z M41.3409677,41.1353226 C39.6493548,44.6027419 36.4427419,45.3943548 33.1059677,45.7746774 L34.6983871,48.8119355 L34.451129,50.8025806 C37.1245161,50.6370968 39.4703226,49.8348387 40.9795161,47.5325806 C42.3846774,45.3880645 42.3232258,43.0170968 41.5770968,40.6030645 L41.3409677,41.1353226 L41.3409677,41.1353226 Z M3.97451613,40.8633871 C3.96483871,40.8072581 3.96387097,40.7066129 3.94354839,40.7022581 C3.88258065,40.6896774 3.75822581,40.7080645 3.75580645,40.7264516 C3.62903226,41.7159677 3.39870968,42.7093548 3.41564516,43.6983871 C3.47467742,47.1498387 5.33806452,49.5067742 8.67,50.4208065 C9.43596774,50.6308065 10.2401613,50.7024194 11.0593548,50.8437097 L10.7569355,48.8124194 L12.3996774,45.7587097 C8.86645161,45.4277419 5.65693548,44.4551613 3.97451613,40.8633871 L3.97451613,40.8633871 Z M31.6616129,52.9175806 L31.8522581,52.5667742 C32.1362903,51.9179032 32.4682258,51.285 32.696129,50.6172581 C33.4296774,48.4635484 32.6022581,47.2901613 30.3237097,47.1962903 C30.1751613,47.19 30.0266129,47.1875806 29.8780645,47.1875806 C25.1220968,47.1870968 20.366129,47.1822581 15.6106452,47.1943548 C15.1403226,47.1953226 14.6598387,47.25 14.2020968,47.3574194 C12.7901613,47.688871 12.2356452,48.521129 12.6077419,49.916129 C12.8496774,50.8243548 13.2793548,51.6827419 13.6248387,52.563871 L13.803871,52.8919355 L13.9379032,53.1130645 C14.7116129,54.1132258 15.33,55.3045161 16.2866129,56.0787097 C19.4317742,58.6248387 23.0317742,58.8348387 26.7309677,57.5448387 C29.0124194,56.748871 30.6556452,55.14 31.6620968,52.9180645 L31.6616129,52.9175806 L31.6616129,52.9175806 Z M41.0162903,4.75935484 C37.4830645,3.21483871 33.8443548,4.56677419 31.7472581,8.20548387 L32.9782258,8.80306452 C34.5909677,6.40693548 36.8254839,4.92096774 39.6067742,5.20596774 C40.001129,5.2466129 40.4298387,4.95532258 41.0162903,4.75935484 L41.0162903,4.75935484 Z M4.69693548,4.90983871 C5.22193548,5.00903226 5.74790323,5.19774194 6.27193548,5.19096774 C7.85177419,5.16967742 9.28935484,5.54806452 10.4816129,6.59951613 C11.2277419,7.25709677 11.8887097,8.01145161 12.6246774,8.76048387 L13.7477419,8.18419355 C11.8553226,4.71096774 7.95870968,3.18483871 4.69693548,4.90983871 L4.69693548,4.90983871 Z M38.1401613,6.6266129 C37.991129,6.64983871 37.7366129,6.66774194 37.4941935,6.73258065 C36.2409677,7.06790323 35.4769355,7.95048387 35.0162903,9.09580645 C34.8754839,9.44564516 34.7980645,10.0185484 34.9858065,10.2619355 C35.3753226,10.7670968 35.7169355,11.4604839 36.6856452,11.1329032 C37.3354839,10.9132258 37.5067742,10.5377419 37.5972581,9.99483871 C37.7758065,8.92354839 37.9437097,7.85032258 38.1401613,6.6266129 L38.1401613,6.6266129 Z M7.3166129,6.67548387 C7.46177419,7.49709677 7.60016129,8.27274194 7.73516129,9.0483871 C7.80580645,9.45629032 7.86241935,9.86612903 7.93935484,10.2725806 C8.10096774,11.1203226 8.91629032,11.343871 9.42483871,11.1735484 C9.95951613,10.9945161 10.6306452,10.3020968 10.6819355,9.77854839 C10.8208065,8.36322581 8.81758065,6.66725806 7.3166129,6.67548387 L7.3166129,6.67548387 Z M9.83322581,52.5803226 C10.6180645,53.7464516 11.658871,54.6425806 13.1796774,55.3272581 C12.356129,53.8204839 12.0991935,52.0141935 9.83322581,52.5803226 L9.83322581,52.5803226 Z" id="Shape" fill="#493310"></path>
                <path d="M5.53741935,20.0172581 C5.45854839,19.1008065 5.39854839,18.1833871 5.29403226,17.2708065 C5.24080645,16.8058065 5.10677419,16.35 4.88951613,15.888871 L4.78064516,16.8304839 C4.69354839,16.8009677 4.61516129,16.8 4.59,16.7622581 C3.91693548,15.7698387 3.11854839,14.7024194 3.70451613,13.4946774 C4.27064516,12.3280645 5.55822581,12.4587097 6.64741935,12.5351613 C9.22016129,12.7166129 11.553871,13.6432258 13.7046774,15.0285484 C15.093871,15.9237097 16.443871,16.8793548 17.9404839,17.7174194 L16.6146774,15.8066129 L16.4448387,15.5733871 L16.4472581,15.581129 C16.155,14.8867742 15.9125806,14.1667742 15.5603226,13.5043548 C14.9719355,12.3967742 14.1348387,11.3724194 14.6670968,9.98758065 C16.5808065,9.48677419 18.4679032,8.76580645 20.4135484,8.53354839 C23.9617742,8.10967742 27.48,8.42612903 30.7882258,9.9783871 L30.9958065,10.1312903 L31.0335484,10.1254839 C31.076129,11.3467742 30.6077419,12.3875806 29.9922581,13.4143548 C29.6254839,14.0264516 29.4493548,14.7522581 29.1875806,15.4272581 C29.1783871,15.4775806 29.1522581,15.5162903 29.1101613,15.5443548 L28.7995161,15.9058065 L27.5395161,17.7101613 L27.6546774,17.8446774 C27.9033871,17.6753226 28.1574194,17.5127419 28.3998387,17.3351613 C30.8279032,15.5583871 33.266129,13.7796774 36.2409677,13.0258065 C37.3804839,12.7369355 38.5785484,12.5627419 39.7519355,12.5477419 C41.7208065,12.5220968 42.4417742,13.7080645 41.6404839,15.4809677 C41.4362903,15.9319355 41.1532258,16.3480645 40.8091935,16.9495161 L40.5696774,15.9406452 L40.4051613,15.9164516 L39.9798387,19.1375806 L39.9396774,19.1869355 L39.9662903,19.3054839 L39.9943548,20.1943548 C39.9,20.4474194 39.7248387,20.7 39.7229032,20.9535484 C39.705,23.013871 39.8883871,25.0287097 41.4687097,26.8398387 C40.2159677,27.4766129 39.1079032,28.0896774 37.9582258,28.6108065 C36.9154839,29.0840323 35.8325806,29.5069355 35.4580645,30.7074194 C35.1474194,31.7041935 34.9693548,32.7420968 34.7341935,33.7529032 L34.155,32.1464516 C33.986129,36.0633871 34.1651613,39.8975806 35.4116129,43.6006452 L33.6425806,43.9243548 C32.4609677,42.1272581 31.2827419,40.3282258 30.0904839,38.5383871 C30.0067742,38.4130645 29.8166129,38.358871 29.6758065,38.2717742 L29.5243548,37.908871 L29.6003226,37.8014516 L29.4701613,37.7709677 L29.4803226,37.7637097 L29.3506452,37.5469355 L28.3766129,35.5804839 L28.0824194,35.6709677 C28.9529032,38.9709677 29.8229032,42.2714516 30.6958065,45.5820968 C30.6396774,45.5966129 30.5554839,45.6367742 30.4717742,45.6367742 C25.2435484,45.6401613 20.0153226,45.6396774 14.6395161,45.6396774 C15.6029032,42.4916129 16.7346774,39.4645161 17.0554839,36.2530645 L16.841129,36.1775806 L16.1225806,37.5479032 L15.9430645,37.9296774 C15.9440323,37.9829032 15.9295161,38.0308065 15.8995161,38.0748387 C15.7253226,38.2137097 15.5032258,38.3206452 15.3841935,38.4967742 C14.5132258,39.7891935 13.6509677,41.0883871 12.8119355,42.4020968 C12.5008065,42.8893548 12.2583871,43.4201613 11.985,43.931129 L10.0456452,43.5996774 C11.3496774,39.9058065 11.5117742,36.0793548 11.3390323,32.2083871 L10.7254839,33.8109677 C10.5943548,31.1922581 9.81483871,29.2170968 7.04951613,28.4090323 C5.99516129,28.1008065 5.07870968,27.3217742 4.31903226,26.8843548 C4.79274194,25.6819355 5.33129032,24.7896774 5.47209677,23.8379032 C5.65887097,22.5880645 5.53064516,21.2922581 5.53741935,20.0172581 L5.53741935,20.0172581 Z M25.5832258,20.2141935 L25.7627419,20.028871 L26.2001613,19.5217742 C25.0640323,19.6330645 23.9579032,19.8304839 22.8527419,19.8246774 C21.7379032,19.8183871 20.6235484,19.6103226 19.5091935,19.4912903 L19.2769355,19.4264516 L19.5091935,19.4908065 L19.8653226,20.2064516 C21.8520968,22.4646774 23.5117742,22.5096774 25.5101613,20.3579032 C25.548871,20.3162903 25.5677419,20.2562903 25.5958065,20.205 L25.5832258,20.2141935 L25.5832258,20.2141935 Z M14.5020968,32.1827419 L16.6330645,30.8656452 C17.1116129,29.925 17.6825806,29.0162903 18.0275806,28.0291935 C18.1920968,27.5574194 18.2816129,27.2980645 18.795,27.1630645 C19.9219355,26.8679032 20.501129,26.1072581 20.4725806,25.1264516 L19.3437097,25.2643548 C18.1359677,24.5787097 17.2209677,23.6259677 16.4782258,22.4414516 C16.065,21.7824194 15.4219355,21.2433871 14.8122581,20.7348387 C13.5130645,19.6509677 11.8862903,19.4041935 10.2967742,19.3703226 C9.32032258,19.35 8.33370968,19.8145161 7.35193548,20.0612903 C7.32193548,20.0908065 7.28903226,20.0937097 7.25322581,20.0724194 L6.99435484,20.1827419 L6.94451613,20.2553226 C6.94016129,20.2795161 6.95274194,20.3259677 6.96870968,20.3317742 C7.32193548,20.4570968 7.6766129,20.5785484 8.09322581,20.7227419 C7.14629032,21.9116129 7.26532258,23.0409677 7.98870968,24.2758065 L8.36419355,22.9533871 L8.54516129,22.9703226 L8.6366129,23.9051613 L8.75612903,24.3198387 L8.82580645,24.5970968 C8.72758065,27.5932258 11.4067742,29.7508065 15.3904839,29.6772581 L14.5045161,32.1856452 L14.463871,32.2577419 L14.5020968,32.1827419 L14.5020968,32.1827419 Z M30.9512903,32.1822581 L31.0219355,32.2248387 L30.9483871,32.1851613 L30.093871,29.6491935 C34.7366129,30.1079032 36.6416129,26.9516129 36.8090323,24.0687097 L36.9924194,22.9804839 L37.1433871,22.9862903 L37.4917742,24.2816129 C38.1933871,23.0341935 38.373871,21.8975806 37.3920968,20.7464516 L38.5572581,20.2887097 L38.0724194,20.0985484 C37.8353226,19.9543548 37.6083871,19.7066129 37.3601613,19.683871 C36.2898387,19.5832258 35.2083871,19.4520968 34.1409677,19.511129 C32.0206452,19.6282258 30.2753226,20.5524194 29.0796774,22.3398387 C28.2846774,23.5282258 27.4282258,24.6217742 26.1101613,25.263871 L24.8893548,25.1254839 C25.0843548,26.2877419 25.7467742,26.8920968 26.7653226,27.2143548 C27.0062903,27.2908065 27.2501613,27.5496774 27.3687097,27.7872581 C27.8777419,28.8014516 28.3408065,29.838871 28.8203226,30.8680645 L30.9512903,32.1822581 L30.9512903,32.1822581 Z" id="Shape" fill="#F5A900"></path>
                <path d="M13.623871,52.563871 C13.2783871,51.6832258 12.8487097,50.8248387 12.6067742,49.916129 C12.2346774,48.521129 12.7891935,47.688871 14.201129,47.3574194 C14.658871,47.25 15.1393548,47.1953226 15.6096774,47.1943548 C20.3656452,47.1827419 25.1216129,47.1870968 29.8770968,47.1875806 C30.0256452,47.1875806 30.1746774,47.19 30.3227419,47.1962903 C32.6012903,47.2896774 33.4287097,48.4635484 32.6951613,50.6172581 C32.4677419,51.285 32.1358065,51.9179032 31.8512903,52.5667742 L31.6606452,52.9175806 L31.6601613,52.9185484 C31.0451613,53.3182258 30.4466129,53.7464516 29.8117742,54.1117742 C28.2154839,55.0277419 26.4759677,55.4429032 24.6537097,55.6616129 C22.1612903,55.961129 19.7298387,55.7714516 17.3975806,54.8772581 C16.1951613,54.416129 15.0870968,53.7087097 13.9364516,53.1130645 L13.8024194,52.8919355 L13.623871,52.563871 L13.623871,52.563871 Z M30.7519355,51.1248387 L30.9479032,50.7725806 C31.4927419,49.3693548 31.248871,48.9890323 29.7658065,48.9716129 C28.6645161,48.9595161 27.5622581,48.9503226 26.4609677,48.9745161 C25.3920968,48.9977419 25.1545161,49.3432258 25.4395161,50.3666129 C25.5682258,50.9008065 25.6229032,51.4683871 25.841129,51.9633871 C26.396129,53.2248387 27.3996774,53.928871 28.2880645,53.7803226 C29.4972581,53.5785484 30.5816129,52.4090323 30.7572581,51.1175806 L30.7519355,51.1248387 L30.7519355,51.1248387 Z M14.6966129,51.123871 L14.6941935,51.1195161 C14.8959677,52.4608065 15.7069355,53.2862903 16.953871,53.6903226 C17.8330645,53.9748387 18.6067742,53.5780645 19.0340323,52.8919355 C19.5004839,52.1424194 19.7085484,51.2322581 20.0293548,50.3917742 C20.3351613,49.3446774 20.1193548,49.0098387 19.0548387,48.9783871 C18.1040323,48.9498387 17.1517742,48.9648387 16.2,48.9725806 C14.1570968,48.9885484 14.1174194,49.0379032 14.5112903,50.9395161 L14.6966129,51.123871 L14.6966129,51.123871 Z" id="Shape" fill="#F5A800"></path>
                <path d="M5.53741935,20.0172581 C5.53064516,21.2922581 5.65887097,22.5880645 5.47354839,23.8364516 C5.33225806,24.7882258 4.79370968,25.6804839 4.32048387,26.8829032 C5.08016129,27.3203226 5.9966129,28.0993548 7.05096774,28.4075806 C9.81580645,29.2156452 10.5958065,31.1908065 10.7269355,33.8095161 L11.3404839,32.2069355 C11.5127419,36.0779032 11.3506452,39.903871 10.0470968,43.5982258 C8.87129032,43.323871 8.91,43.3258065 8.98451613,42.0314516 C9.1233871,39.6275806 9.26854839,37.2212903 9.30290323,34.8145161 C9.3333871,32.7237097 8.45951613,31.0974194 6.53709677,30.0812903 C5.51516129,29.5412903 4.4883871,28.9659677 3.58887097,28.248871 C2.10096774,27.0619355 2.19,25.1274194 3.7383871,24.1833871 L3.79403226,25.046129 L3.98709677,25.1356452 C4.32629032,24.2975806 4.72548387,23.4774194 4.98725806,22.6156452 C5.24370968,21.7717742 5.35983871,20.8853226 5.53741935,20.0172581 L5.53741935,20.0172581 Z M35.4130645,43.5996774 C34.1666129,39.896129 33.9875806,36.0619355 34.1564516,32.1454839 L34.7356452,33.7519355 C34.9703226,32.7406452 35.148871,31.7027419 35.4595161,30.7064516 C35.8340323,29.5064516 36.9169355,29.0830645 37.9596774,28.6098387 C39.108871,28.0887097 40.2174194,27.476129 41.4701613,26.838871 C39.8898387,25.0277419 39.7064516,23.0129032 39.7243548,20.9525806 C39.7262903,20.6990323 39.9014516,20.4464516 39.9958065,20.1933871 C40.2682258,21.8598387 40.5701613,23.516129 41.6124194,25.1462903 L41.7304839,24.1770968 C43.1027419,24.9643548 43.4230645,26.6835484 42.2985484,27.8153226 C41.5596774,28.5595161 40.653871,29.2219355 39.701129,29.6530645 C37.0785484,30.84 35.9840323,32.8364516 36.1427419,35.6346774 C36.2666129,37.8295161 36.3309677,40.0287097 36.5080645,42.2187097 C36.5796774,43.1196774 36.3387097,43.5817742 35.4130645,43.5996774 L35.4130645,43.5996774 Z M41.7672581,25.2575806 L41.7425806,25.305 L41.7798387,25.3098387 L41.7672581,25.2575806 L41.7672581,25.2575806 Z" id="Shape" fill="#E08700"></path>
                <path d="M13.9374194,53.1130645 C15.0880645,53.7087097 16.196129,54.416129 17.3985484,54.8772581 C19.7303226,55.7714516 22.1622581,55.961129 24.6546774,55.6616129 C26.4769355,55.4429032 28.2164516,55.0277419 29.8127419,54.1117742 C30.4480645,53.7469355 31.046129,53.3182258 31.661129,52.9185484 C30.6546774,55.1404839 29.0114516,56.7493548 26.73,57.5453226 C23.0308065,58.8353226 19.4308065,58.6248387 16.2856452,56.0791935 C15.3295161,55.3045161 14.7106452,54.1132258 13.9374194,53.1130645 L13.9374194,53.1130645 Z" id="Shape" fill="#E08600"></path>
                <path d="M3.97451613,40.8633871 C5.65741935,44.4551613 8.86645161,45.4277419 12.3996774,45.7591935 L10.7569355,48.8129032 C6.53032258,48.4674194 3.80709677,45.2758065 3.97451613,40.8633871 L3.97451613,40.8633871 Z M34.6983871,48.8124194 C34.1714516,47.8064516 33.6445161,46.8014516 33.1059677,45.7751613 C36.4427419,45.3943548 39.6493548,44.6027419 41.3409677,41.1358065 C41.3941935,41.3554839 41.5001613,41.5766129 41.4924194,41.7943548 C41.3675806,45.4258065 38.8770968,48.483871 34.6983871,48.8124194 L34.6983871,48.8124194 Z" id="Shape" fill="#FFFFFF"></path>
                <path d="M3.97451613,40.8633871 C3.80709677,45.2758065 6.53032258,48.4669355 10.7569355,48.8124194 L11.0593548,50.8437097 C10.2396774,50.7024194 9.43596774,50.6308065 8.67,50.4208065 C5.33806452,49.5072581 3.47467742,47.1498387 3.41564516,43.6983871 C3.39870968,42.7098387 3.62903226,41.7164516 3.75580645,40.7264516 C3.75822581,40.7075806 3.88258065,40.6891935 3.94354839,40.7022581 C3.96387097,40.7066129 3.96483871,40.8072581 3.97451613,40.8633871 L3.97451613,40.8633871 Z M34.6983871,48.8124194 C38.8770968,48.483871 41.3675806,45.4258065 41.4929032,41.793871 C41.5006452,41.576129 41.3941935,41.355 41.3414516,41.1353226 L41.5775806,40.6030645 C42.3237097,43.0170968 42.3851613,45.3880645 40.98,47.5325806 C39.4708065,49.8353226 37.125,50.6370968 34.4516129,50.8025806 L34.6983871,48.8124194 L34.6983871,48.8124194 Z" id="Shape" fill="#C7C6C6"></path>
                <path d="M41.0162903,4.75935484 C40.4298387,4.95532258 40.001129,5.2466129 39.6067742,5.20596774 C36.8254839,4.92096774 34.5914516,6.40693548 32.9782258,8.80306452 L31.7472581,8.20548387 C33.8443548,4.56677419 37.4830645,3.21483871 41.0162903,4.75935484 L41.0162903,4.75935484 Z M4.69693548,4.90983871 C7.95870968,3.18483871 11.8553226,4.71096774 13.7477419,8.18370968 L12.6246774,8.76 C11.8887097,8.01096774 11.2272581,7.25709677 10.4816129,6.59903226 C9.28935484,5.54806452 7.85177419,5.16919355 6.27193548,5.19048387 C5.74790323,5.19774194 5.22193548,5.00903226 4.69693548,4.90983871 L4.69693548,4.90983871 Z" id="Shape" fill="#F0A500"></path>
                <path d="M38.1401613,6.6266129 C37.9432258,7.85032258 37.7758065,8.92354839 37.5972581,9.99483871 C37.5067742,10.5377419 37.3354839,10.9132258 36.6856452,11.1329032 C35.7174194,11.4604839 35.3753226,10.7670968 34.9858065,10.2619355 C34.7980645,10.0185484 34.875,9.44564516 35.0162903,9.09580645 C35.4764516,7.95048387 36.2404839,7.06790323 37.4941935,6.73258065 C37.7366129,6.66774194 37.991129,6.64983871 38.1401613,6.6266129 L38.1401613,6.6266129 Z M7.3166129,6.67548387 C8.81758065,6.66725806 10.8208065,8.36274194 10.6819355,9.77903226 C10.6306452,10.3025806 9.95951613,10.995 9.42483871,11.1740323 C8.91629032,11.3443548 8.10096774,11.1208065 7.93935484,10.2730645 C7.86241935,9.8666129 7.80580645,9.45629032 7.73516129,9.04887097 C7.60016129,8.27274194 7.46177419,7.49709677 7.3166129,6.67548387 L7.3166129,6.67548387 Z" id="Shape" fill="#DE8500"></path>
                <path d="M14.6675806,9.98758065 C14.1353226,11.3724194 14.9724194,12.3967742 15.5608065,13.5043548 C15.9125806,14.1667742 16.1554839,14.8862903 16.4477419,15.581129 C14.8979032,14.3216129 13.3480645,13.0620968 11.7387097,11.7537097 C12.4683871,10.9480645 13.5401613,10.4254839 14.6675806,9.98758065 L14.6675806,9.98758065 Z" id="Shape" fill="#E08600"></path>
                <path d="M29.1875806,15.4272581 C29.4493548,14.7522581 29.6254839,14.0264516 29.9922581,13.4143548 C30.6077419,12.3870968 31.076129,11.3467742 31.0335484,10.1254839 C32.0017742,10.6408065 32.9690323,11.1566129 33.8990323,11.6530645 C32.2112903,13.0045161 30.6996774,14.216129 29.1875806,15.4272581 L29.1875806,15.4272581 Z M29.6772581,38.2708065 C29.8180645,38.3579032 30.0082258,38.4120968 30.0919355,38.5374194 C31.2841935,40.3272581 32.4624194,42.1262903 33.6440323,43.9233871 C31.5043548,44.1164516 31.9712903,44.1783871 31.2962903,42.5056452 C30.731129,41.1048387 30.2153226,39.6832258 29.6772581,38.2708065 L29.6772581,38.2708065 Z M11.9859677,43.9291935 C12.2598387,43.4182258 12.5017742,42.8874194 12.8129032,42.4001613 C13.6519355,41.0869355 14.5141935,39.7877419 15.3851613,38.4948387 C15.5041935,38.3187097 15.7262903,38.2117742 15.9004839,38.0729032 C15.1945161,39.8941935 14.5132258,41.7256452 13.7733871,43.5329032 C13.3983871,44.448871 12.6029032,43.8793548 11.9859677,43.9291935 L11.9859677,43.9291935 Z" id="Shape" fill="#DE8600"></path>
                <path d="M9.83322581,52.5803226 C12.0991935,52.0141935 12.356129,53.8204839 13.1796774,55.3272581 C11.658871,54.6420968 10.6175806,53.7464516 9.83322581,52.5803226 L9.83322581,52.5803226 Z M35.5925806,52.5614516 C34.8914516,53.831129 33.7645161,54.6004839 32.4783871,55.2832258 C32.9462903,53.0559677 33.6329032,52.4753226 35.606129,52.5730645 L35.5925806,52.5614516 L35.5925806,52.5614516 Z M35.606129,52.5730645 L35.6191935,52.4941935 L35.5920968,52.5614516 L35.606129,52.5730645 L35.606129,52.5730645 Z" id="Shape" fill="#ECA200"></path>
                <path id="Shape" fill="#DE8600" d="M29.4716129,37.7695161 L29.6017742,37.8 L29.5258065,37.9074194 C29.4827419,37.8716129 29.4648387,37.8251613 29.4716129,37.7695161 L29.4716129,37.7695161 Z"></path>
                <path id="Shape" fill="#E08700" d="M39.9831384,19.3045161 L39.9406452,19.1859677 L40.0047713,19.1366129 C40.0588536,19.1956452 40.0519002,19.2512903 39.9831384,19.3045161 L39.9831384,19.3045161 Z"></path>
                <path d="M28.8208065,30.8680645 C28.3412903,29.8393548 27.8782258,28.8014516 27.3691935,27.7872581 C27.2506452,27.5501613 27.0067742,27.2908065 26.7658065,27.2143548 C25.7472581,26.8916129 25.0848387,26.2872581 24.8898387,25.1254839 L26.1106452,25.263871 C26.34,25.2798387 26.5741935,25.335 26.7972581,25.305 C27.8651613,25.1603226 28.5943548,24.483871 29.3041935,23.7358065 C31.6829032,21.2274194 34.4733871,19.6775806 38.073871,20.0990323 L38.5587097,20.2891935 L37.3935484,20.7469355 C38.3748387,21.8980645 38.1948387,23.0346774 37.4932258,24.2820968 L37.1448387,22.9867742 L36.993871,22.9809677 L36.8104839,24.0696774 C36.2985484,25.2720968 35.8112903,26.486129 34.5624194,27.1606452 C32.745,28.1419355 30.9203226,28.571129 29.0820968,27.2670968 C28.2967742,28.4603226 28.7608065,29.6772581 28.8208065,30.8680645 L28.8208065,30.8680645 Z M34.8367742,24.1229032 L34.8367742,21.8835484 C32.9525806,22.9925806 31.3441935,24.0706452 30.0551613,25.5677419 L29.5233871,26.2103226 C31.3224194,27.5593548 34.8406452,26.6719355 34.8367742,24.1229032 L34.8367742,24.1229032 Z" id="Shape" fill="#49330E"></path>
                <path d="M8.82532258,24.5966129 L8.75564516,24.3193548 L8.63612903,23.9046774 L8.54467742,22.9698387 L8.36370968,22.9529032 L7.98822581,24.2753226 C7.26483871,23.0404839 7.14580645,21.911129 8.09274194,20.7222581 C7.67612903,20.5785484 7.32145161,20.4570968 6.96822581,20.3312903 C6.95225806,20.3254839 6.93919355,20.2790323 6.94403226,20.2548387 L6.99387097,20.1822581 L7.25274194,20.0719355 C7.28806452,20.0932258 7.32145161,20.0903226 7.35145161,20.0608065 C8.69951613,20.208871 10.0896774,20.1991935 11.3864516,20.5412903 C13.4230645,21.078871 14.9956452,22.4283871 16.4027419,23.9675806 C17.1851613,24.8230645 18.0841935,25.4651613 19.3432258,25.263871 L20.4720968,25.1259677 C20.5006452,26.1072581 19.9214516,26.8674194 18.7945161,27.1625806 C18.281129,27.2975806 18.1916129,27.5569355 18.0270968,28.0287097 C17.6820968,29.0162903 17.111129,29.9245161 16.6325806,30.8646774 C16.7520968,29.6598387 17.1619355,28.4327419 16.3703226,27.2487097 C15.4122581,27.9643548 14.3675806,28.2266129 13.2377419,28.023871 C11.1774194,27.6532258 9.65177419,26.5693548 8.82532258,24.5966129 L8.82532258,24.5966129 Z M15.4117742,25.5512903 C14.1217742,24.0585484 12.5172581,22.9785484 10.635,21.8820968 L10.635,24.12 C10.665,26.7232258 14.22,27.5487097 15.9212903,26.2320968 C15.8704839,26.1387097 15.8279032,26.0308065 15.7596774,25.9432258 C15.6527419,25.8053226 15.5283871,25.6809677 15.4117742,25.5512903 L15.4117742,25.5512903 Z" id="Shape" fill="#49330F"></path>
                <path d="M28.8208065,30.8680645 C28.7608065,29.6767742 28.2967742,28.4603226 29.0816129,27.2666129 C30.9198387,28.5701613 32.7445161,28.1414516 34.5619355,27.1601613 C35.8108065,26.4851613 36.2980645,25.2716129 36.81,24.0691935 C36.6425806,26.9516129 34.7370968,30.1079032 30.0948387,29.6491935 L30.9493548,32.1851613 L30.9517742,32.1822581 L28.8208065,30.8680645 L28.8208065,30.8680645 Z M8.82532258,24.5966129 C9.65177419,26.5693548 11.1769355,27.6532258 13.2382258,28.023871 C14.3680645,28.2270968 15.4127419,27.9643548 16.3708065,27.2487097 C17.1619355,28.4327419 16.7520968,29.6598387 16.6330645,30.8646774 L14.5020968,32.1827419 L14.5045161,32.1851613 L15.3904839,29.6767742 C11.4067742,29.7503226 8.72709677,27.5927419 8.82532258,24.5966129 L8.82532258,24.5966129 Z" id="Shape" fill="#E08700"></path>
                <path d="M19.3437097,25.263871 C18.0846774,25.4651613 17.1856452,24.8230645 16.4032258,23.9675806 C14.996129,22.4283871 13.4235484,21.078871 11.3869355,20.5412903 C10.0901613,20.1987097 8.7,20.2083871 7.35193548,20.0608065 C8.33370968,19.8140323 9.32032258,19.3490323 10.2962903,19.3698387 C11.8858065,19.4037097 13.5125806,19.6504839 14.8117742,20.7343548 C15.4219355,21.2429032 16.0645161,21.7819355 16.4777419,22.4409677 C17.2209677,23.6254839 18.1359677,24.5782258 19.3437097,25.263871 L19.3437097,25.263871 Z" id="Shape" fill="#DE8600"></path>
                <path d="M38.0729032,20.0990323 C34.4729032,19.6775806 31.6819355,21.2274194 29.3032258,23.7358065 C28.593871,24.483871 27.8641935,25.1603226 26.7962903,25.305 C26.5732258,25.3354839 26.3390323,25.2798387 26.1096774,25.263871 C27.4277419,24.6217742 28.2846774,23.5282258 29.0791935,22.3398387 C30.2748387,20.5524194 32.0201613,19.6282258 34.1404839,19.511129 C35.2083871,19.4520968 36.2893548,19.5837097 37.3596774,19.683871 C37.608871,19.7075806 37.8358065,19.9548387 38.0729032,20.0990323 L38.0729032,20.0990323 Z M19.8648387,20.2064516 L19.5087097,19.4908065 L19.5087097,19.4912903 C20.6230645,19.6108065 21.7369355,19.8183871 22.8522581,19.8246774 C23.9574194,19.8304839 25.0635484,19.6330645 26.1996774,19.5217742 L25.7627419,20.028871 L25.5832258,20.2141935 L25.5953226,20.2040323 C24.4795161,20.3917742 23.3666129,20.6975806 22.2464516,20.7266129 C21.4577419,20.7479032 20.658871,20.3932258 19.8648387,20.2064516 L19.8648387,20.2064516 Z" id="Shape" fill="#DF8600"></path>
                <path d="M19.8648387,20.2064516 C20.658871,20.3937097 21.4577419,20.7479032 22.2459677,20.7270968 C23.366129,20.6975806 24.4790323,20.3922581 25.5948387,20.2045161 C25.5667742,20.2558065 25.5479032,20.3158065 25.5091935,20.3574194 C23.5112903,22.5096774 21.8520968,22.4646774 19.8648387,20.2064516 L19.8648387,20.2064516 Z" id="Shape" fill="#52380B"></path>
                <path d="M25.4395161,50.3666129 C25.1545161,49.3432258 25.3920968,48.9977419 26.4609677,48.9745161 C27.5622581,48.9503226 28.6645161,48.9595161 29.7658065,48.9716129 C31.248871,48.9890323 31.4932258,49.3693548 30.9479032,50.7725806 L30.7519355,51.1248387 L30.7567742,51.1175806 C30.4993548,51.3962903 30.2491935,51.6822581 29.9825806,51.9527419 C28.773871,53.1798387 27.4480645,53.1004839 26.4019355,51.7306452 C26.0646774,51.288871 25.7593548,50.8224194 25.4395161,50.3666129 L25.4395161,50.3666129 Z" id="Shape" fill="#47310D"></path>
                <path d="M14.5112903,50.9390323 C14.1174194,49.0369355 14.1570968,48.9875806 16.2,48.9720968 C17.1517742,48.9643548 18.1040323,48.9493548 19.0548387,48.9779032 C20.1193548,49.0093548 20.3351613,49.3446774 20.0293548,50.3912903 C19.6683871,50.8983871 19.3258065,51.42 18.9425806,51.9101613 C18.0459677,53.0564516 16.7729032,53.1285484 15.7030645,52.1085484 C15.3624194,51.783871 15.03,51.4490323 14.6937097,51.1195161 L14.6956452,51.123871 L14.5112903,50.9390323 L14.5112903,50.9390323 Z" id="Shape" fill="#47310E"></path>
                <path d="M14.6941935,51.1195161 C15.0304839,51.4495161 15.3629032,51.783871 15.7035484,52.1085484 C16.7733871,53.1280645 18.0464516,53.0564516 18.9430645,51.9101613 C19.3262903,51.42 19.668871,50.8983871 20.0298387,50.3912903 C19.7090323,51.2317742 19.5014516,52.1419355 19.0345161,52.8914516 C18.6067742,53.5775806 17.8335484,53.9743548 16.9543548,53.6898387 C15.7069355,53.2862903 14.8959677,52.4608065 14.6941935,51.1195161 L14.6941935,51.1195161 Z" id="Shape" fill="#DC8400"></path>
                <path d="M25.4395161,50.3666129 C25.7593548,50.8219355 26.0646774,51.2883871 26.4019355,51.7306452 C27.4480645,53.1004839 28.773871,53.1798387 29.9825806,51.9527419 C30.2491935,51.6822581 30.498871,51.3962903 30.7567742,51.1175806 C30.581129,52.4090323 29.4967742,53.5785484 28.2875806,53.7803226 C27.3996774,53.928871 26.3956452,53.2248387 25.8406452,51.9633871 C25.6233871,51.4683871 25.5682258,50.9008065 25.4395161,50.3666129 L25.4395161,50.3666129 Z" id="Shape" fill="#DE8500"></path>
                <path id="Shape" fill="#493310" d="M41.7935806,25.2575806 L41.8195806,25.3575806 L41.7425806,25.3483214 L41.7935806,25.2575806 Z"></path>
                <path d="M30.0551613,25.5682258 C31.3441935,24.0706452 32.9530645,22.9925806 34.8367742,21.8840323 L34.8367742,24.1233871 C34.0596774,25.113871 33.1814516,25.9983871 31.8285484,25.9969355 C31.2372581,25.9954839 30.6459677,25.7191935 30.0551613,25.5682258 L30.0551613,25.5682258 Z" id="Shape" fill="#FFFFFF"></path>
                <path d="M30.0551613,25.5682258 C30.6464516,25.7191935 31.2372581,25.9954839 31.8285484,25.9964516 C33.1814516,25.9983871 34.0596774,25.113871 34.8367742,24.1229032 C34.8406452,26.6719355 31.3224194,27.5593548 29.5233871,26.2103226 L30.0551613,25.5682258 L30.0551613,25.5682258 Z" id="Shape" fill="#C5C4C3"></path>
                <path d="M10.635,24.1195161 L10.635,21.8816129 C12.5167742,22.9785484 14.1217742,24.0580645 15.4117742,25.5508065 C14.6685484,26.2209677 13.1608065,26.2417742 12.0720968,25.4941935 C11.5325806,25.1240323 11.1101613,24.5830645 10.635,24.1195161 L10.635,24.1195161 Z" id="Shape" fill="#FFFFFF"></path>
                <path d="M10.635,24.1195161 C11.1101613,24.5830645 11.5325806,25.1245161 12.0720968,25.4946774 C13.1608065,26.2422581 14.6685484,26.2214516 15.4117742,25.5512903 C15.528871,25.6814516 15.6532258,25.8053226 15.7596774,25.9432258 C15.8279032,26.0308065 15.8704839,26.1382258 15.9212903,26.2320968 C14.22,27.5482258 10.665,26.7227419 10.635,24.1195161 L10.635,24.1195161 Z" id="Shape" fill="#C5C4C3"></path>
            </g>
        </g>
    </g>
</svg>