<?xml version="1.0" encoding="UTF-8" standalone="no"?>
<svg width="64px" height="64px" viewBox="0 0 64 64" version="1.1" xmlns="http://www.w3.org/2000/svg" xmlns:xlink="http://www.w3.org/1999/xlink">
    <!-- Generator: Sketch 3.6.1 (26313) - http://www.bohemiancoding.com/sketch -->
    <title>icons/skills/id-220</title>
    <desc>Created with Sketch.</desc>
    <defs></defs>
    <g id="Frameworks" stroke="none" stroke-width="1" fill="none" fill-rule="evenodd">
        <g id="icons/skills/id-220">
            <g id="Group" transform="translate(4.000000, 11.000000)">
                <path d="M2.43288667,39.984 L4.16062,39.984 C5.69328667,39.984 6.45962,38.626 6.45962,37.0427273 C6.45962,35.448 5.69328667,34.0607273 4.16062,34.0607273 L2.43288667,34.0607273 L2.43288667,39.984 Z M0.39862,41.846 L0.39862,32.1987273 L4.16062,32.1987273 C6.91942,32.1987273 8.49515333,34.2987273 8.49515333,37.0427273 C8.49515333,39.774 6.91942,41.846 4.16062,41.846 L0.39862,41.846 Z M11.6421867,32.1984727 L17.7183867,32.1984727 L17.7183867,34.0044727 L13.6764533,34.0044727 L13.6764533,36.2024727 L17.2167867,36.2024727 L17.2167867,37.9817455 L13.6764533,37.9817455 L13.6764533,40.0397455 L17.8437867,40.0397455 L17.8437867,41.8457455 L11.6421867,41.8457455 L11.6421867,32.1984727 Z M22.4824467,39.0171091 C22.5103133,39.6331091 22.99798,40.1791091 23.9188467,40.1791091 C24.7396467,40.1791091 25.3109133,39.7871091 25.3248467,39.1571091 C25.3400467,38.7243818 25.14498,38.3463818 24.16838,38.0651091 L23.0119133,37.7431091 C20.8940467,37.0851091 20.53178,35.8391091 20.53178,34.9711091 C20.53178,33.2491091 21.99478,32.0871091 23.83398,32.0871091 C25.6871133,32.0871091 27.0817133,33.1931091 27.0817133,35.0411091 L25.04618,35.0411091 C25.04618,34.3971091 24.6155133,33.9491091 23.8061133,33.9491091 C23.0955133,33.9491091 22.5660467,34.3411091 22.5660467,34.9151091 C22.5660467,35.1671091 22.6648467,35.6291091 23.5971133,35.8951091 L24.7396467,36.2591091 C27.06778,36.9311091 27.40218,38.2483818 27.3730467,39.1711091 C27.3464467,41.0903818 25.6187133,42.0003818 23.9188467,42.0003818 C21.82758,42.0003818 20.4342467,40.7531091 20.4342467,39.0171091 L22.4824467,39.0171091 Z M32.4862,41.846 L30.4532,41.846 L30.4532,32.1987273 L32.4862,32.1987273 L32.4862,41.846 Z M42.6030667,34.9713636 C42.0736,34.3680909 41.3351333,33.9900909 40.4991333,33.9900909 C38.8816,33.9900909 37.6276,35.3633636 37.6276,37.0433636 C37.6276,38.7093636 38.8816,40.1093636 40.4991333,40.1093636 C41.5289333,40.1093636 42.8120667,39.4653636 42.826,38.4433636 L40.2483333,38.4433636 L40.2483333,36.7773636 L45.1807333,36.7773636 C45.1807333,40.3893636 43.2579333,41.9866364 40.4991333,41.9866364 C37.7390667,41.9866364 35.5794,39.7593636 35.5794,37.0433636 C35.5794,34.2993636 37.7390667,32.0860909 40.4991333,32.0860909 C41.9760667,32.0860909 43.2718667,32.7033636 44.1066,33.6693636 L42.6030667,34.9713636 Z M55.2685933,41.8458727 L53.4433267,41.8458727 L50.09806,36.0066 L50.09806,41.8458727 L48.06506,41.8458727 L48.06506,32.1986 L49.93086,32.1986 L53.2203933,37.9666 L53.2203933,32.1986 L55.2685933,32.1986 L55.2685933,41.8458727 Z" id="design" fill="#002A41"></path>
                <path d="M0.0114,5.50581818 L10.5500667,5.50581818 L10.5500667,4.01036364 L0.0114,4.01036364 L0.0114,5.50581818 Z M0.019,2.51872727 L10.5488,2.51872727 L10.5488,1.02454545 L0.019,1.02454545 L0.019,2.51872727 Z M7.6494,6.99490909 L2.90953333,6.99490909 L2.90953333,8.49418182 L7.6494,8.49418182 L7.6494,6.99490909 Z M7.64433333,9.98327273 L2.9146,9.98327273 L2.9146,11.4787273 L7.64433333,11.4787273 L7.64433333,9.98327273 Z M7.64686667,12.9678182 L2.9108,12.9678182 L2.9108,14.4645455 L7.64686667,14.4645455 L7.64686667,12.9678182 Z M7.64433333,15.9561818 L2.9146,15.9561818 L2.9146,17.4516364 L7.64433333,17.4516364 L7.64433333,15.9561818 Z M0.00886666667,20.4387273 L10.5488,20.4387273 L10.5488,18.942 L0.00886666667,18.942 L0.00886666667,20.4387273 Z M0,23.4270909 L10.5500667,23.4270909 L10.5500667,21.9252727 L0,21.9252727 L0,23.4270909 Z M19.6928667,15.9536364 L14.9492,15.9536364 L14.9492,17.4541818 L19.6928667,17.4541818 L19.6928667,15.9536364 Z M38.741,15.9549091 L34.0074667,15.9549091 L34.0074667,17.4516364 L38.741,17.4516364 L38.741,15.9549091 Z M38.7435333,12.9678182 L34.0062,12.9678182 L34.0062,14.4658182 L38.7435333,14.4658182 L38.7435333,12.9678182 Z M53.6788,15.9549091 L48.944,15.9549091 L48.944,17.4516364 L53.6788,17.4516364 L53.6788,15.9549091 Z M53.6762667,12.9690909 L48.9465333,12.9690909 L48.9465333,14.4632727 L53.6762667,14.4632727 L53.6762667,12.9690909 Z M48.944,20.4374545 L56.5870667,20.4374545 L56.5870667,18.9432727 L48.944,18.9432727 L48.944,20.4374545 Z M48.9465333,23.4232727 L56.5858,23.4232727 L56.5858,21.9290909 L48.9465333,21.9290909 L48.9465333,23.4232727 Z M38.7460667,18.9407273 L31.1068,18.9407273 L31.1068,20.4387273 L38.7460667,20.4387273 L38.7460667,18.9407273 Z M38.7473333,21.9265455 L31.1068,21.9265455 L31.1068,23.4258182 L38.7473333,23.4258182 L38.7473333,21.9265455 Z M19.6852667,6.99745455 L14.9568,6.99745455 L14.9568,8.49163636 L19.6852667,8.49163636 L19.6852667,6.99745455 Z M31.10718,1.02441818 L31.10718,2.5186 L39.8231133,2.5186 L39.2138467,1.02441818 L31.10718,1.02441818 Z M40.40426,4.00883636 L31.1069267,4.00883636 L31.1069267,5.50683636 L40.99706,5.50683636 L40.40426,4.00883636 Z M41.5861867,6.99478182 L33.9988533,6.99478182 L33.9988533,8.49405455 L42.1599867,8.49405455 L41.5861867,6.99478182 Z M42.7669733,9.98161818 L33.9991067,9.98161818 L33.9991067,11.4796182 L43.3585067,11.4796182 L42.7669733,9.98161818 Z M48.2453067,12.9661636 L39.6497067,12.9661636 L40.2425067,14.4679818 L47.65124,14.4679818 L48.2453067,12.9661636 Z M40.8387267,15.9531273 L47.0365267,15.9531273 L46.4627267,17.4536727 L41.4315267,17.4536727 L40.8387267,15.9531273 Z M42.0271133,18.9407273 L45.8676467,18.9407273 L45.2748467,20.4387273 L42.5996467,20.4387273 L42.0271133,18.9407273 Z M43.2127133,21.9284545 L44.7010467,21.9284545 L44.0905133,23.4239091 L43.7852467,23.4239091 L43.2127133,21.9284545 Z M48.48534,1.02327273 L47.8748067,2.51872727 L56.5856733,2.51872727 L56.5856733,1.02327273 L48.48534,1.02327273 Z M47.2986,4.00832727 L46.7070667,5.50632727 L56.5858,5.50632727 L56.5858,4.00832727 L47.2986,4.00832727 Z M46.1271867,6.99707273 L53.6942533,6.99707273 L53.6942533,8.49125455 L45.55592,8.49125455 L46.1271867,6.99707273 Z M44.9298067,9.97996364 L53.7128733,9.97996364 L53.7128733,11.4817818 L44.3370067,11.4817818 L44.9298067,9.97996364 Z M23.0976667,23.4240364 L12.0384,23.4240364 L12.0384,21.9285818 L27.6374,21.9285818 C26.9318667,22.5611273 25.0812667,23.4431273 23.0976667,23.4240364 Z M29.5968067,18.9388182 L12.0382733,18.9388182 L12.0382733,20.4406364 L29.0230067,20.4406364 C29.2864733,20.1008182 29.5600733,19.4606364 29.5968067,18.9388182 Z M29.3866667,15.9547818 L24.4036,15.9547818 L24.4036,17.4515091 L29.6640667,17.4515091 C29.7210667,17.0633273 29.5944,16.3887818 29.3866667,15.9547818 Z M26.96404,12.9701091 L14.95604,12.9701091 L14.95604,14.4642909 L28.6601067,14.4642909 C28.5271067,14.1193818 27.4593067,13.1228364 26.96404,12.9701091 Z M28.5400267,9.98174545 L14.94236,9.98174545 L14.94236,11.4797455 L26.87816,11.4797455 C27.43296,11.2493818 28.32976,10.5392 28.5400267,9.98174545 Z M29.5626067,6.99427273 L24.3996733,6.99427273 L24.3996733,8.49354545 L29.31434,8.49354545 C29.4498733,8.21736364 29.60314,7.56063636 29.5626067,6.99427273 Z M28.88,4.00743636 L12.0384,4.00743636 L12.0384,5.50798182 L29.4918,5.50798182 C29.4918,5.08416364 29.0966,4.24289091 28.88,4.00743636 Z M12.0381467,1.0234 L12.0381467,2.51885455 L27.5244133,2.51885455 C27.0481467,2.15485455 25.3115467,1.0234 22.9454133,1.0234 L12.0381467,1.0234 Z" id="IBM" fill="#1C6ABC"></path>
            </g>
        </g>
    </g>
</svg>