<?xml version="1.0" encoding="UTF-8" standalone="no"?>
<svg width="64px" height="64px" viewBox="0 0 64 64" version="1.1" xmlns="http://www.w3.org/2000/svg" xmlns:xlink="http://www.w3.org/1999/xlink">
    <defs></defs>
    <g id="Database" stroke="none" stroke-width="1" fill="none" fill-rule="evenodd">
        <g id="icons/skills/id-287">
            <g id="Group" transform="translate(2.000000, 24.000000)">
                <polygon id="Star-1" fill="#FC0204" points="19.58159 11.0861924 14.8596331 14.5326888 16.6782811 8.97681505 11.9413033 5.55099318 17.7872464 5.56377075 19.58159 0 21.3759335 5.56377075 27.2218766 5.55099318 22.4848989 8.97681505 24.3035468 14.5326888 "></polygon>
                <path d="M15.2606605,13.3075713 L19.1375758,10.47786 L19.58159,10.1537797 L20.0256041,10.47786 L23.9025194,13.3075713 L24.2279847,14.3018506 L24.1073566,14.3894921 L23.262315,13.772707 L21.7691324,9.21111253 L21.5981216,8.68868366 L22.0435482,8.36654742 L25.9327963,5.55381074 L26.9789864,5.55152407 L27.0250623,5.69333095 L26.1773326,6.30641613 L21.3775797,6.31690702 L20.8278751,6.31810852 L20.6591497,5.79493708 L19.1859219,1.22685892 L19.5070377,0.231166335 L19.6561422,0.231166335 L19.977258,1.22685892 L18.5040302,5.79493708 L18.3353049,6.31810852 L17.7856002,6.31690702 L12.9858473,6.30641613 L12.1381176,5.69333095 L12.1841935,5.55152407 L13.2303836,5.55381074 L17.1196317,8.36654742 L17.5650583,8.68868366 L17.3940475,9.21111253 L15.9008649,13.772707 L15.0558233,14.3894921 L14.9351952,14.3018506 L15.2606605,13.3075713 L15.2606605,13.3075713 Z M19.58159,11.0861924 L14.8596331,14.5326888 L16.6782811,8.97681505 L11.9413033,5.55099318 L17.7872464,5.56377075 L19.58159,0 L21.3759335,5.56377075 L27.2218766,5.55099318 L22.4848989,8.97681505 L24.3035468,14.5326888 L19.58159,11.0861924 L19.58159,11.0861924 Z" id="Shape" fill="#3C5A84"></path>
                <path d="M0.297136506,3.49307008 L3.20083682,3.49307008 L6.99006276,9.06021182 L6.99006276,3.49307008 L9.92122123,3.49307008 L9.92122123,13.5564854 L6.99006276,13.5564854 L3.22143044,8.03053086 L3.22143044,13.5564854 L0.297136506,13.5564854 L0.297136506,3.49307008 Z M27.9615578,10.2271836 L30.9201744,10.041841 C30.9842438,10.5223612 31.1146687,10.8884663 31.3114532,11.1401674 C31.6318,11.5474654 32.0894314,11.7511114 32.6843611,11.7511114 C33.1282702,11.7511114 33.4703497,11.6470003 33.7106098,11.4387748 C33.9508699,11.2305494 34.0709982,10.9891489 34.0709982,10.7145659 C34.0709982,10.4537121 33.9565903,10.2203201 33.7277712,10.0143828 C33.498952,9.80844562 32.9680996,9.61395228 32.1351979,9.43089697 C30.7714359,9.12427932 29.7989692,8.71698737 29.2177686,8.20900889 C28.6319916,7.70103041 28.3391075,7.05348197 28.3391075,6.26634414 C28.3391075,5.7492129 28.4889818,5.26069137 28.7887348,4.80076491 C29.0884879,4.34083844 29.5392548,3.97930963 30.1410491,3.71616763 C30.7428435,3.45302562 31.5677241,3.32145659 32.6157157,3.32145659 C33.9016793,3.32145659 34.8821546,3.560569 35.557171,4.03880099 C36.2321875,4.51703299 36.633759,5.2778452 36.7618977,6.32126046 L33.8307393,6.49287395 C33.7529408,6.03981207 33.5893375,5.71031745 33.3399247,5.50438023 C33.0905118,5.29844301 32.7461442,5.19547594 32.3068114,5.19547594 C31.9452772,5.19547594 31.6729865,5.2721292 31.4899312,5.42543802 C31.3068759,5.57874684 31.2153496,5.76523164 31.2153496,5.98489801 C31.2153496,6.14507141 31.2908588,6.2892253 31.4418794,6.41736402 C31.5883237,6.55007912 31.9361235,6.6736396 32.4852895,6.78804916 C33.8444751,7.08093766 34.818086,7.37725399 35.4061511,7.67700706 C35.9942163,7.97676013 36.4221017,8.34858565 36.6898201,8.79249477 C36.9575385,9.23640389 37.0913956,9.73293397 37.0913956,10.2820999 C37.0913956,10.9273699 36.9129194,11.5222907 36.5559615,12.0668802 C36.1990037,12.6114698 35.7001855,13.0244821 35.0594919,13.3059297 C34.4187983,13.5873772 33.6110789,13.7280988 32.6363093,13.7280988 C30.9247422,13.7280988 29.7394769,13.3986042 29.0804778,12.7396051 C28.4214786,12.080606 28.0485091,11.2431405 27.9615578,10.2271836 L27.9615578,10.2271836 Z M48.2068832,12.0874738 C48.5958757,12.3574804 48.8498611,12.5268041 48.9688471,12.5954498 C49.147326,12.6961302 49.3875825,12.8128262 49.6896237,12.9455413 L48.8246917,14.6891344 C48.3899354,14.4786208 47.9597619,14.2280676 47.5341583,13.9374673 C47.1085547,13.646867 46.8110943,13.428348 46.6417681,13.2819038 C45.9553107,13.5793686 45.0949636,13.7280988 44.0607011,13.7280988 C42.5321893,13.7280988 41.3263306,13.3299595 40.4430887,12.5336689 C39.3996734,11.5909341 38.8779736,10.2660912 38.8779736,8.55910042 C38.8779736,6.90244988 39.334461,5.61536154 40.2474493,4.69779681 C41.1604377,3.78023208 42.4360852,3.32145659 44.0744302,3.32145659 C45.7448099,3.32145659 47.0341864,3.76993537 47.9425984,4.66690638 C48.8510103,5.56387739 49.3052095,6.84753349 49.3052095,8.51791318 C49.3052095,10.0052376 48.9391044,11.1950792 48.2068832,12.0874738 L48.2068832,12.0874738 Z M45.8248879,10.4949006 C46.0720125,10.0509915 46.195573,9.38742596 46.195573,8.5041841 C46.195573,7.48822714 46.0068001,6.76288136 45.6292485,6.328125 C45.2516969,5.89336864 44.7311412,5.67599372 44.0675657,5.67599372 C43.449754,5.67599372 42.9486476,5.89794496 42.5642315,6.34185408 C42.1798153,6.7857632 41.9876101,7.47907478 41.9876101,8.42180962 C41.9876101,9.52014147 42.175239,10.2912504 42.5505024,10.7351595 C42.9257658,11.1790686 43.4406011,11.4010199 44.0950238,11.4010199 C44.3055375,11.4010199 44.5046071,11.3804265 44.6922388,11.339239 C44.431385,11.087538 44.0195167,10.8495696 43.4566216,10.6253269 L43.944004,9.5064069 C44.2185869,9.55674711 44.4325296,9.61852735 44.5858384,9.69174948 C44.7391473,9.7649716 45.0377518,9.95717679 45.4816609,10.2683708 C45.5869177,10.3415929 45.7013255,10.4171021 45.8248879,10.4949006 L45.8248879,10.4949006 Z M51.5928989,3.49307008 L54.7025354,3.49307008 L54.7025354,11.0783865 L59.555765,11.0783865 L59.555765,13.5564854 L51.5928989,13.5564854 L51.5928989,3.49307008 Z" id="N---SQL" fill="#000000"></path>
                <path d="M0.297136506,3.74411611 L3.20083682,3.74411611 L2.9933021,3.63432676 L6.78252805,9.2014685 L7.24110879,9.87521665 L7.24110879,9.06021182 L7.24110879,3.49307008 L6.99006276,3.74411611 L9.92122123,3.74411611 L9.67017521,3.49307008 L9.67017521,13.5564854 L9.92122123,13.3054393 L6.99006276,13.3054393 L7.1974675,13.4150379 L3.42883518,7.8890834 L2.97038441,7.21685597 L2.97038441,8.03053086 L2.97038441,13.5564854 L3.22143044,13.3054393 L0.297136506,13.3054393 L0.548182531,13.5564854 L0.548182531,3.49307008 L0.297136506,3.74411611 L0.297136506,3.74411611 Z M0.297136506,3.24202406 L0.0460904812,3.24202406 L0.0460904812,3.49307008 L0.0460904812,13.5564854 L0.0460904812,13.8075314 L0.297136506,13.8075314 L3.22143044,13.8075314 L3.47247646,13.8075314 L3.47247646,13.5564854 L3.47247646,8.03053086 L3.0140257,8.17197831 L6.78265803,13.6979328 L6.85740289,13.8075314 L6.99006276,13.8075314 L9.92122123,13.8075314 L10.1722673,13.8075314 L10.1722673,13.5564854 L10.1722673,3.49307008 L10.1722673,3.24202406 L9.92122123,3.24202406 L6.99006276,3.24202406 L6.73901674,3.24202406 L6.73901674,3.49307008 L6.73901674,9.06021182 L7.19759748,8.91895515 L3.40837154,3.35181341 L3.33364438,3.24202406 L3.20083682,3.24202406 L0.297136506,3.24202406 L0.297136506,3.24202406 Z M27.9772538,10.4777384 L30.9358704,10.2923959 L30.6713306,10.0750202 C30.7408329,10.5962875 30.885871,11.0034119 31.1136773,11.2947921 C31.4841132,11.7657766 32.0153061,12.0021574 32.6843611,12.0021574 C33.1842636,12.0021574 33.5843787,11.8803833 33.8750275,11.6284876 C34.1681788,11.3744231 34.3220442,11.0652271 34.3220442,10.7145659 C34.3220442,10.3789279 34.1751606,10.0792855 33.8957121,9.8277818 C33.6240833,9.58331587 33.0631722,9.37780964 32.1890867,9.18570295 C30.8636319,8.88769503 29.9268737,8.49535864 29.3829781,8.01998533 C28.8516916,7.55925783 28.5901535,6.98101334 28.5901535,6.26634414 C28.5901535,5.79868301 28.7254688,5.35761713 28.9990553,4.93783942 C29.2706954,4.52104799 29.6827674,4.19055372 30.2416272,3.94618535 C30.8072463,3.69886143 31.5994611,3.57250262 32.6157157,3.57250262 C33.8540674,3.57250262 34.7852791,3.79960093 35.4120428,4.24364705 C36.025061,4.67795488 36.3926926,5.37446478 36.5127236,6.35186079 L36.7472246,6.07064361 L33.8160661,6.2422571 L34.0781639,6.45038689 C33.9909632,5.9425708 33.8006076,5.55919729 33.4997653,5.31079544 C33.2011346,5.06421959 32.8005047,4.94442992 32.3068114,4.94442992 C31.8912422,4.94442992 31.5629089,5.03685986 31.3287427,5.2329741 C31.0900443,5.43288395 30.9643036,5.68908073 30.9643036,5.98489801 C30.9643036,6.2237256 31.0752395,6.43551234 31.2794583,6.6087889 C31.4639027,6.77612208 31.8421401,6.91049592 32.4340876,7.03381831 C33.7720744,7.32214473 34.7278311,7.6130272 35.2921427,7.90067241 C35.8407302,8.18030262 36.2330497,8.52122194 36.4748438,8.92214543 C36.7185942,9.32631278 36.8403496,9.77795264 36.8403496,10.2820999 C36.8403496,10.878355 36.6762168,11.4254643 36.3459992,11.9292579 C36.0162093,12.4323989 35.5555463,12.8138194 34.9585235,13.076083 C34.3527345,13.3421974 33.5786864,13.4770528 32.6363093,13.4770528 C30.9849001,13.4770528 29.8603388,13.1644335 29.2579941,12.5620888 C28.6419207,11.9460154 28.2937123,11.1641485 28.2116894,10.2057759 L27.9772538,10.4777384 L27.9772538,10.4777384 Z M27.9458618,9.97662871 L27.6895245,9.99268696 L27.7114262,10.2485912 C27.8033058,11.3221325 28.2010366,12.2151966 28.9029614,12.9171215 C29.6186149,13.632775 30.8645843,13.9791449 32.6363093,13.9791449 C33.6434713,13.9791449 34.4848621,13.832557 35.1604602,13.5357763 C35.8448246,13.2351448 36.3817981,12.7905406 36.7659239,12.2045026 C37.1496219,11.6191171 37.3424417,10.9763847 37.3424417,10.2820999 C37.3424417,9.6879153 37.1964827,9.14649501 36.9047964,8.66284411 C36.6111537,8.17594935 36.1477024,7.77321764 35.5201595,7.45334171 C34.9083408,7.14148079 33.9168758,6.83973058 32.538173,6.54263638 C32.030107,6.43678327 31.7127447,6.32403615 31.6104617,6.23134219 C31.5064781,6.14293826 31.4663956,6.06641722 31.4663956,5.98489801 C31.4663956,5.84138255 31.5237075,5.72460974 31.6511197,5.61790195 C31.7830641,5.50739855 31.9993123,5.44652197 32.3068114,5.44652197 C32.6917837,5.44652197 32.9798891,5.53266643 33.180084,5.69796502 C33.3780675,5.86143761 33.5149183,6.13705333 33.5833146,6.53536101 L33.6213072,6.75661172 L33.8454124,6.74349081 L36.7765709,6.57187731 L37.0436867,6.55623821 L37.0110718,6.29066013 C36.8748255,5.18122563 36.4393139,4.3561111 35.7022992,3.83395494 C34.97903,3.32153707 33.9492912,3.07041056 32.6157157,3.07041056 C31.535987,3.07041056 30.6784407,3.2071898 30.0404711,3.4861499 C29.3957422,3.76806554 28.9062803,4.1606289 28.5784144,4.66369039 C28.2524947,5.16376561 28.0880614,5.69974278 28.0880614,6.26634414 C28.0880614,7.1259506 28.4122915,7.84280299 29.0532944,8.39867273 C29.6710646,8.9386161 30.6792399,9.36086362 32.0801294,9.67582872 C32.873027,9.85009491 33.3738208,10.0335754 33.5598302,10.2009839 C33.73802,10.3613547 33.8199521,10.5284963 33.8199521,10.7145659 C33.8199521,10.9130707 33.733561,11.0866758 33.5461921,11.2490621 C33.3563208,11.4136172 33.0722769,11.5000654 32.6843611,11.5000654 C32.1635567,11.5000654 31.7794868,11.3291543 31.5087783,10.9849678 C31.3434665,10.7735207 31.2276546,10.4484349 31.1690182,10.0086618 L31.1380836,9.77665194 L30.9044784,9.79128614 L27.9458618,9.97662871 L27.9458618,9.97662871 Z M48.063733,12.2937071 C48.4588188,12.5679431 48.7160962,12.7394613 48.8433937,12.8129022 C49.0322543,12.9194524 49.2795816,13.0395829 49.5886345,13.1753788 L49.4647283,12.833979 L48.5997963,14.5775721 L48.9340997,14.4631831 C48.5106937,14.2581655 48.0912414,14.0138568 47.67572,13.7301406 C47.2574516,13.4445487 46.9662713,13.2306432 46.8059903,13.0920218 L46.6866834,12.9888374 L46.5419503,13.0515551 C45.8899704,13.3340797 45.062926,13.4770528 44.0607011,13.4770528 C42.590606,13.4770528 41.4447721,13.0987319 40.6111897,12.3472121 C39.6238183,11.4551131 39.1290197,10.1985851 39.1290197,8.55910042 C39.1290197,6.96488371 39.5628095,5.74179199 40.4254089,4.87486881 C41.2878471,4.00810758 42.4990679,3.57250262 44.0744302,3.57250262 C45.6829603,3.57250262 46.908721,3.99885415 47.7662105,4.84554409 C48.6228344,5.69137928 49.0541635,6.91039996 49.0541635,8.51791318 C49.0541635,9.95058752 48.7053687,11.0841706 48.0128062,11.9282312 L47.8402241,12.1385656 L48.063733,12.2937071 L48.063733,12.2937071 Z M48.3500333,11.8812406 L48.4009602,12.2467165 C49.1728401,11.3059879 49.5562555,10.0598876 49.5562555,8.51791318 C49.5562555,6.78466702 49.0791863,5.4363755 48.1189862,4.48826868 C47.1596519,3.54101659 45.8066595,3.07041056 44.0744302,3.07041056 C42.3731025,3.07041056 41.0330282,3.55235657 40.0694897,4.52072481 C39.1061124,5.4889311 38.6269276,6.84001604 38.6269276,8.55910042 C38.6269276,10.3335973 39.1755286,11.7267551 40.274787,12.7199446 C41.207889,13.5611871 42.4737726,13.9791449 44.0607011,13.9791449 C45.1270013,13.9791449 46.020651,13.8246576 46.7415859,13.5122525 L46.6417681,13.2819038 L46.4775458,13.4717857 C46.6559172,13.6260529 46.9596577,13.8491853 47.3925965,14.144794 C47.8282823,14.4422785 48.269177,14.6990762 48.7152837,14.9150857 L48.939086,15.0234531 L49.0495872,14.8006967 L49.9145192,13.0571036 L50.0313929,12.821501 L49.790613,12.7157038 C49.4955833,12.5860696 49.2623977,12.472808 49.0921913,12.3767941 C48.9836261,12.3141468 48.7329326,12.1470178 48.3500333,11.8812406 L48.3500333,11.8812406 Z M46.0442348,10.6170113 C46.315714,10.1293543 46.446619,9.42634558 46.446619,8.5041841 C46.446619,7.43343487 46.243353,6.65240072 45.8187965,6.16351747 C45.3914952,5.67147349 44.8011308,5.4249477 44.0675657,5.4249477 C43.3779466,5.4249477 42.807268,5.67771401 42.3744542,6.17751087 C41.944513,6.67399056 41.7365641,7.42409197 41.7365641,8.42180962 C41.7365641,9.57390328 41.9372216,10.3985566 42.3587824,10.8972321 C42.7834663,11.3996022 43.3690781,11.6520659 44.0950238,11.6520659 C44.3232399,11.6520659 44.5403284,11.6296085 44.7460649,11.5844468 L45.2037809,11.4839726 L44.8665574,11.1585815 C44.5785954,10.8807234 44.1401158,10.6273797 43.5495308,10.392106 L43.686781,10.7255804 L44.1741634,9.60666038 L43.8987334,9.75333742 C44.1533556,9.80001815 44.3472627,9.85601272 44.4776429,9.91828387 C44.6140004,9.98340986 44.9052964,10.1709107 45.3375532,10.4739361 C45.4468146,10.549946 45.5644139,10.6275615 45.6911272,10.707344 L45.9153522,10.8485227 L46.0442348,10.6170113 L46.0442348,10.6170113 Z M45.6055409,10.3727899 L45.8248879,10.4949006 L45.9586485,10.2824572 C45.8382372,10.2066427 45.7270207,10.1332398 45.6250243,10.0622858 C45.1702071,9.74344289 44.8642941,9.54653334 44.694034,9.46521508 C44.5177966,9.38104198 44.2838183,9.31347607 43.9892746,9.25947639 L43.7933782,9.22356206 L43.7138446,9.40615343 L43.2264623,10.5250734 L43.1229797,10.7626461 L43.3637125,10.8585478 C43.8989177,11.0717596 44.2841746,11.2943525 44.5179202,11.5198965 L44.6922388,11.339239 L44.6384127,11.0940312 C44.4688858,11.1312445 44.287835,11.1499738 44.0950238,11.1499738 C43.5121242,11.1499738 43.0680653,10.9585351 42.7422224,10.5730869 C42.4132564,10.1839442 42.2386562,9.46637967 42.2386562,8.42180962 C42.2386562,7.5340576 42.4151176,6.89753584 42.7540088,6.50619729 C43.0900273,6.11817591 43.5215615,5.92703975 44.0675657,5.92703975 C44.6611516,5.92703975 45.1118986,6.1152638 45.4397004,6.49273253 C45.7702471,6.873362 45.944527,7.5430194 45.944527,8.5041841 C45.944527,9.34850635 45.8283111,9.97262866 45.6055409,10.3727899 L45.6055409,10.3727899 Z M51.5928989,3.74411611 L54.7025354,3.74411611 L54.4514894,3.49307008 L54.4514894,11.0783865 L54.4514894,11.3294325 L54.7025354,11.3294325 L59.555765,11.3294325 L59.304719,11.0783865 L59.304719,13.5564854 L59.555765,13.3054393 L51.5928989,13.3054393 L51.8439449,13.5564854 L51.8439449,3.49307008 L51.5928989,3.74411611 L51.5928989,3.74411611 Z M51.5928989,3.24202406 L51.3418529,3.24202406 L51.3418529,3.49307008 L51.3418529,13.5564854 L51.3418529,13.8075314 L51.5928989,13.8075314 L59.555765,13.8075314 L59.806811,13.8075314 L59.806811,13.5564854 L59.806811,11.0783865 L59.806811,10.8273405 L59.555765,10.8273405 L54.7025354,10.8273405 L54.9535814,11.0783865 L54.9535814,3.49307008 L54.9535814,3.24202406 L54.7025354,3.24202406 L51.5928989,3.24202406 L51.5928989,3.24202406 Z" id="Shape" fill="#FFFFFF"></path>
            </g>
        </g>
    </g>
</svg>