<?xml version="1.0" encoding="UTF-8" standalone="no"?>
<svg width="64px" height="64px" viewBox="0 0 64 64" version="1.1" xmlns="http://www.w3.org/2000/svg" xmlns:xlink="http://www.w3.org/1999/xlink">
    <!-- Generator: Sketch 3.6.1 (26313) - http://www.bohemiancoding.com/sketch -->
    <title>icons/skills/id-239</title>
    <desc>Created with Sketch.</desc>
    <defs></defs>
    <g id="Skills---Design" stroke="none" stroke-width="1" fill="none" fill-rule="evenodd">
        <g id="icons/skills/id-239">
            <path d="M55,59 L13,59 C10.8,59 9,57.2 9,55 L9,13 C9,10.8 10.8,9 13,9 L55,9 C57.2,9 59,10.8 59,13 L59,55 C59,57.2 57.2,59 55,59 L55,59 Z" id="Shape" fill="#4379A8"></path>
            <path d="M51,55 L9,55 C6.8,55 5,53.2 5,51 L5,9 C5,6.8 6.8,5 9,5 L51,5 C53.2,5 55,6.8 55,9 L55,51 C55,53.2 53.2,55 51,55 L51,55 Z" id="Shape" fill="#4A9FEA"></path>
            <g id="Group" transform="translate(15.000000, 10.000000)">
                <rect id="Rectangle-path" fill="#FFFFFF" x="0" y="0" width="30" height="40"></rect>
                <path d="M6,19 L21,19" id="Shape" stroke="#BDBDBD" stroke-width="2"></path>
                <path d="M6,23 L24,23" id="Shape" stroke="#BDBDBD" stroke-width="2"></path>
                <g transform="translate(7.000000, 27.000000)" id="Rectangle-path">
                    <rect fill="#EF5350" x="0" y="4" width="4" height="6"></rect>
                    <rect fill="#FFCA28" x="6" y="2" width="4" height="8"></rect>
                    <rect fill="#42A5F5" x="12" y="0" width="4" height="10"></rect>
                </g>
                <path d="M28,13 L21,4 C20.0022705,2.59820891 17.9987026,2.59820891 17,4 L10,13 L28,13 Z" id="Fill-1" fill="#EF5350"></path>
                <path d="M4,14 L10,7 C10.0259945,6.36635425 10.7359197,6 11,6 C12.2640803,6 12.9749902,6.36635425 13,7 L19,14 L4,14 Z" id="Fill-3" fill="#42A5F5"></path>
            </g>
        </g>
    </g>
</svg>