<?xml version="1.0" encoding="UTF-8" standalone="no"?>
<svg width="64px" height="64px" viewBox="0 0 64 64" version="1.1" xmlns="http://www.w3.org/2000/svg" xmlns:xlink="http://www.w3.org/1999/xlink">
    <defs></defs>
    <g id="Platforms" stroke="none" stroke-width="1" fill="none" fill-rule="evenodd">
        <g id="icons/skills/id-210" fill="#6762A6">
            <path d="M50.288,2 L13.712,2 C10.544,2 8,4.544 8,7.712 L8,55.856 C8,59.024 10.544,61.568 13.712,61.568 L50.336,61.568 C53.504,61.568 56.048,59.024 56.048,55.856 L56.048,7.712 C56,4.544 53.456,2 50.288,2 L50.288,2 Z M19.04,53.216 L19.04,39.68 L25.808,46.448 L19.04,53.216 L19.04,53.216 Z M44.48,53.36 L38.192,53.36 L38.24,53.264 L38.24,29.552 C38.24,29.552 39.728,23.888 19.184,31.856 C19.136,31.952 19.088,9.92 19.088,9.92 L25.76,9.872 L25.76,23.984 C25.76,23.984 44.48,16.592 44.48,29.6 L44.48,53.36 L44.48,53.36 Z M41.984,18.32 L34.88,18.32 C37.424,15.44 39.776,10.16 39.776,10.16 L47.12,10.16 C47.12,10.16 45.872,13.52 41.984,18.32 L41.984,18.32 Z" id="Imported-Layers"></path>
        </g>
    </g>
</svg>