<?xml version="1.0" encoding="UTF-8" standalone="no"?>
<svg width="64px" height="64px" viewBox="0 0 64 64" version="1.1" xmlns="http://www.w3.org/2000/svg" xmlns:xlink="http://www.w3.org/1999/xlink" xmlns:sketch="http://www.bohemiancoding.com/sketch/ns">
    <!-- Generator: Sketch 3.4.2 (15857) - http://www.bohemiancoding.com/sketch -->
    <title>icons/skills/id-26</title>
    <desc>Created with Sketch.</desc>
    <defs></defs>
    <g id="Frameworks" stroke="none" stroke-width="1" fill="none" fill-rule="evenodd" sketch:type="MSPage">
        <g id="icons/skills/id-26" sketch:type="MSArtboardGroup">
            <g id="foundation-original" sketch:type="MSLayerGroup" transform="translate(6.000000, 2.000000)">
                <path d="M6.20238095,57.6719048 C6.21333333,57.8380952 6.1352381,57.8714286 6.01095238,57.7828571 C5.74714286,57.5947619 5.45142857,57.432381 5.23809524,57.1971429 C4.16857143,56.0157143 3.39428571,54.6671429 3.02761905,53.1033333 C2.87857143,52.4661905 2.86809524,51.827619 2.9152381,51.1690476 C3.00619048,49.9066667 2.9152381,48.647619 2.5752381,47.4180952 C2.55285714,47.3361905 2.50190476,47.2619048 2.41238095,47.0780952 L1.7647619,47.8680952 L1.68666667,47.8209524 C1.70619048,46.0014286 1.64380952,44.1871429 1.31857143,42.3709524 L0.601904762,44.0652381 L0.482857143,44.0442857 C0.43,43.7733333 0.370952381,43.5033333 0.324761905,43.2314286 C0.0547619048,41.6371429 0.00952380952,40.0252381 0.0985714286,38.4209524 C0.236666667,35.94 0.646190476,33.5057143 1.80190476,31.2604762 C2.12714286,30.6290476 2.52047619,30.04 3.04428571,29.5014286 C2.77666667,29.5819048 2.5052381,29.6514286 2.24238095,29.7461905 C1.96666667,29.8452381 1.69952381,29.9685714 1.37,30.1057143 C1.71428571,29.2009524 2.17190476,28.407619 2.76666667,27.7019048 C3.35380952,27.0052381 3.98095238,26.3419048 4.61428571,25.637619 L3.14428571,25.0880952 L3.04047619,24.9904762 C3.14238095,24.9371429 3.25380952,24.8961905 3.34428571,24.827619 C4.77952381,23.7395238 6.42190476,23.12 8.14952381,22.6885714 C8.69857143,22.5519048 8.60238095,22.6538095 8.64095238,22.0795238 C8.70333333,21.15 8.8047619,20.2233333 8.89,19.2952381 L8.9747619,19.2880952 L10.2352381,21.6885714 C10.0980952,18.007619 10.3628571,14.382381 11.3795238,10.837619 L11.4657143,10.8366667 C11.472381,10.9552381 11.487619,11.0738095 11.4833333,11.1919048 C11.4533333,11.9690476 11.5290476,12.727619 11.8404762,13.4514286 C12.0566667,13.9542857 12.3719048,14.3671429 12.8866667,14.6809524 C13.102381,12.5085714 13.6828571,10.452381 14.3666667,8.36 L15.3914286,9.51571429 C15.5466667,8.06238095 15.8752381,6.70142857 16.3771429,5.34142857 L17.8361905,7.20047619 L18.7014286,3.10666667 L19.3157143,4.45428571 C19.2728571,6.5947619 20.3190476,8.23428571 21.7861905,9.72571429 L20.1628571,10.5457143 C21.8647619,10.4071429 23.0885714,9.82047619 23.9604762,8.73380952 C24.2180952,8.33047619 24.5161905,7.94714286 24.7238095,7.51952381 C25.0357143,6.87857143 25.0119048,6.86095238 24.4261905,6.46809524 C22.8595238,5.41857143 21.797619,3.99428571 21.2361905,2.19571429 C21.9061905,1.33571429 22.8357143,0.887142857 23.8047619,0.545238095 L23.9285714,2.46761905 C24.1880952,2.33 24.3742857,2.2352381 24.5571429,2.13428571 C26.1657143,1.24857143 27.8785714,0.652380952 29.677619,0.29952381 C30.0238095,0.231904762 30.3733333,0.184285714 30.722381,0.133333333 C30.7619048,0.127619048 30.8080952,0.162380952 30.8509524,0.178095238 L29.1690476,1.51904762 C28.5542857,2.00904762 28.0657143,2.60952381 27.6414286,3.26571429 L27.5819048,3.3252381 L27.5809524,3.38428571 C27.5204762,3.44714286 27.4414286,3.5 27.4019048,3.57380952 C27.0814286,4.17238095 26.7509524,4.76619048 26.46,5.37952381 C26.2904762,5.73666667 26.1885714,6.12571429 26.0504762,6.51714286 L28.7542857,6.7747619 L28.8019048,6.87809524 C26.8595238,8.62714286 24.9138095,10.3728571 23.1080952,12.3380952 L25.0419048,12.6028571 C24.4938095,12.8271429 24,12.997619 23.5352381,13.2257143 C22.1814286,13.89 20.9152381,14.6719048 20,15.9214286 C19.2914286,16.8890476 18.5547619,17.8361905 17.8304762,18.7919048 C17.2647619,18.2252381 16.6995238,17.6580952 16.1304762,17.0866667 L15.6961905,19.0690476 L16.9033333,20.1552381 C16.8395238,20.277619 16.7719048,20.3980952 16.712381,20.522381 C16.3352381,21.3142857 15.9261905,22.0928571 15.5933333,22.9028571 C15.2471429,23.7466667 15.1690476,24.6561905 15.1042857,25.5614286 C15.03,26.6009524 14.9142857,27.6385714 14.8814286,28.6790476 C14.8419048,29.9395238 14.8347619,31.2038095 15.047619,32.4566667 C15.2347619,33.5595238 15.3780952,34.6709524 15.597619,35.7671429 C15.7333333,36.4438095 15.9747619,37.0990476 16.1695238,37.7638095 L16.2509524,37.747619 L17.0561905,36.1319048 L17.1366667,36.152381 C17.4271429,37.5457143 17.8409524,38.9009524 18.4338095,40.1938095 C19.0238095,41.4804762 19.7033333,42.7147619 20.7733333,43.7133333 L20.7733333,42.0085714 L20.892381,42.01 C21.1109524,42.1238095 21.3304762,42.2366667 21.5447619,42.3585714 C23.0480952,43.2157143 24.6038095,43.9657143 26.2104762,44.6080952 C28.1547619,45.3852381 30.0904762,46.1819048 31.9371429,47.1742857 C32.5090476,47.4814286 33.0842857,47.8090476 33.5838095,48.217619 C34.717619,49.1461905 35.8057143,50.1314286 36.912381,51.0938095 L36.8204762,51.3104762 C36.4580952,52.0352381 36.0895238,52.7566667 35.732381,53.4842857 C35.4171429,54.1266667 35.1142857,54.7747619 34.8057143,55.4204762 L34.7257143,55.4080952 L34.7257143,53.1704762 C34.5985714,53.457619 34.5480952,53.7480952 34.4709524,54.0314286 C34.1580952,55.1819048 33.842381,56.3319048 33.5166667,57.4780952 C33.4180952,57.8238095 33.1704762,58.0228571 32.8304762,58.1580952 C32.432381,58.3161905 32.0609524,58.2657143 31.6790476,58.1452381 L31.682381,58.1471429 L31.5719048,58.0961905 C30.9919048,57.6642857 30.412381,57.2314286 29.8309524,56.8009524 C29.682381,56.6914286 29.5261905,56.5919048 29.3795238,56.4919048 L29.59,58.6333333 L29.4780952,58.6909524 C27.1057143,56.7571429 24.2047619,55.7985714 21.5752381,54.3395238 C20.7204762,53.7952381 19.8633333,53.2552381 19.012381,52.7042857 C18.7852381,52.5571429 18.5785714,52.3795238 18.3119048,52.177619 L18.442381,53.2314286 L18.3709524,53.2814286 L15.9409524,51.6133333 C15.9833333,51.282381 16.0466667,50.952381 16.0642857,50.6204762 C16.0957143,50.0142857 16.1709524,49.3985714 16.1019048,48.8014286 C15.9347619,47.3590476 15.1852381,46.252381 13.9885714,45.432381 C13.502381,45.0990476 13.0328571,44.7366667 12.5857143,44.3519048 C12.3395238,44.1404762 12.1490476,43.8595238 12.0942857,43.5557143 L13.4904762,43.6809524 C13.0752381,42.9066667 12.6619048,42.2214286 12.3338095,41.497619 C12.0052381,40.7714286 11.6919048,40.0238095 11.732381,39.1057143 C11.9766667,39.437619 12.1352381,39.7461905 12.4985714,39.8933333 C12.3742857,38.6695238 12.5528571,37.5109524 12.752381,36.3614286 C12.9509524,35.2133333 13.2271429,34.0785714 13.4695238,32.937619 C12.6233333,34.4195238 11.76,35.8895238 11.5004762,37.6785714 L10.8019048,36.9433333 C10.7714286,37.3871429 10.7128571,37.7880952 10.7219048,38.1880952 C10.7419048,39.0842857 10.7757143,39.9814286 10.8390476,40.8757143 C10.9109524,41.8957143 11.1895238,42.867619 11.592381,43.8080952 C12.0514286,44.8819048 12.8380952,45.7171429 13.5666667,46.597619 C14.03,47.1566667 14.4266667,47.7628571 14.5319048,48.4990476 C14.6457143,49.2957143 14.7204762,50.097619 14.812381,50.897619 L14.9971429,53.6042857 C14.4671429,53.7133333 12.9871429,53.3557143 12.6766667,53.0185714 L12.9257143,52.8857143 C12.6595238,52.6557143 12.3652381,52.4552381 12.1414286,52.1942857 C11.8014286,51.7985714 11.7347619,51.287619 11.6552381,50.787619 C11.6347619,50.6590476 11.5304762,50.5442857 11.4652381,50.4233333 C11.3414286,50.5357143 11.1785714,50.627619 11.1061905,50.7666667 C11.0452381,50.8833333 11.06,51.0619048 11.0933333,51.2004762 C11.1547619,51.4580952 11.2333333,51.7161905 11.3404762,51.957619 C11.6638095,52.6890476 12.0142857,53.4080952 12.3342857,54.1404762 C12.727619,55.0390476 13.0509524,55.9585714 13.0290476,56.9604762 C13.022381,57.2542857 12.962381,57.3095238 12.6919048,57.2014286 C12.3266667,57.0552381 11.97,56.8847619 11.6195238,56.7057143 C11.3442857,56.5647619 11.0842857,56.3947619 10.7838095,56.2180952 L10.7838095,56.5338095 L10.7595238,56.5542857 C10.6738095,56.5109524 10.5761905,56.4819048 10.5033333,56.422381 C10.1938095,56.1695238 9.89142857,55.9071429 9.58666667,55.6485714 L9.58857143,55.6509524 L9.52666667,55.5271429 L8.98047619,54.1680952 L8.93095238,54.3680952 L8.84285714,54.5538095 C8.43238095,53.8014286 8.21619048,53.0480952 8.1052381,52.2557143 C7.90571429,52.9333333 8.11904762,53.58 8.20857143,54.2738095 L8.38857143,54.0785714 C8.54428571,54.392381 8.67857143,54.6966667 8.84238095,54.9847619 C9.00761905,55.2752381 9.19,55.5571429 9.38619048,55.827619 C9.4852381,55.9652381 9.63047619,56.0695238 9.75428571,56.1885714 C10.042381,56.9142857 10.3395238,57.637619 10.4847619,58.4871429 L8.92333333,58.0242857 C8.29380952,57.742381 7.65,57.4857143 7.14380952,56.9904762 C7.11904762,56.9666667 7.07095238,56.9671429 7.03380952,56.9561905 L7.01095238,56.8785714 L6.98857143,56.8938095 L7.03285714,56.9571429 L7.55190476,58.0390476 L7.5147619,58.1152381 L6.70380952,57.832381 L6.20238095,57.6719048 L6.17714286,57.6580952 L6.20238095,57.6719048 L6.20238095,57.6719048 Z M6.83761905,56.6933333 L6.22714286,55.2204762 L6.02666667,55.3571429 L5.61666667,53.437619 C5.22380952,54.1895238 5.9952381,56.3342857 6.83761905,56.6933333 L6.83761905,56.6933333 Z M13.552381,32.7371429 L13.5438095,32.7119048 L13.522381,32.717619 L13.5309524,32.7428571 L13.552381,32.7371429 L13.552381,32.7371429 Z" id="Shape" fill="#D3EDF6" sketch:type="MSShapeGroup"></path>
                <path d="M36.9138095,51.0952381 C35.8071429,50.1328571 34.7190476,49.1480952 33.5852381,48.2190476 C33.0857143,47.8104762 32.5104762,47.4828571 31.9385714,47.1757143 C30.092381,46.1838095 28.1561905,45.3871429 26.2119048,44.6095238 C24.6052381,43.9671429 23.0495238,43.2171429 21.5461905,42.36 C21.3319048,42.2380952 21.112381,42.1252381 20.8938095,42.0114286 L20.7747619,42.01 L20.7747619,43.7147619 C19.7047619,42.7166667 19.0257143,41.4819048 18.4352381,40.1952381 C17.842381,38.9028571 17.4285714,37.5471429 17.1380952,36.1538095 L17.057619,36.1333333 L16.252381,37.7490476 L16.1709524,37.7652381 C15.9766667,37.1004762 15.7347619,36.4452381 15.5990476,35.7685714 C15.3795238,34.672381 15.2361905,33.5609524 15.0490476,32.4580952 C14.8366667,31.2052381 14.8438095,29.9409524 14.8828571,28.6804762 C14.9152381,27.64 15.0314286,26.6019048 15.1057143,25.5628571 C15.1704762,24.6580952 15.2485714,23.7485714 15.5947619,22.9042857 C15.9271429,22.0942857 16.3366667,21.3157143 16.7138095,20.5238095 C16.7733333,20.3990476 16.8409524,20.2790476 16.9047619,20.1566667 L17.0238095,20.2442857 C17.7785714,20.8657143 18.5409524,21.4780952 19.2809524,22.1171429 C19.4219048,22.2385714 19.527619,22.4542857 19.5571429,22.6419048 C19.6142857,23.0009524 19.6095238,23.3709524 19.6219048,23.7366667 C19.642381,24.35 19.8014286,24.61 20.38,24.7952381 C22.3561905,25.4266667 24.3680952,25.7838095 26.4547619,25.5404762 C27.0357143,25.472381 27.522381,25.2528571 27.8604762,24.7647619 C28.1585714,24.3342857 28.4504762,23.8995238 28.7295238,23.4566667 C29.0490476,22.95 29.1357143,22.9157143 29.7214286,23.0042857 C29.9852381,23.0442857 30.0709524,23.1666667 30.0647619,23.4128571 C30.0552381,23.7880952 30.0628571,24.1638095 30.0585714,24.5390476 C30.0495238,25.3742857 30.5080952,25.852381 31.2738095,26.0290476 C31.9261905,26.1790476 32.592381,26.2895238 33.2585714,26.352381 C34.102381,26.4314286 34.9571429,26.507619 35.7809524,26.1947619 C35.5795238,26.7161905 35.38,27.2380952 35.1761905,27.7590476 C35.0866667,27.9880952 35.0047619,28.222381 34.89,28.4390476 C34.722381,28.7552381 34.667619,29.0385714 35.007619,29.2761905 L35.0690476,29.3419048 L35.0685714,29.3404762 L35.2304762,29.6504762 C35.612381,30.4280952 36.0371429,31.1885714 36.3647619,31.9885714 C36.8809524,33.2504762 37.0638095,34.5880952 37.0995238,35.9466667 C37.1580952,37.5419048 36.8533333,39.0719048 36.2514286,40.5433333 C36.0761905,40.9704762 35.9209524,41.4409524 35.6266667,41.7790476 C34.3019048,43.3047619 32.6171429,43.997619 30.5866667,43.7885714 L30.0014286,43.7204762 C30.0390476,43.7990476 30.087619,43.8285714 30.1361905,43.8571429 C31.502381,44.6519048 32.8680952,45.4471429 34.2357143,46.2395238 C34.3095238,46.282381 34.3957143,46.3033333 34.4757143,46.3347619 C34.7309524,46.5590476 34.9880952,46.7809524 35.2414286,47.007619 L36.4504762,48.0947619 L36.5433333,48.1595238 C36.9528571,47.8066667 37.3461905,47.4504762 37.7571429,47.1171429 C38.9728571,46.13 40.31,45.3466667 41.7380952,44.7009524 C42.7804762,44.23 43.7857143,43.6752381 44.807619,43.1580952 C44.8671429,43.1280952 44.9285714,43.1 45.0752381,43.1085714 L44.71,44.5033333 L44.6304762,44.7842857 L44.6057143,44.797619 L44.6166667,44.8085714 L44.63,44.7838095 C45.1038095,44.5590476 45.5914286,44.3595238 46.0466667,44.102381 C46.4247619,43.8885714 46.7642857,43.607619 47.1214286,43.3571429 C47.0538095,43.5095238 46.9985714,43.6690476 46.9157143,43.8128571 C46.2985714,44.8871429 45.4738095,45.7914286 44.5752381,46.632381 C44.3195238,46.8714286 44.0438095,47.0890476 43.7428571,47.3461905 L43.82,45.987619 C42.5028571,47.0833333 41.3995238,48.2604762 40.3314286,49.4738095 L40.2514286,49.4480952 L40.1409524,47.8552381 C38.9795238,48.9009524 37.8319048,49.8819048 36.9138095,51.0952381 L36.9138095,51.0952381 Z M21.2704762,26.8666667 C21.287619,27.0304762 21.2904762,27.147619 21.3133333,27.2609524 C21.4752381,28.0790476 21.9409524,28.7061905 22.5828571,29.2052381 C23.9066667,30.2357143 25.4561905,30.7261905 27.0795238,30.997619 C28.542381,31.242381 30.0209524,31.14 31.4942857,31.1014286 C31.5604762,31.1 31.6257143,31.0785714 31.752381,31.0547619 L31.4142857,30.3466667 C31.2461905,30.0014286 31.0690476,29.6604762 30.9090476,29.3114286 C30.7928571,29.0580952 30.8714286,28.8828571 31.112381,28.7161905 C31.6190476,28.3657143 32.0995238,27.9752381 32.6104762,27.5861905 C32.2233333,27.2680952 31.8042857,27.1257143 31.3742857,27.092381 C30.1138095,26.9952381 28.8504762,26.8971429 27.5866667,26.8761905 C25.5,26.8414286 23.412381,26.8666667 21.2704762,26.8666667 L21.2704762,26.8666667 Z M27.91,35.467619 L28.0266667,35.4442857 C28.1961905,35.102381 28.3880952,34.7695238 28.5295238,34.4161905 C28.7028571,33.9819048 28.8661905,33.5680952 29.3542857,33.3790476 C29.6190476,33.2766667 29.8595238,33.1114286 30.1104762,32.9747619 L30.0861905,32.8814286 C27.8952381,33.0171429 25.7490476,32.7780952 23.5904762,32.0804762 C23.6480952,33.0061905 23.8828571,33.79 24.2695238,34.5785714 L25.102381,33.6509524 C25.3642857,34.3585714 25.54,35.047619 26.0719048,35.6442857 L27.0904762,34.14 L27.91,35.467619 L27.91,35.467619 Z M29.8657143,43.692381 L29.86,43.6747619 L29.8347619,43.6695238 L29.8419048,43.6995238 L29.8657143,43.692381 L29.8657143,43.692381 Z M17.832381,18.7928571 C18.5566667,17.8366667 19.2928571,16.8895238 20.0019048,15.922381 C20.9171429,14.6728571 22.1833333,13.8909524 23.5371429,13.2266667 C24.0019048,12.9985714 24.4952381,12.8280952 25.0438095,12.6038095 L23.11,12.3390476 C24.9157143,10.3738095 26.8614286,8.62809524 28.8038095,6.87904762 L28.7561905,6.77571429 L26.052381,6.51809524 C26.1909524,6.12714286 26.292381,5.73761905 26.4619048,5.38047619 C26.7528571,4.76761905 27.0833333,4.17333333 27.4038095,3.5747619 C27.4433333,3.50095238 27.522381,3.44761905 27.5828571,3.3852381 C27.6828571,3.4247619 27.78,3.47904762 27.8838095,3.50142857 C29.3509524,3.81904762 30.8190476,4.13047619 32.2857143,4.44857143 C32.6857143,4.5352381 32.6919048,4.53761905 32.6919048,4.10904762 L32.6919048,1.90190476 C33.1747619,1.76952381 33.6528571,1.61333333 34.1419048,1.50952381 C35.2742857,1.26952381 36.4095238,1.04047619 37.5490476,0.836190476 C38.1171429,0.734761905 38.6966667,0.699047619 39.3185714,0.627619048 L38.1138095,2.70761905 L38.1814286,2.75571429 C38.6938095,2.6047619 39.2,2.4252381 39.72,2.31095238 C40.2433333,2.1952381 40.7804762,2.1447619 41.3619048,2.05809524 L41.3619048,2.90380952 C42.79,2.72619048 44.1657143,2.75619048 45.5785714,3.02428571 C45.4866667,3.21095238 45.4109524,3.35714286 45.3419048,3.50666667 C45.1009524,4.02571429 44.8638095,4.54714286 44.6214286,5.0647619 C44.5180952,5.28571429 44.57,5.40714286 44.8147619,5.47761905 C45.3909524,5.64380952 45.962381,5.82904762 46.5347619,6.00952381 C46.6461905,6.0447619 46.7538095,6.09190476 46.9080952,6.15047619 C46.6604762,6.45238095 46.4228571,6.72190476 46.207619,7.00809524 C45.597619,7.81666667 44.9961905,8.63190476 44.3942857,9.44666667 C44.3609524,9.49190476 44.3533333,9.55571429 44.3333333,9.61142857 L43.1195238,11.5028571 C42.7490476,12.132381 42.3771429,12.7614286 42.0114286,13.3938095 C41.9847619,13.44 42.0033333,13.5119048 42.0014286,13.572381 C41.82,13.8366667 41.6114286,14.0866667 41.4614286,14.367619 C40.7561905,15.692381 40.0452381,17.0157143 39.3780952,18.3595238 C38.7242857,19.6771429 38.1195238,21.0185714 37.4966667,22.3509524 C37.4595238,22.43 37.45,22.5209524 37.427619,22.6066667 C36.4247619,22.4014286 35.4219048,22.1961905 34.4185714,21.9914286 C34.0895238,21.5419048 33.6004762,21.5014286 33.2271429,21.8928571 C32.3885714,21.9195238 31.55,21.9609524 30.7109524,21.9671429 C30.2804762,21.9704762 29.8380952,21.9633333 29.4204762,21.8709524 C28.13,21.5861905 26.8490476,21.2580952 25.5638095,20.9471429 C25.3519048,20.4328571 24.6152381,20.3538095 24.2538095,20.6790476 L24.1652381,20.6761905 C22.5728571,20.4052381 20.9742857,20.2180952 19.3538095,20.2833333 C19.2785714,20.2861905 19.1804762,20.2371429 19.1261905,20.1804762 C18.6909524,19.7219048 18.2628571,19.2561905 17.832381,18.7928571 L17.832381,18.7928571 Z M23.3080952,19.7195238 L23.4666667,19.6509524 C24.1514286,19.292381 24.8619048,19.0766667 25.6461905,19.2357143 C25.7980952,19.2666667 25.9552381,19.2747619 26.1380952,19.2966667 C25.677619,18.5942857 24.517619,18.5319048 23.8742857,18.9495238 C23.5938095,19.1314286 23.3238095,19.3357143 23.3080952,19.7195238 L23.2942857,19.7442857 L23.3080952,19.7195238 L23.3080952,19.7195238 Z M26.2580952,18.1438095 C25.9819048,17.4819048 25.1109524,17.1542857 24.3309524,17.3690476 C23.6766667,17.5485714 23.06,18.2495238 23.1285714,18.7952381 C24.0019048,17.8085714 25.057619,17.72 26.2580952,18.1438095 L26.2580952,18.1438095 Z M34.862381,19.4066667 C35.7133333,19.4861905 36.4514286,19.7666667 36.9785714,20.5142857 C37.0166667,19.8961905 36.7761905,19.5333333 36.2757143,19.2595238 C35.8071429,19.0028571 35.237619,19.0742857 34.862381,19.4066667 L34.862381,19.4066667 Z M36.3628571,21.7819048 C36.2909524,21.0933333 36.0757143,20.5371429 35.3904762,20.3409524 C35.0380952,20.24 34.6814286,20.297619 34.382381,20.582381 C35.2795238,20.8290476 35.5966667,20.8571429 36.3628571,21.7819048 L36.3628571,21.7819048 Z" id="Shape" fill="#E9F5FA" sketch:type="MSShapeGroup"></path>
                <path d="M37.0995238,35.9457143 C37.0633333,34.5871429 36.8809524,33.2495238 36.3647619,31.987619 C36.0371429,31.187619 35.612381,30.4271429 35.2304762,29.6495238 L35.0685714,29.3395238 C35.3595238,29.4271429 35.6485714,29.5214286 35.9419048,29.6 C36.3690476,29.7147619 36.7952381,29.8471429 37.2309524,29.9138095 C37.4633333,29.9495238 37.7152381,29.8657143 37.9571429,29.8290476 C38.0504762,29.8147619 38.1409524,29.7819048 38.2857143,29.7438095 L38.1680952,30.3261905 C39.1404762,29.8742857 39.8442857,29.1795238 40.4133333,28.3661905 C40.98,27.5557143 41.4647619,26.6880952 41.9752381,25.8604762 L42.2033333,26.2447619 C42.6142857,25.6019048 42.3309524,23.7033333 41.6528571,22.5733333 C41.8252381,22.5733333 41.967619,22.5633333 42.1080952,22.5747619 C43,22.6471429 43.9095238,22.6385714 44.7161905,23.1166667 C45.3557143,23.4952381 45.812381,24.032381 46.1185714,24.7414286 L45.4357143,24.7033333 C46.1161905,25.8047619 46.3780952,26.9452381 46.2714286,28.2504762 L45.7452381,27.832381 C45.72,27.9571429 45.7019048,28.0857143 45.6671429,28.2095238 C45.5619048,28.5795238 45.4461905,28.9461905 45.3442857,29.3171429 C45.3171429,29.4161905 45.3252381,29.5242857 45.3171429,29.6280952 C45.427619,29.6309524 45.5495238,29.6661905 45.6471429,29.6314286 C46.2047619,29.4333333 46.7561905,29.2180952 47.31,29.01 C47.5409524,28.9233333 47.7761905,28.8471429 48.0042857,28.7533333 C48.2452381,28.6542857 48.3347619,28.74 48.3180952,28.9828571 C47.6909524,29.2014286 47.0628571,29.4190476 46.4366667,29.6404762 C46.3566667,29.6690476 46.2833333,29.7180952 46.2071429,29.757619 C47.0004762,29.6695238 47.3152381,29.7114286 47.7209524,29.9947619 C48.0161905,30.2009524 48.0590476,30.457619 47.7966667,30.7085714 C47.5928571,30.9033333 47.3485714,31.057619 47.112381,31.2147619 C46.9709524,31.3095238 46.8104762,31.3757143 46.6142857,31.4780952 L46.8866667,31.5814286 C46.4542857,31.8652381 46.0380952,32.11 45.6547619,32.3980952 C45.1780952,32.7566667 44.6995238,33.122381 44.2766667,33.54 C43.9395238,33.8728571 44.042381,34.1052381 44.5142857,34.1433333 C45.0928571,34.19 45.6752381,34.1919048 46.2557143,34.2119048 L46.6285714,34.212381 L46.3533333,34.5680952 L46.3395238,34.5909524 L46.3514286,34.5666667 C46.5690476,34.5666667 46.7895238,34.587619 47.0028571,34.5580952 C47.1371429,34.5390476 47.3257143,34.4757143 47.3761905,34.3752381 C47.4852381,34.1571429 47.6614286,34.13 47.8538095,34.0938095 C48.23,34.0228571 48.6080952,33.96 48.9814286,33.8757143 C49.28,33.8080952 49.5733333,33.7138095 49.8685714,33.6314286 L49.912381,33.6933333 L49.2514286,34.3090476 L49.152381,33.9461905 C48.1038095,34.4280952 47.0680952,34.8647619 46.0719048,35.3785714 C45.5914286,35.6266667 45.1861905,36.02 44.7466667,36.3480952 L44.722381,36.3757143 L44.75,36.3519048 L45.0314286,36.3719048 L43.93,37.3009524 C44.1057143,37.4538095 44.2466667,37.6547619 44.4357143,37.7233333 C44.7914286,37.8528571 45.1714286,37.9533333 45.547619,37.9804762 C46.1147619,38.0209524 46.6871429,37.9880952 47.2571429,37.9861905 L47.2719048,37.8614286 L46.8257143,37.6780952 L49.0990476,37.4042857 C47.5480952,38.3585714 45.7580952,38.2580952 44.0433333,38.5457143 C44.0461905,39.0095238 44.4347619,39.2280952 44.6833333,39.5466667 L44.4980952,39.7 L45.0361905,40.1514286 C45.1385714,40.312381 45.0442857,40.3238095 44.9114286,40.3304762 C43.9219048,40.38 42.9642857,40.212381 42.0461905,39.8590476 C41.4866667,39.6438095 40.9519048,39.3642857 40.4047619,39.1166667 C40.3533333,39.0933333 40.2919048,39.0919048 40.2347619,39.08 L40.2261905,39.0580952 L40.2090476,39.0533333 L40.2333333,39.0814286 L40.4714286,39.6157143 C40.1561905,39.5561905 39.8428571,39.4652381 39.5252381,39.4438095 C38.7885714,39.3942857 38.0914286,39.5980952 37.4057143,39.8433333 L37.1542857,39.9190476 C37.1742857,39.6652381 37.21,39.4109524 37.2104762,39.1566667 C37.2128571,38.1247619 37.2057143,37.0933333 37.1961905,36.0614286 C37.1966667,36.0233333 37.1333333,35.9842857 37.0995238,35.9457143 L37.0995238,35.9457143 Z" id="Shape" fill="#B3E0EE" sketch:type="MSShapeGroup"></path>
                <path d="M36.9138095,51.0952381 C37.8319048,49.882381 38.9795238,48.9009524 40.1404762,47.8552381 L40.2509524,49.4480952 L40.3309524,49.4738095 C41.3990476,48.2609524 42.502381,47.0833333 43.8195238,45.987619 L43.742381,47.3461905 C44.0433333,47.0890476 44.3190476,46.8714286 44.5747619,46.632381 C45.4733333,45.7914286 46.2980952,44.8871429 46.9152381,43.8128571 C46.997619,43.6690476 47.0533333,43.5095238 47.1209524,43.3571429 L47.1795238,43.3542857 L47.1885714,43.3619048 C46.99,44.01 46.812381,44.6652381 46.5880952,45.3042857 C46.0966667,46.702381 45.1666667,47.8438095 44.367619,49.0647619 C43.5638095,50.2938095 42.827619,51.5671429 42.0666667,52.8242857 C42.007619,52.9219048 41.99,53.0442857 41.9533333,53.1552381 L41.93,53.1895238 L41.9614286,53.1633333 C42.3104762,52.9828571 42.6585714,52.8004762 43.0085714,52.6219048 C43.3309524,52.4571429 43.6557143,52.2961905 44.0314286,52.1838095 L43.7928571,52.6338095 C42.9595238,54.2390476 42.1352381,55.8490476 41.2890476,57.447619 C40.9519048,58.0847619 40.5766667,58.702381 40.1957143,59.3142857 C40.13,59.4204762 39.947619,59.5114286 39.8185714,59.5119048 C38.1266667,59.5219048 36.4347619,59.4852381 34.7438095,59.5214286 C33.52,59.5471429 32.5909524,58.9728571 31.7195238,58.2238095 L31.6790476,58.1480952 C32.0614286,58.2685714 32.4328571,58.3190476 32.8304762,58.1609524 C33.1704762,58.0257143 33.4180952,57.8266667 33.5166667,57.4809524 C33.842381,56.3342857 34.1585714,55.1847619 34.4709524,54.0342857 C34.5480952,53.7509524 34.5985714,53.46 34.7257143,53.1733333 L34.7257143,55.4109524 L34.8057143,55.4233333 C35.1142857,54.777619 35.4171429,54.1290476 35.732381,53.4871429 C36.0895238,52.7595238 36.4580952,52.0380952 36.8204762,51.3133333 L36.9138095,51.0952381 L36.9138095,51.0952381 Z" id="Shape" fill="#65C1DD" sketch:type="MSShapeGroup"></path>
                <path d="M15.942381,51.6152381 L18.372381,53.2833333 L18.4438095,53.2333333 L18.3133333,52.1795238 C18.58,52.3814286 18.7866667,52.5590476 19.0138095,52.7061905 C19.8647619,53.2566667 20.7219048,53.7971429 21.5766667,54.3414286 L19.7604762,54.8361905 C21.8790476,55.7433333 23.7904762,57.0219048 24.7090476,59.442381 C24.0847619,59.4838095 23.5157143,59.5328571 22.9457143,59.5580952 C21.7204762,59.6114286 20.4952381,59.6619048 19.2695238,59.6961905 C17.4995238,59.7457143 15.7290476,59.7790476 13.9590476,59.8209524 C13.4447619,59.8328571 12.9304762,59.8433333 12.4171429,59.8638095 C11.5990476,59.8961905 10.957619,59.5814286 10.4885714,58.9109524 C10.4333333,58.8314286 10.367619,58.7595238 10.29,58.6628571 L9.72333333,59.0561905 C9.38761905,58.7704762 9.1,58.4452381 8.9252381,58.0271429 L10.4866667,58.49 C10.3414286,57.6404762 10.0442857,56.9171429 9.75619048,56.1914286 L9.58857143,55.6514286 C9.89333333,55.91 10.1957143,56.1719048 10.5052381,56.4252381 C10.5780952,56.4847619 10.6752381,56.5142857 10.7614286,56.5571429 L10.802381,56.622381 L10.7857143,56.5366667 L10.7857143,56.2209524 C11.0861905,56.397619 11.3461905,56.567619 11.6214286,56.7085714 C11.9719048,56.887619 12.3285714,57.0580952 12.6938095,57.2042857 C12.9642857,57.312381 13.0242857,57.2566667 13.0309524,56.9633333 C13.0528571,55.9614286 12.7290476,55.0414286 12.3361905,54.1433333 C12.0157143,53.4104762 11.6652381,52.6919048 11.342381,51.9604762 C11.2352381,51.7185714 11.1566667,51.4609524 11.0952381,51.2033333 C11.062381,51.0642857 11.0471429,50.8861905 11.1080952,50.7695238 C11.1804762,50.6304762 11.3433333,50.5390476 11.4671429,50.4261905 C11.5328571,50.5471429 11.6366667,50.662381 11.6571429,50.7904762 C11.7366667,51.2904762 11.8033333,51.8014286 12.1433333,52.1971429 C12.3671429,52.457619 12.6614286,52.6580952 12.927619,52.8885714 L12.6785714,53.0214286 C12.9890476,53.3585714 14.4690476,53.7161905 14.9990476,53.6071429 L14.8142857,50.9004762 L14.992381,50.992381 C15.3090476,51.1980952 15.6252381,51.4071429 15.942381,51.6152381 L15.942381,51.6152381 Z" id="Shape" fill="#65C2DD" sketch:type="MSShapeGroup"></path>
                <path d="M45.037619,40.1514286 L44.4995238,39.7 L44.6847619,39.5466667 C44.4366667,39.2280952 44.0480952,39.0095238 44.0447619,38.5457143 C45.76,38.2580952 47.5495238,38.3585714 49.1004762,37.4042857 L46.8271429,37.6780952 L47.2733333,37.8614286 L47.2585714,37.9861905 C46.6885714,37.9880952 46.1161905,38.0209524 45.5490476,37.9804762 C45.1728571,37.9533333 44.7928571,37.8528571 44.4371429,37.7233333 C44.2480952,37.6542857 44.107619,37.4538095 43.9314286,37.3009524 L45.0328571,36.3719048 L44.7514286,36.3519048 L44.7480952,36.3480952 C45.1871429,36.0204762 45.592381,35.6266667 46.0733333,35.3790476 C47.0690476,34.8652381 48.1052381,34.4285714 49.1538095,33.9466667 L49.2528571,34.3095238 L49.9138095,33.6938095 L49.87,33.6319048 C49.5742857,33.7142857 49.2814286,33.8085714 48.9828571,33.8761905 C48.6095238,33.9604762 48.2314286,34.0233333 47.8552381,34.0942857 C47.6628571,34.1304762 47.4866667,34.1580952 47.377619,34.3757143 C47.3271429,34.4761905 47.1390476,34.5395238 47.0042857,34.5585714 C46.7909524,34.5885714 46.5704762,34.5671429 46.3528571,34.5671429 L46.3547619,34.5685714 L46.63,34.2128571 L46.2571429,34.212381 C45.6766667,34.192381 45.0942857,34.1904762 44.5157143,34.1438095 C44.0442857,34.1057143 43.9414286,33.8738095 44.2780952,33.5404762 C44.7009524,33.122381 45.1790476,32.7566667 45.6561905,32.3985714 C46.0395238,32.1104762 46.4557143,31.8657143 46.8880952,31.5819048 L46.6157143,31.4785714 C46.8119048,31.3761905 46.972381,31.31 47.1138095,31.2152381 C47.35,31.057619 47.5942857,30.9033333 47.7980952,30.7090476 C48.0604762,30.4580952 48.017619,30.2019048 47.722381,29.9952381 C47.3166667,29.7119048 47.0019048,29.6704762 46.2085714,29.7580952 C46.2852381,29.7185714 46.3580952,29.6695238 46.4380952,29.6409524 C47.0642857,29.4195238 47.692381,29.2019048 48.3195238,28.9833333 C48.8319048,29.0038095 49.3495238,28.9842857 49.8542857,29.0552381 C50.5485714,29.1528571 50.9180952,29.6933333 51.2995238,30.1961905 L51.2580952,30.2719048 L50.56,30.0471429 C50.9742857,30.7547619 51.3461905,31.4195238 51.3719048,32.2380952 C51.3185714,32.2085714 51.2704762,32.1971429 51.247619,32.1661905 C51.2185714,32.1271429 51.2095238,32.0733333 51.1742857,31.9785714 C50.9819048,32.44 50.8904762,32.8366667 50.672381,33.1433333 C50.3047619,33.6614286 50.32,34.1119048 50.5942857,34.6719048 C50.7904762,35.072381 50.7985714,35.5652381 50.8904762,36.0171429 L50.7752381,36.0628571 L50.4809524,35.7009524 C50.4442857,36.322381 50.4366667,36.8809524 50.1309524,37.3895238 L49.9971429,37.082381 C49.7790476,37.2833333 49.5619048,37.4657143 49.3704762,37.6719048 C49.3180952,37.7280952 49.317619,37.8609524 49.3352381,37.9504762 C49.4352381,38.4690476 49.6071429,38.982381 49.4119048,39.5309524 L49.1852381,39.4252381 C48.867619,40.1219048 48.2942857,40.4757143 47.5833333,40.5542857 C46.8109524,40.6395238 46.0509524,40.5033333 45.32,40.227619 C45.2280952,40.1938095 45.1314286,40.1766667 45.037619,40.1514286 L45.037619,40.1514286 Z" id="Shape" fill="#EBF7FE" sketch:type="MSShapeGroup"></path>
                <path d="M34.4190476,21.9909524 L37.4280952,22.6061905 L37.6804762,22.6890476 C37.8866667,22.7561905 37.9628571,22.9009524 37.9009524,23.1028571 C37.8233333,23.3566667 37.7504762,23.6161905 37.6333333,23.852381 C37.57,23.9809524 37.4361905,24.1066667 37.3047619,24.1619048 C37.0766667,24.2580952 36.9419048,24.4080952 36.8419048,24.6261905 C36.7028571,24.93 36.562381,25.2385714 36.3761905,25.5147619 C36.2095238,25.762381 35.9819048,25.9690476 35.7809524,26.1942857 C34.9571429,26.5071429 34.102381,26.4309524 33.2585714,26.3519048 C32.592381,26.2895238 31.9261905,26.1790476 31.2738095,26.0285714 C30.5085714,25.8519048 30.0495238,25.3738095 30.0585714,24.5385714 C30.0628571,24.1633333 30.0552381,23.787619 30.0647619,23.412381 C30.0709524,23.1661905 29.9852381,23.0438095 29.7214286,23.0038095 C29.1361905,22.9152381 29.0495238,22.9490476 28.7295238,23.4561905 C28.4504762,23.8990476 28.1585714,24.3338095 27.8604762,24.7642857 C27.522381,25.252381 27.0361905,25.472381 26.4547619,25.54 C24.3685714,25.7828571 22.3566667,25.4257143 20.38,24.7947619 C19.8014286,24.6095238 19.6428571,24.3495238 19.6219048,23.7361905 C19.6095238,23.3704762 19.6142857,23.0009524 19.5571429,22.6414286 C19.527619,22.4542857 19.4219048,22.2385714 19.2809524,22.1166667 C18.5409524,21.477619 17.7785714,20.8652381 17.0238095,20.2438095 L16.9047619,20.1561905 L15.697619,19.07 L16.1319048,17.087619 L17.8319048,18.7928571 C18.262381,19.2561905 18.6904762,19.7219048 19.1266667,20.18 C19.1809524,20.2366667 19.2785714,20.2861905 19.3542857,20.2828571 C20.9742857,20.217619 22.5733333,20.4042857 24.1657143,20.6757143 L24.2542857,20.6785714 L25.5642857,20.9466667 C26.8490476,21.257619 28.1304762,21.5857143 29.4209524,21.8704762 C29.8380952,21.9628571 30.2809524,21.97 30.7114286,21.9666667 C31.55,21.9604762 32.3885714,21.9190476 33.227619,21.892381 L34.4190476,21.9909524 L34.4190476,21.9909524 Z M23.6104762,21.1871429 C22.7338095,21.1366667 21.8571429,21.0690476 20.9795238,21.0438095 C20.6271429,21.0338095 20.4280952,21.2347619 20.3861905,21.5833333 C20.312381,22.2009524 20.2519048,22.8219048 20.2128571,23.4428571 C20.1733333,24.0752381 20.2352381,24.152381 20.8461905,24.3590476 C22.5338095,24.9295238 24.2752381,25.1109524 26.047619,25.0814286 C26.6952381,25.0709524 27.1719048,24.782381 27.4961905,24.2533333 C27.7642857,23.8166667 27.992381,23.3547619 28.2152381,22.8928571 C28.4090476,22.4909524 28.3485714,22.3080952 27.9180952,22.1666667 C27.2633333,21.9509524 26.5909524,21.7880952 25.9261905,21.602381 L23.6104762,21.1871429 L23.6104762,21.1871429 Z M33.3728571,22.4533333 L33.3633333,22.5180952 C33.0271429,22.5180952 32.69,22.5038095 32.3547619,22.522381 C32.06,22.5385714 31.7657143,22.5814286 31.4742857,22.6309524 C31.0909524,22.6961905 30.8466667,22.9219048 30.8095238,23.317619 C30.77,23.7295238 30.7366667,24.1442857 30.737619,24.557619 C30.7390476,25.277619 30.8704762,25.4366667 31.5619048,25.6033333 C32.5480952,25.8404762 33.55,25.9347619 34.5628571,25.8866667 C34.807619,25.8752381 35.0514286,25.82 35.2938095,25.7738095 C35.6147619,25.712381 35.8452381,25.5419048 35.9771429,25.227619 C36.2133333,24.6633333 36.48,24.1119048 36.7109524,23.5461905 C36.9033333,23.0747619 36.8561905,22.9514286 36.3614286,22.8695238 C35.3690476,22.7047619 34.3695238,22.5890476 33.3728571,22.4533333 L33.3728571,22.4533333 Z" id="Shape" fill="#515053" sketch:type="MSShapeGroup"></path>
                <path d="M23.9628571,8.73380952 C23.0909524,9.82047619 21.8671429,10.4071429 20.1652381,10.5457143 L21.7885714,9.72571429 C20.3214286,8.2347619 19.2752381,6.5947619 19.3180952,4.45428571 C19.392381,3.14047619 19.7942857,1.94 20.5571429,0.864285714 C20.6304762,0.760952381 20.7228571,0.670952381 20.8057143,0.574761905 L20.852381,0.596666667 L20.8557143,0.712380952 C20.8033333,0.799047619 20.7242857,0.87952381 20.7028571,0.972857143 C20.4047619,2.2752381 20.4090476,3.57238095 20.8352381,4.84809524 C21.2971429,6.23047619 22.1685714,7.31666667 23.3114286,8.20047619 C23.5338095,8.37285714 23.7461905,8.55619048 23.9628571,8.73380952 L23.9628571,8.73380952 Z" id="Shape" fill="#4F4E51" sketch:type="MSShapeGroup"></path>
                <path d="M37.0995238,35.9457143 C37.1338095,35.9847619 37.1971429,36.0233333 37.1971429,36.062381 C37.2071429,37.0938095 37.2138095,38.1257143 37.2114286,39.157619 C37.2109524,39.4119048 37.1747619,39.6657143 37.1552381,39.92 C36.9371429,40.8180952 36.7652381,41.73 36.49,42.61 C36.0633333,43.9761905 35.3566667,45.2061905 34.4761905,46.3347619 C34.3961905,46.3038095 34.3095238,46.2828571 34.2361905,46.2395238 C32.8685714,45.4466667 31.5028571,44.6519048 30.1366667,43.8571429 C30.0880952,43.8285714 30.0395238,43.7985714 30.0019048,43.7204762 C30.1971429,43.7433333 30.3914286,43.7685714 30.5871429,43.7885714 C32.617619,43.997619 34.302381,43.3042857 35.6271429,41.7790476 C35.9209524,41.4409524 36.0766667,40.9704762 36.2519048,40.5433333 C36.8533333,39.0709524 37.1580952,37.5409524 37.0995238,35.9457143 L37.0995238,35.9457143 Z" id="Shape" fill="#66C2DD" sketch:type="MSShapeGroup"></path>
                <path d="M32.6919048,1.90190476 L32.6919048,4.10904762 C32.6919048,4.53761905 32.6857143,4.53571429 32.2857143,4.44857143 C30.8190476,4.13047619 29.3509524,3.81904762 27.8838095,3.50142857 C27.78,3.47904762 27.6833333,3.4247619 27.5828571,3.3852381 L27.5838095,3.32619048 L27.6433333,3.26666667 C28.067619,2.61047619 28.5561905,2.01 29.1709524,1.52 L30.8528571,0.179047619 C30.85,0.278095238 30.867619,0.384285714 30.8395238,0.476190476 C30.7090476,0.895714286 30.5652381,1.31190476 30.3990476,1.81190476 C31.2142857,1.50809524 31.9238095,1.1347619 32.692381,1.00619048 L32.6919048,1.90190476 L32.6919048,1.90190476 Z" id="Shape" fill="#EBF7FD" sketch:type="MSShapeGroup"></path>
                <path d="M23.9628571,8.73380952 C23.7461905,8.55619048 23.5338095,8.37285714 23.312381,8.20095238 C22.17,7.31761905 21.2980952,6.23095238 20.8361905,4.84857143 C20.4095238,3.57285714 20.4052381,2.27571429 20.7038095,0.973333333 C20.7252381,0.87952381 20.8042857,0.799047619 20.8566667,0.712857143 L21.2385714,2.19571429 C21.8,3.99428571 22.8619048,5.41857143 24.4285714,6.46809524 C25.0147619,6.86047619 25.0385714,6.87809524 24.7261905,7.51952381 C24.5185714,7.94666667 24.2204762,8.33047619 23.9628571,8.73380952 L23.9628571,8.73380952 Z" id="Shape" fill="#737F84" sketch:type="MSShapeGroup"></path>
                <path d="M42.0019048,13.5719048 C42.0042857,13.5119048 41.9852381,13.4395238 42.0119048,13.3933333 C42.377619,12.7609524 42.7495238,12.132381 43.12,11.502381 C43.7647619,11.3704762 44.42,11.2771429 45.0514286,11.0985714 C46.4542857,10.7019048 47.6952381,10.0138095 48.6871429,8.92 C48.8052381,8.79 48.9290476,8.66571429 49.0504762,8.53904762 C48.5466667,9.96761905 47.7928571,11.242381 46.697619,12.297619 C45.6533333,13.3038095 44.3661905,13.6628571 42.9485714,13.6333333 C42.6328571,13.6271429 42.317619,13.5933333 42.0019048,13.5719048 L42.0019048,13.5719048 Z" id="Shape" fill="#4F4E51" sketch:type="MSShapeGroup"></path>
                <path d="M49.0504762,8.53952381 C48.9290476,8.66619048 48.8047619,8.79047619 48.6871429,8.92047619 C47.6952381,10.0142857 46.4547619,10.702381 45.0514286,11.0990476 C44.42,11.277619 43.7642857,11.3709524 43.12,11.5028571 L44.3338095,9.61142857 C46.0509524,9.88857143 47.5590476,9.36142857 48.9552381,8.40571429 L49.1533333,8.28095238 L49.0504762,8.53952381 L49.0504762,8.53952381 Z" id="Shape" fill="#737F84" sketch:type="MSShapeGroup"></path>
                <path d="M47.18,43.3538095 L47.1933333,43.2709524 L47.22,43.2785714 L47.1890476,43.3614286 L47.18,43.3538095 L47.18,43.3538095 Z M31.5728571,58.0980952 L31.6833333,58.1490476 L31.5728571,58.0980952 L31.5728571,58.0980952 Z" id="Shape" fill="#65C1DD" sketch:type="MSShapeGroup"></path>
                <path d="M40.472381,39.6161905 L40.4971429,39.63 L40.472381,39.6161905 L40.472381,39.6161905 Z M35.0690476,29.3409524 L35.007619,29.2752381 L35.0690476,29.3409524 L35.0690476,29.3409524 Z" id="Shape" fill="#B3E0EE" sketch:type="MSShapeGroup"></path>
                <path id="Shape" fill="#737F84" sketch:type="MSShapeGroup" d="M20.8061905,0.601863711 L20.8671905,0.542380952 L20.9041905,0.642380952 L20.8061905,0.601863711 L20.8061905,0.601863711 Z"></path>
                <path d="M15.942381,51.6152381 L14.9914286,50.9909524 L14.8133333,50.8990476 C14.7214286,50.0990476 14.6466667,49.2971429 14.5328571,48.5004762 C14.427619,47.7642857 14.0309524,47.1580952 13.567619,46.5990476 C12.8385714,45.7185714 12.052381,44.8833333 11.5933333,43.8095238 C11.1909524,42.8690476 10.9119048,41.8971429 10.84,40.8771429 C10.7771429,39.9828571 10.7428571,39.0861905 10.7228571,38.1895238 C10.7138095,37.79 10.772381,37.3885714 10.8028571,36.9447619 L11.5014286,37.68 C11.7609524,35.8909524 12.6242857,34.4209524 13.4704762,32.9390476 C13.2280952,34.08 12.952381,35.2147619 12.7533333,36.3628571 C12.5542857,37.512381 12.3752381,38.6709524 12.4995238,39.8947619 C12.1361905,39.747619 11.9771429,39.4390476 11.7333333,39.1071429 C11.6933333,40.0252381 12.0061905,40.7728571 12.3347619,41.4990476 C12.662381,42.2228571 13.0761905,42.907619 13.4914286,43.682381 L12.0952381,43.5571429 C12.1495238,43.8609524 12.3404762,44.1419048 12.5866667,44.3533333 C13.0338095,44.737619 13.5033333,45.1 13.9895238,45.4338095 C15.1861905,46.2542857 15.9357143,47.3604762 16.1028571,48.8028571 C16.1719048,49.4 16.0966667,50.0157143 16.0652381,50.6219048 C16.0480952,50.9542857 15.9847619,51.2842857 15.942381,51.6152381 L15.942381,51.6152381 Z M9.58761905,55.6509524 L9.7552381,56.1909524 C9.63095238,56.0719048 9.48619048,55.9671429 9.38714286,55.83 C9.19142857,55.5595238 9.00857143,55.277619 8.84333333,54.9871429 C8.68,54.6990476 8.5452381,54.3947619 8.38952381,54.0809524 L8.20952381,54.2761905 C8.12,53.582381 7.90619048,52.9361905 8.10619048,52.2580952 C8.21714286,53.0504762 8.43380952,53.8038095 8.84380952,54.5561905 L8.93190476,54.3704762 L8.98142857,54.1704762 L9.52761905,55.5295238 L9.58952381,55.6533333 L9.58761905,55.6509524 L9.58761905,55.6509524 Z" id="Shape" fill="#B3E0EE" sketch:type="MSShapeGroup"></path>
                <path d="M6.83761905,56.6933333 C5.9952381,56.3347619 5.22380952,54.19 5.61666667,53.437619 L6.02666667,55.3571429 L6.22714286,55.2204762 L6.83761905,56.6933333 L6.83761905,56.6933333 Z" id="Shape" fill="#B4E1EE" sketch:type="MSShapeGroup"></path>
                <path id="Shape" fill="#B3E0EE" sketch:type="MSShapeGroup" d="M13.585381,32.7649048 L13.540381,32.7769048 L13.522381,32.7239048 L13.567381,32.7119048 L13.585381,32.7649048 L13.585381,32.7649048 Z"></path>
                <path id="Shape" fill="#65C2DD" sketch:type="MSShapeGroup" d="M9.62809524,55.6533333 L9.52809524,55.5295238 L9.62809524,55.6533333 L9.62809524,55.6533333 Z"></path>
                <path id="Shape" fill="#E9F5FA" sketch:type="MSShapeGroup" d="M27.6838095,3.26666667 L27.5838095,3.36666667 L27.6838095,3.26666667 L27.6838095,3.26666667 Z"></path>
                <path d="M21.2704762,26.8666667 C23.412381,26.8666667 25.5,26.8414286 27.5871429,26.8761905 C28.8504762,26.8971429 30.1138095,26.9952381 31.3747619,27.092381 C31.8047619,27.1252381 32.2238095,27.2680952 32.6109524,27.5861905 C32.0995238,27.9752381 31.6195238,28.3657143 31.1128571,28.7161905 C30.872381,28.8828571 30.7938095,29.0580952 30.9095238,29.3114286 C31.0695238,29.6604762 31.2466667,30.0014286 31.4147619,30.3466667 L31.7528571,31.0547619 C31.6261905,31.0785714 31.5609524,31.1 31.4947619,31.1014286 C30.0209524,31.14 28.5428571,31.2419048 27.08,30.997619 C25.4561905,30.7266667 23.9071429,30.2357143 22.5833333,29.2052381 C21.9414286,28.7061905 21.4757143,28.0790476 21.3138095,27.2609524 C21.2904762,27.1480952 21.287619,27.0304762 21.2704762,26.8666667 L21.2704762,26.8666667 Z" id="Shape" fill="#4F4E51" sketch:type="MSShapeGroup"></path>
                <path d="M27.91,35.467619 L27.09,34.14 L26.0714286,35.6442857 C25.5395238,35.047619 25.3638095,34.3585714 25.1019048,33.6509524 L24.2690476,34.5785714 C23.882381,33.79 23.647619,33.0066667 23.59,32.0804762 C25.7485714,32.777619 27.8947619,33.0171429 30.0857143,32.8814286 L30.11,32.9747619 C29.8585714,33.1119048 29.6180952,33.2766667 29.3538095,33.3790476 C28.8657143,33.567619 28.7019048,33.9819048 28.5290476,34.4161905 C28.387619,34.7695238 28.1957143,35.102381 28.0261905,35.4442857 L27.91,35.467619 L27.91,35.467619 Z" id="Shape" fill="#D3EDF6" sketch:type="MSShapeGroup"></path>
                <path id="Shape" fill="#66C2DD" sketch:type="MSShapeGroup" d="M29.8997619,43.7175238 L29.8497619,43.7325238 L29.8347619,43.6695238 L29.8877619,43.6805238 L29.8997619,43.7175238 L29.8997619,43.7175238 Z"></path>
                <path d="M26.2580952,18.1438095 C25.057619,17.7204762 24.0019048,17.8090476 23.1285714,18.7947619 C23.06,18.2490476 23.6766667,17.5485714 24.3309524,17.3685714 C25.1109524,17.1538095 25.9819048,17.4819048 26.2580952,18.1438095 L26.2580952,18.1438095 Z M23.307619,19.7190476 C23.3238095,19.3357143 23.5938095,19.1314286 23.8738095,18.9495238 C24.5171429,18.5319048 25.6771429,18.5942857 26.137619,19.2966667 C25.9547619,19.2747619 25.7980952,19.2666667 25.6457143,19.2357143 C24.8619048,19.0766667 24.1509524,19.2919048 23.4661905,19.6509524 L23.307619,19.7190476 L23.307619,19.7190476 Z M34.862381,19.4066667 C35.2371429,19.0738095 35.8071429,19.002381 36.2757143,19.2595238 C36.7761905,19.5333333 37.0161905,19.8961905 36.9785714,20.5142857 C36.4519048,19.7666667 35.7138095,19.4861905 34.862381,19.4066667 L34.862381,19.4066667 Z" id="Shape" fill="#D4EDF6" sketch:type="MSShapeGroup"></path>
                <path d="M36.3628571,21.7819048 C35.5966667,20.8571429 35.2795238,20.8290476 34.382381,20.5819048 C34.6814286,20.2971429 35.0380952,20.2395238 35.3904762,20.3404762 C36.0757143,20.5371429 36.2909524,21.0933333 36.3628571,21.7819048 L36.3628571,21.7819048 Z" id="Shape" fill="#CDEBF4" sketch:type="MSShapeGroup"></path>
                <path id="Shape" fill="#D4EDF6" sketch:type="MSShapeGroup" d="M23.3232857,19.7195238 L23.2942857,19.7715238 L23.3232857,19.7195238 L23.3232857,19.7195238 Z"></path>
                <path d="M46.3519048,34.5666667 L46.34,34.5909524 L46.3538095,34.5680952 L46.3519048,34.5666667 L46.3519048,34.5666667 Z M44.7509524,36.3514286 L44.7233333,36.3752381 L44.747619,36.347619 L44.7509524,36.3514286 L44.7509524,36.3514286 Z" id="Shape" fill="#EBF7FE" sketch:type="MSShapeGroup"></path>
                <path id="Shape" fill="#D3EDF6" sketch:type="MSShapeGroup" d="M10.8114762,56.5357143 L10.8464762,56.6357143 L10.7604762,56.5596032 L10.8114762,56.5357143 L10.8114762,56.5357143 Z"></path>
                <path d="M25.9266667,21.602381 C26.5914286,21.7880952 27.2638095,21.9509524 27.9185714,22.1666667 C28.3490476,22.3080952 28.4095238,22.4909524 28.2157143,22.8928571 C27.9933333,23.3547619 27.7647619,23.8166667 27.4966667,24.2533333 C27.1719048,24.782381 26.6957143,25.0709524 26.0480952,25.0814286 C24.2752381,25.1109524 22.5342857,24.9295238 20.8466667,24.3590476 C20.2357143,24.152381 20.1738095,24.0752381 20.2133333,23.4428571 C20.252381,22.8219048 20.3128571,22.2014286 20.3866667,21.5833333 C20.4285714,21.2347619 20.6271429,21.0333333 20.98,21.0438095 C21.857619,21.0695238 22.7342857,21.1366667 23.6109524,21.1871429 L23.3695238,21.9428571 C23.1495238,22.5004762 23.1133333,23.0752381 23.2580952,23.6509524 C23.4128571,24.2671429 23.9480952,24.5942857 24.5061905,24.4466667 C25.0138095,24.312381 25.57,23.6471429 25.6228571,23.1104762 C25.8842857,22.6409524 25.9180952,22.1242857 25.9266667,21.602381 L25.9266667,21.602381 Z" id="Shape" fill="#E8F4F8" sketch:type="MSShapeGroup"></path>
                <path d="M33.3728571,22.4533333 C34.3695238,22.5890476 35.3690476,22.7042857 36.3604762,22.8690476 C36.8552381,22.9509524 36.902381,23.0742857 36.71,23.5457143 C36.4790476,24.1114286 36.212381,24.6628571 35.9761905,25.2271429 C35.8447619,25.5419048 35.6142857,25.712381 35.2928571,25.7733333 C35.0509524,25.8195238 34.8066667,25.8747619 34.5619048,25.8861905 C33.5490476,25.9342857 32.5471429,25.84 31.5609524,25.6028571 C30.8695238,25.4361905 30.737619,25.2771429 30.7366667,24.5571429 C30.7357143,24.1433333 30.7695238,23.7290476 30.8085714,23.3171429 C30.8461905,22.9214286 31.09,22.6957143 31.4733333,22.6304762 C31.7647619,22.5809524 32.0590476,22.5380952 32.3538095,22.5219048 C32.6890476,22.5033333 33.0261905,22.517619 33.362381,22.517619 L33.3728571,22.4533333 L33.3728571,22.4533333 Z M34.6952381,23.6966667 C34.6457143,23.8014286 34.6228571,23.8752381 34.5804762,23.9347619 C34.3942857,24.2 34.237619,24.4985714 34.0057143,24.7161905 C33.5061905,25.1842857 32.8842857,25.0447619 32.6028571,24.4209524 C32.4909524,24.1719048 32.4328571,23.8980952 32.3471429,23.627619 C32.2828571,24.3428571 32.352381,24.8461905 32.5614286,25.1980952 C32.7719048,25.552381 33.0671429,25.6895238 33.4585714,25.6147619 C34.1557143,25.4819048 34.7495238,24.5857143 34.6952381,23.6966667 L34.6952381,23.6966667 Z M32.742381,23.5614286 L32.6852381,23.6157143 C32.8028571,23.7638095 32.8919048,23.9766667 33.0447619,24.0428571 C33.257619,24.1352381 33.3938095,23.9266667 33.4933333,23.7519048 C33.5361905,23.6766667 33.5652381,23.5890476 33.58,23.5033333 C33.6285714,23.2190476 33.5,22.9238095 33.3147619,22.8738095 C33.112381,22.8195238 32.8709524,23.0257143 32.7857143,23.3309524 L32.742381,23.5614286 L32.742381,23.5614286 Z" id="Shape" fill="#ECF5F9" sketch:type="MSShapeGroup"></path>
                <path d="M23.3690476,21.9433333 C23.392381,22.2866667 23.3819048,22.6361905 23.447619,22.9709524 C23.5266667,23.3709524 23.7271429,23.712381 24.1638095,23.8328571 C24.6009524,23.9538095 24.9566667,23.7914286 25.2657143,23.4957143 C25.3919048,23.3752381 25.5038095,23.24 25.622381,23.1114286 C25.5695238,23.6480952 25.0133333,24.3133333 24.5057143,24.447619 C23.947619,24.5952381 23.412381,24.2680952 23.257619,23.6519048 C23.1128571,23.0752381 23.1485714,22.5004762 23.3690476,21.9433333 L23.3690476,21.9433333 Z M34.6952381,23.6966667 C34.7495238,24.5857143 34.1557143,25.4819048 33.4590476,25.6142857 C33.067619,25.6890476 32.7728571,25.5519048 32.5619048,25.197619 C32.3528571,24.8457143 32.2833333,24.342381 32.347619,23.6271429 C32.4328571,23.897619 32.4909524,24.1714286 32.6033333,24.4204762 C32.8847619,25.0442857 33.5066667,25.1842857 34.0061905,24.7157143 C34.2380952,24.4980952 34.3947619,24.1995238 34.5809524,23.9342857 C34.6228571,23.8752381 34.6457143,23.8014286 34.6952381,23.6966667 L34.6952381,23.6966667 Z" id="Shape" fill="#778287" sketch:type="MSShapeGroup"></path>
                <path d="M32.742381,23.5614286 L32.7857143,23.3314286 C32.8714286,23.0261905 33.1128571,22.82 33.3147619,22.8742857 C33.4995238,22.9242857 33.6285714,23.2195238 33.58,23.5038095 C33.5652381,23.5895238 33.5361905,23.6771429 33.4933333,23.752381 C33.3942857,23.9271429 33.257619,24.1357143 33.0447619,24.0433333 C32.8919048,23.9771429 32.802381,23.7638095 32.6852381,23.6161905 L32.742381,23.5614286 L32.742381,23.5614286 Z M23.7661905,22.4242857 C23.7790476,22.0938095 24.0004762,21.8180952 24.2533333,21.8161905 C24.4657143,21.8147619 24.642381,22.0714286 24.63,22.3633333 C24.6157143,22.6890476 24.3628571,22.992381 24.112381,22.9828571 C23.887619,22.9742857 23.7528571,22.757619 23.7661905,22.4242857 L23.7661905,22.4242857 Z" id="Shape" fill="#1C1C1C" sketch:type="MSShapeGroup"></path>
            </g>
        </g>
    </g>
</svg>