<?xml version="1.0" encoding="UTF-8" standalone="no"?>
<svg width="64px" height="64px" viewBox="0 0 64 64" version="1.1" xmlns="http://www.w3.org/2000/svg" xmlns:xlink="http://www.w3.org/1999/xlink">
    <defs></defs>
    <g id="Tools" stroke="none" stroke-width="1" fill="none" fill-rule="evenodd">
        <g id="icons/skills/id-242">
            <g id="Imported-Layers" transform="translate(3.000000, 3.000000)">
                <path d="M52.7422121,0 L5.25756818,0 C2.35383333,0 0,2.35405303 0,5.25778788 L0,52.7422121 C0,55.645947 2.35383333,58 5.25756818,58 L52.7422121,58 C55.645947,58 58,55.645947 58,52.7422121 L58,5.25778788 C58,2.35405303 55.645947,0 52.7422121,0 L52.7422121,0 Z" id="Fill-1" fill="#EE3967"></path>
                <path d="M19.3834242,18.2484697 C21.3117045,18.2484697 22.926697,16.7373939 22.926697,14.7566061 C22.926697,12.7773561 21.3117045,11.2665 19.3834242,11.2665 C17.4555833,11.2665 15.8405909,12.7773561 15.8405909,14.7566061 C15.8405909,16.7373939 17.4555833,18.2484697 19.3834242,18.2484697 L19.3834242,18.2484697 Z" id="Fill-2" fill="#FEFEFE"></path>
                <path d="M12.0369773,36.9444621 C11.8287045,37.8302803 11.7243485,38.7868409 11.7243485,39.5672045 C11.7243485,42.6418636 13.3916288,44.6830682 16.9346818,44.6830682 C19.8733507,44.6830682 22.2557424,42.9377955 23.9709167,40.1201818 L22.9236212,44.3236439 L28.758553,44.3236439 L32.0937727,30.9476136 C32.927303,27.5607652 34.5425152,25.8029697 36.991697,25.8029697 C38.9195379,25.8029697 40.1179848,27.0018561 40.1179848,28.9811061 C40.1179848,29.5547348 40.065697,30.1793333 39.8574242,30.8568788 L38.1376364,37.0050985 C37.8770758,37.8909167 37.7733788,38.7773939 37.7733788,39.6102652 C37.7733788,42.5291591 39.4922879,44.6641742 43.0876288,44.6641742 C46.1618485,44.6641742 48.6105909,42.6851439 49.9654621,37.943422 L47.6731439,37.0582652 C46.5265455,40.2350833 45.5365909,40.8093712 44.7551288,40.8093712 C43.973447,40.8093712 43.5564621,40.2886894 43.5564621,39.2471061 C43.5564621,38.7782727 43.6610379,38.2578084 43.8170227,37.6312348 L45.4847424,31.641197 C45.9012879,30.234697 46.0579318,28.9874773 46.0579318,27.8415379 C46.0579318,23.3605985 43.3481894,21.0223636 40.065697,21.0223636 C36.991697,21.0223636 33.8651894,23.7949394 32.3024848,26.7131742 L33.4484242,21.4753788 L24.5388333,21.4753788 L23.2880985,26.0887955 L27.4566288,26.0887955 L24.8899091,36.3657781 C22.8739697,40.8467197 19.1709773,40.9194394 18.7065379,40.815303 C17.9435303,40.6432803 17.4555833,40.3535 17.4555833,39.3620076 C17.4555833,38.7899167 17.5597197,37.96825 17.8202803,36.9774167 L21.7284719,21.4753788 L11.8287045,21.4753788 L10.5781894,26.0887955 L14.6942121,26.0887955 L12.0369773,36.9444621 L12.0369773,36.9444621 Z" id="Fill-3" fill="#FEFEFE"></path>
            </g>
        </g>
    </g>
</svg>