<?xml version="1.0" encoding="UTF-8" standalone="no"?>
<svg width="64px" height="64px" viewBox="0 0 64 64" version="1.1" xmlns="http://www.w3.org/2000/svg" xmlns:xlink="http://www.w3.org/1999/xlink">
    <defs>
        <linearGradient x1="50.9965651%" y1="-19.5372596%" x2="50.9965651%" y2="129.823384%" id="linearGradient-1">
            <stop stop-color="#0994DC" offset="0%"></stop>
            <stop stop-color="#66CEF5" offset="35%"></stop>
            <stop stop-color="#66CEF5" offset="35%"></stop>
            <stop stop-color="#127BCA" offset="84.6%"></stop>
            <stop stop-color="#127BCA" offset="84.6%"></stop>
            <stop stop-color="#127BCA" offset="100%"></stop>
        </linearGradient>
        <linearGradient x1="50.8467274%" y1="-19.3614912%" x2="50.8467274%" y2="129.620721%" id="linearGradient-2">
            <stop stop-color="#0E76BC" offset="0%"></stop>
            <stop stop-color="#36AEE8" offset="36%"></stop>
            <stop stop-color="#36AEE8" offset="36%"></stop>
            <stop stop-color="#00ADEF" offset="84.6%"></stop>
            <stop stop-color="#00ADEF" offset="84.6%"></stop>
            <stop stop-color="#00ADEF" offset="100%"></stop>
        </linearGradient>
        <linearGradient x1="49.9825154%" y1="110.737156%" x2="49.9825154%" y2="-6.2714633%" id="linearGradient-3">
            <stop stop-color="#1C63B7" offset="0%"></stop>
            <stop stop-color="#33BDF2" offset="50%"></stop>
            <stop stop-color="#33BDF2" stop-opacity="0.42" offset="100%"></stop>
        </linearGradient>
        <linearGradient x1="49.5962797%" y1="-19.801361%" x2="49.5962797%" y2="129.561688%" id="linearGradient-4">
            <stop stop-color="#166AB8" offset="0%"></stop>
            <stop stop-color="#36AEE8" offset="40%"></stop>
            <stop stop-color="#36AEE8" offset="40%"></stop>
            <stop stop-color="#0798DD" offset="84.6%"></stop>
            <stop stop-color="#0798DD" offset="84.6%"></stop>
            <stop stop-color="#0798DD" offset="100%"></stop>
        </linearGradient>
        <linearGradient x1="50.8010953%" y1="-19.4289963%" x2="50.8010953%" y2="129.936563%" id="linearGradient-5">
            <stop stop-color="#124379" offset="0%"></stop>
            <stop stop-color="#1487CB" offset="39%"></stop>
            <stop stop-color="#1487CB" offset="39%"></stop>
            <stop stop-color="#165197" offset="78%"></stop>
            <stop stop-color="#165197" offset="78%"></stop>
            <stop stop-color="#165197" offset="100%"></stop>
        </linearGradient>
        <linearGradient x1="-5.37296142%" y1="45.245554%" x2="94.616843%" y2="45.245554%" id="linearGradient-6">
            <stop stop-color="#33BDF2" stop-opacity="0.698" offset="0%"></stop>
            <stop stop-color="#1DACD8" offset="100%"></stop>
        </linearGradient>
        <linearGradient x1="50.1884062%" y1="94.4378165%" x2="50.1884062%" y2="-3.16715451%" id="linearGradient-7">
            <stop stop-color="#136AB4" offset="0%"></stop>
            <stop stop-color="#59CAF5" stop-opacity="0.549" offset="60%"></stop>
            <stop stop-color="#59CAF5" stop-opacity="0.235" offset="100%"></stop>
        </linearGradient>
        <linearGradient x1="-1.4325036%" y1="48.5090441%" x2="98.5577298%" y2="48.5090441%" id="linearGradient-8">
            <stop stop-color="#05A1E6" stop-opacity="0.247" offset="0%"></stop>
            <stop stop-color="#05A1E6" offset="100%"></stop>
        </linearGradient>
        <linearGradient x1="50.7845389%" y1="124.058479%" x2="50.7845389%" y2="-9.53162155%" id="linearGradient-9">
            <stop stop-color="#318ED5" offset="0%"></stop>
            <stop stop-color="#38A7E4" offset="100%"></stop>
        </linearGradient>
        <linearGradient x1="48.8756427%" y1="91.1819701%" x2="48.8756427%" y2="-77.0508499%" id="linearGradient-10">
            <stop stop-color="#05A1E6" offset="0%"></stop>
            <stop stop-color="#05A1E6" stop-opacity="0.549" offset="100%"></stop>
        </linearGradient>
        <linearGradient x1="50.6775978%" y1="100.155826%" x2="50.6775978%" y2="0.00972314621%" id="linearGradient-11">
            <stop stop-color="#1959A6" offset="0%"></stop>
            <stop stop-color="#05A1E6" offset="50%"></stop>
            <stop stop-color="#05A1E6" offset="50%"></stop>
            <stop stop-color="#7EC5EA" offset="91.8%"></stop>
            <stop stop-color="#7EC5EA" offset="100%"></stop>
        </linearGradient>
        <linearGradient x1="59.5916291%" y1="94.4695714%" x2="38.2822589%" y2="5.7565252%" id="linearGradient-12">
            <stop stop-color="#165096" offset="0%"></stop>
            <stop stop-color="#0D82CA" offset="100%"></stop>
        </linearGradient>
        <linearGradient x1="48.4680724%" y1="76.6899199%" x2="48.4680724%" y2="-3.52034882%" id="linearGradient-13">
            <stop stop-color="#05A1E6" offset="0%"></stop>
            <stop stop-color="#0495D6" offset="87.4%"></stop>
            <stop stop-color="#0495D6" offset="100%"></stop>
        </linearGradient>
        <linearGradient x1="65.8772655%" y1="-3.69994399%" x2="34.908494%" y2="106.185776%" id="linearGradient-14">
            <stop stop-color="#38A7E4" stop-opacity="0.329" offset="0%"></stop>
            <stop stop-color="#0E88D3" offset="96.2%"></stop>
            <stop stop-color="#0E88D3" offset="96.2%"></stop>
            <stop stop-color="#0E88D3" offset="100%"></stop>
        </linearGradient>
        <linearGradient x1="49.1430748%" y1="-0.176473574%" x2="49.1430748%" y2="101.888497%" id="linearGradient-15">
            <stop stop-color="#168CD4" offset="0%"></stop>
            <stop stop-color="#1C87CC" offset="50%"></stop>
            <stop stop-color="#154B8D" offset="100%"></stop>
        </linearGradient>
        <linearGradient x1="2.4202646%" y1="146.8406%" x2="361.122104%" y2="-314.2174%" id="linearGradient-16">
            <stop stop-color="#97D6EE" offset="0%"></stop>
            <stop stop-color="#55C1EA" offset="70.3%"></stop>
            <stop stop-color="#55C1EA" offset="100%"></stop>
        </linearGradient>
        <linearGradient x1="15.6798971%" y1="-74.2712%" x2="363.1148%" y2="323.7238%" id="linearGradient-17">
            <stop stop-color="#7ACCEC" offset="0%"></stop>
            <stop stop-color="#3FB7ED" offset="100%"></stop>
        </linearGradient>
        <linearGradient x1="48.6388326%" y1="6.38318108%" x2="48.6388326%" y2="127.848094%" id="linearGradient-18">
            <stop stop-color="#1DA7E7" offset="0%"></stop>
            <stop stop-color="#37ABE7" stop-opacity="0" offset="100%"></stop>
        </linearGradient>
    </defs>
    <g id="Languages" stroke="none" stroke-width="1" fill="none" fill-rule="evenodd">
        <g id="icons/skills/id-267">
            <g id="dot-net-original" transform="translate(14.000000, 39.677419)">
                <path d="M12.5674839,3.06551613 C13.8498387,6.98690323 14.3355484,13.9819355 18.0853548,13.9819355 C18.3704516,13.9819355 18.6593226,13.9540645 18.9487742,13.8989032 C15.5403871,13.1042903 15.1362581,6.18532258 13.0560968,2.60187097 C12.8929355,2.75022581 12.7315161,2.90467742 12.5674839,3.06551613" id="Shape" fill="url(#linearGradient-1)"></path>
                <path d="M13.0560968,2.60187097 C15.1362581,6.18503226 15.5403871,13.104 18.9487742,13.8989032 C19.2167419,13.8498387 19.485,13.7752258 19.7538387,13.6814516 C16.694129,12.1822258 15.8487097,5.46358065 13.4863548,2.22909677 C13.3435161,2.34812903 13.1998065,2.47267742 13.0560968,2.60187097" id="Shape" fill="url(#linearGradient-2)"></path>
                <path d="M16.0530968,0.471193548 C15.7685806,0.471193548 15.479129,0.499064516 15.1888065,0.554225806 C14.4304839,0.697354839 13.6593871,1.02396774 12.8824839,1.5183871 C13.0944194,1.728 13.2967742,1.96751613 13.4866452,2.22909677 C14.2771935,1.57325806 15.0622258,1.08870968 15.8440645,0.797225806 C16.137871,0.688354839 16.4302258,0.606774194 16.7234516,0.552774194 C16.5118065,0.499354839 16.2888387,0.471193548 16.0530968,0.471193548" id="Shape" fill="#14559A"></path>
                <path d="M22.1423226,12.2998065 C22.4552903,12.051 22.7688387,11.7757742 23.0829677,11.4752903 C21.78,7.57248387 21.3134516,0.477 17.5375161,0.477 C17.2675161,0.477 16.9951935,0.502258065 16.7234516,0.552483871 C20.1629032,1.40806452 20.6036129,8.89112903 22.1423226,12.2998065" id="Shape" fill="url(#linearGradient-3)"></path>
                <path id="Shape" fill="#3092C4" d="M16.7237419,0.573175953 C16.5120968,0.506082143 16.2888387,0.470903226 16.0528065,0.470903226 L17.5375161,0.477793941 C17.2678065,0.477793941 16.9954839,0.508983497 16.7237419,0.573175953"></path>
                <path d="M22.076129,13.1286774 C21.9286452,12.987871 21.7884194,12.8334194 21.6505161,12.6688065 C21.0152903,13.1185161 20.3823871,13.4596452 19.7538387,13.6817419 C19.9776774,13.7909032 20.2119677,13.8721935 20.4610645,13.9224194 C20.6538387,13.9619032 20.853871,13.9822258 21.0634839,13.9822258 C21.7692581,13.9822258 22.3272581,13.8986129 22.8016452,13.671 C22.5403548,13.5293226 22.3005484,13.3464194 22.076129,13.1286774" id="Shape" fill="#1969BC"></path>
                <path d="M15.8437742,0.797806452 C18.9243871,2.40909677 19.1923548,9.70606452 21.6505161,12.6688065 C21.8154194,12.5526774 21.9785806,12.4295806 22.1414516,12.2998065 C20.6027419,8.89112903 20.1629032,1.40719355 16.7240323,0.552483871 C16.4305161,0.607354839 16.1375806,0.688645161 15.8437742,0.797806452" id="Shape" fill="url(#linearGradient-4)"></path>
                <path d="M13.4863548,2.22909677 C15.8487097,5.46358065 16.694129,12.1825161 19.7538387,13.6817419 C20.3826774,13.4596452 21.0155806,13.1188065 21.6505161,12.6688065 C19.1923548,9.70606452 18.9243871,2.4093871 15.8437742,0.797806452 C15.0619355,1.08870968 14.2769032,1.57325806 13.4863548,2.22909677" id="Shape" fill="url(#linearGradient-5)"></path>
                <path d="M11.0563548,2.97116129 C10.6861935,3.80816129 10.3079032,4.90877419 9.85093548,6.345 C10.7599355,5.06380645 11.6663226,3.96029032 12.5674839,3.06580645 C12.4432258,2.68432258 12.3099677,2.33216129 12.1662581,2.01890323 C11.7978387,2.30051613 11.4262258,2.61812903 11.0563548,2.97116129" id="Shape" fill="url(#linearGradient-6)"></path>
                <path d="M12.4946129,1.77706452 C12.3860323,1.85487097 12.2765806,1.93441935 12.1665484,2.0186129 C12.3102581,2.33216129 12.4432258,2.68403226 12.5671935,3.06580645 C12.7309355,2.90554839 12.8935161,2.75051613 13.0560968,2.60216129 C12.8816129,2.30225806 12.6960968,2.02558065 12.4946129,1.77706452" id="Shape" fill="#2B74B1"></path>
                <path d="M12.8824839,1.51809677 C12.7532903,1.59996774 12.6246774,1.68648387 12.4943226,1.77677419 C12.6960968,2.025 12.8813226,2.30225806 13.0563871,2.60245161 C13.2000968,2.4723871 13.3435161,2.34725806 13.4866452,2.22880645 C13.2967742,1.96751613 13.0947097,1.72770968 12.8824839,1.51809677" id="Shape" fill="#125A9E"></path>
                <path d="M33.8954516,0.172451613 C32.1532258,6.89167742 28.5140323,12.2887742 25.4633226,13.6492258 L25.4572258,13.6492258 L25.2926129,13.7197742 L25.2725806,13.7276129 L25.2258387,13.7456129 L25.2049355,13.7543226 L25.1285806,13.7813226 L25.0972258,13.7923548 L25.0591935,13.8048387 L25.0226129,13.8176129 L24.9900968,13.8286452 L24.9250645,13.8483871 L24.8971935,13.8556452 L24.8533548,13.8675484 L24.8234516,13.8756774 L24.7755484,13.8881613 L24.7171935,13.9009355 C24.8550968,13.9517419 24.9988065,13.9775806 25.1535484,13.9775806 C28.0466129,13.9775806 30.9637742,8.793 35.7903871,0.171 L33.8951613,0.171 L33.8954516,0.172451613 L33.8954516,0.172451613 Z" id="Shape" fill="url(#linearGradient-7)"></path>
                <path d="M9.2223871,0.744096774 L9.22790323,0.739451613 L9.23458065,0.735096774 L9.23835484,0.735096774 L9.28509677,0.717096774 L9.2943871,0.712451613 L9.30658065,0.707516129 L9.35680645,0.689516129 L9.35941935,0.689516129 L9.4706129,0.650612903 L9.48716129,0.646258065 L9.53477419,0.632032258 L9.55654839,0.625064516 L9.60445161,0.61083871 L9.62274194,0.605903226 L9.78183871,0.564677419 L9.8036129,0.559741935 L9.85006452,0.550741935 L9.87270968,0.543774194 L9.91945161,0.535064516 L9.93048387,0.535064516 L10.0271613,0.517064516 L10.0463226,0.517064516 L10.0910323,0.509225806 L10.1162903,0.504870968 L10.1589677,0.498483871 L10.1824839,0.49383871 L10.2864194,0.484548387 C10.1862581,0.475258065 10.0834839,0.468870968 9.9783871,0.468870968 C6.72009677,0.468870968 2.23112903,6.51396774 0.209322581,14.3428065 L0.599225806,14.3428065 C1.24635484,13.1887742 1.82758065,12.096871 2.35916129,11.0720323 C3.77564516,5.52687097 6.66,1.74512903 9.2223871,0.743225806" id="Shape" fill="url(#linearGradient-8)"></path>
                <path d="M11.0563548,2.97116129 C11.4265161,2.61812903 11.7978387,2.30051613 12.1662581,2.0186129 C12.0823548,1.83454839 11.9952581,1.66383871 11.9017742,1.50735484 C11.6039032,1.86909677 11.3315806,2.3463871 11.0563548,2.97116129" id="Shape" fill="#0D82CA"></path>
                <path d="M11.3240323,0.789677419 C11.5368387,0.967935484 11.7275806,1.21354839 11.9017742,1.50764516 C11.9566452,1.44029032 12.0123871,1.37787097 12.0701613,1.31922581 C11.8280323,1.09335484 11.5667419,0.908129032 11.2828065,0.768483871 L11.3176452,0.785032258 L11.3240323,0.789677419" id="Shape" fill="#0D82CA"></path>
                <path d="M2.35945161,11.0723226 C5.33032258,5.34745161 6.73780645,1.72422581 9.22267742,0.743516129 C6.66058065,1.74629032 3.77564516,5.52774194 2.35945161,11.0723226" id="Shape" fill="url(#linearGradient-9)"></path>
                <path d="M12.069871,1.31922581 C12.0120968,1.37845161 11.9569355,1.44029032 11.9014839,1.50764516 C11.9949677,1.66383871 12.0817742,1.83396774 12.1665484,2.0186129 C12.2762903,1.93441935 12.3860323,1.85516129 12.4943226,1.77706452 C12.3601935,1.61129032 12.2182258,1.45741935 12.069871,1.31922581" id="Shape" fill="#127BCA"></path>
                <path d="M3.70829032,14.3172581 L3.65429032,14.3236452 L3.64412903,14.3236452 L3.59825806,14.3282903 L3.59070968,14.3282903 L3.48154839,14.3355484 L3.47022581,14.3355484 C6.47680645,14.2513548 7.85148387,12.7460323 8.53345161,10.5622258 C9.05167742,8.90709677 9.47758065,7.5123871 9.85064516,6.3423871 C8.59122581,8.11509677 7.326,10.2280645 6.05409677,12.5956452 C5.44093548,13.7366129 4.50812903,14.2133226 3.70829032,14.3149355" id="Shape" fill="url(#linearGradient-10)"></path>
                <path d="M3.70829032,14.3160968 C4.50812903,14.2141935 5.44093548,13.7380645 6.05409677,12.5965161 C7.326,10.2300968 8.59180645,8.11654839 9.85006452,6.34354839 C10.3079032,4.90674194 10.6856129,3.807 11.0560645,2.96970968 C8.54796774,5.35703226 6.03029032,9.3266129 3.708,14.3146452" id="Shape" fill="url(#linearGradient-11)"></path>
                <path d="M2.35945161,11.0726129 C1.82787097,12.0974516 1.24664516,13.1893548 0.599225806,14.3433871 L1.73264516,14.3433871 C1.88274194,13.1971935 2.09525806,12.1047097 2.35916129,11.0731935" id="Shape" fill="#05A1E6"></path>
                <path d="M10.1824839,0.49616129 L10.1583871,0.500806452 L10.116,0.506903226 L10.0910323,0.511258065 L10.0463226,0.519096774 L10.0271613,0.523741935 L9.93048387,0.540580645 L9.91945161,0.540580645 L9.87241935,0.549870968 L9.84890323,0.556258065 L9.80332258,0.565258065 L9.78183871,0.570483871 L9.62245161,0.611709677 L9.60416129,0.616935484 L9.55596774,0.63116129 L9.53419355,0.637258065 L9.48687097,0.651483871 L9.46945161,0.656129032 L9.35883871,0.695032258 L9.3086129,0.712451613 L9.28770968,0.72116129 L9.24096774,0.738580645 L9.22529032,0.746129032 C6.74070968,1.72654839 5.33322581,5.34977419 2.36235484,11.0746452 C2.09845161,12.105871 1.88477419,13.1986452 1.73583871,14.3448387 L1.89464516,14.3448387 L2.98480645,14.3401935 L3.48503226,14.3401935 L3.59390323,14.3329355 L3.60087097,14.3329355 L3.64674194,14.3282903 L3.65748387,14.3282903 L3.71148387,14.3219032 C6.03406452,9.33358065 8.55174194,5.36429032 11.0595484,2.97696774 C11.3353548,2.35219355 11.6073871,1.87490323 11.9046774,1.51374194 C11.7304839,1.21964516 11.5400323,0.973451613 11.3275161,0.794903226 L11.3214194,0.790258065 L11.286,0.773129032 L11.250871,0.755419355 L11.2169032,0.738870968 L11.1765484,0.722032258 L11.1451935,0.708387097 L11.0792903,0.680806452 L11.051129,0.670354839 L11.0020645,0.650612903 L10.9756452,0.641903226 L10.9074194,0.618387097 L10.9019032,0.618387097 L10.8229355,0.596032258 L10.8052258,0.590516129 L10.7387419,0.571935484 L10.7233548,0.567580645 C10.6696452,0.553064516 10.6141935,0.542032258 10.5581613,0.531290323 L10.5410323,0.526645161 L10.4693226,0.515032258 L10.4550968,0.510677419 L10.3703226,0.499354839 L10.3555161,0.499354839 L10.2899032,0.492096774 L10.1859677,0.501677419" id="Shape" fill="url(#linearGradient-12)"></path>
                <path d="M27.0902903,3.89235484 C26.5183548,5.72341935 26.055871,7.23396774 25.6526129,8.47683871 C27.2212258,6.31829032 28.7663226,3.60319355 30.2373871,0.470032258 C28.5207097,1.00916129 27.6056129,2.24303226 27.0902903,3.89235484" id="Shape" fill="url(#linearGradient-13)"></path>
                <path d="M25.7022581,13.535129 C25.6224194,13.5757742 25.542,13.6143871 25.4633226,13.6495161 C28.5140323,12.2887742 32.1535161,6.89167742 33.8954516,0.172451613 L33.5424194,0.172451613 C29.5394516,7.3233871 28.2521613,12.1105161 25.7022581,13.535129" id="Shape" fill="url(#linearGradient-14)"></path>
                <path d="M23.7100645,12.9344516 C24.3740323,12.1241613 24.9143226,10.746871 25.6526129,8.47683871 C24.8010968,9.64654839 23.9440645,10.6519355 23.0861613,11.4718065 L23.0818065,11.4790645 C23.2690645,12.0396774 23.4743226,12.5346774 23.7083226,12.9341613" id="Shape" fill="#079AE1"></path>
                <path d="M23.7100645,12.9344516 C23.4841935,13.2102581 23.2446774,13.4201613 22.9787419,13.5757742 C22.9206774,13.6097419 22.8614516,13.6416774 22.8016452,13.6707097 C23.0826774,13.8222581 23.3889677,13.923871 23.7324194,13.9642258 L23.8845484,13.9775806 L23.8935484,13.9775806 L23.9667097,13.9822258 L24.2149355,13.9822258 L24.2430968,13.9775806 L24.2979677,13.9729355 L24.3246774,13.9729355 L24.3841935,13.9665484 L24.389129,13.9665484 L24.4074194,13.9621935 L24.471,13.9523226 L24.4895806,13.9523226 L24.561,13.9404194 L24.5726129,13.9404194 L24.7151613,13.9102258 C24.3211935,13.7662258 23.9916774,13.4262581 23.7080323,12.9422903" id="Shape" fill="#1969BC"></path>
                <path id="Shape" fill="#1E5CB3" d="M18.0856452,13.9822258 C18.3707419,13.9822258 18.6593226,13.9543548 18.9487742,13.8986129 C19.2170323,13.850129 19.4852903,13.7755161 19.7538387,13.6817419 C19.9776774,13.7909032 20.2122581,13.8721935 20.4607742,13.923 C20.6535484,13.9621935 20.853871,13.9825161 21.0637742,13.9825161 L18.0856452,13.9825161 L18.0856452,13.9822258 Z"></path>
                <path id="Shape" fill="#1E5CB3" d="M21.0637742,13.9822258 C21.7689677,13.9822258 22.3275484,13.8986129 22.8016452,13.6707097 C23.0826774,13.8225484 23.3889677,13.923871 23.7324194,13.9645161 L23.8845484,13.9775806 L23.8935484,13.9775806 L23.9667097,13.9822258 L24.0543871,13.9822258 L21.0637742,13.9822258 L21.0637742,13.9822258 Z"></path>
                <path id="Shape" fill="#1D60B5" d="M24.0543871,14.0018593 L24.2172581,14.0018593 L24.2454194,13.9960152 L24.300871,13.990171 L24.3275806,13.990171 L24.3868065,13.9821353 L24.3917419,13.9821353 L24.4097419,13.9762912 L24.4733226,13.9642376 L24.4927742,13.9587587 L24.5644839,13.9441483 L24.5758065,13.9441483 L24.7183548,13.9061613 C24.8562581,13.9700817 24.9999677,14.0025899 25.1547097,14.0025899 L24.0549677,14.008434 L24.0543871,14.0018593 L24.0543871,14.0018593 Z"></path>
                <path d="M23.0838387,11.4793548 L23.0838387,11.4747097 C22.7697097,11.7751935 22.4561613,12.0504194 22.1431935,12.2992258 C21.9797419,12.429 21.8165806,12.5520968 21.6516774,12.6682258 C21.789871,12.833129 21.9300968,12.9875806 22.077871,13.1283871 C22.302,13.3458387 22.5415161,13.5290323 22.8030968,13.6704194 C22.8626129,13.6410968 22.922129,13.6091613 22.9799032,13.5754839 C23.2464194,13.419871 23.4853548,13.2096774 23.7115161,12.9341613 C23.4775161,12.5346774 23.2722581,12.0393871 23.0852903,11.4790645" id="Shape" fill="#175FAB"></path>
                <path d="M32.4246774,0.172451613 L30.6476129,0.172451613 L30.366,0.186096774 L30.2350645,0.466548387 C28.7637097,3.6 27.2191935,6.31509677 25.6505806,8.47364516 C24.9131613,10.7433871 24.372,12.1209677 23.7083226,12.9309677 C23.9919677,13.4152258 24.3220645,13.7554839 24.7145806,13.8997742 L24.7453548,13.8930968 L24.7517419,13.8930968 L24.7735161,13.8884516 L24.822871,13.8762581 L24.8521935,13.8678387 L24.8960323,13.8565161 L24.9233226,13.8486774 L24.9889355,13.8289355 L25.0214516,13.8179032 L25.0580323,13.8045484 L25.0957742,13.7926452 L25.1265484,13.7810323 L25.2031935,13.7540323 L25.2243871,13.7461935 L25.2714194,13.7279032 L25.2911613,13.7206452 L25.4560645,13.6500968 L25.461871,13.6500968 C25.5405484,13.6155484 25.6206774,13.5763548 25.7002258,13.5357097 C28.2507097,12.1108065 29.5382903,7.32396774 33.5412581,0.173322581 L32.4232258,0.173322581 L32.4246774,0.172451613 L32.4246774,0.172451613 Z" id="Shape" fill="url(#linearGradient-15)"></path>
                <path d="M10.287,0.486870968 L10.3052903,0.491516129 L10.3517419,0.496451613 L10.3674194,0.496451613 L10.4521935,0.507483871 L10.4664194,0.512129032 L10.5378387,0.524032258 L10.5558387,0.528387097 L10.7204516,0.564967742 L10.7355484,0.569612903 L10.8017419,0.588193548 L10.8200323,0.593709677 L10.8987097,0.616064516 L10.9048065,0.620709677 L10.9736129,0.644225806 L10.9997419,0.652645161 L11.0490968,0.672677419 L11.0769677,0.682548387 L11.1425806,0.70983871 L11.1745161,0.723483871 L11.214,0.740612903 L11.2488387,0.75716129 L11.2833871,0.77516129 C11.5676129,0.914516129 11.8289032,1.1006129 12.0710323,1.32619355 C12.1604516,1.23241935 12.2533548,1.14822581 12.3503226,1.07245161 C11.8210645,0.697064516 11.2209677,0.483096774 10.5297097,0.483096774 C10.4495806,0.483096774 10.3694516,0.487741935 10.2881613,0.49383871" id="Shape" fill="#7DCBEC"></path>
                <path d="M12.069871,1.31922581 C12.2182258,1.45712903 12.3601935,1.611 12.4943226,1.77706452 C12.6243871,1.68677419 12.7532903,1.59967742 12.8824839,1.5183871 C12.7132258,1.34912903 12.5346774,1.19670968 12.3485806,1.06548387 C12.2519032,1.14096774 12.1592903,1.22574194 12.069871,1.31922581" id="Shape" fill="#5EC5ED"></path>
                <g id="Group" transform="translate(11.709290, 0.847161) scale(1, -1) translate(-11.709290, -0.847161) translate(8.778194, 0.114387)" fill="url(#linearGradient-16)">
                    <path d="M1.43184077,1.07424697 L1.67365626,1.08450581 C2.3653951,1.08450581 2.96480439,0.870535742 3.49386735,0.495355355 C4.05224129,0.936485419 4.7278591,1.090368 5.66581006,1.090368 L1.12407561,1.090368 L1.43184077,1.07424697" id="Shape"></path>
                </g>
                <g id="Group" transform="translate(13.907613, 0.847161) scale(1, -1) translate(-13.907613, -0.847161) translate(11.709290, 0.114387)" fill="url(#linearGradient-17)">
                    <path d="M2.73471329,1.090368 C1.79676232,1.090368 1.12261006,0.936485419 0.562770581,0.495355355 C0.747429677,0.364921548 0.926226581,0.212504516 1.09623019,0.0425009032 C1.87443639,0.53639071 2.64384929,0.864673548 3.40300335,1.00683174 C3.69318194,1.06105703 3.98189497,1.08890245 4.26621135,1.08890245 L2.73471329,1.08890245 L2.73471329,1.090368 L2.73471329,1.090368 Z" id="Shape"></path>
                </g>
                <path d="M25.6526129,8.478 C26.0564516,7.23425806 26.5177742,5.72429032 27.090871,3.89264516 C27.6067742,2.24245161 28.5207097,1.00858065 30.2365161,0.470322581 L30.3689032,0.189870968 C27.5713548,0.357387097 26.2637419,1.78054839 25.6061613,3.888 C24.4553226,7.56725806 23.7582581,9.95225806 23.0870323,11.4720968 C23.9440645,10.6525161 24.8010968,9.64654839 25.6526129,8.478" id="Shape" fill="url(#linearGradient-18)"></path>
            </g>
            <path d="M6.212,33 L15.932,33 L15.932,29.904 L9.74,29.904 L9.74,16.464 L6.212,16.464 L6.212,33 Z M18.676,16.464 L18.676,33 L22.18,33 L22.18,16.464 L18.676,16.464 Z M38.676,16.464 L35.148,16.464 L35.148,26.352 L29.484,16.464 L26.268,16.464 L26.268,33 L29.772,33 L29.772,22.992 L35.532,33 L38.676,33 L38.676,16.464 Z M55.172,31.704 C57.356,30.144 58.772,27.6 58.772,24.768 C58.772,20.064 55.052,16.272 50.276,16.272 C45.524,16.272 41.804,20.064 41.804,24.768 C41.804,29.424 45.524,33.24 50.276,33.24 C51.044,33.24 51.788,33.144 52.508,32.952 L54.284,35.832 L56.756,34.344 L55.172,31.704 Z M51.788,26.184 L49.316,27.648 L50.636,29.856 C50.132,29.856 49.676,29.832 49.22,29.712 C46.94,29.232 45.332,27.216 45.332,24.768 C45.332,21.888 47.492,19.584 50.276,19.584 C53.036,19.584 55.244,21.888 55.244,24.768 C55.244,26.424 54.524,27.84 53.372,28.752 L51.788,26.184 Z" id="LINQ" fill="#000000"></path>
        </g>
    </g>
</svg>