<?xml version="1.0" encoding="UTF-8" standalone="no"?>
<svg width="64px" height="64px" viewBox="0 0 64 64" version="1.1" xmlns="http://www.w3.org/2000/svg" xmlns:xlink="http://www.w3.org/1999/xlink">
    <defs></defs>
    <g id="Languages" stroke="none" stroke-width="1" fill="none" fill-rule="evenodd">
        <g id="icons/skills/id-213">
            <g id="html5-original-wordmark" transform="translate(7.000000, 4.000000)">
                <path d="M4.8185034,50.2062585 L0.441360544,1.11183673 L48.5382313,1.11183673 L44.1567347,50.1986395 L24.4604082,55.6587755 L4.8185034,50.2062585 Z" id="Shape" fill="#E44D26"></path>
                <path d="M24.4897959,51.4851701 L40.404898,47.0726531 L44.1496599,5.12653061 L24.4897959,5.12653061 L24.4897959,51.4851701 Z" id="Shape" fill="#F16529"></path>
                <path d="M24.4897959,23.334966 L16.5219048,23.334966 L15.9722449,17.1684354 L24.4897959,17.1684354 L24.4897959,11.1472109 L9.39156463,11.1472109 L9.5352381,12.7629932 L11.0155102,29.3556463 L24.4897959,29.3556463 L24.4897959,23.334966 Z M24.4897959,38.9719728 L24.4631293,38.9790476 L17.7578231,37.1678912 L17.3289796,32.3662585 L11.2843537,32.3662585 L12.1278912,41.8204082 L24.4620408,45.2446259 L24.4897959,45.2364626 L24.4897959,38.9719728 Z" id="Shape" fill="#EBEBEB"></path>
                <path d="M24.4691156,23.334966 L24.4691156,29.3556463 L31.8835374,29.3556463 L31.1847619,37.1646259 L24.4691156,38.977415 L24.4691156,45.2413605 L36.8130612,41.8204082 L36.9034014,40.8027211 L38.3183673,24.9512925 L38.4653061,23.334966 L36.842449,23.334966 L24.4691156,23.334966 Z M24.4691156,11.1472109 L24.4691156,17.1684354 L39.0133333,17.1684354 L39.1336054,15.814966 L39.4084354,12.7629932 L39.5526531,11.1472109 L24.4691156,11.1472109 Z" id="Shape" fill="#FFFFFF"></path>
            </g>
        </g>
    </g>
</svg>