<?xml version="1.0" encoding="UTF-8" standalone="no"?>
<svg width="64px" height="64px" viewBox="0 0 64 64" version="1.1" xmlns="http://www.w3.org/2000/svg" xmlns:xlink="http://www.w3.org/1999/xlink">
    <defs></defs>
    <g id="Skills---Design" stroke="none" stroke-width="1" fill="none" fill-rule="evenodd">
        <g id="icons/skills/id-240">
            <rect id="Rectangle-7" fill="#398CB0" x="9" y="9" width="50" height="50" rx="4"></rect>
            <rect id="Rectangle-7" fill="#39BEF8" x="5" y="5" width="50" height="50" rx="4"></rect>
            <path d="M30,27 L30,33" id="Stroke-1178" stroke="#394146" stroke-width="2" stroke-linecap="round" stroke-linejoin="round"></path>
            <path d="M19,33 L19,30 L41,30 L41,33" id="Stroke-1179" stroke="#394146" stroke-width="2" stroke-linecap="round" stroke-linejoin="round"></path>
            <path d="M22,40 C22,41.657 20.657,43 19,43 C17.343,43 16,41.657 16,40 C16,38.343 17.343,37 19,37 C20.657,37 22,38.343 22,40 L22,40 Z" id="Stroke-1180" stroke="#394146" stroke-width="2" stroke-linecap="round" stroke-linejoin="round" fill="#FFFFFF"></path>
            <path d="M33,40 C33,41.657 31.657,43 30,43 C28.343,43 27,41.657 27,40 C27,38.343 28.343,37 30,37 C31.657,37 33,38.343 33,40 L33,40 Z" id="Stroke-1181" stroke="#394146" stroke-width="2" stroke-linecap="round" stroke-linejoin="round" fill="#FFFFFF"></path>
            <path d="M44,40 C44,41.657 42.657,43 41,43 C39.343,43 38,41.657 38,40 C38,38.343 39.343,37 41,37 C42.657,37 44,38.343 44,40 L44,40 Z" id="Stroke-1182" stroke="#394146" stroke-width="2" stroke-linecap="round" stroke-linejoin="round" fill="#FFFFFF"></path>
            <path d="M34,23 L26,23 L26,18 L34,18 L34,23 Z" id="Stroke-1183" stroke="#394146" stroke-width="2" stroke-linecap="round" stroke-linejoin="round" fill="#FFFFFF"></path>
        </g>
    </g>
</svg>