<?xml version="1.0" encoding="UTF-8" standalone="no"?>
<svg width="64px" height="64px" viewBox="0 0 64 64" version="1.1" xmlns="http://www.w3.org/2000/svg" xmlns:xlink="http://www.w3.org/1999/xlink">
    <defs>
        <linearGradient x1="50%" y1="0%" x2="50%" y2="100%" id="linearGradient-1">
            <stop stop-color="#A5A383" offset="0%"></stop>
            <stop stop-color="#A6A483" offset="80.198871%"></stop>
            <stop stop-color="#C2C0A6" offset="93.3769782%"></stop>
            <stop stop-color="#EEECDE" offset="100%"></stop>
        </linearGradient>
        <linearGradient x1="50%" y1="0%" x2="50%" y2="100%" id="linearGradient-2">
            <stop stop-color="#589D4B" offset="0%"></stop>
            <stop stop-color="#488E41" offset="100%"></stop>
        </linearGradient>
        <linearGradient x1="50%" y1="0%" x2="50%" y2="100%" id="linearGradient-3">
            <stop stop-color="#88C078" offset="0%"></stop>
            <stop stop-color="#59A84F" offset="100%"></stop>
        </linearGradient>
    </defs>
    <g id="Database" stroke="none" stroke-width="1" fill="none" fill-rule="evenodd">
        <g id="icons/skills/id-281">
            <g id="mongodb-original-wordmark-+-Imported-Layers" transform="translate(3.000000, 2.000000)">
                <g id="mongodb-original-wordmark" transform="translate(0.000000, 47.000000)">
                    <path d="M40.9470492,0.773278689 C41.0301639,0.613442623 41.1098361,0.472295082 41.1777049,0.326229508 C41.2204918,0.232786885 41.2863934,0.214098361 41.3793443,0.216557377 C41.9365574,0.232295082 42.4937705,0.249508197 43.0514754,0.254918033 C43.525082,0.259836066 43.9996721,0.250983607 44.4737705,0.24557377 C45.0078689,0.239180328 45.5419672,0.211147541 46.0755738,0.226393443 C46.7862295,0.24704918 47.4786885,0.386229508 48.1214754,0.702459016 C48.8891803,1.08065574 49.47,1.65655738 49.8659016,2.41540984 C50.1186885,2.89983607 50.2652459,3.41377049 50.3237705,3.95967213 C50.4083607,4.7504918 50.3527869,5.52311475 50.1019672,6.2795082 C49.7911475,7.21688525 49.2009836,7.93442623 48.3811475,8.47196721 C47.7501639,8.88557377 47.0581967,9.13 46.3165574,9.26967213 C45.5316393,9.41770492 44.7442623,9.37 43.9568852,9.37245902 C43.0932787,9.37590164 42.2301639,9.35721311 41.3665574,9.34737705 C41.2155738,9.34590164 41.1939344,9.31737705 41.2337705,9.17327869 L41.2706557,9.0404918 C41.3547541,8.77590164 41.4,8.76409836 41.6685246,8.71983607 C41.8544262,8.68983607 42.0472131,8.62 42.2031148,8.51672131 C42.2936066,8.45672131 42.3309836,8.30032787 42.3663934,8.17983607 C42.3968852,8.07459016 42.3983607,7.95901639 42.3993443,7.84786885 C42.4116393,6.16344262 42.4244262,4.4795082 42.4313115,2.79606557 C42.4327869,2.37065574 42.4229508,1.9442623 42.3993443,1.51934426 C42.382623,1.22180328 42.2237705,1.01819672 41.8696721,0.947868852 C41.5942623,0.893278689 41.3168852,0.850983607 41.04,0.802295082 L40.9470492,0.773278689 L40.9470492,0.773278689 Z M48.8532787,4.85180328 C48.8159016,4.51639344 48.7977049,4.17803279 48.7377049,3.84754098 C48.5940984,3.0542623 48.2468852,2.36327869 47.6370492,1.82180328 C46.6509836,0.946885246 45.4637705,0.812131148 44.2195082,0.916393443 C43.9362295,0.94 43.8752459,1.03688525 43.8708197,1.32803279 C43.8639344,1.74114754 43.8570492,2.1542623 43.8565574,2.56737705 C43.8545902,3.87754098 43.8545902,5.18770492 43.8565574,6.49786885 C43.8570492,6.87065574 43.8609836,7.24344262 43.8718033,7.6152459 C43.8836066,7.99590164 44.0218033,8.31803279 44.3945902,8.46557377 C44.9822951,8.69819672 45.6004918,8.7257377 46.2172131,8.63081967 C47.2022951,8.47983607 47.8913115,7.90590164 48.3536066,7.0457377 C48.7195082,6.36311475 48.8227869,5.61803279 48.8532787,4.85180328 L48.8532787,4.85180328 Z M51.2478689,9.31295082 C51.2360656,9.10885246 51.3196721,8.94016393 51.4229508,8.7852459 C51.4509836,8.74344262 51.547377,8.74540984 51.6137705,8.73213115 L52.177377,8.6204918 C52.3765574,8.57819672 52.4813115,8.44442623 52.5093443,8.24918033 C52.5280328,8.12032787 52.5457377,7.99 52.5472131,7.85967213 C52.5595082,6.82836066 52.5713115,5.79704918 52.5762295,4.7657377 C52.5811475,3.73295082 52.5772131,2.70016393 52.5772131,1.66737705 L52.5727869,1.47016393 C52.552623,1.13819672 52.3922951,0.966065574 52.0627869,0.917377049 L51.3481967,0.808688525 C51.2601639,0.796885246 51.2281967,0.754590164 51.2601639,0.676393443 C51.3152459,0.543114754 51.3678689,0.404918033 51.4455738,0.284918033 C51.4745902,0.240655738 51.572459,0.223442623 51.6383607,0.224918033 C51.9796721,0.229836066 52.3209836,0.255409836 52.6622951,0.254918033 L55.6332787,0.237213115 C56.2057377,0.236721311 56.7585246,0.336557377 57.2719672,0.610491803 C57.8370492,0.91147541 58.1532787,1.37721311 58.2437705,2.01163934 C58.3381967,2.67803279 58.1360656,3.23967213 57.6491803,3.6857377 C57.4490164,3.86967213 57.1898361,3.98967213 56.9577049,4.13918033 L56.8819672,4.18639344 C57.097377,4.26557377 57.302459,4.33393443 57.5021311,4.41557377 C58.0863934,4.65508197 58.5511475,5.02934426 58.7970492,5.62688525 C58.9913115,6.09852459 58.9913115,6.59032787 58.8762295,7.07918033 C58.6972131,7.84442623 58.1931148,8.35344262 57.537541,8.73852459 C56.9222951,9.1 56.2563934,9.3104918 55.5472131,9.34590164 C54.8931148,9.37885246 54.2360656,9.36655738 53.5804918,9.37393443 L53.2008197,9.37590164 C52.5693443,9.36163934 51.937377,9.34540984 51.3054098,9.32868852 L51.2478689,9.31295082 L51.2478689,9.31295082 Z M53.9709836,6.31836066 L53.977377,6.31836066 C53.977377,6.64196721 53.9729508,6.96557377 53.9788525,7.28918033 C53.9827869,7.49868852 53.9754098,7.71409836 54.0206557,7.9157377 C54.0885246,8.21721311 54.2262295,8.48918033 54.5645902,8.5757377 C55.0214754,8.69327869 55.4881967,8.71688525 55.9504918,8.63672131 C56.5293443,8.53590164 56.9911475,8.2457377 57.2444262,7.69442623 C57.4322951,7.2847541 57.4603279,6.8504918 57.3959016,6.40688525 C57.3103279,5.82262295 57,5.39868852 56.4840984,5.12081967 C56.1457377,4.93836066 55.7847541,4.82672131 55.4001639,4.81196721 C54.9693443,4.7957377 54.5380328,4.7947541 54.1072131,4.78147541 C53.9862295,4.77803279 53.9695082,4.8395082 53.97,4.93885246 C53.972459,5.39819672 53.9709836,5.85803279 53.9709836,6.31836066 L53.9709836,6.31836066 Z M54.8881967,4.11754098 C55.1237705,4.1057377 55.3903279,4.10229508 55.6554098,4.0757377 C56.1629508,4.02508197 56.5204918,3.76983607 56.7068852,3.28442623 C56.8018033,3.03803279 56.7978689,2.7842623 56.8003279,2.52803279 C56.8077049,1.86065574 56.4181967,1.31377049 55.7842623,1.08754098 C55.294918,0.91295082 54.7903279,0.91 54.2827869,0.923770492 C54.0772131,0.929180328 53.9852459,1.01918033 53.9822951,1.22622951 L53.9518033,3.9257377 C53.9503279,4.03295082 53.9965574,4.07918033 54.1008197,4.08262295 L54.8881967,4.11754098 L54.8881967,4.11754098 Z" id="Shape" fill="#94795D"></path>
                    <path d="M3.21786885,8.79409836 L3.18196721,9.25836066 C2.84754098,9.25836066 2.53918033,9.25590164 2.23081967,9.25934426 C1.65,9.2652459 1.06918033,9.27459016 0.487868852,9.28295082 L0.431803279,9.28639344 C0.348688525,9.27655738 0.197704918,9.27655738 0.193770492,9.25196721 C0.169180328,9.11377049 0.17704918,8.96868852 0.183442623,8.82557377 C0.183934426,8.80934426 0.240491803,8.78868852 0.273442623,8.78081967 L0.725409836,8.68 C1.00721311,8.60672131 1.10655738,8.4852459 1.11983607,8.19409836 C1.13508197,7.86606557 1.15032787,7.53754098 1.15180328,7.2095082 C1.15622951,6.40196721 1.15131148,5.59540984 1.1547541,4.78786885 C1.1552459,4.59901639 1.08983607,4.45836066 0.913770492,4.38163934 C0.704262295,4.28918033 0.493770492,4.19868852 0.281803279,4.11311475 C0.18147541,4.07278689 0.051147541,4.05065574 0.0629508197,3.91590164 C0.0747540984,3.77868852 0.201147541,3.74278689 0.320163934,3.7157377 C0.81295082,3.60311475 1.30622951,3.49344262 1.79754098,3.37344262 C1.95590164,3.33459016 2.10737705,3.26918033 2.29672131,3.20327869 C2.30655738,3.30557377 2.3247541,3.40295082 2.32278689,3.50032787 L2.29377049,3.96311475 C2.29327869,4.0152459 2.32032787,4.08508197 2.35918033,4.11409836 C2.38278689,4.13229508 2.46196721,4.09934426 2.50131148,4.06885246 C2.92131148,3.74918033 3.36590164,3.47327869 3.87295082,3.31245902 C4.65836066,3.06311475 5.33262295,3.2942623 5.8047541,3.97147541 C5.97098361,4.21 5.97147541,4.21 6.20213115,4.04327869 C6.59803279,3.75557377 7.01213115,3.50180328 7.47540984,3.33459016 C8.49245902,2.96721311 9.46967213,3.43344262 9.82327869,4.45786885 C9.95213115,4.82967213 10.0013115,5.21377049 10.0003279,5.60622951 L9.99098361,8.21180328 C9.9904918,8.42672131 10.0618033,8.54918033 10.2663934,8.61606557 C10.4960656,8.69131148 10.7340984,8.74295082 10.9927869,8.81081967 L10.9327869,9.25885246 C10.6386885,9.25885246 10.3681967,9.25688525 10.0977049,9.25934426 C9.43672131,9.2652459 8.7757377,9.26868852 8.1152459,9.28393443 C8.00016393,9.28688525 7.97016393,9.25836066 7.9642623,9.15065574 C7.94508197,8.80590164 7.94213115,8.80639344 8.26672131,8.72868852 L8.37590164,8.70065574 C8.69311475,8.61409836 8.79885246,8.51672131 8.80131148,8.19508197 C8.80868852,7.27147541 8.82786885,6.34540984 8.78114754,5.42377049 C8.73245902,4.46770492 7.97360656,3.95868852 7.04704918,4.20360656 C6.74459016,4.28327869 6.47065574,4.42295082 6.21590164,4.60393443 C6.12983607,4.66540984 6.11360656,4.73622951 6.1204918,4.84393443 C6.14655738,5.25114754 6.16278689,5.65885246 6.16622951,6.06655738 C6.17213115,6.78016393 6.16327869,7.49377049 6.16622951,8.20786885 C6.16721311,8.49704918 6.26606557,8.60770492 6.55180328,8.67459016 L6.97622951,8.77245902 L7.05491803,8.79016393 C7.06081967,8.92590164 7.06622951,9.06163934 7.05983607,9.19737705 C7.05590164,9.28245902 6.99,9.28983607 6.91622951,9.28836066 C6.50360656,9.27803279 6.0904918,9.2642623 5.67786885,9.2652459 C5.1757377,9.26622951 4.67409836,9.2804918 4.17245902,9.28934426 L4.05442623,9.28934426 C4.05442623,9.1452459 4.04754098,9.00754098 4.05934426,8.87032787 C4.06180328,8.83737705 4.11983607,8.79114754 4.15967213,8.78081967 L4.65442623,8.67606557 C4.86442623,8.62442623 4.9647541,8.51672131 4.97655738,8.30327869 C5.03262295,7.3147541 5.07295082,6.3257377 4.98,5.33770492 C4.96180328,5.14590164 4.89934426,4.95114754 4.81967213,4.77459016 C4.56639344,4.21491803 3.99639344,3.98131148 3.33885246,4.1495082 C3.02655738,4.22918033 2.7447541,4.37229508 2.47819672,4.55278689 C2.35229508,4.63836066 2.29229508,4.75147541 2.29229508,4.89459016 C2.29229508,5.88065574 2.2957377,6.86672131 2.29868852,7.85229508 L2.30409836,8.23245902 C2.31,8.49754098 2.42262295,8.63721311 2.6857377,8.6942623 C2.85491803,8.73262295 3.02606557,8.75868852 3.21786885,8.79409836 L3.21786885,8.79409836 Z" id="Shape" fill="#50382B"></path>
                    <path d="M32.9513115,3.30409836 C33.027541,3.67491803 33.0260656,4.00836066 32.7536066,4.26114754 C32.4831148,4.51245902 32.1408197,4.42786885 31.8068852,4.37180328 C31.8378689,4.54786885 31.8722951,4.69737705 31.8890164,4.84885246 C32.0104918,5.97459016 31.5260656,6.81016393 30.4819672,7.28770492 C30.087541,7.46770492 29.6690164,7.53459016 29.2416393,7.56901639 C29.0291803,7.5857377 28.8432787,7.74803279 28.8231148,7.92262295 C28.802459,8.09967213 28.9136066,8.28163934 29.1359016,8.3347541 C29.3980328,8.39721311 29.6714754,8.41491803 29.9404918,8.44590164 C30.5178689,8.51180328 31.1016393,8.54180328 31.6721311,8.64508197 C32.5347541,8.8004918 33.0162295,9.55344262 32.8642623,10.42 C32.7290164,11.1911475 32.282459,11.7522951 31.6598361,12.182623 C30.6108197,12.9095082 29.46,13.1219672 28.2344262,12.7511475 C27.5336066,12.5386885 27.0393443,12.0778689 26.8686885,11.3322951 C26.7831148,10.9590164 26.8740984,10.6211475 27.154918,10.3678689 C27.4888525,10.0678689 27.8522951,9.80032787 28.2019672,9.51704918 L28.315082,9.40344262 L28.1852459,9.31245902 C27.8286885,9.14327869 27.5434426,8.91163934 27.4327869,8.50934426 C27.394918,8.37311475 27.4342623,8.28360656 27.5498361,8.21377049 C27.7465574,8.0952459 27.9422951,7.9747541 28.1365574,7.85229508 C28.2280328,7.7952459 28.3185246,7.73622951 28.4036066,7.67032787 C28.5196721,7.58180328 28.5093443,7.51590164 28.3706557,7.4647541 C28.0480328,7.3457377 27.7613115,7.17311475 27.5390164,6.90754098 C27.1677049,6.46442623 27.062459,5.93672131 27.0929508,5.3795082 C27.1406557,4.50901639 27.6132787,3.93557377 28.3814754,3.56672131 C29.2947541,3.12852459 30.2109836,3.10098361 31.1419672,3.50032787 C31.4862295,3.64786885 31.8491803,3.67934426 32.2185246,3.65377049 C32.4944262,3.63409836 32.7354098,3.52983607 32.9513115,3.30409836 L32.9513115,3.30409836 Z M29.5859016,9.54065574 C28.9003279,9.5347541 28.6854098,9.61934426 28.2831148,10.0290164 C27.832623,10.4883607 27.835082,11.1252459 28.2845902,11.5865574 C28.6259016,11.9362295 29.0518033,12.1 29.5254098,12.1491803 C30.0786885,12.2062295 30.6236066,12.1831148 31.1262295,11.9062295 C31.6622951,11.6096721 31.9288525,11.0588525 31.8083607,10.5040984 C31.7085246,10.0462295 31.3711475,9.83672131 30.9604918,9.71622951 C30.4932787,9.5795082 30.0103279,9.55344262 29.5859016,9.54065574 L29.5859016,9.54065574 Z M28.2393443,5.15967213 C28.2644262,5.35 28.2747541,5.54278689 28.3170492,5.72918033 C28.4267213,6.21213115 28.6367213,6.63655738 29.1172131,6.85147541 C29.6813115,7.1047541 30.4018033,6.99606557 30.6486885,6.2042623 C30.8178689,5.66180328 30.7972131,5.12327869 30.5931148,4.59409836 C30.5021311,4.35803279 30.3555738,4.15836066 30.1455738,4.01180328 C29.6557377,3.67 28.7719672,3.6247541 28.4119672,4.38016393 C28.294918,4.62557377 28.2491803,4.88672131 28.2393443,5.15967213 L28.2393443,5.15967213 Z" id="Shape" fill="#4F382B"></path>
                    <path d="M21.3196721,3.18262295 C21.3378689,3.26672131 21.3742623,3.36213115 21.3752459,3.45803279 C21.3767213,3.6404918 21.3570492,3.82295082 21.3467213,4.00540984 L21.3467213,4.16377049 L21.5011475,4.0457377 C21.9240984,3.69754098 22.3785246,3.40098361 22.9077049,3.24114754 C23.8627869,2.95344262 24.8168852,3.47622951 25.1281967,4.44901639 C25.2462295,4.81885246 25.2929508,5.19901639 25.297377,5.58557377 C25.3072131,6.4442623 25.3131148,7.30295082 25.3219672,8.16163934 C25.324918,8.47 25.3603279,8.52508197 25.6519672,8.61409836 C25.8172131,8.6647541 25.9878689,8.70016393 26.1585246,8.72672131 C26.252459,8.74147541 26.2927869,8.77836066 26.2878689,8.87032787 L26.2888525,8.95491803 C26.2854098,9.3104918 26.2608197,9.32672131 25.9160656,9.3257377 C25.0908197,9.3242623 24.2660656,9.32918033 23.4408197,9.33606557 C23.194918,9.33803279 23.1944262,9.34540984 23.1698361,9.10245902 L23.164918,8.96278689 C23.1801639,8.75327869 23.185082,8.7552459 23.3911475,8.7247541 C23.5298361,8.70409836 23.667541,8.67213115 23.8027869,8.63672131 C23.9419672,8.60081967 24.0088525,8.49803279 24.027541,8.36032787 C24.0368852,8.2904918 24.0491803,8.22065574 24.0486885,8.15081967 C24.0368852,7.21245902 24.0521311,6.27311475 24.0009836,5.33622951 C23.9596721,4.57836066 23.3813115,4.12688525 22.6204918,4.17852459 C22.2472131,4.20459016 21.9098361,4.32901639 21.6019672,4.54393443 C21.3988525,4.68606557 21.3580328,4.89114754 21.3590164,5.11196721 C21.3629508,5.98934426 21.3713115,6.86672131 21.3806557,7.74459016 C21.382623,7.93688525 21.3880328,8.12918033 21.4062295,8.32 C21.4254098,8.52852459 21.4986885,8.61262295 21.7032787,8.65786885 C21.8990164,8.70114754 22.0986885,8.72622951 22.3077049,8.76114754 L22.3254098,8.92245902 C22.3322951,9.29868852 22.2929508,9.32672131 21.927541,9.3252459 C21.0742623,9.32180328 20.2209836,9.32721311 19.3681967,9.33655738 C19.2339344,9.33852459 19.1768852,9.29622951 19.1803279,9.16540984 L19.1783607,9.10934426 C19.1562295,8.7704918 19.1660656,8.75770492 19.4867213,8.70262295 L19.6381967,8.67213115 C19.9854098,8.59393443 20.0744262,8.50147541 20.0793443,8.14885246 C20.0955738,7.03196721 20.1014754,5.91557377 20.1127869,4.79868852 C20.1142623,4.63836066 20.0537705,4.51393443 19.9042623,4.44754098 C19.6947541,4.35508197 19.4832787,4.26704918 19.2713115,4.18 C19.1542623,4.13180328 19.0204918,4.10131148 19.0160656,3.9395082 C19.0131148,3.82540984 19.135082,3.72459016 19.3018033,3.69065574 C19.6367213,3.62278689 19.9745902,3.56622951 20.3055738,3.48311475 C20.635082,3.40098361 20.9586885,3.29081967 21.3196721,3.18262295 L21.3196721,3.18262295 Z" id="Shape" fill="#4F372B"></path>
                    <path d="M39.7696721,6.1 C39.7539344,7.14311475 39.4829508,7.98655738 38.7452459,8.6195082 C37.8108197,9.42262295 36.3531148,9.69557377 35.1614754,9.09508197 C34.6529508,8.83885246 34.2791803,8.44590164 34.0357377,7.93590164 C33.662459,7.15147541 33.5690164,6.32672131 33.7637705,5.48180328 C33.9565574,4.64622951 34.462623,4.04081967 35.22,3.64885246 C35.9990164,3.24606557 36.8193443,3.08868852 37.6844262,3.30016393 C38.7786885,3.56721311 39.565082,4.45934426 39.7214754,5.59540984 C39.7495082,5.79459016 39.7603279,5.99622951 39.7696721,6.1 L39.7696721,6.1 Z M38.5022951,6.66508197 L38.46,6.66016393 C38.46,6.56180328 38.4654098,6.46344262 38.4590164,6.36508197 C38.4231148,5.75229508 38.2854098,5.16852459 37.9303279,4.65557377 C37.5934426,4.16967213 37.1345902,3.88295082 36.537541,3.84114754 C35.8691803,3.79393443 35.307541,4.16770492 35.1103279,4.85032787 C34.8142623,5.8752459 34.9145902,6.87409836 35.434918,7.81295082 C35.6616393,8.22213115 35.997541,8.52409836 36.447541,8.68295082 C37.3293443,8.99327869 38.1113115,8.59147541 38.3409836,7.68852459 C38.4255738,7.35508197 38.4501639,7.00639344 38.5022951,6.66508197 L38.5022951,6.66508197 Z" id="Shape" fill="#4F382B"></path>
                    <path d="M18.1077049,6.18065574 C18.0895082,6.92918033 17.9129508,7.62114754 17.4506557,8.22262295 C16.9554098,8.86688525 16.2747541,9.21114754 15.5006557,9.35622951 C14.5854098,9.52737705 13.7257377,9.37196721 12.9904918,8.75770492 C12.6413115,8.46557377 12.4027869,8.09131148 12.2454098,7.66540984 C11.9872131,6.96704918 11.9227869,6.25147541 12.0816393,5.52213115 C12.2513115,4.74163934 12.6919672,4.14508197 13.375082,3.7447541 C14.164918,3.28295082 15.0172131,3.07688525 15.927541,3.28442623 C17.0980328,3.55196721 17.7737705,4.3147541 18.0236066,5.4695082 C18.0737705,5.70262295 18.0806557,5.94360656 18.1077049,6.18065574 L18.1077049,6.18065574 Z M16.8260656,6.67442623 L16.7921311,6.6695082 L16.7921311,6.52885246 C16.7729508,5.84229508 16.6386885,5.18819672 16.2290164,4.61770492 C15.9255738,4.1942623 15.5193443,3.92868852 14.9985246,3.85442623 C14.1496721,3.73344262 13.594918,4.23704918 13.4109836,4.92114754 C13.1709836,5.8147541 13.2462295,6.69754098 13.617541,7.54491803 C13.8491803,8.07311475 14.215082,8.4847541 14.7772131,8.68442623 C15.6536066,8.9957377 16.447377,8.58360656 16.6691803,7.68409836 C16.7508197,7.35508197 16.7754098,7.01180328 16.8260656,6.67442623 L16.8260656,6.67442623 Z" id="Shape" fill="#4F372B"></path>
                </g>
                <g id="Imported-Layers" transform="translate(19.000000, 0.000000)">
                    <path d="M12.1955738,45.7591765 L10.8939672,45.3546471 C10.8939672,45.3546471 11.0595082,39.1771176 8.68386885,38.7445147 C7.11754098,37.0428529 8.92478689,-33.9666029 14.6155738,38.5016618 C14.6155738,38.5016618 12.6680328,39.4192941 12.299082,40.9761912 C11.9308525,42.5354559 12.1955738,45.7591765 12.1955738,45.7591765" id="Fill-1" fill="url(#linearGradient-1)"></path>
                    <path d="M12.8966885,39.7933824 C12.8966885,39.7933824 24.2054098,32.8084853 21.5556721,18.3015735 C19.0047541,7.76182353 12.9807213,4.29761765 12.3329836,2.97444118 C11.6206885,2.03854412 10.9029836,0.3795 10.9029836,0.3795 L11.3840984,29.7450882 C11.3840984,29.7450882 10.3886885,38.7120441 12.8966885,39.7933824" id="Fill-2" fill="url(#linearGradient-2)"></path>
                    <path d="M10.2314426,40.1837059 C10.2314426,40.1837059 -0.376163934,33.3973529 0.234065574,21.4224706 C0.844655738,9.44792647 8.33691803,3.55992647 9.79613115,2.49211765 C10.7396066,1.54877941 10.7785574,1.18551471 10.8514098,0.255029412 C11.5124918,1.587 11.4024918,20.1520588 11.472459,22.3218382 C11.7443934,30.7685882 10.9736721,38.5892647 10.2314426,40.1837059" id="Fill-3" fill="url(#linearGradient-3)"></path>
                </g>
            </g>
        </g>
    </g>
</svg>