<?xml version="1.0" encoding="UTF-8" standalone="no"?>
<svg width="64px" height="64px" viewBox="0 0 64 64" version="1.1" xmlns="http://www.w3.org/2000/svg" xmlns:xlink="http://www.w3.org/1999/xlink">
    <defs></defs>
    <g id="Tools" stroke="none" stroke-width="1" fill="none" fill-rule="evenodd">
        <g id="icons/skills/id-205">
            <path d="M19.7158565,25 L44.6554546,25 L42.5630073,43 L21.3582175,43 L19.7158565,25 Z" id="Path-187" fill="#FFFFFF"></path>
            <path d="M19.0107219,18.0900635 C19.4381353,22.5893574 19.8621372,27.0633087 20.2958863,31.6376558 C21.0030435,30.4216963 21.51477,29.2554473 22.2867459,28.3002246 C23.0055997,27.410308 23.9115992,26.5891088 24.8975255,26.0203614 C26.1846394,25.2776271 27.8723619,25.9769865 28.2895408,27.2943166 C28.4016333,27.6476516 28.1340735,28.121364 28.0405006,28.540005 C27.725667,28.3738158 27.3196974,28.2821924 27.1140321,28.0277912 C26.2401982,26.9473174 25.713851,26.8196294 24.7474191,27.7534084 C22.9446799,29.4962024 21.9309742,31.6795686 21.5440115,34.1334188 C21.4694456,34.608106 21.766247,35.1407889 21.8914981,35.646667 C22.3842176,35.4770662 22.9563765,35.4146844 23.3545484,35.1183704 C24.6489727,34.1548626 25.4511648,32.8443555 25.8936863,31.2779852 C25.989696,30.9387837 26.5101949,30.7199597 26.8357504,30.4455768 C26.9917051,30.7662588 27.3474768,31.1439616 27.2729109,31.3978754 C26.5871975,33.7566907 25.843001,36.1003978 25.0622527,38.4299715 C24.9833006,38.6658531 24.5500389,38.7833065 24.2805296,38.9558314 C24.1718487,38.6458714 23.9432775,38.3212906 23.9798294,38.0293628 C24.0617056,37.36753 24.2746813,36.7217799 24.4233257,36.1155059 L20.8948499,37.7398719 C21.0922301,39.992443 21.2969207,42.5193969 21.5396253,45.0429394 C21.7257962,46.969955 22.0411172,47.4690101 23.9388913,47.834529 C26.1534484,48.2609677 28.409431,48.5334011 30.66054,48.699103 C33.986762,48.9442443 37.2837424,48.6411073 40.519803,47.7711724 C41.7245533,47.4475663 42.2050888,46.6551214 42.2913512,45.4723022 C42.3703033,44.3830559 42.5467271,43.3006326 42.6690541,42.2143105 C42.9093218,40.0743192 43.1427666,37.9338406 43.3883953,35.7041753 C42.5759686,36.2188259 41.9370416,36.7948837 41.189921,37.0390503 C40.6460288,37.2169362 39.959828,36.9566867 39.3364965,36.8913807 C39.4558993,36.3192218 39.448589,35.6744465 39.7244339,35.1919615 C40.1737784,34.4034154 40.8083192,33.7196514 41.363908,32.9915378 L41.1246149,32.7035089 C40.726443,32.9389031 40.2317741,33.0933957 39.9486188,33.4272363 C39.372561,34.1066141 38.8086872,34.833753 38.4231866,35.6300968 C37.7779239,36.9630224 37.2861792,38.3700264 36.7086593,39.7365798 C36.4576697,40.3292077 36.2412825,41.2356946 35.4005891,40.88967 C34.5014126,40.5187902 35.1340039,39.7268326 35.3450302,39.1634461 C35.6808202,38.264757 36.1243165,37.4060313 36.4245293,36.7451731 C35.5736013,36.8465437 34.7109767,36.9688707 33.8444533,37.0444113 C33.4779597,37.0756022 33.0422612,36.8748105 32.7425357,37.0102962 C31.7458875,37.4606154 31.1142708,37.2798054 30.9071435,36.1764257 C30.4456149,36.4761512 30.0547534,36.8821209 29.5941996,36.9912892 C29.0351994,37.1243381 28.2768695,37.2115752 27.8674883,36.9323188 C27.5394961,36.7086212 27.4200932,35.8679278 27.5321857,35.374721 C27.7549085,34.3941556 28.1711127,33.4516042 28.5663605,32.5192874 C28.8110144,31.9417675 29.0571305,31.0196852 29.8827158,31.4212686 C30.698554,31.8174911 29.9577691,32.486147 29.7696487,33.0227287 C29.4777209,33.8522129 29.1804322,34.6802351 28.8860677,35.5087446 L29.3539318,35.7914125 C29.7993775,35.4044498 30.3544789,35.0891289 30.6663883,34.6144417 C31.1771401,33.8385669 31.485638,32.93208 31.9690977,32.1357362 C32.169402,31.8057945 32.6007143,31.6166994 32.9277319,31.3637603 C32.9940127,31.7838634 33.1528915,32.215663 33.1002568,32.6211453 C33.0481095,33.0310138 32.7600806,33.4057925 32.6221581,33.8112748 C32.4150307,34.4185235 32.2478668,35.0394183 32.0373279,35.7456008 C33.0330013,35.7836148 33.4594401,35.3644864 33.7406459,34.6251635 C34.6305626,32.2892541 35.5302264,29.9557815 36.508355,27.6559367 C36.675519,27.262151 37.243779,27.0399155 37.6273301,26.7377532 C37.6716798,27.2124404 37.8831934,27.7504842 37.7325996,28.1506056 C36.9308948,30.2701278 36.0307436,32.351636 35.1846892,34.4545881 C35.0418932,34.8088977 34.9960815,35.202196 34.9059202,35.5774621 C36.3967499,34.9073441 37.6409762,34.1665592 38.0951943,32.5821566 C38.2063121,32.1971434 38.6615049,31.9110639 38.9583063,31.5791728 L39.6484059,32.3102106 C39.8579701,32.1337868 40.0499894,31.9329951 40.2775858,31.7863001 C40.9940028,31.3247716 41.7654914,30.9178273 42.5208971,31.6327822 C43.3026202,32.3721051 42.7109669,33.092421 42.3025605,33.7318354 C41.8580895,34.4292454 41.31371,35.0623241 40.8127055,35.7231823 C41.9394784,34.9970181 43.4780692,34.6714626 43.6827598,33.1021682 C44.1818149,29.2690934 44.6204376,25.4282208 45.0653959,21.588323 C45.1974701,20.451803 45.2681371,19.3079725 45.3709697,18.1236913 C36.496171,20.272455 27.8119295,20.2856137 19.0107219,18.0900635 L19.0107219,18.0900635 Z M22.8199161,47.9987688 C23.2473295,49.1279785 23.8964911,50.2372065 24.0665792,51.4156394 C24.4257624,53.9240737 24.5168985,56.470522 24.7712996,58.9960139 C24.8083389,59.3639696 25.0466572,59.8693604 25.3439459,60.0311634 C29.7204255,62.409473 34.1393052,62.8217783 38.604484,60.2207459 C39.2707031,59.8328085 39.3940048,59.3205947 39.4802673,58.6002788 C39.8979335,55.1005572 38.9680534,51.3883473 41.2055164,48.092829 C34.9400352,49.6470153 28.8251478,49.6952638 22.8199161,47.9987688 L22.8199161,47.9987688 Z M37.9236441,18.7182687 C40.049502,18.5130907 42.1495299,18.0140356 44.2519946,17.6017303 C44.648217,17.5242403 45.0000899,17.2225654 45.3724318,17.0242105 C44.8816618,16.5928982 44.4571725,16.3852834 44.0136762,16.3331361 C41.8059421,16.0723993 39.5904103,15.8716075 37.3841382,15.5981994 C37.050785,15.5567739 36.4557203,15.1454433 36.4805755,15.0703901 C37.1243762,13.1307032 37.0926978,10.9351531 38.5537987,9.30055256 C40.4004002,7.23415242 42.2660086,5.18578454 44.1174836,3.13644195 C42.7402084,1.65487204 42.7216888,1.6529226 41.4735636,2.94978364 C40.7678685,3.68277086 40.1230932,4.48496299 39.3574529,5.1487453 C36.5244378,7.60405754 34.534553,10.5121259 34.1466156,14.3461754 C34.057429,15.2258575 33.5744567,15.5436153 32.6509123,15.5572613 C29.6019973,15.6016109 26.5496709,15.6854366 23.507579,15.8857409 C22.0001791,15.9846747 20.5112988,16.3716374 19.013646,16.627988 L19,17.1879629 C19.9371904,17.4769665 20.8563486,17.8566188 21.8135208,18.040353 C27.1471724,19.0628312 32.5310221,19.2382802 37.9236441,18.7182687 L37.9236441,18.7182687 Z M36.2198387,17.3790075 C35.0126517,18.3537245 34.0150288,18.3537245 33.051521,17.3790075 L36.2198387,17.3790075 L36.2198387,17.3790075 Z" id="Shape" fill="#EB4A4B"></path>
        </g>
    </g>
</svg>