<?xml version="1.0" encoding="UTF-8" standalone="no"?>
<svg width="64px" height="64px" viewBox="0 0 64 64" version="1.1" xmlns="http://www.w3.org/2000/svg" xmlns:xlink="http://www.w3.org/1999/xlink">
    <!-- Generator: Sketch 3.6.1 (26313) - http://www.bohemiancoding.com/sketch -->
    <title>icons/skills/id-270</title>
    <desc>Created with Sketch.</desc>
    <defs>
        <path id="path-1" d="M46,50 L4,50 C1.8,50 0,48.2 0,46 L0,4 C0,1.8 1.8,0 4,0 L46,0 C48.2,0 50,1.8 50,4 L50,46 C50,48.2 48.2,50 46,50 L46,50 Z"></path>
    </defs>
    <g id="Skills---Design" stroke="none" stroke-width="1" fill="none" fill-rule="evenodd">
        <g id="icons/skills/id-270">
            <g id="Group-4" transform="translate(5.000000, 5.000000)">
                <path d="M50,54 L8,54 C5.8,54 4,52.2 4,50 L4,8 C4,5.8 5.8,4 8,4 L50,4 C52.2,4 54,5.8 54,8 L54,50 C54,52.2 52.2,54 50,54 L50,54 Z" id="XMLID_18_" fill="#0288D1"></path>
                <mask id="mask-2" fill="white">
                    <use xlink:href="#path-1"></use>
                </mask>
                <use id="Mask" fill="#29B6F6" xlink:href="#path-1"></use>
                <g id="Group" opacity="0.8" mask="url(#mask-2)">
                    <g transform="translate(-7.000000, -7.000000)">
                        <g>
                            <circle id="XMLID_16_" stroke="#81D4FA" stroke-width="2" cx="16" cy="16" r="16"></circle>
                            <circle id="XMLID_15_" stroke="#81D4FA" stroke-width="2" cx="48" cy="48" r="16"></circle>
                            <path d="M57,7 L7,57" id="XMLID_14_" stroke="#81D4FA" stroke-width="2"></path>
                            <path d="M7,7 L57,57" id="XMLID_13_" stroke="#81D4FA" stroke-width="2"></path>
                        </g>
                    </g>
                </g>
                <g id="Group" mask="url(#mask-2)" stroke="#FFFFFF" stroke-width="2">
                    <g transform="translate(9.000000, 9.000000)">
                        <path d="M16,0 C16,8.8 8.8,16 0,16" id="XMLID_11_"></path>
                        <path d="M16,32 C16,23.2 23.2,16 32,16" id="XMLID_10_"></path>
                        <circle id="XMLID_9_" cx="16" cy="16" r="16"></circle>
                        <path d="M27.3,4.7 L4.7,27.3" id="XMLID_8_"></path>
                        <path d="M27.3,27.3 L4.7,4.7" id="XMLID_7_"></path>
                    </g>
                </g>
                <g id="Group" mask="url(#mask-2)" stroke="#FFFFFF" stroke-width="2" fill="#29B6F6">
                    <g transform="translate(23.000000, 22.000000)">
                        <rect id="XMLID_6_" x="16" y="0.9" width="4" height="4"></rect>
                        <rect id="XMLID_5_" x="0" y="17" width="4" height="4"></rect>
                    </g>
                </g>
                <g id="Group" mask="url(#mask-2)">
                    <g transform="translate(33.000000, 33.000000)">
                        <path d="M0,0 L6,18 L18,18 L18,6 L0,0 Z" id="XMLID_4_" stroke="#CD9800" stroke-width="2" fill="#FFCA28"></path>
                        <g id="Group" stroke="none" stroke-width="1" fill="none">
                            <path d="M0,0 L9.6,9.6" id="XMLID_3_" stroke="#CD9800"></path>
                            <circle id="XMLID_2_" stroke="#CD9800" stroke-width="2" cx="11" cy="11" r="2"></circle>
                        </g>
                    </g>
                </g>
            </g>
        </g>
    </g>
</svg>