<?xml version="1.0" encoding="UTF-8" standalone="no"?>
<svg width="64px" height="64px" viewBox="0 0 64 64" version="1.1" xmlns="http://www.w3.org/2000/svg" xmlns:xlink="http://www.w3.org/1999/xlink">
    <defs></defs>
    <g id="Technologies" stroke="none" stroke-width="1" fill="none" fill-rule="evenodd">
        <g id="icons/skills/id-283">
            <g id="Group" transform="translate(2.000000, 2.000000)">
                <circle id="Oval-3" fill="#D1D3D4" cx="30" cy="30" r="30"></circle>
                <path d="M47,37 L47,46 C47,46.5522847 46.5522847,47 46,47 L14,47 C13.4477153,47 13,46.5522847 13,46 L13,37 L10,37 C9.44771525,37 9,36.5522847 9,36 C9,35.4477153 9.44771525,35 10,35 L13,35 L13,31 L10,31 C9.44771525,31 9,30.5522847 9,30 C9,29.4477153 9.44771525,29 10,29 L13,29 L13,25 L10,25 C9.44771525,25 9,24.5522847 9,24 C9,23.4477153 9.44771525,23 10,23 L13,23 L13,14 C13,13.4477153 13.4477153,13 14,13 L46,13 C46.5522847,13 47,13.4477153 47,14 L47,23 L50,23 C50.5522847,23 51,23.4477153 51,24 C51,24.5522847 50.5522847,25 50,25 L47,25 L47,29 L50,29 C50.5522847,29 51,29.4477153 51,30 C51,30.5522847 50.5522847,31 50,31 L47,31 L47,35 L50,35 C50.5522847,35 51,35.4477153 51,36 C51,36.5522847 50.5522847,37 50,37 L47,37 L47,37 Z" id="Shape" fill="#444444"></path>
                <rect id="Rectangle-9" fill="#F6F6F6" x="15" y="15" width="30" height="30"></rect>
                <path d="M22,9.97216797 L22,13.972168 L22,15.972168 L26,15.972168 L26,13.972168 L26,9.97216797 L26,7.97216797 L22,7.97216797 L22,9.97216797 L22,9.97216797 Z M22,20.972168 L22,24.972168 L22,26.972168 L26,26.972168 L26,24.972168 L26,20.972168 L26,18.972168 L22,18.972168 L22,20.972168 L22,20.972168 Z M22,32.6970437 C22,33.4813001 22.4583703,34.1931841 23.1723174,34.5177418 L27.9745217,36.7008061 L29.6298869,33.0594099 L26,31.4318848 L26,29.972168 L22,29.972168 L22,32.6970437 Z M34,39.4065552 L34,41.2455664 L38,41.2455664 L38,38.1521993 C38,37.3679429 37.5416297,36.656059 36.8276826,36.3315013 L32.360934,34.3009339 L30.7055688,37.94233 L34,39.4065552 Z M34,46.2455664 L34,50.2455664 L34,52.2455664 L38,52.2455664 L38,50.2455664 L38,46.2455664 L38,44.2455664 L34,44.2455664 L34,46.2455664 L34,46.2455664 Z" id="Shape" fill="#0096FF"></path>
                <path d="M34.0224609,9.97216797 L34.0224609,13.972168 L34.0224609,15.972168 L38.0224609,15.972168 L38.0224609,13.972168 L38.0224609,9.97216797 L38.0224609,7.97216797 L34.0224609,7.97216797 L34.0224609,9.97216797 L34.0224609,9.97216797 Z M34.0224609,20.972168 L34.0224609,24.972168 L34.0224609,26.972168 L38.0224609,26.972168 L38.0224609,24.972168 L38.0224609,20.972168 L38.0224609,18.972168 L34.0224609,18.972168 L34.0224609,20.972168 L34.0224609,20.972168 Z M34.0224608,31.3776855 L30.4007277,33.1693266 L32.1269155,36.7776885 L36.8855548,34.5012246 C37.5802775,34.1688794 38.0224609,33.4671689 38.0224609,32.6970437 L38.0224609,29.972168 L34.0224609,29.972168 L34.0224608,31.3776855 Z M23.1369061,36.6442331 C22.4421835,36.9765783 22,37.6782888 22,38.448414 L22,41.3962045 L26,41.3962045 L26,39.6884156 L29.4206441,38.0723293 L27.6944562,34.4639674 L23.1369061,36.6442331 Z M22,46.3962045 L22,50.3962045 L22,52.3962045 L26,52.3962045 L26,50.3962045 L26,46.3962045 L26,44.3962045 L22,44.3962045 L22,46.3962045 L22,46.3962045 Z" id="Shape" fill="#EF3A3A"></path>
            </g>
        </g>
    </g>
</svg>