<?xml version="1.0" encoding="UTF-8" standalone="no"?>
<svg width="64px" height="64px" viewBox="0 0 64 64" version="1.1" xmlns="http://www.w3.org/2000/svg" xmlns:xlink="http://www.w3.org/1999/xlink" xmlns:sketch="http://www.bohemiancoding.com/sketch/ns">
    <!-- Generator: Sketch 3.4.2 (15857) - http://www.bohemiancoding.com/sketch -->
    <title>icons/skills/id-24</title>
    <desc>Created with Sketch.</desc>
    <defs></defs>
    <g id="Languages" stroke="none" stroke-width="1" fill="none" fill-rule="evenodd" sketch:type="MSPage">
        <g id="icons/skills/id-24" sketch:type="MSArtboardGroup" fill="#A90533">
            <g id="Group" sketch:type="MSLayerGroup" transform="translate(2.000000, 13.000000)">
                <path d="M9.38095238,38.047619 C4.76190476,33.0952381 2,26.2857143 2.04761905,18.1428571 C2,10.952381 4.28571429,4.76190476 8.19047619,0.0476190476 L0,0.0476190476 L0,38 L9.38095238,38.047619 L9.38095238,38.047619 Z M52.4285714,38.047619 C54.4285714,35.9047619 56.2380952,33.3809524 57.8571429,30.4761905 L48.8095238,25.952381 C45.6190476,31.0952381 41,35.8571429 34.5714286,35.9047619 C25.2380952,35.8571429 21.5714286,27.8571429 21.5714286,17.5714286 L56.4761905,17.5714286 C56.5238095,16.4285714 56.5238095,15.8571429 56.4761905,15.3333333 C56.7142857,9.19047619 55.0952381,4.04761905 52.1428571,0.0476190476 L60,0.0476190476 L60,38 L52.4285714,38.047619 L52.4285714,38.047619 Z M22.1428571,8.76190476 C22.5238095,4.0952381 26.1904762,1 30.5238095,0.952380952 C34.8571429,0.952380952 38,4.0952381 38.0952381,8.76190476 L22.1428571,8.76190476 L22.1428571,8.76190476 Z" id="Shape" sketch:type="MSShapeGroup"></path>
            </g>
        </g>
    </g>
</svg>