<?xml version="1.0" encoding="UTF-8" standalone="no"?>
<svg width="64px" height="64px" viewBox="0 0 64 64" version="1.1" xmlns="http://www.w3.org/2000/svg" xmlns:xlink="http://www.w3.org/1999/xlink">
    <defs></defs>
    <g id="Skills---Design" stroke="none" stroke-width="1" fill="none" fill-rule="evenodd">
        <g id="icons/skills/id-201">
            <g id="Group" transform="translate(8.000000, 8.000000)">
                <g>
                    <g transform="translate(26.995689, 25.297204) rotate(-315.000000) translate(-26.995689, -25.297204) translate(15.995689, 7.797204)">
                        <rect id="Rectangle-20" fill="#F3531D" x="1.42108547e-14" y="-1.77635684e-14" width="22" height="31" rx="1"></rect>
                        <path d="M18.2175144,31 L22,31 L22,34.9644661 L18.2175144,31 Z" id="Rectangle-21" fill="#F0F0F0"></path>
                        <rect id="Rectangle-26" opacity="0.1" fill="#000000" x="2.13162821e-14" y="11" width="22" height="10"></rect>
                        <rect id="Rectangle-26" opacity="0.3" fill="#000000" x="2.13162821e-14" y="21" width="22" height="10"></rect>
                    </g>
                    <g transform="translate(19.442666, 24.428305) rotate(25.000000) translate(-19.442666, -24.428305) translate(8.442666, 3.428305)">
                        <rect id="Rectangle-20" fill="#2AC441" x="1.0658141e-14" y="-3.55271368e-15" width="22" height="31" rx="1"></rect>
                        <path d="M16.8486801,31 L22,31 L22,41.2518993 L16.8486801,31 Z" id="Rectangle-21" fill="#F6F6F6"></path>
                        <rect id="Rectangle-26" opacity="0.1" fill="#000000" x="3.55271368e-15" y="11" width="22" height="10"></rect>
                        <rect id="Rectangle-26" opacity="0.3" fill="#000000" x="0" y="21" width="22" height="10"></rect>
                    </g>
                    <g transform="translate(1.000000, 2.000000)">
                        <rect id="Rectangle-20" fill="#0096FF" x="0" y="0" width="22" height="31" rx="1"></rect>
                        <rect id="Rectangle-21" stroke="#A3A3AE" stroke-width="0.5" fill="#FFFFFF" x="0" y="31" width="22" height="15"></rect>
                        <rect id="Rectangle-26" opacity="0.1" fill="#000000" x="0" y="11" width="22" height="10"></rect>
                        <rect id="Rectangle-26" opacity="0.3" fill="#000000" x="0" y="21" width="22" height="10"></rect>
                    </g>
                    <circle id="Oval-7" fill="#A3A3AE" cx="12.5" cy="40.5" r="2.5"></circle>
                </g>
            </g>
        </g>
    </g>
</svg>