<?xml version="1.0" encoding="UTF-8" standalone="no"?>
<svg width="64px" height="64px" viewBox="0 0 64 64" version="1.1" xmlns="http://www.w3.org/2000/svg" xmlns:xlink="http://www.w3.org/1999/xlink">
    <defs></defs>
    <g id="Skills---Design" stroke="none" stroke-width="1" fill="none" fill-rule="evenodd">
        <g id="icons/skills/id-280">
            <g id="Group" transform="translate(18.000000, 9.000000)">
                <g>
                    <path d="M4,46 C1.7910004,46 0,44.1275902 0,41.8181839 L0,4 C0,1.7908609 1.7908611,0 4,0 L24,0 C26.2089996,0 28,1.8724098 28,4.1818199 L28,41.8181839 C28,44.1275902 26.2089996,46 24,46 L4,46 L4,46 Z" id="Shape" fill="#444444"></path>
                    <path d="M12,42 C12,40.8950005 12.8959999,40 14,40 C15.1040001,40 16,40.8950005 16,42 C16,43.1049995 15.1040001,44 14,44 C12.8959999,44 12,43.1049995 12,42" id="Shape" fill="#B3B3B3"></path>
                    <path d="M2,4.9991417 C2,4.4473305 2.4474688,4 3.0006952,4 L24.9993105,4 C25.5519714,4 26,4.4549217 26,4.9991417 L26,37.0008583 C26,37.5526695 25.5525284,38 24.9993095,38 L3.0006952,38 C2.4480257,38 2,37.5450745 2,37.0008583 L2,4.9991417 L2,4.9991417 Z" id="Shape" fill="#39BEF8"></path>
                    <path d="M16,23 L12,23 C9.238575,23 7,25.2385807 7,28 C7,28.5522804 7.4499493,29 8.0068455,29 L19.9931507,29 C20.5492191,29 21,28.5468102 21,28 C21,25.2385807 18.7614193,23 16,23 L16,23 Z" id="Shape" fill="#FFFFFF"></path>
                    <circle id="Oval" fill="#FFFFFF" cx="14" cy="17" r="4"></circle>
                </g>
            </g>
        </g>
    </g>
</svg>