<?xml version="1.0" encoding="UTF-8" standalone="no"?>
<svg width="64px" height="64px" viewBox="0 0 64 64" version="1.1" xmlns="http://www.w3.org/2000/svg" xmlns:xlink="http://www.w3.org/1999/xlink">
    <defs></defs>
    <g id="Database" stroke="none" stroke-width="1" fill="none" fill-rule="evenodd" stroke-linecap="round" stroke-linejoin="round">
        <g id="icons/skills/id-238" stroke="#FFFFFF" stroke-width="2">
            <g id="Group" transform="translate(12.000000, 8.000000)">
                <path d="M0,6.68181818 L0,42.3181818 C0,46.0087727 8.95444444,49 20,49 C31.0455556,49 40,46.0087727 40,42.3181818 L40,6.68181818" id="Stroke-5224" fill="#05C14F"></path>
                <path d="M40,6.68181818 C40,10.3724091 31.0455556,13.3636364 20,13.3636364 C8.95444444,13.3636364 0,10.3724091 0,6.68181818 C0,2.99122727 8.95444444,0 20,0 C31.0455556,0 40,2.99122727 40,6.68181818 L40,6.68181818 Z" id="Stroke-5226" fill="#34F17E"></path>
                <path d="M40,17.8181818 C40,21.5087727 31.0455556,24.5 20,24.5 C8.95444444,24.5 0,21.5087727 0,17.8181818" id="Stroke-5228"></path>
                <path d="M40,30.0681818 C40,33.7587727 31.0455556,36.75 20,36.75 C8.95444444,36.75 0,33.7587727 0,30.0681818" id="Stroke-5228"></path>
            </g>
        </g>
    </g>
</svg>