<?xml version="1.0" encoding="UTF-8" standalone="no"?>
<svg width="64px" height="64px" viewBox="0 0 64 64" version="1.1" xmlns="http://www.w3.org/2000/svg" xmlns:xlink="http://www.w3.org/1999/xlink">
    <defs></defs>
    <g id="Languages" stroke="none" stroke-width="1" fill="none" fill-rule="evenodd">
        <g id="icons/skills/id-247">
            <g id="Imported-Layers" transform="translate(10.000000, 2.000000)">
                <path d="M14.5795238,46.247619 C14.5795238,46.247619 12.3095238,47.5685714 16.1971429,48.0142857 C20.907619,48.552381 23.3147619,48.4752381 28.5042857,47.4942857 C28.5042857,47.4942857 29.8714286,48.3490476 31.7771429,49.09 C20.1395238,54.0757143 5.44,48.8009524 14.5795238,46.247619 L14.5795238,46.247619 Z M13.1566667,39.7404762 C13.1566667,39.7404762 10.61,41.6257143 14.5009524,42.0285714 C19.5328571,42.5480952 23.5057143,42.5904762 30.3838095,41.2666667 C30.3838095,41.2666667 31.3328571,42.2309524 32.827619,42.757619 C18.76,46.8719048 3.09142857,43.0814286 13.1566667,39.7404762 L13.1566667,39.7404762 Z" id="Fill-1" fill="#0074BD"></path>
                <path d="M25.1438095,28.7004762 C28.0128571,32.0028571 24.3914286,34.9719048 24.3914286,34.9719048 C24.3914286,34.9719048 31.6719048,31.2142857 28.3290476,26.5066667 C25.2057143,22.1185714 22.8114286,19.9390476 35.7742857,12.4209524 C35.7742857,12.4214286 15.4261905,17.5019048 25.1438095,28.7004762" id="Fill-2" fill="#EB2D2E"></path>
                <path d="M40.5347619,51.0614286 C40.5347619,51.0614286 42.2152381,52.4471429 38.6833333,53.5180952 C31.9680952,55.552381 10.7280952,56.1657143 4.82904762,53.5995238 C2.70952381,52.6766667 6.68571429,51.3971429 7.93666667,51.1271429 C9.24095238,50.8447619 9.98571429,50.8961905 9.98571429,50.8961905 C7.62714286,49.2357143 -5.25857143,54.1580952 3.44142857,55.57 C27.1657143,59.4157143 46.687619,53.8380952 40.5347619,51.0614286 L40.5347619,51.0614286 Z M15.672381,32.9971429 C15.672381,32.9971429 4.86952381,35.5633333 11.8471429,36.4961905 C14.7938095,36.8904762 20.6652381,36.8 26.1380952,36.3409524 C30.6095238,35.9652381 35.0966667,35.1628571 35.0966667,35.1628571 C35.0966667,35.1628571 33.5214286,35.8385714 32.3804762,36.6166667 C21.4080952,39.5028571 0.216666667,38.1585714 6.31809524,35.2080952 C11.4761905,32.7133333 15.672381,32.9971429 15.672381,32.9971429 L15.672381,32.9971429 Z M35.0519048,43.8290476 C46.2047619,38.0352381 41.047619,32.4671429 37.4480952,33.2171429 C36.5680952,33.4004762 36.1733333,33.56 36.1733333,33.56 C36.1733333,33.56 36.5009524,33.0461905 37.1257143,32.8252381 C44.2461905,30.3228571 49.7214286,40.207619 34.8290476,44.1228571 C34.8290476,44.1219048 35,43.9671429 35.0519048,43.8290476 L35.0519048,43.8290476 Z" id="Fill-3" fill="#0074BD"></path>
                <path d="M28.3290476,0.27952381 C28.3290476,0.27952381 34.5042857,6.45857143 22.4704762,15.9571429 C12.82,23.5790476 20.27,27.9238095 22.4671429,32.89 C16.8333333,27.807619 12.7009524,23.3328571 15.4728571,19.1685714 C19.5433333,13.0571429 30.82,10.0928571 28.3290476,0.27952381" id="Fill-4" fill="#EB2D2E"></path>
                <path d="M16.7685714,59.5338095 C27.4714286,60.2180952 43.9114286,59.1528571 44.3004762,54.0880952 C44.3004762,54.0880952 43.552381,56.0080952 35.4542857,57.5314286 C26.3180952,59.2514286 15.047619,59.0509524 8.3652381,57.947619 C8.3652381,57.9480952 9.73428571,59.0814286 16.7685714,59.5338095" id="Fill-5" fill="#0074BD"></path>
            </g>
        </g>
    </g>
</svg>