<?xml version="1.0" encoding="UTF-8" standalone="no"?>
<svg width="64px" height="64px" viewBox="0 0 64 64" version="1.1" xmlns="http://www.w3.org/2000/svg" xmlns:xlink="http://www.w3.org/1999/xlink">
    <!-- Generator: Sketch 3.6.1 (26313) - http://www.bohemiancoding.com/sketch -->
    <title>icons/skills/id-259</title>
    <desc>Created with Sketch.</desc>
    <defs></defs>
    <g id="Languages" stroke="none" stroke-width="1" fill="none" fill-rule="evenodd">
        <g id="icons/skills/id-259">
            <g id="Rectangle-22-+-Rectangle-25" transform="translate(9.000000, 4.000000)">
                <path d="M0,4.00490831 C0,1.79305852 1.79405245,0 4.00989318,0 L43.9901068,0 C46.2047097,0 48,1.78913646 48,4.00172845 L48,46 L38,56 L3.99484381,56 C1.7885525,56 0,54.200205 0,51.9950917 L0,4.00490831 Z" id="Rectangle-22" fill="#7E57C2"></path>
                <path d="M38,50.009763 C38,47.795232 39.7877996,46 42.009763,46 L48,46 L38,56 L38,50.009763 Z" id="Rectangle-25" fill="#5E35B1"></path>
            </g>
            <path d="M17.1586914,44.8544922 C17.1586914,46.1811523 18.1044922,47.1777344 19.6914062,47.1777344 C21.2783203,47.1777344 22.3701172,46.2827148 22.3701172,44.4038086 L22.3701172,38.3354492 L21.0561523,38.3354492 L21.0561523,44.4863281 C21.0561523,45.559082 20.4975586,46.003418 19.6850586,46.003418 C19.0185547,46.003418 18.4536133,45.578125 18.4282227,44.8544922 L17.1586914,44.8544922 Z M23.7094727,44.6196289 C23.7412109,45.7749023 24.5473633,47.1777344 26.9086914,47.1777344 C28.8066406,47.1777344 30.2094727,46.2446289 30.2094727,44.543457 C30.2094727,43.1025391 29.2446289,42.4868164 27.9306641,42.1567383 L26.4833984,41.7885742 C25.6645508,41.5917969 25.2709961,41.1665039 25.2709961,40.5825195 C25.2709961,39.7255859 25.9882812,39.2368164 27.0166016,39.2368164 C28.171875,39.2368164 28.7685547,39.8652344 28.8383789,40.6396484 L30.1015625,40.6396484 C30.0698242,38.9956055 28.6352539,38.1386719 27.0356445,38.1386719 C25.4042969,38.1386719 23.9570312,39.0336914 23.9570312,40.6777344 C23.9570312,42.0615234 24.9599609,42.7216797 26.0390625,42.9882812 L27.4990234,43.3564453 C28.4448242,43.5913086 28.8891602,43.9658203 28.8891602,44.6513672 C28.8891602,45.5209961 28.1782227,46.0732422 27.0229492,46.0732422 C25.753418,46.0732422 25.0742188,45.4067383 24.9980469,44.6196289 L23.7094727,44.6196289 Z M32.7421875,42.0869141 C32.7421875,40.2397461 33.7070312,39.2939453 34.9765625,39.2939453 C36.2524414,39.2939453 37.2109375,40.2397461 37.2109375,42.0869141 L37.2109375,43.3183594 C37.2109375,45.171875 36.2524414,46.0415039 34.9765625,46.0415039 C33.7070312,46.0415039 32.7421875,45.171875 32.7421875,43.3183594 L32.7421875,42.0869141 Z M31.421875,43.3183594 C31.421875,45.7685547 32.7929688,47.1777344 34.9638672,47.1777344 C37.1411133,47.1777344 38.53125,45.7685547 38.53125,43.3183594 L38.53125,42.0996094 C38.53125,39.6367188 37.1601562,38.1577148 34.9892578,38.1577148 C32.8183594,38.1577148 31.421875,39.6367188 31.421875,42.0996094 L31.421875,43.3183594 Z M41.4194336,47 L41.4194336,40.5507812 L41.4575195,40.5507812 L45.6787109,47 L46.8657227,47 L46.8657227,38.3354492 L45.6279297,38.3354492 L45.6279297,44.7719727 L45.5898438,44.7719727 L41.375,38.3354492 L40.1879883,38.3354492 L40.1879883,47 L41.4194336,47 Z" id="JSON" fill="#FFFFFF"></path>
            <g id="Group" transform="translate(22.000000, 12.000000)" fill="#D1C4E9">
                <path d="M2.5,11.5 C2.5,10.9 2.3,10.5 1.9,10.2 C1.5,9.9 0.9,9.8 -3.55271368e-15,9.8 L-3.55271368e-15,7.5 C0.8,7.5 1.4,7.4 1.9,7.1 C2.4,6.8 2.5,6.4 2.5,5.9 L2.5,5.8 L2.5,2.7 C2.5,1.7 2.8,1 3.4,0.6 C4,0.2 5.1,7.10542736e-15 6.7,7.10542736e-15 L6.7,2.2 C6.1,2.2 5.6,2.3 5.4,2.6 C5.2,2.9 5,3.2 5,3.6 L5,6.5 C5,7.7 4.2,8.4 2.7,8.7 L2.7,8.8 C4.2,9 5,9.7 5,10.9 L5,11 L5,13.9 C5,14.3 5.1,14.7 5.4,14.9 C5.7,15.1 6.1,15.3 6.7,15.3 L6.7,17.5 C5.1,17.5 4,17.3 3.4,16.9 C2.8,16.5 2.5,15.8 2.5,14.8 L2.5,11.5 L2.5,11.5 Z" id="Shape"></path>
                <path d="M18.3,14.7 C18.3,15.4 18.2,16 17.9,16.4 C17.6,16.8 17.2,17 16.6,17.2 C16,17.4 15.1,17.5 14,17.5 L14,15.3 C14.6,15.3 15.1,15.2 15.3,14.9 C15.5,14.6 15.7,14.3 15.7,13.9 L15.7,11 L15.7,10.9 C15.7,10.3 15.9,9.9 16.3,9.5 C16.7,9.1 17.3,8.9 18,8.8 L18,8.7 C16.5,8.5 15.8,7.8 15.7,6.5 L15.7,3.6 C15.7,3.1 15.6,2.8 15.3,2.6 C15,2.4 14.6,2.3 14,2.2 L14,0 C15.1,0 15.9,0.1 16.6,0.3 C17.3,0.5 17.7,0.7 17.9,1.1 C18.1,1.5 18.3,2 18.3,2.7 L18.3,5.8 L18.3,5.9 C18.3,6.4 18.5,6.9 18.9,7.1 C19.3,7.3 19.9,7.5 20.8,7.5 L20.8,9.8 C20,9.8 19.4,9.9 18.9,10.2 C18.4,10.5 18.3,10.9 18.3,11.5 L18.3,14.7 L18.3,14.7 Z" id="Shape"></path>
            </g>
        </g>
    </g>
</svg>