<?xml version="1.0" encoding="UTF-8" standalone="no"?>
<svg width="64px" height="64px" viewBox="0 0 64 64" version="1.1" xmlns="http://www.w3.org/2000/svg" xmlns:xlink="http://www.w3.org/1999/xlink">
    <defs>
        <radialGradient cx="38.4590345%" cy="34.6128806%" fx="38.4590345%" fy="34.6128806%" r="86.7774404%" id="radialGradient-1">
            <stop stop-color="#FD8D32" offset="0%"></stop>
            <stop stop-color="#FD8A33" stop-opacity="0.2" offset="100%"></stop>
        </radialGradient>
        <rect id="path-2" x="3" y="3" width="52" height="52"></rect>
    </defs>
    <g id="Tools" stroke="none" stroke-width="1" fill="none" fill-rule="evenodd">
        <g id="icons/skills/id-236">
            <g id="Rectangle-83-+-Rectangle-84-+-Ai" transform="translate(3.000000, 3.000000)">
                <rect id="Rectangle-83" fill="#FD8B33" x="0" y="0" width="58" height="58"></rect>
                <g id="Rectangle-84">
                    <use fill="#000000" xlink:href="#path-2"></use>
                    <use fill-opacity="0.300000012" fill="url(#radialGradient-1)" xlink:href="#path-2"></use>
                </g>
                <path d="M28.07,30.96 L27.38,28.56 C27.0599984,27.5199948 26.7550015,26.4500055 26.465,25.35 C26.1749986,24.2499945 25.8900014,23.1600054 25.61,22.08 L25.49,22.08 C25.2099986,23.1800055 24.9300014,24.2749945 24.65,25.365 C24.3699986,26.4550054 24.0700016,27.5199948 23.75,28.56 L23.06,30.96 L28.07,30.96 Z M28.85,33.69 L22.25,33.69 L20.72,39 L17.18,39 L23.57,19.38 L27.65,19.38 L34.04,39 L30.38,39 L28.85,33.69 Z M36.83,21.69 C36.2099969,21.69 35.700002,21.5100018 35.3,21.15 C34.899998,20.7899982 34.7,20.3200029 34.7,19.74 C34.7,19.1599971 34.899998,18.6850018 35.3,18.315 C35.700002,17.9449982 36.2099969,17.76 36.83,17.76 C37.4500031,17.76 37.959998,17.9449982 38.36,18.315 C38.760002,18.6850018 38.96,19.1599971 38.96,19.74 C38.96,20.3200029 38.760002,20.7899982 38.36,21.15 C37.959998,21.5100018 37.4500031,21.69 36.83,21.69 L36.83,21.69 Z M35.09,24.27 L38.54,24.27 L38.54,39 L35.09,39 L35.09,24.27 Z" id="Ai" fill="#FD8832"></path>
            </g>
        </g>
    </g>
</svg>