<?xml version="1.0" encoding="UTF-8" standalone="no"?>
<svg width="64px" height="64px" viewBox="0 0 64 64" version="1.1" xmlns="http://www.w3.org/2000/svg" xmlns:xlink="http://www.w3.org/1999/xlink">
    <!-- Generator: Sketch 3.6.1 (26313) - http://www.bohemiancoding.com/sketch -->
    <title>icons/skills/id-291</title>
    <desc>Created with Sketch.</desc>
    <defs></defs>
    <g id="Languages" stroke="none" stroke-width="1" fill="none" fill-rule="evenodd">
        <g id="icons/skills/id-291">
            <path d="M6.0065556,2 L57.9934444,2 C60.206204,2 62,3.79568082 62,6.0065556 L62,57.9934444 C62,60.206204 60.2043192,62 57.9934444,62 L6.0065556,62 C3.79379604,62 2,60.2043192 2,57.9934444 L2,6.0065556 C2,3.79379604 3.79568082,2 6.0065556,2 Z" id="bg" stroke="#D1D3D4" stroke-width="0.5" fill="#FFFFFF"></path>
            <path d="M16.003,32.318 C16.003,31.3646619 16.137332,30.4676709 16.406,29.627 C16.674668,28.7863291 17.0689974,28.0453365 17.589,27.404 C18.1090026,26.7626635 18.7503295,26.2556685 19.513,25.883 C20.2756705,25.5103315 21.1509951,25.324 22.139,25.324 C23.1270049,25.324 24.0023295,25.5103315 24.765,25.883 C25.5276705,26.2556685 26.1689974,26.7626635 26.689,27.404 C27.2090026,28.0453365 27.603332,28.7863291 27.872,29.627 C28.140668,30.4676709 28.275,31.3646619 28.275,32.318 C28.275,33.2713381 28.140668,34.1726624 27.872,35.022 C27.603332,35.8713376 27.2090026,36.6123302 26.689,37.245 C26.1689974,37.8776698 25.5276705,38.3803315 24.765,38.753 C24.0023295,39.1256685 23.1270049,39.312 22.139,39.312 C21.1509951,39.312 20.2756705,39.1256685 19.513,38.753 C18.7503295,38.3803315 18.1090026,37.8776698 17.589,37.245 C17.0689974,36.6123302 16.674668,35.8713376 16.406,35.022 C16.137332,34.1726624 16.003,33.2713381 16.003,32.318 L16.003,32.318 Z M16.991,32.318 C16.991,33.1153373 17.1036655,33.8823297 17.329,34.619 C17.5543345,35.3556703 17.8836645,36.0099971 18.317,36.582 C18.7503355,37.1540029 19.2876635,37.6089983 19.929,37.947 C20.5703365,38.2850017 21.3069958,38.454 22.139,38.454 C22.9710042,38.454 23.7076635,38.2850017 24.349,37.947 C24.9903365,37.6089983 25.5276645,37.1540029 25.961,36.582 C26.3943355,36.0099971 26.7236655,35.3556703 26.949,34.619 C27.1743345,33.8823297 27.287,33.1153373 27.287,32.318 C27.287,31.5206627 27.1743345,30.7536704 26.949,30.017 C26.7236655,29.2803296 26.3943355,28.6260029 25.961,28.054 C25.5276645,27.4819971 24.9903365,27.0270017 24.349,26.689 C23.7076635,26.3509983 22.9710042,26.182 22.139,26.182 C21.3069958,26.182 20.5703365,26.3509983 19.929,26.689 C19.2876635,27.0270017 18.7503355,27.4819971 18.317,28.054 C17.8836645,28.6260029 17.5543345,29.2803296 17.329,30.017 C17.1036655,30.7536704 16.991,31.5206627 16.991,32.318 L16.991,32.318 Z M30.615,25.636 L31.603,25.636 L31.603,28.366 L31.655,28.366 C31.7590005,27.9499979 31.9409987,27.5556685 32.201,27.183 C32.4610013,26.8103315 32.7773315,26.4853347 33.15,26.208 C33.5226685,25.9306653 33.9386644,25.7140008 34.398,25.558 C34.8573356,25.4019992 35.3383308,25.324 35.841,25.324 C36.4823365,25.324 37.0369977,25.4063325 37.505,25.571 C37.9730023,25.7356675 38.371665,25.952332 38.701,26.221 C39.030335,26.489668 39.2903324,26.7929983 39.481,27.131 C39.6716676,27.4690017 39.8016663,27.8113316 39.871,28.158 L39.923,28.158 C40.3216687,27.2219953 40.8546633,26.515669 41.522,26.039 C42.1893367,25.5623309 43.0689945,25.324 44.161,25.324 C44.7676697,25.324 45.3266641,25.4149991 45.838,25.597 C46.3493359,25.7790009 46.7913315,26.0563315 47.164,26.429 C47.5366685,26.8016685 47.826999,27.2739971 48.035,27.846 C48.243001,28.4180029 48.347,29.0939961 48.347,29.874 L48.347,39 L47.359,39 L47.359,29.848 C47.359,28.9986624 47.2290013,28.3313358 46.969,27.846 C46.7089987,27.3606642 46.4013351,26.9923346 46.046,26.741 C45.6906649,26.4896654 45.3353351,26.333667 44.98,26.273 C44.6246649,26.212333 44.3516676,26.182 44.161,26.182 C43.5543303,26.182 42.9953359,26.285999 42.484,26.494 C41.9726641,26.702001 41.5306685,27.0139979 41.158,27.43 C40.7853315,27.8460021 40.495001,28.3616636 40.287,28.977 C40.078999,29.5923364 39.975,30.2986627 39.975,31.096 L39.975,39 L38.987,39 L38.987,29.848 C38.987,29.0159958 38.8613346,28.3530025 38.61,27.859 C38.3586654,27.3649975 38.0640017,26.9966679 37.726,26.754 C37.3879983,26.5113321 37.0413351,26.3553337 36.686,26.286 C36.3306649,26.2166663 36.049001,26.182 35.841,26.182 C35.3729977,26.182 34.8876692,26.2773324 34.385,26.468 C33.8823308,26.6586676 33.4230021,26.9533313 33.007,27.352 C32.5909979,27.7506687 32.2530013,28.2619969 31.993,28.886 C31.7329987,29.5100031 31.603,30.2466624 31.603,31.096 L31.603,39 L30.615,39 L30.615,25.636 Z" id="om" fill="#3A3C3E"></path>
        </g>
    </g>
</svg>