<?xml version="1.0" encoding="UTF-8" standalone="no"?>
<svg width="64px" height="64px" viewBox="0 0 64 64" version="1.1" xmlns="http://www.w3.org/2000/svg" xmlns:xlink="http://www.w3.org/1999/xlink">
    <defs></defs>
    <g id="Technologies" stroke="none" stroke-width="1" fill="none" fill-rule="evenodd">
        <g id="icons/skills/id-237">
            <g id="Group" transform="translate(7.000000, 7.000000)">
                <path d="M47.826087,50 L2.17391304,50 C0.972826087,50 0,49.0271739 0,47.826087 L0,2.17391304 C0,0.972826087 0.972826087,0 2.17391304,0 L47.826087,0 C49.0271739,0 50,0.972826087 50,2.17391304 L50,47.826087 C50,49.0271739 49.0271739,50 47.826087,50" id="Fill-323" fill="#C6C6C6"></path>
                <path d="M44.8947368,46 L5.10526316,46 C4.49515789,46 4,45.5048421 4,44.8947368 L4,5.10526316 C4,4.49515789 4.49515789,4 5.10526316,4 L44.8947368,4 C45.5048421,4 46,4.49515789 46,5.10526316 L46,44.8947368 C46,45.5048421 45.5048421,46 44.8947368,46" id="Fill-324" fill="#FFFFFF"></path>
                <path d="M22.3210638,13.0434783 C24.0838298,13.0434783 25.5125532,14.5032609 25.5125532,16.3043478 C25.5125532,18.1054348 24.0838298,19.5652174 22.3210638,19.5652174 C20.5582979,19.5652174 19.1295745,18.1054348 19.1295745,16.3043478 C19.1295745,14.5032609 20.5582979,13.0434783 22.3210638,13.0434783" id="Fill-325" fill="#EFD358"></path>
                <path d="M24.1925532,35.1620652 L17.8095745,27.5533696 C17.4053191,27.0718478 16.5978723,27.0718478 16.193617,27.5533696 L9.8106383,35.1620652 C9.54042553,35.4838043 9.4787234,35.9381522 9.65212766,36.3240217 C9.82659574,36.7088043 10.2031915,36.9566304 10.6191489,36.9566304 L23.3851064,36.9566304 C23.8,36.9566304 24.1776596,36.7088043 24.3510638,36.3240217 C24.5244681,35.9381522 24.462766,35.4838043 24.1925532,35.1620652" id="Fill-326" fill="#4DA34D"></path>
                <path d="M39.138617,35.23 L30.6279787,23.2734783 C30.2279787,22.7115217 29.307766,22.7115217 28.907766,23.2734783 L19.1290426,36.956087 L38.2779787,36.956087 C38.6779787,36.956087 39.045,36.7278261 39.2258511,36.3626087 C39.407766,35.9984783 39.3737234,35.5604348 39.138617,35.23" id="Fill-327" fill="#72C472"></path>
            </g>
        </g>
    </g>
</svg>