<?xml version="1.0" encoding="UTF-8" standalone="no"?>
<svg width="64px" height="64px" viewBox="0 0 64 64" version="1.1" xmlns="http://www.w3.org/2000/svg" xmlns:xlink="http://www.w3.org/1999/xlink">
    <!-- Generator: Sketch 3.6.1 (26313) - http://www.bohemiancoding.com/sketch -->
    <title>icons/skills/id-261</title>
    <desc>Created with Sketch.</desc>
    <defs></defs>
    <g id="Brands" stroke="none" stroke-width="1" fill="none" fill-rule="evenodd">
        <g id="icons/skills/id-261">
            <g id="Group-10" transform="translate(2.000000, 20.000000)">
                <path d="M17.5160623,0.0263415196 L5.87764126,0.0263415196 L5.87764126,0.855288888 C8.56343074,0.954762572 9.22658863,1.3858152 9.22658863,3.3089731 L9.2265882,18.7474301 C9.2265882,20.8032196 7.40290453,21.4373458 5.87764138,21.4373458 C3.53631271,21.4373458 2.40337171,19.635615 2.40337171,18.9724571 C2.40337171,18.6157537 2.40337176,19.0158748 2.4033718,18.5234632 C3.43204152,18.5234637 6.23779281,18.7222474 6.23779281,16.3484212 C6.23779281,14.6003804 5.15200988,13.296284 3.27726674,13.296284 C1.40252361,13.296284 0.0609066613,14.3446752 0.0609066613,17.2319593 C0.0609066613,20.1192435 2.05042455,21.9185342 3.27726665,22.7474815 C4.10621402,23.3111657 6.28631579,23.7094737 7.61263158,23.7094737 C12.2215789,23.7094737 14.6421053,21.3552632 14.6421053,16.3484211 L14.5981676,4.00528889 C14.5981676,1.61792047 15.0292202,1.02107836 17.5160623,0.855288888 L17.5160623,0.0263415196 Z" id="J" fill="#4E9A06"></path>
                <path d="M36.5157895,1.82526316 L29.9457895,1.82526316 L29.9457895,2.57526316 C32.1657895,2.75526316 32.8557895,3.35526316 32.8557895,5.54526316 L32.8557895,14.5452632 C32.8557895,18.9852632 31.0857895,21.2052632 27.5757895,21.2052632 C24.6657895,21.2052632 23.1957895,19.3152632 23.1957895,15.1452632 L23.1957895,5.60526316 C23.1957895,3.14526316 23.7057895,2.75526316 26.0457895,2.57526316 L26.0457895,1.82526316 L15.9657895,1.82526316 L15.9657895,2.57526316 C18.0657895,2.78526316 18.4257895,3.02526316 18.4257895,5.45526316 L18.4257895,15.1752632 C18.4257895,18.0852632 19.1157895,19.7052632 20.8257895,21.0552632 C22.2357895,22.1652632 24.1557895,22.6752632 26.3757895,22.6752632 C28.5057895,22.6752632 30.6057895,22.0752632 31.8957895,21.0252632 C33.3657895,19.8552632 34.1757895,17.5452632 34.1757895,14.5452632 L34.1757895,5.12526316 C34.1757895,3.35526316 34.5957895,2.87526316 36.5157895,2.57526316 L36.5157895,1.82526316 Z" id="U" fill="#CC0000"></path>
                <path d="M46.5802796,22.6315789 L46.5802796,22.2842105 C45.4455428,22.1684211 45.167648,21.9136842 45.167648,20.6631579 L45.167648,15.5452632 C45.167648,13.2526316 44.1950164,11.9789474 42.4350164,11.9789474 C41.3697533,11.9789474 40.3044901,12.4884211 39.1002796,13.8547368 L39.0771217,13.8547368 L39.0771217,12.0484211 L38.8918586,11.9789474 C37.7571217,12.3957895 36.9929112,12.6505263 35.719227,13.0210526 L35.719227,13.4147368 C35.8813322,13.3452632 36.1360691,13.3221053 36.3908059,13.3221053 C37.039227,13.3221053 37.2013322,13.6926316 37.2013322,14.8273684 L37.2013322,20.4547368 C37.2013322,21.8210526 36.9465954,22.1915789 35.7655428,22.2842105 L35.7655428,22.6315789 L40.6518586,22.6315789 L40.6518586,22.2842105 C39.4708059,22.1915789 39.1465954,21.8673684 39.1465954,20.9642105 L39.1465954,14.5726316 C40.2118586,13.5305263 40.767648,13.2526316 41.5318586,13.2526316 C42.6665954,13.2526316 43.2223849,13.9473684 43.2223849,15.5915789 L43.2223849,20.2 C43.2223849,21.7284211 42.9444901,22.1915789 41.7865954,22.2842105 L41.7634375,22.6315789 L46.5802796,22.6315789 Z M51.0960691,7.99578947 C51.0960691,7.34736842 50.5865954,6.81473684 49.9150164,6.81473684 C49.2665954,6.81473684 48.7339638,7.34736842 48.7339638,7.99578947 C48.7339638,8.66736842 49.2434375,9.17684211 49.8918586,9.17684211 C50.5865954,9.17684211 51.0960691,8.66736842 51.0960691,7.99578947 L51.0960691,7.99578947 Z M52.7865954,22.6315789 L52.7865954,22.2842105 C51.2581743,22.1684211 51.0729112,21.9136842 51.0729112,20.2 L51.0729112,12.0715789 L50.9802796,11.9789474 L47.3908059,13.2526316 L47.3908059,13.6231579 C47.807648,13.5073684 48.1550164,13.5073684 48.3634375,13.5073684 C48.9423849,13.5073684 49.127648,13.8778947 49.127648,14.9663158 L49.127648,20.2231579 C49.127648,21.9831579 48.8960691,22.1915789 47.2981743,22.2842105 L47.2981743,22.6315789 L52.7865954,22.6315789 Z M59.5255428,20.8484211 C59.0160691,21.4505263 58.6455428,21.6589474 58.1360691,21.6589474 C57.279227,21.6589474 56.9318586,21.0568421 56.9318586,19.5747368 L56.9318586,12.9515789 L59.2708059,12.9515789 L59.2708059,12.2105263 L56.9318586,12.2105263 L56.9318586,9.52421053 C56.9318586,9.29263158 56.8855428,9.22315789 56.7697533,9.22315789 C56.6308059,9.45473684 56.4455428,9.66315789 56.3065954,9.87157895 C55.4265954,11.1452632 54.6623849,12.0021053 54.0602796,12.3494737 C53.8055428,12.5115789 53.6665954,12.6505263 53.6665954,12.7894737 C53.6665954,12.8589474 53.6897533,12.9052632 53.759227,12.9515789 L54.9865954,12.9515789 L54.9865954,19.9221053 C54.9865954,21.8673684 55.6813322,22.8631579 57.0244901,22.8631579 C58.1823849,22.8631579 59.0623849,22.3073684 59.8265954,21.1031579 L59.5255428,20.8484211 Z" id="nit" fill="#CC0000"></path>
            </g>
        </g>
    </g>
</svg>