<?xml version="1.0" encoding="UTF-8" standalone="no"?>
<svg width="64px" height="64px" viewBox="0 0 64 64" version="1.1" xmlns="http://www.w3.org/2000/svg" xmlns:xlink="http://www.w3.org/1999/xlink">
    <defs></defs>
    <g id="Brands" stroke="none" stroke-width="1" fill="none" fill-rule="evenodd">
        <g id="icons/skills/id-217">
            <g id="IBM_Bluemix_logo" transform="translate(6.000000, 2.000000)">
                <g id="g3956" transform="translate(0.030172, 0.038390)">
                    <path d="M21.2413801,17.9486775 L28.1379324,6.0035 L41.9310357,6.00350064 L48.8275868,17.9486788 L41.9310341,29.8938561 L28.1379312,29.8938557 L21.2413801,17.9486775 L21.2413801,17.9486775 Z" id="engine-northeast" fill="#00B198"></path>
                    <path d="M27.9137931,5.61678152 L20.7974138,17.9486786 L27.9137931,30.2805752 L42.1551738,30.2805752 L49.2715531,17.9486786 L42.1551738,5.61678152 L27.9137931,5.61678152 L27.9137931,5.61678152 Z M28.362069,6.39264359 L41.7068979,6.39264359 L48.3836221,17.9486786 L41.7068979,29.5090234 L28.362069,29.5090234 L21.6853448,17.9486786 L28.362069,6.39264359 L28.362069,6.39264359 Z" id="crown-engine-northeast" fill="#FFFFFF"></path>
                    <path d="M41.9310352,29.8938563 L48.8275862,41.8390346 L41.9310339,53.7842121 L28.1379306,53.7842113 L21.24138,41.8390329 L28.1379319,29.8938556 L41.9310352,29.8938563 L41.9310352,29.8938563 Z" id="engine-southeast" fill="#00AED1"></path>
                    <path d="M27.9137931,29.5071366 L20.7974138,41.8390345 L27.9137931,54.170931 L42.1551738,54.170931 L49.2715531,41.8390345 L42.1551738,29.5071366 L27.9137931,29.5071366 L27.9137931,29.5071366 Z M28.362069,30.2829986 L41.7068979,30.2829986 L48.3836221,41.8390345 L41.7068979,53.3993793 L28.362069,53.3993793 L21.6853448,41.8390345 L28.362069,30.2829986 L28.362069,30.2829986 Z" id="crown-engine-southeast" fill="#FFFFFF"></path>
                    <path d="M21.2413791,41.8390346 L7.4482757,41.8390339 L0.5517246,29.8938557 L7.44827687,17.9486781 L21.2413802,17.9486793 L28.1379313,29.8938571 L21.2413791,41.8390346 Z" id="engine-west" fill="#3B4B54" transform="translate(14.344828, 29.893856) scale(1, -1) translate(-14.344828, -29.893856) "></path>
                    <path d="M7.22413793,17.5603448 L0.107758621,29.8922414 L7.22413793,42.2241379 L21.4655172,42.2241379 L28.5818966,29.8922414 L21.4655172,17.5603448 L7.22413793,17.5603448 L7.22413793,17.5603448 Z M7.67241379,18.3362069 L21.0172414,18.3362069 L27.6939655,29.8922414 L21.0172414,41.4525862 L7.67241379,41.4525862 L0.995689655,29.8922414 L7.67241379,18.3362069 L7.67241379,18.3362069 Z" id="crown-engine-west" fill="#FFFFFF"></path>
                    <path d="M21.0172414,17.5603443 L21.0172414,42.2241374 L42.375,29.8922408 L21.0172414,17.5603443 L21.0172414,17.5603443 Z M21.7887931,18.9008615 L40.8318966,29.8922408 L21.7887931,40.8879305 L21.7887931,18.9008615 L21.7887931,18.9008615 Z" id="triangle" fill="#FFFFFF"></path>
                    <path d="M28.137931,16.0991379 C20.5202097,16.0991379 14.3448276,22.27452 14.3448276,29.8922414 C14.3448276,37.5099628 20.5202097,43.6853448 28.137931,43.6853448 C35.7556524,43.6853448 41.9310345,37.5099628 41.9310345,29.8922414 C41.9310345,22.27452 35.7556524,16.0991379 28.137931,16.0991379 L28.137931,16.0991379 Z M28.137931,16.875 C35.3289834,16.875 41.1594828,22.701189 41.1594828,29.8922414 C41.1594828,37.0832938 35.3289834,42.9137931 28.137931,42.9137931 C20.9468786,42.9137931 15.1163793,37.0832938 15.1163793,29.8922414 C15.1163793,22.701189 20.9468786,16.875 28.137931,16.875 L28.137931,16.875 Z" id="circle" fill="#FFFFFF"></path>
                </g>
            </g>
        </g>
    </g>
</svg>