<?xml version="1.0" encoding="UTF-8" standalone="no"?>
<svg width="64px" height="64px" viewBox="0 0 64 64" version="1.1" xmlns="http://www.w3.org/2000/svg" xmlns:xlink="http://www.w3.org/1999/xlink">
    <defs></defs>
    <g id="Skills---Data" stroke="none" stroke-width="1" fill="none" fill-rule="evenodd">
        <g id="icons/skills/id-272">
            <rect id="Rectangle-7" fill="#A3A18F" x="9" y="9" width="50" height="50" rx="4"></rect>
            <rect id="Rectangle-7" fill="#EAE2C0" x="5" y="5" width="50" height="50" rx="4"></rect>
            <path d="M30,19.091 C30,16.832 28.168,15 25.909,15 C24.121,15 22.618,16.154 22.061,17.752 C21.979,17.749 21.901,17.727 21.818,17.727 C18.053,17.727 15,20.78 15,24.546 C15,26.384 15.736,28.046 16.919,29.272 C15.77,29.997 15,31.268 15,32.727 C15,34.107 15.688,35.321 16.734,36.062 C16.513,36.733 16.364,37.437 16.364,38.182 C16.364,41.947 19.416,45 23.182,45 C26.947,45 30,41.947 30,38.182 L30,28 L30,19.091 Z M30,19.091 C30,16.832 31.832,15 34.091,15 C35.879,15 37.382,16.154 37.939,17.752 C38.021,17.749 38.099,17.727 38.182,17.727 C41.947,17.727 45,20.78 45,24.546 C45,26.384 44.264,28.046 43.081,29.272 C44.23,29.997 45,31.268 45,32.727 C45,34.107 44.312,35.321 43.266,36.062 C43.487,36.733 43.636,37.437 43.636,38.182 C43.636,41.947 40.584,45 36.818,45 C33.053,45 30,41.947 30,38.182 L30,19.091 Z" id="Stroke-3259" fill="#F6F6F6"></path>
            <path d="M30,19.091 C30,16.832 31.832,15 34.091,15 C35.879,15 37.382,16.154 37.939,17.752 C38.021,17.749 38.099,17.727 38.182,17.727 C41.947,17.727 45,20.78 45,24.546 C45,26.384 44.264,28.046 43.081,29.272 C44.23,29.997 45,31.268 45,32.727 C45,34.107 44.312,35.321 43.266,36.062 C43.487,36.733 43.636,37.437 43.636,38.182 C43.636,41.947 40.584,45 36.818,45 C33.053,45 30,41.947 30,38.182" id="Stroke-3260" fill="#B1DFFF"></path>
            <path d="M30,32 C31,32.754 34.5,33.3929999 36.5,32 L36.5,35.5" id="Stroke-3261" stroke="#097DCE" stroke-width="2" stroke-linecap="round" stroke-linejoin="round"></path>
            <path d="M30,19.091 C30,16.832 28.168,15 25.909,15 C24.121,15 22.618,16.154 22.061,17.752 C21.979,17.749 21.901,17.727 21.818,17.727 C18.053,17.727 15,20.78 15,24.546 C15,26.384 15.736,28.046 16.919,29.272 C15.77,29.997 15,31.268 15,32.727 C15,34.107 15.688,35.321 16.734,36.062 C16.513,36.733 16.364,37.437 16.364,38.182 C16.364,41.947 19.416,45 23.182,45 C26.947,45 30,41.947 30,38.182 L30,32" id="Stroke-3259" stroke="#444444" stroke-width="2" stroke-linecap="round" stroke-linejoin="round"></path>
            <path d="M33.5,24.5 C33.5,24.5 30,24 30,19.5" id="Line" stroke="#097DCE" stroke-width="2" stroke-linecap="round" stroke-linejoin="round"></path>
            <path d="M30,19.091 C30,16.832 31.832,15 34.091,15 C35.879,15 37.382,16.154 37.939,17.752 C38.021,17.749 38.099,17.727 38.182,17.727 C41.947,17.727 45,20.78 45,24.546 C45,26.384 44.264,28.046 43.081,29.272 C44.23,29.997 45,31.268 45,32.727 C45,34.107 44.312,35.321 43.266,36.062 C43.487,36.733 43.636,37.437 43.636,38.182 C43.636,41.947 40.584,45 36.818,45 C33.053,45 30,41.947 30,38.182" id="Stroke-3260" stroke="#444444" stroke-width="2" stroke-linecap="round" stroke-linejoin="round"></path>
            <path d="M23,32.1070001 C24,32.8610001 28,33.5 30,32.1070001" id="Stroke-3261" stroke="#444444" stroke-width="2" stroke-linecap="round" stroke-linejoin="round"></path>
            <path d="M30,19 C30,21.259 28.259,22.909 26,22.909" id="Stroke-3263" stroke="#444444" stroke-width="2" stroke-linecap="round" stroke-linejoin="round"></path>
            <path d="M21.5,36 C23.5,35 23,29.5 22,28" id="Stroke-3265" stroke="#444444" stroke-width="2" stroke-linecap="round" stroke-linejoin="round"></path>
            <circle id="Oval-2" stroke="#097DCE" stroke-width="2" stroke-linecap="round" stroke-linejoin="round" fill="#F2FAFF" cx="34.5" cy="24.5" r="2.5"></circle>
            <circle id="Oval-2" stroke="#097DCE" stroke-width="2" stroke-linecap="round" stroke-linejoin="round" fill="#F2FAFF" cx="36.5" cy="38.5" r="2.5"></circle>
        </g>
    </g>
</svg>