<?xml version="1.0" encoding="UTF-8" standalone="no"?>
<svg width="64px" height="64px" viewBox="0 0 64 64" version="1.1" xmlns="http://www.w3.org/2000/svg" xmlns:xlink="http://www.w3.org/1999/xlink">
    <!-- Generator: Sketch 3.6.1 (26313) - http://www.bohemiancoding.com/sketch -->
    <title>icons/skills/id-246</title>
    <desc>Created with Sketch.</desc>
    <defs></defs>
    <g id="Brands" stroke="none" stroke-width="1" fill="none" fill-rule="evenodd">
        <g id="icons/skills/id-246">
            <path d="M8.249,32.078 C8.249,31.768 8.192,31.43 8.012,31.171 C7.651,30.651 6.877,30.485 6.338,30.813 C6.066,30.979 5.914,31.268 5.829,31.566 C5.659,32.156 5.737,32.83 5.856,33.423 C5.894,33.613 5.933,33.803 5.986,33.989 C6.005,34.056 6.014,34.154 6.058,34.21 C6.134,34.308 6.32,34.336 6.434,34.317 C6.776,34.259 6.692,33.696 6.68,33.456 C6.653,32.894 6.487,32.35 6.648,31.791 C6.716,31.555 6.847,31.289 7.086,31.186 C7.301,31.093 7.519,31.207 7.604,31.417 C7.742,31.758 7.708,32.151 7.794,32.506 C7.823,32.627 7.856,32.746 7.91,32.858 C7.926,32.89 7.947,32.958 7.993,32.954 C8.104,32.944 8.262,32.759 8.345,32.69 C8.614,32.468 8.89,32.23 9.199,32.066 C9.345,31.989 9.584,31.864 9.733,31.995 C9.77,32.028 9.8,32.068 9.828,32.11 C10.003,32.384 9.829,32.597 9.716,32.857 C9.569,33.194 9.418,33.527 9.205,33.828 C9.022,34.087 8.772,34.314 8.625,34.596 C8.531,34.778 8.478,34.978 8.516,35.183 C8.548,35.349 8.676,35.449 8.846,35.411 C8.973,35.382 9.059,35.273 9.131,35.173 C9.26,34.994 9.38,34.808 9.508,34.629 C9.756,34.281 10.048,33.957 10.257,33.583 C10.508,33.133 10.629,32.623 10.629,32.11 C10.629,31.691 10.477,31.05 9.989,30.962 C9.897,30.946 9.792,30.955 9.701,30.97 C9.588,30.99 9.474,31.027 9.37,31.077 C9.092,31.211 8.852,31.412 8.646,31.64 C8.516,31.783 8.401,31.962 8.249,32.078" id="path26" fill="#FFB400"></path>
            <path d="M7.79,21.709 C7.405,21.76 7.014,21.754 6.627,21.814 C5.886,21.928 5.176,22.159 4.482,22.437 C4.229,22.538 3.98,22.651 3.735,22.769 C3.644,22.813 3.505,22.848 3.432,22.919 C3.394,22.956 3.398,23.042 3.393,23.092 C3.38,23.231 3.363,23.37 3.349,23.508 C3.297,24.043 3.261,24.595 3.337,25.13 C3.362,25.303 3.416,25.617 3.628,25.65 C3.955,25.701 4.209,25.299 4.369,25.077 C4.744,24.558 5.17,24.075 5.784,23.844 C6.507,23.571 7.335,23.507 8.1,23.454 C10.246,23.307 12.592,23.699 14.173,25.28 C14.398,25.505 14.611,25.743 14.792,26.006 C15.5,27.031 15.874,28.197 16.055,29.421 C16.14,29.996 16.198,30.578 16.067,31.15 C15.839,32.143 15.243,33.008 14.557,33.744 C14.088,34.248 13.56,34.703 13.01,35.117 C12.703,35.348 12.359,35.544 12.071,35.796 C11.739,36.087 11.462,36.451 11.252,36.839 C10.687,37.884 10.535,39.141 10.702,40.308 C10.736,40.547 10.767,40.787 10.821,41.023 C10.837,41.094 10.84,41.215 10.886,41.272 C10.971,41.38 11.204,41.439 11.335,41.445 C11.471,41.452 11.562,41.347 11.595,41.225 C11.652,41.016 11.618,40.784 11.585,40.574 C11.517,40.143 11.455,39.709 11.474,39.272 C11.509,38.464 11.822,37.712 12.381,37.127 C12.95,36.532 13.719,36.189 14.366,35.69 C15.67,34.685 16.837,33.329 17.286,31.716 C17.446,31.139 17.499,30.528 17.426,29.934 C17.333,29.183 17.059,28.432 16.8,27.725 C16.011,25.568 14.658,23.517 12.509,22.53 C11.656,22.138 10.764,21.96 9.841,21.832 C9.408,21.772 8.975,21.735 8.539,21.716 C8.295,21.704 8.031,21.677 7.79,21.709" id="path28" fill="#CC0000"></path>
            <path d="M4.428,35.669 C4.009,35.729 3.887,36.065 3.965,36.444 C4.064,36.929 4.445,37.298 4.823,37.59 C5.791,38.336 7.041,38.739 8.26,38.686 C8.736,38.665 9.254,38.587 9.69,38.385 C9.924,38.277 10.169,37.887 9.85,37.72 C9.806,37.697 9.749,37.683 9.701,37.675 C9.562,37.652 9.406,37.711 9.274,37.749 C9.041,37.816 8.809,37.884 8.57,37.923 C7.855,38.038 7.081,37.874 6.489,37.451 C6.01,37.108 5.623,36.656 5.257,36.199 C5.032,35.918 4.83,35.612 4.428,35.669" id="path30" fill="#CC0000"></path>
            <path d="M3.883,38.038 C3.776,38.052 3.654,38.048 3.563,38.115 C3.373,38.255 3.582,38.536 3.682,38.663 C3.972,39.032 4.355,39.338 4.736,39.608 C5.8,40.361 7.005,40.795 8.301,40.884 C8.674,40.91 9.053,40.883 9.422,40.822 C9.557,40.8 9.725,40.79 9.85,40.731 C10.202,40.566 10.1,39.9 9.786,39.752 C9.649,39.687 9.428,39.773 9.284,39.793 C8.943,39.841 8.602,39.845 8.259,39.837 C7.361,39.815 6.405,39.538 5.623,39.102 C5.316,38.93 5.033,38.721 4.769,38.489 C4.608,38.348 4.444,38.116 4.235,38.045 C4.138,38.012 3.984,38.025 3.883,38.038" id="path32" fill="#CC0000"></path>
            <path d="M4.097,40.035 C3.945,40.052 3.831,40.131 3.731,40.244 C3.662,40.322 3.597,40.392 3.557,40.489 C3.34,41.027 3.92,41.536 4.321,41.79 C4.767,42.073 5.255,42.283 5.751,42.46 C6.871,42.859 8.185,43.114 9.348,42.757 C9.694,42.651 10.035,42.458 10.287,42.196 C10.429,42.049 10.526,41.825 10.266,41.731 C10.112,41.675 9.925,41.817 9.786,41.874 C9.457,42.007 9.115,42.108 8.761,42.151 C8.295,42.207 7.876,42.105 7.427,41.993 C7.044,41.897 6.656,41.801 6.285,41.663 C5.969,41.545 5.655,41.405 5.378,41.209 C5.295,41.15 5.196,41.098 5.128,41.022 C4.906,40.773 4.74,40.481 4.502,40.244 C4.4,40.141 4.254,40.017 4.097,40.035" id="path34" fill="#CC0000"></path>
            <path d="M58.287,32.313 L58.287,30.177 L56.863,30.177 L56.863,39.207 L58.287,39.207 L58.287,36.041 C58.287,35.3 58.254,34.56 58.387,33.829 C58.544,32.959 59.018,32.12 59.878,31.791 C60.307,31.627 60.759,31.633 61.211,31.633 L61.211,29.967 C60.175,29.97 59.35,30.659 58.778,31.467 C58.666,31.625 58.561,31.795 58.473,31.967 C58.416,32.077 58.371,32.221 58.287,32.313" id="path14" fill="#000000"></path>
            <path d="M28.759,35.025 C28.759,35.823 28.819,36.603 28.421,37.328 C27.914,38.25 26.492,38.924 25.623,38.055 C24.938,37.369 25.173,36.202 25.91,35.676 C26.687,35.122 27.836,35.025 28.759,35.025 L28.759,35.025 Z M23.942,32.541 L25.578,32.541 C25.599,32.053 25.699,31.497 26.052,31.135 C26.61,30.562 27.784,30.605 28.3,31.208 C28.582,31.538 28.689,31.983 28.731,32.405 C28.792,33.015 28.759,33.64 28.759,34.253 C27.776,34.253 26.749,34.377 25.805,34.653 C25.241,34.818 24.64,35.106 24.249,35.556 C23.354,36.584 23.559,38.248 24.699,39.005 C25.407,39.475 26.382,39.525 27.168,39.237 C27.63,39.067 28.044,38.779 28.379,38.42 C28.52,38.269 28.626,38.092 28.759,37.935 L28.759,39.208 L30.183,39.208 L30.183,33.769 C30.183,32.821 30.259,31.742 29.661,30.936 C29.145,30.241 28.296,30.017 27.471,29.981 C26.405,29.934 25.137,30.104 24.452,31.027 C24.279,31.26 24.155,31.524 24.067,31.8 C23.993,32.033 23.942,32.294 23.942,32.541 L23.942,32.541 Z" id="path16" fill="#000000"></path>
            <path d="M20.836,26.117 L20.836,34.616 C20.836,35.136 20.844,35.658 20.821,36.177 C20.794,36.783 20.73,37.434 20.243,37.865 C19.676,38.367 18.763,38.359 18.078,38.147 C17.766,38.051 17.48,37.873 17.169,37.784 L17.169,39.208 C17.443,39.265 17.709,39.336 17.987,39.37 C19.324,39.536 21.002,39.404 21.844,38.208 C22.611,37.119 22.411,35.601 22.411,34.345 L22.411,26.118 L20.836,26.117" id="path18" fill="#000000"></path>
            <path d="M35.528,30.894 C36.546,30.774 37.157,31.817 37.396,32.647 C37.641,33.5 37.688,34.402 37.65,35.283 C37.626,35.826 37.565,36.39 37.377,36.904 C37.077,37.725 36.54,38.389 35.619,38.477 C34.999,38.536 34.367,38.326 33.975,37.828 C33.709,37.49 33.564,37.075 33.465,36.661 C33.151,35.338 33.249,33.798 33.724,32.525 C33.957,31.899 34.353,31.262 34.997,31.002 C35.17,30.933 35.347,30.915 35.528,30.894 M31.892,26.117 L31.892,33.495 C31.892,34.833 31.726,36.346 32.291,37.601 C32.525,38.122 32.865,38.571 33.347,38.888 C33.933,39.272 34.644,39.397 35.332,39.404 C36.559,39.417 37.785,39.02 38.477,37.934 C39.048,37.037 39.196,36.019 39.242,34.98 C39.286,33.968 39.156,32.929 38.786,31.98 C38.246,30.595 36.893,29.737 35.408,30.017 C34.736,30.144 34.161,30.564 33.751,31.101 C33.641,31.245 33.545,31.399 33.453,31.556 C33.405,31.638 33.374,31.736 33.301,31.798 L33.301,26.117 L31.892,26.117" id="path20" fill="#000000"></path>
            <path d="M44.167,30.894 C45.185,30.774 45.792,31.818 46.03,32.647 C46.261,33.447 46.324,34.304 46.288,35.132 C46.261,35.742 46.216,36.372 45.997,36.95 C45.694,37.75 45.157,38.392 44.258,38.478 C43.625,38.538 42.997,38.322 42.599,37.814 C42.338,37.48 42.2,37.069 42.101,36.663 C42.002,36.258 41.982,35.848 41.954,35.436 C41.887,34.451 42.014,33.388 42.383,32.467 C42.627,31.856 43.003,31.261 43.638,31.004 C43.809,30.933 43.986,30.915 44.167,30.894 M40.531,26.117 L40.531,33.495 C40.531,34.871 40.369,36.39 40.96,37.677 C41.103,37.989 41.293,38.278 41.532,38.525 C42.213,39.229 43.228,39.422 44.168,39.404 C44.813,39.391 45.464,39.275 46.031,38.951 C46.568,38.645 46.99,38.187 47.284,37.646 C47.641,36.988 47.781,36.246 47.852,35.51 C47.978,34.207 47.819,32.859 47.276,31.662 C46.678,30.345 45.104,29.637 43.729,30.101 C43.168,30.29 42.701,30.673 42.353,31.146 C42.208,31.343 42.113,31.628 41.942,31.797 L41.942,26.116 L40.531,26.117" id="path22" fill="#000000"></path>
            <path d="M54.045,32.768 L50.273,32.768 C50.275,32.16 50.58,31.483 51.061,31.109 C51.726,30.592 52.898,30.588 53.515,31.193 C53.926,31.596 54.045,32.214 54.045,32.768 M55.348,38.222 C55.052,38.262 54.765,38.379 54.469,38.43 C53.915,38.526 53.315,38.505 52.772,38.36 C50.787,37.83 50.242,35.391 50.242,33.616 L55.514,33.616 C55.514,32.604 55.347,31.569 54.633,30.798 C54.276,30.413 53.762,30.176 53.257,30.064 C52.18,29.826 50.876,29.966 50,30.683 C49.025,31.481 48.681,32.844 48.652,34.055 C48.607,35.88 49.056,38.104 50.909,38.942 C51.968,39.421 53.147,39.51 54.288,39.319 C54.549,39.275 54.806,39.208 55.061,39.135 C55.129,39.116 55.289,39.101 55.333,39.044 C55.372,38.994 55.349,38.873 55.349,38.813 L55.348,38.222" id="path24" fill="#000000"></path>
        </g>
    </g>
</svg>