<?xml version="1.0" encoding="UTF-8" standalone="no"?>
<svg width="64px" height="64px" viewBox="0 0 64 64" version="1.1" xmlns="http://www.w3.org/2000/svg" xmlns:xlink="http://www.w3.org/1999/xlink">
    <!-- Generator: Sketch 3.6.1 (26313) - http://www.bohemiancoding.com/sketch -->
    <title>icons/skills/id-228</title>
    <desc>Created with Sketch.</desc>
    <defs></defs>
    <g id="Brands" stroke="none" stroke-width="1" fill="none" fill-rule="evenodd">
        <g id="icons/skills/id-228">
            <path d="M9.049,40.888 L4.83,40.888 L4.83,14.422 L13.115,14.422 L18.946,24.241 L12.808,27.693 L20.326,40.888 L15.647,40.888 L9.663,30.762 L9.663,25.085 L12.962,22.86 L10.43,18.488 L9.049,18.488 L9.049,40.888 Z" id="Shape" fill="#D42611"></path>
            <path d="M30.299,40.888 L34.979,32.527 L30.453,24.855 L35.516,24.855 L38.201,29.151 L40.809,24.855 L43.188,28.767 L41.116,32.833 L45.873,40.888 L41.193,40.888 L37.971,35.672 L34.902,40.965 L30.299,40.888 Z" id="Shape" fill="#D42611"></path>
            <path d="M43.955,36.516 L46.64,40.582 L49.478,35.902 L58.914,51.629 L60.333,52.357 L60.295,45.108 L53.007,32.987 L60.295,20.252 L60.295,11.392 L49.632,29.841 L46.563,24.778 L41.423,24.778 L46.179,32.833 L43.955,36.516 Z" id="Shape" fill="#D42611"></path>
            <path d="M8.397,11.732 L4.792,11.732 L4.792,12.163 L4.772,12.163 L4.772,12.509 L5.276,12.509 L5.341,12.312 L6.24,12.312 L6.24,13.357 L5.894,13.357 L5.894,13.933 L6.24,13.933 L6.887,13.933 L7.29,13.933 L7.29,13.357 L6.887,13.357 L6.887,12.312 L7.814,12.312 L7.879,12.509 L8.383,12.509 L8.383,12.312 L8.397,12.312 L8.397,11.732 Z" id="Shape" fill="#060606"></path>
            <path d="M11.961,12.293 L12.281,12.293 L12.281,11.746 L11.821,11.746 L11.26,11.746 L11.245,11.746 L11.245,12.293 L11.26,12.293 L11.26,12.595 L9.562,12.595 L9.562,12.293 L9.577,12.293 L9.577,11.746 L9.562,11.746 L9.001,11.746 L8.541,11.746 L8.541,12.293 L8.869,12.293 L9.001,12.434 L9.001,13.372 L8.613,13.372 L8.613,13.918 L9.001,13.918 L9.562,13.918 L9.562,13.372 L9.562,13.127 L11.26,13.127 L11.26,13.372 L11.26,13.918 L11.821,13.918 L12.209,13.918 L12.209,13.372 L11.821,13.372 L11.821,12.426 L11.961,12.293 Z" id="Shape" fill="#060606"></path>
            <path d="M12.569,11.732 L12.569,12.307 L12.943,12.307 L12.943,13.343 L12.569,13.343 L12.569,13.918 L16.337,13.918 L16.337,13.4 L16.337,13.343 L16.337,13.156 L15.733,13.156 L15.733,13.343 L13.576,13.343 L13.576,13.084 L15.115,13.084 L15.115,12.681 L13.576,12.681 L13.576,12.307 L15.733,12.307 L15.733,12.494 L16.337,12.494 L16.337,12.307 L16.337,12.25 L16.337,11.732 L12.569,11.732 Z" id="Shape" fill="#060606"></path>
            <path d="M16.932,43.382 L16.932,43.036 L16.222,43.036 L16.222,43.382 L14.592,43.382 L14.592,42.116 L14.976,42.116 L14.976,41.464 L13.345,41.464 L13.345,42.116 L13.767,42.116 L13.767,43.382 L13.365,43.382 L13.365,44.053 L13.767,44.053 L14.592,44.053 L16.951,44.053 L16.951,43.382 L16.932,43.382 Z" id="Shape" fill="#060606"></path>
            <path d="M21.362,43.401 L20.987,43.401 L20,41.482 L20,41.463 L18.466,41.463 L17.516,43.4 L17.2,43.4 L17.2,44.071 L17.929,44.071 L18.215,43.515 L20.255,43.515 L20.441,43.895 L20.441,44.033 L20.509,44.033 L20.528,44.071 L20.557,44.033 L21.362,44.033 L21.362,43.401 L21.362,43.401 Z M18.492,42.979 L18.946,42.097 L19.582,42.097 L19.57,42.116 L19.993,42.979 L18.492,42.979 L18.492,42.979 Z" id="Shape" fill="#060606"></path>
            <path d="M44.022,41.421 L44.022,42.108 L44.469,42.108 L44.469,43.346 L44.022,43.346 L44.022,44.034 L48.526,44.034 L48.526,43.415 L48.526,43.346 L48.526,43.123 L47.804,43.123 L47.804,43.346 L45.225,43.346 L45.225,43.037 L47.065,43.037 L47.065,42.555 L45.225,42.555 L45.225,42.108 L47.804,42.108 L47.804,42.332 L48.526,42.332 L48.526,42.108 L48.526,42.04 L48.526,41.421 L44.022,41.421 Z" id="Shape" fill="#060606"></path>
            <path d="M38.862,43.439 L37.875,41.521 L37.875,41.502 L36.341,41.502 L35.391,43.439 L35.075,43.439 L35.075,44.11 L35.804,44.11 L36.09,43.554 L38.13,43.554 L38.316,43.934 L38.316,44.072 L38.384,44.072 L38.403,44.11 L38.432,44.072 L39.237,44.072 L39.237,43.439 L38.862,43.439 L38.862,43.439 Z M36.366,43.017 L36.82,42.135 L37.405,42.135 L37.443,42.154 L37.866,43.017 L36.366,43.017 L36.366,43.017 Z" id="Shape" fill="#060606"></path>
            <path d="M25.557,43.363 L25.557,42.154 L25.989,42.154 L25.989,41.464 L25.557,41.464 L25.457,41.464 L24.91,41.464 L24.91,43.19 L22.81,41.478 L22.393,41.478 L22.148,41.478 L21.616,41.478 L21.616,42.14 L22.148,42.14 L22.148,43.406 L21.616,43.406 L21.616,44.067 L22.393,44.067 L22.393,44.053 L22.81,44.053 L22.81,42.341 L24.91,44.067 L25.37,44.067 L25.37,44.082 L26.003,44.082 L26.003,43.363 L25.557,43.363 Z" id="Shape" fill="#060606"></path>
            <path d="M30.39,43.391 L30.39,43.06 L30.39,42.513 L29.728,42.513 L28.304,42.513 L28.304,43.06 L29.728,43.06 L29.728,43.391 L26.866,43.391 L26.866,42.068 L29.772,42.068 L29.772,42.284 L30.391,42.284 L30.391,42.068 L30.391,41.464 L29.772,41.464 L26.852,41.464 C26.852,41.464 26.262,41.493 26.19,42.011 L26.19,43.406 C26.252,43.938 26.705,44.052 26.823,44.068 L26.823,44.068 L30.39,44.068 L30.39,43.391 L30.39,43.391 L30.39,43.391 Z" id="Shape" fill="#060606"></path>
            <path d="M43.739,43.391 L43.739,43.06 L43.739,42.513 L43.077,42.513 L41.653,42.513 L41.653,43.06 L43.077,43.06 L43.077,43.391 L40.215,43.391 L40.215,42.068 L43.121,42.068 L43.121,42.284 L43.74,42.284 L43.74,42.068 L43.74,41.464 L43.12,41.464 L40.2,41.464 C40.2,41.464 39.61,41.493 39.538,42.011 L39.538,43.406 C39.6,43.938 40.053,44.052 40.171,44.068 L40.171,44.068 L43.738,44.068 L43.738,43.391 L43.739,43.391 L43.739,43.391 Z" id="Shape" fill="#060606"></path>
            <path d="M34.533,41.478 L34.001,41.478 L34.001,43.434 L31.86,43.434 L31.8,43.436 L31.8,43.405 L31.8,42.11 L31.8,41.434 L31.167,41.434 L30.606,41.434 L30.606,42.11 L31.167,42.11 L31.167,43.405 C31.167,43.453 31.162,43.513 31.169,43.549 C31.256,44.035 31.843,43.997 31.843,43.997 L31.843,43.995 L34.029,43.995 C34.029,43.995 34.579,44.019 34.68,43.463 L34.69,42.14 L35.193,42.14 L35.193,41.478 L34.533,41.478 L34.533,41.478 Z" id="Shape" fill="#060606"></path>
            <path d="M26.617,36.669 L23.625,36.669 L23.318,36.132 L32.831,30.302 L29.609,24.779 L19.176,24.779 L13.653,28.154 L21.018,40.812 L29.61,40.812 L31.451,37.437 L31.451,32.374 L26.541,35.366 L26.617,36.669 L26.617,36.669 Z M19.214,29.266 L26.464,29.266 L21.056,32.488 L19.214,29.266 L19.214,29.266 Z" id="Shape" fill="#D42611"></path>
        </g>
    </g>
</svg>