<?xml version="1.0" encoding="UTF-8" standalone="no"?>
<svg width="64px" height="64px" viewBox="0 0 64 64" version="1.1" xmlns="http://www.w3.org/2000/svg" xmlns:xlink="http://www.w3.org/1999/xlink">
    <!-- Generator: Sketch 3.6.1 (26313) - http://www.bohemiancoding.com/sketch -->
    <title>icons/skills/id-216</title>
    <desc>Created with Sketch.</desc>
    <defs>
        <linearGradient x1="50%" y1="0%" x2="50%" y2="100%" id="linearGradient-1">
            <stop stop-color="#E4F1D5" offset="0%"></stop>
            <stop stop-color="#8DC540" offset="100%"></stop>
        </linearGradient>
    </defs>
    <g id="Brands" stroke="none" stroke-width="1" fill="none" fill-rule="evenodd">
        <g id="icons/skills/id-216">
            <g id="Group-2" transform="translate(2.000000, 2.000000)">
                <path d="M29.9246162,55.9895833 L29.9246162,55.9895833 C44.3199001,55.9895833 55.9895833,44.3199001 55.9895833,29.9246162 C55.9895833,15.5293324 44.3199001,3.85964912 29.9246162,3.85964912 C15.5293324,3.85964912 3.85964912,15.5293324 3.85964912,29.9246162 C3.85964912,44.3199001 15.5293324,55.9895833 29.9246162,55.9895833 L29.9246162,55.9895833 Z" id="Shape" fill="#8CC63E"></path>
                <path d="M29.9246162,56.3404605 L29.9246162,56.3404605 C44.5136842,56.3404605 56.3404605,44.5136842 56.3404605,29.9246162 C56.3404605,15.3355483 44.5136842,3.50877193 29.9246162,3.50877193 C15.3355483,3.50877193 3.50877193,15.3355483 3.50877193,29.9246162 C3.50877193,44.5136842 15.3355483,56.3404605 29.9246162,56.3404605 L29.9246162,56.3404605 Z M29.9246162,59.8492325 L29.9246162,59.8492325 C13.397707,59.8492325 0,46.4515254 0,29.9246162 C0,13.397707 13.397707,0 29.9246162,0 C46.4515254,0 59.8492325,13.397707 59.8492325,29.9246162 C59.8492325,46.4515254 46.4515254,59.8492325 29.9246162,59.8492325 L29.9246162,59.8492325 Z" id="Shape" fill="#FFFFFF"></path>
                <path d="M29.9246162,58.7966009 L29.9246162,58.7966009 C45.870173,58.7966009 58.7966009,45.870173 58.7966009,29.9246162 C58.7966009,13.9790594 45.870173,1.05263158 29.9246162,1.05263158 C13.9790594,1.05263158 1.05263158,13.9790594 1.05263158,29.9246162 C1.05263158,45.870173 13.9790594,58.7966009 29.9246162,58.7966009 L29.9246162,58.7966009 Z M29.9246162,59.8492325 L29.9246162,59.8492325 C13.397707,59.8492325 0,46.4515254 0,29.9246162 C0,13.397707 13.397707,0 29.9246162,0 C46.4515254,0 59.8492325,13.397707 59.8492325,29.9246162 C59.8492325,46.4515254 46.4515254,59.8492325 29.9246162,59.8492325 L29.9246162,59.8492325 Z" id="Shape" fill="#2B72BD"></path>
                <ellipse id="Oval-4" fill="url(#linearGradient-1)" cx="29.9859512" cy="20.9073465" rx="20.7379043" ry="15.9649123"></ellipse>
                <path d="M16.9235088,30.2933333 L19.0119298,24.4098246 L19.0568421,24.4098246 L21.0778947,30.2933333 L16.9235088,30.2933333 Z M17.2603509,20.4575439 L11.197193,36.4912281 L14.7452632,36.4912281 L16.002807,32.9207018 L21.9985965,32.9207018 L23.2112281,36.4912281 L26.8715789,36.4912281 L20.8757895,20.4575439 L17.2603509,20.4575439 Z M28.2638596,20.4575439 L28.2638596,36.4912281 L31.7894737,36.4912281 L31.7894737,20.4575439 L28.2638596,20.4575439 Z M38.8182456,28.0926316 L33.2266667,36.4912281 L37.1789474,36.4912281 L40.7494737,30.9445614 L44.2526316,36.4912281 L48.4519298,36.4912281 L42.8603509,28.1150877 L48.002807,20.4575439 L44.1403509,20.4575439 L40.8842105,25.5775439 L37.7403509,20.4575439 L33.6533333,20.4575439 L38.8182456,28.0926316 Z" id="AIX" stroke="#689F39" stroke-width="0.900000036" fill="#FFFFFF"></path>
                <path d="M49.8563991,35.0660799 L49.8563991,34.6296235 L50.1389968,34.6296235 C50.1745833,34.6296235 50.2106927,34.6322401 50.2473259,34.6374735 C50.2839591,34.6427068 50.3164052,34.6526499 50.3446651,34.6673032 C50.372925,34.6819565 50.3959512,34.7028894 50.4137445,34.7301027 C50.4315378,34.7573159 50.4404343,34.7939486 50.4404343,34.8400018 C50.4404343,34.8944283 50.4304911,34.9368175 50.4106045,34.9671707 C50.3907179,34.9975239 50.3640284,35.0200269 50.3305352,35.0346801 C50.297042,35.0493334 50.2588393,35.0582299 50.2159262,35.0613699 C50.173013,35.0645099 50.1274838,35.0660799 50.0793373,35.0660799 L49.8563991,35.0660799 Z M49.6428809,34.456925 L49.6428809,35.8290935 L49.8563991,35.8290935 L49.8563991,35.2387784 L50.0824773,35.2387784 L50.4561342,35.8290935 L50.6853522,35.8290935 L50.2928555,35.2230786 C50.3954285,35.2126119 50.4812536,35.1785959 50.5503334,35.1210294 C50.6194131,35.063463 50.6539525,34.9729279 50.6539525,34.8494217 C50.6539525,34.7175421 50.6147032,34.6191573 50.5362035,34.5542642 C50.4577037,34.489371 50.336816,34.456925 50.1735365,34.456925 L49.6428809,34.456925 Z M49.1310652,35.1382993 C49.1310652,34.9980464 49.1556614,34.8672155 49.2048546,34.7458026 C49.2540477,34.6243896 49.3220798,34.5192016 49.4089529,34.4302352 C49.4958259,34.3412688 49.5983974,34.2711434 49.7166703,34.2198569 C49.8349433,34.1685704 49.9631576,34.1429276 50.1013171,34.1429276 C50.2373833,34.1429276 50.3640277,34.1685704 50.4812539,34.2198569 C50.5984802,34.2711434 50.7005283,34.3412688 50.7874014,34.4302352 C50.8742744,34.5192016 50.9423065,34.6243896 50.9914997,34.7458026 C51.0406929,34.8672155 51.0652891,34.9980464 51.0652891,35.1382993 C51.0652891,35.2827388 51.0406929,35.4161864 50.9914997,35.5386459 C50.9423065,35.6611055 50.8742744,35.7673403 50.7874014,35.8573533 C50.7005283,35.9473663 50.5984802,36.018015 50.4812539,36.0693015 C50.3640277,36.120588 50.2373833,36.1462309 50.1013171,36.1462309 C49.9631576,36.1462309 49.8349433,36.120588 49.7166703,36.0693015 C49.5983974,36.018015 49.4958259,35.9473663 49.4089529,35.8573533 C49.3220798,35.7673403 49.2540477,35.6611055 49.2048546,35.5386459 C49.1556614,35.4161864 49.1310652,35.2827388 49.1310652,35.1382993 L49.1310652,35.1382993 Z M48.917547,35.1382993 C48.917547,35.3078587 48.9489464,35.4643325 49.0117462,35.6077254 C49.074546,35.7511182 49.1598477,35.8756693 49.2676541,35.9813823 C49.3754604,36.0870952 49.5010581,36.1692571 49.6444509,36.2278702 C49.7878438,36.2864833 49.940131,36.3157895 50.1013171,36.3157895 C50.2625032,36.3157895 50.4142671,36.2864833 50.5566133,36.2278702 C50.6989595,36.1692571 50.8235106,36.0870952 50.9302702,35.9813823 C51.0370298,35.8756693 51.1218083,35.7511182 51.1846081,35.6077254 C51.2474079,35.4643325 51.2788073,35.3078587 51.2788073,35.1382993 C51.2788073,34.9729265 51.2474079,34.8190693 51.1846081,34.6767231 C51.1218083,34.5343769 51.0370298,34.4108725 50.9302702,34.3062062 C50.8235106,34.2015399 50.6989595,34.1193781 50.5566133,34.0597183 C50.4142671,34.0000585 50.2625032,33.970229 50.1013171,33.970229 C49.940131,33.970229 49.7878438,34.0000585 49.6444509,34.0597183 C49.5010581,34.1193781 49.3754604,34.2015399 49.2676541,34.3062062 C49.1598477,34.4108725 49.074546,34.5343769 49.0117462,34.6767231 C48.9489464,34.8190693 48.917547,34.9729265 48.917547,35.1382993 L48.917547,35.1382993 Z" id="®" fill="#FFFFFF"></path>
            </g>
        </g>
    </g>
</svg>