<?xml version="1.0" encoding="UTF-8" standalone="no"?>
<svg width="64px" height="64px" viewBox="0 0 64 64" version="1.1" xmlns="http://www.w3.org/2000/svg" xmlns:xlink="http://www.w3.org/1999/xlink">
    <defs></defs>
    <g id="Brands" stroke="none" stroke-width="1" fill="none" fill-rule="evenodd">
        <g id="icons/skills/id-294">
            <rect id="Rectangle-86" fill="#EA1B22" x="2" y="14" width="60" height="36"></rect>
            <path d="M26.3124019,30.5670044 L29.8801199,30.5670044 L27.9932924,27.5314685 L24.5304695,33.0198373 L22.9544741,33.0198373 L27.1665477,26.427287 C27.3497931,26.1609819 27.6546311,26 27.9932924,26 C28.320822,26 28.6260882,26.155416 28.8033395,26.4161553 L33.0316826,33.0198373 L31.4556872,33.0198373 L30.7124304,31.7932068 L27.0997574,31.7932068 L26.3124019,30.5670044 L26.3124019,30.5670044 Z M42.6824604,31.7932068 L42.6824604,26.0667904 L41.3453689,26.0667904 L41.3453689,32.3540745 C41.3453689,32.5261881 41.4121593,32.6927358 41.539746,32.8203225 C41.6673327,32.9479092 41.8394463,33.0198373 42.0282575,33.0198373 L48.1267304,33.0198373 L48.9149422,31.7932068 L42.6824604,31.7932068 L42.6824604,31.7932068 Z M20.5572998,30.7669473 C21.8558584,30.7669473 22.9103753,29.7184244 22.9103753,28.4198658 C22.9103753,27.1213073 21.8562866,26.0667904 20.5572998,26.0667904 L14.7067218,26.0667904 L14.7067218,33.0202654 L16.0438133,33.0202654 L16.0438133,27.2929927 L20.4686742,27.2929927 C21.0903382,27.2929927 21.5895533,27.7982018 21.5895533,28.4194377 C21.5895533,29.0406736 21.0899101,29.5458827 20.4686742,29.5458827 L16.6984444,29.5403168 L20.6904524,33.0198373 L22.6333666,33.0198373 L19.9471957,30.7665192 L20.5572998,30.7665192 L20.5572998,30.7669473 Z M6.47737976,33.0198373 C4.55801342,33.0198373 3,31.4661053 3,29.5458827 C3,27.6256601 4.55758527,26.0663622 6.47737976,26.0663622 L10.5186242,26.0663622 C12.4388469,26.0663622 13.9955759,27.6260882 13.9955759,29.5458827 C13.9955759,31.4656772 12.4388469,33.0198373 10.5186242,33.0198373 L6.47737976,33.0198373 L6.47737976,33.0198373 Z M10.4287141,31.7932068 C11.6724704,31.7932068 12.6798915,30.7887826 12.6798915,29.5458827 C12.6798915,28.3029827 11.6724704,27.2925646 10.4287141,27.2925646 L6.56643357,27.2925646 C5.32396175,27.2925646 4.31611246,28.3025546 4.31611246,29.5458827 C4.31611246,30.7887826 5.32396175,31.7932068 6.56643357,31.7932068 L10.4287141,31.7932068 L10.4287141,31.7932068 Z M35.823605,33.0198373 C33.9038105,33.0198373 32.3445126,31.4661053 32.3445126,29.5458827 C32.3445126,27.6256601 33.9038105,26.0663622 35.823605,26.0663622 L40.6239475,26.0663622 L39.8408734,27.2925646 L35.9126588,27.2925646 C34.6693307,27.2925646 33.6589125,28.3025546 33.6589125,29.5458827 C33.6589125,30.7887826 34.6693307,31.7932068 35.9126588,31.7932068 L40.7348366,31.7932068 L39.9470529,33.0198373 L35.823605,33.0198373 L35.823605,33.0198373 Z M52.177394,31.7932068 C51.1511346,31.7932068 50.2794349,31.1051805 50.0131297,30.1559869 L55.7288426,30.1559869 L56.5166262,28.9297845 L50.0131297,28.9297845 C50.2794349,27.9865848 51.1511346,27.2925646 52.177394,27.2925646 L56.100471,27.2925646 L56.8942486,26.0663622 L52.0883402,26.0663622 C50.1685457,26.0663622 48.6092479,27.6260882 48.6092479,29.5458827 C48.6092479,31.4656772 50.1685457,33.0198373 52.0883402,33.0198373 L56.2117882,33.0198373 L57,31.7932068 L52.177394,31.7932068 L52.177394,31.7932068 Z" id="Shape" fill="#FBFBFB"></path>
        </g>
    </g>
</svg>