<?xml version="1.0" encoding="UTF-8" standalone="no"?>
<svg width="64px" height="64px" viewBox="0 0 64 64" version="1.1" xmlns="http://www.w3.org/2000/svg" xmlns:xlink="http://www.w3.org/1999/xlink">
    <!-- Generator: Sketch 3.6.1 (26313) - http://www.bohemiancoding.com/sketch -->
    <title>icons/skills/id-208</title>
    <desc>Created with Sketch.</desc>
    <defs></defs>
    <g id="Languages" stroke="none" stroke-width="1" fill="none" fill-rule="evenodd">
        <g id="icons/skills/id-208">
            <g id="Group-3" transform="translate(8.000000, 3.000000)">
                <path d="M22.275625,28.957037 L18.3230324,57.1837037 C18.3230324,57.1837037 11.878588,59.5466667 6.035625,54.6059259 L12.4371065,27.2385185 L0.364513889,2.74962963 C0.364513889,2.74962963 5.13340278,0.73037037 8.18377315,1.41777778 L18.795625,21.4385185 L37.1837731,5.8 C37.1837731,5.8 43.3704398,7.94814815 43.9289583,10.0103704 L22.275625,28.957037 L22.275625,28.957037 Z" id="Shape" fill="#ECDFA7"></path>
                <g id="Group" transform="translate(2.641551, 0.000000)" fill="#3F3E29">
                    <path d="M43.9081481,31.7925926 C43.6074074,31.1911111 43.2207407,30.6325926 42.7911111,30.117037 C41.9318519,29.1288889 40.9007407,28.3125926 39.7837037,27.6681481 C38.7096296,26.9807407 37.5066667,26.4222222 36.3037037,26.0355556 L35.8311111,25.9066667 C35.7022222,25.8637037 35.5733333,25.8207407 35.4444444,25.7777778 C35.1866667,25.6918519 34.9718519,25.562963 34.757037,25.477037 C34.3274074,25.2192593 34.0266667,24.9614815 33.8118519,24.6177778 C33.3822222,23.9733333 33.3392593,22.9851852 33.5540741,21.9540741 C33.597037,21.6962963 33.682963,21.4385185 33.7688889,21.1807407 C33.8548148,20.922963 33.9407407,20.6651852 34.0266667,20.3644444 C34.1125926,19.9777778 34.1555556,19.5911111 34.1555556,19.1185185 L34.3703704,18.9466667 L36.9481481,16.7985185 C37.4207407,16.4118519 37.8933333,15.9822222 38.3659259,15.5955556 C38.5377778,15.6814815 38.7096296,15.8103704 38.8385185,15.8962963 C38.8385185,15.8962963 40.1703704,16.0251852 40.9007407,14.0059259 L40.5140741,13.7481481 L40.7718519,13.5333333 L41.4162963,12.9748148 C41.6311111,12.802963 41.802963,12.5881481 41.8888889,12.2014815 C41.5022222,12.1585185 41.2444444,12.2874074 41.0296296,12.4592593 L40.3422222,12.9748148 L39.8696296,13.3185185 L33.9407407,9.23703704 C34.2414815,8.97925926 34.4992593,8.76444444 34.8,8.50666667 L36.0459259,7.38962963 C36.0888889,7.34666667 36.1318519,7.3037037 36.1748148,7.26074074 C36.3037037,7.34666667 36.3896296,7.43259259 36.5185185,7.51851852 C36.8192593,7.73333333 37.162963,7.94814815 37.4637037,8.12 L39.3540741,9.15111111 C39.9555556,9.49481481 40.6,9.83851852 41.2444444,10.1392593 C41.5451852,10.3111111 41.8888889,10.44 42.2325926,10.5688889 C42.4044444,10.6118519 42.5762963,10.6977778 42.7481481,10.7407407 C42.8340741,10.7407407 42.962963,10.7837037 43.0488889,10.7837037 L43.2637037,10.7837037 C43.3496296,10.7837037 43.4355556,10.7407407 43.5214815,10.6118519 L43.5214815,10.5688889 L43.5214815,10.5688889 L43.5214815,10.5688889 L43.5214815,10.5688889 C43.5214815,10.5259259 43.5214815,10.482963 43.5644444,10.44 L43.5644444,10.2681481 C43.5644444,10.1822222 43.5214815,10.1392593 43.4785185,10.0962963 C43.4355556,10.0103704 43.3496296,9.92444444 43.3066667,9.83851852 C43.1777778,9.70962963 43.0488889,9.53777778 42.92,9.45185185 C42.6622222,9.19407407 42.3614815,8.97925926 42.1037037,8.76444444 C41.5451852,8.33481481 40.9437037,7.94814815 40.3422222,7.56148148 C39.7407407,7.17481481 39.1392593,6.83111111 38.4948148,6.53037037 C38.1940741,6.35851852 37.8503704,6.22962963 37.5066667,6.10074074 C37.3348148,6.05777778 37.162963,5.97185185 36.9481481,5.92888889 C36.8622222,5.92888889 36.7333333,5.88592593 36.6044444,5.88592593 C36.5185185,5.88592593 36.4755556,5.88592593 36.3466667,5.92888889 C36.2607407,5.97185185 36.1318519,6.01481481 36.002963,6.1437037 C35.7022222,6.27259259 35.4444444,6.40148148 35.2296296,6.57333333 L33.9407407,7.3037037 C33.5540741,7.60444444 33.1244444,7.94814815 32.7377778,8.24888889 L32.3081481,7.94814815 C32.3081481,7.94814815 30.5037037,8.12 31.1051852,9.28 C31.1051852,9.28 31.1481481,9.32296296 31.277037,9.45185185 C29.5585185,10.8696296 27.882963,12.3303704 26.2074074,13.7481481 C24.4888889,15.2088889 22.8133333,16.6696296 21.0948148,18.1733333 L18.56,20.4074074 C18.4311111,20.5362963 18.3022222,20.6651852 18.1303704,20.7940741 C18.0444444,20.5362963 17.9155556,20.3214815 17.8296296,20.1066667 L17.2281481,18.8177778 L16.0681481,16.24 C15.2948148,14.5214815 14.5214815,12.802963 13.7051852,11.0844444 L11.2992593,5.97185185 C11.1703704,5.71407407 11.0414815,5.4562963 10.9125926,5.19851852 L11.4281481,5.19851852 C11.4281481,5.19851852 11.6,3.78074074 10.5688889,3.52296296 C10.5688889,3.52296296 10.397037,3.52296296 10.1392593,3.56592593 C9.75259259,2.79259259 9.40888889,2.01925926 9.02222222,1.24592593 L9.02222222,1.24592593 L8.85037037,0.601481481 C8.80740741,0.386666667 8.67851852,0.300740741 8.59259259,0.214814815 C8.50666667,0.171851852 8.42074074,0.128888889 8.37777778,0.128888889 C8.24888889,0.0859259259 8.16296296,0.0859259259 8.03407407,0.042962963 C7.81925926,0 7.64740741,0 7.47555556,0 C7.08888889,0 6.74518519,0.042962963 6.40148148,0.0859259259 C5.71407407,0.171851852 4.9837037,0.300740741 4.2962963,0.472592593 C3.60888889,0.644444444 2.92148148,0.816296296 2.23407407,1.03111111 C1.89037037,1.16 1.54666667,1.24592593 1.24592593,1.41777778 C1.07407407,1.5037037 0.902222222,1.58962963 0.73037037,1.67555556 C0.644444444,1.71851852 0.558518519,1.80444444 0.472592593,1.84740741 C0.42962963,1.89037037 0.386666667,1.93333333 0.343703704,1.9762963 C0.300740741,2.01925926 0.300740741,2.06222222 0.257777778,2.10518519 L0.257777778,2.23407407 L0.257777778,2.23407407 L0.257777778,2.23407407 L0.257777778,2.23407407 L0.257777778,2.27703704 C0.300740741,2.44888889 0.386666667,2.49185185 0.472592593,2.53481481 C0.558518519,2.57777778 0.601481481,2.62074074 0.644444444,2.62074074 C0.773333333,2.6637037 0.859259259,2.6637037 0.945185185,2.70666667 C1.11703704,2.74962963 1.33185185,2.74962963 1.5037037,2.74962963 C1.84740741,2.74962963 2.23407407,2.70666667 2.57777778,2.6637037 C3.26518519,2.57777778 3.99555556,2.49185185 4.68296296,2.36296296 L6.78814815,2.01925926 C7.13185185,1.9762963 7.47555556,1.89037037 7.86222222,1.80444444 C8.16296296,2.40592593 8.4637037,3.05037037 8.76444444,3.65185185 C6.78814815,3.8237037 3.69481481,4.08148148 1.76148148,4.2962963 C1.54666667,3.90962963 1.37481481,3.56592593 1.16,3.17925926 C1.11703704,3.09333333 0.988148148,3.00740741 0.859259259,3.05037037 C0.73037037,3.09333333 0.687407407,3.22222222 0.73037037,3.35111111 C0.859259259,3.69481481 0.988148148,3.99555556 1.11703704,4.33925926 C0.515555556,4.42518519 0.128888889,4.51111111 0.0859259259,4.59703704 C-0.128888889,4.9837037 0.515555556,7.00296296 1.37481481,7.51851852 C1.37481481,7.51851852 1.71851852,7.38962963 2.32,7.26074074 C2.62074074,7.94814815 2.92148148,8.63555556 3.22222222,9.32296296 L5.8,15.1659259 L8.42074074,21.0088889 C9.28,22.9422222 10.1822222,24.8755556 11.0844444,26.8518519 L11.0844444,26.8518519 C11.0844444,26.8518519 11.0844444,26.8948148 11.1274074,26.8948148 C10.9985185,27.3244444 10.8696296,27.7540741 10.7407407,28.1837037 C10.397037,29.3866667 10.0533333,30.5896296 9.70962963,31.7925926 C9.06518519,34.1985185 8.4637037,36.6474074 7.86222222,39.0533333 L6.96,42.7051852 L6.10074074,46.357037 C5.49925926,48.8059259 4.94074074,51.2118519 4.25333333,53.6177778 C4.25333333,53.6607407 4.25333333,53.7466667 4.2962963,53.7896296 C4.64,54.2622222 5.11259259,54.6059259 5.54222222,54.9496296 C6.01481481,55.2933333 6.48740741,55.5511111 6.96,55.8088889 C7.94814815,56.3244444 8.97925926,56.7111111 10.0533333,57.0548148 C11.1274074,57.3555556 12.2444444,57.5703704 13.4044444,57.6133333 C13.962963,57.6562963 14.5644444,57.6133333 15.122963,57.5274074 C15.6814815,57.4414815 16.24,57.3555556 16.8414815,57.1837037 C17.0133333,57.1407407 17.1422222,56.9688889 17.1851852,56.797037 L17.1851852,56.7540741 C17.6577778,54.3911111 18.0444444,51.9851852 18.4740741,49.6222222 L19.677037,42.4474074 C20.0637037,40.0414815 20.4933333,37.6785185 20.88,35.2725926 C20.922963,35.0148148 20.9659259,34.7140741 21.0088889,34.4562963 C21.0948148,34.5422222 21.1377778,34.6711111 21.2237037,34.757037 C21.6533333,35.2725926 22.1688889,35.7022222 22.6844444,36.0888889 C23.7155556,36.8192593 24.8325926,37.3777778 25.9496296,37.8074074 C27.0666667,38.237037 28.2266667,38.5807407 29.3866667,38.8385185 C30.16,39.0103704 30.8903704,39.1392593 31.6637037,39.2251852 C31.32,39.9985185 31.1051852,40.8148148 31.1481481,41.717037 C31.1481481,41.802963 31.1911111,41.8888889 31.277037,41.9318519 L31.32,41.9318519 C32.1362963,42.3614815 32.9955556,42.7051852 33.9407407,42.92 C34.842963,43.0918519 35.8311111,43.1777778 36.7762963,43.0488889 C37.7644444,42.92 38.7525926,42.5333333 39.5259259,41.8888889 C40.2992593,41.2444444 40.8577778,40.3851852 41.2014815,39.482963 L41.2444444,39.44 L41.2444444,39.397037 C41.2874074,39.0103704 41.3303704,38.6237037 41.3733333,38.237037 L41.3733333,38.1940741 C41.802963,37.9362963 42.2325926,37.6785185 42.6622222,37.3348148 C43.1777778,36.9051852 43.6503704,36.4325926 43.9940741,35.8311111 C44.3377778,35.2296296 44.5525926,34.4992593 44.5096296,33.7688889 C44.4666667,33.0814815 44.2088889,32.3940741 43.9081481,31.7925926 L43.9081481,31.7925926 Z M43.0918519,10.1392593 L43.0918519,10.1392593 C43.0918519,10.1392593 43.0918519,10.1822222 43.0918519,10.1392593 L43.0918519,10.1392593 Z M40.0414815,7.86222222 C40.642963,8.20592593 41.2014815,8.54962963 41.76,8.97925926 C42.0177778,9.19407407 42.3185185,9.36592593 42.5762963,9.6237037 C42.7051852,9.75259259 42.8340741,9.83851852 42.92,9.96740741 C42.962963,10.0103704 42.962963,10.0103704 43.0059259,10.0533333 L42.92,10.0533333 C42.7481481,10.0103704 42.6192593,9.96740741 42.4474074,9.92444444 C42.1466667,9.79555556 41.802963,9.66666667 41.5022222,9.53777778 C40.9007407,9.23703704 40.2562963,8.9362963 39.6977778,8.54962963 C39.1392593,8.16296296 38.5807407,7.73333333 38.1081481,7.26074074 C37.9362963,7.08888889 37.7644444,6.91703704 37.6355556,6.74518519 C37.8503704,6.83111111 38.0651852,6.91703704 38.28,7.00296296 C38.8385185,7.21777778 39.44,7.51851852 40.0414815,7.86222222 L40.0414815,7.86222222 Z M37.12,5.97185185 C37.12,5.97185185 37.12,5.97185185 37.162963,6.01481481 L37.162963,6.05777778 L37.162963,6.10074074 C37.162963,6.10074074 37.162963,6.05777778 37.12,6.05777778 L37.12,5.97185185 L37.12,5.97185185 L37.12,5.97185185 Z M6.48740741,1.16 C5.88592593,1.46074074 5.19851852,1.67555556 4.55407407,1.84740741 C3.86666667,2.01925926 3.22222222,2.14814815 2.53481481,2.19111111 C2.19111111,2.23407407 1.84740741,2.23407407 1.5037037,2.23407407 C1.33185185,2.23407407 1.16,2.23407407 1.03111111,2.19111111 L0.902222222,2.19111111 C0.945185185,2.19111111 0.945185185,2.14814815 0.988148148,2.14814815 C1.11703704,2.06222222 1.28888889,2.01925926 1.41777778,1.93333333 C1.71851852,1.80444444 2.06222222,1.71851852 2.36296296,1.58962963 C3.00740741,1.41777778 3.69481481,1.24592593 4.38222222,1.11703704 C5.06962963,0.988148148 5.75703704,0.902222222 6.40148148,0.859259259 C6.6162963,0.859259259 6.83111111,0.859259259 7.04592593,0.816296296 C6.91703704,0.945185185 6.70222222,1.03111111 6.48740741,1.16 L6.48740741,1.16 Z M36.3037037,15.8103704 L33.64,17.8725926 L30.9762963,19.9777778 C30.2459259,20.5792593 29.5155556,21.1807407 28.7851852,21.7392593 C28.8281481,21.6962963 28.8711111,21.6103704 28.9140741,21.5674074 C29.2577778,21.0948148 29.6014815,20.6651852 29.9451852,20.2355556 C30.6755556,19.3762963 31.362963,18.4740741 32.1362963,17.6577778 C32.9096296,16.8414815 33.7259259,16.0251852 34.5422222,15.2948148 C34.9718519,14.9081481 35.4014815,14.5644444 35.8740741,14.2637037 C36.002963,14.1777778 36.1318519,14.0918519 36.2607407,14.0059259 C36.6474074,14.3066667 37.077037,14.6074074 37.4637037,14.9081481 C37.12,15.2088889 36.6903704,15.5096296 36.3037037,15.8103704 L36.3037037,15.8103704 Z M4.81185185,10.5259259 L5.02666667,10.7407407 C5.4562963,11.1703704 5.88592593,11.6 6.22962963,12.0725926 C6.57333333,12.5451852 6.87407407,13.0607407 7.00296296,13.5762963 C7.08888889,14.0059259 7.08888889,14.4785185 6.87407407,14.8651852 L6.83111111,14.7362963 L4.81185185,10.5259259 L4.81185185,10.5259259 Z M6.91703704,14.9940741 C7.04592593,14.8651852 7.13185185,14.6933333 7.21777778,14.4785185 C7.34666667,14.1777778 7.34666667,13.8340741 7.3037037,13.5333333 C7.21777778,12.8888889 6.91703704,12.2874074 6.53037037,11.8148148 C5.97185185,11.0844444 5.28444444,10.482963 4.51111111,9.96740741 L4.03851852,8.97925926 C3.73777778,8.33481481 3.43703704,7.69037037 3.09333333,7.08888889 C3.73777778,6.91703704 4.51111111,6.65925926 5.37037037,6.44444444 C6.1437037,7.69037037 6.83111111,8.97925926 7.47555556,10.3111111 C8.20592593,11.9866667 8.9362963,13.7481481 9.06518519,15.5525926 C9.10814815,15.9822222 9.06518519,16.4548148 9.06518519,16.9274074 C9.06518519,17.4 9.06518519,17.8725926 9.10814815,18.3451852 C9.15111111,18.9896296 9.28,19.677037 9.40888889,20.3214815 L6.91703704,14.9940741 L6.91703704,14.9940741 Z M17.0562963,50.0088889 C16.9274074,50.1807407 16.8414815,50.3096296 16.6696296,50.4385185 C16.4548148,50.6103704 16.24,50.6962963 15.9822222,50.6533333 C15.7674074,50.6103704 15.5955556,50.3955556 15.5096296,50.1807407 C15.4237037,49.9659259 15.3377778,49.7081481 15.3377778,49.4503704 C15.2948148,48.9348148 15.2948148,48.4192593 15.4237037,47.9037037 C15.5096296,47.3881481 15.6814815,46.9155556 15.8962963,46.442963 C16.0251852,46.2281481 16.1540741,46.0133333 16.3259259,45.8414815 C16.4977778,45.6696296 16.7125926,45.5407407 16.9274074,45.5837037 C17.1422222,45.5837037 17.357037,45.7985185 17.4859259,46.0133333 C17.5718519,46.1422222 17.6148148,46.2711111 17.6577778,46.4 L17.1422222,49.4503704 C17.0992593,49.6651852 17.0992593,49.837037 17.0562963,50.0088889 L17.0562963,50.0088889 Z M19.5911111,35.1866667 C19.3333333,36.6903704 19.0755556,38.1940741 18.8177778,39.6977778 C18.7748148,39.397037 18.6888889,39.0962963 18.602963,38.7955556 C18.3881481,37.9792593 18.1303704,37.2059259 17.8725926,36.4325926 C17.3140741,34.8859259 16.6696296,33.3822222 15.8962963,31.9644444 C16.3688889,33.5540741 16.9274074,35.0577778 17.4859259,36.6044444 C17.7866667,37.3777778 18.0444444,38.1511111 18.3022222,38.8814815 C18.4311111,39.2681481 18.56,39.6548148 18.6888889,40.0414815 C18.6888889,40.0844444 18.7318519,40.1703704 18.7318519,40.2133333 C18.602963,40.9007407 18.4740741,41.5881481 18.3881481,42.3185185 L17.7437037,46.2281481 C17.7007407,46.1422222 17.7007407,46.0562963 17.6577778,45.9703704 C17.5288889,45.7125926 17.357037,45.4548148 17.0133333,45.3688889 C16.7125926,45.282963 16.4118519,45.4548148 16.1540741,45.6266667 C15.9392593,45.7985185 15.7674074,46.0562963 15.5955556,46.2711111 C15.2948148,46.7437037 15.122963,47.3022222 15.037037,47.8177778 C14.9511111,48.3762963 14.9081481,48.9348148 15.037037,49.4933333 C15.08,49.7511111 15.1659259,50.0518519 15.3377778,50.3096296 C15.4666667,50.5674074 15.7244444,50.8251852 16.0251852,50.8681481 C16.3259259,50.9111111 16.6266667,50.7392593 16.7985185,50.5244444 C16.8844444,50.4385185 16.9703704,50.3096296 17.0562963,50.2237037 C16.7555556,52.242963 16.4118519,54.2622222 16.1111111,56.3244444 C15.7244444,56.4533333 15.3377778,56.5392593 14.9511111,56.5822222 C14.4355556,56.6681481 13.92,56.7111111 13.4044444,56.7540741 C12.3303704,56.797037 11.2992593,56.7111111 10.2251852,56.4533333 C9.19407407,56.2385185 8.12,55.8948148 7.13185185,55.4651852 C6.18666667,55.0355556 5.28444444,54.477037 4.59703704,53.7037037 C5.24148148,51.3407407 5.97185185,48.9777778 6.70222222,46.6148148 L7.81925926,43.0488889 L8.89333333,39.44 C9.6237037,37.0340741 10.3540741,34.6281481 11.0414815,32.2222222 C11.3851852,31.0192593 11.6859259,29.8162963 12.0296296,28.6133333 C12.2874074,27.3674074 12.802963,26.2074074 12.4162963,24.8325926 L12.4162963,24.7896296 C12.3733333,24.7466667 12.3303704,24.7466667 12.3303704,24.7896296 C12.1155556,25.0044444 11.9866667,25.1762963 11.8148148,25.3911111 C11.3422222,24.317037 10.8266667,23.2859259 10.3540741,22.2118519 C10.2251852,21.8251852 10.0962963,21.4385185 10.0103704,21.0088889 C9.79555556,20.1066667 9.6237037,19.2044444 9.58074074,18.3022222 C9.53777778,17.8296296 9.53777778,17.4 9.53777778,16.9274074 C9.53777778,16.4548148 9.58074074,15.9822222 9.53777778,15.5096296 C9.36592593,13.6192593 8.63555556,11.8148148 7.81925926,10.1392593 C7.17481481,8.80740741 6.40148148,7.56148148 5.54222222,6.35851852 C6.96,5.97185185 8.4637037,5.58518519 9.66666667,5.37037037 C9.83851852,5.75703704 10.0533333,6.10074074 10.2251852,6.48740741 L12.802963,11.557037 C13.6622222,13.2325926 14.5214815,14.9081481 15.3807407,16.5837037 L16.6696296,19.0755556 L17.3140741,20.3214815 C17.4859259,20.5792593 17.5718519,20.88 17.7437037,21.0948148 C17.1851852,21.6103704 16.6266667,22.1259259 16.0681481,22.6414815 C16.0251852,22.6844444 15.9822222,22.7703704 16.0681481,22.8562963 C16.1111111,22.9422222 16.24,22.9422222 16.282963,22.8992593 C17.1851852,22.2548148 18.0874074,21.5674074 18.9896296,20.88 L21.6962963,18.8177778 C23.5007407,17.442963 25.2622222,16.0681481 27.0237037,14.6933333 C28.7851852,13.3185185 30.5466667,11.9007407 32.3081481,10.482963 L32.3511111,10.44 C33.2962963,11.3422222 34.7140741,12.6740741 36.2177778,13.8340741 C35.5733333,14.1777778 34.9718519,14.5214815 34.4133333,14.9511111 C33.5111111,15.6385185 32.6518519,16.4118519 31.8785185,17.2711111 C31.1051852,18.1303704 30.3748148,18.9896296 29.7303704,19.9348148 C29.2577778,20.5792593 28.8281481,21.2666667 28.3985185,21.997037 C25.7777778,24.1451852 23.2,26.3362963 20.7081481,28.6133333 C20.6222222,28.6992593 20.6222222,28.8281481 20.6651852,28.9140741 C20.7511111,29 20.88,29.042963 20.9659259,29 C20.6651852,29.8592593 20.4933333,30.7185185 20.3214815,31.5777778 C20.0637037,32.7807407 19.8059259,33.9837037 19.5911111,35.1866667 L19.5911111,35.1866667 Z M38.5807407,40.9437037 C37.9792593,41.4162963 37.2488889,41.717037 36.4755556,41.8888889 C35.7022222,42.0607407 34.842963,42.0607407 34.0266667,41.9748148 C33.2533333,41.8888889 32.437037,41.76 31.6637037,41.5451852 C31.5777778,40.8577778 31.7066667,40.0844444 32.0074074,39.397037 C32.3081481,39.44 32.5659259,39.44 32.8666667,39.482963 C32.9955556,39.482963 33.0814815,39.44 33.1244444,39.3111111 C33.1674074,39.1822222 33.1244444,39.0103704 32.9525926,38.9674074 L32.9525926,38.9674074 C32.7377778,38.8814815 32.5659259,38.8385185 32.3511111,38.7525926 C32.522963,38.4518519 32.7377778,38.1940741 32.9525926,37.9362963 C33.2103704,37.6785185 33.4681481,37.4207407 33.7259259,37.2059259 C34.2844444,37.5496296 34.842963,37.8074074 35.4874074,38.0222222 C36.2177778,38.237037 36.9911111,38.322963 37.8074074,38.237037 C38.5807407,38.1511111 39.397037,37.7644444 39.9125926,37.12 C40.3851852,36.5614815 40.6,35.917037 40.642963,35.2296296 C40.7288889,35.4874074 40.7288889,35.7881481 40.6859259,36.0459259 C40.642963,36.3896296 40.6,36.7762963 40.5140741,37.12 C40.4711111,37.3348148 40.4281481,37.5496296 40.3851852,37.7644444 C40.1703704,37.8933333 39.9555556,38.0222222 39.7407407,38.1511111 C39.482963,38.322963 39.2681481,38.4948148 39.0533333,38.8814815 C39.44,39.0103704 39.7407407,38.9674074 40.0414815,38.8814815 C40.0844444,38.8814815 40.0844444,38.8385185 40.1274074,38.8385185 C40.0844444,38.9674074 40.0844444,39.0533333 40.0414815,39.1822222 C39.6977778,39.8696296 39.1822222,40.4711111 38.5807407,40.9437037 L38.5807407,40.9437037 Z M42.8340741,35.3155556 C42.6192593,35.7881481 42.2755556,36.2177778 41.8888889,36.6044444 C41.717037,36.7762963 41.5022222,36.9481481 41.3303704,37.077037 C41.3303704,36.6903704 41.2874074,36.3037037 41.2014815,35.917037 C41.1585185,35.7022222 41.1155556,35.5303704 41.0296296,35.3155556 C40.9437037,35.1437037 40.8577778,34.9288889 40.642963,34.8 L40.642963,34.8 C40.6,34.8 40.557037,34.8 40.557037,34.842963 L40.557037,34.842963 C40.2992593,35.4874074 39.8696296,36.0459259 39.397037,36.4325926 C38.9244444,36.8192593 38.322963,36.9911111 37.7214815,37.0340741 C37.12,37.077037 36.4755556,36.9481481 35.8311111,36.7762963 C35.1866667,36.6044444 34.5422222,36.3896296 33.8977778,36.1748148 L33.8118519,36.1318519 C33.682963,36.0888889 33.5111111,36.1318519 33.4251852,36.2177778 C33.0814815,36.6474074 32.8237037,37.0340741 32.522963,37.4637037 C32.3081481,37.8074074 32.1362963,38.1081481 31.9644444,38.4518519 C31.1911111,38.1511111 30.4607407,37.8933333 29.6874074,37.5925926 C28.6133333,37.162963 27.5392593,36.7333333 26.5511111,36.2177778 C25.52,35.7451852 24.5318519,35.1866667 23.6725926,34.5422222 C22.8133333,33.8977778 22.04,33.2103704 21.6533333,32.3511111 L21.6533333,32.3081481 C21.5674074,32.1362963 21.4385185,32.0074074 21.2666667,31.9214815 C21.2666667,31.8355556 21.3096296,31.7066667 21.3096296,31.6207407 C21.4385185,30.5896296 21.6103704,29.5585185 21.5244444,28.4844444 C25.0044444,26.0355556 28.3985185,23.4577778 31.7496296,20.7940741 C31.7066667,20.922963 31.6637037,21.0518519 31.6207407,21.1807407 C31.4059259,21.8251852 31.32,22.5555556 31.32,23.2859259 C31.362963,24.0162963 31.5777778,24.8325926 32.0503704,25.52 C32.522963,26.2074074 33.1674074,26.722963 33.8118519,27.0237037 C34.1555556,27.1955556 34.4992593,27.3244444 34.8,27.4103704 C34.9718519,27.4533333 35.1437037,27.4962963 35.3155556,27.5392593 L35.7451852,27.6251852 C36.8622222,27.9259259 37.9362963,28.3555556 38.9244444,28.9140741 C39.9125926,29.4725926 40.8577778,30.16 41.6311111,30.9333333 C42.4044444,31.7066667 43.0059259,32.6948148 43.0918519,33.682963 C43.1348148,34.3703704 43.0488889,34.8859259 42.8340741,35.3155556 L42.8340741,35.3155556 Z" id="Shape"></path>
                    <path d="M14.3066667,45.197037 C13.962963,45.6696296 13.7051852,46.2281481 13.5762963,46.7866667 C13.4903704,47.0874074 13.4474074,47.3881481 13.4474074,47.6459259 L13.4044444,48.5051852 C13.3185185,49.6222222 13.3614815,50.8251852 13.7051852,51.9422222 C14.0488889,53.0592593 14.5214815,54.0903704 15.08,55.0785185 C14.9081481,54.52 14.6933333,54.0044444 14.5214815,53.4888889 C14.3496296,52.9733333 14.1777778,52.4148148 14.0488889,51.8562963 C13.7911111,50.7822222 13.7911111,49.6651852 13.8340741,48.5481481 L13.877037,47.6888889 C13.877037,47.4311111 13.92,47.1303704 13.962963,46.8725926 C14.0918519,46.357037 14.3066667,45.8414815 14.5644444,45.3688889 C14.8651852,44.8962963 15.2088889,44.4666667 15.6385185,44.08 C16.0251852,43.6933333 16.4977778,43.3496296 17.0133333,43.0918519 C15.9392593,43.5214815 14.9511111,44.2088889 14.3066667,45.197037 L14.3066667,45.197037 Z" id="Shape"></path>
                </g>
            </g>
        </g>
    </g>
</svg>