<?xml version="1.0" encoding="UTF-8" standalone="no"?>
<svg width="64px" height="64px" viewBox="0 0 64 64" version="1.1" xmlns="http://www.w3.org/2000/svg" xmlns:xlink="http://www.w3.org/1999/xlink">
    <!-- Generator: Sketch 3.6.1 (26313) - http://www.bohemiancoding.com/sketch -->
    <title>icons/skills/id-214</title>
    <desc>Created with Sketch.</desc>
    <defs></defs>
    <g id="Technologies" stroke="none" stroke-width="1" fill="none" fill-rule="evenodd">
        <g id="icons/skills/id-214">
            <path d="M60.3,22 C56.2,10.3 45.1,2 32,2 C15.4,2 2,15.4 2,32 C2,48.6 15.4,62 32,62 C45.1,62 56.2,53.7 60.3,42 L60.3,22 L60.3,22 Z" id="XMLID_11_" fill="#097DCE"></path>
            <path d="M15.8883019,21 C13.2017557,21 11,23.2432344 11,26 L11,38 C11,40.7567656 13.2017557,43 15.8883019,43 L59.3691698,43 L60.0442444,43 L60.2739926,42.3403301 C61.4072983,39.0862996 62,35.5681149 62,32 C62,28.4318851 61.4072983,24.9137004 60.2739926,21.6596699 L60.0442444,21 L59.3691698,21 L15.8883019,21 L15.8883019,21 Z" id="Shape" fill="#FFFFFF"></path>
            <path d="M60.5481148,23 C61.5019391,25.855521 63,33.5000002 60.5481148,41.0000002 C45.8136661,41.0000002 16.08,41 16.08,41 C14.3839009,41 13,39.6432344 13,38 L13,26 C13,24.3567656 14.3839009,23 16.08,23 C16.08,23 60,23 60.5481148,23 Z" id="Path" fill="#E0EEFB"></path>
            <path d="M25.4,36 L23.8,36 L23.8,32.5 C23.8,31.6 23.5,31.2 22.8,31.2 C22.3,31.2 22,31.4 21.8,31.7 C21.6,32 21.5,32.5 21.5,33.2 L21.5,36 L19.9,36 L19.9,27.6 L21.5,27.6 L21.5,29.3 L21.5,30.2 L21.5,30.7 L21.6,30.7 C22,30.1 22.5,29.8 23.3,29.8 C24,29.8 24.5,30 24.9,30.4 C25.3,30.8 25.4,31.3 25.4,32 L25.4,36 L25.4,36 Z M29.6,34.8 C29.9,34.8 30.2,34.7 30.6,34.6 L30.6,35.8 C30.2,36 29.7,36.1 29.1,36.1 C28.4,36.1 28,35.9 27.7,35.6 C27.4,35.3 27.3,34.8 27.3,34.1 L27.3,31.2 L26.5,31.2 L26.5,30.5 L27.4,30 L27.9,28.7 L28.9,28.7 L28.9,30 L30.6,30 L30.6,31.2 L28.9,31.2 L28.9,34.1 C28.9,34.3 29,34.5 29.1,34.6 C29.2,34.7 29.4,34.8 29.6,34.8 L29.6,34.8 Z M34.4,34.8 C34.7,34.8 35,34.7 35.4,34.6 L35.4,35.8 C35,36 34.5,36.1 33.9,36.1 C33.2,36.1 32.8,35.9 32.5,35.6 C32.2,35.3 32.1,34.8 32.1,34.1 L32.1,31.2 L31.3,31.2 L31.3,30.5 L32.2,30 L32.7,28.7 L33.7,28.7 L33.7,30 L35.4,30 L35.4,31.2 L33.7,31.2 L33.7,34.1 C33.7,34.3 33.8,34.5 33.9,34.6 C34,34.7 34.2,34.8 34.4,34.8 L34.4,34.8 Z M39.9,36.1 C39.2,36.1 38.6,35.8 38.2,35.3 L38.1,35.3 C38.2,35.8 38.2,36.1 38.2,36.2 L38.2,38.6 L36.6,38.6 L36.6,30 L38,30 L38.2,30.8 L38.3,30.8 C38.7,30.2 39.3,29.9 40,29.9 C40.7,29.9 41.3,30.2 41.7,30.7 C42.1,31.2 42.3,32 42.3,33 C42.3,33.6 42.2,34.2 42,34.7 C41.8,35.2 41.5,35.5 41.2,35.8 C40.8,36 40.4,36.1 39.9,36.1 L39.9,36.1 Z M39.5,31.2 C39.1,31.2 38.8,31.3 38.6,31.6 C38.4,31.9 38.3,32.3 38.3,32.8 L38.3,33 C38.3,33.6 38.4,34.1 38.6,34.4 C38.8,34.7 39.1,34.8 39.5,34.8 C40.2,34.8 40.6,34.2 40.6,33 C40.6,32.4 40.5,32 40.3,31.7 C40.1,31.3 39.8,31.2 39.5,31.2 L39.5,31.2 Z M43.4,30.8 C43.4,30.5 43.5,30.3 43.6,30.1 C43.7,29.9 44,29.9 44.3,29.9 C44.6,29.9 44.8,30 45,30.1 C45.2,30.3 45.2,30.5 45.2,30.8 C45.2,31.1 45.1,31.3 45,31.5 C44.8,31.7 44.6,31.7 44.3,31.7 C44,31.7 43.8,31.6 43.6,31.5 C43.5,31.3 43.4,31.1 43.4,30.8 L43.4,30.8 Z M43.4,35.2 C43.4,34.9 43.5,34.7 43.6,34.5 C43.7,34.3 44,34.3 44.3,34.3 C44.6,34.3 44.8,34.4 45,34.5 C45.2,34.7 45.2,34.9 45.2,35.2 C45.2,35.5 45.1,35.7 45,35.9 C44.9,36.1 44.6,36.1 44.3,36.1 C44,36.1 43.8,36 43.6,35.9 C43.4,35.8 43.4,35.5 43.4,35.2 L43.4,35.2 Z M50.4,28.1 L47.4,36 L46,36 L48.9,28.1 L50.4,28.1 L50.4,28.1 Z M54.9,28.1 L52,36 L50.5,36 L53.4,28.1 L54.9,28.1 L54.9,28.1 Z" id="Shape" fill="#394146"></path>
        </g>
    </g>
</svg>