<?xml version="1.0" encoding="UTF-8" standalone="no"?>
<svg width="64px" height="64px" viewBox="0 0 64 64" version="1.1" xmlns="http://www.w3.org/2000/svg" xmlns:xlink="http://www.w3.org/1999/xlink" xmlns:sketch="http://www.bohemiancoding.com/sketch/ns">
    <!-- Generator: Sketch 3.4.2 (15857) - http://www.bohemiancoding.com/sketch -->
    <title>icons/skills/id-21</title>
    <desc>Created with Sketch.</desc>
    <defs></defs>
    <g id="Frameworks" stroke="none" stroke-width="1" fill="none" fill-rule="evenodd" sketch:type="MSPage">
        <g id="icons/skills/id-21" sketch:type="MSArtboardGroup">
            <g id="Group" sketch:type="MSLayerGroup" transform="translate(10.000000, 2.000000)">
                <path d="M16.78125,17.015625 C16.265625,16.453125 15.796875,15.9375 15.328125,15.421875 C13.640625,13.59375 11.953125,11.765625 10.3125,9.9375 C9.421875,9 8.8125,7.875 8.671875,6.609375 C8.484375,5.0625 8.71875,3.515625 9.75,2.296875 C9.984375,1.96875 10.359375,1.734375 10.6875,1.5 C11.203125,1.21875 11.71875,0.9375 12.28125,0.75 C14.203125,0.140625 16.078125,0.375 17.671875,1.6875 C18.5625,2.390625 19.3125,3.234375 20.109375,4.078125 L31.640625,16.640625 C33.65625,18.84375 35.71875,21 37.6875,23.296875 C40.171875,26.109375 42.09375,29.296875 43.078125,32.953125 C43.453125,34.359375 43.6875,35.71875 43.734375,37.171875 C43.96875,42.9375 42.234375,48 38.625,52.453125 C35.953125,55.734375 32.53125,57.890625 28.40625,58.96875 C26.953125,59.34375 25.453125,59.625 23.953125,59.671875 C22.828125,59.71875 21.703125,59.765625 20.578125,59.71875 C14.8125,59.390625 9.9375,57.140625 6,52.875 C4.125,50.859375 2.625,48.65625 1.640625,46.078125 C1.03125,44.53125 0.65625,42.890625 0.515625,41.25 C0.234375,37.265625 0.703125,33.421875 2.4375,29.8125 C3.515625,27.46875 5.15625,25.546875 6.984375,23.765625 C9.75,21.09375 12.9375,18.984375 16.40625,17.390625 C16.546875,17.34375 16.640625,17.296875 16.78125,17.203125 C16.6875,17.109375 16.734375,17.0625 16.78125,17.015625 L16.78125,17.015625 Z M23.0625,42.234375 L22.78125,42.515625 C21.46875,43.828125 20.15625,45.09375 18.890625,46.40625 C18.046875,47.25 17.296875,48.1875 16.78125,49.265625 C16.40625,50.015625 16.265625,50.765625 16.546875,51.5625 C17.296875,53.8125 20.15625,54.65625 21.9375,53.4375 C22.59375,52.96875 23.25,52.40625 23.8125,51.84375 C26.625,49.21875 29.390625,46.59375 32.15625,43.96875 C33.515625,42.703125 34.59375,41.203125 35.25,39.46875 C35.390625,39.140625 35.4375,38.71875 35.4375,38.34375 C35.4375,37.59375 35.109375,36.890625 34.734375,36.1875 C34.078125,34.96875 33.140625,33.890625 32.15625,32.90625 L27.609375,28.3125 C26.15625,26.859375 24.75,25.359375 23.25,23.953125 C22.359375,23.109375 21.234375,22.546875 19.921875,22.59375 C18.515625,22.6875 17.390625,23.25 16.640625,24.46875 C16.359375,24.9375 16.171875,25.5 16.21875,26.0625 C16.265625,27.234375 16.828125,28.21875 17.625,29.0625 C18.9375,30.421875 20.25,31.6875 21.609375,33 C22.125,33.515625 22.59375,34.03125 23.015625,34.5 L13.734375,34.5 C12.421875,34.5 11.0625,34.453125 9.75,34.546875 C8.953125,34.59375 8.203125,34.875 7.59375,35.4375 C6.46875,36.515625 6.140625,37.875 6.421875,39.375 C6.703125,40.78125 7.5,41.765625 8.953125,42.09375 C9.46875,42.1875 9.984375,42.234375 10.546875,42.234375 L14.953125,42.375 C16.078125,42.375 17.203125,42.328125 18.375,42.328125 L21.046875,42.328125 C21.703125,42.234375 22.359375,42.234375 23.0625,42.234375 L23.0625,42.234375 Z" id="Shape" fill="#F56D39" sketch:type="MSShapeGroup"></path>
                <path d="M23.0625,42.234375 L18.421875,42.234375 C17.296875,42.234375 16.171875,42.28125 15,42.28125 C13.546875,42.28125 12.046875,42.234375 10.59375,42.140625 C10.078125,42.140625 9.515625,42.09375 9,42 C7.546875,41.671875 6.703125,40.6875 6.46875,39.28125 C6.1875,37.78125 6.515625,36.421875 7.640625,35.34375 C8.25,34.78125 9,34.5 9.796875,34.453125 C11.109375,34.40625 12.46875,34.40625 13.78125,34.40625 L23.0625,34.40625 C22.59375,33.9375 22.125,33.421875 21.65625,32.90625 C20.34375,31.59375 18.984375,30.328125 17.671875,28.96875 C16.875,28.125 16.359375,27.140625 16.265625,25.96875 C16.21875,25.40625 16.40625,24.890625 16.6875,24.375 C17.4375,23.15625 18.5625,22.59375 19.96875,22.5 C21.28125,22.40625 22.359375,22.96875 23.296875,23.859375 C24.796875,25.265625 26.203125,26.765625 27.65625,28.21875 C29.203125,29.765625 30.703125,31.265625 32.203125,32.8125 C33.1875,33.796875 34.078125,34.875 34.78125,36.09375 C35.15625,36.75 35.4375,37.453125 35.484375,38.25 C35.484375,38.625 35.4375,39 35.296875,39.375 C34.640625,41.109375 33.5625,42.609375 32.203125,43.875 L23.859375,51.75 C23.25,52.3125 22.640625,52.875 21.984375,53.34375 C20.25,54.5625 17.390625,53.71875 16.59375,51.46875 C16.3125,50.71875 16.453125,49.921875 16.828125,49.171875 C17.34375,48.09375 18.09375,47.15625 18.9375,46.3125 C20.203125,45 21.515625,43.734375 22.828125,42.421875 L23.0625,42.234375 L23.0625,42.234375 Z" id="Shape" fill="#FFFFFF" sketch:type="MSShapeGroup"></path>
            </g>
        </g>
    </g>
</svg>