<?xml version="1.0" encoding="UTF-8" standalone="no"?>
<svg width="64px" height="64px" viewBox="0 0 64 64" version="1.1" xmlns="http://www.w3.org/2000/svg" xmlns:xlink="http://www.w3.org/1999/xlink">
    <defs></defs>
    <g id="Database" stroke="none" stroke-width="1" fill="none" fill-rule="evenodd">
        <g id="icons/skills/id-284" fill="#00618A">
            <path d="M61.2758895,60.3260496 L60.0312949,59.1190402 C58.8518797,57.5528301 57.3346732,56.1769251 55.7422962,55.0346194 C54.4724861,54.1230585 51.6217174,52.8917852 51.091718,51.4145427 L50.9941867,51.321769 C51.8948051,51.2199559 52.9462401,50.8945343 53.7773972,50.6714017 C55.1732843,50.2974524 56.325581,50.3940322 57.7671413,50.021986 C58.4170328,49.8364386 59.1463767,49.6504155 59.6221392,49.4648681 L59.6221392,49.0937734 C59.1463767,48.3463505 58.4674636,47.3567646 57.6729403,46.6802303 C55.5943341,44.9103939 53.3715718,43.1419848 51.035578,41.6671211 C49.7400768,40.8497612 48.1614969,40.3183345 46.7889222,39.6251486 C46.3269568,39.3915492 45.5272001,39.2702298 45.2217606,38.8820076 C44.5000289,37.9628345 44.1141856,36.7972165 43.5575435,35.7262751 C42.3924012,33.4821035 41.2505712,31.031451 40.2181667,28.6702419 C39.5140382,27.0602617 39.0558789,25.4731181 38.1776214,24.0287032 C33.9623659,17.0982712 29.4259707,12.9158433 22.3980074,8.80430403 C20.9017345,7.9298526 19.1014493,7.58492481 17.1983994,7.13295046 C16.1783646,7.0715771 15.1569026,7.00925221 14.1359163,6.94692733 C13.5121917,6.68716102 12.8637275,5.92451377 12.2794911,5.55437057 C9.95015807,4.083313 3.97791174,0.883810363 2.25327277,5.09050216 C1.16425247,7.74573252 3.88038043,10.3357834 4.8518874,11.6817155 C5.53460655,12.6246767 6.40763069,13.6832482 6.8943357,14.7446743 C7.21547537,15.4426178 7.27018806,16.1424644 7.544703,16.880372 C8.21933419,18.6987362 8.80594932,20.6769566 9.67944922,22.3568739 C10.120481,23.2075372 10.6067103,24.1029221 11.1647797,24.8631906 C11.5063771,25.3299136 12.0925165,25.5354429 12.1852902,26.2557473 C11.6124722,27.0578829 11.5796445,28.303429 11.2575534,29.3196577 C9.8064778,33.8941138 10.3545562,39.5804269 12.4645627,42.9659527 C13.1115997,44.0059695 14.6368942,46.2349167 16.7345309,45.3794957 C18.569071,44.6325486 18.2693407,42.3165369 18.7941067,40.2736129 C18.9125716,39.8111717 18.7060906,39.4705258 19.1818531,39.1598529 L19.1818531,39.2526266 C19.6576156,40.3663865 20.1857119,41.4806223 20.7433056,42.5943822 C21.980288,44.5863997 24.0208332,46.6678605 25.8805887,48.0723113 C26.8449593,48.8007037 27.7455776,50.0595712 28.6971026,50.4858544 L28.6971026,50.4378024 L28.8022461,50.4378024 C28.5610345,49.9620399 28.1828034,49.8825875 27.8745093,49.5795269 C27.14802,48.8677862 26.3396995,47.9704982 25.7397631,47.1545655 C24.0479517,44.8580601 22.553106,42.3388978 21.190998,39.7222042 C20.540155,38.4728519 19.9744734,37.0917134 19.426395,35.8204761 C19.2156323,35.3304408 19.2180111,34.5872998 18.777455,34.3337184 C18.176567,35.2652613 17.2921246,36.0179175 16.8273046,37.1183561 C16.0846394,38.8767742 15.9890112,41.0215115 15.7135447,43.2447495 C15.5503582,43.3027925 15.6231498,43.2628285 15.5275216,43.3370474 C14.2343991,43.025423 13.7805217,41.6947154 13.2995259,40.5524097 C12.0839528,37.6645315 11.8584414,33.0149048 12.9279554,29.6912282 C13.2048492,28.8305738 14.4556287,26.1225338 13.9489417,25.3275347 C13.7072543,24.5353902 12.9098764,24.0762794 12.464087,23.4706338 C11.9117268,22.7217837 11.3607938,21.7360038 10.9782808,20.8710677 C9.98346145,18.6202354 9.51959303,16.0925094 8.47196407,13.8164617 C7.97098618,12.7283929 7.12460474,11.6270028 6.42951577,10.6602534 C5.66020785,9.58836059 4.79812624,8.79907064 4.20104434,7.50356942 C3.98933004,7.04303135 3.70101798,6.30559952 4.01549697,5.83221585 C4.11540709,5.51297923 4.25670855,5.37976574 4.57261483,5.27557376 C5.11165371,4.86023312 6.61030551,5.41354488 7.17170522,5.64619273 C8.66036601,6.26468394 9.90305759,6.83559891 11.1643039,7.67103782 C11.768998,8.07258134 12.3817801,8.57022889 13.1135028,9.04599136 L13.9489417,9.04599136 C15.2558612,9.04599136 16.7197823,9.15636826 17.9410646,9.52746299 C20.0986474,10.1835394 22.0326219,11.2126137 23.7891369,12.321616 C29.1395617,15.7004811 33.5141976,20.5142458 36.5072194,26.2509897 C36.988691,27.1749204 37.197075,28.0584113 37.6209793,29.0380063 C38.4764002,31.0138478 39.554478,33.0477324 40.4056171,34.9798038 C41.2553289,36.9080691 42.0831556,38.8534619 43.28398,40.4577329 C43.9153168,41.300784 46.3531238,41.7537099 47.4611746,42.222336 C48.2380947,42.5501363 49.5107593,42.8926853 50.2462881,43.3356201 C51.6512147,44.1834289 53.0123711,45.1929968 54.3311847,46.1212094 C54.9896399,46.5846021 57.014485,47.6027338 57.1158224,48.4419788 C53.8506646,48.3525354 51.3571935,48.6570234 49.2253018,49.5557387 C48.6196562,49.8112232 47.6529068,49.8183596 47.5539482,50.5772008 C47.886982,50.9259347 47.9388401,51.4473703 48.203364,51.8765081 C48.7119541,52.6995772 49.5716569,53.8042976 50.338586,54.3828248 C51.1768795,55.0155889 52.0399126,55.6916474 52.9381522,56.23925 C54.5362383,57.2131357 56.3193961,57.7697778 57.8580119,58.7455667 C58.7648152,59.3212393 59.7410798,60.0458255 60.6245707,60.6947655 C61.0622722,61.0159052 61.0484751,61.51498 62,61.7162276 L62,61.6239296 C61.5247133,61.2456985 61.5499287,60.7233113 61.2758895,60.3260496 L61.2758895,60.3260496 Z M15.6202952,13.0742722 C14.9394791,13.0614266 14.4242284,13.1489669 13.9484659,13.2593438 L13.9484659,13.3288052 L14.0426669,13.3288052 C14.3676126,13.8045676 14.9409064,14.4373317 15.3419742,15.0120528 L16.2706625,16.966485 L16.3624847,16.8775174 C16.9376815,16.4716921 17.2012539,15.8256066 17.1979236,14.8360207 C16.9681303,14.5938576 16.9333997,14.2907969 16.7345309,14.0015333 C16.4690555,13.6166415 15.9547563,13.3982665 15.6202952,13.0742722 L15.6202952,13.0742722 Z" id="Shape"></path>
        </g>
    </g>
</svg>