<?xml version="1.0" encoding="UTF-8" standalone="no"?>
<svg width="64px" height="64px" viewBox="0 0 64 64" version="1.1" xmlns="http://www.w3.org/2000/svg" xmlns:xlink="http://www.w3.org/1999/xlink">
    <defs>
        <linearGradient x1="50%" y1="-4.71911798e-06%" x2="50%" y2="100%" id="linearGradient-1">
            <stop stop-color="#2A4F84" offset="14.97%"></stop>
            <stop stop-color="#294E82" offset="38.839999%"></stop>
            <stop stop-color="#172E4E" offset="100%"></stop>
        </linearGradient>
    </defs>
    <g id="Languages" stroke="none" stroke-width="1" fill="none" fill-rule="evenodd">
        <g id="icons/skills/id-265">
            <g id="LESS_Logo" transform="translate(2.000000, 19.000000)">
                <g id="layer1" transform="translate(0.033100, 0.009735)">
                    <path d="M56.6830218,21.5285857 C56.6830218,24.3297072 54.3911838,26.6215452 51.5900623,26.6215452 L8.78320873,26.6215452 C5.98208723,26.6215452 3.69024922,24.3297072 3.69024922,21.5285857 L3.69024922,5.30902118 C3.69024922,2.50789969 5.98208723,0.216061682 8.78320873,0.216061682 L51.5900623,0.216061682 C54.3911838,0.216061682 56.6830218,2.50789969 56.6830218,5.30902118 L56.6830218,21.5285857 L56.6830218,21.5285857 Z" id="path19" fill="url(#linearGradient-1)"></path>
                    <path d="M47.7282555,13.072324 C49.9655763,13.8550654 51.0837695,15.1961869 51.0837695,17.0936947 C51.0837695,18.3426667 50.6200312,19.3340062 49.6946106,20.067215 C48.7701246,20.8009221 47.4513084,21.2562492 45.7346729,21.2562492 C44.0180374,21.2562492 42.4301869,20.758866 40.9676947,19.9423551 C40.9835202,19.5093333 41.0979751,19.0342555 41.3080685,18.5185545 C41.518162,18.0028536 41.7668224,17.593134 42.0517445,17.2938816 C43.3958567,17.9923863 44.565514,18.3422305 45.5583489,18.3422305 C46.0275701,18.3422305 46.3906231,18.2634766 46.6433333,18.1049097 C46.8964798,17.9469034 47.0223364,17.7348162 47.0223364,17.4683364 C47.0223364,16.9674642 46.6344237,16.5928847 45.8610903,16.3432274 L44.4719315,15.8185545 C42.3703738,15.0526355 41.3195327,13.8046604 41.3195327,12.0711402 C41.3195327,10.8053458 41.7609657,9.80210592 42.6438318,9.05992523 C43.5266978,8.31880374 44.7166667,7.6806729 46.212866,7.6806729 C46.953053,7.6806729 47.7680062,7.78472274 48.6597196,7.99282243 C49.5504984,8.20142056 50.2822741,8.71519003 50.8539875,8.99749533 C50.8876947,9.46416199 50.7940498,9.97643614 50.5766044,10.5342555 C50.3576012,11.0925732 50.0891277,11.4879003 49.768567,11.721296 C48.3551713,11.0881495 47.1790343,10.7715763 46.236729,10.7715763 C45.8993458,10.7715763 45.6452025,10.846405 45.4668224,10.9969969 C45.2904361,11.1471526 45.2037072,11.3383053 45.2037072,11.5717009 C45.2037072,11.971514 45.5227726,12.2875888 46.1623364,12.5209221 L47.7282555,13.072324 L47.7282555,13.072324 Z" id="path21" fill="#F6F6F6"></path>
                    <path d="M36.5534891,13.072324 C38.79081,13.8550654 39.9085047,15.1961869 39.9085047,17.0936947 C39.9085047,18.3426667 39.4447664,19.3340062 38.5208411,20.067215 C37.5954206,20.8009221 36.2761059,21.2562492 34.5599688,21.2562492 C32.8448287,21.2562492 31.2549844,20.758866 29.7929907,19.9423551 C29.8088162,19.5093333 29.923271,19.0342555 30.1338006,18.5185545 C30.3438941,18.0028536 30.5915576,17.593134 30.8774766,17.2938816 C32.2230841,17.9923863 33.392243,18.3422305 34.3845794,18.3422305 C34.8542368,18.3422305 35.217352,18.2634766 35.4690654,18.1049097 C35.7212773,17.9469034 35.8480685,17.7348162 35.8480685,17.4683364 C35.8480685,16.9674642 35.4601558,16.5928847 34.6868224,16.3432274 L33.2985981,15.8185545 C31.1965421,15.0526355 30.1452648,13.8046604 30.1452648,12.0711402 C30.1452648,10.8053458 30.5866978,9.80210592 31.4704984,9.05992523 C32.352866,8.31880374 33.5423364,7.6806729 35.0385358,7.6806729 C35.7782243,7.6806729 36.5951713,7.78472274 37.4849533,7.99282243 C38.376729,8.20142056 39.1075078,8.71519003 39.6796573,8.99749533 C39.7133645,9.46416199 39.6197196,9.97643614 39.4022741,10.5342555 C39.1837695,11.0925732 38.9147975,11.4879003 38.5947352,11.721296 C37.1807788,11.0881495 36.0046417,10.7715763 35.0619003,10.7715763 C34.7250156,10.7715763 34.4698754,10.846405 34.2924922,10.9969969 C34.1166044,11.1471526 34.0289408,11.3383053 34.0289408,11.5717009 C34.0289408,11.971514 34.3484424,12.2875888 34.9880685,12.5209221 L36.5534891,13.072324 L36.5534891,13.072324 Z" id="path23" fill="#F6F6F6"></path>
                    <path d="M28.4042679,13.248648 C28.4042679,12.482729 28.2823988,11.7747539 28.0386604,11.1247227 C27.7954206,10.4747539 27.4461371,9.91737072 26.9923053,9.45070405 C26.5379751,8.98403738 25.9875701,8.61786916 25.3405296,8.3513271 C24.6924922,8.08528349 23.9652025,7.68397508 23.158162,7.68397508 C22.1994704,7.68397508 21.3627726,8.11799377 20.6483801,8.45138941 C19.9339875,8.78434891 19.3453894,9.24210592 18.8831464,9.82522118 C18.4199065,10.4087726 18.075109,11.0955016 17.8481931,11.8866542 C17.6212773,12.6778692 17.5078193,13.5398629 17.5078193,14.4722617 C17.5078193,15.4373707 17.5999688,16.330081 17.7852648,17.1460312 C17.9700623,17.9609844 18.2855763,18.6684611 18.7310592,19.2689595 C19.1769159,19.8683988 19.7570405,20.3346293 20.4719315,20.667028 C21.1868224,20.9999875 22.0741121,21.2556262 23.1333645,21.2556262 C25.0838318,21.2556262 26.7316199,20.6908287 28.0771651,19.7421059 C27.9438941,18.7769969 27.6000935,18.0095826 27.0476947,17.4432897 C26.3605296,17.7013583 25.7526168,17.8861558 25.225514,17.999676 C24.6979128,18.1117009 24.2326791,18.1681495 23.8309346,18.1681495 C23.0268224,18.1681495 22.4481931,17.9635389 22.0969782,17.5503925 C21.7461371,17.1386791 21.553676,16.6517009 21.519595,15.9120125 L28.078162,15.9120125 C28.2947975,15.211514 28.4042679,14.264785 28.4042679,13.248648 L28.4042679,13.248648 Z M21.4946106,13.4216075 C21.5445794,12.5714517 21.6997196,11.6618567 21.9578505,11.2873396 C22.2164798,10.912324 22.6123053,10.7250343 23.1468224,10.7250343 C23.6972897,10.7250343 24.1104361,10.9242243 24.3853894,11.3240374 C24.6609034,11.7238505 24.7985358,12.5293956 24.7985358,13.1456573 L24.7990343,13.4216075 L21.4946106,13.4216075 L21.4946106,13.4216075 Z" id="path25" fill="#F6F6F6"></path>
                    <path d="M58.0033956,15.0837259 C57.2904984,15.7064673 56.8767913,16.6026667 56.8767913,17.7743801 L56.8767913,22.1380561 C56.8767913,23.588648 56.4308723,24.6919502 55.4237072,25.4504548 C54.4174766,26.2079626 53.2443302,26.5829782 51.9052025,26.6191153 L51.1115576,26.613134 L51.1115576,24.4387414 C51.8111215,24.2346293 52.0984112,23.9973707 52.3768536,23.727838 C52.881215,23.2720748 53.2676324,22.5303925 53.2676324,21.5004237 L53.2676324,17.9774953 C53.2864486,16.7800498 53.3785981,15.8417321 53.8145483,15.1639751 C54.2520561,14.4862181 55.1036449,13.8936947 56.3694393,13.381919 C54.9713707,12.7418567 54.0324922,11.9060312 53.5539252,10.8750654 C53.2725545,10.262729 53.2670717,9.43637383 53.2670717,8.39693458 L53.2670717,5.16627975 C53.2670717,4.09911464 52.9177882,3.3515757 52.4882555,2.92497134 C52.2088785,2.64652897 51.8838318,2.42409907 51.1104984,2.25618629 L51.1104984,0.215002492 C52.0562928,0.224909034 52.5338629,0.214067913 53.0847664,0.215002492 C53.9329283,0.208086604 54.6433956,0.671824922 55.2616511,1.15481558 C55.9349844,1.68441059 56.4134891,2.40036075 56.6939252,3.30148224 C56.8534268,3.8221676 56.8762305,4.31961308 56.8762305,4.79319564 L56.8762305,8.52970717 C56.8762305,9.84945794 57.2661371,10.8304548 57.9324922,11.4710156 C58.3080685,11.8426044 58.838162,12.1824174 59.7482555,12.4891464 L59.7482555,14.1770592 C58.9417757,14.4000498 58.4354206,14.7022305 58.0033956,15.0837259 L58.0033956,15.0837259 Z" id="path27" fill="#F6F6F6"></path>
                    <path d="M7.83523364,0.216123988 L7.83523364,0.219052336 C7.56426791,0.217557009 7.31897196,0.216560125 7.12283489,0.217058567 C6.27417445,0.209644237 5.56376947,0.673382555 4.94601246,1.15687165 C4.27174455,1.68646667 3.69461059,2.37761931 3.51380062,3.30353832 C3.41074766,3.84652897 3.43255452,4.32110841 3.43255452,4.79525171 L3.43255452,8.53176324 C3.43255452,9.85107788 2.94158879,10.831514 2.27573209,11.473134 C1.90065421,11.8446604 1.10003115,12.1839751 0.189439252,12.4906417 L0.189439252,14.1784922 C0.996479751,14.4009844 1.77336449,14.7021682 2.20433022,15.0846604 C2.91772586,15.7079003 3.43193146,16.6046604 3.43193146,17.7762492 L3.43193146,22.1399252 C3.43193146,23.5895826 3.77778816,24.6938816 4.78395639,25.4513271 C5.79018692,26.2083364 6.96283489,26.5848474 8.30196262,26.6214829 L9.19816199,26.6155016 L9.19816199,24.4396137 C8.49909657,24.2350031 8.11074767,23.9976822 7.83080997,23.7291464 C7.32694704,23.2728224 7.04158879,22.5317009 7.04158879,21.5022305 L7.04158879,17.9788037 C7.02227414,16.7804237 6.82906542,15.8430405 6.39261682,15.164785 C5.95616822,14.4880249 5.10451713,13.8945047 3.83722741,13.3832274 C5.2358567,12.7426667 6.17417445,11.9073396 6.65274143,10.8768723 C6.9346729,10.2640374 7.04165109,9.43768224 7.04165109,8.3983053 L7.04165109,5.16765047 C7.04165109,4.10048536 7.28931464,3.35294642 7.71841121,2.92590592 C7.95124611,2.69406791 8.36538941,2.5032891 8.94065421,2.34877196 L9.85024922,2.3551271 L9.85024922,0.215937072 L7.83535826,0.215937072 L7.83535826,0.216123988 L7.83523364,0.216123988 L7.83523364,0.216123988 Z" id="path29" fill="#F6F6F6"></path>
                    <path d="M57.8978295,14.9628766 C57.1260083,15.6370903 56.7163271,16.5910962 56.7163271,17.7743801 L56.7163271,22.1380561 C56.7163271,23.5743893 56.2699982,24.6122259 55.3271738,25.322275 C54.3614202,26.0493111 53.2258139,26.4229553 51.9008739,26.4587095 L51.1127669,26.4526743 L51.2720218,26.613134 L51.2720218,24.4387414 L51.1565024,24.5927827 C51.7854431,24.4092763 52.1055565,24.2137835 52.4884593,23.8431329 C53.0780959,23.3104386 53.4280966,22.4967924 53.4280966,21.5004237 L53.4280966,17.9774953 C53.4498857,16.5921153 53.5806948,15.8241588 53.9495047,15.2507824 C54.3652747,14.6067004 55.1897936,14.0319471 56.4295867,13.530684 L56.7749051,13.3910677 L56.4362354,13.2360183 C55.0704404,12.6107314 54.1604156,11.8005015 53.6994728,10.8075033 C53.473882,10.3165556 53.4275358,9.79267201 53.4275358,8.39693458 L53.4275358,5.16627975 C53.4275358,4.14706773 53.1163681,3.32264345 52.601332,2.8111186 C52.2444651,2.45544512 51.8616258,2.25507438 51.1445465,2.09937595 L51.2709626,2.25618629 L51.2709626,0.215002492 L51.1088178,0.375457862 C51.6126597,0.380735258 51.9454927,0.380725711 52.490446,0.377536214 C52.7147075,0.376223659 52.7646676,0.375958205 52.864151,0.375653267 C52.9419868,0.375414683 53.0140535,0.375346933 53.0844941,0.375466432 C53.7692592,0.369890663 54.370148,0.661984673 55.162865,1.28126738 C55.8102354,1.79044292 56.2699632,2.47918024 56.5407091,3.3491643 C56.672964,3.78090951 56.7157664,4.19600922 56.7157664,4.79319564 L56.7157664,8.52970717 C56.7157664,9.85237594 57.0993341,10.8926905 57.821288,11.5866978 C58.253931,12.0147707 58.8331424,12.3500583 59.6970066,12.6412066 L59.5877913,12.4891464 L59.5877913,14.1770592 L59.7054919,14.0223982 C58.9338474,14.2357569 58.39138,14.5270487 57.8971826,14.9634448 L57.8978295,14.9628766 Z M58.1096087,15.204007 C58.5669603,14.8001471 59.0659537,14.5321999 59.791019,14.3317202 L59.9087196,14.2991761 L59.9087196,14.1770592 L59.9087196,12.4891464 L59.9087196,12.3738951 L59.7995043,12.3370862 C58.979464,12.0607079 58.4424918,11.7498713 58.0453504,11.3569463 C57.389243,10.7262136 57.0366947,9.7700302 57.0366947,8.52970717 L57.0366947,4.79319564 C57.0366947,4.16692339 56.9909442,3.72323249 56.8473522,3.25448297 C56.5575499,2.32326017 56.0610228,1.57939235 55.3608527,1.02868948 C54.5155149,0.368297531 53.857091,0.0482354745 53.083458,0.0545436553 C53.0140586,0.0544181381 52.9414884,0.0544863609 52.8631672,0.0547264323 C52.7632596,0.0550326708 52.7131807,0.0552987563 52.4885677,0.0566133688 C51.9452112,0.0597935194 51.6139686,0.0598030208 51.1121791,0.0545471228 L50.9500343,0.0528487679 L50.9500343,0.215002492 L50.9500343,2.25618629 L50.9500343,2.38554807 L51.0764504,2.41299663 C51.7352418,2.55603906 52.0627711,2.72746164 52.3749804,3.03862659 C52.8266009,3.48716846 53.1066075,4.22903287 53.1066075,5.16627975 L53.1066075,8.39693458 C53.1066075,9.84445407 53.1549721,10.3911536 53.4081176,10.9420645 C53.9044946,12.0114008 54.872084,12.8728826 56.3026431,13.5278197 L56.3092918,13.233154 C55.0137396,13.7569611 54.1375467,14.3677352 53.679733,15.0769487 C53.2685567,15.7161903 53.1298894,16.5302811 53.107188,17.9749742 L53.1071682,21.5004237 C53.1071682,22.4073708 52.7945493,23.1341156 52.2692692,23.6087819 C51.9182724,23.948416 51.642991,24.11653 51.0666129,24.2847001 L50.9510935,24.3184053 L50.9510935,24.4387414 L50.9510935,26.613134 L50.9510935,26.7723933 L51.1103483,26.7735936 L51.9039932,26.7795749 C53.2992002,26.7420201 54.4994428,26.3471089 55.5202167,25.5786526 C56.5494997,24.8034907 57.0372554,23.6693253 57.0372554,22.1380561 L57.0372554,17.7743801 C57.0372554,16.6814188 57.4088194,15.8161748 58.1089618,15.2045751 L58.1096087,15.204007 Z" id="Shape" fill="#404040"></path>
                    <path d="M7.67476947,0.216123988 L7.67476947,0.219052336 L7.83523364,0.219052336 L7.83611915,0.0585906087 C7.51656399,0.0568271404 7.29872646,0.0561468853 7.12242711,0.0565949141 C6.34990638,0.0498355747 5.6906365,0.370322681 4.84711363,1.030508 C4.04584296,1.65985539 3.52863737,2.39031006 3.35631112,3.27278436 C3.28061081,3.67164064 3.26689904,3.96376356 3.27112992,4.58460159 C3.27185295,4.69069854 3.27209035,4.73703006 3.27209035,4.79525171 L3.27209035,8.53176324 C3.27209035,9.7136878 2.86507354,10.6824053 2.16438922,11.3575852 C1.84653251,11.6724109 1.16461815,11.992904 0.138224914,12.3385699 L0.0289750813,12.3753628 L0.0289750813,12.4906417 L0.0289750813,14.1784922 L0.0289750813,14.3007045 L0.146792052,14.3331853 C1.04291694,14.5802372 1.72812908,14.8765691 2.0978152,15.2046742 C2.84683946,15.8590466 3.27146729,16.7338353 3.27146729,17.7762492 L3.27146729,22.1399252 C3.27146729,23.7380666 3.69113382,24.8294984 4.68744814,25.5795258 C5.70915227,26.3481763 6.90930511,26.7439071 8.29757432,26.781887 L9.19923292,26.7759622 L9.35862616,26.7748984 L9.35862616,26.6155016 L9.35862616,24.4396137 L9.35862616,24.3193839 L9.24323741,24.2856106 C8.62356687,24.1042382 8.23490413,23.8944246 7.94189251,23.6133474 C7.45902651,23.1759502 7.20205296,22.4661775 7.20205296,21.5022305 L7.20205296,17.9788037 C7.18161197,16.7092465 6.9696136,15.7649229 6.52755715,15.0779527 C6.07015822,14.3687067 5.19279328,13.7570879 3.89726354,13.2344174 L3.90404439,13.5291186 C5.3349997,12.8737528 6.30210911,12.0128266 6.79827655,10.9444613 C7.07938687,10.3334138 7.20211526,9.5154713 7.20211526,8.3983053 L7.20211526,5.16765047 C7.20211526,4.16599461 7.42542867,3.44387218 7.8316037,3.03964339 C8.03713036,2.8349967 8.42275896,2.6540314 8.98227974,2.50374314 L8.93953311,2.50923222 L9.84912812,2.51558736 L10.0107134,2.51671632 L10.0107134,2.3551271 L10.0107134,0.215937072 L10.0107134,0.0554729006 L9.85024922,0.0554729006 L7.83535826,0.0554729006 L7.67489408,0.0554729006 L7.67489408,0.215937072 L7.67489408,0.216123988 L7.83535826,0.216123988 L7.83535826,0.0556598165 L7.83523364,0.0556598165 L7.67476947,0.216123988 L7.67476947,0.216123988 Z M7.99569782,0.216123988 L7.83523364,0.216123988 L7.83523364,0.376588159 L7.83535826,0.376588159 L7.99582243,0.216123988 L7.99582243,0.215937072 L7.83535826,0.215937072 L7.83535826,0.376401243 L9.85024922,0.376401243 L9.68978505,0.215937072 L9.68978505,2.3551271 L9.85137032,2.19466685 L8.94177531,2.18831171 L8.92003006,2.18815978 L8.89902868,2.19380079 C8.2902412,2.35732217 7.85858493,2.55988703 7.60518959,2.81219745 C7.12937897,3.28572816 6.88118692,4.08829999 6.88118692,5.16765047 L6.88118692,8.3983053 C6.88118692,9.47327543 6.76471212,10.2495399 6.50696374,10.809808 C6.04621499,11.801906 5.13664119,12.6116137 3.77041044,13.2373362 L3.43148052,13.3925633 L3.77719129,13.5320374 C5.01683082,14.0321594 5.84238117,14.6076578 6.25776381,15.2517529 C6.66205292,15.8800316 6.86160353,16.7689081 6.88114545,17.9813897 L6.88112461,21.5022305 C6.88112461,22.5501733 7.1695222,23.3467406 7.72309428,23.8480837 C8.05257678,24.1642378 8.4866128,24.3985455 9.15308657,24.5936168 L9.03769782,24.4396137 L9.03769782,26.6155016 L9.19709107,26.455041 L8.30089169,26.4610223 C6.98279511,26.4248692 5.84720143,26.0504257 4.88042534,25.3230988 C3.97528419,24.6417067 3.59239564,23.6459239 3.59239564,22.1399252 L3.59239564,17.7762492 C3.59239564,16.638056 3.12562834,15.6764546 2.30990244,14.9638165 C1.89505978,14.5956273 1.17197069,14.2829148 0.232086453,14.0237991 L0.349903423,14.1784922 L0.349903423,12.4906417 L0.24065359,12.6427136 C1.31297275,12.2815808 2.02579893,11.9465595 2.38865639,11.5871377 C3.15088984,10.8526702 3.59301869,9.80038449 3.59301869,8.53176324 L3.59301869,4.79525171 C3.59301869,4.7360559 3.59277882,4.68924332 3.59205081,4.58241458 C3.58795552,3.98147278 3.60093139,3.70502764 3.67145068,3.33345836 C3.82716471,2.53606616 4.29993551,1.8683672 5.04512905,1.28306456 C5.83616691,0.663957076 6.43768798,0.371543069 7.12143305,0.377516615 C7.29845457,0.377076955 7.51559959,0.377755047 7.83434814,0.379514064 L7.99569782,0.380404474 L7.99569782,0.219052336 L7.99569782,0.216123988 L7.99569782,0.216123988 Z" id="Shape" fill="#404040"></path>
                    <path d="M16.2213396,17.9194891 L15.5401558,17.9194891 C14.7995327,17.9194891 14.5205919,17.530081 14.5205919,16.747838 L14.5205919,2.37120187 C14.5205919,1.50671589 14.2709346,0.8998 13.9513084,0.550080374 C13.6317445,0.201295327 13.0769159,0.204784424 12.2866978,0.204784424 L10.7483801,0.204784424 L10.5670717,0.201295327 L10.5670717,0.216123988 L10.5655763,2.35587477 L10.5655763,17.4434766 C10.5655763,18.643352 10.835109,19.521296 11.3146106,20.0801121 C11.7946729,20.6379315 12.6057009,20.9163738 13.7491277,20.9163738 C14.5398442,20.9163738 15.4395327,20.833134 16.4481931,20.6661558 C16.4987227,20.4976822 16.5240187,20.1370592 16.5240187,19.5836636 C16.5240187,19.0287726 16.4230218,18.4753769 16.2213396,17.9194891 L16.2213396,17.9194891 Z" id="path31" fill="#F6F6F6"></path>
                </g>
            </g>
        </g>
    </g>
</svg>