<?xml version="1.0" encoding="UTF-8" standalone="no"?>
<svg width="64px" height="64px" viewBox="0 0 64 64" version="1.1" xmlns="http://www.w3.org/2000/svg" xmlns:xlink="http://www.w3.org/1999/xlink" xmlns:sketch="http://www.bohemiancoding.com/sketch/ns">
    <!-- Generator: Sketch 3.4.2 (15857) - http://www.bohemiancoding.com/sketch -->
    <title>icons/skills/id-34</title>
    <desc>Created with Sketch.</desc>
    <defs></defs>
    <g id="Brands" stroke="none" stroke-width="1" fill="none" fill-rule="evenodd" sketch:type="MSPage">
        <g id="icons/skills/id-34" sketch:type="MSArtboardGroup" fill="#1EBBEE">
            <path d="M62,33.8338765 C62,29.0907159 60.773637,24.6402595 58.6232754,20.7679663 C67.7898438,0.0226762533 48.801745,3.06419177 47.7444356,3.27092016 C43.7219263,4.05774385 39.9998493,5.3232307 36.5666125,6.92537568 C36.0604177,6.89687808 35.5513249,6.88190476 35.037402,6.88190476 C22.2255552,6.88190476 11.5007957,15.8180773 8.75633152,27.7976975 C15.5088148,20.2221648 20.23507,17.1656759 23.0650271,15.942694 C22.6129295,16.3460075 22.1709751,16.7546342 21.7362659,17.1656759 L21.3088018,17.5786497 C21.0218937,17.8544485 20.7359516,18.1307304 20.4562887,18.4094273 C20.2901332,18.5750998 20.1278417,18.7422214 19.9641013,18.9093429 C19.715834,19.1614743 19.4685328,19.4136056 19.2265446,19.667186 L18.7184178,20.2091235 C18.4923691,20.4511116 18.2672863,20.6935828 18.0470336,20.9365369 L17.5384238,21.5040739 C17.3297634,21.7392999 17.122552,21.9745259 16.9177556,22.2107179 C16.7482191,22.4063371 16.5806145,22.6019562 16.414459,22.7980584 C16.2207719,23.0265222 16.0294998,23.2554691 15.8401598,23.4839329 C15.6725552,23.6863142 15.5059167,23.8886955 15.3421762,24.0905938 C15.1649115,24.3093975 14.9915108,24.5277181 14.8190761,24.7455557 C14.6509886,24.9571142 14.483384,25.1681897 14.3196435,25.3792652 L13.8593348,25.9810959 C13.6873831,26.2076277 13.5139824,26.4341595 13.3458949,26.6592423 L12.9928144,27.1412865 C11.9277768,28.5951474 10.9540281,30.0205106 10.0749495,31.3898447 L10.0686704,31.3999879 C9.83730845,31.7607965 9.61415771,32.1158091 9.39487106,32.4679235 L9.3591283,32.5258848 C9.13984165,32.8794483 8.92828316,33.2267326 8.72203779,33.5711189 L8.70030233,33.6073447 C8.14580657,34.5332753 7.63140065,35.4253953 7.16819383,36.2643841 C4.74010132,40.6650904 3.55769224,43.7399336 3.50649315,43.9220285 C-4.16177752,71.3372071 19.7713802,59.7604175 23.110913,58.0322068 C26.7069243,59.8087185 30.7555162,60.917227 35.037402,60.917227 C46.7624758,60.916744 56.7366373,53.2344661 60.4495371,43.0912509 L46.2823636,43.0912509 C44.1860991,46.4723226 40.1510315,48.9110413 35.5146162,48.9110413 C28.721077,48.9110413 23.2142772,43.5742611 23.2142772,37.2951279 L61.7787813,37.2951279 C61.9251334,36.3291074 62,35.0104895 62,33.8338765 L62,33.8338765 Z M7.62077443,57.9761776 C5.7293063,56.0368915 5.39506321,51.3130513 9.56827174,42.7053257 C11.6741964,48.7608252 15.8768686,53.8343648 21.3088018,57.0545941 C18.6073255,58.5417826 11.4355894,61.8890437 7.62077443,57.9761776 L7.62077443,57.9761776 Z M23.154867,30.0499742 C23.3702895,23.770841 28.7403974,18.9383235 35.3392834,18.9383235 C41.9376864,18.9383235 47.3087603,23.770841 47.5241829,30.0499742 L23.154867,30.0499742 L23.154867,30.0499742 Z M44.7821337,8.69898931 C47.2773647,7.49387874 53.4560318,4.94551668 56.9636522,7.31226689 C59.2854824,8.87963514 61.1479699,11.3405723 57.9499591,19.6285452 C54.882361,14.6955615 50.2676811,10.8261664 44.7821337,8.69898931 L44.7821337,8.69898931 Z" id="Shape" sketch:type="MSShapeGroup"></path>
        </g>
    </g>
</svg>