<?xml version="1.0" encoding="UTF-8" standalone="no"?>
<svg width="64px" height="64px" viewBox="0 0 64 64" version="1.1" xmlns="http://www.w3.org/2000/svg" xmlns:xlink="http://www.w3.org/1999/xlink">
    <!-- Generator: Sketch 3.6.1 (26313) - http://www.bohemiancoding.com/sketch -->
    <title>icons/skills/id-349</title>
    <desc>Created with Sketch.</desc>
    <defs></defs>
    <g id="Skills---Data" stroke="none" stroke-width="1" fill="none" fill-rule="evenodd">
        <g id="icons/skills/id-349">
            <path d="M55,59 L13,59 C10.8,59 9,57.2 9,55 L9,13 C9,10.8 10.8,9 13,9 L55,9 C57.2,9 59,10.8 59,13 L59,55 C59,57.2 57.2,59 55,59 L55,59 Z" id="XMLID_707_" fill="#AA875D"></path>
            <path d="M51,55 L9,55 C6.8,55 5,53.2 5,51 L5,9 C5,6.8 6.8,5 9,5 L51,5 C53.2,5 55,6.8 55,9 L55,51 C55,53.2 53.2,55 51,55 L51,55 Z" id="XMLID_704_" fill="#F6B66D"></path>
            <path d="M5,25 C9.4,23 11,21.6 18,20 C26.9,18 41.9,23.3 47,25 C51.6,26.6 55,27 55,27" id="XMLID_677_" stroke="#FFFFFF" stroke-width="2"></path>
            <path d="M5,21 C9.4,19 11,17.6 18,16 C26.9,14 41.9,19.3 47,21 C51.6,22.6 55,23 55,23" id="XMLID_136_" stroke="#FFFFFF" stroke-width="2"></path>
            <path d="M5,30 C8.6,27.9 13.9,25 18,24 C21.7,23.1 28.5,22.5 41,27 C45.4,28.6 55,31 55,31" id="XMLID_767_" stroke="#FFFFFF" stroke-width="2"></path>
            <path d="M5,37 L55,37" id="XMLID_765_" stroke="#FFFFFF" stroke-width="2"></path>
            <path d="M5,41 L55,41" id="XMLID_768_" stroke="#FFFFFF" stroke-width="2"></path>
            <path d="M5,45 L55,45" id="XMLID_137_" stroke="#FFFFFF" stroke-width="2"></path>
            <path d="M11.3,31.7 C11.8,31 13.5,28.9 16,28 C19.1,26.9 23.7,26.8 30,28 C36.3,29.2 46.3,32.7 49,33.9 C42.1,33.9 13,34.2 11.9,33.7 C10.8,33.2 10.8,32.4 11.3,31.7 L11.3,31.7 Z" id="XMLID_766_" fill="#292316"></path>
            <path d="M23,31 L21,31 L21,14.4142136 L16.7071068,18.7071068 L15.2928932,17.2928932 L22,10.5857864 L28.7071068,17.2928932 L27.2928932,18.7071068 L23,14.4142136 L23,31 Z" id="Shape" fill="#D3350B"></path>
        </g>
    </g>
</svg>