<?xml version="1.0" encoding="UTF-8" standalone="no"?>
<svg width="64px" height="64px" viewBox="0 0 64 64" version="1.1" xmlns="http://www.w3.org/2000/svg" xmlns:xlink="http://www.w3.org/1999/xlink" xmlns:sketch="http://www.bohemiancoding.com/sketch/ns">
    <!-- Generator: Sketch 3.4.2 (15857) - http://www.bohemiancoding.com/sketch -->
    <title>icons/skills/id-39</title>
    <desc>Created with Sketch.</desc>
    <defs></defs>
    <g id="Frameworks" stroke="none" stroke-width="1" fill="none" fill-rule="evenodd" sketch:type="MSPage">
        <g id="icons/skills/id-39" sketch:type="MSArtboardGroup" fill="#0081C2">
            <path d="M60.4668391,15.6058278 C57.9465025,14.3559767 55.5460416,13.0849999 52.9977013,11.8872259 C48.0331786,9.55456352 43.274508,6.90747318 38.282473,4.62541403 C36.6621864,3.88503446 35.1219807,3.02870957 33.5395238,2.20677525 C33.0104005,1.93214208 32.5436715,1.9306682 32.0071788,2.20481007 C29.9462018,3.25765243 27.8596776,4.24662661 25.7761011,5.25230477 C20.8361431,7.63704429 15.6638032,10.2055276 10.7007545,12.5494898 C8.54299266,13.5684329 6.4564684,14.6561571 4,15.6918042 L4,48.3559558 C4.49129368,48.3770814 4.50848896,48.3770814 4.57137455,48.4080329 C6.1376188,49.1798553 7.87335937,49.9354649 9.4253561,50.7343085 C11.0092869,51.549856 12.7076892,52.2912181 14.3142195,53.0576363 C19.2988852,55.4340238 24.2555471,57.955343 29.2009093,60.4147591 C30.1569668,60.8903314 31.162645,61.3094049 32.1019985,61.8159287 C32.5785533,62.072384 32.9514453,62.0492932 33.4358608,61.8183852 C34.9131809,61.1143613 36.4013095,60.4147591 37.8697863,59.6979616 C43.5678104,56.9157655 48.9946404,54.0181154 54.7255811,51.3012614 C56.7212161,50.3545384 58.5335984,49.3277347 60.4987732,48.3073177 L60.4987732,15.6579049 C60.4987732,15.636288 60.5292334,15.6367793 60.4668391,15.6058278 L60.4668391,15.6058278 Z M53.3155683,45.7943505 C52.129094,47.0338845 50.7392242,47.9712728 49.2127748,48.7224608 C48.8310396,48.910135 48.4389872,49.1326911 48.0292483,49.1970505 C47.3999011,49.2953093 47.1802928,49.7924985 46.8874818,50.2051852 C46.3858709,50.9121568 45.1792536,51.6279717 44.3420892,51.6387801 C44.1111812,51.6422192 43.8792906,51.62355 43.6498564,51.6422192 C42.7439109,51.7149306 41.9205027,51.491392 41.1083942,51.083127 C39.9951227,50.5235435 38.7870316,50.430689 37.546515,50.4640969 C36.894077,50.4822748 36.3236851,50.6326107 35.7763839,50.9470386 C35.0497606,51.3656208 34.6586908,52.3216783 34.8154135,53.1092221 C34.8537344,53.3023005 34.6665515,53.5395954 34.5412716,53.8643405 C34.2715514,53.6368715 33.9772665,53.5096265 33.9649841,53.3597819 C33.8829381,52.3565602 33.8230002,51.314035 34.531937,50.492592 C35.5032246,49.3665469 36.7663407,48.7475168 38.2593822,48.6404148 C38.6420999,48.6133936 39.0292394,48.6463103 39.4139223,48.6345193 C40.3449238,48.6050417 41.2253221,48.7784683 42.1312677,49.0295194 C42.8819644,49.2373366 43.7672756,49.2810618 44.5238679,48.7966462 C44.7896578,47.79932 44.2624996,47.0771183 43.5344024,46.6084241 C42.7660191,46.1136914 41.9932141,45.5909549 41.0455086,45.3728205 C40.3685059,45.2175717 39.7715841,44.7405256 39.1073551,44.491931 C38.4416521,44.2423538 37.7754579,43.9726335 37.1102462,43.7304258 C36.4750035,43.4990264 35.7518192,43.508361 35.1838837,43.0932179 C34.1290762,43.1428385 33.1057115,42.6716879 32.0479562,42.8682054 C30.6684035,43.1246607 29.2755859,43.3501645 27.9662883,43.8817442 C26.9782967,44.2826399 25.9780228,44.6545492 25.0303173,45.1591078 C24.4692599,45.4578143 23.8286129,45.602746 23.2503603,45.8744314 C22.7973875,46.0871615 22.3552232,46.350495 21.9616969,46.6590274 C21.2846942,47.1910984 20.8322128,47.8533623 21.0449429,48.7927158 C21.8801422,49.1808378 22.7207457,49.2324237 23.6139176,48.9322432 C24.5807835,48.6070068 25.6016918,48.6757879 26.6078613,48.6148675 C27.8832597,48.5377344 28.9994789,48.9366649 30.0262827,49.5768206 C31.0015006,50.1850421 31.6716252,51.058071 31.6347782,52.3059569 C31.6269175,52.5751859 31.674573,52.8532581 31.6215133,53.1116786 C31.5743491,53.3396388 31.422048,53.5459822 31.2618863,53.8712186 C30.9420541,53.5381215 30.4252131,53.4590232 30.8963638,52.953482 C30.5947095,52.3983202 30.7710839,51.6323933 30.1658101,51.2182327 C29.6303,50.8517276 29.1065809,50.44248 28.3927312,50.4798183 C27.9707099,50.5019265 27.5432844,50.5166654 27.1237196,50.4773619 C26.1317977,50.3849987 25.2400997,50.7200609 24.3999875,51.1538733 C23.2395518,51.7537428 22.0113176,51.6215848 20.7894702,51.6387801 C20.1006765,51.2506581 19.2772683,51.0718272 18.7604273,50.4169327 C18.4985678,50.0853095 18.3845876,49.4913355 18.0735987,49.3793205 C17.6672989,49.232915 17.2953896,48.9533689 16.8940026,48.8895007 C15.8789899,48.7283564 15.1671053,48.0159805 14.3255193,47.5605513 C13.6175651,47.1773422 13.0506122,46.5209739 12.4482861,45.9564774 C11.7884787,45.3389213 11.4475209,44.5631685 11.2952198,43.6626272 C11.0692248,42.327291 11.5890135,41.0872658 12.3058109,40.3316561 C13.2490948,39.337769 14.4242693,38.8243671 15.691807,38.3571468 C15.3818007,37.7430297 15.1430319,37.0542359 14.7244497,36.5015306 C14.3235541,35.9724073 14.2837593,35.3499382 14.1216324,34.785933 C13.9378886,34.1457774 13.9541012,33.3818157 14.1147543,32.7283951 C14.2724595,32.0902046 14.6659858,31.4829656 15.0604946,30.9376296 C15.4166825,30.4453534 15.8996242,30.0375796 16.3584925,29.6293146 C16.5053893,29.4986304 16.7549665,29.4838916 16.9421494,29.421006 C17.1946744,29.7732636 17.1160674,30.0139975 16.8674728,30.2670138 C16.6090523,30.5313298 16.3938657,30.837897 16.1575534,31.1243212 C15.4889027,31.9349558 15.6996677,32.9028044 15.7099849,33.8190671 C15.7163717,34.4081282 16.0671554,34.8994219 16.4046741,35.373029 C17.0521992,36.281431 17.7139718,37.1367733 18.8174174,37.5872896 C19.4084437,37.8285148 19.9645881,38.0343668 20.6047438,38.0142238 C21.1761183,37.9960459 21.7484755,38.0102934 22.6013613,38.0102934 C22.100733,37.7867548 21.8482081,37.6771963 21.5981396,37.5607597 C19.8437299,36.7447209 18.9304149,35.3577989 18.928941,33.5115172 C18.9284498,32.857114 18.9942831,32.1943589 18.9092893,31.5512554 C18.8355952,30.9946197 19.1578839,30.5514728 19.1736053,30.028245 C19.1878528,29.558077 18.9579274,29.0323927 19.3912484,28.6226538 C19.2733379,27.7284993 19.6108567,26.8107627 19.2134001,25.9254515 C19.0036177,25.4587225 19.1780269,24.9384425 18.9692271,24.4112844 C18.5668576,23.3957804 18.2779769,22.4077888 16.963275,22.2839828 C16.8222737,22.2712091 16.7023981,22.0398098 16.5785921,21.9160038 C16.8075349,21.4193059 17.041882,21.3195733 17.5631446,21.4841567 C18.8950418,21.904704 19.6919201,22.8042628 20.3325671,23.9902457 C21.0203782,25.2641702 21.2517776,26.6216147 21.5047938,28.0178713 C21.7592839,29.4200235 21.6168088,30.8089107 21.7116284,32.1992718 C21.7435625,32.6625617 21.8693337,33.1278169 22.0108263,33.5734202 C22.1483885,34.0057587 22.4731337,34.2631966 22.9172631,34.3064304 C23.5623317,34.3712812 23.6517472,34.3260821 24.6343345,33.733582 L24.6343345,32.5613552 C23.6517472,32.3220952 24.113072,31.7227169 23.4277173,31.7448252 C23.1678229,31.7531771 23.0543341,31.3670203 23.0641599,31.0186931 C23.0921637,30.0189105 23.1506276,29.0117584 23.0626861,28.0188539 C22.9678664,26.9468511 23.2159697,25.9077649 23.3756401,24.8893131 C23.5161501,23.9892631 23.621287,23.0420489 23.9877921,22.1557551 C24.327276,21.3343121 24.3931094,20.4003628 24.7222761,19.5730242 C25.3285325,18.0500138 26.0104481,16.561394 26.8594036,15.1425378 C27.3443105,14.3328859 27.9938007,13.6377053 28.4025571,12.7848195 C28.4335086,12.72046 28.4733034,12.6570831 28.5204676,12.6030408 C29.1173894,11.9260381 29.6833597,11.21661 30.3240067,10.5843151 C31.0963203,9.82231858 31.9334847,9.12615543 32.7750708,8.37251093 C33.6549778,9.15415917 34.5717318,9.83116186 35.3204634,10.659483 C37.352454,12.9091168 39.1378153,15.3557593 40.2864599,18.1772589 C40.8214787,19.4909782 41.330459,20.8302448 41.6006705,22.2589268 C41.8443521,23.5480814 42.0973684,24.8293753 42.3110811,26.1258993 C42.5881708,27.803176 42.3646322,29.4598182 42.4977727,31.1179344 C42.5243026,31.4466099 42.0506955,31.7600553 41.8757949,31.746299 C41.1870012,31.692748 40.847026,32.3147258 40.3557323,32.560864 L40.3557323,33.7448817 C40.847026,34.1880286 41.5230461,34.3467165 42.1229157,34.327556 C42.8461,34.3044652 43.3418153,33.9153606 43.5393153,33.1671204 C43.7549933,32.3471512 43.8650431,31.5311124 43.7942968,30.7180214 C43.6911251,29.5349862 43.9524933,28.380446 44.1131464,27.2386795 C44.3008205,25.9048172 44.7719712,24.6028889 45.4764863,23.420345 C45.9461631,22.6318187 47.3537195,21.5529378 48.177619,21.3898283 C48.5397024,21.3180994 48.8487261,21.4423967 48.9818667,21.9430249 C48.8443045,22.0496357 48.6900383,22.2736656 48.5136638,22.2908609 C47.3497891,22.4043497 47.0044097,23.3107866 46.6590302,24.1872545 C46.4718473,24.6613529 46.5155725,25.2292884 46.3740799,25.6906131 C46.1318721,26.4820873 46.2031097,27.2539096 46.2001619,28.0326101 C46.198688,28.500813 46.3333025,28.9704897 46.4192789,29.4372187 C46.4983772,29.8671007 46.2296395,30.3416904 46.6270961,30.7440599 C46.723881,30.8423187 46.6472392,31.1130215 46.6477305,31.304626 C46.6482217,32.035671 46.6329916,32.7676986 46.6506782,33.497761 C46.6963685,35.3297951 45.4253918,37.3647336 43.2067095,37.9203867 C44.5857709,38.0373146 45.9274939,38.148347 47.2279483,37.3514686 C48.4945034,36.5747333 49.1715061,35.3833461 49.8814255,34.1826244 C49.8986207,32.8015979 50.0877688,31.3680029 48.8040184,30.3608509 C48.5259462,30.1422252 48.4458653,29.8921567 48.5367547,29.4431143 C48.7755234,29.4770135 49.027557,29.4352536 49.1233593,29.5384252 C49.8298396,30.2994391 50.7637889,30.8757266 51.0998338,31.9467469 C51.1951448,32.2498751 51.4869732,32.5348254 51.4741996,32.8192844 C51.4422655,33.5655595 51.597023,34.3034826 51.369554,35.0713747 C51.195636,35.6589619 51.0114009,36.236232 50.750524,36.781568 C50.5034033,37.2979176 50.1747278,37.7749638 49.8637389,38.2991741 C50.2990251,38.511413 50.7151508,38.7875201 51.1730365,38.9226258 C52.1487458,39.2110152 52.8178878,39.8870353 53.4909601,40.5797594 C54.1605934,41.2690444 54.2431307,42.1936591 54.5005686,43.0485101 C54.1424155,43.9785291 54.0623347,45.0136849 53.3155683,45.7943505 L53.3155683,45.7943505 Z M17.3798921,41.9332735 C16.9981569,41.9671727 16.6095436,41.9165695 16.2268258,41.9435906 C15.6063219,41.9873158 15.0295431,42.2113457 14.5215454,42.5518122 C14.0091261,42.8952265 13.9712965,43.2135848 14.2135043,43.8070676 C14.4537469,44.39662 14.8123913,44.8854572 15.2678205,45.3369561 C16.079929,46.1421864 16.9259367,46.8919006 17.9232629,47.4505015 C18.2784682,45.4769748 19.3828964,44.0463276 21.065086,42.9949591 C20.7712923,42.8505188 20.5403843,42.75226 20.3247064,42.628454 C19.4109001,42.1057176 18.4425603,41.8384538 17.3798921,41.9332735 L17.3798921,41.9332735 Z M51.1450328,42.6245237 C50.8620476,42.3734726 49.7767799,41.9485036 49.3523022,41.9406429 C48.8143356,41.930817 48.2724387,41.9750334 47.7379111,41.9298344 C46.9336634,41.8620359 46.2394654,42.1769551 45.5374067,42.4771356 C45.2102051,42.616663 44.902164,42.7994242 44.5174811,42.9974156 C46.1962316,44.0468189 47.301151,45.4774661 47.6627432,47.4912789 C48.1049075,47.1743945 48.5642671,46.89927 48.9587759,46.5504515 C49.6716431,45.9215956 50.3653497,45.2676837 51.0241746,44.5828203 C51.2344482,44.3646859 51.3218985,44.020289 51.4403003,43.7230564 C51.608814,43.3010351 51.5022033,42.9418994 51.1450328,42.6245237 L51.1450328,42.6245237 Z M29.2829553,31.5453599 C28.7602189,31.5596074 28.6059527,31.7792157 28.6319912,32.4719398 C28.651643,32.9995892 28.8776381,33.2015109 29.4047962,33.1622074 C29.8332043,33.1302733 30.294529,32.6551923 30.2483474,32.2931089 C30.2016745,31.9177605 29.7044853,31.5330776 29.2829553,31.5453599 L29.2829553,31.5453599 Z M36.316807,31.5453599 C35.8220742,31.5222691 35.304742,31.9629595 35.329798,32.3859634 C35.3523975,32.7676986 35.8304262,33.1636813 36.266695,33.1622074 C36.7742014,33.1602422 36.9412412,32.9676551 36.9466455,32.3790853 C36.952541,31.7644769 36.8041703,31.5679594 36.316807,31.5453599 L36.316807,31.5453599 Z" id="Shape" sketch:type="MSShapeGroup"></path>
        </g>
    </g>
</svg>