<?xml version="1.0" encoding="UTF-8" standalone="no"?>
<svg width="64px" height="64px" viewBox="0 0 64 64" version="1.1" xmlns="http://www.w3.org/2000/svg" xmlns:xlink="http://www.w3.org/1999/xlink">
    <defs></defs>
    <g id="Languages" stroke="none" stroke-width="1" fill="none" fill-rule="evenodd">
        <g id="icons/skills/id-368">
            <path d="M33.7260681,2.99580851 L56.2739319,16.0041915 C57.227213,16.5541613 58,17.8978404 58,18.991617 L58,45.008383 C58,46.1083227 57.2218716,47.4489202 56.2739319,47.9958085 L33.7260681,61.0041915 C32.772787,61.5541613 31.2218716,61.5510798 30.2739319,61.0041915 L7.72606809,47.9958085 C6.77278701,47.4458387 6,46.1021596 6,45.008383 L6,18.991617 C6,17.8916773 6.77812836,16.5510798 7.72606809,16.0041915 L30.2739319,2.99580851 C31.227213,2.44583866 32.7781284,2.44892021 33.7260681,2.99580851 Z" id="Polygon-1" fill="#2FC087"></path>
            <path d="M45,30 C45,32.309 38.928,34 32,34 C25.072,34 19,32.309 19,30 C19,27.691 25.072,26 32,26 C38.928,26 45,27.691 45,30 L45,30 Z" id="Stroke-5366" opacity="0.800000012" fill="#BEECDA"></path>
            <path d="M45,25 C45,27.309 38.928,29 32,29 C25.072,29 19,27.309 19,25 C19,22.691 25.072,21 32,21 C38.928,21 45,22.691 45,25 L45,25 Z" id="Stroke-5366" opacity="0.800000012" fill="#F2FAFF"></path>
            <path d="M45,20 C45,22.309 38.928,24 32,24 C25.072,24 19,22.309 19,20 C19,17.691 25.072,16 32,16 C38.928,16 45,17.691 45,20 L45,20 Z" id="Stroke-5366" opacity="0.959999979" fill="#FFFFFF"></path>
            <path d="M20.574,39.872 L17.97,39.872 L17.97,38.504 L24.69,38.504 L24.69,39.872 L22.086,39.872 L22.086,47 L20.574,47 L20.574,39.872 Z M29.886,40.328 C29.7259992,40.0959988 29.5120013,39.9260005 29.244,39.818 C28.9759987,39.7099995 28.6940015,39.656 28.398,39.656 C28.2219991,39.656 28.0520008,39.6759998 27.888,39.716 C27.7239992,39.7560002 27.5760007,39.8199996 27.444,39.908 C27.3119993,39.9960004 27.2060004,40.1099993 27.126,40.25 C27.0459996,40.3900007 27.006,40.555999 27.006,40.748 C27.006,41.0360014 27.105999,41.2559992 27.306,41.408 C27.506001,41.5600008 27.7539985,41.6919994 28.05,41.804 C28.3460015,41.9160006 28.6699982,42.0239995 29.022,42.128 C29.3740018,42.2320005 29.6979985,42.3759991 29.994,42.56 C30.2900015,42.7440009 30.537999,42.9879985 30.738,43.292 C30.938001,43.5960015 31.038,43.9999975 31.038,44.504 C31.038,44.9600023 30.9540008,45.3579983 30.786,45.698 C30.6179992,46.0380017 30.3920014,46.3199989 30.108,46.544 C29.8239986,46.7680011 29.4940019,46.9359994 29.118,47.048 C28.7419981,47.1600006 28.3460021,47.216 27.93,47.216 C27.4019974,47.216 26.8940024,47.1280009 26.406,46.952 C25.9179976,46.7759991 25.4980018,46.4800021 25.146,46.064 L26.286,44.96 C26.4700009,45.2400014 26.7119985,45.4579992 27.012,45.614 C27.3120015,45.7700008 27.6299983,45.848 27.966,45.848 C28.1420009,45.848 28.3179991,45.8240002 28.494,45.776 C28.6700009,45.7279998 28.8299993,45.6560005 28.974,45.56 C29.1180007,45.4639995 29.2339996,45.3420007 29.322,45.194 C29.4100004,45.0459993 29.454,44.876001 29.454,44.684 C29.454,44.3719984 29.354001,44.1320008 29.154,43.964 C28.953999,43.7959992 28.7060015,43.6540006 28.41,43.538 C28.1139985,43.4219994 27.7900018,43.3120005 27.438,43.208 C27.0859982,43.1039995 26.7620015,42.9620009 26.466,42.782 C26.1699985,42.6019991 25.922001,42.3620015 25.722,42.062 C25.521999,41.7619985 25.422,41.3600025 25.422,40.856 C25.422,40.4159978 25.5119991,40.0360016 25.692,39.716 C25.8720009,39.3959984 26.1079985,39.1300011 26.4,38.918 C26.6920015,38.7059989 27.0259981,38.5480005 27.402,38.444 C27.7780019,38.3399995 28.161998,38.288 28.554,38.288 C29.0020022,38.288 29.4359979,38.3559993 29.856,38.492 C30.2760021,38.6280007 30.6539983,38.8519984 30.99,39.164 L29.886,40.328 Z M41.73,47 L36.786,47 C36.1219967,47 35.5080028,46.898001 34.944,46.694 C34.3799972,46.489999 33.8920021,46.1980019 33.48,45.818 C33.0679979,45.4379981 32.7440012,44.9740027 32.508,44.426 C32.2719988,43.8779973 32.154,43.2600034 32.154,42.572 C32.154,41.9479969 32.2719988,41.3740026 32.508,40.85 C32.7440012,40.3259974 33.065998,39.8740019 33.474,39.494 C33.882002,39.1139981 34.3559973,38.8180011 34.896,38.606 C35.4360027,38.3939989 36.009997,38.288 36.618,38.288 C37.226003,38.288 37.7999973,38.3939989 38.34,38.606 C38.8800027,38.8180011 39.353998,39.1139981 39.762,39.494 C40.170002,39.8740019 40.4919988,40.3259974 40.728,40.85 C40.9640012,41.3740026 41.082,41.9479969 41.082,42.572 C41.082,43.0200022 41.0280005,43.4139983 40.92,43.754 C40.8119995,44.0940017 40.6700009,44.3939987 40.494,44.654 C40.3179991,44.9140013 40.1240011,45.1319991 39.912,45.308 C39.6999989,45.4840009 39.494001,45.6319994 39.294,45.752 L39.294,45.776 L41.73,45.776 L41.73,47 Z M36.582,39.656 C36.173998,39.656 35.7960017,39.7299993 35.448,39.878 C35.0999983,40.0260007 34.8000013,40.2319987 34.548,40.496 C34.2959987,40.7600013 34.0980007,41.0719982 33.954,41.432 C33.8099993,41.7920018 33.738,42.1839979 33.738,42.608 C33.738,43.0400022 33.8099993,43.4419981 33.954,43.814 C34.0980007,44.1860019 34.2979987,44.5059987 34.554,44.774 C34.8100013,45.0420013 35.1119983,45.2519992 35.46,45.404 C35.8080017,45.5560008 36.1899979,45.632 36.606,45.632 C37.0220021,45.632 37.4079982,45.5560008 37.764,45.404 C38.1200018,45.2519992 38.4259987,45.0420013 38.682,44.774 C38.9380013,44.5059987 39.1379993,44.1860019 39.282,43.814 C39.4260007,43.4419981 39.498,43.0400022 39.498,42.608 C39.498,42.1839979 39.4260007,41.7920018 39.282,41.432 C39.1379993,41.0719982 38.9380013,40.7600013 38.682,40.496 C38.4259987,40.2319987 38.1200018,40.0260007 37.764,39.878 C37.4079982,39.7299993 37.0140022,39.656 36.582,39.656 L36.582,39.656 Z M42.834,38.504 L44.346,38.504 L44.346,45.632 L47.958,45.632 L47.958,47 L42.834,47 L42.834,38.504 Z" id="TSQL" fill="#F7FAFE"></path>
            <path d="M47,34 L45,36 L47,38" id="Stroke-1770" stroke="#2F8D6D" stroke-width="2" stroke-linecap="round" stroke-linejoin="round"></path>
            <path d="M51,34 L53,36 L51,38" id="Stroke-1771" stroke="#2F8D6D" stroke-width="2" stroke-linecap="round" stroke-linejoin="round"></path>
        </g>
    </g>
</svg>