<?xml version="1.0" encoding="UTF-8" standalone="no"?>
<svg width="64px" height="64px" viewBox="0 0 64 64" version="1.1" xmlns="http://www.w3.org/2000/svg" xmlns:xlink="http://www.w3.org/1999/xlink">
    <!-- Generator: Sketch 3.6.1 (26313) - http://www.bohemiancoding.com/sketch -->
    <title>icons/skills/id-372</title>
    <desc>Created with Sketch.</desc>
    <defs>
        <path id="path-1" d="M0,0.133159851 L47.9504833,0.133159851 L47.9504833,60 L0,60 L0,0.133159851 Z"></path>
    </defs>
    <g id="Languages" stroke="none" stroke-width="1" fill="none" fill-rule="evenodd">
        <g id="icons/skills/id-372">
            <g id="Page-1" transform="translate(8.000000, 2.000000)">
                <path d="M0,46.0973086 L5.53271375,49.5019182 L5.81643123,33.1877175 L9.6466171,51.4881636 L13.7607435,53.3323271 L17.5911524,38.86229 L17.3074349,56.0276431 L23.6913011,59.4324758 L23.6913011,28.0805799 L15.4630483,22.9732193 L12.2002974,34.7481636 L9.78869888,19.7104684 L0,14.4614721 L0,46.0973086 Z" id="Fill-1" fill="#FFBA00"></path>
                <path d="M24.9680743,28.0805799 L24.9680743,59.9999108 L47.9503048,45.8135911 L47.9503048,38.0109145 L33.1963271,46.5226617 L33.1963271,23.2571599 L24.9680743,28.0805799 Z" id="Fill-2" fill="#29006A"></path>
                <g id="Group-5">
                    <mask id="mask-2" fill="white">
                        <use xlink:href="#path-1"></use>
                    </mask>
                    <g id="Clip-4"></g>
                    <path d="M1.27670632,13.7521115 L9.0793829,8.92869145 L22.4145502,16.5892862 C22.4145502,16.5892862 27.9472639,19.7104015 31.6358141,17.0150855 C35.3243643,14.3195465 34.5441413,13.3265353 31.6358141,11.6242305 L17.7867435,3.67969517 L24.9680074,0.133003717 L38.5873383,7.65196283 C38.5873383,7.65196283 46.3897918,10.772855 40.9991599,16.5892862 C35.6083048,22.4059405 30.3590855,23.6826691 30.3590855,23.6826691 C30.3590855,23.6826691 26.7994572,25.163487 21.6343271,24.4408104 C19.7346245,24.1753829 18.0093457,23.4011822 15.6051078,22.2638587 L1.27670632,13.7521115 Z" id="Fill-3" fill="#991039" mask="url(#mask-2)"></path>
                </g>
            </g>
        </g>
    </g>
</svg>