<?xml version="1.0" encoding="UTF-8" standalone="no"?>
<svg width="64px" height="64px" viewBox="0 0 64 64" version="1.1" xmlns="http://www.w3.org/2000/svg" xmlns:xlink="http://www.w3.org/1999/xlink">
    <!-- Generator: Sketch 3.6.1 (26313) - http://www.bohemiancoding.com/sketch -->
    <title>icons/skills/id-334</title>
    <desc>Created with Sketch.</desc>
    <defs></defs>
    <g id="Skills---Data" stroke="none" stroke-width="1" fill="none" fill-rule="evenodd">
        <g id="icons/skills/id-334">
            <path d="M55,59 L13,59 C10.8,59 9,57.2 9,55 L9,13 C9,10.8 10.8,9 13,9 L55,9 C57.2,9 59,10.8 59,13 L59,55 C59,57.2 57.2,59 55,59 L55,59 Z" id="XMLID_58_" fill="#F4AE1E"></path>
            <path d="M51,55 L9,55 C6.8,55 5,53.2 5,51 L5,9 C5,6.8 6.8,5 9,5 L51,5 C53.2,5 55,6.8 55,9 L55,51 C55,53.2 53.2,55 51,55 L51,55 Z" id="XMLID_55_" fill="#FFC321"></path>
            <g id="Group" transform="translate(9.000000, 9.000000)" fill="#C8980E">
                <path d="M5.5,4.4 C5.5,5.6 5.3,6.6 4.9,7.2 C4.5,7.8 3.9,8.1 3,8.1 C2.2,8.1 1.6,7.8 1.1,7.2 C0.7,6.6 0.5,5.7 0.5,4.5 C0.5,3.2 0.7,2.3 1.1,1.7 C1.5,1.1 2.1,0.8 3,0.8 C3.8,0.8 4.4,1.1 4.9,1.7 C5.3,2.3 5.5,3.2 5.5,4.4 L5.5,4.4 Z M2,4.4 C2,5.3 2.1,5.9 2.2,6.3 C2.4,6.7 2.6,6.9 3,6.9 C3.4,6.9 3.6,6.7 3.8,6.3 C4,5.9 4,5.3 4,4.4 C4,3.5 3.9,2.9 3.8,2.5 C3.6,2.2 3.3,2 3,2 C2.6,2 2.4,2.2 2.2,2.6 C2,3 2,3.6 2,4.4 L2,4.4 Z" id="XMLID_97_"></path>
                <path d="M5.5,15.4 C5.5,16.6 5.3,17.6 4.9,18.2 C4.5,18.8 3.9,19.1 3,19.1 C2.2,19.1 1.6,18.8 1.1,18.2 C0.7,17.6 0.5,16.7 0.5,15.5 C0.5,14.2 0.7,13.3 1.1,12.7 C1.5,12.1 2.1,11.8 3,11.8 C3.8,11.8 4.4,12.1 4.9,12.7 C5.3,13.3 5.5,14.2 5.5,15.4 L5.5,15.4 Z M2,15.4 C2,16.3 2.1,16.9 2.2,17.3 C2.4,17.7 2.6,17.9 3,17.9 C3.4,17.9 3.6,17.7 3.8,17.3 C4,16.9 4,16.3 4,15.4 C4,14.5 3.9,13.9 3.8,13.5 C3.6,13.2 3.3,13 3,13 C2.6,13 2.4,13.2 2.2,13.6 C2,14 2,14.6 2,15.4 L2,15.4 Z" id="XMLID_100_"></path>
                <path d="M4.3,30 L2.8,30 L2.8,25.9 L2.8,25.2 L2.8,24.5 C2.5,24.8 2.4,24.9 2.3,25 L1.5,25.7 L0.8,24.8 L3.1,23 L4.3,23 L4.3,30 L4.3,30 Z" id="XMLID_105_"></path>
                <path d="M5.5,37.4 C5.5,38.6 5.3,39.6 4.9,40.2 C4.5,40.8 3.9,41.1 3,41.1 C2.2,41.1 1.6,40.8 1.1,40.2 C0.7,39.6 0.5,38.7 0.5,37.5 C0.5,36.2 0.7,35.3 1.1,34.7 C1.5,34.1 2.1,33.8 3,33.8 C3.8,33.8 4.4,34.1 4.9,34.7 C5.3,35.3 5.5,36.2 5.5,37.4 L5.5,37.4 Z M2,37.4 C2,38.3 2.1,38.9 2.2,39.3 C2.4,39.7 2.6,39.9 3,39.9 C3.4,39.9 3.6,39.7 3.8,39.3 C4,38.9 4,38.3 4,37.4 C4,36.5 3.9,35.9 3.8,35.5 C3.6,35.2 3.3,35 3,35 C2.6,35 2.4,35.2 2.2,35.6 C2,36 2,36.6 2,37.4 L2,37.4 Z" id="XMLID_107_"></path>
                <path d="M13.3,8 L11.8,8 L11.8,3.9 L11.8,3.2 L11.8,2.5 C11.5,2.8 11.4,2.9 11.3,3 L10.5,3.7 L9.8,2.8 L12,0.9 L13.2,0.9 L13.2,8 L13.3,8 Z" id="XMLID_82_"></path>
                <path d="M14.5,37.4 C14.5,38.6 14.3,39.6 13.9,40.2 C13.5,40.8 12.9,41.1 12,41.1 C11.2,41.1 10.6,40.8 10.1,40.2 C9.7,39.6 9.5,38.7 9.5,37.5 C9.5,36.2 9.7,35.3 10.1,34.7 C10.5,34.1 11.1,33.8 12,33.8 C12.8,33.8 13.4,34.1 13.9,34.7 C14.3,35.3 14.5,36.2 14.5,37.4 L14.5,37.4 Z M11,37.4 C11,38.3 11.1,38.9 11.2,39.3 C11.4,39.7 11.6,39.9 12,39.9 C12.4,39.9 12.6,39.7 12.8,39.3 C13,38.9 13,38.3 13,37.4 C13,36.5 12.9,35.9 12.8,35.5 C12.6,35.2 12.3,35 12,35 C11.6,35 11.4,35.2 11.2,35.6 C11,36 11,36.6 11,37.4 L11,37.4 Z" id="XMLID_90_"></path>
                <path d="M22.3,8 L20.8,8 L20.8,3.9 L20.8,3.2 L20.8,2.5 C20.5,2.8 20.4,2.9 20.3,3 L19.5,3.7 L18.8,2.8 L21,0.9 L22.2,0.9 L22.2,8 L22.3,8 Z" id="XMLID_68_"></path>
                <path d="M22.3,41 L20.8,41 L20.8,36.9 L20.8,36.2 L20.8,35.5 C20.5,35.8 20.4,35.9 20.3,36 L19.5,36.7 L18.8,35.8 L21.1,34 L22.3,34 L22.3,41 L22.3,41 Z" id="XMLID_78_"></path>
                <path d="M32.5,4.4 C32.5,5.6 32.3,6.6 31.9,7.2 C31.5,7.8 30.9,8.1 30,8.1 C29.2,8.1 28.6,7.8 28.1,7.2 C27.7,6.6 27.5,5.7 27.5,4.5 C27.5,3.2 27.7,2.3 28.1,1.7 C28.5,1.1 29.1,0.8 30,0.8 C30.8,0.8 31.4,1.1 31.9,1.7 C32.3,2.3 32.5,3.2 32.5,4.4 L32.5,4.4 Z M29,4.4 C29,5.3 29.1,5.9 29.2,6.3 C29.4,6.7 29.6,6.9 30,6.9 C30.4,6.9 30.6,6.7 30.8,6.3 C31,5.9 31,5.3 31,4.4 C31,3.5 30.9,2.9 30.8,2.5 C30.6,2.2 30.3,2 30,2 C29.6,2 29.4,2.2 29.2,2.6 C29,3 29,3.6 29,4.4 L29,4.4 Z" id="XMLID_50_"></path>
                <path d="M31.3,41 L29.8,41 L29.8,36.9 L29.8,36.2 L29.8,35.5 C29.5,35.8 29.4,35.9 29.3,36 L28.5,36.7 L27.8,35.8 L30.1,34 L31.3,34 L31.3,41 L31.3,41 Z" id="XMLID_65_"></path>
                <path d="M40.3,8 L38.8,8 L38.8,3.9 L38.8,3.2 L38.8,2.5 C38.5,2.8 38.4,2.9 38.3,3 L37.5,3.7 L36.8,2.8 L39,0.9 L40.2,0.9 L40.2,8 L40.3,8 Z" id="XMLID_11_"></path>
                <path d="M41.5,15.4 C41.5,16.6 41.3,17.6 40.9,18.2 C40.5,18.8 39.9,19.1 39,19.1 C38.2,19.1 37.6,18.8 37.1,18.2 C36.7,17.6 36.5,16.7 36.5,15.5 C36.5,14.2 36.7,13.3 37.1,12.7 C37.5,12.1 38.1,11.8 39,11.8 C39.8,11.8 40.4,12.1 40.9,12.7 C41.3,13.3 41.5,14.2 41.5,15.4 L41.5,15.4 Z M38,15.4 C38,16.3 38.1,16.9 38.2,17.3 C38.4,17.7 38.6,17.9 39,17.9 C39.4,17.9 39.6,17.7 39.8,17.3 C40,16.9 40,16.3 40,15.4 C40,14.5 39.9,13.9 39.8,13.5 C39.6,13.2 39.3,13 39,13 C38.6,13 38.4,13.2 38.2,13.6 C38,14 38,14.6 38,15.4 L38,15.4 Z" id="XMLID_21_"></path>
                <path d="M41.5,26.4 C41.5,27.6 41.3,28.6 40.9,29.2 C40.5,29.8 39.9,30.1 39,30.1 C38.2,30.1 37.6,29.8 37.1,29.2 C36.7,28.6 36.5,27.7 36.5,26.5 C36.5,25.2 36.7,24.3 37.1,23.7 C37.5,23.1 38.1,22.8 39,22.8 C39.8,22.8 40.4,23.1 40.9,23.7 C41.3,24.3 41.5,25.2 41.5,26.4 L41.5,26.4 Z M38,26.4 C38,27.3 38.1,27.9 38.2,28.3 C38.4,28.7 38.6,28.9 39,28.9 C39.4,28.9 39.6,28.7 39.8,28.3 C40,27.9 40,27.3 40,26.4 C40,25.5 39.9,24.9 39.8,24.5 C39.6,24.2 39.3,24 39,24 C38.6,24 38.4,24.2 38.2,24.6 C38,25 38,25.6 38,26.4 L38,26.4 Z" id="XMLID_36_"></path>
                <path d="M40.3,41 L38.8,41 L38.8,36.9 L38.8,36.2 L38.8,35.5 C38.5,35.8 38.4,35.9 38.3,36 L37.5,36.7 L36.8,35.8 L39.1,34 L40.3,34 L40.3,41 L40.3,41 Z" id="XMLID_47_"></path>
            </g>
            <path d="M30,44 C37.7319865,44 44,37.7319865 44,30 C44,22.2680135 37.7319865,16 30,16 C22.2680135,16 16,22.2680135 16,30 C16,37.7319865 22.2680135,44 30,44 L30,44 L30,44 Z M30,40 C24.4771525,40 20,35.5228475 20,30 C20,24.4771525 24.4771525,20 30,20 C35.5228475,20 40,24.4771525 40,30 C40,35.5228475 35.5228475,40 30,40 L30,40 Z M49.9142136,46.5857864 L40.1142136,36.7857864 L37.2857864,39.6142136 L47.0857864,49.4142136 L49.9142136,46.5857864 L49.9142136,46.5857864 Z" id="Shape" fill="#FFFFFF"></path>
            <path d="M32,36 L29,36 L29,29 L29,28 L29,27 C29,26.9752066 28.7,27.2727273 29,27 L27,28 L26,27 L30,24 L32,24 L32,36 L32,36 Z" id="XMLID_16_" fill="#292316"></path>
        </g>
    </g>
</svg>