<?xml version="1.0" encoding="UTF-8" standalone="no"?>
<svg width="64px" height="64px" viewBox="0 0 64 64" version="1.1" xmlns="http://www.w3.org/2000/svg" xmlns:xlink="http://www.w3.org/1999/xlink">
    <!-- Generator: Sketch 3.6.1 (26313) - http://www.bohemiancoding.com/sketch -->
    <title>icons/skills/id-319</title>
    <desc>Created with Sketch.</desc>
    <defs></defs>
    <g id="Technologies" stroke="none" stroke-width="1" fill="none" fill-rule="evenodd">
        <g id="icons/skills/id-319">
            <circle id="Oval-3" fill="#82D1C3" cx="32" cy="32" r="30"></circle>
            <g id="Group" transform="translate(21.000000, 37.000000)">
                <path d="M0,1.99406028 C0,0.892771196 0.889673948,0 1.991155,0 L20.008845,0 C21.1085295,0 22,0.894513756 22,1.99406028 L22,14.0059397 C22,15.1072288 21.1103261,16 20.008845,16 L1.991155,16 C0.891470458,16 0,15.1054862 0,14.0059397 L0,1.99406028 L0,1.99406028 Z" id="Rectangle-39" fill="#394146"></path>
                <path d="M2.99180311,2 L19.0081969,2 C19.5559546,2 20,2.45576096 20,3.00247329 L20,12 L2,12 L2,3.00247329 C2,2.44882258 2.45530558,2 2.99180311,2 Z" id="Rectangle-39" fill="#F6F6F6"></path>
                <rect id="Rectangle-39" fill="#ACF1E2" x="3" y="13" width="1" height="1"></rect>
            </g>
            <g id="Group-2" transform="translate(26.000000, 9.000000)">
                <rect id="Rectangle-42" fill="#394146" x="0" y="0" width="12" height="10" rx="1"></rect>
                <rect id="Rectangle-43" fill="#F6F6F6" opacity="0.9" x="1" y="1" width="10" height="6"></rect>
                <rect id="Rectangle-44" fill="#ACF1E2" x="2" y="8" width="1" height="1"></rect>
            </g>
            <path d="M29.8786797,33.363961 C31.0437903,32.1988504 32.9562097,32.1988504 34.1213203,33.363961 L35.5355339,31.9497475 C33.5893747,30.0035883 30.4106253,30.0035883 28.4644661,31.9497475 L29.8786797,33.363961 Z M27.0502525,30.5355339 C29.7709981,27.8147884 34.2290019,27.8147884 36.9497475,30.5355339 L38.363961,29.1213203 C34.8621669,25.6195262 29.1378331,25.6195262 25.636039,29.1213203 L27.0502525,30.5355339 Z M24.2218254,27.7071068 C28.4982059,23.4307263 35.5017941,23.4307263 39.7781746,27.7071068 L41.1923882,26.2928932 C36.1349591,21.2354642 27.8650409,21.2354642 22.8076118,26.2928932 L24.2218254,27.7071068 Z" id="Shape" fill="#616161"></path>
            <path d="M35,41 L35,44.9999998 L36.5,43.5 L38,44.9999998 L39,44 L37.5,42.5 L39,41 L35,41 Z" id="Stroke-1692" fill="#394146"></path>
            <path d="M33,12 L35,12 L35,13 L34,13 L34,14 L33,14 L33,12 Z" id="Rectangle-50" fill="#394146"></path>
        </g>
    </g>
</svg>