<?xml version="1.0" encoding="UTF-8" standalone="no"?>
<svg width="64px" height="64px" viewBox="0 0 64 64" version="1.1" xmlns="http://www.w3.org/2000/svg" xmlns:xlink="http://www.w3.org/1999/xlink" xmlns:sketch="http://www.bohemiancoding.com/sketch/ns">
    <!-- Generator: Sketch 3.4.2 (15857) - http://www.bohemiancoding.com/sketch -->
    <title>icons/skills/id-37</title>
    <desc>Created with Sketch.</desc>
    <defs>
        <path id="path-1" d="M0.1875,0.421875 L59.8125,0.421875 L59.8125,22.03125 L0.1875,22.03125 L0.1875,0.421875 Z"></path>
    </defs>
    <g id="Frameworks" stroke="none" stroke-width="1" fill="none" fill-rule="evenodd" sketch:type="MSPage">
        <g id="icons/skills/id-37" sketch:type="MSArtboardGroup">
            <g id="Group" sketch:type="MSLayerGroup" transform="translate(2.000000, 21.000000)">
                <path d="M59.390625,7.6875 C58.125,6.984375 57.65625,6.75 56.90625,6.75 C56.203125,6.75 55.875,7.078125 55.875,7.640625 C55.875,9.28125 59.765625,8.8125 59.765625,12.609375 C59.765625,14.671875 58.640625,15.9375 56.671875,15.9375 C55.5,15.9375 54.9375,15.421875 54.046875,14.859375 L54.046875,12.515625 C55.3125,13.546875 55.78125,13.921875 56.71875,13.921875 C57.421875,13.921875 57.75,13.546875 57.75,12.890625 C57.75,11.109375 53.859375,11.765625 53.859375,7.875 C53.859375,6 54.65625,4.78125 56.625,4.78125 C57.609375,4.78125 58.21875,5.015625 59.296875,5.625 L59.296875,7.6875 L59.390625,7.6875 L59.390625,7.6875 Z M29.203125,4.828125 C30.984375,4.828125 31.78125,6.328125 31.78125,7.921875 C31.78125,9.09375 31.3125,9.984375 30.28125,10.546875 C30,10.6875 29.859375,10.6875 29.671875,10.734375 L32.671875,15.609375 L30.5625,15.609375 L27.75,11.203125 L27.75,15.609375 L25.828125,15.609375 L25.828125,4.828125 L29.203125,4.828125 L29.203125,4.828125 Z M27.75,9.28125 L28.640625,9.28125 C29.25,9.28125 29.859375,8.953125 29.859375,8.0625 C29.859375,7.21875 29.4375,6.84375 28.59375,6.84375 L27.75,6.84375 L27.75,9.28125 L27.75,9.28125 Z M41.765625,15.65625 L39.703125,15.65625 L39,13.5 L35.625,13.5 L34.96875,15.65625 L32.953125,15.65625 L36.1875,4.828125 L38.203125,4.828125 L41.765625,15.65625 L41.765625,15.65625 Z M37.21875,7.40625 L36.1875,11.625 L38.34375,11.625 L37.21875,7.40625 L37.21875,7.40625 Z M44.296875,15.65625 L42.375,15.65625 L42.375,4.828125 L44.296875,4.828125 L44.296875,15.65625 L44.296875,15.65625 Z M53.109375,15.65625 L51.5625,15.65625 L47.53125,8.71875 L47.53125,15.65625 L45.65625,15.65625 L45.65625,4.828125 L47.34375,4.828125 L51.234375,11.4375 L51.234375,4.828125 L53.109375,4.828125 L53.109375,15.65625 L53.109375,15.65625 Z M23.109375,9.703125 C23.859375,9.28125 24.328125,8.484375 24.328125,7.546875 C24.328125,7.078125 24.234375,6.5625 24,6.09375 C23.296875,6.703125 22.546875,7.40625 22.3125,7.59375 C22.359375,7.734375 22.359375,7.828125 22.359375,7.96875 C22.359375,8.53125 22.03125,9.140625 21.28125,9.140625 L20.625,9.140625 L20.625,6.515625 L22.875,5.015625 C22.546875,4.875 22.171875,4.78125 21.703125,4.78125 L18.703125,4.78125 L18.703125,15.609375 L21.890625,15.609375 C24.421875,15.609375 24.984375,13.6875 24.984375,12.421875 C24.984375,11.203125 24.375,10.078125 23.109375,9.703125 L23.109375,9.703125 Z M21.28125,13.640625 L20.625,13.640625 L20.625,11.109375 L21.609375,11.109375 C22.359375,11.109375 22.921875,11.53125 22.921875,12.328125 C22.921875,13.265625 22.5,13.640625 21.28125,13.640625 L21.28125,13.640625 Z" id="Shape" fill="#00619E" sketch:type="MSShapeGroup"></path>
                <g id="Clipped">
                    <mask id="mask-2" sketch:name="a" fill="white">
                        <use xlink:href="#path-1"></use>
                    </mask>
                    <g id="a"></g>
                    <path d="M25.828125,3.5625 C25.6875,3.46875 24.328125,4.359375 23.4375,4.96875 L23.109375,5.15625 L20.859375,6.65625 L20.859375,8.34375 C21.328125,8.015625 21.703125,7.6875 21.984375,7.453125 L23.671875,6 C0.046875,-18.75 24.515625,5.25 24.9375,4.828125 L25.078125,4.6875 C25.21875,4.59375 25.265625,4.5 25.265625,4.40625 C25.3125,4.265625 25.875,3.5625 25.828125,3.5625 M17.015625,10.640625 L18.375,9.703125 L18.375,8.015625 L17.15625,8.8125 C0.046875,-18.75 16.078125,9.515625 15.703125,9.75 C15.75,9.515625 15.75,9.328125 15.75,9.328125 C15.9375,7.921875 16.125,6.515625 16.125,5.53125 C16.125,5.0625 16.078125,4.734375 15.984375,4.546875 C15.890625,4.40625 15.796875,4.359375 15.65625,4.3125 C15.46875,4.265625 15.28125,4.359375 15.09375,4.5 C14.484375,4.921875 14.15625,6.1875 14.15625,8.34375 C14.15625,9.046875 14.203125,9.84375 14.25,10.734375 C14.15625,10.78125 13.828125,11.109375 13.828125,11.109375 L13.21875,11.671875 L13.171875,11.71875 C12.609375,12.234375 12.234375,12.515625 12.09375,12.5625 C11.90625,12.609375 11.765625,12.65625 11.625,12.65625 C12.421875,12.09375 13.03125,10.828125 13.03125,10.125 C13.03125,10.03125 13.03125,9.984375 12.984375,9.890625 C12.84375,9.375 12.609375,9 12.234375,8.8125 C11.90625,8.625 11.484375,8.625 10.96875,8.8125 L10.78125,8.90625 C9.9375,9.28125 7.265625,10.78125 6.46875,11.25 C6.5625,10.078125 7.03125,4.828125 7.171875,2.0625 C7.265625,0.28125 7.171875,1.359375 7.171875,1.03125 C7.171875,-0.28125 5.53125,1.03125 4.640625,1.921875 C4.265625,2.296875 3.09375,3.375 3.515625,4.21875 C3.984375,5.109375 4.453125,4.828125 4.734375,6.328125 C5.203125,9 4.828125,11.765625 4.828125,11.953125 C4.6875,12 3.5625,12.5625 3.5625,12.5625 C1.640625,13.453125 0.140625,14.15625 0.140625,15.28125 C0.140625,15.46875 0.1875,15.65625 0.234375,15.84375 C1.828125,20.0625 4.03125,22.3125 4.921875,22.078125 C6.1875,21.75 6.234375,20.109375 6.328125,17.578125 C6.375,16.3125 6.421875,14.90625 6.609375,13.359375 C6.703125,13.3125 8.8125,11.71875 9.234375,11.484375 C9.046875,11.859375 9.046875,12.234375 9.046875,12.421875 C9.046875,12.9375 9.140625,13.3125 9.234375,13.546875 C9.421875,13.921875 9.5625,14.15625 9.9375,14.34375 C10.453125,14.578125 10.875,14.625 11.71875,14.296875 C12.09375,14.15625 12.75,13.6875 13.453125,13.078125 C13.59375,13.3125 14.203125,14.390625 14.203125,14.390625 L14.765625,15.375 C15,15.84375 15.421875,15.984375 15.890625,15.75 C16.21875,15.5625 16.453125,15.421875 16.546875,15.1875 L16.546875,15.046875 C16.546875,14.90625 16.5,14.765625 16.40625,14.625 C15.75,13.453125 15.703125,12.421875 15.703125,11.671875 L15.703125,11.53125 C15.84375,11.4375 17.015625,10.640625 17.015625,10.640625 M4.21875,18.609375 C3.703125,18.1875 3.46875,17.859375 3.09375,16.921875 C2.4375,15.375 3.328125,14.90625 4.921875,14.015625 C4.734375,15.65625 4.59375,18.984375 4.21875,18.609375 M10.59375,12 C10.59375,11.4375 10.453125,10.6875 11.203125,10.265625 C11.484375,10.125 11.671875,10.21875 11.765625,10.3125 C11.953125,10.546875 11.484375,11.4375 10.59375,12" id="Shape" fill="#F68B1F" sketch:type="MSShapeGroup" mask="url(#mask-2)"></path>
                </g>
            </g>
        </g>
    </g>
</svg>