<?xml version="1.0" encoding="UTF-8" standalone="no"?>
<svg width="64px" height="64px" viewBox="0 0 64 64" version="1.1" xmlns="http://www.w3.org/2000/svg" xmlns:xlink="http://www.w3.org/1999/xlink">
    <defs></defs>
    <g id="Technologies" stroke="none" stroke-width="1" fill="none" fill-rule="evenodd">
        <g id="icons/skills/id-323">
            <circle id="Oval-3" fill="#2FC087" cx="32" cy="32" r="30"></circle>
            <path d="M46,42 C49.9242,41.6458 53,38.3166 53,34.3 C53,30.261 49.8878,26.9542 45.9314,26.6322 C45.2426,19.5426 39.2702,14 32,14 C25.6832,14 20.3478,18.186 18.6048,23.933 C14.2914,24.6484 11,28.385 11,32.9 C11,37.6894 14.703,41.6416 19.4,42 L46,42 L46,42 Z" id="Stroke-5761" fill="#F5FFFD"></path>
            <path d="M37,37 L37,50" id="Stroke-437" stroke="#394146" stroke-width="2" stroke-linecap="round" stroke-linejoin="round"></path>
            <path d="M41,46 L37,50 L33,46" id="Stroke-636" stroke="#394146" stroke-width="2" stroke-linecap="round" stroke-linejoin="round"></path>
            <path d="M27,48 L27,35" id="Stroke-438" stroke="#394146" stroke-width="2" stroke-linecap="round" stroke-linejoin="round"></path>
            <path d="M23,39 L27,35 L31,39" id="Stroke-642" stroke="#394146" stroke-width="2" stroke-linecap="round" stroke-linejoin="round"></path>
            <path d="M39.2,24.8 L39.1,24.8 C37.8,24.5 37.2,23 37.9,21.8 L38,21.7 C38.2,21.3 38.2,20.8 37.8,20.5 L37.5,20.2 C37.2,19.9 36.7,19.8 36.3,20 L36.2,20.1 C35,20.8 33.6,20.2 33.2,18.9 L33.2,18.8 C33.1,18.3 32.7,18 32.2,18 L31.8,18 C31.3,18 30.9,18.3 30.8,18.8 L30.8,18.9 C30.5,20.2 29,20.8 27.8,20.1 L27.7,20 C27.3,19.8 26.8,19.9 26.5,20.2 L26.2,20.5 C25.9,20.8 25.8,21.3 26,21.7 L26.1,21.8 C26.8,23 26.2,24.4 24.9,24.8 L24.8,24.8 C24.3,24.9 24,25.3 24,25.8 L24,26.2 C24,26.7 24.3,27.1 24.8,27.2 L24.9,27.2 C26.2,27.5 26.8,29 26.1,30.2 L26,30.3 C25.8,30.7 25.8,31.2 26.2,31.5 L26.5,31.8 C26.8,32.1 27.3,32.2 27.7,32 L27.8,31.9 C29,31.2 30.4,31.8 30.8,33.1 L30.8,33.2 C30.9,33.6 31.3,34 31.8,34 L32.2,34 C32.7,34 33.1,33.7 33.2,33.2 L33.2,33.1 C33.5,31.8 35,31.2 36.2,31.9 L36.3,32 C36.7,32.2 37.2,32.2 37.5,31.8 L37.8,31.5 C38.1,31.2 38.2,30.7 38,30.3 L37.9,30.2 C37.2,29 37.8,27.6 39.1,27.2 L39.2,27.2 C39.6,27.1 40,26.7 40,26.2 L40,25.8 C40,25.3 39.7,24.9 39.2,24.8 L39.2,24.8 Z M32,29 C30.3,29 29,27.7 29,26 C29,24.3 30.3,23 32,23 C33.7,23 35,24.3 35,26 C35,27.7 33.7,29 32,29 L32,29 Z" id="Fill-210" fill="#2F8D6D"></path>
        </g>
    </g>
</svg>