<?xml version="1.0" encoding="UTF-8" standalone="no"?>
<svg width="64px" height="64px" viewBox="0 0 64 64" version="1.1" xmlns="http://www.w3.org/2000/svg" xmlns:xlink="http://www.w3.org/1999/xlink">
    <!-- Generator: Sketch 3.6.1 (26313) - http://www.bohemiancoding.com/sketch -->
    <title>icons/skills/id-354</title>
    <desc>Created with Sketch.</desc>
    <defs></defs>
    <g id="Frameworks" stroke="none" stroke-width="1" fill="none" fill-rule="evenodd">
        <g id="icons/skills/id-354">
            <path d="M53.3403608,6.73159794 C53.3403608,6.73159794 52.6465464,10.0547938 51.6635567,11.1001546 C46.4176804,5.5821134 39.0120103,2.13726804 30.7970619,2.13726804 C14.8929381,2.13726804 2.00015464,15.0300515 2.00015464,30.9346907 C2.00015464,41.0310825 9.13159794,59.7321134 30.7970619,59.7321134 C46.701701,59.7321134 60.001701,46.8388144 60.001701,30.9346907 C60.001701,17.1547938 53.3403608,6.73159794 53.3403608,6.73159794" id="Fill-1" fill="#6DB33F"></path>
            <path d="M21.5689175,48.5876804 C21.5689175,48.5876804 44.5807732,45.8959278 51.0400515,25.4418041 C51.0400515,25.4418041 45.119433,41.3211856 17.1292268,46.972732 C17.1292268,46.972732 9.05551546,43.2046907 12.8235567,32.707268 C14.4921134,28.0598454 18.505,23.8026289 23.183866,22.4881959 C29.362732,20.7531443 34.6653093,23.0103608 40.8122165,20.6041753 C45.8580928,18.6284021 51.8895361,15.7304639 53.7312887,10.3701546 C53.7312887,10.3701546 77.2802577,56.9371649 21.5689175,48.5876804" id="Fill-4" fill="#FFFFFF"></path>
            <path d="M15.4726804,50.4567526 C15.4726804,51.8866495 14.3134021,53.0454124 12.8840206,53.0454124 C11.4541237,53.0454124 10.2953608,51.8866495 10.2953608,50.4567526 C10.2953608,49.0268557 11.4541237,47.8680928 12.8840206,47.8680928 C14.3134021,47.8680928 15.4726804,49.0268557 15.4726804,50.4567526" id="Fill-6" fill="#FFFFFF"></path>
        </g>
    </g>
</svg>