<?xml version="1.0" encoding="UTF-8" standalone="no"?>
<svg width="64px" height="64px" viewBox="0 0 64 64" version="1.1" xmlns="http://www.w3.org/2000/svg" xmlns:xlink="http://www.w3.org/1999/xlink">
    <defs></defs>
    <g id="Database" stroke="none" stroke-width="1" fill="none" fill-rule="evenodd">
        <g id="icons/skills/id-317">
            <g id="Imported-Layers" transform="translate(2.000000, 6.000000)">
                <path d="M57.5238095,39.5714286 C54.3333333,41.2380952 37.8095238,48 34.2857143,49.8571429 C30.7619048,51.7142857 28.8095238,51.6666667 26.047619,50.3333333 C23.2857143,49 5.71428571,41.952381 2.52380952,40.4285714 C0.952380952,39.6666667 0.142857143,39.047619 0.142857143,38.4285714 L0.142857143,32.3809524 C0.142857143,32.3809524 23,27.3809524 26.7142857,26.0952381 C30.4285714,24.7619048 31.6666667,24.7142857 34.8095238,25.8571429 C37.952381,27 56.7619048,30.3809524 59.8571429,31.5238095 L59.8571429,37.4761905 C59.8571429,38.0952381 59.1428571,38.7619048 57.5238095,39.5714286" id="Fill-1" fill="#A41E11"></path>
                <path d="M57.5238095,33.5714286 C54.3333333,35.2380952 37.8095238,42 34.2857143,43.8571429 C30.7619048,45.7142857 28.8095238,45.6666667 26.047619,44.3333333 C23.2857143,43 5.71428571,35.9047619 2.52380952,34.3809524 C-0.619047619,32.8571429 -0.714285714,31.8095238 2.38095238,30.6190476 C5.47619048,29.3809524 22.952381,22.5238095 26.6666667,21.2380952 C30.3809524,19.9047619 31.6190476,19.8571429 34.7619048,21 C37.9047619,22.1428571 54.3333333,28.6666667 57.4285714,29.8095238 C60.6190476,30.952381 60.7142857,31.9047619 57.5238095,33.5714286" id="Fill-2" fill="#D82C1F"></path>
                <path d="M57.5238095,29.7619048 C54.3333333,31.4285714 37.8095238,38.1904762 34.2857143,40.047619 C30.7619048,41.8571429 28.8095238,41.8571429 26.047619,40.5238095 C23.2857143,39.1904762 5.71428571,32.0952381 2.52380952,30.5714286 C0.952380952,29.8095238 0.142857143,29.1904762 0.142857143,28.5714286 L0.142857143,22.5238095 C0.142857143,22.5238095 23,17.5238095 26.7142857,16.2380952 C30.4285714,14.9047619 31.6666667,14.8571429 34.8095238,16 C37.952381,17.1428571 56.7619048,20.5238095 59.8571429,21.6666667 L59.8571429,27.6190476 C59.8571429,28.2380952 59.1428571,28.9047619 57.5238095,29.7619048" id="Fill-3" fill="#A41E11"></path>
                <path d="M57.5238095,23.7142857 C54.3333333,25.3809524 37.8095238,32.1428571 34.2857143,34 C30.7619048,35.8095238 28.8095238,35.8095238 26.047619,34.4761905 C23.2857143,33.1428571 5.71428571,26.047619 2.52380952,24.5238095 C-0.666666667,23 -0.714285714,21.952381 2.38095238,20.7619048 C5.47619048,19.5238095 22.952381,12.6666667 26.6666667,11.3809524 C30.3809524,10.047619 31.6190476,10 34.7619048,11.1428571 C37.9047619,12.2857143 54.3333333,18.8095238 57.4285714,19.952381 C60.6190476,21.0952381 60.7142857,22.047619 57.5238095,23.7142857" id="Fill-4" fill="#D82C1F"></path>
                <path d="M57.5238095,19.5238095 C54.3333333,21.1904762 37.8095238,27.952381 34.2857143,29.8095238 C30.7619048,31.6190476 28.8095238,31.6190476 26.047619,30.2857143 C23.2857143,29 5.71428571,21.9047619 2.52380952,20.3809524 C0.952380952,19.6190476 0.0952380952,19 0.0952380952,18.3809524 L0.0952380952,12.3333333 C0.0952380952,12.3333333 22.952381,7.33333333 26.6666667,6.04761905 C30.3809524,4.71428571 31.6190476,4.66666667 34.7619048,5.80952381 C37.9047619,6.95238095 56.7142857,10.3333333 59.8095238,11.4761905 L59.8095238,17.4285714 C59.8571429,18.047619 59.1428571,18.6666667 57.5238095,19.5238095" id="Fill-5" fill="#A41E11"></path>
                <path d="M57.5238095,13.4761905 C54.3333333,15.1428571 37.8095238,21.9047619 34.2857143,23.7619048 C30.7619048,25.5714286 28.8095238,25.5714286 26.047619,24.2380952 C23.2857143,22.9047619 5.71428571,15.8571429 2.52380952,14.3333333 C-0.666666667,12.8095238 -0.714285714,11.7619048 2.38095238,10.5714286 C5.47619048,9.33333333 22.952381,2.47619048 26.6666667,1.19047619 C30.3809524,-0.142857143 31.6190476,-0.19047619 34.7619048,0.952380952 C37.9047619,2.0952381 54.3333333,8.61904762 57.4285714,9.76190476 C60.6190476,10.9047619 60.7142857,11.8571429 57.5238095,13.4761905" id="Fill-6" fill="#D82C1F"></path>
                <path d="M37.8095238,7.66666667 L32.6666667,8.23809524 L31.4761905,11 L29.6190476,7.9047619 L23.6666667,7.38095238 L28.0952381,5.76190476 L26.7619048,3.28571429 L30.952381,4.9047619 L34.8571429,3.61904762 L33.8095238,6.19047619 L37.8095238,7.66666667 L37.8095238,7.66666667 Z M31.1904762,21.1904762 L21.5238095,17.1904762 L35.3809524,15.0952381 L31.1904762,21.1904762 L31.1904762,21.1904762 Z" id="Fill-7" fill="#FFFFFF"></path>
                <path d="M17.8095238,9.23809524 C21.8857143,9.23809524 25.1904762,10.5171429 25.1904762,12.0952381 C25.1904762,13.6733333 21.8857143,14.952381 17.8095238,14.952381 C13.7333333,14.952381 10.4285714,13.6733333 10.4285714,12.0952381 C10.4285714,10.5171429 13.7333333,9.23809524 17.8095238,9.23809524" id="Fill-8" fill="#FFFFFF"></path>
                <path d="M43.952381,8.42857143 L52.1428571,11.6666667 L43.952381,14.9047619 L43.952381,8.42857143" id="Fill-9" fill="#7A0C00"></path>
                <path d="M34.9047619,12.047619 L43.952381,8.42857143 L43.952381,14.9047619 L43.047619,15.2857143 L34.9047619,12.047619" id="Fill-10" fill="#AD2114"></path>
            </g>
        </g>
    </g>
</svg>