<?xml version="1.0" encoding="UTF-8" standalone="no"?>
<svg width="64px" height="64px" viewBox="0 0 64 64" version="1.1" xmlns="http://www.w3.org/2000/svg" xmlns:xlink="http://www.w3.org/1999/xlink">
    <!-- Generator: Sketch 3.6.1 (26313) - http://www.bohemiancoding.com/sketch -->
    <title>icons/skills/id-307</title>
    <desc>Created with Sketch.</desc>
    <defs></defs>
    <g id="Tools" stroke="none" stroke-width="1" fill="none" fill-rule="evenodd">
        <g id="icons/skills/id-307">
            <path d="M45.6,56 L5.6,56 C3.4,56 2.1,54.2 2.7,52 L13.4,12 C14,9.8 16.3,8 18.5,8 L58.5,8 C60.7,8 62,9.8 61.4,12 L50.6,52 C50.1,54.2 47.8,56 45.6,56 L45.6,56 Z" id="Shape" fill="#2196F3"></path>
            <path d="M29.2664812,31.6098899 L15.5607114,42.4302345 C14.6937539,43.1146747 14.5457943,44.372331 15.2302345,45.2392886 C15.9146747,46.1062461 17.172331,46.2542057 18.0392886,45.5697655 L33.2392886,33.5697655 C34.084538,32.9024634 34.2496564,31.6856996 33.61281,30.8172727 L24.81281,18.8172727 C24.1596077,17.9265423 22.908003,17.7339877 22.0172727,18.38719 C21.1265423,19.0403923 20.9339877,20.291997 21.58719,21.1827273 L29.2664812,31.6098899 Z" id="Shape" fill="#FFFFFF"></path>
            <path d="M39.8,46 C40.9045695,46 41.8,45.1045695 41.8,44 C41.8,42.8954305 40.9045695,42 39.8,42 L28.8,42 C27.6954305,42 26.8,42.8954305 26.8,44 C26.8,45.1045695 27.6954305,46 28.8,46 L39.8,46 Z" id="Shape" fill="#90CAF9"></path>
        </g>
    </g>
</svg>