<?xml version="1.0" encoding="UTF-8" standalone="no"?>
<svg width="64px" height="64px" viewBox="0 0 64 64" version="1.1" xmlns="http://www.w3.org/2000/svg" xmlns:xlink="http://www.w3.org/1999/xlink">
    <defs></defs>
    <g id="Technologies" stroke="none" stroke-width="1" fill="none" fill-rule="evenodd">
        <g id="icons/skills/id-352">
            <circle id="Oval-3" fill="#83D1C3" cx="32" cy="32" r="30"></circle>
            <rect id="Rectangle-19" fill="#F6F6F6" x="17" y="25" width="10" height="10"></rect>
            <rect id="Rectangle-19" fill="#A3A3AE" x="20" y="36" width="4" height="5"></rect>
            <rect id="Rectangle-19" fill="#ACF1E2" x="19" y="18" width="6" height="5"></rect>
            <rect id="Rectangle-19" fill="#ACF1E2" x="39" y="18" width="6" height="5"></rect>
            <rect id="Rectangle-19" fill="#A3A3AE" x="40" y="36" width="4" height="5"></rect>
            <rect id="Rectangle-19" fill="#F6F6F6" x="37" y="25" width="10" height="10"></rect>
            <path d="M27,36 L17,36 L17,24 L27,24 L27,36 Z" id="Stroke-5061" stroke="#394146" stroke-width="2" stroke-linecap="round" stroke-linejoin="round"></path>
            <path d="M47,36 L37,36 L37,24 L47,24 L47,36 Z" id="Stroke-5062" stroke="#394146" stroke-width="2" stroke-linecap="round" stroke-linejoin="round"></path>
            <path d="M42,41 L42,47 L22,47 L22,41" id="Stroke-5063" stroke="#394146" stroke-width="2" stroke-linecap="round" stroke-linejoin="round"></path>
            <path d="M15,55 L49,55" id="Line" stroke="#394146" stroke-width="2" stroke-linecap="square"></path>
            <path d="M32,48 L32,55" id="Line" stroke="#394146" stroke-width="2" stroke-linecap="square"></path>
            <path d="M19,24 L19,17 L25,17 L25,24" id="Stroke-5064" stroke="#394146" stroke-width="2" stroke-linecap="round" stroke-linejoin="round"></path>
            <path d="M22,20 L22,21" id="Stroke-5065" stroke="#394146" stroke-width="2" stroke-linecap="round" stroke-linejoin="round"></path>
            <path d="M39,24 L39,17 L45,17 L45,24" id="Stroke-5066" stroke="#394146" stroke-width="2" stroke-linecap="round" stroke-linejoin="round"></path>
            <path d="M42,20 L42,21" id="Stroke-5067" stroke="#394146" stroke-width="2" stroke-linecap="round" stroke-linejoin="round"></path>
            <path d="M24,36 L24,41 L20,41 L20,36" id="Stroke-5068" stroke="#394146" stroke-width="2" stroke-linecap="round" stroke-linejoin="round"></path>
            <path d="M44,36 L44,41 L40,41 L40,36" id="Stroke-5069" stroke="#394146" stroke-width="2" stroke-linecap="round" stroke-linejoin="round"></path>
        </g>
    </g>
</svg>