<?xml version="1.0" encoding="UTF-8" standalone="no"?>
<svg width="64px" height="64px" viewBox="0 0 64 64" version="1.1" xmlns="http://www.w3.org/2000/svg" xmlns:xlink="http://www.w3.org/1999/xlink">
    <!-- Generator: Sketch 3.6.1 (26313) - http://www.bohemiancoding.com/sketch -->
    <title>icons/skills/id-363</title>
    <desc>Created with Sketch.</desc>
    <defs>
        <path id="path-1" d="M0,0.164957265 L59.8350427,0.164957265 L59.8350427,60 L0,60"></path>
    </defs>
    <g id="Frameworks" stroke="none" stroke-width="1" fill="none" fill-rule="evenodd">
        <g id="icons/skills/id-363">
            <g id="Page-1" transform="translate(2.000000, 2.000000)">
                <g id="Group-3">
                    <mask id="mask-2" fill="white">
                        <use xlink:href="#path-1"></use>
                    </mask>
                    <g id="Clip-2"></g>
                    <path d="M59.8350769,30.0824615 C59.8350769,46.6053675 46.440547,60.0000684 29.9174701,60.0000684 C13.3945641,60.0000684 3.41880342e-05,46.6053675 3.41880342e-05,30.0824615 C3.41880342e-05,13.5595556 13.3945641,0.164854701 29.9174701,0.164854701 C46.440547,0.164854701 59.8350769,13.5595556 59.8350769,30.0824615" id="Fill-1" fill="#FFFFFF" mask="url(#mask-2)"></path>
                </g>
                <path d="M55.7293846,30.2096068 C55.7293846,44.4699487 44.1692137,56.0301197 29.9088718,56.0301197 C15.6485299,56.0301197 4.08835897,44.4699487 4.08835897,30.2096068 C4.08835897,15.949265 15.6485299,4.38909402 29.9088718,4.38909402 C44.1692137,4.38909402 55.7293846,15.949265 55.7293846,30.2096068" id="Fill-4" fill="#6D9A00"></path>
                <path d="M13.8092137,28.0992479 C14.2558803,27.7375385 14.8020342,27.1033504 15.0201538,26.2642051 C15.1690427,25.6770256 15.2777607,24.3830085 15.2777607,22.4638632 C15.2777607,20.6765128 14.8856239,18.481641 15.9415214,16.8795897 C16.4418632,16.1202735 17.1145128,15.6936068 17.9804957,15.4112137 C19.1557094,15.0281368 20.4502393,14.9705299 21.6777607,15.0182222 L21.6777607,15.4060855 L21.6777607,15.7696752 L21.6777607,18.1604444 L20.1957094,18.1604444 C18.6440855,18.1604444 18.5553675,20.1951453 18.4943419,21.2884786 C18.4057949,22.8700171 18.4630598,24.4554872 18.2700684,26.033094 C18.1360513,27.1284786 17.7148547,28.2496752 16.9427179,29.0664274 C16.8155385,29.2007863 15.708188,30.3214701 15.551094,30.2254017 C16.116906,30.5713846 16.8707521,31.2707009 17.2329744,31.7267692 C17.5955385,32.1830085 17.8857949,32.7390769 18.1040855,33.3941197 C18.322547,34.0498462 18.4565641,34.9228376 18.5061368,36.0134359 C18.5856239,37.8170256 18.6276752,39.038735 18.6326325,39.6783932 C18.6374188,40.2854017 18.5534872,40.9700171 18.8803248,41.5177094 C19.1687009,42.0012991 19.7064786,42.1300171 20.2302393,42.1698462 C20.3774188,42.1809573 21.6777607,42.187453 21.6777607,42.1821538 L21.6777607,42.4098462 L21.6777607,42.5806154 L21.6777607,45.4153162 L20.9133162,45.3812991 C19.6128034,45.3812991 18.8890427,45.4676239 18.2834017,45.278735 C16.0416923,44.5758291 15.359641,42.493094 15.2186154,40.3565128 C15.1098974,38.7083077 15.2365641,37.0448889 14.9704103,35.4083077 C14.8649402,34.7592479 14.7616923,34.1024957 14.5092137,33.4915556 C14.3345128,33.0686496 14.0160513,32.7069402 13.6514359,32.436 C13.116735,32.0383932 12.3928034,32.0773675 11.7581026,32.0212991 L11.7257949,28.4065983 C12.6392991,28.3541197 13.3623761,28.4611282 13.8092137,28.0992479" id="Fill-6" fill="#FFFFFF"></path>
                <path d="M46.3001197,28.0992479 C45.853453,27.7375385 45.3074701,27.1033504 45.0891795,26.2642051 C44.9402906,25.6770256 44.8315726,24.3830085 44.8315726,22.4638632 C44.8315726,20.6765128 45.2237094,18.481641 44.167812,16.8795897 C43.6674701,16.1202735 42.9948205,15.6936068 42.1288376,15.4112137 C40.9536239,15.0281368 39.659094,14.9705299 38.4315726,15.0182222 L38.4315726,15.4060855 L38.4315726,15.7696752 L38.4315726,18.1604444 L39.9136239,18.1604444 C41.4652479,18.1604444 41.5539658,20.1951453 41.6149915,21.2884786 C41.7035385,22.8700171 41.6462735,24.4554872 41.839265,26.033094 C41.9732821,27.1284786 42.3944786,28.2496752 43.1666154,29.0664274 C43.2937949,29.2007863 44.4011453,30.3214701 44.5582393,30.2254017 C43.9924274,30.5713846 43.2385812,31.2707009 42.876359,31.7267692 C42.5137949,32.1830085 42.2235385,32.7390769 42.0052479,33.3941197 C41.7867863,34.0498462 41.6527692,34.9228376 41.6031966,36.0134359 C41.5237094,37.8170256 41.4816581,39.038735 41.4767009,39.6783932 C41.4719145,40.2854017 41.5558462,40.9700171 41.2290085,41.5177094 C40.9406325,42.0012991 40.4028547,42.1300171 39.879094,42.1698462 C39.7319145,42.1809573 38.4315726,42.187453 38.4315726,42.1821538 L38.4315726,42.4098462 L38.4315726,42.5806154 L38.4315726,45.4153162 L39.1960171,45.3812991 C40.4965299,45.3812991 41.2202906,45.4676239 41.8259316,45.278735 C44.067641,44.5758291 44.7496923,42.493094 44.8907179,40.3565128 C44.9994359,38.7083077 44.8727692,37.0448889 45.1389231,35.4083077 C45.2443932,34.7592479 45.347641,34.1024957 45.6001197,33.4915556 C45.7748205,33.0686496 46.0932821,32.7069402 46.4578974,32.436 C46.9925983,32.0383932 47.7165299,32.0773675 48.3512308,32.0212991 L48.3835385,28.4065983 C47.4700342,28.3541197 46.7469573,28.4611282 46.3001197,28.0992479" id="Fill-8" fill="#FFFFFF"></path>
                <path d="M24.7857436,30.175453 C24.7857436,31.3638291 23.8223248,32.3272479 22.6341197,32.3272479 C21.4457436,32.3272479 20.4823248,31.3638291 20.4823248,30.175453 C20.4823248,28.9870769 21.4457436,28.0238291 22.6341197,28.0238291 C23.8223248,28.0238291 24.7857436,28.9870769 24.7857436,30.175453" id="Fill-10" fill="#FFFFFF"></path>
                <path d="M31.9602393,30.175453 C31.9602393,31.3638291 30.9968205,32.3272479 29.8086154,32.3272479 C28.6202393,32.3272479 27.6568205,31.3638291 27.6568205,30.175453 C27.6568205,28.9870769 28.6202393,28.0238291 29.8086154,28.0238291 C30.9968205,28.0238291 31.9602393,28.9870769 31.9602393,30.175453" id="Fill-12" fill="#FFFFFF"></path>
                <path d="M39.4058462,30.175453 C39.4058462,31.3638291 38.4424274,32.3272479 37.2540513,32.3272479 C36.0658462,32.3272479 35.1024274,31.3638291 35.1024274,30.175453 C35.1024274,28.9870769 36.0658462,28.0238291 37.2540513,28.0238291 C38.4424274,28.0238291 39.4058462,28.9870769 39.4058462,30.175453" id="Fill-14" fill="#FFFFFF"></path>
            </g>
        </g>
    </g>
</svg>