<?xml version="1.0" encoding="UTF-8" standalone="no"?>
<svg width="64px" height="64px" viewBox="0 0 64 64" version="1.1" xmlns="http://www.w3.org/2000/svg" xmlns:xlink="http://www.w3.org/1999/xlink">
    <defs></defs>
    <g id="Technologies" stroke="none" stroke-width="1" fill="none" fill-rule="evenodd">
        <g id="icons/skills/id-387">
            <path d="M52,50 C57.606,49.494 62,44.738 62,39 C62,33.23 57.554,28.506 51.902,28.046 C50.918,17.918 42.386,10 32,10 C22.976,10 15.354,15.98 12.864,24.19 C6.702,25.212 2,30.55 2,37 C2,43.842 7.29,49.488 14,50 L52,50 L52,50 Z" id="Stroke-5761" fill="#E1EFFC"></path>
            <path d="M32.11,25 L32.11,32 L26,36.888" id="Stroke-5809" stroke="#0096FF" stroke-width="2" stroke-linecap="round" stroke-linejoin="round"></path>
            <path d="M32,32 L38.076,36.861" id="Stroke-5810" stroke="#0096FF" stroke-width="2" stroke-linecap="round" stroke-linejoin="round"></path>
            <path d="M28,21 C28,18.7912 29.7912,17 32,17 C34.2088,17 36,18.7912 36,21 C36,23.2088 34.2088,25 32,25 C29.7912,25 28,23.2088 28,21 L28,21 Z" id="Stroke-5811" stroke="#394146" stroke-width="2" stroke-linecap="round" stroke-linejoin="round" fill="#FFFFFF"></path>
            <path d="M18,40 C18,37.7912 19.7912,36 22,36 C24.2088,36 26,37.7912 26,40 C26,42.2088 24.2088,44 22,44 C19.7912,44 18,42.2088 18,40 L18,40 Z" id="Stroke-5812" stroke="#394146" stroke-width="2" stroke-linecap="round" stroke-linejoin="round" fill="#FFFFFF"></path>
            <path d="M38,40 C38,37.7912 39.7912,36 42,36 C44.2088,36 46,37.7912 46,40 C46,42.2088 44.2088,44 42,44 C39.7912,44 38,42.2088 38,40 L38,40 Z" id="Stroke-5813" stroke="#394146" stroke-width="2" stroke-linecap="round" stroke-linejoin="round" fill="#FFFFFF"></path>
        </g>
    </g>
</svg>