<?xml version="1.0" encoding="UTF-8" standalone="no"?>
<svg width="64px" height="64px" viewBox="0 0 64 64" version="1.1" xmlns="http://www.w3.org/2000/svg" xmlns:xlink="http://www.w3.org/1999/xlink">
    <!-- Generator: Sketch 3.6.1 (26313) - http://www.bohemiancoding.com/sketch -->
    <title>icons/skills/id-312</title>
    <desc>Created with Sketch.</desc>
    <defs>
        <path id="path-1" d="M0,0.0154156171 L59.0797481,0.0154156171 L59.0797481,60 L0,60"></path>
    </defs>
    <g id="Frameworks" stroke="none" stroke-width="1" fill="none" fill-rule="evenodd">
        <g id="icons/skills/id-312">
            <g id="Page-1" transform="translate(2.000000, 2.000000)">
                <path d="M25.3285239,31.6134106 C25.3285239,31.6134106 30.3777431,30.3562821 34.3109924,33.6003627 C34.3109924,33.6003627 32.8776423,28.1956776 34.1619748,24.34933 C34.1619748,24.34933 29.1191033,24.0307406 26.402932,23.5440907 C26.402932,23.5440907 26.8891285,27.6396574 25.3285239,31.6134106" id="Fill-1" fill="#F07000"></path>
                <path d="M33.9863879,33.0528514 C33.9863879,33.0528514 32.3230126,28.0583426 33.7426096,24.3211134 C32.4777733,24.2334559 28.646539,23.946 26.4029622,23.544136 C26.4029622,23.544136 26.8273451,27.1220705 25.6084534,30.8342116 C26.4009975,30.7918942 30.5208967,30.700005 33.9863879,33.0528514" id="Fill-3" fill="#FFFF00"></path>
                <path d="M26.1732091,28.5722872 L31.9997078,31.4107254 C31.9997078,31.4107254 28.8995063,27.6713804 26.3946196,26.9054358 C26.3946196,26.9054358 26.2832343,28.0081058 26.1732091,28.5722872" id="Fill-5" fill="#F7A40B"></path>
                <path d="M26.4029622,25.1863829 C26.4029622,25.1863829 30.9452796,29.1398841 33.4593854,32.4243174 C33.4593854,32.4243174 28.9303678,25.9963073 28.2753552,23.8172645 L26.4029622,23.5441662 L26.4029622,25.1863829 Z" id="Fill-7" fill="#F7A40B"></path>
                <path d="M29.4650932,23.9526801 C29.4650932,23.9526801 29.9316423,27.5584232 33.2162267,31.1673401 C33.2162267,31.1673401 31.4917935,27.3569622 31.3405088,24.1326801 L29.4650932,23.9526801 Z" id="Fill-9" fill="#F7A40B"></path>
                <g id="Group-13">
                    <mask id="mask-2" fill="white">
                        <use xlink:href="#path-1"></use>
                    </mask>
                    <g id="Clip-12"></g>
                    <path d="M2.1321461,60 C0.864438287,53.3596474 -0.288105793,46.3360202 0.0643375315,39.5667506 C0.238896725,36.2134005 1.37390932,32.7816121 4.39839295,30.9764736 C7.87839295,28.8991436 12.183733,30.1033753 15.6759748,28.0677582 C20.0054962,25.5442821 19.2403073,20.3548111 19.2250428,16.0857431 C22.1488715,16.709471 25.1184937,17.1460957 28.1027758,17.3410579 C31.4999547,17.5627708 35.3184937,17.6374307 38.5131537,16.2657431 C41.4502821,15.004534 43.5189975,12.2271537 45.0894257,9.55239295 C46.9453451,6.39143577 48.6530025,3.68962217 51.9457481,1.84654912 C54.1069572,0.636725441 56.5820705,-0.201309824 59.0798539,0.0649874055 C57.0930529,1.16508816 55.3625743,2.71526448 53.9106348,4.45299748 C52.4067053,6.25299748 51.2129018,8.31143577 50.4446902,10.5297733 C49.720005,12.6223678 49.4221209,14.8322418 48.9462015,16.9881612 C48.4110378,19.4129471 47.5958237,21.7088161 45.2783426,22.9407053 C42.282272,24.533199 38.015471,24.7228715 34.716529,24.520806 C31.9710378,24.3527456 29.2220705,23.9507305 26.4857985,23.6667506 C26.6363275,26.7627204 26.3624736,30.5451385 24.4140605,33.0887154 C21.4681662,36.9346096 15.8794005,35.6755164 11.793204,36.8921411 C8.23219647,37.9523426 6.7535063,41.6058438 5.64010579,44.8520403 C3.95783879,49.7567758 3.02050882,54.9046851 2.1321461,60" id="Fill-11" fill="#4C7DB8" mask="url(#mask-2)"></path>
                </g>
                <path d="M2.26441814,55.4216977 C2.26441814,55.4216977 -1.18067003,32.5459798 9.95001008,30.8430076 C9.95001008,30.8430076 8.00371285,32.5459798 7.33464484,34.8572645 C6.66557683,37.1687003 9.28094207,36.1955516 9.28094207,36.1955516 C9.28094207,36.1955516 5.34482116,38.8837632 2.26441814,55.4216977" id="Fill-14" fill="#426EA4"></path>
                <path d="M5.5099194,31.3295668 C5.5099194,31.3295668 5.48165743,31.3823123 5.43525945,31.4782821 C5.01903778,32.3401965 3.13274055,36.7007003 6.90881108,37.9593401 C6.90881108,37.9593401 4.84085139,38.1419093 2.16457935,56.084932 C2.16457935,56.084932 -1.82126448,33.3364685 5.5099194,31.3295668" id="Fill-16" fill="#79AACC"></path>
                <path d="M15.485063,32.9719043 C15.485063,32.9719043 22.5405793,30.3563879 21.9324181,20.3205189 C21.9324181,20.3205189 25.6085894,21.1203174 34.9486398,21.0503426 C34.9486398,21.0503426 33.5497481,22.6318035 24.5477834,22.1451537 C24.5477834,22.1451537 26.3115113,31.9898388 15.485063,32.9719043" id="Fill-18" fill="#416CA5"></path>
                <path d="M15.485063,31.3295668 C15.485063,31.3295668 22.7229975,29.7481058 21.0200252,18.6781814 C21.0200252,18.6781814 23.939471,20.6853854 32.8197733,20.5637229 C32.8197733,20.5637229 27.528136,21.5368715 23.0272292,21.1111285 C23.0272292,21.1111285 25.5346851,31.1808514 15.485063,31.3295668" id="Fill-20" fill="#3F6CA1"></path>
                <path d="M21.9323426,20.3204584 C22.2652897,25.8147657 20.3013098,29.0849924 18.4556675,30.919602 C24.9934005,29.0125995 23.0271537,21.1111889 23.0271537,21.1111889 C25.3026196,21.326403 27.7790932,21.1840353 29.672796,20.9907355 C24.1939043,20.8120957 21.9323426,20.3204584 21.9323426,20.3204584" id="Fill-22" fill="#3C699D"></path>
                <path d="M37.7465441,18.130806 C37.7465441,18.130806 41.0920353,19.8946851 36.9559647,22.9359446 C36.9559647,22.9359446 45.4103728,24.4564987 47.7825642,13.0823426 C47.7825642,13.0823426 50.3335466,3.59478589 54.0473501,1.89075567 C54.0473501,1.89075567 50.7021612,2.62073048 46.7485088,9.67624685 C42.7950076,16.7319144 39.0239244,17.8874811 37.7465441,18.130806" id="Fill-24" fill="#40699D"></path>
            </g>
        </g>
    </g>
</svg>