<?xml version="1.0" encoding="UTF-8" standalone="no"?>
<svg width="64px" height="64px" viewBox="0 0 64 64" version="1.1" xmlns="http://www.w3.org/2000/svg" xmlns:xlink="http://www.w3.org/1999/xlink">
    <!-- Generator: Sketch 3.6.1 (26313) - http://www.bohemiancoding.com/sketch -->
    <title>icons/skills/id-337</title>
    <desc>Created with Sketch.</desc>
    <defs></defs>
    <g id="Skills---Develop" stroke="none" stroke-width="1" fill="none" fill-rule="evenodd">
        <g id="icons/skills/id-337">
            <path d="M11.5,34.1 C11.2,33.1 11,32.1 11,31 C11,25.5 15.5,21 21,21 C23.4,21 25.5,21.8 27.2,23.2 C29.9,18.9 34.6,16 40,16 C48.3,16 55,22.7 55,31 C55,32.2 54.8,33.4 54.5,34.6 C58.9,36.1 62,40.2 62,45 C62,51.1 57.1,56 51,56 L13,56 C6.9,56 2,51.1 2,45 C2,39.4 6.1,34.8 11.5,34.1 L11.5,34.1 Z" id="cloud" fill="#E0EEFB"></path>
            <g id="java-logo" transform="translate(22.000000, 23.000000)">
                <path d="M11.4773077,12.8769231 C12.7373077,14.3307692 11.1623077,15.6807692 11.1623077,15.6807692 C11.1623077,15.6807692 14.5223077,14.0192308 12.9473077,11.8384615 C11.4773077,9.86538462 10.4273077,8.82692308 16.3073077,5.4 C16.3073077,5.50384615 7.06730769,7.78846154 11.4773077,12.8769231" id="XMLID_290_" fill="#EA2D2E"></path>
                <path d="M12.9473077,0 C12.9473077,0 15.7823077,2.80384615 10.3223077,7.16538462 C5.91230769,10.5923077 9.27230769,12.5653846 10.3223077,14.85 C7.80230769,12.5653846 5.91230769,10.4884615 7.17230769,8.61923077 C8.95730769,5.81538462 14.1023077,4.46538462 12.9473077,0" id="XMLID_289_" fill="#EA2D2E"></path>
                <path d="M6.64730769,20.8730769 C6.64730769,20.8730769 5.59730769,21.4961538 7.38230769,21.7038462 C9.48230769,21.9115385 10.6373077,21.9115385 12.9473077,21.4961538 C12.9473077,21.4961538 13.5773077,21.9115385 14.4173077,22.2230769 C9.16730769,24.4038462 2.55230769,22.0153846 6.64730769,20.8730769" id="XMLID_288_" fill="#0074BD"></path>
                <path d="M6.01730769,17.9653846 C6.01730769,17.9653846 4.86230769,18.7961538 6.64730769,19.0038462 C8.95730769,19.2115385 10.7423077,19.2115385 13.8923077,18.6923077 C13.8923077,18.6923077 14.3123077,19.1076923 15.0473077,19.4192308 C8.53730769,21.1846154 1.39730769,19.4192308 6.01730769,17.9653846" id="XMLID_287_" fill="#0074BD"></path>
                <path d="M18.5123077,23.0538462 C18.5123077,23.0538462 19.2473077,23.6769231 17.6723077,24.1961538 C14.6273077,25.1307692 4.96730769,25.4423077 2.23730769,24.1961538 C1.29230769,23.7807692 3.07730769,23.1576923 3.60230769,23.0538462 C4.23230769,22.95 4.54730769,22.95 4.54730769,22.95 C3.49730769,22.2230769 -2.38269231,24.4038462 1.60730769,25.0269231 C12.4223077,26.8961538 21.2423077,24.3 18.5123077,23.0538462" id="XMLID_286_" fill="#0074BD"></path>
                <path d="M7.17230769,14.85 C7.17230769,14.85 2.23730769,15.9923077 5.38730769,16.4076923 C6.75230769,16.6153846 9.37730769,16.5115385 11.8973077,16.3038462 C13.8923077,16.0961538 15.9923077,15.7846154 15.9923077,15.7846154 C15.9923077,15.7846154 15.2573077,16.0961538 14.7323077,16.4076923 C9.69230769,17.7576923 0.137307692,17.1346154 2.86730769,15.7846154 C5.28230769,14.7461538 7.17230769,14.85 7.17230769,14.85" id="XMLID_285_" fill="#0074BD"></path>
                <path d="M15.9923077,19.7307692 C21.0323077,17.1346154 18.7223077,14.5384615 17.0423077,14.9538462 C16.6223077,15.0576923 16.4123077,15.1615385 16.4123077,15.1615385 C16.4123077,15.1615385 16.5173077,14.9538462 16.8323077,14.85 C20.0873077,13.7076923 22.6073077,18.1730769 15.7823077,19.9384615 C15.8873077,19.9384615 15.9923077,19.8346154 15.9923077,19.7307692" id="XMLID_284_" fill="#0074BD"></path>
                <path d="M7.69730769,26.8961538 C12.5273077,27.2076923 20.0873077,26.6884615 20.1923077,24.4038462 C20.1923077,24.4038462 19.8773077,25.2346154 16.2023077,25.9615385 C12.0023077,26.7923077 6.96230769,26.6884615 3.91730769,26.1692308 C3.81230769,26.1692308 4.44230769,26.6884615 7.69730769,26.8961538" id="XMLID_282_" fill="#0074BD"></path>
            </g>
        </g>
    </g>
</svg>