<?xml version="1.0" encoding="UTF-8" standalone="no"?>
<svg width="64px" height="64px" viewBox="0 0 64 64" version="1.1" xmlns="http://www.w3.org/2000/svg" xmlns:xlink="http://www.w3.org/1999/xlink">
    <defs></defs>
    <g id="Languages" stroke="none" stroke-width="1" fill="none" fill-rule="evenodd">
        <g id="icons/skills/id-331" fill="#CB6699">
            <path d="M2,28.7119486 C2,29.0478997 2.09892158,29.269637 2.15435589,29.4851618 C2.51563471,30.8867897 3.292193,32.0896188 4.21354955,33.1868359 C5.52581359,34.7504659 7.13293085,36.0092072 8.77923443,37.192921 C10.2071459,38.2194116 11.6642082,39.2229638 13.0978543,40.2418083 C13.3439636,40.4167131 13.5766921,40.6179015 13.8438282,40.8324705 C13.6139669,40.9567198 13.4228141,41.0661548 13.2240152,41.1669879 C11.3320802,42.126575 9.51182758,43.2022875 7.83398378,44.5054717 C6.82278542,45.2911098 5.84503879,46.1259697 5.15449926,47.2169744 C4.04342355,48.9717572 3.65012664,50.8412317 4.47829619,52.8373449 C4.7201045,53.420361 5.08902942,53.9240486 5.60944295,54.2963187 C5.7781353,54.416745 5.96737659,54.5362155 6.16474186,54.5830479 C6.67034105,54.7020406 7.18549787,54.7799353 7.69730952,54.8740781 L9.14672571,54.8731223 C10.749542,54.7302356 12.2085159,54.1811491 13.5269924,53.2712618 C15.5876197,51.8490849 16.975867,49.9423356 17.5727416,47.4951017 C18.0066585,45.7164248 18.0243401,43.9358364 17.5130064,42.1652835 C17.465696,42.000892 17.4059608,41.8398458 17.3438361,41.6807111 C17.2817115,41.5215764 17.2085955,41.3667426 17.1225767,41.1684216 L20.4084936,39.278876 L20.4577154,39.3209296 C20.3979802,39.5163834 20.3344218,39.7113593 20.2804212,39.9087245 C19.8899916,41.3347245 19.6305016,42.7855743 19.7236886,44.265575 C19.8230881,45.8425857 20.2632174,47.3187632 21.1864855,48.636284 C21.9329372,49.7019609 23.7116141,49.7416251 24.5048983,48.6721251 C24.7863708,48.2922089 25.0592414,47.895089 25.2642528,47.4712076 C25.7999586,46.3649107 26.2960001,45.2390207 26.8078118,44.1207767 L26.8971757,43.9162432 C26.8603788,44.4457365 26.8173694,44.9107157 26.7977763,45.3761728 C26.7671918,46.1030314 26.8097233,46.825589 27.058222,47.5170843 C27.2708795,48.1087022 27.6326362,48.5507431 28.3102729,48.6286379 C28.7738184,48.6816828 29.1432212,48.4695032 29.4839511,48.2004556 C30.0163117,47.7803973 30.4487949,47.2614174 30.7699317,46.671711 C31.6783854,45.0034248 32.6112111,43.3451742 33.4346018,41.6348344 C34.3253739,39.7849531 35.1043216,37.8810711 35.9315354,35.9996496 L36.0682097,35.6660879 C36.2636634,36.4340443 36.3998598,37.1862306 36.6507479,37.8982748 C36.9422559,38.7245329 37.3030569,39.5311977 37.6958759,40.3154021 C37.881772,40.6857607 37.8602673,40.9261354 37.6026889,41.2367587 C36.524587,42.5365978 35.4651226,43.852207 34.4047024,45.1663826 C34.1700623,45.456457 33.936378,45.7517881 33.7409242,46.0686239 C33.6228874,46.2612103 33.5445147,46.4958504 33.5115409,46.7204549 C33.4479825,47.149593 33.7132071,47.5634388 34.1724517,47.6623604 C34.5920321,47.7526801 35.0388518,47.7861319 35.4665562,47.7545916 C36.9465569,47.6456345 38.2903611,47.1261768 39.4783758,46.2459181 C41.0176338,45.1056916 41.5117639,43.5497077 41.1390159,41.705561 C41.0381828,41.2052185 40.8599328,40.7187346 40.6864616,40.2365516 C40.6085668,40.0191153 40.6033101,39.8666709 40.7452411,39.6640489 C41.9757873,37.9068767 43.0271278,36.0426589 44.0048744,34.1354318 C44.0435828,34.0604043 44.083247,33.9853768 44.1511063,33.9050926 C44.4679421,35.5537856 44.9448683,37.1427434 45.7993214,38.5845134 C45.363493,39.0045717 44.9319655,39.3854437 44.5415359,39.8050241 C43.6818261,40.729248 42.9363302,41.7328002 42.5473342,42.9566561 C42.3800755,43.4842379 42.2515252,44.0204215 42.3260748,44.5838444 C42.4417223,45.4588464 43.1585453,46.027526 44.0192109,45.8282492 C45.8609682,45.4019784 47.4508817,44.5341447 48.6126129,42.9967982 C49.3944279,41.9617057 49.4656323,40.8071427 49.1382831,39.5976233 C49.0484413,39.2688405 48.9418736,38.9453144 48.8271819,38.5682654 C49.2816477,38.4272902 49.7246444,38.25812 50.1829332,38.1534638 C52.5623079,37.6105899 54.9158768,37.7052105 57.2087548,38.5644424 C58.5473024,39.0662185 59.6287494,39.9058572 60.2700671,41.2267232 C61.0533157,42.8414865 60.6203546,44.3735763 59.0983003,45.3943323 C58.9563694,45.4894308 58.7938895,45.5644583 58.6763305,45.6834509 C58.6041703,45.7565669 58.5606831,45.9027988 58.5783647,46.0036319 C58.5884002,46.0624114 58.7437119,46.1360052 58.8330758,46.1350495 C59.3334183,46.1312264 59.7391401,45.8688692 60.128614,45.5993437 C61.1044491,44.9240964 61.8164933,44.0156427 61.9698934,42.819504 L62,42.7296621 L61.9632031,41.9507144 C61.9483887,41.9057935 61.9741944,41.8613505 61.9708492,41.8274209 C61.7634484,40.0855409 60.8330121,38.7345684 59.4796502,37.6755818 C57.9121971,36.4498144 56.0613601,35.945171 54.1039553,35.8653647 C52.5087851,35.8003727 50.9408541,36.0374022 49.4374373,36.5836214 C49.0087771,36.738933 48.58394,36.9229176 48.1528904,37.0963888 C48.0950667,36.9917326 48.032942,36.8913774 47.9818086,36.787677 C47.5392899,35.8816127 47.0031062,35.0156905 46.8845915,33.9767749 C46.8004843,33.2389251 46.6972617,32.502031 46.8726444,31.7723051 C47.0413368,31.0702964 47.2611625,30.3802348 47.4680854,29.6877837 C47.5746531,29.3312838 47.4996257,29.1315291 47.1593737,28.9709607 C47.0408589,28.9150485 46.9118308,28.8663045 46.7837584,28.8476671 C45.9474648,28.7262851 45.1226405,28.795578 44.3126304,29.0311738 C44.0259012,29.1148032 43.8175446,29.2753716 43.7539863,29.5926852 C43.7176673,29.7747583 43.6435956,29.9491852 43.5919843,30.1288689 C43.3802826,30.8757985 43.2302276,31.6370645 42.8880641,32.3486309 C42.0307437,34.1335202 41.0520414,35.8510282 40.0504006,37.5561113 C39.9419214,37.7400959 39.8277076,37.9207353 39.6910333,38.1439062 C39.3393122,37.4079679 38.9641748,36.7475349 38.8504389,35.973366 C38.7218886,35.0978862 38.6205776,34.2238399 38.8384918,33.3550504 C39.0004938,32.7070424 39.2121955,32.0709814 39.4071714,31.4315753 C39.4994026,31.1276423 39.4568711,30.9680297 39.1816111,30.8079392 C39.0425474,30.7271772 38.8853242,30.6554948 38.7285789,30.6320786 C37.8612231,30.5035284 37.00677,30.5709097 36.1699986,30.841391 C35.9105086,30.9254982 35.7743122,31.0932348 35.6949838,31.3608487 C35.4617774,32.1503098 35.2629785,32.9588862 34.9356293,33.7096389 C33.6099845,36.7489686 32.2461092,39.7725282 30.8836676,42.7956099 C30.5993278,43.426892 30.266244,44.0361916 29.9455852,44.6507479 C29.8643452,44.8065374 29.7458305,44.9436896 29.6445195,45.0899215 C29.5632795,44.9938672 29.5317393,44.9279195 29.5322172,44.8619717 C29.5346066,44.4734537 29.4882521,44.0734664 29.5623238,43.6978511 C29.7864505,42.5614477 30.0445067,41.4312567 30.3164216,40.3053666 C30.5410262,39.3754082 30.8024276,38.4540516 31.0514042,37.5303057 C31.1350335,37.221116 31.1364672,36.9319974 30.914252,36.6720296 C30.5410262,36.236679 29.7611227,36.1411026 29.2985329,36.4765758 L29.0939994,36.5922233 L29.1336636,36.2624847 C29.2311515,35.5556972 29.2507447,34.851299 29.0567246,34.1550249 C28.8149163,33.2871912 28.1955812,32.7878045 27.2952514,32.8155216 C26.875671,32.8284244 26.4350638,32.9001067 26.0465457,33.053029 C24.4126671,33.6933909 23.1563152,34.8274049 22.0868152,36.1917581 C21.9898052,36.3155296 21.8617328,36.4283097 21.7250585,36.504293 C20.3425458,37.2708157 18.9557322,38.0277809 17.5693964,38.7876133 L16.0263154,39.6329866 C15.6124695,39.238256 15.2363764,38.8287112 14.8096277,38.4812909 C13.5064434,37.4184813 12.1822323,36.3819552 10.8699683,35.3310926 C9.70680345,34.3997005 8.57995763,33.4296 7.71785845,32.1961865 C7.07654077,31.278653 6.66317282,30.2746229 6.62350861,29.1401309 C6.573331,27.6945378 6.98335378,26.3736719 7.7192921,25.1440814 C8.66071969,23.5708938 9.9447887,22.3083295 11.3564522,21.1647578 C12.8498335,19.9557163 14.4650748,18.9292257 16.1390955,17.992099 C18.4811953,16.6812686 20.8901986,15.5209711 23.473151,14.7549262 C26.1215732,13.9692881 28.8087038,13.5196011 31.5804196,13.8330917 C32.6699906,13.9563853 33.7280214,14.2058397 34.6995556,14.7386782 C35.4436179,15.1463115 36.0538732,15.6801058 36.3377352,16.5144878 C36.617774,17.3354891 36.6091721,18.1674817 36.415152,19.0013859 C36.0208994,20.6902209 35.0961977,22.0822913 33.9325549,23.3262182 C32.0238941,25.3653408 29.6956529,26.7535881 27.0744699,27.6706437 C25.5619733,28.1996591 24.0059895,28.5317871 22.407952,28.666072 C21.1038119,28.775507 19.8269111,28.6598595 18.592064,28.2063495 C17.7744078,27.9057617 17.0623636,27.4460392 16.4898609,26.7789158 C16.3875942,26.6594453 16.2566545,26.5299393 16.0659796,26.6417637 C15.8791277,26.7516766 15.8461538,26.9294487 15.9087564,27.1096102 C16.0134126,27.4087644 16.1099447,27.7203434 16.2729025,27.9879574 C16.6824474,28.6593816 17.2797999,29.1463434 17.9373656,29.5640123 C19.2004078,30.367332 20.6120713,30.6373353 22.0758239,30.6999379 C24.2970196,30.7959922 26.4642146,30.464342 28.6008251,29.8684231 C31.6511461,29.0177931 34.3033914,27.515332 36.4304443,25.1450372 C38.2014751,23.1713844 39.4664288,20.9439763 39.7373879,18.2544562 C39.8697612,16.9417143 39.728786,15.6557338 39.1142297,14.4581614 C38.4475843,13.1607117 37.387642,12.1958679 36.1202988,11.531134 C34.2747184,10.5634229 32.2829062,10 30.2270577,10 L28.1673861,10 C25.6776208,10 23.270529,10.7134779 20.9308186,11.5645858 C19.1597878,12.2092486 17.4231645,12.9700368 15.7371967,13.8120649 C12.0656291,15.646654 8.64638323,17.8587699 5.83787056,20.900489 C4.43863198,22.4158529 3.25396244,24.0879622 2.57250267,26.0568361 C2.37322586,26.6331618 2.18398458,27.2510633 2.04157574,27.8469822 L2,28.7119486 Z M15.3453335,45.0569476 C15.1861988,47.1878236 14.2203992,48.9153671 12.6419549,50.3146057 C11.7540501,51.1011995 10.7356835,51.6612772 9.54958026,51.8581646 C9.11948644,51.929369 8.67935709,51.9465728 8.26216608,51.7683228 C7.66720296,51.5140896 7.53387387,50.9860299 7.5224047,50.4235628 C7.50472307,49.5270561 7.81869156,48.7165682 8.24926327,47.9452666 C8.81125253,46.9398028 9.63512114,46.17328 10.514902,45.4574127 C11.9007598,44.3291333 13.4041767,43.374325 14.9439126,42.4730395 L15.0600379,42.4252513 C15.2980232,43.3045542 15.4112812,44.1728659 15.3453335,45.0569476 L15.3453335,45.0569476 Z M27.3678895,35.7960718 C27.2555872,36.4765758 27.1150899,37.1575577 26.916291,37.8170349 C26.2290966,40.0998773 25.3464485,42.3119932 24.3921181,44.4944805 C24.2157797,44.8982908 23.959157,45.2667378 23.7359861,45.6495213 C23.7015786,45.7087787 23.6504452,45.7599121 23.6007455,45.8091339 C23.3245297,46.0820046 23.0626503,46.0676681 22.9231088,45.7106902 C22.7606289,45.2958886 22.6607515,44.8519362 22.5747328,44.4127626 C22.5169091,44.1179094 22.5307676,43.8082419 22.5126081,43.5062204 C22.5312455,41.3586186 23.1864218,39.4069484 24.2979754,37.5900409 C24.7562642,36.8407219 25.2551731,36.1267662 26.0173949,35.6527072 C26.2515571,35.5069532 26.5143922,35.3898721 26.7796167,35.3153225 C27.1858165,35.2011087 27.4352709,35.3889163 27.3678895,35.7960718 L27.3678895,35.7960718 Z M35.5702566,46.246396 L38.5183108,42.8042117 C38.6411265,44.0825462 36.468197,46.6344362 35.5702566,46.246396 L35.5702566,46.246396 Z M44.9859662,43.9301018 C44.7776096,44.0495723 44.5506157,44.1355911 44.3370024,44.2459818 C44.1415487,44.3472928 44.0770346,44.245026 44.0713,44.0768116 C44.0674769,43.9625978 44.0842028,43.8431273 44.115743,43.7322586 C44.5138188,42.3282412 45.2464119,41.1297131 46.3364608,40.1548338 L46.4129219,40.1156475 C46.9314239,41.5660194 46.3321599,43.1588002 44.9859662,43.9301018 L44.9859662,43.9301018 Z" id="Shape"></path>
        </g>
    </g>
</svg>