<?xml version="1.0" encoding="UTF-8" standalone="no"?>
<svg width="64px" height="64px" viewBox="0 0 64 64" version="1.1" xmlns="http://www.w3.org/2000/svg" xmlns:xlink="http://www.w3.org/1999/xlink">
    <defs></defs>
    <g id="Frameworks" stroke="none" stroke-width="1" fill="none" fill-rule="evenodd">
        <g id="icons/skills/id-315" fill="#61DAFB">
            <g id="Group" transform="translate(2.000000, 5.000000)">
                <circle id="Oval" cx="30" cy="26.6666667" r="5.42857143"></circle>
                <path d="M50.6190476,17.7142857 C49.5714286,17.3333333 48.4761905,16.952381 47.3333333,16.6190476 C47.6190476,15.4761905 47.8571429,14.3333333 48.047619,13.2380952 C49.047619,6.95238095 47.952381,2.52380952 44.9047619,0.80952381 C44,0.285714286 43,0.0476190476 41.8571429,0.0476190476 C38.5238095,0.0476190476 34.2857143,2.52380952 30,6.66666667 C25.7142857,2.52380952 21.4761905,0.0476190476 18.1428571,0.0476190476 C17,0.0476190476 16,0.285714286 15.0952381,0.80952381 C12.047619,2.57142857 10.952381,7 11.952381,13.2380952 C12.1428571,14.3333333 12.3809524,15.4761905 12.6666667,16.6190476 C11.5238095,16.952381 10.4285714,17.2857143 9.38095238,17.7142857 C3.42857143,20 0.19047619,23.1428571 0.19047619,26.6666667 C0.19047619,30.1904762 3.47619048,33.3333333 9.38095238,35.6190476 C10.4285714,36 11.5238095,36.3809524 12.6666667,36.7142857 C12.3809524,37.8571429 12.1428571,39 11.952381,40.0952381 C10.952381,46.3809524 12.047619,50.8095238 15.0952381,52.5238095 C16,53.047619 17,53.2857143 18.1428571,53.2857143 C21.5238095,53.2857143 25.7619048,50.8095238 30,46.6666667 C34.2857143,50.8095238 38.5238095,53.2857143 41.8571429,53.2857143 C43,53.2857143 44,53.047619 44.9047619,52.5238095 C47.952381,50.7619048 49.047619,46.3333333 48.047619,40.0952381 C47.8571429,39 47.6190476,37.8571429 47.3333333,36.7142857 C48.4761905,36.3809524 49.5714286,36.047619 50.6190476,35.6190476 C56.5714286,33.3333333 59.8095238,30.1904762 59.8095238,26.6666667 C59.8095238,23.1428571 56.5714286,20 50.6190476,17.7142857 L50.6190476,17.7142857 Z M43.5714286,3.19047619 C45.5238095,4.33333333 46.1904762,7.85714286 45.3809524,12.8571429 C45.2380952,13.8571429 45,14.9047619 44.7142857,16 C42.2380952,15.4285714 39.6190476,15.047619 36.8571429,14.8095238 C35.2380952,12.5238095 33.5714286,10.4761905 31.9047619,8.61904762 C35.4285714,5.14285714 39,2.76190476 41.9047619,2.76190476 C42.5238095,2.76190476 43.0952381,2.9047619 43.5714286,3.19047619 L43.5714286,3.19047619 Z M38.2380952,31.4285714 C37.3809524,32.952381 36.3809524,34.4761905 35.3333333,36 C33.5714286,36.1428571 31.8095238,36.1904762 30,36.1904762 C28.1428571,36.1904762 26.3809524,36.1428571 24.6666667,36 C23.6190476,34.4761905 22.6666667,32.952381 21.8095238,31.4285714 C20.9047619,29.8571429 20.047619,28.2380952 19.2857143,26.6666667 C20.047619,25.0952381 20.9047619,23.4761905 21.8095238,21.9047619 C22.6666667,20.3809524 23.6666667,18.8571429 24.7142857,17.3333333 C26.4761905,17.1904762 28.2380952,17.1428571 30.047619,17.1428571 C31.9047619,17.1428571 33.6666667,17.1904762 35.3809524,17.3333333 C36.4285714,18.8571429 37.3809524,20.3809524 38.2380952,21.9047619 C39.1428571,23.4761905 40,25.0952381 40.7619048,26.6666667 C39.952381,28.2380952 39.1428571,29.8095238 38.2380952,31.4285714 L38.2380952,31.4285714 Z M42.1904762,29.8571429 C42.9047619,31.5238095 43.4761905,33.1428571 44,34.7619048 C42.3809524,35.1428571 40.6666667,35.4285714 38.8571429,35.6666667 C39.4285714,34.7619048 40.047619,33.8095238 40.5714286,32.8095238 C41.1428571,31.8095238 41.6666667,30.8095238 42.1904762,29.8571429 L42.1904762,29.8571429 Z M30,42.7619048 C28.8571429,41.5238095 27.7619048,40.1904762 26.7142857,38.8095238 C27.8095238,38.8571429 28.9047619,38.9047619 30,38.9047619 C31.0952381,38.9047619 32.1904762,38.8571429 33.2857143,38.8095238 C32.2380952,40.1904762 31.1428571,41.5238095 30,42.7619048 L30,42.7619048 Z M21.1428571,35.6190476 C19.3333333,35.3809524 17.6190476,35.0952381 16,34.7142857 C16.5238095,33.1428571 17.0952381,31.4761905 17.8095238,29.8095238 C18.3333333,30.7619048 18.8571429,31.7619048 19.4285714,32.7142857 C20,33.7619048 20.5714286,34.6666667 21.1428571,35.6190476 L21.1428571,35.6190476 Z M17.8095238,23.4761905 C17.0952381,21.8095238 16.5238095,20.1904762 16,18.5714286 C17.6190476,18.1904762 19.3333333,17.9047619 21.1428571,17.6666667 C20.5714286,18.5714286 19.952381,19.5238095 19.4285714,20.5238095 C18.8571429,21.5238095 18.3333333,22.5238095 17.8095238,23.4761905 L17.8095238,23.4761905 Z M30,10.5714286 C31.1428571,11.8095238 32.2380952,13.1428571 33.2857143,14.5238095 C32.1904762,14.4761905 31.0952381,14.4285714 30,14.4285714 C28.9047619,14.4285714 27.8095238,14.4761905 26.7142857,14.5238095 C27.7619048,13.1428571 28.8571429,11.8095238 30,10.5714286 L30,10.5714286 Z M40.5714286,20.5714286 L38.8571429,17.7142857 C40.6666667,17.952381 42.3809524,18.2380952 44,18.6190476 C43.4761905,20.1904762 42.9047619,21.8571429 42.1904762,23.5238095 C41.6666667,22.5238095 41.1428571,21.5238095 40.5714286,20.5714286 L40.5714286,20.5714286 Z M14.6190476,12.8571429 C13.8095238,7.85714286 14.4761905,4.33333333 16.4285714,3.19047619 C16.9047619,2.9047619 17.4761905,2.76190476 18.0952381,2.76190476 C20.952381,2.76190476 24.5238095,5.0952381 28.0952381,8.61904762 C26.4285714,10.4285714 24.7619048,12.5238095 23.1428571,14.8095238 C20.3809524,15.047619 17.7619048,15.4761905 15.2857143,16 C15,14.9047619 14.8095238,13.8571429 14.6190476,12.8571429 L14.6190476,12.8571429 Z M2.85714286,26.6666667 C2.85714286,24.4285714 5.57142857,22.047619 10.3333333,20.2857143 C11.2857143,19.9047619 12.3333333,19.5714286 13.3809524,19.2857143 C14.1428571,21.6666667 15.0952381,24.1904762 16.2380952,26.7142857 C15.0952381,29.2380952 14.0952381,31.7142857 13.3809524,34.0952381 C6.80952381,32.1904762 2.85714286,29.3333333 2.85714286,26.6666667 L2.85714286,26.6666667 Z M16.4285714,50.1428571 C14.4761905,49 13.8095238,45.4761905 14.6190476,40.4761905 C14.7619048,39.4761905 15,38.4285714 15.2857143,37.3333333 C17.7619048,37.9047619 20.3809524,38.2857143 23.1428571,38.5238095 C24.7619048,40.8095238 26.4285714,42.8571429 28.0952381,44.7142857 C24.5714286,48.1904762 21,50.5714286 18.0952381,50.5714286 C17.4761905,50.5714286 16.9047619,50.4285714 16.4285714,50.1428571 L16.4285714,50.1428571 Z M45.3809524,40.4761905 C46.1904762,45.4761905 45.5238095,49 43.5714286,50.1428571 C43.0952381,50.4285714 42.5238095,50.5714286 41.9047619,50.5714286 C39.047619,50.5714286 35.4761905,48.2380952 31.9047619,44.7142857 C33.5714286,42.9047619 35.2380952,40.8095238 36.8571429,38.5238095 C39.6190476,38.2857143 42.2380952,37.8571429 44.7142857,37.3333333 C45,38.4285714 45.1904762,39.4761905 45.3809524,40.4761905 L45.3809524,40.4761905 Z M49.6666667,33.047619 C48.7142857,33.4285714 47.6666667,33.7619048 46.6190476,34.047619 C45.8571429,31.6666667 44.9047619,29.1428571 43.7619048,26.6190476 C44.9047619,24.0952381 45.9047619,21.6190476 46.6190476,19.2380952 C53.1904762,21.1428571 57.1428571,24 57.1428571,26.6666667 C57.1428571,28.9047619 54.3809524,31.2857143 49.6666667,33.047619 L49.6666667,33.047619 Z" id="Shape"></path>
            </g>
        </g>
    </g>
</svg>