<?xml version="1.0" encoding="UTF-8" standalone="no"?>
<svg width="64px" height="64px" viewBox="0 0 64 64" version="1.1" xmlns="http://www.w3.org/2000/svg" xmlns:xlink="http://www.w3.org/1999/xlink">
    <defs></defs>
    <g id="Skills---Design" stroke="none" stroke-width="1" fill="none" fill-rule="evenodd">
        <g id="icons/skills/id-388">
            <g id="Group" transform="translate(8.000000, 14.000000)">
                <g>
                    <rect id="Rectangle-path" fill="#282828" x="20" y="26" width="8" height="9"></rect>
                    <rect id="Rectangle-path" fill="#444444" x="10" y="34" width="28" height="2"></rect>
                    <path d="M46.9564972,0 L1.0434966,0 C0.4672967,0 0,0.4478045 0,1 L0,28 C0,28.5522041 0.4672967,29 1.0434966,29 L46.9564986,29 C47.5326958,29 48,28.5522041 48,28 L48,1 C48,0.4478045 47.5326958,0 46.9564972,0 L46.9564972,0 Z" id="Shape" fill="#444444"></path>
                    <rect id="Rectangle-path" fill="#D1D3D4" x="2" y="2" width="44" height="25"></rect>
                </g>
                <rect id="Rectangle-6" fill="#666666" x="5" y="3" width="38" height="3"></rect>
                <rect id="Rectangle-7" fill="#F6F6F6" x="5" y="6" width="38" height="21"></rect>
                <rect id="Rectangle-8" fill="#FC625D" x="6" y="4" width="1" height="1"></rect>
                <rect id="Rectangle-8" fill="#FEC041" x="8" y="4" width="1" height="1"></rect>
                <rect id="Rectangle-8" fill="#34C84A" x="10" y="4" width="1" height="1"></rect>
                <rect id="Rectangle-11" fill="#85CCFF" x="7" y="8" width="34" height="8"></rect>
                <rect id="Rectangle-12" fill="#666666" x="7" y="18" width="16" height="2"></rect>
                <rect id="Rectangle-12" fill="#666666" x="25" y="18" width="16" height="2"></rect>
                <rect id="Rectangle-13" fill="#D1D3D4" x="7" y="21" width="12" height="1"></rect>
                <rect id="Rectangle-13" fill="#D1D3D4" x="7" y="25" width="12" height="1"></rect>
                <rect id="Rectangle-13" fill="#D1D3D4" x="25" y="21" width="12" height="1"></rect>
                <rect id="Rectangle-13" fill="#D1D3D4" x="25" y="25" width="12" height="1"></rect>
                <rect id="Rectangle-13" fill="#D1D3D4" x="7" y="23" width="16" height="1"></rect>
                <rect id="Rectangle-13" fill="#D1D3D4" x="25" y="23" width="16" height="1"></rect>
                <path d="M7,11.5 L13.5,13.5 L23.5,10.5 L32.5,11.5 L41,9.5 L41,16 L7,16 L7,11.5 Z" id="Path-110" fill="#097DCE"></path>
            </g>
        </g>
    </g>
</svg>