<?xml version="1.0" encoding="UTF-8" standalone="no"?>
<svg width="64px" height="64px" viewBox="0 0 64 64" version="1.1" xmlns="http://www.w3.org/2000/svg" xmlns:xlink="http://www.w3.org/1999/xlink">
    <defs>
        <linearGradient x1="-3.26612863%" y1="3.84616971%" x2="71.3197234%" y2="67.9629715%" id="linearGradient-1">
            <stop stop-color="#5A9FD4" offset="0%"></stop>
            <stop stop-color="#306998" offset="100%"></stop>
        </linearGradient>
        <linearGradient x1="65.1442416%" y1="71.7284164%" x2="38.564777%" y2="34.3655473%" id="linearGradient-2">
            <stop stop-color="#FFD43B" offset="0%"></stop>
            <stop stop-color="#FFE873" offset="100%"></stop>
        </linearGradient>
        <radialGradient cx="49.7986643%" cy="48.5722746%" fx="49.7986643%" fy="48.5722746%" r="40.4076576%" id="radialGradient-3">
            <stop stop-color="#B8B8B8" stop-opacity="0.498" offset="0%"></stop>
            <stop stop-color="#7F7F7F" stop-opacity="0" offset="100%"></stop>
        </radialGradient>
    </defs>
    <g id="Languages" stroke="none" stroke-width="1" fill="none" fill-rule="evenodd">
        <g id="icons/skills/id-311">
            <g id="python-original" transform="translate(7.000000, 2.000000)">
                <path d="M24.4719048,0.47047619 C22.4614286,0.48 20.542381,0.650952381 18.8528571,0.95 C13.8766667,1.82904762 12.9738095,3.66904762 12.9738095,7.06285714 L12.9738095,11.5442857 L24.732381,11.5442857 L24.732381,13.0380952 L8.56047619,13.0380952 C5.14333333,13.0380952 2.15095238,15.0919048 1.2147619,19.0004762 C0.134761905,23.4790476 0.0871428571,26.2742857 1.2147619,30.9509524 C2.05047619,34.432381 4.04666667,36.912381 7.46428571,36.912381 L11.507619,36.912381 L11.507619,31.54 C11.507619,27.6585714 14.8652381,24.2352381 18.8533333,24.2352381 L30.5985714,24.2352381 C33.8680952,24.2352381 36.477619,21.5428571 36.477619,18.26 L36.477619,7.06333333 C36.477619,3.87619048 33.7890476,1.48238095 30.5985714,0.95047619 C28.577619,0.614285714 26.4819048,0.461428571 24.4719048,0.47047619 L24.4719048,0.47047619 Z M18.1128571,4.0747619 C19.3271429,4.0747619 20.3195238,5.08285714 20.3195238,6.32285714 C20.3195238,7.55761905 19.327619,8.55619048 18.1128571,8.55619048 C16.8938095,8.55619048 15.9066667,7.55761905 15.9066667,6.32285714 C15.9061905,5.08285714 16.8938095,4.0747619 18.1128571,4.0747619 L18.1128571,4.0747619 Z" id="Shape" fill="url(#linearGradient-1)"></path>
                <path d="M37.9438095,13.0380952 L37.9438095,18.26 C37.9438095,22.307619 34.5114286,25.7147619 30.5980952,25.7147619 L18.8528571,25.7147619 C15.6357143,25.7147619 12.9738095,28.4685714 12.9738095,31.6904762 L12.9738095,42.8880952 C12.9738095,46.0742857 15.7442857,47.9490476 18.8528571,48.8628571 C22.5747619,49.9566667 26.1442857,50.1547619 30.5980952,48.8628571 C33.5580952,48.0052381 36.4771429,46.2804762 36.4771429,42.8880952 L36.4771429,38.4061905 L24.732381,38.4061905 L24.732381,36.9119048 L42.3571429,36.9119048 C45.7742857,36.9119048 47.0485714,34.5285714 48.2371429,30.9504762 C49.4647619,27.2671429 49.4119048,23.7247619 48.2371429,19 C47.392381,15.597619 45.7795238,13.037619 42.3571429,13.037619 L37.9438095,13.037619 L37.9438095,13.0380952 Z M31.337619,41.3938095 C32.5571429,41.3938095 33.5442857,42.392381 33.5442857,43.6280952 C33.5442857,44.8671429 32.5566667,45.8752381 31.337619,45.8752381 C30.1233333,45.8752381 29.1314286,44.8671429 29.1314286,43.6280952 C29.1314286,42.392381 30.1233333,41.3938095 31.337619,41.3938095 L31.337619,41.3938095 Z" id="Shape" fill="url(#linearGradient-2)"></path>
                <path d="M40.6233333,56.4747619 C40.6233333,58.1619048 33.5680952,59.53 24.8657143,59.53 C16.1628571,59.53 9.10761905,58.1619048 9.10761905,56.4747619 C9.10761905,54.7871429 16.162381,53.4190476 24.8657143,53.4190476 C33.5680952,53.4190476 40.6233333,54.7866667 40.6233333,56.4747619 L40.6233333,56.4747619 Z" id="Shape" opacity="0.444" fill="url(#radialGradient-3)"></path>
            </g>
        </g>
    </g>
</svg>