<?xml version="1.0" encoding="UTF-8" standalone="no"?>
<svg width="64px" height="64px" viewBox="0 0 64 64" version="1.1" xmlns="http://www.w3.org/2000/svg" xmlns:xlink="http://www.w3.org/1999/xlink">
    <!-- Generator: Sketch 3.6.1 (26313) - http://www.bohemiancoding.com/sketch -->
    <title>icons/skills/id-361</title>
    <desc>Created with Sketch.</desc>
    <defs></defs>
    <g id="Skills---Develop" stroke="none" stroke-width="1" fill="none" fill-rule="evenodd">
        <g id="icons/skills/id-361">
            <path d="M55,59 L13,59 C10.8,59 9,57.2 9,55 L9,13 C9,10.8 10.8,9 13,9 L55,9 C57.2,9 59,10.8 59,13 L59,55 C59,57.2 57.2,59 55,59 L55,59 Z" id="XMLID_272_" fill="#83A26E"></path>
            <path d="M51,55 L9,55 C6.8,55 5,53.2 5,51 L5,9 C5,6.8 6.8,5 9,5 L51,5 C53.2,5 55,6.8 55,9 L55,51 C55,53.2 53.2,55 51,55 L51,55 Z" id="XMLID_270_" fill="#B5E389"></path>
            <rect id="XMLID_266_" stroke="#058D4B" stroke-width="2" fill="#FFFFFF" x="9" y="21" width="14" height="18"></rect>
            <rect id="XMLID_265_" stroke="#058D4B" stroke-width="2" fill="#FFFFFF" x="23" y="21" width="14" height="18"></rect>
            <rect id="XMLID_264_" stroke="#058D4B" stroke-width="2" fill="#B5E389" x="37" y="21" width="14" height="18"></rect>
            <path d="M18.6,31.7 C18.6,32.4 18.3,33 17.8,33.4 C17.3,33.8 16.6,34 15.7,34 C14.9,34 14.1,33.8 13.5,33.5 L13.5,32 C14,32.2 14.5,32.4 14.8,32.5 C15.2,32.6 15.5,32.6 15.8,32.6 C16.2,32.6 16.4,32.5 16.6,32.4 C16.8,32.3 16.9,32.1 16.9,31.8 C16.9,31.6 16.9,31.5 16.8,31.4 C16.7,31.3 16.6,31.2 16.4,31.1 C16.2,31 15.9,30.8 15.4,30.6 C14.9,30.4 14.6,30.2 14.3,29.9 C14,29.6 13.9,29.5 13.7,29.2 C13.6,28.9 13.5,28.6 13.5,28.2 C13.5,27.5 13.7,27 14.2,26.6 C14.7,26.2 15.3,26 16.2,26 C16.6,26 17,26 17.4,26.1 C17.8,26.2 18.2,26.3 18.6,26.5 L18,27.8 C17.6,27.6 17.2,27.5 17,27.4 C16.7,27.3 16.5,27.3 16.2,27.3 C15.9,27.3 15.6,27.4 15.5,27.5 C15.3,27.6 15.2,27.8 15.2,28.1 C15.2,28.2 15.2,28.4 15.3,28.5 C15.4,28.6 15.5,28.7 15.6,28.8 C15.7,28.9 16.1,29.1 16.7,29.4 C17.4,29.8 17.9,30.1 18.2,30.5 C18.4,30.8 18.6,31.2 18.6,31.7 L18.6,31.7 Z" id="XMLID_261_" fill="#058D4B"></path>
            <path d="M30.8,33.9 L29.1,33.9 L29.1,27.4 L27,27.4 L27,26 L33,26 L33,27.4 L30.9,27.4 L30.9,33.9 L30.8,33.9 Z" id="XMLID_258_" fill="#058D4B"></path>
            <path d="M42.7,30.9 L42.7,33.9 L41,33.9 L41,26 L43.3,26 C44.4,26 45.2,26.2 45.7,26.6 C46.2,27 46.5,27.6 46.5,28.4 C46.5,28.9 46.4,29.3 46.1,29.6 C45.8,30 45.5,30.2 45,30.4 C46.2,32.2 47,33.3 47.3,33.8 L45.5,33.8 L43.6,30.8 L42.7,30.8 L42.7,30.9 Z M42.7,29.6 L43.2,29.6 C43.7,29.6 44.1,29.5 44.4,29.3 C44.7,29.1 44.8,28.8 44.8,28.5 C44.8,28.1 44.7,27.9 44.4,27.7 C44.1,27.5 43.7,27.5 43.2,27.5 L42.7,27.5 L42.7,29.6 L42.7,29.6 Z" id="XMLID_251_" fill="#058D4B"></path>
            <path d="M38,18 L38,41 L42,45 L32,45 L36,41 L36,18 L32,14 L42,14 L38,18 L38,18 Z" id="XMLID_70_" fill="#EF5350"></path>
        </g>
    </g>
</svg>