<?xml version="1.0" encoding="UTF-8" standalone="no"?>
<svg width="64px" height="64px" viewBox="0 0 64 64" version="1.1" xmlns="http://www.w3.org/2000/svg" xmlns:xlink="http://www.w3.org/1999/xlink">
    <defs>
        <radialGradient cx="38.4590345%" cy="34.6128806%" fx="38.4590345%" fy="34.6128806%" r="86.7774404%" id="radialGradient-1">
            <stop stop-color="#49D1F9" offset="0%"></stop>
            <stop stop-color="#49D1F9" stop-opacity="0.2" offset="100%"></stop>
        </radialGradient>
        <rect id="path-2" x="3" y="3" width="52" height="52"></rect>
    </defs>
    <g id="Tools" stroke="none" stroke-width="1" fill="none" fill-rule="evenodd">
        <g id="icons/skills/id-302">
            <g id="Rectangle-83-+-Rectangle-84-+-Ps" transform="translate(3.000000, 3.000000)">
                <rect id="Rectangle-83" fill="#47D0F9" x="0" y="0" width="58" height="58"></rect>
                <g id="Rectangle-84">
                    <use fill="#000000" xlink:href="#path-2"></use>
                    <use fill-opacity="0.300000012" fill="url(#radialGradient-1)" xlink:href="#path-2"></use>
                </g>
                <path d="M16.685,19.38 L23.285,19.38 C24.3650054,19.38 25.3599955,19.479999 26.27,19.68 C27.1800046,19.880001 27.9649967,20.2199976 28.625,20.7 C29.2850033,21.1800024 29.8049981,21.8049962 30.185,22.575 C30.5650019,23.3450039 30.755,24.2999943 30.755,25.44 C30.755,26.5200054 30.5650019,27.459996 30.185,28.26 C29.8049981,29.060004 29.2800034,29.7249974 28.61,30.255 C27.9399967,30.7850027 27.1500046,31.1749987 26.24,31.425 C25.3299955,31.6750012 24.3450053,31.8 23.285,31.8 L20.165,31.8 L20.165,39 L16.685,39 L16.685,19.38 Z M23.015,29.01 C25.8950144,29.01 27.335,27.8200119 27.335,25.44 C27.335,24.1999938 26.9750036,23.3450024 26.255,22.875 C25.5349964,22.4049976 24.4550072,22.17 23.015,22.17 L20.165,22.17 L20.165,29.01 L23.015,29.01 Z M33.215,35.1 C33.8750033,35.6200026 34.5299967,36.0249986 35.18,36.315 C35.8300032,36.6050014 36.5349962,36.75 37.295,36.75 C38.095004,36.75 38.6849981,36.5850016 39.065,36.255 C39.4450019,35.9249984 39.635,35.5000026 39.635,34.98 C39.635,34.6799985 39.5450009,34.4150012 39.365,34.185 C39.1849991,33.9549988 38.9450015,33.7500009 38.645,33.57 C38.3449985,33.3899991 38.0050019,33.2250007 37.625,33.075 C37.2449981,32.9249992 36.8650019,32.7700008 36.485,32.61 C36.0049976,32.4299991 35.5150025,32.2200012 35.015,31.98 C34.5149975,31.7399988 34.0700019,31.4500017 33.68,31.11 C33.289998,30.7699983 32.9700012,30.3750023 32.72,29.925 C32.4699987,29.4749977 32.345,28.9400031 32.345,28.32 C32.345,27.0199935 32.8249952,25.9600041 33.785,25.14 C34.7450048,24.3199959 36.0549917,23.91 37.715,23.91 C38.7350051,23.91 39.6549959,24.0899982 40.475,24.45 C41.2950041,24.8100018 42.004997,25.2199977 42.605,25.68 L41.015,27.78 C40.4949974,27.3999981 39.9700026,27.0950012 39.44,26.865 C38.9099973,26.6349988 38.3550029,26.52 37.775,26.52 C37.0349963,26.52 36.4900017,26.6749984 36.14,26.985 C35.7899982,27.2950015 35.615,27.6799977 35.615,28.14 C35.615,28.4400015 35.6999991,28.694999 35.87,28.905 C36.0400008,29.115001 36.2649986,29.2999992 36.545,29.46 C36.8250014,29.6200008 37.1499981,29.7699993 37.52,29.91 C37.8900018,30.0500007 38.274998,30.1899993 38.675,30.33 C39.1750025,30.5100009 39.6749975,30.7149989 40.175,30.945 C40.6750025,31.1750012 41.1299979,31.4599983 41.54,31.8 C41.950002,32.1400017 42.2799987,32.5549975 42.53,33.045 C42.7800012,33.5350024 42.905,34.1199966 42.905,34.8 C42.905,35.4400032 42.7800012,36.0349973 42.53,36.585 C42.2799987,37.1350028 41.9150024,37.6149979 41.435,38.025 C40.9549976,38.435002 40.3550036,38.7599988 39.635,39 C38.9149964,39.2400012 38.0950046,39.36 37.175,39.36 C36.1549949,39.36 35.1500049,39.1650019 34.16,38.775 C33.169995,38.384998 32.3150036,37.9000029 31.595,37.32 L33.215,35.1 Z" id="Ps" fill="#49D1F9"></path>
            </g>
        </g>
    </g>
</svg>