<?xml version="1.0" encoding="UTF-8" standalone="no"?>
<svg width="64px" height="64px" viewBox="0 0 64 64" version="1.1" xmlns="http://www.w3.org/2000/svg" xmlns:xlink="http://www.w3.org/1999/xlink">
    <defs></defs>
    <g id="Skills---Design" stroke="none" stroke-width="1" fill="none" fill-rule="evenodd">
        <g id="icons/skills/id-377">
            <g id="Group" transform="translate(9.000000, 9.000000)">
                <path d="M10,39 L6,39 C2.6862919,39 0,41.6862907 0,45 C0,45.5522842 0.4446309,46 1.0008721,46 L14.9991307,46 C15.5518913,46 16,45.546814 16,45 C16,41.6862907 13.3137102,39 10,39 L10,39 Z" id="Shape" fill="#335262"></path>
                <path d="M40,39 L36,39 C32.6862907,39 30,41.6862907 30,45 C30,45.5522842 30.4446297,46 31.0008698,46 L44.9991303,46 C45.5518913,46 46,45.546814 46,45 C46,41.6862907 43.3137093,39 40,39 L40,39 Z" id="Shape" fill="#335262"></path>
                <path d="M25,25 L21,25 C17.6862907,25 15,27.6862907 15,31 C15,31.5522804 15.4446297,32 16.0008698,32 L29.9991303,32 C30.5518894,32 31,31.5468102 31,31 C31,27.6862907 28.3137093,25 25,25 L25,25 Z" id="Shape" fill="#5A7A84"></path>
                <path d="M40,12 L36,12 C32.6862907,12 30,14.6862907 30,18 C30,18.5522804 30.4446297,19 31.0008698,19 L44.9991303,19 C45.5518913,19 46,18.5468102 46,18 C46,14.6862907 43.3137093,12 40,12 L40,12 Z" id="Shape" fill="#76B5B5"></path>
                <path d="M10,12 L6,12 C2.6862919,12 0,14.6862907 0,18 C0,18.5522804 0.4446309,19 1.0008721,19 L14.9991307,19 C15.5518913,19 16,18.5468102 16,18 C16,14.6862907 13.3137102,12 10,12 L10,12 Z" id="Shape" fill="#76B5B5"></path>
                <circle id="Oval" fill="#5A7A84" cx="8" cy="32" r="5"></circle>
                <circle id="Oval" fill="#5A7A84" cx="38" cy="32" r="5"></circle>
                <circle id="Oval" fill="#76B5B5" cx="23" cy="18" r="5"></circle>
                <circle id="Oval" fill="#9BCED3" cx="38" cy="5" r="5"></circle>
                <circle id="Oval" fill="#9BCED3" cx="8" cy="5" r="5"></circle>
            </g>
        </g>
    </g>
</svg>