<?xml version="1.0" encoding="UTF-8" standalone="no"?>
<svg width="64px" height="64px" viewBox="0 0 64 64" version="1.1" xmlns="http://www.w3.org/2000/svg" xmlns:xlink="http://www.w3.org/1999/xlink">
    <defs></defs>
    <g id="Database" stroke="none" stroke-width="1" fill="none" fill-rule="evenodd">
        <g id="icons/skills/id-306">
            <g id="Imported-Layers" transform="translate(3.000000, 2.000000)">
                <path d="M57.7596774,35.9651613 C57.5187097,35.2364516 56.6312903,33.6087097 53.595,34.2353226 C52.0562903,34.5527419 50.973871,34.6427419 50.2267742,34.6374194 C52.9780645,30.056129 55.2179032,24.7930645 56.4962903,19.8454839 C57.4045161,16.3277419 58.5754839,9.975 56.2074194,6.94983871 C52.8895161,2.70967742 48.0454839,0.431612903 42.1998387,0.361935484 C39.0270968,0.322741935 36.2554839,0.955645161 34.8522581,1.39693548 C33.5075806,1.15693548 32.0593548,1.0233871 30.5385484,0.998709677 C27.7069355,0.953709677 25.2009677,1.5783871 23.0709677,2.86209677 C19.9006452,1.77967742 11.205,-0.604354839 5.46580645,3.44951613 C1.82758065,6.01935484 0.141290323,10.4990323 0.45483871,16.7627419 C0.554516129,18.7640323 1.6766129,24.8593548 3.44322581,30.6464516 C4.45741935,33.9696774 5.53790323,36.7277419 6.65516129,38.8446774 C8.2233871,41.816129 9.89177419,43.5633871 11.756129,44.1851613 C12.8124194,44.5374194 14.7527419,44.7793548 16.7859677,42.9982258 C17.4837097,43.9417742 18.7083871,44.5519355 19.886129,44.8466129 C21.5559677,45.2641935 23.1580645,45.3464516 24.6474194,45.0919355 C25.4937097,44.9472581 26.2974194,44.6922581 27.0483871,44.3332258 C27.0667742,44.8074194 27.0798387,45.2608065 27.0895161,45.6222581 C27.1035484,46.1162903 27.1166129,46.5827419 27.1345161,47.0346774 C27.2554839,50.0472581 27.4596774,52.3867742 28.0616129,54.0116129 C28.0959677,54.1059677 28.1419355,54.2458065 28.1903226,54.393871 C28.4893548,55.3098387 28.9896774,56.8432258 30.251129,58.0335484 C31.0872581,58.8227419 32.4633871,59.64 34.5764516,59.64 C35.1919355,59.64 35.8708065,59.5703226 36.6174194,59.4106452 C38.8074194,58.9412903 41.2935484,58.2270968 43.0824194,55.6804839 C44.7885484,53.2504839 45.6183871,49.5740323 45.768871,43.7680645 C45.7887097,43.6006452 45.8075806,43.4404839 45.825,43.2880645 C45.843871,43.1269355 45.8632258,42.96 45.8830645,42.7979032 L46.4714516,42.8496774 L46.5691935,42.8559677 C48.8085484,42.9585484 51.5429032,42.4843548 53.22,41.7058065 C54.528871,41.0980645 58.725,38.8891935 57.7596774,35.9651613" id="Fill-1" fill="#336791"></path>
                <path d="M26.0675806,19.5430645 C26.0874194,19.4012903 26.055,19.1269355 25.6146774,18.881129 C25.3601613,18.7393548 25.016129,18.6324194 24.6459677,18.581129 C24.4867742,18.5583871 24.3295161,18.5472581 24.1775806,18.5472581 C23.4991935,18.5472581 23.0651613,18.7606452 23.0162903,19.1167742 C22.9819355,19.3601613 23.1546774,19.6320968 23.2606452,19.7724194 C23.5620968,20.1716129 24.0024194,20.4464516 24.4379032,20.5069355 C24.5027419,20.5156452 24.5690323,20.5204839 24.6348387,20.5204839 C25.3872581,20.5204839 26.0129032,19.9364516 26.0675806,19.5430645" id="Fill-2" fill="#FFFFFF"></path>
                <path d="M43.7187097,18.1195161 C43.5730645,18.1195161 43.4216129,18.1301613 43.2687097,18.1514516 C42.5743548,18.2477419 41.9008065,18.5593548 41.9564516,18.9687097 C42.0043548,19.3093548 42.5869355,19.8353226 43.2624194,19.8348387 C43.3224194,19.8348387 43.3829032,19.8309677 43.4414516,19.8222581 C43.8996774,19.758871 44.2359677,19.4680645 44.396129,19.3001613 C44.6385484,19.0451613 44.7793548,18.7616129 44.7537097,18.5787097 C44.7140323,18.2951613 44.3172581,18.1195161 43.7187097,18.1195161" id="Fill-3" fill="#FFFFFF"></path>
                <path d="M56.246129,36.3653226 C56.0008065,35.6235484 55.1985484,35.3879032 53.8606452,35.6637097 C49.6335484,36.536129 48.1940323,35.8843548 47.745,35.5195161 C50.9259677,30.6856452 53.5437097,24.8337097 54.9537097,19.3746774 C56.3791935,13.8575806 56.3758065,9.645 54.945,7.81645161 C51.9208065,3.95225806 47.4808065,1.87935484 42.1059677,1.82225806 C38.5108065,1.7816129 35.6085484,2.6516129 34.8145161,2.94290323 C34.8106452,2.94387097 34.8077419,2.94483871 34.8043548,2.94580645 C34.8077419,2.94483871 34.8106452,2.94387097 34.8140323,2.94290323 C34.7414516,2.96951613 34.6930645,2.98935484 34.6567742,3.00483871 C33.3769355,2.685 31.9853226,2.48322581 30.4645161,2.45854839 C27.6808065,2.41306452 25.2783871,3.08225806 23.2916129,4.44532258 C21.3527419,3.71467742 12.0503226,0.546290323 6.31306452,4.61177419 C3.1316129,6.86564516 1.66354839,10.8991935 1.94854839,16.601129 C2.04483871,18.5245161 3.14080645,24.4422581 4.87112903,30.1117742 C7.14483871,37.56 9.60919355,41.7740323 12.1964516,42.6367742 C12.495,42.7364516 12.84,42.806129 13.2198387,42.806129 C14.156129,42.806129 15.3048387,42.3832258 16.503871,40.9422581 C18.5554839,38.4740323 20.4691935,36.4122581 21.1325806,35.7067742 C22.1772581,36.2753226 23.3274194,36.5922581 24.5051613,36.6145161 C24.5080645,36.671129 24.5167742,36.7267742 24.5220968,36.7833871 C24.2825806,37.0659677 24.086129,37.3141935 23.9206452,37.5241935 C23.1106452,38.5524194 22.9422581,38.7662903 20.351129,39.3 C19.6340323,39.4480645 17.7290323,39.8404839 17.7014516,41.1503226 C17.6772581,42.3183871 19.2687097,43.0287097 20.2127419,43.2648387 C21.123871,43.4927419 22.016129,43.608871 22.863871,43.608871 C24.9701613,43.608871 26.8016129,42.8874194 28.2517742,41.523871 C28.2062903,46.7753226 28.4230645,52.1840323 29.0564516,53.7687097 C29.5727419,55.0587097 30.8346774,58.2130645 34.8179032,58.2130645 C35.4024194,58.2125806 36.0454839,58.1448387 36.7533871,57.9933871 C40.9190323,57.1001613 42.7282258,55.2595161 43.4279032,51.2012903 C43.8087097,48.9943548 44.463871,43.7041935 44.7643548,40.9272581 C45.4098387,41.1430645 46.26,41.2408065 47.1822581,41.2408065 C49.0364516,41.2408065 51.1795161,40.8459677 52.5232258,40.2217742 C54.0222581,39.5259677 56.7285484,37.8241935 56.246129,36.3653226 L56.246129,36.3653226 Z M42.3077419,3.36967742 C47.1653226,3.47467742 51.0077419,5.29112903 53.7290323,8.76822581 C55.8212903,11.4416129 53.5243548,23.6041935 46.8556452,34.0582258 C46.7733871,33.9522581 46.6896774,33.8458065 46.601129,33.735 C46.563871,33.6890323 46.5251613,33.6401613 46.4874194,33.5922581 C48.2095161,30.7741935 47.8795161,27.978871 47.5819355,25.5014516 C47.4595161,24.4824194 47.343871,23.5195161 47.3733871,22.6127419 C47.403871,21.6522581 47.5301613,20.8301613 47.6525806,20.0351613 C47.8035484,19.0587097 47.9520968,18.0445161 47.9090323,16.8541935 C47.94,16.7337097 47.9574194,16.5953226 47.9414516,16.4225806 C47.8340323,15.2864516 46.5343548,11.8833871 43.8832258,8.79774194 C42.4030645,7.07419355 40.2241935,5.14451613 37.2420968,3.87048387 C38.5035484,3.5966129 40.2890323,3.3266129 42.3077419,3.36967742 L42.3077419,3.36967742 Z M46.0490323,25.6858065 C46.3054839,27.8187097 46.5677419,30.0154839 45.5032258,32.1870968 C45.3256452,31.8822581 45.153871,31.5483871 44.9980645,31.1704839 C44.8756452,30.8733871 44.6070968,30.3919355 44.2354839,29.726129 C42.78,27.1156452 39.3716129,21.0029032 41.1319355,18.4862903 C41.891129,17.4014516 43.6606452,17.0380645 46.3727419,17.3835484 C46.3620968,18.2317742 46.2503226,19.0006452 46.1269355,19.8 C45.9977419,20.6404839 45.8637097,21.51 45.8298387,22.5629032 C45.7964516,23.5872581 45.9246774,24.6537097 46.0490323,25.6858065 L46.0490323,25.6858065 Z M15.3164516,39.9546774 C13.9524194,41.5945161 12.9982258,41.2766129 12.6846774,41.1720968 C10.6872581,40.5058065 8.37774194,36.3101613 6.3483871,29.6608065 C4.59580645,23.9201613 3.57145161,18.1446774 3.49064516,16.5241935 C3.23370968,11.3859677 4.48258065,7.80241935 7.20290323,5.87370968 C11.6748387,2.70241935 19.0437097,4.65580645 21.8864516,5.59306452 C21.8196774,5.65741935 21.7514516,5.71935484 21.6856452,5.78564516 C16.9470968,10.5716129 17.0506452,18.7441935 17.0627419,19.2720968 C17.0617742,19.4641935 17.0782258,19.7409677 17.1004839,20.1232258 C17.1827419,21.5085484 17.3356452,24.0870968 16.9267742,27.0082258 C16.5508065,29.6980645 17.3796774,32.3308065 19.2009677,34.2309677 C19.4051613,34.443871 19.6204839,34.6398387 19.8416129,34.826129 C19.0480645,35.6748387 17.2412903,37.6393548 15.3164516,39.9546774 L15.3164516,39.9546774 Z M20.3158065,33.0459677 C18.8235484,31.4893548 18.146129,29.3825806 18.4562903,27.1640323 C18.8859677,24.0909677 18.7272581,21.4417742 18.6420968,20.0027419 C18.6290323,19.7854839 18.6179032,19.6112903 18.6116129,19.466129 C19.3127419,18.7993548 22.65,17.1222581 24.8893548,17.6172581 C25.98,17.8587097 26.6429032,18.5946774 26.9167742,19.86 C28.2982258,26.2475806 27.0987097,28.9137097 26.1353226,31.0543548 C25.9379032,31.4932258 25.7516129,31.9079032 25.5924194,32.3356452 L25.4690323,32.5519355 C25.1496774,33.4079032 24.8530645,34.3548387 24.6745161,34.8387097 L24.6416129,34.8387097 C23.0467742,34.8387097 21.4945161,34.2759677 20.3158065,33.0459677 L20.3158065,33.0459677 Z M28.1124194,39.3575806 C26.8296774,41.1537097 25.0635484,42.0648387 22.863871,42.0648387 C22.1424194,42.0648387 21.3764516,41.9646774 20.5872581,41.7672581 C20.0685484,41.6370968 19.6020968,41.3966129 19.3693548,41.2170968 C19.5556452,41.1159677 19.931129,40.9630645 20.6627419,40.8125806 C23.6627419,40.1946774 24.1248387,39.7596774 25.1332258,38.4798387 C25.3674194,38.1827419 25.6330645,37.845 26.0017742,37.4337097 C26.4382258,36.9454839 26.6970968,36.9454839 26.7827419,36.9454839 C26.9414516,36.9454839 27.1137097,37.0112903 27.3217742,37.0974194 C27.7054839,37.2566129 28.0785484,37.7332258 28.2280645,38.2572581 C28.2996774,38.5079032 28.38,38.9830645 28.1124194,39.3575806 L28.1124194,39.3575806 Z M43.3693548,39.3483871 C43.2503226,40.8870968 42.3590323,48.3164516 41.906129,50.9385484 C41.313871,54.3745161 39.9832258,55.7216129 36.4301613,56.4837097 C32.6869355,57.2854839 31.3630645,55.3766129 30.4901613,53.1953226 C29.9308065,51.7959677 29.6554839,45.5075806 29.8495161,38.5683871 C29.8519355,38.478871 29.8359677,38.3937097 29.8103226,38.3129032 C29.7885484,38.1541935 29.7590323,37.9945161 29.7125806,37.8329032 C29.4290323,36.8419355 28.74,36.0140323 27.9130645,35.6709677 C27.6532258,35.5635484 27.2612903,35.4014516 26.7827419,35.4014516 C26.5722581,35.4014516 26.366129,35.4367742 26.163871,35.4996774 C26.3172581,34.818871 26.6022581,34.0485484 26.9153226,33.2080645 L27.0396774,32.8741935 C27.1804839,32.4953226 27.3566129,32.1043548 27.5429032,31.6901613 C28.5440323,29.4667742 29.9148387,26.4212903 28.4259677,19.5372581 C27.8743548,16.9867742 26.0322581,15.7417742 23.2364516,16.0306452 C21.5491935,16.2058065 20.0051613,16.8866129 19.2343548,17.2770968 C19.0253226,17.3835484 18.8419355,17.4841935 18.671129,17.5819355 C18.8704839,15.0024194 19.665,10.0209677 22.7830645,6.87193548 C24.7195161,4.91612903 27.2966129,3.95032258 30.438871,4.00209677 C40.8870968,4.17387097 45.2903226,12.9856452 46.2145161,15.8032258 C43.0717742,15.4664516 40.9383871,16.0693548 39.8670968,17.6012903 C37.5517742,20.91 41.1556452,27.3725806 42.8874194,30.4780645 C43.2067742,31.0509677 43.4825806,31.5459677 43.5706452,31.7593548 C44.1333871,33.1229032 44.8625806,34.0340323 45.3953226,34.6998387 C45.5825806,34.9340323 45.7635484,35.16 45.8908065,35.3530645 C44.9845161,35.6085484 43.2169355,36.1703226 43.3693548,39.3483871 L43.3693548,39.3483871 Z M51.8733871,38.8214516 C50.8862903,39.2791935 49.241129,39.6183871 47.681129,39.6856452 C45.9266129,39.761129 45.0793548,39.4664516 44.91,39.2951613 C44.8045161,37.2614516 45.5951613,37.0393548 46.3601613,36.825 C46.4564516,36.7979032 46.5914516,36.7601613 46.7375806,36.7025806 C46.8154839,36.7679032 46.9020968,36.8332258 46.9983871,36.8966129 C48.3469355,37.7864516 50.7604839,37.8808065 54.1732258,37.1762903 C54.2622581,37.1579032 54.3430645,37.1429032 54.4151613,37.1317742 C53.9787097,37.5793548 53.1358065,38.235 51.8733871,38.8214516 L51.8733871,38.8214516 Z" id="Fill-4" fill="#FFFFFF"></path>
            </g>
        </g>
    </g>
</svg>