<?xml version="1.0" encoding="UTF-8" standalone="no"?>
<svg width="64px" height="64px" viewBox="0 0 64 64" version="1.1" xmlns="http://www.w3.org/2000/svg" xmlns:xlink="http://www.w3.org/1999/xlink">
    <defs></defs>
    <g id="Languages" stroke="none" stroke-width="1" fill="none" fill-rule="evenodd">
        <g id="icons/skills/id-303" fill="#6181B6">
            <path d="M32,17 C15.4320883,17 2,23.8068877 2,32.2032933 C2,40.5996988 15.4320883,47.4065866 32,47.4065866 C48.5679117,47.4065866 62,40.5996988 62,32.2032933 C62,23.8068877 48.5679117,17 32,17 L32,17 Z M24.1938325,35.1652863 C23.4778865,35.8350738 22.6828821,36.111533 21.8073461,36.3963401 C20.93181,36.6816381 19.8176253,36.6227125 18.4628278,36.6227125 L15.3923135,36.6227125 L14.5413298,41.5331784 L10.9561986,41.5331784 L14.1553671,24.8375945 L21.0496612,24.8375945 C23.1238419,24.8375945 24.6367565,25.4342161 25.5879137,26.5228664 C26.5390709,27.6115167 26.8248601,29.1568403 26.4457721,31.1077684 C26.2891282,31.9116116 26.0254362,32.6589845 25.6532229,33.3248437 C25.2805185,33.9911939 24.7938914,34.6133499 24.1938325,35.1652863 L24.1938325,35.1652863 Z M34.6585262,36.6227125 L36.0732314,29.5418208 C36.2342947,28.7129342 36.1753691,28.0971618 35.8959636,27.7961502 C35.616067,27.4946476 35.0209186,27.2928274 34.1110093,27.2928274 L31.2678495,27.2928274 L29.4357547,36.6227125 L25.8786133,36.6227125 L29.0777818,20.4181753 L32.6349232,20.4181753 L31.7844305,24.8375945 L34.9531542,24.8375945 C36.9472943,24.8375945 38.3222248,25.2377975 39.0789276,25.9331195 C39.8356303,26.6284414 40.0624939,27.5810718 39.7600092,29.1386716 L38.271647,36.6227125 L34.6585262,36.6227125 L34.6585262,36.6227125 Z M54.4275706,31.1337938 C54.2714178,31.9376371 54.0072348,32.6722428 53.6355125,33.3376109 C53.2632992,34.0039611 52.7771631,34.6133499 52.1766131,35.1652863 C51.4606672,35.8350738 50.6651717,36.111533 49.7901267,36.3963401 C48.9150817,36.6816381 47.7999149,36.6227125 46.4451174,36.6227125 L43.3746031,36.6227125 L42.5241104,41.5331784 L38.9389793,41.5331784 L42.1376567,24.8375945 L49.0324418,24.8375945 C51.1066226,24.8375945 52.6195371,25.4342161 53.5702033,26.5228664 C54.5203784,27.6115167 54.8066586,29.1833568 54.4275706,31.1337938 L54.4275706,31.1337938 Z M47.6737159,27.2928274 L45.2179919,27.2928274 L43.8789079,34.1674796 L46.0601368,34.1674796 C47.5047959,34.1674796 48.5821521,34.0250761 49.2892592,33.4800144 C49.9973483,32.9359348 50.4741546,32.0913347 50.7221331,30.8180509 C50.9597997,29.5948538 50.8517694,28.6407503 50.3980424,28.1379186 C49.9438243,27.6350869 49.0358791,27.2928274 47.6737159,27.2928274 L47.6737159,27.2928274 Z M19.6914263,27.2928274 L17.2352113,27.2928274 L15.8961273,34.1674796 L18.0768652,34.1674796 C19.5220153,34.1674796 20.5988804,34.0250761 21.3064785,33.4800144 C22.0140767,32.9359348 22.4913739,32.0913347 22.7388614,30.8180509 C22.976528,29.5948538 22.8684977,28.6407503 22.4147707,28.1379186 C21.9610436,27.6350869 21.0535896,27.2928274 19.6914263,27.2928274 L19.6914263,27.2928274 Z" id="Shape"></path>
        </g>
    </g>
</svg>