<?xml version="1.0" encoding="UTF-8" standalone="no"?>
<svg width="64px" height="64px" viewBox="0 0 64 64" version="1.1" xmlns="http://www.w3.org/2000/svg" xmlns:xlink="http://www.w3.org/1999/xlink">
    <!-- Generator: Sketch 3.6.1 (26313) - http://www.bohemiancoding.com/sketch -->
    <title>icons/skills/id-308</title>
    <desc>Created with Sketch.</desc>
    <defs></defs>
    <g id="Skills---Design" stroke="none" stroke-width="1" fill="none" fill-rule="evenodd">
        <g id="icons/skills/id-308">
            <path d="M55,59 L13,59 C10.8,59 9,57.2 9,55 L9,13 C9,10.8 10.8,9 13,9 L55,9 C57.2,9 59,10.8 59,13 L59,55 C59,57.2 57.2,59 55,59 L55,59 Z" id="Shape" fill="#53699A"></path>
            <path d="M51,55 L9,55 C6.8,55 5,53.2 5,51 L5,9 C5,6.8 6.8,5 9,5 L51,5 C53.2,5 55,6.8 55,9 L55,51 C55,53.2 53.2,55 51,55 L51,55 Z" id="Shape" fill="#6484D3"></path>
            <path d="M46,39 L14,39 C12.9,39 12,38.1 12,37 L12,25 C12,23.9 12.9,23 14,23 L46,23 C47.1,23 48,23.9 48,25 L48,37 C48,38.1 47.1,39 46,39 L46,39 Z M16,31 L44,31 L44,39 L16,39 L16,31 L16,31 Z" id="Shape" fill="#D1D3D4"></path>
            <path d="M42,21 L18,21 L18,15 C18,13.9 18.9,13 20,13 L40,13 C41.1,13 42,13.9 42,15 L42,21 L42,21 Z" id="Shape" fill="#FFFFFF"></path>
            <g id="Group" transform="translate(18.000000, 33.000000)">
                <path d="M6,14 L2,14 C0.9,14 0,13.1 0,12 L0,0 L6,0 L6,14 L6,14 Z" id="Shape" fill="#00E3FF"></path>
                <rect id="Rectangle-path" fill="#FF00F0" x="6" y="0" width="6" height="14"></rect>
                <rect id="Rectangle-path" fill="#FDFF00" x="12" y="0" width="6" height="14"></rect>
                <path d="M18,14 L18,0 L24,0 L24,12 C24,13.1 23.1,14 22,14 L18,14 Z" id="Shape" fill="#000000"></path>
            </g>
            <rect id="Rectangle-path" fill="#F3531D" x="16" y="26" width="2" height="2"></rect>
        </g>
    </g>
</svg>