<?xml version="1.0" encoding="UTF-8" standalone="no"?>
<svg width="64px" height="64px" viewBox="0 0 64 64" version="1.1" xmlns="http://www.w3.org/2000/svg" xmlns:xlink="http://www.w3.org/1999/xlink">
    <defs></defs>
    <g id="Skills---Develop" stroke="none" stroke-width="1" fill="none" fill-rule="evenodd">
        <g id="icons/skills/id-318">
            <rect id="Rectangle-7" fill="#83A26E" x="9" y="9" width="50" height="50" rx="4"></rect>
            <rect id="Rectangle-7" fill="#B5E389" x="5" y="5" width="50" height="50" rx="4"></rect>
            <path d="M11.4121094,39.831543 L11.4121094,22.3994141 L16.0322266,22.3994141 L16.0322266,24.449707 L13.8891602,24.449707 L13.8891602,37.78125 L16.0322266,37.78125 L16.0322266,39.831543 L11.4121094,39.831543 Z M21.6357422,36.2319336 L25.003418,22.1674805 L26.9609375,22.1674805 L23.5561523,36.2319336 L21.6357422,36.2319336 Z M28.3061523,36 L28.3061523,33.3930664 L30.9130859,33.3930664 L30.9130859,36 L28.3061523,36 Z M34.4941406,28.6523438 L33.0932617,27.5668945 C33.5385764,27.0659155 34.002439,26.5865908 34.4848633,26.1289062 C34.676596,25.9433584 34.7972003,25.8258466 34.8466797,25.7763672 C34.6920565,25.7516275 34.2498409,25.6495777 33.5200195,25.4702148 C32.9943008,25.3403314 32.6479501,25.2444665 32.480957,25.1826172 L33.0283203,23.5498047 C33.8385457,23.8776058 34.5621713,24.2394186 35.1992188,24.6352539 C35.0507805,23.6271108 34.9765625,22.8045279 34.9765625,22.1674805 L36.6279297,22.1674805 C36.6279297,22.6189801 36.5444344,23.4477479 36.3774414,24.6538086 C36.5011399,24.6043292 36.7670878,24.4837249 37.175293,24.2919922 C37.7319364,24.0384102 38.2452776,23.821941 38.715332,23.6425781 L39.2070312,25.3217773 C38.5205044,25.4764005 37.7257532,25.6279289 36.8227539,25.7763672 L37.9360352,27.0288086 C38.1586925,27.2823906 38.3349603,27.4895825 38.4648438,27.6503906 L37.0454102,28.5874023 L35.7929688,26.5185547 C35.4156882,27.1865268 34.9827498,27.8977827 34.4941406,28.6523438 L34.4941406,28.6523438 Z M49.8666992,22.3994141 L49.8666992,39.831543 L45.246582,39.831543 L45.246582,37.78125 L47.3896484,37.78125 L47.3896484,24.4311523 L45.246582,24.4311523 L45.246582,22.3994141 L49.8666992,22.3994141 Z" id="-[-/.*-]" fill="#000000"></path>
        </g>
    </g>
</svg>