<?xml version="1.0" encoding="UTF-8" standalone="no"?>
<svg width="64px" height="64px" viewBox="0 0 64 64" version="1.1" xmlns="http://www.w3.org/2000/svg" xmlns:xlink="http://www.w3.org/1999/xlink">
    <defs>
        <linearGradient x1="32.4367097%" y1="93.5621912%" x2="99.9999998%" y2="50.0000067%" id="linearGradient-1">
            <stop stop-color="#909CA9" offset="0%"></stop>
            <stop stop-color="#EDEDEE" offset="100%"></stop>
        </linearGradient>
        <linearGradient x1="1.04409747e-06%" y1="50.0000165%" x2="100.000005%" y2="50.0000165%" id="linearGradient-2">
            <stop stop-color="#939FAB" offset="0%"></stop>
            <stop stop-color="#DCDEE1" offset="100%"></stop>
        </linearGradient>
        <radialGradient cx="44.8146047%" cy="44.0615819%" fx="44.8146047%" fy="44.0615819%" r="74.6514744%" id="radialGradient-3">
            <stop stop-color="#EE352C" offset="0%"></stop>
            <stop stop-color="#A91D22" offset="100%"></stop>
        </radialGradient>
    </defs>
    <g id="Database" stroke="none" stroke-width="1" fill="none" fill-rule="evenodd">
        <g id="icons/skills/id-356">
            <g id="Microsoft_SQL_Server_Logo" transform="translate(2.000000, 8.000000)">
                <g id="layer1">
                    <g id="g3545" transform="translate(0.010709, 0.062086)">
                        <g id="layer1-5" transform="translate(0.013715, 36.602896)" fill="#000000">
                            <path d="M3.22608104,0.0103122692 C1.71168695,-0.0109931392 0.728509092,0.48591329 0.269026911,1.49994015 C-0.408205652,2.99451747 0.195726763,4.12402981 2.34950169,5.38465601 C3.55933005,6.09278098 4.09593472,6.70279092 4.09593472,7.37082652 C4.09593472,8.74933526 2.43137268,9.23879382 0.715163205,8.36615857 C0.366405326,8.18882752 0.0674152742,8.04290708 0.0493216003,8.04261949 C-0.011633441,8.43303914 0.0156932365,9.37047782 0.0156932365,9.37047782 C0.0156932365,9.37047782 0.540687416,9.58997249 1.33168321,9.74794009 C3.29502367,10.1400335 5.07780762,9.21701245 5.24602476,7.7213272 C5.40251162,6.32993513 4.89273647,5.5910495 2.97723115,4.43650673 C1.69475117,3.66351074 1.12932547,3.10197342 1.20165354,2.43685543 C1.40070045,0.606442385 3.65569406,0.863881 4.89853167,1.55386333 L4.90301545,0.322617361 C4.90301545,0.322617361 4.21143263,0.0241748406 3.22608104,0.0103122692 L3.22608104,0.0103122692 Z M10.7722859,0.017049072 C10.6813182,0.0178615146 10.5875756,0.0209459205 10.4942914,0.0260362689 C8.63362525,0.127570743 7.37780046,0.949861153 6.63823903,2.55368539 C6.01076783,4.00484304 6.08047522,5.90334884 6.64944848,7.35734213 C7.30637776,8.78316667 8.37472308,9.53623768 10.1490402,9.82432767 C10.5225055,9.88496681 10.7782088,10.0960638 11.5031423,10.9477273 L12.3976568,11.9992293 L14.0252696,11.9992293 L12.9424363,10.9072849 C12.3469506,10.307383 11.859603,9.78260335 11.859603,9.7411997 C11.859603,9.69979676 12.0876417,9.59793443 12.3662703,9.51427297 C13.2813198,9.23951711 14.0342185,8.53371947 14.5678072,7.45171129 C14.9946625,6.58613638 15.0605533,6.31922454 15.1170705,5.23636726 C15.2855294,2.00869674 13.5922755,-0.00810501364 10.7722859,0.0170526669 L10.7722859,0.017049072 L10.7722859,0.017049072 Z M27.4155697,0.0282830681 C25.9011756,0.00697837864 24.9157559,0.50388337 24.4562737,1.51791095 C23.7790411,3.01248755 24.3852155,4.14200061 26.5389904,5.40262681 C27.7488187,6.11075249 28.2831815,6.71851492 28.2831815,7.38655052 C28.2831815,8.76505926 26.6208614,9.25676462 24.9046519,8.38412937 C24.555894,8.20679832 24.2546621,8.06087787 24.2365684,8.06059028 C24.1756134,8.45100993 24.2051819,9.38844862 24.2051819,9.38844862 C24.2051819,9.38844862 24.7279342,9.60569649 25.51893,9.76366409 C27.4822705,10.1557568 29.2650544,9.23273645 29.4332716,7.7370512 C29.5897584,6.34565985 29.0799833,5.6067735 27.1644779,4.45223073 C25.881998,3.67923474 25.3165723,3.11994422 25.3889003,2.45482623 C25.5879472,0.624413184 27.8429409,0.881851798 29.0857785,1.57183413 L29.0902622,0.34058816 C29.0902622,0.34058816 28.4009213,0.0421456395 27.4155697,0.0282830681 L27.4155697,0.0282830681 Z M16.5967185,0.129389033 L16.5967185,4.87687579 L16.5967185,9.62436254 L19.0964269,9.62436254 L21.5961353,9.62436254 L21.5961353,9.1637687 L21.5961353,8.50096293 L17.7804369,8.50096293 L17.7804369,4.41628195 L17.7804369,0.129389033 L17.1885777,0.129389033 L16.5967185,0.129389033 L16.5967185,0.129389033 Z M10.6848521,1.02586192 C12.6626849,1.02586192 13.7890905,2.23823694 13.9311102,4.51963471 C14.0489583,6.4127295 13.4150678,7.84315908 12.1981285,8.43355895 C11.4106423,8.81560901 10.2599489,8.89461582 9.50785941,8.61779649 C8.73598103,8.33369466 7.98568578,7.52827142 7.64260616,6.61589838 C7.26766873,5.61880412 7.3216714,3.77631013 7.75021692,2.94912206 C8.43602032,1.62536835 9.35029214,1.02586192 10.6848521,1.02586192 L10.6848521,1.02586192 Z M50.7160565,2.68624655 C50.4849753,2.68991332 50.241846,2.71790952 49.9919257,2.77162492 C48.4150083,3.18628987 47.5243743,4.698119 47.5841349,6.25641051 C47.5851177,7.56390242 47.8380755,8.21006966 48.465198,8.891906 C49.7491938,9.95293087 50.9163158,10.0327724 52.4916341,9.4693334 C52.763385,9.35244304 53.0521068,9.22218548 53.0521068,9.22218548 L53.0498685,8.16394305 L52.4916377,8.45827375 C51.2204195,9.01069373 50.2612676,9.01190017 49.4942295,8.35716778 C49.0023622,7.85436503 48.7920255,7.26468197 48.6871488,6.5777028 L51.0657951,6.5777028 L53.4444413,6.5777028 L53.4444413,5.66774911 C53.4444413,3.82364246 52.3336271,2.66059565 50.7160601,2.68624655 L50.7160565,2.68624655 L50.7160565,2.68624655 Z M33.3414018,2.70197774 C33.1103206,2.70564451 32.8694332,2.73364071 32.6195129,2.78735611 C31.0425956,3.20202106 30.1497196,4.71160339 30.2094802,6.2698949 C30.210463,7.57738681 30.4656627,8.22580085 31.0927852,8.90763719 C32.3767811,9.96866205 33.5416611,10.0485036 35.1169794,9.48506459 C35.3887303,9.36817423 35.6774522,9.23566987 35.6774522,9.23566987 L35.6774522,8.17967424 L35.1169794,8.47400494 C33.8457613,9.02642492 32.8866093,9.02763136 32.1195713,8.37289897 C31.627704,7.87009622 31.4173673,7.27816636 31.3124905,6.59118719 L33.6933787,6.59118719 L36.072025,6.59118719 L36.072025,5.6834803 C36.072025,3.83937365 34.9589688,2.67632684 33.3414018,2.70197774 L33.3414018,2.70197774 Z M57.6502287,2.75140732 C56.965071,2.75140732 56.4423194,3.0269066 56.0943492,3.57148903 L55.8186002,4.00512128 L55.8163763,3.44566828 L55.8141523,2.88396847 L55.2222931,2.88396847 L54.6304339,2.88396847 L54.6304339,6.24742691 L54.6304339,9.61088534 L55.2222931,9.61088534 L55.8141523,9.61088534 L55.8141523,7.46294529 C55.8141523,5.49763082 55.8391897,5.26471288 56.1100819,4.72634383 C56.4826447,3.9859081 57.1353471,3.62044625 57.7623519,3.80066256 L58.1815891,3.92198971 L58.1815891,3.33557512 L58.1815891,2.75140732 L57.6502646,2.75140732 L57.6502287,2.75140732 L57.6502287,2.75140732 Z M40.2755704,2.76713491 C39.5904149,2.76713491 39.0699052,3.0426342 38.72194,3.58721663 L38.4439456,4.02084888 L38.4417073,3.45914907 L38.439469,2.89969607 L37.8476098,2.89969607 L37.2557505,2.89969607 L37.2557505,6.2631545 L37.2557505,9.62436614 L37.8476098,9.62436614 L38.439469,9.62436614 L38.439469,7.47642608 C38.439469,5.51111162 38.4645071,5.27819367 38.7353986,4.73982463 C39.1079628,3.99938889 39.760668,3.63392705 40.3876722,3.81414335 L40.8091477,3.93547051 L40.8091477,3.35130271 L40.8091477,2.76713491 L40.2755776,2.76713491 L40.2755704,2.76713491 L40.2755704,2.76713491 Z M41.1969876,2.88750799 C41.9894154,5.12671555 42.8451534,7.41171323 43.7123892,9.62211934 C44.0879379,9.62608808 44.4644945,9.62472203 44.8400604,9.62436254 L46.1650179,6.29460969 L47.5123943,2.88961818 L46.3443692,2.88961818 C46.3443692,2.88961818 45.8289186,4.23962385 45.2906804,5.75313108 L44.313216,8.30639731 L43.3738637,5.73515668 L42.4188182,2.88750799 L41.1969876,2.88750799 L41.1969876,2.88750799 Z M50.6465579,3.70405019 C51.0000592,3.70538748 51.3489441,3.81825014 51.6441993,4.04556367 C52.242795,4.50641562 52.3436693,5.64079112 52.3436693,5.64079112 L48.7902722,5.64079112 C48.7902722,5.64079112 48.9694922,4.48763094 49.6197718,4.03208288 C49.933049,3.8126184 50.2930565,3.70271361 50.6465579,3.70405019 L50.6465579,3.70405019 Z M33.2719032,3.71977778 C33.6254046,3.72111508 33.9742894,3.83397773 34.2695447,4.06129127 C34.8681403,4.52214322 34.9690146,5.65427191 34.9690146,5.65427191 L31.4178594,5.65427191 C31.4178594,5.65427191 31.5970794,4.50335854 32.247359,4.04781047 C32.5606362,3.828346 32.9184018,3.71844121 33.2719032,3.71977778 L33.2719032,3.71977778 Z" id="path2830"></path>
                        </g>
                        <g id="g3073" transform="translate(0.317553, 32.031842)" fill="#231F1F">
                            <path d="M20.3865051,1.25901227 C20.3865051,1.20944037 20.3728036,1.17435686 20.3454313,1.15223864 C20.3142111,1.12632541 20.2609628,1.11410382 20.187142,1.11410382 L20.0805945,1.11410382 L20.0805945,1.40696591 L20.2092109,1.40696591 C20.3271593,1.40696591 20.3865254,1.35739095 20.3865254,1.25900717 L20.3865051,1.25901227 Z M20.5516552,1.86914392 L20.4063141,1.86914392 L20.3127046,1.66322445 C20.2655232,1.56026421 20.2145347,1.50840101 20.1597493,1.50840101 L20.0805945,1.50840101 L20.0805945,1.86914392 L19.9603558,1.86914392 L19.9603558,1.01037641 L20.2023602,1.01037641 C20.3088975,1.01037641 20.389569,1.03477368 20.4451179,1.08283267 C20.491546,1.12400045 20.5151316,1.17816514 20.5151316,1.24451571 C20.5151316,1.3032436 20.4961064,1.35358165 20.4580559,1.39476269 C20.4200054,1.43671191 20.3659733,1.46416866 20.2974864,1.47865603 L20.2974864,1.48232863 C20.3454313,1.49298732 20.3926127,1.54563197 20.4397941,1.64020237 L20.5516552,1.86900314 L20.5516552,1.86914392 Z M20.8187721,1.44891514 C20.8187721,1.27883715 20.7609431,1.13774209 20.6460282,1.02410478 C20.5311132,0.910467481 20.3910959,0.854031902 20.2251925,0.854031902 C20.0539653,0.854031902 19.9124211,0.911229545 19.7997864,1.02562993 C19.6863983,1.14003032 19.630086,1.28112539 19.630086,1.44891514 C19.630086,1.61975008 19.6886887,1.76313338 19.8051203,1.87753377 C19.9200251,1.990409 20.0600526,2.04684866 20.2251925,2.04684866 C20.389569,2.04684866 20.5295965,1.98964592 20.6452647,1.87524553 C20.7609431,1.76084515 20.8187721,1.61898802 20.8187721,1.44891514 L20.8187721,1.44891514 Z M20.8994437,1.44524254 C20.8994437,1.63438232 20.8339903,1.79302016 20.7038674,1.92191098 C20.5737343,2.05080283 20.4131648,2.11486517 20.2221489,2.11486517 C20.0296162,2.11486517 19.8690366,2.052329 19.7419472,1.92725053 C19.6148679,1.80140899 19.5509414,1.64277216 19.5509414,1.45058107 C19.5509414,1.26219927 19.6156211,1.10356653 19.745001,0.973911599 C19.8743706,0.845020776 20.03494,0.780191272 20.2274727,0.780191272 C20.4162085,0.780191272 20.5744875,0.84196946 20.7023405,0.965522775 C20.8339903,1.09212639 20.8994437,1.25228325 20.8994437,1.44524254 L20.8994437,1.44524254 Z" id="path26"></path>
                            <path d="M3.47090151,3.68125547 L3.07898547,3.68125547 L3.07898547,1.42756408 C3.07898547,1.24985934 3.08962292,1.03249871 3.11093853,0.777003254 L3.10177709,0.777003254 C3.06450023,0.926488166 3.03101009,1.03478694 3.00132704,1.10190468 L1.85982234,3.68125547 L1.66804295,3.68125547 L0.523495631,1.1209675 C0.490761821,1.0492784 0.457290007,0.934114927 0.423043543,0.777003254 L0.413922824,0.777003254 C0.426117713,0.911234645 0.432948072,1.12935734 0.432948072,1.43214055 L0.432948072,3.68125547 L0.0539669636,3.68125547 L0.0539669636,0.324741257 L0.572973491,0.324741257 L1.60032976,2.66537526 C1.67794748,2.84155486 1.72893596,2.97578523 1.75253174,3.0680674 L1.76853372,3.0680674 C1.83549363,2.88426104 1.88877247,2.74698446 1.92985642,2.65622335 L2.97852524,0.324741257 L3.47089133,0.324741257" id="path28"></path>
                            <path d="M4.68090322,1.28494387 L4.68090322,3.68125547 L4.29811808,3.68125547 L4.29811808,1.28494387 L4.68090322,1.28494387 L4.68090322,1.28494387 Z M4.74634641,0.426175334 C4.74634641,0.496343366 4.72122371,0.555067177 4.67253577,0.603880077 C4.62382747,0.651925811 4.5637081,0.67633226 4.49369437,0.67633226 C4.42520755,0.67633226 4.3666049,0.652669512 4.31714332,0.606168309 C4.26843502,0.559643642 4.24408596,0.499394683 4.24408596,0.426175334 C4.24408596,0.355249319 4.26842485,0.296525508 4.31714332,0.249237757 C4.3666049,0.201187942 4.42520755,0.177548657 4.49369437,0.177548657 C4.5637081,0.177548657 4.62382747,0.201165498 4.67253577,0.249237757 C4.72123389,0.296525508 4.74634641,0.355249319 4.74634641,0.426175334 L4.74634641,0.426175334 Z" id="path30"></path>
                            <path d="M7.06740631,3.57143053 C6.88401473,3.6835437 6.66484265,3.73997826 6.41142716,3.73997826 C6.06897269,3.73997826 5.79272487,3.62634096 5.58193041,3.39830225 C5.37645977,3.17636617 5.27372954,2.89112574 5.27372954,2.54182297 C5.27372954,2.14828784 5.38635412,1.8310142 5.61161346,1.58924712 C5.83610936,1.34748514 6.13898642,1.22622006 6.51872793,1.22622006 C6.7272422,1.22622006 6.91140742,1.26665229 7.07197685,1.3482472 L7.07197685,1.74102026 C6.89466235,1.61670386 6.70440987,1.55416769 6.50198286,1.55416769 C6.25922517,1.55416769 6.0613687,1.6388231 5.90687636,1.80890006 C5.74630693,1.98354941 5.66639885,2.21616356 5.66639885,2.50674354 C5.66639885,2.78587726 5.73945621,3.00628819 5.88708766,3.16873941 C6.03396583,3.33118961 6.23106903,3.41203164 6.47915052,3.41203164 C6.68767498,3.41203164 6.88401473,3.34339284 7.06740631,3.20611115" id="path32"></path>
                            <path d="M8.89381994,1.67314454 C8.82684985,1.62128033 8.72944343,1.59611182 8.6015905,1.59611182 C8.44635506,1.59611182 8.31545851,1.66627985 8.20968464,1.80661183 C8.08944589,1.96371942 8.03007979,2.18184212 8.03007979,2.45945579 L8.03007979,3.68125547 L7.64653119,3.68125547 L7.64653119,1.28418078 L8.03007979,1.28418078 L8.03007979,1.778392 L8.03924122,1.778392 C8.09480024,1.60373858 8.18154886,1.4687492 8.29874398,1.37341266 C8.40757165,1.28646901 8.52933731,1.24223258 8.66479423,1.24223258 C8.76600773,1.24223258 8.842862,1.25367272 8.89385048,1.27503806" id="path34"></path>
                            <path d="M11.0276812,2.48767562 C11.0276812,2.18031697 10.9584207,1.94617665 10.8199202,1.7852567 C10.6859902,1.63119532 10.4987813,1.55340461 10.2567769,1.55340461 C10.0185796,1.55340461 9.82833727,1.63195841 9.68526619,1.78754493 C9.53382766,1.9545665 9.45849012,2.19099403 9.45849012,2.49682753 C9.45849012,2.78435211 9.53078402,3.00857642 9.67537184,3.16950148 C9.8207231,3.33118961 10.0140192,3.41203164 10.2567769,3.41203164 C10.5094289,3.41203164 10.7012083,3.33042653 10.8336216,3.16645118 C10.9629913,3.00705127 11.0276812,2.78130182 11.0276812,2.48767562 M11.4203505,2.47393807 C11.4203505,2.85603713 11.3122964,3.16262862 11.0976847,3.39371762 C10.8830832,3.62404354 10.5931441,3.73996908 10.2293842,3.73996908 C9.8694314,3.73996908 9.58481614,3.62404354 9.3740115,3.39371762 C9.16854086,3.17025538 9.06581063,2.87586712 9.06581063,2.51130981 C9.06581063,2.09412723 9.18300575,1.77228121 9.41663254,1.54424352 C9.63276098,1.33222142 9.92270006,1.22621087 10.284933,1.22621087 C10.6418524,1.22621087 10.9203804,1.33679788 11.1197638,1.55873498 C11.3199004,1.77990797 11.4203505,2.08497431 11.4203505,2.47393807" id="path36"></path>
                            <path d="M13.319058,3.03984757 C13.319058,3.23661513 13.2460007,3.39982842 13.0991327,3.52872026 C12.9393165,3.66981431 12.7201444,3.73997826 12.4431433,3.73997826 C12.2156038,3.73997826 12.0185006,3.69117046 11.8503272,3.59430775 L11.8503272,3.18246778 C12.0367726,3.33576608 12.24376,3.41203164 12.4712995,3.41203164 C12.77494,3.41203164 12.9263785,3.30068155 12.9263785,3.07721931 C12.9263785,2.98341199 12.8929088,2.90637926 12.8259285,2.84536824 C12.7589584,2.78435211 12.6288253,2.71189993 12.4340124,2.62571937 C12.2331022,2.53800959 12.0908047,2.44801565 12.0063261,2.35420731 C11.9051126,2.24362031 11.8548876,2.09871186 11.8548876,1.92101222 C11.8548876,1.72118926 11.9332687,1.55569284 12.0908047,1.4237507 C12.2475671,1.29180754 12.4499941,1.22622006 12.6980756,1.22622006 C12.8875748,1.22622006 13.0580385,1.26357445 13.2094771,1.33833221 L13.2094771,1.72424057 C13.0519513,1.61060225 12.8715932,1.55340461 12.6676392,1.55340461 C12.5397965,1.55340461 12.4378195,1.58469412 12.3617185,1.64721193 C12.2848541,1.70974912 12.2468036,1.78983214 12.2468036,1.88821592 C12.2468036,1.99422749 12.2787566,2.07735673 12.3426933,2.13608462 C12.4005325,2.19099403 12.5200078,2.2573497 12.7026461,2.33514041 C12.9066,2.42132097 13.053468,2.50903075 13.1440339,2.59978778 C13.2604656,2.71571331 13.319058,2.86214793 13.319058,3.03984757" id="path38"></path>
                            <path d="M15.6591432,2.48767562 C15.6591432,2.18031697 15.5899031,1.94617665 15.4513924,1.7852567 C15.3174522,1.63119532 15.12949,1.55340461 14.8882491,1.55340461 C14.6500619,1.55340461 14.4597993,1.63195841 14.3159749,1.78754493 C14.1652998,1.9545665 14.0899521,2.19099403 14.0899521,2.49682753 C14.0899521,2.78435211 14.1622562,3.00857642 14.306844,3.16950148 C14.4521953,3.33118961 14.6454914,3.41203164 14.8882491,3.41203164 C15.1409113,3.41203164 15.3326805,3.33042653 15.4650938,3.16645118 C15.5944634,3.00705127 15.6591432,2.78130182 15.6591432,2.48767562 M16.0518227,2.47393807 C16.0518227,2.85603713 15.9437686,3.16262862 15.7291671,3.39371762 C15.5145554,3.62404354 15.2246163,3.73996908 14.8600929,3.73996908 C14.5009036,3.73996908 14.2162781,3.62404354 14.0054837,3.39371762 C13.800013,3.17025538 13.6972828,2.87586712 13.6972828,2.51130981 C13.6972828,2.09412723 13.8144779,1.77228121 14.0481047,1.54424352 C14.264223,1.33222142 14.5534088,1.22621087 14.9164052,1.22621087 C15.2733144,1.22621087 15.5510891,1.33679788 15.7512258,1.55873498 C15.9513726,1.77990797 16.0518227,2.08497431 16.0518227,2.47393807" id="path40"></path>
                            <path d="M17.7397358,0.470411769 C17.6651515,0.428463566 17.5799196,0.407112514 17.4848035,0.407112514 C17.2176866,0.407112514 17.0837464,0.576422311 17.0837464,0.915048026 L17.0837464,1.28494387 L17.6438461,1.28494387 L17.6438461,1.61060225 L17.0837464,1.61060225 L17.0837464,3.68125547 L16.7001978,3.68125547 L16.7001978,1.61060225 L16.2938271,1.61060225 L16.2938271,1.28494387 L16.7001978,1.28494387 L16.7001978,0.896743188 C16.7001978,0.63286299 16.7823963,0.426175334 16.9452459,0.275932438 C17.0860266,0.147040595 17.2580173,0.082211091 17.4619712,0.082211091 C17.5799196,0.082211091 17.6727657,0.0959496655 17.7397358,0.124160314" id="path42"></path>
                            <path d="M19.2510876,3.65761108 C19.1605319,3.7094702 19.0410464,3.73463973 18.8911348,3.73463973 C18.4741063,3.73463973 18.265592,3.49973735 18.265592,3.02840743 L18.265592,1.60984019 L17.8546405,1.60984019 L17.8546405,1.28418078 L18.265592,1.28418078 L18.265592,0.699212542 C18.386584,0.660297292 18.5144369,0.619133597 18.6483771,0.575660247 L18.6483771,1.28418078 L19.2510876,1.28418078 L19.2510876,1.60984019 L18.6483771,1.60984019 L18.6483771,2.96281892 C18.6483771,3.12373989 18.6757393,3.23737719 18.7305654,3.30525802 C18.7845873,3.37313373 18.8759166,3.40745518 19.0037594,3.40745518 C19.0981222,3.40745518 19.1810739,3.38154194 19.2510876,3.32966446" id="path44"></path>
                        </g>
                        <path d="M59.3838788,39.7685778 C59.3838788,39.7190058 59.3701736,39.6839222 59.3428014,39.6618045 C59.3115835,39.6358911 59.258333,39.6236698 59.1845131,39.6236698 L59.0779662,39.6236698 L59.0779662,39.9165315 L59.206584,39.9165315 C59.3245303,39.9165315 59.3838941,39.8669564 59.3838941,39.7685732 L59.3838788,39.7685778 Z M59.5490235,40.3787099 L59.4036821,40.3787099 L59.3100743,40.1727902 C59.2628912,40.0698296 59.2119083,40.0179666 59.157118,40.0179666 L59.0779662,40.0179666 L59.0779662,40.3787099 L58.9577293,40.3787099 L58.9577293,39.5199422 L59.1997352,39.5199422 C59.3062668,39.5199422 59.3869431,39.5443394 59.4424919,39.5923982 C59.4889166,39.6335663 59.5125043,39.6877311 59.5125043,39.7540817 C59.5125043,39.8128093 59.4934748,39.8631476 59.455431,39.9043287 C59.4173796,39.9462777 59.3633477,39.9737343 59.2948599,39.988222 L59.2948599,39.9918919 C59.3428014,40.0025507 59.3899845,40.0551953 59.4371676,40.1497658 L59.5490235,40.3785663 L59.5490235,40.3787099 Z M59.8161416,39.9584805 C59.8161416,39.788403 59.7583176,39.6473077 59.6433974,39.5336706 C59.5284848,39.4200335 59.3884676,39.3635977 59.2225645,39.3635977 C59.0513371,39.3635977 58.9097955,39.4207951 58.7971582,39.5351954 C58.6837701,39.6495964 58.6274553,39.7906909 58.6274553,39.9584805 C58.6274553,40.1293158 58.6860607,40.272699 58.8024901,40.3870992 C58.917395,40.4999747 59.0574275,40.5564143 59.2225645,40.5564143 C59.3869431,40.5564143 59.5269679,40.4992115 59.6426389,40.3848113 C59.7583176,40.270411 59.8161416,40.1285534 59.8161416,39.9584805 L59.8161416,39.9584805 Z M59.8968179,39.9548106 C59.8968179,40.14395 59.8313637,40.3025879 59.7012367,40.4314789 C59.5711097,40.5603706 59.4105385,40.6244334 59.2195232,40.6244334 C59.026991,40.6244334 58.8664045,40.5618969 58.7393188,40.4368187 C58.6122408,40.3109772 58.5483111,40.1523401 58.5483111,39.9601488 C58.5483111,39.7717671 58.6129916,39.6131346 58.7423755,39.4834797 C58.8717441,39.3545888 59.0323153,39.289759 59.2248474,39.289759 C59.4135799,39.289759 59.5718605,39.3515377 59.6997122,39.4750904 C59.8313637,39.6016942 59.8968179,39.7618515 59.8968179,39.9548106 L59.8968179,39.9548106 Z" id="path3151" fill="#231F1F"></path>
                        <g id="layer1-2" transform="translate(21.520865, 0.062134)">
                            <path d="M19.1064621,15.48263 L12.4876913,17.6458091 L6.73356137,20.1929474 L5.12152473,20.6199181 C4.71283986,21.0092387 4.27911608,21.4046691 3.81723766,21.8074638 C3.30951943,22.2502367 2.83204484,22.6514947 2.46898922,22.941507 C2.06470889,23.26445 1.46358814,23.8622015 1.15633468,24.245499 C0.699219886,24.815748 0.341758142,25.4238309 0.188064548,25.8914876 C-0.0884453067,26.7328501 0.0462757125,27.5850147 0.579559019,28.3714854 C1.26077781,29.376125 2.6168946,30.3968535 4.19407753,31.09172 C4.99858824,31.4461642 6.35619238,31.9030889 7.37418844,32.1607209 C9.0706805,32.5900643 12.3494697,33.0565416 14.155205,33.1258639 C14.5214259,33.1399164 15.0089528,33.1385972 15.0313586,33.1237638 C15.070989,33.0975318 15.3521013,32.5640834 15.6782667,31.8963536 C16.7880509,29.6243752 17.5909672,27.4944686 18.0230466,25.6753771 C18.2846668,24.5739278 18.4886294,23.1051796 18.6207576,21.363706 C18.6577648,20.875884 18.6711804,19.2489104 18.6427382,18.6959248 C18.5964588,17.7960732 18.5173697,17.0626379 18.3904667,16.3428642 C18.3718494,16.2373684 18.3649992,16.1445979 18.3747635,16.1361975 C18.3931669,16.1203662 18.4556816,16.1002661 19.2687108,15.8634395 L19.1064621,15.482628 L19.1064621,15.48263 Z M17.5938679,16.3722397 C17.6540186,16.3722397 17.8139723,17.9094907 17.8555621,18.8847587 C17.8643987,19.0919887 17.8626133,19.2246572 17.8503299,19.2246572 C17.8108241,19.2246572 17.0026955,18.7490754 16.4298524,18.3885495 C15.9295904,18.0737046 14.9802591,17.4414646 14.829329,17.3226957 C14.7817067,17.285219 14.7867379,17.2833891 15.1957044,17.1422561 C15.891538,16.9021235 17.5412845,16.3722397 17.5938679,16.3722397 L17.5938679,16.3722397 Z M14.2221988,17.4811051 C14.2649639,17.4810048 14.3814123,17.5454167 14.6566127,17.7181948 C15.6889622,18.3663277 17.0869334,19.1460936 17.6859846,19.408244 C17.8717309,19.4895262 17.8929379,19.45803 17.465116,19.7491915 C16.553181,20.3698159 15.4194531,20.98004 14.0275014,21.5997481 C13.7849007,21.7077535 13.5793907,21.7959239 13.5711068,21.7959239 C13.5628198,21.7959239 13.5898987,21.6725969 13.6307713,21.5210682 C13.9679709,20.2709817 14.1582497,19.0091928 14.163579,17.997247 C14.1662196,17.4967775 14.1663546,17.4941261 14.2138243,17.4821546 C14.2160499,17.4815932 14.2193481,17.4811121 14.2221988,17.4811071 L14.2221988,17.4811051 Z M13.5281871,17.7465198 C13.5580667,17.7765996 13.5364306,18.898089 13.499926,19.203676 C13.4123453,19.936789 13.2692196,20.6148192 13.0403891,21.3857383 C12.9857092,21.5699495 12.9344521,21.7287433 12.9262922,21.7382252 C12.906415,21.7613201 12.2221282,21.0931282 11.9946575,20.8286828 C11.6060004,20.3768479 11.2985359,19.9280082 11.0745425,19.4858753 C10.9607002,19.2611571 10.7791639,18.8173551 10.7960999,18.8050298 C10.872975,18.7490819 13.5094057,17.7276151 13.5281871,17.7465198 L13.5281871,17.7465198 Z M10.2591052,19.0379229 C10.2652587,19.0385393 10.2700383,19.0402134 10.2727115,19.043168 C10.2825798,19.0540644 10.3174265,19.1355225 10.3501732,19.2246572 C10.5095613,19.6585246 10.8679773,20.3030698 11.1792202,20.7153836 C11.5190259,21.1655374 11.9620583,21.6451791 12.3327682,21.963775 C12.4517993,22.0660731 12.5628515,22.1615526 12.5787623,22.1756868 C12.6105042,22.2038856 12.6211763,22.1991045 11.8051928,22.5092906 C10.8594993,22.8687825 9.82956496,23.2287692 8.64706911,23.6118617 C8.19643934,23.7578495 7.8150474,23.8812095 7.80022491,23.8867178 C7.75518179,23.9034558 7.76899604,23.8756571 7.90071561,23.6695603 C8.48827716,22.7502457 9.37835906,20.9519075 9.8759814,19.679953 C9.96229626,19.4593421 10.0444371,19.238392 10.0591691,19.1889889 C10.0808117,19.1164133 10.1021387,19.0917281 10.1701273,19.0610027 C10.2077346,19.0440061 10.2406384,19.0360749 10.2591052,19.0379229 L10.2591052,19.0379229 Z M9.25733802,19.4523051 C9.27064966,19.4640405 9.01698834,20.0009177 8.76744649,20.4887848 C8.28343386,21.4350536 7.74980552,22.3662625 7.04130995,23.5027587 C6.91906662,23.6988542 6.80641355,23.8781265 6.79113195,23.9003553 C6.76596952,23.9369619 6.75565558,23.9248982 6.67808029,23.770271 C6.50847229,23.4321954 6.36637178,23.0056447 6.29286645,22.6089523 C6.2201213,22.2163472 6.23249521,21.536649 6.32008287,21.1150788 C6.38515371,20.8018764 6.38228304,20.8087991 6.52943824,20.7332178 C7.16567077,20.40643 9.23661713,19.4340369 9.25733802,19.4523051 L9.25733802,19.4523051 Z M17.8859173,19.803743 L17.8859173,20.0167039 C17.884847,21.1352261 17.7657134,22.6665622 17.5928196,23.783909 C17.5624815,23.9799855 17.5362098,24.141752 17.5342003,24.1437393 C17.5322049,24.1457191 17.3911751,24.1043013 17.2212155,24.0514214 C16.4702129,23.817766 15.6560079,23.4687013 14.9214452,23.0652971 C14.4350005,22.7981506 13.7314296,22.3654009 13.7511522,22.3456361 C13.756512,22.3402621 13.9637334,22.2302098 14.2117343,22.1012031 C15.193986,21.5902411 16.1322832,21.0393616 16.9480051,20.4929809 C17.2540628,20.2879823 17.7120083,19.9561629 17.8136912,19.8666869 L17.8859173,19.803743 L17.8859173,19.803743 Z M5.47951915,21.2860766 C5.49991196,21.2850942 5.49473374,21.3238796 5.4627707,21.5084793 C5.44054896,21.636863 5.41542954,21.8793788 5.40624837,22.0466516 C5.36601188,22.7798273 5.48465086,23.3207487 5.84798454,24.0608627 C5.94900136,24.2666372 6.0280235,24.4381698 6.02384301,24.4416747 C5.98746543,24.4721921 2.67903826,25.442447 1.63889698,25.7278326 C1.33057177,25.8124298 1.06109322,25.8869516 1.03909553,25.8935857 C1.00300302,25.904474 0.999787265,25.896598 1.01292436,25.8117582 C1.12685073,25.0761837 1.68673376,24.1107464 2.46898922,23.3002882 C2.98905836,22.7614704 3.40547456,22.4422995 4.11347752,22.0372097 C4.62160434,21.7464822 5.41077044,21.3101699 5.46905468,21.2881747 C5.47297061,21.2866961 5.47660847,21.2862199 5.47951915,21.2860746 L5.47951915,21.2860766 Z M13.2832414,22.6865831 C13.2863821,22.682814 13.408955,22.7485732 13.5554036,22.8334526 C14.6240301,23.4528198 16.1152367,24.0337531 17.386606,24.325228 L17.5017517,24.3514549 L17.3436899,24.4395767 C16.6795548,24.8089109 14.4923775,25.7209369 12.2584452,26.5607932 C11.9323368,26.6833969 11.6141298,26.8036068 11.5518726,26.8283056 C11.4896154,26.8530039 11.4388209,26.8699388 11.4388209,26.8650229 C11.4388209,26.860106 11.5309642,26.6823785 11.6439893,26.4705734 C12.2711137,25.2954092 12.8971133,23.8673484 13.2183416,22.8764646 C13.2510913,22.7754457 13.2800926,22.6903538 13.2832414,22.6865831 L13.2832414,22.6865831 Z M12.4876913,22.9478013 C12.4911221,22.9512396 12.4520539,23.0565113 12.4008068,23.1806943 C11.964832,24.2372395 11.3936203,25.3898537 10.6652545,26.6845833 C10.4798963,27.0140781 10.3236505,27.2830926 10.3177246,27.2825523 C10.3117922,27.282011 10.1610366,27.1926132 9.98275608,27.0832295 C8.9218469,26.4323143 7.98317805,25.63109 7.36685921,24.8518608 L7.27892998,24.7417083 L7.73636985,24.6158202 C9.36803212,24.1678526 10.7517534,23.6887929 12.1275999,23.0946707 C12.3224208,23.0105431 12.4842645,22.9443654 12.4876913,22.9478013 L12.4876913,22.9478013 Z M17.4295226,24.6766664 C17.4318682,24.6771676 17.4326634,24.6788016 17.4326634,24.6808615 C17.4326634,24.7923173 17.1802749,25.8237447 16.9699883,26.5702336 C16.7935937,27.1964159 16.6455143,27.6861981 16.3712321,28.5540221 C16.250094,28.9373006 16.146096,29.2501271 16.1398925,29.2485057 C16.1336921,29.2468867 16.1046402,29.2412932 16.0749957,29.2359167 C14.5886767,28.9663439 13.2574178,28.5904227 12.0103602,28.088236 C11.6614734,27.9477385 11.1576671,27.7240828 11.1310674,27.6979826 C11.1220567,27.6891382 11.4233308,27.546899 11.7999596,27.382213 C14.0775747,26.3862985 16.4374282,25.2521515 17.2442434,24.7658362 C17.3412838,24.7073441 17.4131248,24.6732787 17.4295216,24.6766654 L17.4295226,24.6766664 Z M6.02175302,25.0679688 C6.0339659,25.0795634 5.39686266,25.9935636 4.50706533,27.2416388 C4.1977989,27.6754265 3.83449873,28.1867168 3.69999901,28.3777796 C3.5654988,28.5688435 3.36204232,28.8712593 3.24674613,29.0502329 L3.03634552,29.3754438 L2.81233219,29.1866119 C2.54948571,28.9654352 2.08940321,28.4958373 1.880704,28.2351064 C1.45122772,27.698573 1.1602171,27.1339302 1.04537301,26.6153447 C0.992354012,26.3759349 0.990793144,26.2539372 1.04118703,26.2387294 C1.1140192,26.2167472 2.45012177,25.9015139 3.70314176,25.6103373 C4.39915639,25.4485964 5.20383464,25.2592697 5.49208161,25.1896608 C5.78033559,25.1200533 6.01893685,25.0652963 6.02175402,25.0679688 L6.02175302,25.0679688 Z M6.66238009,25.3134508 L6.8235806,25.4938905 C7.54428205,26.298495 8.27723689,26.8989129 9.17150228,27.4168332 C9.32939301,27.508275 9.44973089,27.5877749 9.43947747,27.5941258 C9.40225569,27.6171816 6.34708124,28.705832 4.93415005,29.1992004 C4.13730714,29.4774427 3.48274478,29.7043197 3.47913043,29.7038024 C3.47551458,29.7032711 3.43037943,29.6736891 3.37968848,29.637711 L3.28757226,29.5716196 L3.43202382,29.3628554 C3.90082587,28.6822975 4.48984127,27.9338769 5.77890075,26.3793046 L6.66238009,25.3134508 L6.66238009,25.3134508 Z M10.6547836,28.1732116 C10.6583194,28.1687909 10.8816911,28.2481569 11.1520043,28.3494551 C11.803578,28.5936229 12.3149545,28.7528738 13.0068922,28.9264428 C13.8567611,29.1396267 15.0849403,29.3528096 15.8122543,29.4142593 C15.9239091,29.4236916 15.980904,29.4364615 15.9629898,29.4478295 C15.9292253,29.4692584 15.1927967,29.7157704 14.6513805,29.8863401 C13.7919483,30.1570953 11.1654665,30.934701 9.02390847,31.552261 C8.62663929,31.6668202 8.28696769,31.7636124 8.269181,31.7673204 C8.22121368,31.7773186 8.05354515,31.7332143 8.05354515,31.7106703 C8.05354515,31.6999549 8.17362796,31.5476498 8.31942634,31.3728704 C9.03925009,30.5099707 9.75433772,29.5462056 10.3512215,28.6348016 C10.514475,28.3855214 10.6512527,28.1776308 10.6547836,28.1732116 L10.6547836,28.1732116 Z M9.77025897,28.198389 C9.77669999,28.2048456 9.42186782,28.774256 8.79780465,29.759403 C8.53430201,30.175364 8.23550655,30.6488644 8.13309991,30.8116187 C8.03069676,30.974375 7.88064087,31.2217071 7.80022491,31.36238 L7.65367635,31.6183524 L7.57935682,31.5984202 C7.40002454,31.5497624 6.13504273,31.1019072 5.80088143,30.968979 C5.38672627,30.8042323 4.95511599,30.6052769 4.63686544,30.4329053 C4.23916766,30.217502 3.73477522,29.8978655 3.77432154,29.8852911 C3.78570723,29.8816723 4.47006811,29.6939591 5.29424146,29.4688113 C7.48674148,28.8698659 8.69949847,28.5257793 9.49495505,28.2770694 C9.6435871,28.2305985 9.7674113,28.1955391 9.77025897,28.198389 L9.77025897,28.198389 Z M15.997532,29.6618399 C16.0022531,29.6608124 16.0044421,29.6607923 16.0048612,29.6618399 C16.0255991,29.7138096 15.2139297,31.9668412 14.9172582,32.681059 C14.850814,32.8410341 14.8262272,32.8797944 14.7916451,32.8782838 C14.7076718,32.8746099 13.5307698,32.7097008 12.8184728,32.6013296 C11.5715387,32.411618 9.48291621,32.0460905 8.95586643,31.9257297 L8.83339204,31.8984537 L9.58079379,31.729554 C11.1827741,31.3678251 11.9521335,31.1738192 12.732637,30.9343597 C13.7169922,30.6323569 14.6917005,30.2558242 15.6761732,29.7971694 C15.8318164,29.7246584 15.9644807,29.6690393 15.997532,29.6618399 L15.997532,29.6618399 Z" id="path3639" fill="url(#linearGradient-1)"></path>
                            <path d="M12.285249,0.0238236502 C12.1745584,0.0108723096 10.3982106,0.652264397 9.25692392,1.11695339 C7.71049325,1.74660356 6.50979261,2.34990196 5.76906393,2.87099595 C5.49335491,3.0649538 5.14665866,3.41379044 5.09598621,3.54764485 C5.07702374,3.59773556 5.06812714,3.65628023 5.06772354,3.71654507 L5.73975402,4.35228047 L7.33399496,4.86212773 L11.131701,5.54192425 L15.4726842,6.28991028 L15.5166486,5.91644154 C15.5035155,5.91436651 15.491088,5.91222132 15.4779179,5.9101473 L14.9063776,5.81992748 L14.7901857,5.61535895 C14.2001961,4.57203123 13.5482099,3.28095449 13.1697751,2.40730738 C12.8766925,1.73070108 12.5952541,0.951270955 12.4391253,0.38680151 C12.3463985,0.0515562596 12.3367452,0.0298497326 12.285249,0.0238236502 L12.285249,0.0238236502 Z M12.2015068,0.281894649 C12.2059228,0.281097721 12.2081459,0.281067648 12.208834,0.281894649 C12.2123399,0.286099825 12.2325116,0.42603495 12.2527989,0.592419079 C12.338238,1.29314324 12.4946939,1.97273176 12.7395502,2.70419381 C12.9240602,3.25538412 12.9267058,3.22301028 12.7071,3.16158764 C12.1966476,3.01881665 9.90959083,2.62537558 8.25515869,2.39576795 C7.98858083,2.35877143 7.7667045,2.32587181 7.76317317,2.32233275 C7.74216722,2.30128081 8.95631253,1.66375909 9.49454195,1.41279077 C10.1848552,1.09090936 12.064645,0.306562342 12.2015068,0.281894649 L12.2015068,0.281894649 Z M7.38110007,2.52585224 L7.57475374,2.59194367 C8.63693172,2.95429652 11.299332,3.4639844 12.7709531,3.58646028 C12.9369742,3.60027771 13.0765671,3.61510108 13.0807991,3.61898147 C13.0850301,3.62286086 12.9439949,3.69838462 12.7678128,3.78683265 C12.0578899,4.14323209 11.2765312,4.57763429 10.7360192,4.91667924 C10.5772873,5.01624668 10.431713,5.09655201 10.4125654,5.0950208 C10.3934179,5.0934921 10.2887397,5.07663682 10.1791339,5.05830345 L9.97919974,5.02578276 L9.47674676,4.53691676 C8.59468575,3.68133185 7.90601686,3.01942964 7.63965354,2.7692362 L7.38110007,2.52585224 L7.38110007,2.52585224 Z M7.18430567,2.68321253 L7.88774005,3.56338093 C8.27497736,4.04749693 8.66306988,4.52794305 8.7492372,4.63133274 C8.83540402,4.73472293 8.90206524,4.82234195 8.89787925,4.82541038 C8.87791904,4.84004329 7.87836784,4.64500883 7.34864992,4.52327876 C6.80484518,4.39831085 6.57992564,4.3384926 6.24325375,4.23058849 L5.96899808,4.14246674 L5.97004332,4.07427723 C5.97352915,3.73617306 6.39875692,3.23747478 7.12045061,2.72727366 L7.18430417,2.68321253 L7.18430567,2.68321253 Z M13.1750094,3.88229767 C13.1961083,3.88393162 13.2183896,3.92690962 13.2807338,4.06378685 C13.4513485,4.4383738 13.9824343,5.45359651 14.1108275,5.64997823 C14.153111,5.71465273 14.2201453,5.71898171 13.5152116,5.60486857 C11.8210661,5.33062393 11.2729958,5.23882278 11.2730158,5.22825271 C11.2730278,5.22181062 11.3238223,5.18845991 11.3860675,5.15376897 C11.9107057,4.86137641 12.4400515,4.49335134 12.9112212,4.0952585 C13.0238782,4.00007467 13.1321333,3.90939123 13.1519799,3.89278855 C13.1601414,3.88596103 13.1679762,3.88175385 13.1750094,3.88229767 L13.1750094,3.88229767 Z" id="path3667" fill="url(#linearGradient-2)"></path>
                            <path d="M5.12602079,3.4799355 C5.12602079,3.4799355 5.01609387,3.65460117 5.11973981,3.91424949 C5.18387293,4.07491678 5.37645635,4.26791481 5.5886959,4.47235403 C5.5886959,4.47235403 7.81183515,6.64569524 8.08421188,6.96074462 C9.31597134,8.3854838 9.8509565,9.78812001 9.90037115,11.724563 C9.93207913,12.9672075 9.69293474,14.0595949 9.11214628,15.3291621 C8.0711678,17.6046876 5.87778357,20.114076 2.49023673,22.9044874 L2.98745749,22.7397824 C3.30705735,22.4998292 3.7410797,22.2435511 4.76488413,21.682321 C7.12269114,20.3898183 9.77041651,19.2009368 13.0229045,17.975964 C17.702405,16.2135422 25.3998707,14.1456923 29.7797065,13.4733618 L30.2361011,13.4030727 L30.1659671,13.2929222 C29.7654861,12.6690735 29.4921267,12.2843897 29.1631551,11.8766796 C28.2024981,10.686086 27.0395068,9.7146417 25.6145818,8.91515755 C23.6564775,7.816526 21.1167356,6.96267128 17.9061195,6.32291114 C17.2991529,6.20196396 15.9699174,5.97360286 14.8882604,5.80467107 C12.5970151,5.44682613 11.1192076,5.20517787 9.48689265,4.92030451 C8.90165564,4.81853975 8.02784658,4.67147888 7.44777129,4.54578873 C7.14551602,4.48029675 6.57109156,4.34416984 6.12464578,4.19015314 C5.75606987,4.0447167 5.23704947,3.90412799 5.12602079,3.4799355 L5.12602079,3.4799355 Z M6.41460466,4.73357064 C6.41772039,4.73074881 6.50122408,4.75663646 6.60302409,4.79127077 C6.79063683,4.85509772 7.03820871,4.92981853 7.32634516,5.01052433 C7.52819726,5.06706365 7.7501376,5.1263852 7.98581467,5.18676782 C8.28661311,5.26383832 8.53533376,5.33005556 8.53851251,5.33363773 C8.57181186,5.37116253 9.07699799,6.98699313 9.24927562,7.6069709 C9.31503012,7.84360352 9.36494389,8.04075811 9.36023428,8.04548154 C9.35552317,8.05020297 9.29948096,7.96307663 9.23671465,7.85245294 C8.65226783,6.82239834 7.72670957,5.77490453 6.65640818,4.93184594 C6.52300022,4.82676115 6.41460466,4.73754526 6.41460466,4.73357064 L6.41460466,4.73357064 Z M8.87766849,5.41546474 C8.90341406,5.41368543 9.01439273,5.43230398 9.14669193,5.46162394 C9.99898891,5.65051653 11.5208318,5.94496757 12.4995161,6.1099483 C12.662572,6.13743581 12.7968007,6.16703795 12.7968007,6.17604123 C12.7968007,6.18504151 12.7358833,6.22365395 12.6617678,6.26101436 C12.4975596,6.34379468 11.8331159,6.74238722 11.610804,6.89150607 C11.0558281,7.26376238 10.556856,7.6622206 10.1934683,8.02449977 C10.0474353,8.17008707 9.92523252,8.2888655 9.92130659,8.2888655 C9.91738067,8.2888655 9.89184914,8.20402319 9.86478076,8.10003305 C9.68310692,7.40212871 9.30747984,6.37156438 8.97083296,5.64626023 C8.91665868,5.5295468 8.87243625,5.42661372 8.87243625,5.41756331 C8.87243625,5.41642055 8.87397661,5.41571885 8.87766849,5.41548328 L8.87766849,5.41546474 Z M13.2102792,6.24108363 C13.2388014,6.25061068 13.2927081,6.41921017 13.3882311,6.79813713 C13.5711408,7.52372696 13.6562999,8.33859283 13.6279412,9.09245158 C13.6200493,9.30224174 13.6068112,9.49705968 13.5986313,9.52571552 L13.5829316,9.57816895 L13.3243761,9.49424336 C12.7913839,9.32350219 11.920546,9.06653236 11.1742966,8.8595585 C10.7503501,8.74197547 10.4028236,8.63700145 10.4028236,8.62666543 C10.4028236,8.59560627 11.0214305,7.97579992 11.2873482,7.7402008 C11.7952915,7.2901758 13.1618323,6.22489947 13.2102792,6.24108363 L13.2102792,6.24108363 Z M13.5546669,6.29038794 C13.570092,6.27600313 15.6250771,6.6326196 16.5589158,6.81177663 C17.254984,6.94531578 18.2620435,7.15668376 18.3227368,7.18209626 C18.3520362,7.19436645 18.2478176,7.25128469 17.9134453,7.40240087 C16.5908519,8.00013832 15.6110323,8.53362228 14.6370341,9.18686805 C14.3804781,9.35893543 14.1672774,9.49949056 14.1628458,9.49949056 C14.1584098,9.49949056 14.1546054,9.35587052 14.1544718,9.18057332 C14.1538017,8.22866733 13.9641725,7.26787483 13.6164285,6.45614104 C13.5790021,6.36878465 13.5509185,6.2938859 13.5546669,6.29038794 L13.5546669,6.29038794 Z M18.8681059,7.34365271 C18.8840166,7.3596023 18.8166142,7.76572106 18.758196,8.00561657 C18.5763681,8.75226136 18.094546,9.86045705 17.4999703,10.9020932 C17.395195,11.0856449 17.3014844,11.2386847 17.2906149,11.2419912 C17.2797418,11.2453142 17.1443509,11.1739515 16.990188,11.0835839 C16.4087799,10.7427726 15.7504592,10.4203609 15.0274832,10.1215865 C14.8258862,10.0382753 14.6541877,9.96409184 14.6454081,9.95583335 C14.6124373,9.92483133 16.2190202,8.85882323 17.0707915,8.34656212 C17.7520672,7.93683814 18.8489889,7.32449434 18.8681059,7.34365271 L18.8681059,7.34365271 Z M19.2480875,7.40345141 C19.2943529,7.40345141 20.2057063,7.65246148 20.6769359,7.79370477 C21.8507277,8.14552714 23.204755,8.64124822 24.0831477,9.04104568 L24.4484728,9.20679878 L24.1909656,9.26659699 C22.0417133,9.76142842 20.1995739,10.3324442 18.425321,11.0542098 C18.2778912,11.1141829 18.1495979,11.1633128 18.1405973,11.1633128 C18.1315937,11.1633128 18.1786468,11.0490839 18.2442268,10.9094385 C18.777557,9.77378231 19.1220253,8.58211763 19.2114483,7.57025155 C19.2195883,7.47814867 19.2361792,7.40345141 19.2480875,7.40345141 L19.2480875,7.40345141 Z M10.1892813,9.49004721 C10.2038357,9.47563884 10.8974888,9.63851799 11.2758355,9.74497259 C11.8445081,9.90497779 13.0545955,10.3107813 13.0553561,10.3418906 C13.0553561,10.3479432 12.9219952,10.4644486 12.7591163,10.6010121 C12.104893,11.149549 11.4738322,11.7230924 10.7179019,12.4547148 C10.4938011,12.6716082 10.3033717,12.8481168 10.293959,12.8481168 C10.2845462,12.8481168 10.2803628,12.8164537 10.285585,12.7778277 C10.3994273,11.9356287 10.3749711,10.8541918 10.2164977,9.7533649 C10.1964095,9.61382373 10.1842366,9.49503879 10.1892813,9.49004721 L10.1892813,9.49004721 Z M24.7960028,9.50368671 C24.8064062,9.51411344 24.4741794,10.0345153 24.2673801,10.3314002 C23.9656365,10.7645864 23.5282688,11.3332791 22.5318243,12.5889953 C22.0084169,13.2485924 21.4180402,13.9950257 21.2191663,14.2475743 C21.0202949,14.500123 20.8534025,14.7070662 20.8486074,14.7070662 C20.8438163,14.7070662 20.7796722,14.6166249 20.7062458,14.5066929 C20.1445329,13.6657088 19.4779927,12.9269766 18.6828277,12.2637843 C18.5344367,12.1400243 18.3670262,12.0042999 18.3112206,11.9627032 C18.2554179,11.9211066 18.2099192,11.8826214 18.2096846,11.8766796 C18.2091495,11.8629694 19.0583847,11.4979476 19.7065741,11.2335989 C20.8350117,10.7733952 22.3773214,10.2223302 23.5314961,9.86771161 C24.1401311,9.68070908 24.7867596,9.49442129 24.7960028,9.50368671 L24.7960028,9.50368671 Z M25.1791226,9.60439742 C25.1973484,9.60067341 25.31848,9.65942207 25.4638463,9.74287402 C26.6794164,10.4407177 27.8705698,11.3368743 28.8072512,12.2585406 C29.0736905,12.520707 29.7255342,13.2002449 29.7158534,13.2058475 C29.7133729,13.207291 29.4882428,13.2251572 29.2154939,13.2457124 C27.1090427,13.4044791 24.4159671,13.8535644 21.8231567,14.4783693 C21.6470602,14.520802 21.4948323,14.5560007 21.485048,14.5560007 C21.4752612,14.5560007 21.6680051,14.3621025 21.9131795,14.1258823 C23.435834,12.6588313 24.1304838,11.7324992 24.9477851,10.0775253 C25.0695108,9.83104287 25.1727211,9.6183993 25.1770291,9.60544445 C25.1772792,9.6046375 25.1779093,9.6046375 25.1791246,9.60440193 L25.1791226,9.60439742 Z M14.0456067,10.747882 C14.1151596,10.7635254 14.7645362,11.0663487 15.2546323,11.3122808 C15.7028235,11.537184 16.3816475,11.89939 16.4155095,11.9312311 C16.4197605,11.9352307 16.1806326,12.0603721 15.8837466,12.2092328 C14.9438485,12.6805012 14.1387681,13.1255512 13.2982084,13.640162 C13.0585114,13.7869106 12.857604,13.9076763 12.851233,13.9076763 C12.8302641,13.9076763 12.8385275,13.8895078 12.9726591,13.6433111 C13.4202807,12.8217004 13.7813568,11.8407426 13.9890808,10.8821624 C14.0076212,10.7966024 14.0299305,10.744357 14.0456067,10.747882 L14.0456067,10.747882 Z M13.3913699,10.8653773 C13.4049261,10.8789632 13.2364163,11.4992597 13.1296757,11.8305204 C12.9249494,12.4658698 12.5787928,13.264555 12.2461958,13.8657133 C12.1680844,14.0068964 12.0482362,14.2135575 11.9803146,14.3252057 L11.856795,14.5276741 L11.5762589,14.2559671 C11.250271,13.9392457 10.9847344,13.7425648 10.6456759,13.5677778 C10.512409,13.4990801 10.4040364,13.4354982 10.4038689,13.4261521 C10.4032337,13.3848341 11.256719,12.6069688 11.9154143,12.0487269 C12.386913,11.6491339 13.3793175,10.8532991 13.3913699,10.8653773 L13.3913699,10.8653773 Z M17.3670279,12.5040226 L17.6109284,12.66243 C18.1704464,13.026499 18.8329641,13.5162611 19.3381102,13.9380974 C19.6211885,14.1744955 20.1713432,14.6682087 20.2843949,14.7878432 L20.3451082,14.8518381 L19.9400051,14.9651372 C17.6487933,15.6022289 15.8786384,16.1693839 13.8132224,16.930041 C13.5840033,17.0144598 13.3860806,17.0842557 13.3725279,17.0842557 C13.3440352,17.0842557 13.315717,17.1105042 13.8310161,16.6352542 C15.1520951,15.4168508 16.3191123,14.0744328 17.1911694,12.7683879 L17.3670279,12.5040226 L17.3670279,12.5040226 Z M16.3223446,12.7662898 C16.3343129,12.7782843 15.6452624,13.7454517 15.2357903,14.2916354 C14.7459088,14.9450757 13.8734061,16.037416 13.2730855,16.7485539 C13.0222678,17.0456668 12.8073922,17.2922059 12.7957554,17.2961675 C12.7829899,17.300513 12.7750545,17.2277279 12.77482,17.1125788 C12.7736497,16.5058009 12.6204766,15.8573022 12.3498283,15.3081809 C12.2355138,15.0762476 12.2163603,15.0201118 12.2399154,14.9987075 C12.3341086,14.9131234 13.7915432,14.0802905 14.7103084,13.586661 C15.3414027,13.247589 16.3103392,12.7542582 16.3223446,12.7662898 L16.3223446,12.7662898 Z M10.0040001,14.3178604 C10.016518,14.3178604 10.1334286,14.3767258 10.2636008,14.4489957 C10.582578,14.6260848 10.8691471,14.8209333 11.1219577,15.0322777 C11.131712,15.0404319 11.0007997,15.1476048 10.8309536,15.2704145 C10.3568693,15.61321 9.63495206,16.1592493 9.21682396,16.4925809 C8.77568044,16.844259 8.76104898,16.8550416 8.81067469,16.778975 C9.14104409,16.2726056 9.30714826,15.9859129 9.48061167,15.6197558 C9.63481453,15.2942562 9.78849477,14.9078631 9.89827716,14.5717347 C9.94388341,14.4320928 9.99148264,14.3178604 10.0040001,14.3178604 L10.0040001,14.3178604 Z M11.687217,15.6417846 C11.7099919,15.6389628 11.742403,15.6814682 11.8777304,15.8841211 C12.1629362,16.3112111 12.3813422,16.8807698 12.4377575,17.3444248 L12.4492707,17.4440845 L11.765727,17.7095002 C10.5387307,18.1866975 9.40928685,18.6570627 8.64633243,19.0071965 C8.4328771,19.1051545 8.05602423,19.2855977 7.8099562,19.4089913 C7.56389168,19.5323819 7.3629843,19.6293596 7.3629843,19.6240487 C7.3629843,19.6187414 7.51751174,19.5023031 7.70632677,19.3649307 C9.20370987,18.2754974 10.4947493,17.0827686 11.4673942,15.8904158 C11.5714187,15.7628927 11.6659,15.6523021 11.6777978,15.6449338 C11.6809485,15.642984 11.6839648,15.6421821 11.687217,15.6417761 L11.687217,15.6417846 Z M10.9105089,15.8348132 C10.9303155,15.8546633 10.3580216,16.5032864 9.97259669,16.8975214 C9.0079242,17.8842501 8.05157218,18.6578516 6.8668118,19.4110894 C6.71857834,19.5053309 6.5831269,19.5905421 6.5653402,19.6009694 C6.53281804,19.620034 6.57585468,19.5710179 7.09605435,19.0030003 C7.42386816,18.6450547 7.67477633,18.3479081 7.959647,17.9770111 C8.14724924,17.732758 8.18308119,17.6984926 8.4579125,17.4996865 C9.19822008,16.9641616 10.8908192,15.815081 10.9105089,15.8348132 L10.9105089,15.8348132 Z" id="path2851" fill="url(#radialGradient-3)"></path>
                        </g>
                        <g id="g3525" transform="translate(37.459278, 32.227748)" fill="#231F1F">
                            <path d="M0.765315511,0.129228884 L0.48781378,0.129228884 L0.48781378,0.992911086 L0.374698378,0.992911086 L0.374698378,0.129228884 L0.0963841624,0.129228884 L0.0963841624,0.0272841275 L0.765315511,0.0272841275" id="path168"></path>
                            <path d="M1.90054321,0.992911086 L1.78742781,0.992911086 L1.78742781,0.343720877 C1.78742781,0.293158876 1.79086361,0.230357825 1.79718606,0.156959091 L1.79375025,0.156959091 C1.78316122,0.200195557 1.77423798,0.231173498 1.76526687,0.250747821 L1.43649562,0.992911086 L1.38116087,0.992911086 L1.05157573,0.255641437 C1.04260603,0.235251441 1.03284778,0.201812086 1.02309235,0.156959091 L1.02064223,0.156959091 C1.02407803,0.195282325 1.02554247,0.258088174 1.02554247,0.345352082 L1.02554247,0.992911086 L0.916490893,0.992911086 L0.916490893,0.0264685954 L1.06622718,0.0264685954 L1.36163311,0.700937477 C1.38442911,0.751504417 1.3990876,0.789837389 1.4055593,0.816747125 L1.41045955,0.816747125 C1.42997182,0.763738386 1.44546392,0.723774068 1.45683727,0.697675066 L1.75875293,0.0264685954 L1.90035171,0.0264685954" id="path170"></path>
                        </g>
                    </g>
                </g>
            </g>
        </g>
    </g>
</svg>