<?xml version="1.0" encoding="UTF-8" standalone="no"?>
<svg width="64px" height="64px" viewBox="0 0 64 64" version="1.1" xmlns="http://www.w3.org/2000/svg" xmlns:xlink="http://www.w3.org/1999/xlink">
    <!-- Generator: Sketch 3.6.1 (26313) - http://www.bohemiancoding.com/sketch -->
    <title>icons/skills/id-384</title>
    <desc>Created with Sketch.</desc>
    <defs>
        <linearGradient x1="0%" y1="38.4172916%" x2="100%" y2="38.4172916%" id="linearGradient-1">
            <stop stop-color="#7170AF" offset="0%"></stop>
            <stop stop-color="#6F60A6" offset="31.7403356%"></stop>
            <stop stop-color="#672A86" offset="100%"></stop>
        </linearGradient>
        <linearGradient x1="0%" y1="35.2442676%" x2="100%" y2="35.2442682%" id="linearGradient-2">
            <stop stop-color="#393C80" offset="0%"></stop>
            <stop stop-color="#44518F" offset="3.81334129%"></stop>
            <stop stop-color="#74B3D5" offset="12.6190949%"></stop>
            <stop stop-color="#82C6E1" offset="29.7259879%"></stop>
            <stop stop-color="#49659E" offset="54.1286377%"></stop>
            <stop stop-color="#84C4E0" offset="93.0260655%"></stop>
            <stop stop-color="#84C3DF" offset="100%"></stop>
        </linearGradient>
        <linearGradient x1="0%" y1="53.0352488%" x2="100%" y2="53.0352473%" id="linearGradient-3">
            <stop stop-color="#83C7E2" offset="0%"></stop>
            <stop stop-color="#7DBAD9" offset="18.5337496%"></stop>
            <stop stop-color="#40377F" offset="53.3707892%"></stop>
            <stop stop-color="#392875" offset="60.4767195%"></stop>
            <stop stop-color="#702E74" offset="96.6923228%"></stop>
            <stop stop-color="#893073" offset="98.1163651%"></stop>
            <stop stop-color="#8D3173" offset="100%"></stop>
        </linearGradient>
    </defs>
    <g id="Tools" stroke="none" stroke-width="1" fill="none" fill-rule="evenodd">
        <g id="icons/skills/id-384">
            <g id="visual-studio-logo" transform="translate(2.000000, 17.000000)">
                <path d="M43.8866041,25.7672118 C46.4958149,24.1383197 48.6408132,21.1553773 48.6408128,16.1540955 C48.6408126,13.357474 47.8302932,11.0689374 46.470715,9.25170315 C43.6156426,5.43556718 51.7856012,6.5807039 51.7856012,6.5807039 C51.7856012,6.5807039 59.600862,8.28798894 59.6838962,15.825812 C59.7777955,24.3499705 50.4358501,27.5466475 43.8866041,25.7672118 Z" id="Path-282" fill="url(#linearGradient-1)"></path>
                <path d="M43.8688347,25.7820508 C37.09955,24.7712462 30.7124808,21.4398394 27.1265273,15.6649326 C22.542373,8.28249893 17.1629196,4.72886354 11.5441774,4.72909872 C2.82281077,4.72946377 0.235228308,11.1388029 0.235228308,15.6649328 C0.235228308,21.2921553 5.92614631,27.537467 9.48449927,27.5374678 C9.71276685,27.537467 5.65902863,24.4756125 5.659029,19.579716 C5.65902937,14.6838194 9.00342317,11.1388024 14.5740017,11.1388028 C20.1445802,11.1388031 24.6124959,14.5412227 26.7402636,18.1444539 C28.8680314,21.7476851 32.1144137,29.9962912 43.2738209,29.9962912 C43.2738224,29.9962912 43.8688347,25.7820508 43.8688347,25.7820508 Z" id="Path-283" fill="url(#linearGradient-2)"></path>
                <path d="M32.130391,25.9166094 C34.5732686,28.3073165 38.0193199,29.9949919 43.1381492,29.9949921 C49.3543102,29.9949923 59.8115212,24.7093075 59.8115211,15.1432909 C59.8115211,5.57727426 51.3429313,0 44.0009386,0 C26.3732738,0 23.0704603,22.2966685 9.09760528,22.2966685 C2.24575836,22.2966685 0.388539141,17.1916582 0.388539141,14.7331993 C0.388539141,12.2747405 2.7106721,4.83952198 10.5869045,4.83952198 C2.50115423,4.83952198 0.0177992594,12.1937495 0.0177992456,15.4980924 C0.0177992319,18.8024353 2.86818967,28.610706 14.6933737,28.610705 C26.5185577,28.6107041 39.2868194,8.32813727 51.4915302,8.32738262 C57.7321586,8.32699674 59.062922,13.1187313 59.062922,16.2729463 C59.062922,19.4271614 55.6643103,26.1031644 47.6394371,26.1039014 C45.5008421,26.1040978 43.8718346,25.7754657 43.8718346,25.7754657 C43.8718346,25.7754657 41.3216776,27.4005068 38.3710152,27.4005068 C34.8224909,27.4005069 32.130391,25.9166094 32.130391,25.9166094 Z" id="Path-281" fill="url(#linearGradient-3)"></path>
                <path d="M57.6241465,25.3398058 L57.6241465,25.4891346 L57.2017595,25.4891346 L57.2017595,26.5933139 L57.0293914,26.5933139 L57.0293914,25.4891346 L56.6070045,25.4891346 L56.6070045,25.3398058 L57.6241465,25.3398058 Z M57.7751818,25.3398058 L58.0183743,25.3398058 L58.3784699,26.3996132 L58.7360055,25.3398058 L58.9766381,25.3398058 L58.9766381,26.5933139 L58.8153631,26.5933139 L58.8153631,25.8534967 C58.8153631,25.8278973 58.8159319,25.7855168 58.8170697,25.7263539 C58.8182074,25.667191 58.8187763,25.6037625 58.8187763,25.5360664 L58.4612407,26.5933139 L58.2931392,26.5933139 L57.9330436,25.5360664 L57.9330436,25.5744653 C57.9330436,25.6051845 57.9337547,25.6519737 57.9351769,25.7148343 C57.9365991,25.7776949 57.9373101,25.8239152 57.9373101,25.8534967 L57.9373101,26.5933139 L57.7751818,26.5933139 L57.7751818,25.3398058 Z" id="TM" fill="#000000"></path>
            </g>
        </g>
    </g>
</svg>