<?xml version="1.0" encoding="UTF-8" standalone="no"?>
<svg width="64px" height="64px" viewBox="0 0 64 64" version="1.1" xmlns="http://www.w3.org/2000/svg" xmlns:xlink="http://www.w3.org/1999/xlink">
    <!-- Generator: Sketch 3.6.1 (26313) - http://www.bohemiancoding.com/sketch -->
    <title>icons/skills/id-345</title>
    <desc>Created with Sketch.</desc>
    <defs></defs>
    <g id="Tools" stroke="none" stroke-width="1" fill="none" fill-rule="evenodd">
        <g id="icons/skills/id-345">
            <rect id="Rectangle-7" fill="#424242" x="7" y="7" width="50" height="50" rx="4"></rect>
            <rect id="Rectangle-7" fill="#757575" x="7" y="7" width="50" height="10" rx="4"></rect>
            <circle id="Oval-2" fill="#FBFBFB" cx="52" cy="12" r="2"></circle>
            <g id="Group-2" transform="translate(14.000000, 28.000000)">
                <path d="M0,11 C0,12.7 1.3,14 3,14 C4.7,14 6,12.7 6,11 C6,9.3 4.7,8 3,8 C1.3,8 0,6.7 0,5 C0,3.3 1.3,2 3,2 C4.7,2 6,3.3 6,5" id="XMLID_489_" stroke="#8BC34A" stroke-width="2"></path>
                <path d="M3,0 L3,2" id="XMLID_269_" stroke="#8BC34A" stroke-width="2"></path>
                <path d="M3,14 L3,16" id="XMLID_429_" stroke="#8BC34A" stroke-width="2"></path>
                <rect id="Rectangle-8" fill="#8BC34A" x="11" y="15" width="12" height="3"></rect>
            </g>
        </g>
    </g>
</svg>