<?xml version="1.0" encoding="UTF-8" standalone="no"?>
<svg width="64px" height="64px" viewBox="0 0 64 64" version="1.1" xmlns="http://www.w3.org/2000/svg" xmlns:xlink="http://www.w3.org/1999/xlink">
    <defs></defs>
    <g id="Technologies" stroke="none" stroke-width="1" fill="none" fill-rule="evenodd">
        <g id="icons/skills/id-335">
            <circle id="Oval-3" fill="#B5E389" cx="32" cy="32" r="30"></circle>
            <path d="M38,27 L38,23 C38,19.686 35.314,17 32,17 C28.686,17 26,19.686 26,23 L26,27" id="Stroke-5502" stroke="#394146" stroke-width="4" stroke-linecap="round" stroke-linejoin="round"></path>
            <path d="M43,45.0092049 C43,46.1086907 42.1103261,47 41.008845,47 L22.991155,47 C21.8914705,47 21,46.1017876 21,45.0092049 L21,28.9907951 C21,27.8913093 21.8896739,27 22.991155,27 L41.008845,27 C42.1085295,27 43,27.8982124 43,28.9907951 L43,45.0092049 Z" id="Stroke-5503" fill="#F0F0F0"></path>
            <path d="M32,38 L32,41" id="Stroke-5504" stroke="#394146" stroke-width="2" stroke-linecap="round" stroke-linejoin="round"></path>
            <path d="M29,35 C29,33.343 30.343,32 32,32 C33.657,32 35,33.343 35,35 C35,36.657 33.657,38 32,38 C30.343,38 29,36.657 29,35 L29,35 Z" id="Stroke-5505" stroke="#394146" stroke-width="2" stroke-linecap="round" stroke-linejoin="round" fill="#B7B7B7"></path>
        </g>
    </g>
</svg>