<?xml version="1.0" encoding="UTF-8" standalone="no"?>
<svg width="64px" height="64px" viewBox="0 0 64 64" version="1.1" xmlns="http://www.w3.org/2000/svg" xmlns:xlink="http://www.w3.org/1999/xlink">
    <defs></defs>
    <g id="Skills---Design" stroke="none" stroke-width="1" fill="none" fill-rule="evenodd">
        <g id="icons/skills/id-375">
            <rect id="Rectangle-7" fill="#5981A4" x="9" y="9" width="50" height="50" rx="4"></rect>
            <rect id="Rectangle-7" fill="#6EACE3" x="5" y="5" width="50" height="50" rx="4"></rect>
            <path d="M37.5,45 L22.5,45 C18.91,45 16,42.09 16,38.5 C16,34.91 18.91,32 22.5,32 L37.5,32 C41.09,32 44,34.91 44,38.5 C44,42.09 41.09,45 37.5,45 L37.5,45 Z" id="Stroke-5356" stroke="#394146" stroke-width="2" stroke-linecap="round" stroke-linejoin="round" fill="#D1D3D4"></path>
            <path d="M37.5,28 L22.5,28 C18.91,28 16,25.09 16,21.5 C16,17.91 18.91,15 22.5,15 L37.5,15 C41.09,15 44,17.91 44,21.5 C44,25.09 41.09,28 37.5,28 L37.5,28 Z" id="Stroke-5358" stroke="#394146" stroke-width="2" stroke-linecap="round" stroke-linejoin="round" fill="#FFFFFF"></path>
            <path d="M19,38.5 C19,36.567 20.567,35 22.5,35 C24.433,35 26,36.567 26,38.5 C26,40.433 24.433,42 22.5,42 C20.567,42 19,40.433 19,38.5 L19,38.5 Z" id="Stroke-5360" stroke="#394146" stroke-linecap="round" stroke-linejoin="round" fill="#394146"></path>
            <path d="M34,21.5 C34,19.567 35.567,18 37.5,18 C39.433,18 41,19.567 41,21.5 C41,23.433 39.433,25 37.5,25 C35.567,25 34,23.433 34,21.5 L34,21.5 Z" id="Stroke-5362" stroke="#5BC921" stroke-width="2" stroke-linecap="round" stroke-linejoin="round" fill="#5BC921"></path>
        </g>
    </g>
</svg>