<?xml version="1.0" encoding="UTF-8" standalone="no"?>
<svg width="64px" height="64px" viewBox="0 0 64 64" version="1.1" xmlns="http://www.w3.org/2000/svg" xmlns:xlink="http://www.w3.org/1999/xlink">
    <defs>
        <linearGradient x1="-0.000888928397%" y1="50%" x2="100.000667%" y2="50%" id="linearGradient-1">
            <stop stop-color="#AA2237" offset="7.98%"></stop>
            <stop stop-color="#B4313D" offset="98.16%"></stop>
        </linearGradient>
        <linearGradient x1="-0.00230645037%" y1="49.9992375%" x2="100.001538%" y2="49.9992375%" id="linearGradient-2">
            <stop stop-color="#B83A41" offset="3.68%"></stop>
            <stop stop-color="#BF4A50" offset="89.57%"></stop>
        </linearGradient>
        <linearGradient x1="49.9969331%" y1="99.9984793%" x2="49.9969331%" y2="-0.00304136253%" id="linearGradient-3">
            <stop stop-color="#A92237" offset="3.68%"></stop>
            <stop stop-color="#972235" offset="93.87%"></stop>
        </linearGradient>
        <linearGradient x1="49.9992288%" y1="100.001627%" x2="49.9992288%" y2="-0.00108453988%" id="linearGradient-4">
            <stop stop-color="#BC4245" offset="3.68%"></stop>
            <stop stop-color="#A42136" offset="93.87%"></stop>
        </linearGradient>
        <linearGradient x1="49.9992333%" y1="99.9992376%" x2="49.9992333%" y2="-0.000762427569%" id="linearGradient-5">
            <stop stop-color="#CC5057" offset="3.68%"></stop>
            <stop stop-color="#B73840" offset="89.57%"></stop>
        </linearGradient>
        <linearGradient x1="-9.58713603%" y1="69.378863%" x2="50.9408953%" y2="49.695857%" id="linearGradient-6">
            <stop stop-color="#D4575F" offset="7.98%"></stop>
            <stop stop-color="#B63540" offset="94.48%"></stop>
        </linearGradient>
        <linearGradient x1="-0.0044154984%" y1="50.0015367%" x2="100.004415%" y2="50.0015367%" id="linearGradient-7">
            <stop stop-color="#C04B51" offset="0%"></stop>
            <stop stop-color="#B83A41" offset="100%"></stop>
        </linearGradient>
        <linearGradient x1="-0.00330542089%" y1="50.0007726%" x2="99.9977964%" y2="50.0007726%" id="linearGradient-8">
            <stop stop-color="#BA4044" offset="0%"></stop>
            <stop stop-color="#B4303C" offset="100%"></stop>
        </linearGradient>
        <linearGradient x1="-21.0356985%" y1="39.0987421%" x2="55.7910974%" y2="50.7925172%" id="linearGradient-9">
            <stop stop-color="#972136" offset="0%"></stop>
            <stop stop-color="#9F2236" offset="100%"></stop>
        </linearGradient>
        <linearGradient x1="39.1583517%" y1="5.6851912%" x2="129.603169%" y2="82.3372332%" id="linearGradient-10">
            <stop stop-color="#B22C3A" offset="3.68%"></stop>
            <stop stop-color="#C04D53" offset="93.87%"></stop>
        </linearGradient>
        <linearGradient x1="49.9996169%" y1="99.9969549%" x2="49.9996169%" y2="-0.0015225335%" id="linearGradient-11">
            <stop stop-color="#B22C3A" offset="3.68%"></stop>
            <stop stop-color="#9B2135" offset="93.87%"></stop>
        </linearGradient>
        <linearGradient x1="0%" y1="49.9985574%" x2="100.001521%" y2="49.9985574%" id="linearGradient-12">
            <stop stop-color="#FFFFFF" offset="3.68%"></stop>
            <stop stop-color="#F4E6D9" offset="74.23%"></stop>
        </linearGradient>
        <linearGradient x1="15.6319789%" y1="13.5331882%" x2="97.9032258%" y2="80.18716%" id="linearGradient-13">
            <stop stop-color="#FFFFFF" offset="3.68%"></stop>
            <stop stop-color="#F4E6D9" offset="89.57%"></stop>
        </linearGradient>
    </defs>
    <g id="Platforms" stroke="none" stroke-width="1" fill="none" fill-rule="evenodd">
        <g id="icons/skills/id-326">
            <g id="rails" transform="translate(8.000000, 2.000000)">
                <g id="Group">
                    <path d="M47.587,53.221 C47.587,56.966 44.551,60 40.809,60 L0.413,60 L0.413,6.779 C0.413,3.035 3.448,0 7.192,0 L47.587,0 L47.587,53.221 L47.587,53.221 Z" id="Shape" fill="#80152A"></path>
                    <path d="M46.499,52.584 C46.499,56.188 43.794,58.894 40.188,58.894 L1.501,58.894 L1.501,7.417 C1.501,3.812 4.206,1.107 7.812,1.107 L46.499,1.107 L46.499,52.584 L46.499,52.584 Z" id="Shape" fill="url(#linearGradient-1)"></path>
                    <path d="M11.355,1.16 L11.5,14.274 L1.754,17.537 L11.355,1.16 Z" id="Shape" fill="#8A2034"></path>
                    <path d="M11.355,1.16 L11.5,14.274 L24.362,8.913 L11.355,1.16 Z" id="Shape" fill="url(#linearGradient-2)"></path>
                    <path d="M6.029,27.211 L11.5,14.274 L1.754,17.537 L6.029,27.211 Z" id="Shape" fill="#AE2338"></path>
                    <path d="M6.029,27.211 L11.428,40.363 L1.646,37.211 L6.029,27.211 Z" id="Shape" fill="url(#linearGradient-3)"></path>
                    <path d="M11.373,58.804 L11.428,40.363 L1.646,37.211 L11.373,58.804 Z" id="Shape" fill="#8A2034"></path>
                    <path d="M11.373,58.804 L1.646,58.807 L1.646,37.211 L11.373,58.804 Z" id="Shape" fill="#8C2033"></path>
                    <path d="M11.373,58.804 L11.428,40.363 L24.339,45.675 L11.373,58.804 Z" id="Shape" fill="url(#linearGradient-4)"></path>
                    <path d="M37.26,1.232 L37.405,14.348 L24.362,8.913 L37.26,1.232 Z" id="Shape" fill="url(#linearGradient-5)"></path>
                    <path d="M37.26,1.232 L37.405,14.348 L46.464,17.573 L37.26,1.232 Z" id="Shape" fill="url(#linearGradient-6)"></path>
                    <path d="M42.722,27.363 L37.405,14.348 L46.464,17.573 L42.722,27.363 Z" id="Shape" fill="url(#linearGradient-7)"></path>
                    <path d="M42.722,27.363 L37.37,40.307 L46.446,37.066 L42.722,27.363 Z" id="Shape" fill="url(#linearGradient-8)"></path>
                    <path d="M37.477,58.769 L37.37,40.307 L46.446,37.066 L37.477,58.769 Z" id="Shape" fill="url(#linearGradient-9)"></path>
                    <path d="M37.477,58.769 L37.37,40.307 L24.348,45.671 L37.477,58.769 Z" id="Shape" fill="url(#linearGradient-10)"></path>
                    <path d="M37.477,58.769 L11.377,58.807 L24.348,45.671 L37.477,58.769 Z" id="Shape" fill="url(#linearGradient-11)"></path>
                    <path d="M25.684,31.237 L28.619,32.582 L28.32,30.49 L25.643,29.05 L25.684,31.237 L25.684,31.237 Z M3.421,38.243 L7.243,38.678 L8.077,35.126 L4.417,34.476 L3.421,38.243 L3.421,38.243 Z M17.016,13.642 L14.517,11.793 L12.778,14.158 L15.522,15.871 L17.016,13.642 L17.016,13.642 Z M24.679,7.418 L23.076,5.326 L20.821,6.657 L22.696,8.696 L24.679,7.418 L24.679,7.418 Z M32.939,5.951 L32.423,4.241 L29.706,4.023 L30.494,5.898 L32.939,5.951 L32.939,5.951 Z M42.125,8.098 L39.843,6.467 L39.843,7.526 L42.043,8.886 L42.125,8.098 L42.125,8.098 Z M11.282,23.289 L8.157,21.93 L7.097,25.027 L10.304,26.223 L11.282,23.289 L11.282,23.289 Z M26.84,21.888 L26.282,23.805 L28.293,25.654 L28.796,23.873 L26.84,21.888 L26.84,21.888 Z M39.679,13.317 L41.35,13.399 L41.364,12.623 L39.625,12.269 L39.679,13.317 L39.679,13.317 Z M32.731,6.849 C24.693,6.458 10.304,14.076 8.238,44.637 L27.947,44.637 C23.528,33.188 24.04,24.55 27.079,18.696 C31.498,10.182 38.075,9.619 44.216,13.207 C44.433,12.691 44.732,12.038 44.732,12.038 C41.229,8.669 37.948,7.102 32.731,6.849 L32.731,6.849 Z M33.322,13.193 L34.055,14.945 L35.414,14.212 L34.911,12.595 L33.322,13.193 L33.322,13.193 Z M28.864,17.173 L30.358,19.226 L31.282,17.881 L29.978,15.856 L28.864,17.173 L28.864,17.173 Z M31.147,41.06 L30.223,38.818 L26.812,38.18 L27.71,40.76 L31.147,41.06 L31.147,41.06 Z" id="Shape" fill="#F7DEE1"></path>
                    <g transform="translate(13.000000, 6.000000)" id="Shape" fill="#FFFFFF">
                        <path d="M0.218,7.562 L2.575,6.577 L1.517,5.793 L0.218,7.562 Z"></path>
                        <path d="M9.696,2.697 L10.322,2.293 L8.114,0.977 L9.696,2.697 Z"></path>
                    </g>
                    <g transform="translate(3.000000, 34.000000)" id="Shape" fill="#D7C4C9">
                        <path d="M1.417,0.476 L0.533,3.818 L2.63,4.494 L4.243,4.678 L5.077,1.126 L1.417,0.476 Z"></path>
                        <path d="M6.354,1.31 C6.117,2.646 5.907,4.04 5.728,5.492 L8.428,6.362 L6.354,1.31 L6.354,1.31 Z"></path>
                    </g>
                    <g transform="translate(3.000000, 37.000000)" id="Shape" fill="#C2C3C6">
                        <path d="M0.533,0.818 L0.421,1.243 L2.63,1.494 L0.533,0.818 Z"></path>
                        <path d="M8.428,3.363 L5.728,2.493 C5.527,4.132 5.361,5.845 5.239,7.638 L8.415,7.638 L8.428,3.363 L8.428,3.363 Z"></path>
                    </g>
                    <path d="M11.415,44.637 L21.817,44.637 L11.428,40.363 L11.415,44.637 Z" id="Shape" fill="#DDC3C8"></path>
                    <path d="M40.457,6.906 L39.843,6.467 L39.843,7.526 L41.32,8.44 L40.457,6.906 L40.457,6.906 Z M42.107,9.838 C40.624,8.789 39.084,8.039 37.331,7.548 L37.37,11.125 C39.521,11.127 41.739,11.819 43.906,13.032 L42.107,9.838 L42.107,9.838 Z M39.679,13.317 L41.35,13.399 L41.364,12.623 L39.625,12.269 L39.679,13.317 L39.679,13.317 Z" id="Shape" fill="url(#linearGradient-12)"></path>
                    <path d="M37.331,7.548 C35.956,7.161 34.45,6.931 32.731,6.849 C30.37,6.735 27.458,7.312 24.473,8.959 L32.656,12.37 C34.158,11.515 35.745,11.122 37.369,11.124 L37.331,7.548 L37.331,7.548 Z M32.939,5.951 L32.423,4.241 L32.236,4.225 L30.28,5.388 L30.493,5.897 L32.939,5.951 L32.939,5.951 Z M34.011,12.933 L35.165,13.415 L34.911,12.596 L34.011,12.933 L34.011,12.933 Z" id="Shape" fill="url(#linearGradient-13)"></path>
                    <path d="M11.608,51.522 L11.608,50.068 C11.608,49.292 10.835,47.899 9.421,47.899 L4.815,47.899 L4.815,56.612 L7.17,56.612 L7.17,54.075 L9.072,56.612 L11.898,56.612 L9.687,53.676 C9.688,53.677 11.608,53.298 11.608,51.522 L11.608,51.522 Z M9.29,51.956 L7.152,51.956 L7.152,50.198 L9.29,50.198 L9.29,51.956 L9.29,51.956 Z M18.439,47.862 L16.3,47.862 C15.231,47.862 14.109,48.842 14.109,50.128 L14.109,56.576 L16.427,56.576 L16.427,54.875 L18.511,54.875 L18.511,56.576 L20.867,56.576 L20.867,50.111 C20.866,48.842 19.725,47.862 18.439,47.862 L18.439,47.862 Z M18.511,52.536 L16.427,52.536 L16.427,50.199 L18.511,50.199 L18.511,52.536 L18.511,52.536 Z M40.074,51.006 L37.805,51.006 L37.805,50.055 L41.786,50.055 L41.786,47.895 L37.791,47.895 C36.391,47.895 35.426,49.008 35.426,50.123 L35.426,51.047 C35.426,52.392 36.636,53.33 37.764,53.33 L39.87,53.33 L39.87,54.389 L35.577,54.389 L35.577,56.589 L39.815,56.589 C41.079,56.589 42.221,55.638 42.221,54.484 L42.221,53.329 C42.22,51.928 41.106,51.006 40.074,51.006 L40.074,51.006 Z M30.575,47.88 L28.24,47.88 L28.24,56.603 L34.068,56.603 L34.068,54.265 L30.575,54.265 L30.575,47.88 L30.575,47.88 Z M23.375,56.603 L25.712,56.603 L25.712,47.88 L23.375,47.88 L23.375,56.603 L23.375,56.603 Z" id="Shape" fill="#FFFFFF"></path>
                </g>
            </g>
        </g>
    </g>
</svg>