<?xml version="1.0" encoding="UTF-8" standalone="no"?>
<svg width="64px" height="64px" viewBox="0 0 64 64" version="1.1" xmlns="http://www.w3.org/2000/svg" xmlns:xlink="http://www.w3.org/1999/xlink">
    <defs>
        <path id="path-1" d="M35,27 L29,27 L29,21 L35,21 L35,27 Z"></path>
    </defs>
    <g id="Skills---Design" stroke="none" stroke-width="1" fill="none" fill-rule="evenodd">
        <g id="icons/skills/id-376">
            <rect id="Rectangle-7" fill="#53699A" x="9" y="9" width="50" height="50" rx="4"></rect>
            <rect id="Rectangle-7" fill="#6384D3" x="5" y="5" width="50" height="50" rx="4"></rect>
            <path d="M35,25.3942 C39.653,26.6762 43,30.9392 43,36.0002 L43,37.0002" id="Stroke-1419" stroke="#FFFFFF" stroke-width="2" stroke-linecap="round" stroke-linejoin="round"></path>
            <path d="M21,37 L21,36 C21,30.975 24.37,26.736 28.973,25.422" id="Stroke-1421" stroke="#FFFFFF" stroke-width="2" stroke-linecap="round" stroke-linejoin="round"></path>
            <path d="M23,24 L29,24" id="Stroke-1423" stroke="#FFFFFF" stroke-width="2" stroke-linecap="round" stroke-linejoin="round"></path>
            <path d="M35,24 L41,24" id="Stroke-1425" stroke="#FFFFFF" stroke-width="2" stroke-linecap="round" stroke-linejoin="round"></path>
            <path d="M17,24 C17,22.343 18.343,21 20,21 C21.657,21 23,22.343 23,24 C23,25.657 21.657,27 20,27 C18.343,27 17,25.657 17,24 L17,24 Z" id="Stroke-1476" stroke="#FFFFFF" stroke-width="2" stroke-linecap="round" stroke-linejoin="round"></path>
            <path d="M41,24 C41,22.343 42.343,21 44,21 C45.657,21 47,22.343 47,24 C47,25.657 45.657,27 44,27 C42.343,27 41,25.657 41,24 L41,24 Z" id="Stroke-1477" stroke="#FFFFFF" stroke-width="2" stroke-linecap="round" stroke-linejoin="round"></path>
            <g id="Stroke-1478">
                <use stroke="#FFFFFF" stroke-width="2" stroke-linecap="round" stroke-linejoin="round" fill="#F3531D" fill-rule="evenodd" xlink:href="#path-1"></use>
                <use stroke="none" fill="none" xlink:href="#path-1"></use>
            </g>
            <path d="M24,43 L18,43 L18,37 L24,37 L24,43 Z" id="Stroke-1479" stroke="#FFFFFF" stroke-width="2" stroke-linecap="round" stroke-linejoin="round" fill="#394146"></path>
            <path d="M46,43 L40,43 L40,37 L46,37 L46,43 Z" id="Stroke-1480" stroke="#FFFFFF" stroke-width="2" stroke-linecap="round" stroke-linejoin="round" fill="#394146"></path>
        </g>
    </g>
</svg>