<?xml version="1.0" encoding="UTF-8" standalone="no"?>
<svg width="64px" height="64px" viewBox="0 0 64 64" version="1.1" xmlns="http://www.w3.org/2000/svg" xmlns:xlink="http://www.w3.org/1999/xlink">
    <defs>
        <path id="path-1" d="M16,41 C16,39.343 17.343,38 19,38 C20.657,38 22,39.343 22,41 C22,42.657 20.657,44 19,44 C17.343,44 16,42.657 16,41 L16,41 Z"></path>
    </defs>
    <g id="Skills---Develop" stroke="none" stroke-width="1" fill="none" fill-rule="evenodd">
        <g id="icons/skills/id-373">
            <rect id="Rectangle-7" fill="#D1D3D4" x="9" y="9" width="50" height="50" rx="4"></rect>
            <rect id="Rectangle-7" fill="#F0F0F0" x="5" y="5" width="50" height="50" rx="4"></rect>
            <path d="M16,19 C16,17.343 17.343,16 19,16 C20.657,16 22,17.343 22,19 C22,20.657 20.657,22 19,22 C17.343,22 16,20.657 16,19 L16,19 Z" id="Stroke-1790" stroke="#05C14F" stroke-width="2" stroke-linecap="round" stroke-linejoin="round" fill="#05C14F"></path>
            <path d="M16,30 C16,28.343 17.343,27 19,27 C20.657,27 22,28.343 22,30 C22,31.657 20.657,33 19,33 C17.343,33 16,31.657 16,30 L16,30 Z" id="Stroke-1791" stroke="#05C14F" stroke-width="2" stroke-linecap="round" stroke-linejoin="round" fill="#05C14F"></path>
            <g id="Stroke-1792">
                <use stroke="#E0213E" stroke-width="2" stroke-linecap="round" stroke-linejoin="round" fill="#F31D3D" fill-rule="evenodd" xlink:href="#path-1"></use>
                <use stroke="none" fill="none" xlink:href="#path-1"></use>
            </g>
            <path d="M27,30 L44,30" id="Stroke-1794" stroke="#A3A3AE" stroke-width="4" stroke-linecap="round" stroke-linejoin="round"></path>
            <path d="M27,19 L44,19" id="Stroke-1794" stroke="#A3A3AE" stroke-width="4" stroke-linecap="round" stroke-linejoin="round"></path>
            <path d="M27,41 L44,41" id="Stroke-1795" stroke="#A3A3AE" stroke-width="4" stroke-linecap="round" stroke-linejoin="round"></path>
        </g>
    </g>
</svg>