<?xml version="1.0" encoding="UTF-8" standalone="no"?>
<svg width="64px" height="64px" viewBox="0 0 64 64" version="1.1" xmlns="http://www.w3.org/2000/svg" xmlns:xlink="http://www.w3.org/1999/xlink">
    <!-- Generator: Sketch 3.6.1 (26313) - http://www.bohemiancoding.com/sketch -->
    <title>icons/skills/id-383</title>
    <desc>Created with Sketch.</desc>
    <defs>
        <path id="path-1" d="M0,0.0789111748 L48.6806304,0.0789111748 L48.6806304,60 L0,60 L0,0.0789111748 Z"></path>
    </defs>
    <g id="Brands" stroke="none" stroke-width="1" fill="none" fill-rule="evenodd">
        <g id="icons/skills/id-383">
            <g id="Page-1" transform="translate(8.000000, 2.000000)">
                <path d="M24.340298,0.0789111748 L23.3429914,0.0789111748 L19.4772034,10.6248138 L23.3165158,10.5221777 C26.8998395,11.0339828 24.9036791,15.3347278 24.9036791,15.3347278 L20.8078625,26.9042407 L16.4055129,26.9042407 L21.4223037,13.2357593 L18.5555415,13.2357593 L13.641043,26.9042407 L9.34098567,26.9042407 L18.785914,0.905845272 C11.0643095,3.26527221 5.45009742,10.4135244 5.45009742,18.8669914 C5.45009742,27.724298 11.6149685,35.1452149 19.9080344,37.1295129 L29.3828768,10.5218338 L37.2153696,10.5218338 C40.1333639,11.1362751 39.1351977,13.9774212 39.1351977,13.9774212 L38.4440802,15.8204011 L35.6027622,23.8064183 C34.604596,27.0316332 32.5312436,26.9042407 32.5312436,26.9042407 L27.7702693,26.9042407 L23.8021891,37.645616 C24.0696963,37.6569628 24.0700401,37.6545559 24.340298,37.6545559 C34.7729054,37.6545559 43.2304986,29.2428653 43.2304986,18.8669914 C43.2304986,8.49094556 34.7729054,0.0789111748 24.340298,0.0789111748" id="Fill-1" fill="#0C95D3"></path>
                <path d="M32.6338797,13.1840458 L28.4543381,24.2479427 L31.3769742,24.2479427 L35.3177192,13.1840458 L32.6338797,13.1840458 Z" id="Fill-3" fill="#0C95D3"></path>
                <path d="M44.8060401,60 L5.20208596,60 L5.20208596,58.6246418 L43.4306819,58.6246418 L43.4306819,54.1102006 L44.8060401,54.1102006 L44.8060401,60 Z" id="Fill-5" fill="#104C91"></path>
                <path d="M5.88945559,49.6446877 L4.51409742,49.6446877 L4.51409742,43.7550602 L44.1180516,43.7550602 L44.1180516,45.1304183 L5.88945559,45.1304183 L5.88945559,49.6446877 Z" id="Fill-7" fill="#104C91"></path>
                <path d="M15.1061777,56.161341 L8.95368481,56.161341 L8.95368481,50.909192 L15.1061777,50.909192 L15.1061777,52.4097077 L10.4542006,52.4097077 L10.4542006,54.6606533 L15.1061777,54.6606533 L15.1061777,56.161341 Z" id="Fill-9" fill="#193859"></path>
                <mask id="mask-2" fill="white">
                    <use xlink:href="#path-1"></use>
                </mask>
                <g id="Clip-12"></g>
                <path d="M32.4125501,56.2110602 L30.9118625,56.2110602 L30.9118625,47.1575931 L32.4125501,47.1575931 L32.4125501,56.2110602 Z" id="Fill-11" fill="#193859" mask="url(#mask-2)"></path>
                <path d="M30.3624241,47.1575931 L24.2345158,47.1575931 L24.2350315,47.1538109 L22.6342865,47.1538109 C23.4847736,47.3788539 23.7098166,48.657937 23.7098166,48.657937 L23.959788,48.657937 L23.959788,48.6582808 L25.9607622,48.6582808 L25.9607622,56.2110602 L27.4614499,56.2110602 L27.4614499,48.6582808 L30.3624241,48.6582808 L30.3624241,47.1575931 Z" id="Fill-13" fill="#193859" mask="url(#mask-2)"></path>
                <path d="M19.802957,50.9105501 L17.3070258,50.9091748 L17.3070258,48.6582292 L20.6869685,48.6582292 C20.9231862,48.7106648 21.7432436,48.9642464 21.6614097,49.9462521 C21.5744183,50.992384 19.8175702,50.910894 19.802957,50.9105501 L19.802957,50.9105501 Z M23.8790029,55.8723266 L21.8991748,51.9597765 C22.5505788,51.609404 23.0776848,51.0204069 23.1567679,50.0712378 C23.3209513,48.1018968 21.7403209,47.310894 20.8817536,47.1678567 L15.8063381,47.1575415 L15.8063381,56.2110086 L17.3070258,56.2110086 L17.3070258,52.4096905 L19.7369398,52.4096905 C19.9418682,52.4206934 20.1804928,52.4158797 20.4344183,52.3887163 L22.4376275,56.3471691 L22.9408367,56.3471691 L24.1348195,56.3471691 L23.8790029,55.8723266 Z" id="Fill-14" fill="#193859" mask="url(#mask-2)"></path>
                <path d="M9.02599427,47.1537765 L5.21986246,53.6466705 L1.68880229,47.2823725 L1.3253639,47.2823725 L1.12576504,47.2823725 L3.43839542e-05,47.2823725 L0.253272206,47.7666705 L0.244160458,47.7714842 L0.450120344,48.1428309 L5.18410315,56.6746934 L9.88129513,48.6620287 L15.099404,48.7079312 L15.1129857,47.2074155 L9.02599427,47.1537765 Z" id="Fill-15" fill="#193859" mask="url(#mask-2)"></path>
                <path d="M43.9175931,47.0435931 C43.9315186,47.0673181 43.8123782,47.2459427 43.746361,47.3442808 L42.0247564,50.3668023 C41.8612607,50.6626762 41.695702,50.9570029 41.5330659,51.2539083 C40.8024069,52.5881777 39.6326648,54.4026189 37.9935817,54.6709857 C37.1264183,54.8123037 36.3658453,54.6474327 35.7297421,54.1804986 C35.3848711,53.9274327 35.0167908,53.5204986 34.8189112,53.1395244 C34.4797135,52.4870888 34.5424642,51.5564871 34.6805158,50.8584928 C34.8367908,50.0680057 35.3810888,49.3144814 36.0873352,48.9087507 C37.9186246,47.855914 39.6345559,49.3939083 39.7069341,49.4600974 L40.7267622,48.3591232 C39.8427507,47.536659 37.579255,46.3222178 35.34,47.60749 C34.834212,47.8978625 34.3158739,48.3611862 33.9555301,48.818149 C33.2546132,49.7062865 33.0593123,50.9580344 33.0969628,52.0612436 C33.1409742,53.3597536 33.7810315,54.6115014 34.8414327,55.3899542 C35.5887679,55.938894 36.4660745,56.2201547 37.4136963,56.2199828 C37.6824069,56.2199828 37.9569628,56.1972894 38.2358166,56.1515587 C41.3606304,55.6404413 43.326361,51.0455415 43.4052722,50.8574613 L43.8182235,50.0334499 L47.3570201,55.8237077 L48.6806304,55.1167736 L43.9175931,47.0435931 Z" id="Fill-16" fill="#193859" mask="url(#mask-2)"></path>
            </g>
        </g>
    </g>
</svg>