<?xml version="1.0" encoding="UTF-8" standalone="no"?>
<svg width="64px" height="64px" viewBox="0 0 64 64" version="1.1" xmlns="http://www.w3.org/2000/svg" xmlns:xlink="http://www.w3.org/1999/xlink">
    <defs></defs>
    <g id="Platforms" stroke="none" stroke-width="1" fill="none" fill-rule="evenodd">
        <g id="icons/skills/id-396" fill="#494949">
            <path d="M31.9511179,61.9999678 C48.4531437,61.9749319 61.8117201,48.5513584 61.8117201,31.9930019 C61.8117201,15.7037813 48.5147705,2.28839261 32.6290129,2.00481294 C15.9454769,1.70727095 2.00433444,15.2449503 2.00000131,31.6612763 C1.99518671,48.5503955 15.2940622,62.0240408 31.9511179,61.9999678 L31.9511179,61.9999678 Z M31.9024905,3.45737638 C47.7458796,3.45208032 60.3692673,16.3243826 60.3644527,32.4797575 C60.3591566,47.7319143 47.4011546,60.4910736 31.9140455,60.4944438 C16.1361349,60.497814 3.44775015,47.705434 3.44823161,31.7956035 C3.44919452,16.2959765 16.3349777,3.46267243 31.9024905,3.45737638 L31.9024905,3.45737638 Z M19.9449613,18.5106904 C20.2039865,19.3739473 19.4789085,19.6743781 18.7080918,19.7345605 C17.8968324,19.7971503 17.0860546,19.8582956 16.1443197,19.9300331 C19.2526225,29.1904259 22.3142237,38.3136028 25.4485253,47.6491033 C25.6719226,47.2836755 25.7638813,47.1806431 25.8043239,47.0602782 C27.5250603,41.9173274 29.2554259,36.7777468 30.9323495,31.6203522 C31.0854536,31.1499663 31.009383,30.5269576 30.8418351,30.0435722 C29.9545052,27.4822075 28.8914425,24.976692 28.1134039,22.3845138 C27.5813911,20.609854 26.8755714,19.461573 24.7778522,19.6671562 C24.4206092,19.7023027 23.9844069,18.9334119 23.584314,18.5362077 C24.0681808,18.247332 24.5486774,17.7158007 25.0368774,17.7085788 C29.3083865,17.6435817 33.5813399,17.6435817 37.8523675,17.7124305 C38.3424933,17.7206153 38.8229899,18.2661089 39.3068568,18.5622066 C38.8831724,18.9493 38.5177446,19.5299402 38.0223227,19.6796741 C37.227433,19.919441 36.3458806,19.8741838 35.3945165,19.9589207 C38.5061895,29.2149804 41.5538284,38.2818264 44.7102772,47.6717319 C46.1214351,42.9842418 47.4343753,38.6799935 48.711206,34.3646716 C49.8503392,30.5125138 49.1714813,26.9150481 47.1117974,23.5222027 C46.4926404,22.50199 45.7319343,21.5121092 45.3809503,20.3994562 C44.9823018,19.133699 44.6510577,17.6926906 44.8624184,16.4230818 C45.2211058,14.2714391 46.8720305,13.2030804 49.1060028,12.9984601 C36.8807821,1.65238456 17.6695835,5.71397725 10.5906839,18.0417488 C13.3157449,17.9160878 15.9175523,17.7509472 18.5212855,17.7153192 C19.0133371,17.7090602 19.829411,18.1250413 19.9449613,18.5106904 L19.9449613,18.5106904 Z M24.8158875,56.0505722 C24.7590753,56.2166758 24.755705,56.4015563 24.7109293,56.6774326 C29.9795411,58.1381808 35.1465649,58.0327412 40.4349165,56.2508594 L32.3560254,34.1229789 C29.7705876,41.6390438 27.291071,48.8436044 24.8158875,56.0505722 L24.8158875,56.0505722 Z M20.7446656,55.0500993 L8.57288696,21.6608802 C3.0818409,32.3868358 7.25898387,48.7516456 20.7446656,55.0500993 L20.7446656,55.0500993 Z M57.5416554,33.5952993 C57.927786,28.5236045 56.178162,21.5015171 54.6673419,20.5357092 C54.4988311,22.4013649 54.6163072,24.476937 54.0809242,26.3681101 C52.8209446,30.8240181 51.2802741,35.2024112 49.7964158,39.5928408 C48.1835263,44.3650677 46.5070842,49.115629 44.8580853,53.8758195 C52.6057322,49.2831769 56.8632789,42.5047081 57.5416554,33.5952993 L57.5416554,33.5952993 Z" id="Shape"></path>
        </g>
    </g>
</svg>