<?xml version="1.0" encoding="UTF-8" standalone="no"?>
<svg width="64px" height="64px" viewBox="0 0 64 64" version="1.1" xmlns="http://www.w3.org/2000/svg" xmlns:xlink="http://www.w3.org/1999/xlink">
    <defs></defs>
    <g id="Brands" stroke="none" stroke-width="1" fill="none" fill-rule="evenodd">
        <g id="icons/skills/id-327" fill="#F7A80D">
            <path d="M19.7937711,38.6003063 L14.2061064,41.0000613 L19.3815583,43.2125804 L25.3814357,41.0000613 L19.7937711,38.6003063 L19.7937711,38.6003063 Z M11.3936485,41.6 L11.2064127,52.3998775 L19.3815583,56 L19.3815583,44.7874196 L11.3936485,41.6 L11.3936485,41.6 Z M28.1938936,41.6 L20.8059226,44.412948 L20.8059226,54.9878485 L28.1938936,51.9876647 L28.1938936,41.6 L28.1938936,41.6 Z M37.0062289,8 L31.3813132,10.3997549 L36.5940161,12.6127642 L42.5938936,10.3997549 L37.0062289,8 L37.0062289,8 Z M29.2060451,11.1874196 L29.2060451,21.987297 L36.1813132,24.0125804 L36.4062902,14.1871132 L29.2060451,11.1874196 L29.2060451,11.1874196 Z M44.8064127,11.7873583 L38.2061064,14.5998162 L38.2061064,25.2124579 L44.8064127,22.2122741 L44.8064127,11.7873583 L44.8064127,11.7873583 Z M10.5873583,23.2004085 L5.0001838,25.6006535 L10.1751455,27.8131727 L16.175023,25.6006535 L10.5873583,23.2004085 L10.5873583,23.2004085 Z M2.18723578,26.2005923 L2,37.0004697 L10.1751455,40.6005923 L10.1751455,29.3880118 L2.18723578,26.2005923 L2.18723578,26.2005923 Z M18.9869907,26.2005923 L11.6,29.0130501 L11.6,39.5874604 L18.9869907,36.5877668 L18.9869907,26.2005923 L18.9869907,26.2005923 Z M28.5874809,22.8004493 L22.9998162,25.2006944 L28.1747779,27.4132135 L34.1746554,25.2006944 L28.5874809,22.8004493 L28.5874809,22.8004493 Z M20.1878485,25.8006331 L20.0001225,36.6010007 L28.175268,40.2011233 L28.175268,28.9880527 L20.1878485,25.8006331 L20.1878485,25.8006331 Z M36.9876034,25.8006331 L29.6001225,28.613091 L29.6001225,39.1884816 L36.9876034,36.1882978 L36.9876034,25.8006331 L36.9876034,25.8006331 Z M54.5877668,8 L49.0005923,10.3997549 L54.1760441,12.6127642 L60.1759216,10.3997549 L54.5877668,8 L54.5877668,8 Z M46.1881344,11.0001838 L46.0008986,21.8000613 L54.1760441,25.3996937 L54.1760441,14.1871132 L46.1881344,11.0001838 L46.1881344,11.0001838 Z M62.9878893,11.0001838 L55.6008986,13.8126417 L55.6008986,24.3875421 L62.9878893,21.3878485 L62.9878893,11.0001838 L62.9878893,11.0001838 Z" id="Shape"></path>
        </g>
    </g>
</svg>