<?xml version="1.0" encoding="UTF-8" standalone="no"?>
<svg width="64px" height="64px" viewBox="0 0 64 64" version="1.1" xmlns="http://www.w3.org/2000/svg" xmlns:xlink="http://www.w3.org/1999/xlink">
    <defs></defs>
    <g id="Frameworks" stroke="none" stroke-width="1" fill="none" fill-rule="evenodd">
        <g id="icons/skills/id-410" fill="#BB2031">
            <path d="M20.9186992,17.6178862 L29.4065041,17.6178862 L29.4065041,46.3821138 L25.6341463,46.3821138 L25.6341463,51.5691057 L38.8373984,51.5691057 L38.8373984,45.9105691 L35.5365854,45.9105691 L35.5365854,17.1463415 L44.495935,17.1463415 L44.495935,21.3902439 L49.2113821,21.3902439 L49.2113821,12.902439 L15.7317073,12.902439 L15.7317073,21.3902439 L20.9186992,21.3902439 L20.9186992,17.6178862 Z M59.6796748,3 L4.90079675,3 C3.94544715,3 3,3.57811382 3,4.52073171 L3,59.2925366 C3,60.235626 3.94544715,61 4.90079675,61 L59.6796748,61 C60.6350244,61 61,60.235626 61,59.2925366 L61,4.52073171 C61,3.57811382 60.6350244,3 59.6796748,3 L59.6796748,3 Z M52.0406504,24.2195122 L42.1382114,24.2195122 L42.1382114,19.9756098 L37.8943089,19.9756098 L37.8943089,42.6097561 L42.1382114,42.6097561 L42.1382114,53.9268293 L23.2764228,53.9268293 L23.2764228,43.0813008 L26.1056911,43.0813008 L26.1056911,20.4471545 L23.2764228,20.4471545 L23.2764228,24.2195122 L12.4308943,24.2195122 L12.4308943,10.0731707 L52.0406504,10.0731707 L52.0406504,24.2195122 L52.0406504,24.2195122 Z" id="Shape"></path>
        </g>
    </g>
</svg>