<?xml version="1.0" encoding="UTF-8" standalone="no"?>
<svg width="64px" height="64px" viewBox="0 0 64 64" version="1.1" xmlns="http://www.w3.org/2000/svg" xmlns:xlink="http://www.w3.org/1999/xlink">
    <defs></defs>
    <g id="Languages" stroke="none" stroke-width="1" fill="none" fill-rule="evenodd">
        <g id="icons/skills/id-403">
            <g id="Rectangle-22-+-Rectangle-25" transform="translate(8.000000, 4.000000)">
                <path d="M0,4.00490831 C0,1.79305852 1.79405245,0 4.00989318,0 L43.9901068,0 C46.2047097,0 48,1.78913646 48,4.00172845 L48,46 L38,56 L3.99484381,56 C1.7885525,56 0,54.200205 0,51.9950917 L0,4.00490831 Z" id="Rectangle-22" fill="#A3A3AE"></path>
                <path d="M38,50.009763 C38,47.795232 39.7877996,46 42.009763,46 L48,46 L38,56 L38,50.009763 Z" id="Rectangle-25" fill="#394146"></path>
            </g>
            <path d="M21.004,38.432 L22.792,38.432 L24.736,41.456 L26.764,38.432 L28.444,38.432 L25.612,42.56 L28.648,47 L26.824,47 L24.688,43.724 L22.516,47 L20.8,47 L23.836,42.56 L21.004,38.432 Z M29.428,38.432 L30.928,38.432 L30.928,43.424 C30.928,43.7120014 30.9419999,44.0039985 30.97,44.3 C30.9980001,44.5960015 31.0779993,44.8619988 31.21,45.098 C31.3420007,45.3340012 31.5419987,45.5279992 31.81,45.68 C32.0780013,45.8320008 32.4559976,45.908 32.944,45.908 C33.4320024,45.908 33.8099987,45.8320008 34.078,45.68 C34.3460013,45.5279992 34.5459993,45.3340012 34.678,45.098 C34.8100007,44.8619988 34.8899999,44.5960015 34.918,44.3 C34.9460001,44.0039985 34.96,43.7120014 34.96,43.424 L34.96,38.432 L36.46,38.432 L36.46,43.916 C36.46,44.4680028 36.3760008,44.947998 36.208,45.356 C36.0399992,45.764002 35.8020015,46.1059986 35.494,46.382 C35.1859985,46.6580014 34.8160022,46.8639993 34.384,47 C33.9519978,47.1360007 33.4720026,47.204 32.944,47.204 C32.4159974,47.204 31.9360022,47.1360007 31.504,47 C31.0719978,46.8639993 30.7020015,46.6580014 30.394,46.382 C30.0859985,46.1059986 29.8480008,45.764002 29.68,45.356 C29.5119992,44.947998 29.428,44.4680028 29.428,43.916 L29.428,38.432 Z M38.188,38.432 L39.688,38.432 L39.688,45.704 L44.044,45.704 L44.044,47 L38.188,47 L38.188,38.432 Z" id="XUL" fill="#FFFFFF"></path>
            <g id="Fill-147-+-Fill-148" transform="translate(24.000000, 16.000000)" fill="#FCFCFC">
                <path d="M9,10 L6,7 L12.4,0.6 C13.2,-0.2 14.6,-0.2 15.4,0.6 C16.2,1.4 16.2,2.8 15.4,3.6 L9,10" id="Fill-147"></path>
                <path d="M1.4,10.3 C2.6,9.1 4.5,9.1 5.6,10.3 C6.7,11.5 6.8,13.4 5.6,14.5 C4.4,15.6 0,16 0,16 C0,16 0.2,11.5 1.4,10.3" id="Fill-148"></path>
            </g>
        </g>
    </g>
</svg>