<?xml version="1.0" encoding="UTF-8" standalone="no"?>
<svg width="64px" height="64px" viewBox="0 0 64 64" version="1.1" xmlns="http://www.w3.org/2000/svg" xmlns:xlink="http://www.w3.org/1999/xlink">
    <defs>
        <path d="M24.573913,2.32894737 L3.07826087,24.1692982 C-5.06086957,32.2429825 8.34782609,31.5701754 13.2,34.6236842 C15.4434783,36.072807 6,37.9359649 7.93043478,39.8508772 C9.80869565,41.7657895 19.2521739,43.5254386 21.1304348,45.3885965 C23.0086957,47.3035088 17.3217391,49.3219298 19.2,51.2368421 C21.026087,53.1517544 25.4086957,51.3403509 26.1913043,55.6877193 C26.7652174,58.8964912 34.226087,57.2921053 37.5652174,54.5491228 C39.6521739,52.7894737 33.9652174,52.7894737 35.8434783,50.8745614 C40.5391304,46.1649123 44.7130435,48.7526316 46.4347826,44.4052632 C47.373913,42.0763158 39.3391304,40.4201754 41.4782609,38.9192982 C46.5913043,35.3482456 65.373913,33.5368421 56.7130435,24.945614 L34.4347826,2.32894737 C31.6695652,-0.25877193 27.1304348,-0.25877193 24.573913,2.32894737 L24.573913,2.32894737 Z M19.4086957,35.8140351 C19.8782609,35.8140351 35.4782609,37.8842105 29.4782609,39.4885965 C27.1826087,40.1096491 16.6434783,35.8140351 19.4086957,35.8140351 L19.4086957,35.8140351 Z M49.2521739,44.4052632 C49.2521739,45.4921053 57.7565217,46.1131579 57.2869565,44.1464912 C56.6086957,40.8342105 50.1913043,41.0929825 49.2521739,44.4052632 L49.2521739,44.4052632 Z M12.9913043,50.15 C14.9217391,51.8061404 17.8434783,49.7877193 18.7826087,47.4587719 C16.9043478,45.0263158 9.96521739,47.6140351 12.9913043,50.15 L12.9913043,50.15 Z M48.2086957,46.6824561 C45.8086957,48.8561404 48.626087,51.1333333 50.973913,49.6324561 C51.6,49.2184211 50.9217391,47.2 48.2086957,46.6824561 L48.2086957,46.6824561 Z" id="path-1"></path>
        <linearGradient x1="20.5296475%" y1="6.66666667%" x2="15%" y2="13.3333333%" id="linearGradient-3">
            <stop stop-color="#C0CDF9" offset="0%"></stop>
            <stop stop-color="#07092D" stop-opacity="0.28804347" offset="100%"></stop>
        </linearGradient>
        <linearGradient x1="66.1748648%" y1="10.2011529%" x2="46.4308259%" y2="28.336536%" id="linearGradient-4">
            <stop stop-color="#C0CDF9" offset="0%"></stop>
            <stop stop-color="#07092D" stop-opacity="0.28804347" offset="100%"></stop>
        </linearGradient>
        <linearGradient x1="33.7622322%" y1="38.3969037%" x2="77.1115645%" y2="81.5363335%" id="linearGradient-5">
            <stop stop-color="#FFFFFF" offset="0%"></stop>
            <stop stop-color="#FFFFFF" stop-opacity="0" offset="100%"></stop>
        </linearGradient>
        <linearGradient x1="47.8465668%" y1="23.1695835%" x2="103.696896%" y2="119.207604%" id="linearGradient-6">
            <stop stop-color="#FFFFFF" offset="0%"></stop>
            <stop stop-color="#FFFFFF" stop-opacity="0" offset="100%"></stop>
        </linearGradient>
        <radialGradient cx="0.000108031261%" cy="92.5624869%" fx="0.000108031261%" fy="92.5624869%" r="50.8448974%" id="radialGradient-7">
            <stop stop-color="#FFFFFF" offset="0%"></stop>
            <stop stop-color="#FFFFFF" stop-opacity="0" offset="100%"></stop>
        </radialGradient>
        <radialGradient cx="42.0905823%" cy="95.3639005%" fx="42.0905823%" fy="95.3639005%" r="50.8448974%" id="radialGradient-8">
            <stop stop-color="#FFFFFF" offset="0%"></stop>
            <stop stop-color="#FFFFFF" stop-opacity="0" offset="100%"></stop>
        </radialGradient>
        <radialGradient cx="50%" cy="50.0000084%" fx="50%" fy="50.0000084%" r="50%" id="radialGradient-9">
            <stop stop-color="#FFFFFF" offset="0%"></stop>
            <stop stop-color="#FFFFFF" stop-opacity="0" offset="100%"></stop>
        </radialGradient>
        <radialGradient cx="60.5839416%" cy="69.8276014%" fx="60.5839416%" fy="69.8276014%" r="50%" id="radialGradient-10">
            <stop stop-color="#FFFFFF" offset="0%"></stop>
            <stop stop-color="#FFFFFF" stop-opacity="0" offset="100%"></stop>
        </radialGradient>
        <linearGradient x1="60.6299213%" y1="-29.4871795%" x2="61.4173228%" y2="100%" id="linearGradient-11">
            <stop stop-color="#FFFFFF" offset="0%"></stop>
            <stop stop-color="#FFFFFF" stop-opacity="0" offset="100%"></stop>
        </linearGradient>
        <linearGradient x1="59.0645669%" y1="-20.5887179%" x2="59.0645669%" y2="70.6953846%" id="linearGradient-12">
            <stop stop-color="#FFFFFF" offset="0%"></stop>
            <stop stop-color="#FFFFFF" stop-opacity="0" offset="100%"></stop>
        </linearGradient>
        <radialGradient cx="50.0001774%" cy="49.9992297%" fx="50.0001774%" fy="49.9992297%" r="50%" id="radialGradient-13">
            <stop stop-color="#FFFFFF" offset="0%"></stop>
            <stop stop-color="#FFFFFF" stop-opacity="0" offset="100%"></stop>
        </radialGradient>
        <linearGradient x1="62.9639361%" y1="-12.863391%" x2="63.9242276%" y2="89.5431008%" id="linearGradient-14">
            <stop stop-color="#FFFFFF" offset="0%"></stop>
            <stop stop-color="#FFFFFF" stop-opacity="0" offset="100%"></stop>
        </linearGradient>
        <linearGradient x1="60.1976458%" y1="-30.3999907%" x2="60.1976458%" y2="73.5718792%" id="linearGradient-15">
            <stop stop-color="#FFFFFF" offset="0%"></stop>
            <stop stop-color="#FFFFFF" stop-opacity="0" offset="100%"></stop>
        </linearGradient>
        <radialGradient cx="44.0365075%" cy="57.4473305%" fx="44.0365075%" fy="57.4473305%" r="55.6063834%" id="radialGradient-16">
            <stop stop-color="#FFFFFF" offset="0%"></stop>
            <stop stop-color="#FFFFFF" stop-opacity="0" offset="100%"></stop>
        </radialGradient>
        <radialGradient cx="47.5274725%" cy="33.8032026%" fx="47.5274725%" fy="33.8032026%" r="50%" id="radialGradient-17">
            <stop stop-color="#FFFFFF" stop-opacity="0.33004926" offset="0%"></stop>
            <stop stop-color="#FFFFFF" stop-opacity="0" offset="100%"></stop>
        </radialGradient>
        <radialGradient cx="46.7166451%" cy="96.0636624%" fx="46.7166451%" fy="96.0636624%" r="50%" id="radialGradient-18">
            <stop stop-color="#FFFFFF" offset="0%"></stop>
            <stop stop-color="#FFFFFF" stop-opacity="0" offset="100%"></stop>
        </radialGradient>
        <radialGradient cx="54.02892%" cy="10.8806818%" fx="54.02892%" fy="10.8806818%" r="50.2238071%" id="radialGradient-19">
            <stop stop-color="#FFFFFF" offset="0%"></stop>
            <stop stop-color="#FFFFFF" stop-opacity="0" offset="100%"></stop>
        </radialGradient>
        <linearGradient x1="18.161009%" y1="49.9999405%" x2="72.2444338%" y2="71.2025345%" id="linearGradient-20">
            <stop stop-color="#FFFFFF" offset="0%"></stop>
            <stop stop-color="#FFFFFF" stop-opacity="0" offset="100%"></stop>
        </linearGradient>
        <linearGradient x1="64.1913173%" y1="-1.8044822%" x2="50.0916371%" y2="101.68436%" id="linearGradient-21">
            <stop stop-color="#EEEEEC" offset="0%"></stop>
            <stop stop-color="#EEEEEC" stop-opacity="0" offset="100%"></stop>
        </linearGradient>
        <radialGradient cx="51.1085726%" cy="48.8809937%" fx="51.1085726%" fy="48.8809937%" r="51.108793%" id="radialGradient-22">
            <stop stop-color="#FFFFFF" offset="0%"></stop>
            <stop stop-color="#FFFFFF" stop-opacity="0" offset="100%"></stop>
        </radialGradient>
        <linearGradient x1="44.9224492%" y1="29.9319578%" x2="83.5827051%" y2="69.3875996%" id="linearGradient-23">
            <stop stop-color="#FFFFFF" offset="0%"></stop>
            <stop stop-color="#FFFFFF" stop-opacity="0" offset="100%"></stop>
        </linearGradient>
        <linearGradient x1="39.2971806%" y1="77.2727314%" x2="15.0826072%" y2="33.0303034%" id="linearGradient-24">
            <stop stop-color="#729FCF" offset="0%"></stop>
            <stop stop-color="#729FCF" stop-opacity="0" offset="100%"></stop>
        </linearGradient>
    </defs>
    <g id="Tools" stroke="none" stroke-width="1" fill="none" fill-rule="evenodd">
        <g id="icons/skills/id-417">
            <g id="Inkscape_Logo_Standard_square" transform="translate(2.000000, 3.000000)">
                <g id="g9139">
                    <g id="g6035" transform="translate(0.000000, 0.770264)" fill="#000000">
                        <path d="M24.573913,2.06412535 L3.07826087,23.9044762 C-5.06086957,31.9781604 8.34782609,31.3053534 13.2,34.3588622 C15.4434783,35.807985 6,37.6711429 7.93043478,39.5860552 C9.80869565,41.5009675 19.2521739,43.2606166 21.1304348,45.1237745 C23.0086957,47.0386816 17.3217391,49.0571026 19.2,50.9720149 C21.026087,52.8869272 25.4086957,51.0755237 26.1913043,55.4228921 C26.7652174,58.631664 34.226087,57.0272781 37.5652174,54.2842956 C39.6521739,52.5246465 33.9652174,52.5246465 35.8434783,50.6097342 C40.5391304,45.9000903 44.7130435,48.4878044 46.4347826,44.1404411 C47.373913,41.8114938 39.3391304,40.1553534 41.4782609,38.6544762 C46.5913043,35.0834236 65.373913,33.2720201 56.7130435,24.680792 L34.4347826,2.06412535 C31.6695652,-0.5235955 27.1304348,-0.5235955 24.573913,2.06412535 L24.573913,2.06412535 Z M49.2521739,44.1404411 C49.2521739,45.2272832 57.7565217,45.8483359 57.2869565,43.8816692 C56.6086957,40.5693885 50.1913043,40.8281604 49.2521739,44.1404411 L49.2521739,44.1404411 Z M12.9913043,49.8851728 C14.9217391,51.5413132 17.8434783,49.5228921 18.7826087,47.1939447 C16.9043478,44.7614938 9.96521739,47.3492079 12.9913043,49.8851728 L12.9913043,49.8851728 Z M48.2086957,46.4176341 C45.8086957,48.5913132 48.626087,50.8685061 50.973913,49.3676289 C51.6,48.9535939 50.9217391,46.9351728 48.2086957,46.4176341 L48.2086957,46.4176341 Z" id="path5987"></path>
                        <path d="M24.573913,2.56956386 L3.07826087,24.4099147 C-5.06086957,32.4835989 8.34782609,31.8107919 13.2,34.8643007 C15.4434783,36.3134235 6,38.1765814 7.93043478,40.0914937 C9.80869565,42.006406 19.2521739,43.7660551 21.1304348,45.629213 C23.0086957,47.5441149 17.3217391,49.562536 19.2,51.4774482 C21.026087,53.3923605 25.4086957,51.580957 26.1913043,55.9283254 C26.7652174,59.1370974 34.226087,57.5327114 37.5652174,54.7897289 C39.6521739,53.0300798 33.9652174,53.0300798 35.8434783,51.1151675 C40.5391304,46.4055288 44.7130435,48.9932377 46.4347826,44.6458796 C47.373913,42.3169323 39.3391304,40.6607919 41.4782609,39.1599147 C46.5913043,35.5888621 65.373913,33.7774586 56.7130435,25.1862305 L34.4347826,2.56956386 C31.6695652,-0.0181554386 27.1304348,-0.0181554386 24.573913,2.56956386 L24.573913,2.56956386 Z M49.2521739,44.6458796 C49.2521739,45.7327218 57.7565217,46.3537744 57.2869565,44.3871077 C56.6086957,41.074827 50.1913043,41.3335989 49.2521739,44.6458796 L49.2521739,44.6458796 Z M12.9913043,50.3906061 C14.9217391,52.0467465 17.8434783,50.0283254 18.7826087,47.6993781 C16.9043478,45.2669323 9.96521739,47.8546412 12.9913043,50.3906061 L12.9913043,50.3906061 Z M48.2086957,46.9230726 C45.8086957,49.0967465 48.626087,51.3739395 50.973913,49.8730623 C51.6,49.4590272 50.9217391,47.4406061 48.2086957,46.9230726 L48.2086957,46.9230726 Z" id="path6021" opacity="0.5763547"></path>
                    </g>
                    <path d="M24.573913,2.32894737 L3.07826087,24.1692982 C-5.06086957,32.2429825 8.34782609,31.5701754 13.2,34.6236842 C15.4434783,36.072807 6,37.9359649 7.93043478,39.8508772 C9.80869565,41.7657895 19.2521739,43.5254386 21.1304348,45.3885965 C23.0086957,47.3035088 17.3217391,49.3219298 19.2,51.2368421 C21.026087,53.1517544 25.4086957,51.3403509 26.1913043,55.6877193 C26.7652174,58.8964912 34.226087,57.2921053 37.5652174,54.5491228 C39.6521739,52.7894737 33.9652174,52.7894737 35.8434783,50.8745614 C40.5391304,46.1649123 44.7130435,48.7526316 46.4347826,44.4052632 C47.373913,42.0763158 39.3391304,40.4201754 41.4782609,38.9192982 C46.5913043,35.3482456 65.373913,33.5368421 56.7130435,24.945614 L34.4347826,2.32894737 C31.6695652,-0.25877193 27.1304348,-0.25877193 24.573913,2.32894737 L24.573913,2.32894737 Z M49.2521739,44.4052632 C49.2521739,45.4921053 57.7565217,46.1131579 57.2869565,44.1464912 C56.6086957,40.8342105 50.1913043,41.0929825 49.2521739,44.4052632 L49.2521739,44.4052632 Z M12.9913043,50.15 C14.9217391,51.8061404 17.8434783,49.7877193 18.7826087,47.4587719 C16.9043478,45.0263158 9.96521739,47.6140351 12.9913043,50.15 L12.9913043,50.15 Z M48.2086957,46.6824561 C45.8086957,48.8561404 48.626087,51.1333333 50.973913,49.6324561 C51.6,49.2184211 50.9217391,47.2 48.2086957,46.6824561 L48.2086957,46.6824561 Z" id="use7631" fill="#000000"></path>
                    <path d="M24.573913,2.32894737 L3.07826087,24.1692982 C-5.06086957,32.2429825 8.34782609,31.5701754 13.2,34.6236842 C15.4434783,36.072807 6,37.9359649 7.93043478,39.8508772 C9.80869565,41.7657895 19.2521739,43.5254386 21.1304348,45.3885965 C23.0086957,47.3035088 17.3217391,49.3219298 19.2,51.2368421 C21.026087,53.1517544 25.4086957,51.3403509 26.1913043,55.6877193 C26.7652174,58.8964912 34.226087,57.2921053 37.5652174,54.5491228 C39.6521739,52.7894737 33.9652174,52.7894737 35.8434783,50.8745614 C40.5391304,46.1649123 44.7130435,48.7526316 46.4347826,44.4052632 C47.373913,42.0763158 39.3391304,40.4201754 41.4782609,38.9192982 C46.5913043,35.3482456 65.373913,33.5368421 56.7130435,24.945614 L34.4347826,2.32894737 C31.6695652,-0.25877193 27.1304348,-0.25877193 24.573913,2.32894737 L24.573913,2.32894737 Z M49.2521739,44.4052632 C49.2521739,45.4921053 57.7565217,46.1131579 57.2869565,44.1464912 C56.6086957,40.8342105 50.1913043,41.0929825 49.2521739,44.4052632 L49.2521739,44.4052632 Z M12.9913043,50.15 C14.9217391,51.8061404 17.8434783,49.7877193 18.7826087,47.4587719 C16.9043478,45.0263158 9.96521739,47.6140351 12.9913043,50.15 L12.9913043,50.15 Z M48.2086957,46.6824561 C45.8086957,48.8561404 48.626087,51.1333333 50.973913,49.6324561 C51.6,49.2184211 50.9217391,47.2 48.2086957,46.6824561 L48.2086957,46.6824561 Z" id="use7639"></path>
                    <g id="use7641-Clipped">
                        <mask id="mask-2" fill="white">
                            <use xlink:href="#path-1"></use>
                        </mask>
                        <g id="outline1"></g>
                        <g id="use7641" mask="url(#mask-2)" fill="url(#linearGradient-4)">
                            <g transform="translate(0.281198, 0.273517)" id="outline1">
                                <path d="M24.341547,2.30692531 L3.04915345,23.9407582 C-5.01301499,31.9380993 8.26889071,31.2716542 13.0751834,34.2962896 C15.2974478,35.7317098 5.9432652,37.57725 7.85544618,39.4740553 C9.71594659,41.3708605 19.0701292,43.1138708 20.9306296,44.959411 C22.79113,46.8562163 17.1579482,48.8555515 19.0184486,50.7523568 C20.8272685,52.649162 25.1684361,50.8548868 25.9436446,55.1611474 C26.5121308,58.3395778 33.9024519,56.7503626 37.2100082,54.0333172 C39.2772309,52.290307 33.6440491,52.290307 35.5045495,50.3935017 C40.1558005,45.7283861 44.2902459,48.2916364 45.9957046,43.9853759 C46.9259548,41.6784506 38.9671475,40.0379703 41.0860507,38.5512851 C46.1507463,35.0139997 64.7557504,33.2197244 56.1767763,24.7097333 L34.1091742,2.30692531 C31.3701041,-0.256325034 26.8738948,-0.256325034 24.341547,2.30692531 L24.341547,2.30692531 Z M19.2251709,35.4753847 C19.690296,35.4753847 35.1427855,37.525985 29.1995203,39.1152002 C26.9255754,39.7303803 16.4861009,35.4753847 19.2251709,35.4753847 L19.2251709,35.4753847 Z M48.7864552,43.9853759 C48.7864552,45.061941 57.2103876,45.6771211 56.7452625,43.7290508 C56.0734151,40.4480904 49.7167054,40.7044154 48.7864552,43.9853759 L48.7864552,43.9853759 Z M12.8684612,49.6757916 C14.7806421,51.3162718 17.6747539,49.3169366 18.6050041,47.0100113 C16.7445037,44.600556 9.87098829,47.1638063 12.8684612,49.6757916 L12.8684612,49.6757916 Z M47.7528439,46.2410362 C45.3755378,48.3941665 48.1662884,50.6498268 50.4919139,49.1631416 C51.1120807,48.7530215 50.4402333,46.7536862 47.7528439,46.2410362 L47.7528439,46.2410362 Z"></path>
                            </g>
                        </g>
                    </g>
                    <path d="M4.99054957,25.3800248 C-0.853943478,31.1252947 9.41340522,29.5061743 17.311367,32.5877236 L33.6338191,4.12254219 C31.159127,1.61551316 27.9999443,1.82443526 25.7358574,4.12254219 L4.99054957,25.3800248 L4.99054957,25.3800248 Z" id="path7643" opacity="0.5052631" fill="url(#linearGradient-5)"></path>
                    <path d="M33.1304348,3.88157895 L41.6347826,12.472807 C42.4173913,13.2491228 42.4173913,14.8535088 41.9478261,15.3192982 L37.7217391,11.9035088 L36.8869565,16.9236842 L33.3913043,15.0605263 L27.7043478,18.6315789 L25.826087,11.127193 L22.8,17.6482456 L15.2347826,17.5964912 C13.773913,17.5964912 13.9826087,16.095614 15.4956522,14.5947368 C18.4695652,11.3342105 24.2608696,5.79649123 26.0869565,3.88157895 C27.9652174,1.96666667 31.2521739,2.01842105 33.1304348,3.88157895 L33.1304348,3.88157895 Z" id="icecap-7" fill="url(#linearGradient-6)"></path>
                    <path d="M21.4580918,44.4670007 C21.4580918,44.4670007 22.3811998,45.8651855 22.2871066,46.5228727 C22.1024574,47.813604 19.3000555,48.4576951 19.92096,49.6066809 C20.5344034,50.7418238 22.7455242,50.0984455 24.6014399,51.285643 C26.4494522,52.4677695 25.952596,54.8769775 27.2957383,55.4830485 C29.9152042,56.6650379 36.7948672,53.4443087 36.4494443,53.5128378 C36.1040214,53.5813669 29.6597847,54.9095699 28.2090087,53.7445757 C26.5548476,52.4162905 26.0805959,51.4885439 24.860507,50.703146 C23.7171573,49.9671438 22.1110239,49.6668768 21.7371934,49.064287 C21.363363,48.4617246 22.4858491,47.6842212 22.5634449,46.5228727 C22.6100356,45.8254113 21.4580918,44.4670007 21.4580918,44.4670007 L21.4580918,44.4670007 Z" id="path8566" opacity="0.2167488" fill="url(#radialGradient-7)"></path>
                    <path d="M21.4580918,44.4670007 C21.4580918,44.4670007 22.3811998,45.8651855 22.2871066,46.5228727 C22.1024574,47.813604 19.3000555,48.4576951 19.92096,49.6066809 C20.5344034,50.7418238 22.7455242,50.0984455 24.6014399,51.285643 C26.4494522,52.4677695 25.952596,54.8769775 27.2957383,55.4830485 C29.9152042,56.6650379 36.7948672,53.4443087 36.4494443,53.5128378 C25.0257297,53.5559837 27.1575967,50.6360971 22.7534275,48.715803 C22.1170204,48.438315 22.4858491,47.6842212 22.5634449,46.5228727 C22.6100356,45.8254113 21.4580918,44.4670007 21.4580918,44.4670007 L21.4580918,44.4670007 Z" id="path8718" opacity="0.2758621" fill="url(#radialGradient-8)"></path>
                    <path d="M40.870857,38.5049716 C51.1240302,34.7620235 54.4179551,34.2477814 57.7965776,30.8982449 C53.8834339,34.1749487 45.6104733,35.9326097 38.8674044,38.847617 L40.870857,38.5049716 L40.870857,38.5049716 Z" id="path8736" opacity="0.453202" fill="url(#radialGradient-9)"></path>
                    <path d="M40.870857,38.0252706 C57.7561493,32.0893922 54.9015471,32.1233827 57.7965776,30.4185439 C52.4279601,32.4570644 42.3950009,32.674466 38.8674044,38.3679159 L40.870857,38.0252706 L40.870857,38.0252706 Z" id="path8746" opacity="0.5123153" fill="url(#radialGradient-10)"></path>
                    <path d="M55.6204138,42.7709086 C55.6204138,43.1399212 54.6383794,43.439067 53.4269786,43.439067 C52.2155778,43.439067 51.2335434,43.1399212 51.2335434,42.7709086 C51.2335434,42.401896 52.2155778,42.1027502 53.4269786,42.1027502 C54.6383794,42.1027502 55.6204138,42.401896 55.6204138,42.7709086 L55.6204138,42.7709086 Z" id="path8864" opacity="0.2857143" fill="url(#linearGradient-11)"></path>
                    <path d="M56.3803426,43.541854 C56.3803426,44.3366502 55.0580757,44.9809642 53.4269772,44.9809642 C51.7958786,44.9809642 50.4736118,44.3366502 50.4736118,43.541854 C50.4736118,42.7470577 51.7958786,42.1027437 53.4269772,42.1027437 C55.0580757,42.1027437 56.3803426,42.7470577 56.3803426,43.541854 L56.3803426,43.541854 Z" id="path8874" opacity="0.6206894" fill="url(#linearGradient-12)"></path>
                    <path d="M49.4028019,44.3416992 C50.4444591,45.2967751 56.2437775,45.786895 57.1920876,44.0675829 C55.3305071,45.3789278 51.1909041,44.9180561 49.4028019,44.3416992 L49.4028019,44.3416992 Z" id="path8914" fill="url(#radialGradient-13)"></path>
                    <path d="M49.4094837,47.5234995 C49.6179485,47.9468245 49.4826197,48.4488615 49.10722,48.6448327 C48.7318202,48.840804 48.2585049,48.6564995 48.0500401,48.2331746 C47.8415752,47.8098496 47.976904,47.3078126 48.3523038,47.1118414 C48.7277036,46.9158701 49.2010188,47.1001746 49.4094837,47.5234995 L49.4094837,47.5234995 L49.4094837,47.5234995 Z" id="path8984" opacity="0.2857143" fill="url(#linearGradient-14)"></path>
                    <path d="M49.8085517,47.7032078 C50.1185069,48.3389645 49.9281514,49.0872072 49.3833833,49.3744578 C48.8386152,49.6617084 48.1457258,49.3791916 47.8357705,48.7434349 C47.5258153,48.1076781 47.7161708,47.3594354 48.2609389,47.0721848 C48.805707,46.7849342 49.4985964,47.067451 49.8085517,47.7032078 L49.8085517,47.7032078 L49.8085517,47.7032078 Z" id="path8986" opacity="0.6206894" fill="url(#linearGradient-15)"></path>
                    <path d="M48.1312235,49.7195293 C48.959687,50.2891946 52.0778738,50.3622018 50.8949071,48.7064179 C51.2033949,50.0032575 49.0737125,49.8661445 48.1312235,49.7195293 L48.1312235,49.7195293 L48.1312235,49.7195293 Z" id="path8988" fill="url(#radialGradient-16)"></path>
                    <path d="M9.09195303,39.6699658 C9.09195303,39.4998492 19.8266457,42.9150914 21.6653455,44.7411169 C20.1534434,43.2777472 12.5020477,39.9122572 11.3372017,39.875553 C10.1723556,39.8388488 9.23012217,39.7384949 9.09195303,39.6699658 L9.09195303,39.6699658 Z" id="path8996" fill="url(#radialGradient-17)"></path>
                    <g id="g9018" transform="translate(15.445880, 47.858845) rotate(-12.383333) translate(-15.445880, -47.858845) translate(12.393867, 46.718959)">
                        <path d="M4.96473871,0.647991037 C4.96473871,0.918906665 4.08095439,1.13852866 2.99075128,1.13852866 C1.90054818,1.13852866 1.01676385,0.918906665 1.01676385,0.647991037 C1.01676385,0.377075408 1.90054818,0.157453413 2.99075128,0.157453413 C4.08095439,0.157453413 4.96473871,0.377075408 4.96473871,0.647991037 L4.96473871,0.647991037 Z" id="path9006" opacity="0.2857143" fill="url(#linearGradient-11)"></path>
                        <path d="M5.64862906,1.21398499 C5.64862906,1.79749549 4.45865179,2.27052741 2.99074059,2.27052741 C1.5228294,2.27052741 0.33285213,1.79749549 0.33285213,1.21398499 C0.33285213,0.630474495 1.5228294,0.157442574 2.99074059,0.157442574 C4.45865179,0.157442574 5.64862906,0.630474495 5.64862906,1.21398499 L5.64862906,1.21398499 Z" id="path9008" opacity="0.6206894" fill="url(#linearGradient-12)"></path>
                    </g>
                    <path d="M12.5289111,48.7158037 C12.5289111,48.7158037 13.1101583,50.2647799 14.7050751,50.3433691 C16.3185785,50.4228902 18.1601881,48.4226363 18.3147441,47.7049999 C18.0384058,48.3217615 16.4935836,50.1811745 14.4978214,50.1549141 C13.3648731,50.1401119 12.5289111,48.7158037 12.5289111,48.7158037 L12.5289111,48.7158037 Z" id="path9038" opacity="0.6157635" fill="url(#radialGradient-18)"></path>
                    <path d="M29.4293478,1.14830044 C27.8129061,1.14830044 26.228687,1.72900535 25.1086957,2.86266447 L3.61956522,24.6965461 C1.65489391,26.6454196 1.18291774,27.9212014 1.30434783,28.642818 C1.36506313,29.0036289 1.54361687,29.3171932 1.92391304,29.6455592 C2.3042087,29.9739253 2.87947304,30.2957961 3.57065217,30.5836075 C4.95300522,31.1592301 6.81480522,31.6228769 8.64130435,32.1200658 C10.4678035,32.6172546 12.2568574,33.1420234 13.6141304,33.9961623 C13.8210626,34.1298283 14.0153948,34.2945108 14.1521739,34.5298794 C14.288953,34.765248 14.3369843,35.0764523 14.2826087,35.3385417 C14.1738626,35.8627204 13.8485113,36.1391717 13.5163043,36.3898026 C12.8518904,36.8910594 11.9389513,37.3075269 11.0217391,37.7483553 C10.104527,38.1891836 9.18265043,38.6402075 8.72282609,39.0098684 C8.49291652,39.1946989 8.40972522,39.3608304 8.41304348,39.3495066 C8.41617391,39.3381724 8.35207826,39.2081654 8.46193043,39.3171601 C8.74980522,39.610654 9.64840696,40.1132254 10.7934522,40.5625 C11.9384974,41.0117746 13.3398783,41.4659349 14.7554087,41.9210526 C16.1709391,42.3761704 17.6028,42.8267337 18.8151913,43.2957785 C20.0275826,43.7648233 21.0157252,44.2009317 21.6684522,44.8484101 C21.9933287,45.1796278 22.2228678,45.5915824 22.271713,46.0128838 C22.3205478,46.4341852 22.2055513,46.8295835 22.0434522,47.1611842 C21.7192539,47.8243649 21.198073,48.3345596 20.7228,48.8270544 C20.247527,49.3194974 19.8169409,49.7898412 19.6630174,50.1047149 C19.5860557,50.2621518 19.5741391,50.3647289 19.5814957,50.4281798 C19.5888522,50.4916307 19.5998609,50.5555991 19.7445391,50.7031509 C19.7500646,50.7084511 19.7555087,50.7138342 19.7608696,50.7192982 C20.3836174,51.3723351 21.7366957,51.4641474 23.2663043,51.8190789 C24.0311061,51.9965447 24.830953,52.2652018 25.5163043,52.8541667 C26.2016557,53.4431316 26.7160122,54.3398281 26.9347826,55.5551246 C27.0268487,56.0698219 27.3014191,56.3204684 27.9619565,56.5255193 C28.6224939,56.7305184 29.6285739,56.766436 30.7336957,56.6063596 C32.9439391,56.286207 35.5650157,55.2114237 37.076087,53.9700947 C37.1699948,53.8909623 37.1438922,53.9118711 37.173913,53.873107 C37.0722783,53.8009614 36.833927,53.6471474 36.4402174,53.4525509 C35.9750713,53.2227096 35.4255913,53.0077219 35.0054348,52.4821561 C34.7953565,52.2193991 34.6507148,51.804536 34.7119565,51.3985746 C34.7731983,50.9926132 34.9972591,50.654864 35.298913,50.3472877 C37.7749565,47.8639053 40.2147078,47.2709604 42.048913,46.7891996 C42.9660157,46.5483191 43.73376,46.3279489 44.3152174,45.964364 C44.8966748,45.6007791 45.3509113,45.1033108 45.7336957,44.1367873 C45.7759043,44.0321554 45.7747043,44.001786 45.7174174,43.8780154 C45.6601043,43.7542447 45.5063687,43.5562428 45.2608696,43.3442982 C44.7698713,42.9204091 43.9510852,42.4648877 43.1413043,42.0180921 C42.3315235,41.5712965 41.5445374,41.1547047 40.9728261,40.627193 C40.6869704,40.3634371 40.3874243,40.0311739 40.3532609,39.5274123 C40.319087,39.0236506 40.651993,38.5691125 41.0380435,38.2982456 C42.470593,37.2977246 44.6361026,36.5360554 46.9891304,35.7266996 C49.3421739,34.9173438 51.8731826,34.0798077 53.9347826,33.122807 C55.9963826,32.1658063 57.5125043,31.0636708 57.9945391,29.9528509 C58.2355826,29.3974383 58.2797739,28.8356755 58.0274087,28.1091009 C57.7747826,27.3825262 57.1980522,26.4939345 56.1686609,25.4728618 L33.9130435,2.87883772 C33.9074609,2.87361053 33.9023478,2.86786579 33.8967652,2.86269035 C32.6666504,1.72008807 31.0384852,1.14832632 29.4293739,1.14832632 L29.4293478,1.14830044 Z M53.3967652,42.5518092 C52.0218783,42.6010276 50.7569739,43.225346 50.2173913,44.2014803 C50.3706783,44.2586792 50.5087304,44.3230875 50.7554087,44.379386 C51.4731652,44.5431679 52.4748,44.6488918 53.4619826,44.6705044 C54.449113,44.6921377 55.4362957,44.6097085 56.0380174,44.4440789 C56.3014435,44.3715762 56.4410087,44.2982454 56.5108696,44.25 C56.3774087,43.6853131 56.0596174,43.2862712 55.5162783,42.9884868 C54.9535304,42.6800566 54.1824,42.5236755 53.3967652,42.5518092 L53.3967652,42.5518092 Z M16.6141304,47.2420504 C15.5237583,47.1668254 14.1533217,47.5973754 13.4836957,48.1315789 C13.1488852,48.3986833 13.007207,48.6462246 12.9945652,48.8108553 C12.9819391,48.975486 13.0348957,49.1948728 13.4836957,49.5709719 C13.483753,49.5763197 13.483753,49.581668 13.4836957,49.5870158 C14.1895148,50.1925421 14.9874835,50.1294018 15.8967391,49.6356649 C16.6589739,49.2216816 17.3352783,48.4449518 17.7880435,47.6301825 C17.4828104,47.4349183 17.1178487,47.2767983 16.6141304,47.2420504 L16.6141304,47.2420504 Z M48.4402174,47.5655154 C48.2068435,47.8597649 48.0797478,48.1337526 48.0652174,48.3256579 C48.0451826,48.5904851 48.12084,48.7951737 48.326087,48.9887351 C48.7107652,49.3515333 49.546487,49.5077281 50.3967652,49.0534281 C50.3800696,48.9556123 50.3482435,48.8071289 50.2173913,48.6167763 C49.9565739,48.2368474 49.3468174,47.8274702 48.4402174,47.5655154 L48.4402174,47.5655154 Z" id="87235" stroke="url(#radialGradient-19)" stroke-width="1.00000037"></path>
                    <path d="M17.6467246,35.3402239 C16.3497965,35.7197843 12.1457535,37.2955448 12.7424269,38.4992256 C13.314026,39.6523117 23.088941,40.116963 24.589172,43.5536283 C25.2433926,45.0522839 23.0879729,46.1827516 23.6337894,47.7235105 C24.0540813,48.909981 27.3055161,51.8910677 29.3625187,53.3004878 C30.9759689,54.4059868 33.0951351,52.4103064 32.2322334,50.7561521 C30.8575269,48.1208876 36.9308564,44.8932724 39.6842183,43.4272682 C41.290586,42.5719622 36.372225,38.3728655 36.372225,38.3728655 L17.6467246,35.3402239 L17.6467246,35.3402239 Z" id="path5897" opacity="0.3251231" fill="url(#linearGradient-20)"></path>
                    <path d="M18.1263496,36.5039418 C19.2908348,37.35231 21.5890017,36.8406196 22.9691948,37.4571333 C26.2819878,38.9368999 30.3543809,40.5859033 29.6049704,37.6665057 L28.76196,38.3610703 L28.7455252,37.0374311 L26.7879704,37.5116514 C26.7879704,37.5116514 25.2717078,36.3043458 24.5765687,35.9062355 C24.4313739,35.8230818 23.6855948,36.5753214 23.6855948,36.5753214 L23.5515235,35.7763372 C22.5824609,35.6740498 21.6230922,35.6289355 20.7784017,35.6356584 C18.7535635,35.651754 17.3875878,35.9657168 18.1263652,36.5039418 L18.1263496,36.5039418 Z" id="path5783" fill="url(#linearGradient-21)"></path>
                    <path d="M39.8752948,39.1942059 C39.4269528,40.8314028 45.3853816,43.0557443 44.938823,44.1854286 C43.9556705,46.6725991 38.5757196,44.978338 34.4614597,50.1875318 C33.8721287,50.933688 35.289458,53.5992536 35.0983815,53.2833534 C34.9073049,52.9674533 33.4513272,50.765528 33.8245379,49.6820915 C34.9949963,46.2842188 46.3114659,45.0175096 44.238209,43.3956782 C43.0459169,42.4629892 38.7592805,39.8861031 39.8752948,39.1942059 L39.8752948,39.1942059 Z" id="path5803" opacity="0.4778325" fill="url(#radialGradient-22)"></path>
                    <path d="M53.2824984,42.5585426 C53.2824984,42.7068387 52.9902099,42.8270577 52.6296535,42.8270577 C52.2690972,42.8270577 51.9768087,42.7068387 51.9768087,42.5585426 C51.9768087,42.4102464 52.2690972,42.2900274 52.6296535,42.2900274 C52.9902099,42.2900274 53.2824984,42.4102464 53.2824984,42.5585426 L53.2824984,42.5585426 Z" id="path6041" opacity="0.5862069" fill="#FFFFFF"></path>
                    <path d="M48.9195826,47.5181757 C48.9195826,47.6664719 48.7342289,47.7866909 48.5055835,47.7866909 C48.276938,47.7866909 48.0915843,47.6664719 48.0915843,47.5181757 C48.0915843,47.3698795 48.276938,47.2496606 48.5055835,47.2496606 C48.7342289,47.2496606 48.9195826,47.3698795 48.9195826,47.5181757 L48.9195826,47.5181757 Z" id="path6043" opacity="0.5862069" fill="#FFFFFF"></path>
                    <path d="M15.8951921,47.281254 C15.8951921,47.4295501 15.5672587,47.5497691 15.1627321,47.5497691 C14.7582055,47.5497691 14.430272,47.4295501 14.430272,47.281254 C14.430272,47.1329578 14.7582055,47.0127388 15.1627321,47.0127388 C15.5672587,47.0127388 15.8951921,47.1329578 15.8951921,47.281254 L15.8951921,47.281254 Z" id="path6045" opacity="0.5862069" fill="#FFFFFF"></path>
                    <path d="M15.4811896,35.466582 C11.7491948,37.756253 5.94691304,38.5895607 12.2965826,40.1103168 C11.5402122,38.4396334 13.9341026,38.6239204 15.4811896,35.466582 L15.4811896,35.466582 Z" id="path5049" opacity="0.2512315" fill="url(#linearGradient-23)"></path>
                    <path d="M28.7291677,56.3159957 C28.7291677,56.3159957 34.4848464,55.7782325 35.8163289,54.1308763 C36.5952969,53.1671028 32.720517,52.0424477 33.5569711,51.0982347 C36.7033851,47.5464807 39.3480576,47.6947769 42.9962156,46.2071903 C46.6443737,44.7196291 45.2981631,43.9910875 44.1181686,43.3379323 C42.0972158,42.2192919 37.5993455,41.0274637 39.0872611,38.3728662 C40.5845062,35.701632 53.6965067,31.9916853 53.6965067,31.9916853 C57.6699305,30.6450838 57.1713226,28.2098624 55.225119,26.1791222 L43.5057531,14.6171771 C43.5057531,14.6171771 44.0873798,25.5823615 41.7223721,30.2858244 C38.7997928,36.0981702 23.2404102,42.5836385 29.7482426,43.3009088 C32.041161,43.5536289 33.1419274,44.3296061 34.0793107,46.0808303 C36.0095174,49.6868433 28.7291677,56.3159957 28.7291677,56.3159957 L28.7291677,56.3159957 Z" id="path10207" opacity="0.3631579" fill="url(#linearGradient-24)"></path>
                </g>
            </g>
        </g>
    </g>
</svg>