<?xml version="1.0" encoding="UTF-8" standalone="no"?>
<svg width="64px" height="64px" viewBox="0 0 64 64" version="1.1" xmlns="http://www.w3.org/2000/svg" xmlns:xlink="http://www.w3.org/1999/xlink">
    <defs></defs>
    <g id="Frameworks" stroke="none" stroke-width="1" fill="none" fill-rule="evenodd">
        <g id="icons/skills/id-427" fill="#AC162C">
            <path d="M60.8245238,54.66 L33.3207143,7.02285714 C32.9569048,6.39047619 32.2797619,6 31.5497619,6 C30.8197619,6 30.1464286,6.39 29.7807143,7.02285714 L2.275,54.66 C1.90833333,55.292381 1.90833333,55.9980952 2.275,56.6319048 C2.64119048,57.2642857 3.31547619,57.5780952 4.04547619,57.5780952 L59.0554762,57.5780952 C59.7859524,57.5780952 60.4578571,57.2642857 60.8245238,56.6319048 C61.1911905,55.9980952 61.1911905,55.292381 60.8245238,54.66 L60.8245238,54.66 Z M43.3254762,50.8147619 L43.3992857,48.75 L35.4630952,50.1519048 L35.1021429,49.8190476 L35.2045238,47.1019048 L34.997381,47.1019048 C34.997381,47.1019048 32.822619,50.6985714 28.0059524,50.6985714 C24.4330952,50.6985714 21.0669048,49.27 21.0669048,43.4719048 C21.0669048,37.617619 25.4678571,35.6733333 30.077381,35.6733333 L34.8830952,35.6733333 L34.8830952,33.267619 C34.8830952,30.9366667 33.3345238,29.5909524 30.4340476,29.5909524 C27.1711905,29.5909524 23.2883333,30.1085714 23.2883333,30.1085714 L22.9783333,29.7457143 L22.9783333,25.81 C22.9783333,25.81 27.1454762,25.2928571 31.4469048,25.2928571 C35.382619,25.2928571 40.1211905,26.3285714 40.1211905,32.1285714 L40.1211905,45.4747619 L42.7997619,44.9719048 L42.0592857,43.04 L48.6816667,45.9419048 L43.3254762,50.8147619 L43.3254762,50.8147619 Z M26.0897619,43.0828571 C26.0897619,45.7757143 27.9483333,46.3585714 29.7602381,46.3585714 C31.4697619,46.3585714 33.4545238,45.9042857 34.8830952,43.7809524 L34.8830952,39.4828571 L31.425,39.4828571 C27.9011905,39.4828571 26.0897619,40.2857143 26.0897619,43.0828571 L26.0897619,43.0828571 Z" id="Imported-Layers"></path>
        </g>
    </g>
</svg>