<?xml version="1.0" encoding="UTF-8" standalone="no"?>
<svg width="64px" height="64px" viewBox="0 0 64 64" version="1.1" xmlns="http://www.w3.org/2000/svg" xmlns:xlink="http://www.w3.org/1999/xlink">
    <!-- Generator: Sketch 3.6.1 (26313) - http://www.bohemiancoding.com/sketch -->
    <title>icons/skills/id-405</title>
    <desc>Created with Sketch.</desc>
    <defs></defs>
    <g id="Platforms" stroke="none" stroke-width="1" fill="none" fill-rule="evenodd">
        <g id="icons/skills/id-405" fill="#231F20">
            <path d="M61.8106945,38.9276187 C61.8106945,40.2272524 61.4804381,40.2942121 61.4804381,40.2942121 C58.6947971,39.4937725 53.8821965,39.3610253 53.8821965,39.3610253 L14.7297433,39.3610253 C9.02501081,39.3610253 9.38621227,39.577289 9.38621227,39.577289 C8.80855661,40.9494502 10.3064906,42.537875 10.3064906,42.537875 L9.89182398,42.8991937 C5.55912079,41.8882047 2,38.9276187 2,38.9276187 L2,38.8553843 C2,38.8553843 5.55912079,35.8946224 9.89182398,34.8835162 L10.3064906,35.2446737 C10.3064906,35.2446737 8.80855661,36.8335528 9.38621227,38.2054209 C9.38621227,38.2054209 9.02501081,38.4221242 14.7297433,38.4221242 L53.8821965,38.4221242 C53.8821965,38.4221242 58.6947971,38.2890839 61.4804381,37.4890546 C61.4804381,37.4890546 61.8106945,37.5553404 61.8106945,38.8553843 L61.8106945,38.9276187" id="path26" transform="translate(31.905347, 38.891355) scale(1, -1) translate(-31.905347, -38.891355) "></path>
            <path d="M31.9053472,19.2197804 C28.5509151,19.2197804 25.8313547,21.9390477 25.8313547,25.2934799 C25.8313547,27.9050549 27.4797063,30.131575 29.7926733,30.9895969 C29.7926733,30.9895969 29.4646147,31.5985346 29.9317209,31.972454 L30.5856403,32.4397068 C30.5856403,32.4397068 30.3040286,40.3725711 31.2512813,44.9607175 L32.5592666,44.9607175 C33.5062263,40.3725711 33.2249076,32.4397068 33.2249076,32.4397068 L33.8791201,31.972454 C34.3457867,31.5985346 34.0175816,30.9895969 34.0175816,30.9895969 C36.3306951,30.131575 37.9790467,27.9050549 37.9790467,25.2934799 C37.9790467,21.9390477 35.2596329,19.2197804 31.9053472,19.2197804 L31.9053472,19.2197804 Z M36.922783,25.2893773 C36.922783,28.0603662 34.6763362,30.3068131 31.9053472,30.3068131 C29.1339187,30.3068131 26.8876184,28.0603662 26.8876184,25.2893773 C26.8876184,22.5183884 29.1339187,20.2719415 31.9053472,20.2719415 C34.6763362,20.2719415 36.922783,22.5183884 36.922783,25.2893773 L36.922783,25.2893773 Z" id="path28"></path>
        </g>
    </g>
</svg>