<?xml version="1.0" encoding="UTF-8" standalone="no"?>
<svg width="64px" height="64px" viewBox="0 0 64 64" version="1.1" xmlns="http://www.w3.org/2000/svg" xmlns:xlink="http://www.w3.org/1999/xlink" xmlns:sketch="http://www.bohemiancoding.com/sketch/ns">
    <!-- Generator: Sketch 3.4.2 (15857) - http://www.bohemiancoding.com/sketch -->
    <title>icons/skills/id-49</title>
    <desc>Created with Sketch.</desc>
    <defs>
        <radialGradient cx="210.369832%" cy="55.7639981%" fx="210.369832%" fy="55.7639981%" r="211.551844%" id="radialGradient-1">
            <stop stop-color="#FAAF40" offset="0%"></stop>
            <stop stop-color="#F9A538" offset="4.3%"></stop>
            <stop stop-color="#F89D31" offset="11.2%"></stop>
            <stop stop-color="#F89A2F" offset="22.7%"></stop>
            <stop stop-color="#F7922D" offset="52.8%"></stop>
            <stop stop-color="#F37B28" offset="100%"></stop>
        </radialGradient>
        <linearGradient x1="0.00223563604%" y1="50.0024743%" x2="99.8546837%" y2="50.0024743%" id="linearGradient-2">
            <stop stop-color="#929497" offset="0%"></stop>
            <stop stop-color="#757578" offset="12.4%"></stop>
            <stop stop-color="#575658" offset="27.9%"></stop>
            <stop stop-color="#403E3F" offset="44%"></stop>
            <stop stop-color="#302D2E" offset="60.9%"></stop>
            <stop stop-color="#262223" offset="78.8%"></stop>
            <stop stop-color="#231F20" offset="100%"></stop>
        </linearGradient>
        <linearGradient x1="24.3277401%" y1="1.55898444%" x2="73.8457101%" y2="103.06634%" id="linearGradient-3">
            <stop stop-color="#231F20" offset="0%"></stop>
            <stop stop-color="#231F20" stop-opacity="0" offset="100%"></stop>
        </linearGradient>
        <linearGradient x1="0%" y1="50.0030967%" x2="100%" y2="50.0030967%" id="linearGradient-4">
            <stop stop-color="#929497" offset="0%"></stop>
            <stop stop-color="#757578" offset="12.4%"></stop>
            <stop stop-color="#575658" offset="27.9%"></stop>
            <stop stop-color="#403E3F" offset="44%"></stop>
            <stop stop-color="#302D2E" offset="60.9%"></stop>
            <stop stop-color="#262223" offset="78.8%"></stop>
            <stop stop-color="#231F20" offset="100%"></stop>
        </linearGradient>
    </defs>
    <g id="Platforms" stroke="none" stroke-width="1" fill="none" fill-rule="evenodd" sketch:type="MSPage">
        <g id="icons/skills/id-49" sketch:type="MSArtboardGroup">
            <g id="moodle-original" sketch:type="MSLayerGroup" transform="translate(2.000000, 12.000000)">
                <path d="M50.4479032,40.526129 L50.4479032,21.7620968 C50.4479032,17.8117742 48.8041935,15.8375806 45.5927419,15.8375806 C42.3851613,15.8375806 40.7375806,17.8117742 40.7375806,21.7620968 L40.7375806,40.526129 L31.11,40.526129 L31.11,21.7620968 C31.11,17.8117742 29.5480645,15.8375806 26.3380645,15.8375806 C23.1285484,15.8375806 21.4819355,17.8117742 21.4819355,21.7620968 L21.4819355,40.526129 L11.9356452,40.526129 L11.9356452,20.6941935 C11.9356452,16.5793548 13.3345161,13.5324194 16.215,11.3927419 C18.6837097,9.50080645 22.1404839,8.59741935 26.3375806,8.59741935 C30.6996774,8.59741935 33.8269355,9.66532258 35.8829032,11.8882258 C37.6103226,9.66532258 40.8217742,8.59741935 45.5104839,8.59741935 C49.7898387,8.59741935 53.1648387,9.50080645 55.6340323,11.3927419 C58.5135484,13.5324194 59.9129032,16.5793548 59.9129032,20.6941935 L59.9129032,40.6064516 L50.4469355,40.6064516 L50.4469355,40.526129 L50.4479032,40.526129 Z" id="Shape" fill="url(#radialGradient-1)" sketch:type="MSShapeGroup"></path>
                <path d="M12.8414516,13.3679032 L11.853871,18.3067742 C20.906129,21.3508065 29.4643548,18.3870968 33.9914516,10.4883871 C27.3246774,5.88096774 21.1519355,10.5706452 12.8414516,13.3679032" id="Shape" fill="#58595B" sketch:type="MSShapeGroup"></path>
                <path d="M12.8414516,12.1354839 C12.5119355,14.0274194 12.2646774,15.8370968 11.9356452,17.7304839 C20.576129,20.6941935 29.0525806,18.1417742 33.5791935,10.406129 C27.8167742,3.74032258 21.4001613,9.25306452 12.8414516,12.1354839" id="Shape" fill="url(#linearGradient-2)" sketch:type="MSShapeGroup"></path>
                <path d="M23.1285484,14.3554839 C19.1782258,13.5324194 14.8983871,15.5917742 11.936129,17.7304839 C10.0432258,3.90629032 18.6024194,4.23387097 29.7924194,7.69016129 C29.0525806,11.0651613 27.8167742,15.5917742 25.6785484,18.3067742 C25.5967742,16.4951613 24.7741935,15.2617742 23.1285484,14.3554839" id="Shape" fill="url(#linearGradient-3)" sketch:type="MSShapeGroup"></path>
                <path d="M0.0861290323,12.1354839 C14.5693548,3.41080645 22.7167742,1.76612903 39.5864516,0.0387096774 C20.0003226,15.5075806 19.5062903,12.1354839 0.0861290323,12.1354839" id="Shape" fill="url(#linearGradient-4)" sketch:type="MSShapeGroup"></path>
                <path d="M39.5864516,0.119032258 L24.0324194,11.3927419" id="Shape" stroke="#4A4A4C" stroke-width="0.5" sketch:type="MSShapeGroup"></path>
                <path id="Shape" opacity="0.23" fill="#231F20" sketch:type="MSShapeGroup" d="M21.0701613,6.12580645 C21.2346774,7.93741935 20.8229032,4.39741935 21.0701613,6.12580645"></path>
                <path d="M0.0861290323,12.1354839 L24.0324194,11.3927419" id="Shape" stroke="#A8ABAD" stroke-width="0.5" sketch:type="MSShapeGroup"></path>
                <path d="M19.5890323,6.29129032 C15.4741935,7.4433871 1.97903226,10.406129 1.81306452,12.1354839 C1.40225806,15.3440323 1.73225806,20.4464516 1.73225806,20.4464516" id="Shape" stroke="#F16922" stroke-width="0.5" sketch:type="MSShapeGroup"></path>
                <path d="M2.9666129,32.7077419 C1.48451613,29.0051613 -0.325645161,24.8893548 1.81306452,19.7869355 C3.21290323,24.5593548 2.9666129,28.1806452 2.9666129,32.7077419" id="Shape" fill="#F16922" sketch:type="MSShapeGroup"></path>
                <path d="M18.9077419,5.73096774 C19.2503226,5.61 19.5774194,5.64870968 19.6379032,5.82 C19.698871,5.99177419 19.4714516,6.22935484 19.128871,6.35032258 C18.7858065,6.47419355 18.4591935,6.43354839 18.3982258,6.26129032 C18.3367742,6.09096774 18.5646774,5.85290323 18.9077419,5.73096774 L18.9077419,5.73096774 Z" id="Shape" fill="#6D6E70" sketch:type="MSShapeGroup"></path>
            </g>
        </g>
    </g>
</svg>