<?xml version="1.0" encoding="UTF-8" standalone="no"?>
<svg width="64px" height="64px" viewBox="0 0 64 64" version="1.1" xmlns="http://www.w3.org/2000/svg" xmlns:xlink="http://www.w3.org/1999/xlink">
    <defs>
        <radialGradient cx="50.006917%" cy="49.9248864%" fx="50.006917%" fy="49.9248864%" r="49.9703557%" id="radialGradient-1">
            <stop stop-color="#FFFFFF" offset="0%"></stop>
            <stop stop-color="#FFFFFF" stop-opacity="0" offset="100%"></stop>
        </radialGradient>
        <radialGradient cx="35.2953375%" cy="49.2808082%" fx="35.2953375%" fy="49.2808082%" r="57.2313101%" id="radialGradient-2">
            <stop stop-color="#857C63" offset="0%"></stop>
            <stop stop-color="#221F19" offset="100%"></stop>
        </radialGradient>
        <linearGradient x1="91.38014%" y1="45.7569221%" x2="12.9407969%" y2="92.8656716%" id="linearGradient-3">
            <stop stop-color="#000000" offset="0%"></stop>
            <stop stop-color="#000000" stop-opacity="0" offset="100%"></stop>
        </linearGradient>
        <linearGradient x1="41.2447867%" y1="19.1046548%" x2="117.489181%" y2="134.086029%" id="linearGradient-4">
            <stop stop-color="#FFFFFF" offset="0%"></stop>
            <stop stop-color="#FFFFFF" stop-opacity="0" offset="100%"></stop>
        </linearGradient>
        <radialGradient cx="50.4756858%" cy="14.4727212%" fx="50.4756858%" fy="14.4727212%" r="43.1017699%" id="radialGradient-5">
            <stop stop-color="#FFFFFF" offset="0%"></stop>
            <stop stop-color="#B9B9B0" offset="100%"></stop>
        </radialGradient>
        <radialGradient cx="33.103124%" cy="31.3369408%" fx="33.103124%" fy="31.3369408%" r="48.3273082%" id="radialGradient-6">
            <stop stop-color="#5B676B" offset="0%"></stop>
            <stop stop-color="#141718" offset="100%"></stop>
        </radialGradient>
        <linearGradient x1="23.6699328%" y1="16.1611032%" x2="78.8015087%" y2="87.1543303%" id="linearGradient-7">
            <stop stop-color="#FFFFFF" offset="0%"></stop>
            <stop stop-color="#FFFFFF" stop-opacity="0" offset="100%"></stop>
        </linearGradient>
        <radialGradient cx="50.2616061%" cy="14.4552424%" fx="50.2616061%" fy="14.4552424%" r="36.8977273%" id="radialGradient-8">
            <stop stop-color="#FFFFFF" offset="0%"></stop>
            <stop stop-color="#B9B9B0" offset="100%"></stop>
        </radialGradient>
        <linearGradient x1="65.9100365%" y1="58.1253941%" x2="56.3042744%" y2="38.3931226%" id="linearGradient-9">
            <stop stop-color="#6E3D09" offset="0%"></stop>
            <stop stop-color="#EA8113" offset="24.2%"></stop>
            <stop stop-color="#5C3307" offset="62.1%"></stop>
            <stop stop-color="#E07C12" offset="100%"></stop>
        </linearGradient>
        <linearGradient x1="33.2217164%" y1="41.6135797%" x2="40.7771045%" y2="56.4241449%" id="linearGradient-10">
            <stop stop-color="#BDBDBD" offset="0%"></stop>
            <stop stop-color="#E2E2E2" offset="33.3%"></stop>
            <stop stop-color="#A3A3A3" offset="66.7%"></stop>
            <stop stop-color="#DDDDDD" offset="100%"></stop>
        </linearGradient>
        <radialGradient cx="70.5339934%" cy="23.6829935%" fx="70.5339934%" fy="23.6829935%" r="37.8864045%" id="radialGradient-11">
            <stop stop-color="#000000" offset="0%"></stop>
            <stop stop-color="#131313" offset="100%"></stop>
        </radialGradient>
        <linearGradient x1="18.5638217%" y1="95.6391967%" x2="24.6615035%" y2="94.698074%" id="linearGradient-12">
            <stop stop-color="#FFFFFF" offset="0%"></stop>
            <stop stop-color="#FFFFFF" stop-opacity="0" offset="100%"></stop>
        </linearGradient>
    </defs>
    <g id="Tools" stroke="none" stroke-width="1" fill="none" fill-rule="evenodd">
        <g id="icons/skills/id-422">
            <g id="Group" transform="translate(2.000000, 7.000000)">
                <path d="M52.3125,30.28125 C52.3125,35.953125 41.71875,40.59375 28.59375,40.59375 C15.46875,40.59375 4.875,36 4.875,30.28125 C4.875,24.5625 15.46875,19.96875 28.59375,19.96875 C41.71875,19.96875 52.3125,24.5625 52.3125,30.28125 L52.3125,30.28125 Z" id="Shape" fill="url(#radialGradient-1)"></path>
                <path d="M12.046875,4.96875 C-0.421875,-7.96875 15.796875,12.65625 24.515625,12.46875 C42.84375,12 46.03125,2.4375 46.5,1.078125 C46.96875,-0.28125 47.671875,-0.09375 47.8125,1.171875 C53.765625,55.359375 6.375,32.109375 4.6875,22.875 C14.109375,20.15625 11.8125,14.859375 11.8125,14.859375 L12.046875,4.96875 L12.046875,4.96875 Z" id="Shape" stroke="#2E3436" fill="url(#radialGradient-2)"></path>
                <path d="M34.78125,25.96875 C34.078125,25.078125 32.90625,24.09375 32.90625,24.09375 C32.90625,24.09375 35.953125,24.9375 37.03125,26.34375 C38.109375,27.75 37.453125,28.59375 37.171875,30.375 C36.5625,28.828125 35.390625,28.21875 35.203125,27.609375 C32.90625,30.84375 27.046875,30.703125 18.984375,27.84375 C28.59375,29.568456 32.203125,27.984375 34.78125,25.96875 Z" id="Shape" fill="url(#linearGradient-3)"></path>
                <path d="M46.59375,4.171875 C45.84375,5.390625 44.765625,6.796875 43.125,8.203125 C39.703125,11.015625 33.984375,13.59375 24.5625,13.828125 C19.078125,13.96875 15.515625,11.296875 13.359375,8.953125 L13.21875,14.765625 C13.40625,15.328125 13.78125,16.59375 13.125,18.28125 C12.46875,20.15625 10.3125,22.03125 6.65625,23.484375 C6.984375,24.140625 7.3125,24.84375 8.296875,25.78125 C9.609375,27.09375 11.484375,28.5 13.6875,29.765625 C18.09375,32.296875 23.8125,34.3125 29.15625,34.40625 C34.5,34.5 39.375,32.8125 42.703125,27.890625 C45.75,23.390625 47.484375,15.796875 46.59375,4.171875 L46.59375,4.171875 Z" id="Shape" stroke="url(#linearGradient-4)" opacity="0.185"></path>
                <path d="M21.5625,16.59375 C21.5625,19.5 19.21875,21.890625 16.265625,21.890625 C13.3125,21.890625 10.96875,19.546875 10.96875,16.59375 C10.96875,13.640625 13.3125,11.296875 16.265625,11.296875 C19.21875,11.296875 21.5625,13.640625 21.5625,16.59375 L21.5625,16.59375 Z" id="Shape" stroke="#888A85" stroke-width="0.783" fill="url(#radialGradient-5)"></path>
                <path d="M11.0625,18.5625 C13.640625,22.125 13.640625,26.4375 11.15625,28.265625 C8.625,30.09375 4.5,28.6875 1.96875,25.125 C-0.609375,21.5625 -0.609375,17.25 1.875,15.421875 C4.359375,13.59375 8.484375,15 11.0625,18.5625 L11.0625,18.5625 Z" id="Shape" stroke="#000000" fill="url(#radialGradient-6)"></path>
                <path d="M20.0625,17.34375 C20.0625,18.75 18.9375,19.875 17.53125,19.875 C16.125,19.875 15,18.75 15,17.34375 C15,15.9375 16.125,14.8125 17.53125,14.8125 C18.9375,14.8125 20.0625,15.9375 20.0625,17.34375 L20.0625,17.34375 Z" id="Shape" stroke="#000000" stroke-width="1.174" fill="#2E3436"></path>
                <path d="M2.296875,16.59375 C1.5,17.203125 1.03125,18.28125 1.078125,19.6875 C1.125,21.09375 1.6875,22.875 2.859375,24.421875 C4.03125,25.96875 5.53125,27 6.890625,27.421875 C8.25,27.84375 9.375,27.75 10.21875,27.09375 C11.0625,26.484375 11.484375,25.359375 11.4375,23.953125 C11.390625,22.546875 10.875,20.8125 9.703125,19.265625 C8.53125,17.71875 7.078125,16.734375 5.671875,16.265625 C4.3125,15.84375 3.140625,15.984375 2.296875,16.59375 L2.296875,16.59375 Z" id="Shape" stroke="url(#linearGradient-7)" opacity="0.281"></path>
                <path d="M6.140625,18.984375 C6.140625,20.484375 5.109375,21.75 3.84375,21.75 C2.578125,21.75 1.546875,20.53125 1.546875,18.984375 C1.546875,17.484375 2.578125,16.21875 3.84375,16.21875 C5.109375,16.21875 6.140625,17.484375 6.140625,18.984375 L6.140625,18.984375 Z" id="Shape" fill="#FFFFFF"></path>
                <path d="M18.28125,16.171875 C18.28125,17.15625 17.484375,17.953125 16.5,17.953125 C15.515625,17.953125 14.71875,17.15625 14.71875,16.171875 C14.71875,15.1875 15.515625,14.390625 16.5,14.390625 C17.53125,14.4375 18.28125,15.234375 18.28125,16.171875 L18.28125,16.171875 Z" id="Shape" fill="#FFFFFF"></path>
                <path d="M33.375,17.15625 C33.375,20.578125 30.609375,23.34375 27.1875,23.34375 C23.765625,23.34375 21,20.578125 21,17.15625 C21,13.734375 23.765625,10.96875 27.1875,10.96875 C30.609375,10.96875 33.375,13.734375 33.375,17.15625 L33.375,17.15625 Z" id="Shape" stroke="#888A85" stroke-width="0.667" fill="url(#radialGradient-8)"></path>
                <path d="M31.640625,18.046875 C31.640625,19.6875 30.28125,21.046875 28.640625,21.046875 C27,21.046875 25.640625,19.6875 25.640625,18.046875 C25.640625,16.40625 27,15.046875 28.640625,15.046875 C30.28125,15.09375 31.640625,16.40625 31.640625,18.046875 L31.640625,18.046875 Z" id="Shape" stroke="#000000" fill="#2E3436"></path>
                <path d="M29.578125,16.6875 C29.578125,17.8125 28.640625,18.75 27.515625,18.75 C26.390625,18.75 25.453125,17.8125 25.453125,16.6875 C25.453125,15.5625 26.390625,14.625 27.515625,14.625 C28.640625,14.625 29.578125,15.5625 29.578125,16.6875 L29.578125,16.6875 Z" id="Shape" fill="#FFFFFF"></path>
                <g transform="translate(45.904860, 34.753365) rotate(253.570699) translate(-45.904860, -34.753365) translate(33.248610, 24.206490)" id="Shape">
                    <path d="M11.7199868,10.484426 L13.683111,12.314134 C18.0858458,8.94060994 22.7172941,1.6980159 22.7172941,1.6980159 C23.7655643,0.516329504 22.6601157,-0.284167732 21.5737266,0.440091672 C21.5737266,0.440091672 14.7123217,5.77673991 11.7199868,10.484426 L11.7199868,10.484426 Z" stroke="#673907" stroke-width="1.00064696" fill="url(#linearGradient-9)"></path>
                    <path d="M7.98433306,15.3636473 L9.16601946,16.392858 L13.6449921,12.5047286 L13.7974678,12.1235394 L14.3692515,12.1235394 C14.140538,11.3039827 12.8063759,9.81734501 11.8343436,9.81734501 L11.8724625,10.3891288 L11.5103328,10.5987828 L7.98433306,15.3636473 L7.98433306,15.3636473 Z" stroke="#888A85" stroke-width="1.00064696" fill="url(#linearGradient-10)"></path>
                    <path d="M11.4912733,13.019334 L9.18507892,15.8020148" stroke="#FFFFFF" stroke-width="1.00064696"></path>
                    <path d="M10.6145383,17.2695931 C11.2625598,14.0294852 6.80264667,12.4856691 4.610809,15.3636473 C2.4761497,18.1463282 0.112776906,20.6240577 0.112776906,20.6240577 C5.62096027,20.6240577 9.81404103,21.2720793 10.6145383,17.2695931 Z" fill="url(#radialGradient-11)"></path>
                    <path d="M10.1380518,17.3839498 C10.1380518,18.1463282 9.52814916,18.7562308 8.76577084,18.7562308 C8.00339252,18.7562308 7.39348986,18.1463282 7.39348986,17.3839498 C7.39348986,16.6215715 8.00339252,16.0116689 8.76577084,16.0116689 C9.52814916,16.0116689 10.1380518,16.6215715 10.1380518,17.3839498 L10.1380518,17.3839498 Z" opacity="0.528" fill="#FFFFFF"></path>
                    <path d="M13.683111,12.2188367 C13.683111,12.7334421 13.2638029,13.1336907 12.768257,13.1336907 C12.2727111,13.1336907 11.853403,12.7143826 11.853403,12.2188367 C11.853403,11.7042314 12.2727111,11.3039827 12.768257,11.3039827 C13.2638029,11.2849233 13.683111,11.7042314 13.683111,12.2188367 L13.683111,12.2188367 Z" fill="#FFFFFF"></path>
                    <path d="M3.69595501,19.6329659 C50.1438542,-14.6740585 5.65907919,19.6901443 6.91700341,18.889647 C7.35537095,18.6037552 7.71750065,19.2327173 7.18383583,19.4614308 C6.02120889,19.9569767 3.69595501,19.6329659 3.69595501,19.6329659 L3.69595501,19.6329659 Z" opacity="0.428" fill="url(#linearGradient-12)"></path>
                </g>
            </g>
        </g>
    </g>
</svg>