<?xml version="1.0" encoding="UTF-8" standalone="no"?>
<svg width="64px" height="64px" viewBox="0 0 64 64" version="1.1" xmlns="http://www.w3.org/2000/svg" xmlns:xlink="http://www.w3.org/1999/xlink">
    <!-- Generator: Sketch 3.6.1 (26313) - http://www.bohemiancoding.com/sketch -->
    <title>icons/skills/id-404</title>
    <desc>Created with Sketch.</desc>
    <defs>
        <radialGradient cx="58.543527%" cy="71.9697639%" fx="58.543527%" fy="71.9697639%" r="68.2725157%" id="radialGradient-1">
            <stop stop-color="#61ABDB" offset="0%"></stop>
            <stop stop-color="#63A5DE" offset="15.8061853%"></stop>
            <stop stop-color="#7A4DFC" offset="100%"></stop>
        </radialGradient>
        <path d="M59.7337278,30.1331361 C59.7337278,46.6281657 46.3618935,60 29.8668639,60 C13.3718343,60 0,46.6281657 0,30.1331361 C0,13.6381065 13.3718343,0.266272189 29.8668639,0.266272189 C46.3618935,0.266272189 59.7337278,13.6381065 59.7337278,30.1331361 Z M24.8886036,17.8106627 L6.78209467,17.8106627 C5.36197633,17.8106627 5.72694675,17.6331479 5.04173964,18.6389467 C4.35617751,19.6451006 1.98919527,24.5562249 1.87097041,28.8758698 C1.75239053,33.1951598 2.88671006,40.1775266 5.04173964,40.1775266 C7.1964142,40.1775266 10.0689586,37.7761065 10.7467101,37.278 C12.2385444,36.1820237 22.6991361,26.8639172 24.8886036,17.8106627 Z M34.9830533,42.9145207 L53.0895621,42.9145207 C54.5096805,42.9145207 54.1447101,43.0920355 54.8299172,42.0862367 C55.5154793,41.0800828 57.8824615,36.1689586 58.0006864,31.8493136 C58.1192663,27.5300237 56.9849467,20.5476568 54.8299172,20.5476568 C52.6752426,20.5476568 49.8026982,22.9490769 49.1249467,23.4471834 C47.6331124,24.5431598 37.1725207,33.8612663 34.9830533,42.9145207 Z" id="path-2"></path>
        <linearGradient x1="1.92809898%" y1="88.5358747%" x2="92.5017172%" y2="25.2887618%" id="linearGradient-4">
            <stop stop-color="#A160FF" offset="0%"></stop>
            <stop stop-color="#C332F0" offset="51.009296%"></stop>
            <stop stop-color="#B483EE" offset="100%"></stop>
        </linearGradient>
        <linearGradient x1="16.3164367%" y1="84.1046532%" x2="97.4470567%" y2="15.2855058%" id="linearGradient-5">
            <stop stop-color="#CCC6FF" stop-opacity="0.61" offset="0%"></stop>
            <stop stop-color="#A79FFF" stop-opacity="0.159172187" offset="28.4301124%"></stop>
            <stop stop-color="#9D95FF" stop-opacity="0" offset="100%"></stop>
        </linearGradient>
        <linearGradient x1="81.9011805%" y1="0%" x2="73.5369753%" y2="94.36567%" id="linearGradient-6">
            <stop stop-color="#7A4DFC" offset="0%"></stop>
            <stop stop-color="#7A4DFC" offset="18.3991322%"></stop>
            <stop stop-color="#8356FD" stop-opacity="0.167968018" offset="37.306758%"></stop>
            <stop stop-color="#7A4DFC" stop-opacity="0" offset="100%"></stop>
        </linearGradient>
    </defs>
    <g id="Frameworks" stroke="none" stroke-width="1" fill="none" fill-rule="evenodd">
        <g id="icons/skills/id-404">
            <g id="Group-2" transform="translate(2.000000, 2.000000)">
                <mask id="mask-3" fill="white">
                    <use xlink:href="#path-2"></use>
                </mask>
                <use id="Mask" fill="url(#radialGradient-1)" xlink:href="#path-2"></use>
                <path d="M59.7337278,30.1331361 C59.7337278,46.6281657 46.3618935,60 29.8668639,60 C13.3718343,60 0,46.6281657 0,30.1331361 C0,13.6381065 13.3718343,0.266272189 29.8668639,0.266272189 C46.3618935,0.266272189 59.7337278,13.6381065 59.7337278,30.1331361" id="Fill-1" fill="url(#radialGradient-1)" mask="url(#mask-3)"></path>
                <path d="M36.9833609,15.354142 C42.7895148,13.9705917 48.5782722,13.1792308 54.2729467,12.9282249 C48.8654911,5.2716568 39.9535385,0.266449704 29.8667929,0.266449704 C13.3717633,0.266449704 -7.10059171e-05,13.638284 -7.10059171e-05,30.1333136 C-7.10059171e-05,31.3272781 0.078035503,32.5027811 0.214366864,33.6605325 C10.308213,25.1831361 22.8141302,18.7304734 36.9833609,15.354142" id="Fill-3" fill="url(#linearGradient-4)" mask="url(#mask-3)"></path>
                <path d="M27.6961775,44.862284 C20.3531006,46.4986154 13.2514438,47.8289112 6.59854438,48.8489112 C12.0731006,55.6466627 20.4596095,60.0000355 29.8668284,60.0000355 C44.3065917,60.0000355 56.3527456,49.7524615 59.130497,36.1331716 C50.0239882,39.257787 39.2932189,42.2776686 27.6961775,44.862284" id="Fill-6" fill="url(#linearGradient-5)" opacity="0.560000002" mask="url(#mask-3)"></path>
                <path d="M47.8009704,53.9477751 C30.9207337,53.9477751 15.1673609,48.9375976 1.82818935,40.2762959 C5.98132544,51.7778343 16.991858,59.9999645 29.9255858,59.9999645 C36.6967101,59.9999645 42.9391953,57.7433964 47.9490178,53.946 C47.8993136,53.946 47.8503195,53.9477751 47.8009704,53.9477751" id="Fill-9" fill-opacity="0.25" fill="#CFC4F8" mask="url(#mask-3)"></path>
                <path d="M51.9995503,10.0798225 C52.4660592,12.5852663 52.7092544,15.1645562 52.7092544,17.7985207 C52.7092544,36.8671598 39.9509112,53.0742604 22.1788402,58.9961538 C24.6320947,59.6479882 27.2081893,60.0001775 29.8670059,60.0001775 C46.3620355,60.0001775 59.7338698,46.6279882 59.7338698,30.1333136 C59.7338698,22.4146154 56.8052308,15.3804142 51.9995503,10.0798225" id="Fill-11" fill-opacity="0.479999989" fill="url(#linearGradient-6)" mask="url(#mask-3)"></path>
                <path d="M24.8886036,17.8106627 L6.78209467,17.8106627 C5.36197633,17.8106627 5.72694675,17.6331479 5.04173964,18.6389467 C4.35617751,19.6451006 1.98919527,24.5562249 1.87097041,28.8758698 C1.75239053,33.1951598 2.88671006,40.1775266 5.04173964,40.1775266 C7.1964142,40.1775266 10.0689586,37.7761065 10.7467101,37.278 C12.2385444,36.1820237 22.6991361,26.8639172 24.8886036,17.8106627" id="Fill-14" fill="#FFFFFF" mask="url(#mask-3)"></path>
                <path d="M34.9830533,42.9145207 L53.0895621,42.9145207 C54.5096805,42.9145207 54.1447101,43.0920355 54.8299172,42.0862367 C55.5154793,41.0800828 57.8824615,36.1689586 58.0006864,31.8493136 C58.1192663,27.5300237 56.9849467,20.5476568 54.8299172,20.5476568 C52.6752426,20.5476568 49.8026982,22.9490769 49.1249467,23.4471834 C47.6331124,24.5431598 37.1725207,33.8612663 34.9830533,42.9145207" id="Fill-16" fill="#FFFFFF" mask="url(#mask-3)"></path>
            </g>
        </g>
    </g>
</svg>