<?xml version="1.0" encoding="UTF-8" standalone="no"?>
<svg width="64px" height="64px" viewBox="0 0 64 64" version="1.1" xmlns="http://www.w3.org/2000/svg" xmlns:xlink="http://www.w3.org/1999/xlink">
    <defs></defs>
    <g id="Languages" stroke="none" stroke-width="1" fill="none" fill-rule="evenodd">
        <g id="icons/skills/id-401">
            <g id="Rectangle-22-+-Rectangle-25" transform="translate(8.000000, 4.000000)">
                <path d="M0,4.00490831 C0,1.79305852 1.79405245,0 4.00989318,0 L43.9901068,0 C46.2047097,0 48,1.78913646 48,4.00172845 L48,46 L38,56 L3.99484381,56 C1.7885525,56 0,54.200205 0,51.9950917 L0,4.00490831 Z" id="Rectangle-22" fill="#D1D3D4"></path>
                <path d="M38,50.009763 C38,47.795232 39.7877996,46 42.009763,46 L48,46 L38,56 L38,50.009763 Z" id="Rectangle-25" fill="#A3A3AE"></path>
            </g>
            <path d="M22.322,42.3650654 L19.49,38.3090654 L21.398,38.3090654 L23.402,41.4530654 L25.382,38.3090654 L27.218,38.3090654 L24.434,42.3650654 L27.518,46.8050654 L25.598,46.8050654 L23.354,43.2170654 L21.122,46.8050654 L19.298,46.8050654 L22.322,42.3650654 Z M28.502,38.3090654 L30.806,38.3090654 L33.074,44.2610654 L35.366,38.3090654 L37.646,38.3090654 L37.646,46.8050654 L36.206,46.8050654 L36.206,39.7490654 L36.182,39.7490654 L33.602,46.8050654 L32.546,46.8050654 L29.966,39.7490654 L29.942,39.7490654 L29.942,46.8050654 L28.502,46.8050654 L28.502,38.3090654 Z M39.578,38.3090654 L41.09,38.3090654 L41.09,45.4370654 L44.702,45.4370654 L44.702,46.8050654 L39.578,46.8050654 L39.578,38.3090654 Z" id="XML" fill="#394146"></path>
            <g id="Stroke-1693-+-Stroke-1694-+-Stroke-1695" transform="translate(22.000000, 16.000000)" stroke="#378EE6" stroke-width="3" stroke-linecap="round" stroke-linejoin="round">
                <path d="M4.28571429,3.57142857 L0,7.85714286 L4.28571429,12.1428571" id="Stroke-1693"></path>
                <path d="M15.7142857,3.57142857 L20,7.85714286 L15.7142857,12.1428571" id="Stroke-1694"></path>
                <path d="M7.14285714,15.7142857 L12.8571429,0" id="Stroke-1695"></path>
            </g>
        </g>
    </g>
</svg>