<?xml version="1.0" encoding="UTF-8" standalone="no"?>
<svg width="64px" height="64px" viewBox="0 0 64 64" version="1.1" xmlns="http://www.w3.org/2000/svg" xmlns:xlink="http://www.w3.org/1999/xlink">
    <defs></defs>
    <g id="Tools" stroke="none" stroke-width="1" fill="none" fill-rule="evenodd">
        <g id="icons/skills/id-411">
            <path d="M61,9.97012698 C61,6.12049206 57.8795079,3 54.029873,3 L9.97012698,3 C6.12049206,3 3,6.12049206 3,9.97012698 L3,54.0294127 C3,57.8795079 6.12049206,61 9.97012698,61 L54.029873,61 C57.8795079,61 61,57.8795079 61,54.0294127 L61,9.97012698 L61,9.97012698 Z" id="Shape" fill="#23719F"></path>
            <path d="M29.2380952,48.3596825 C29.2380952,50.1121111 27.7254921,51.3333333 25.9730635,51.3333333 L13.3861429,51.3333333 C11.6337143,51.3333333 10.3650794,50.1121111 10.3650794,48.3596825 L10.3650794,13.2328571 C10.3650794,11.4799683 11.6337143,9.9047619 13.3861429,9.9047619 L25.9730635,9.9047619 C27.7254921,9.9047619 29.2380952,11.4799683 29.2380952,13.2328571 L29.2380952,48.3596825 L29.2380952,48.3596825 Z" id="Path" fill="#FFFFFF"></path>
            <path d="M54.5555556,17.7688254 L54.5555556,32.4465079 C54.5555556,34.1989365 53.2040635,35.6825397 51.4511746,35.6825397 L38.8706984,35.6825397 C37.1178095,35.6825397 35.6825397,34.1984762 35.6825397,32.4465079 L35.6825397,13.0653016 C35.6825397,11.3124127 37.1178095,9.9047619 38.8706984,9.9047619 L51.4511746,9.9047619 C53.2040635,9.9047619 54.5555556,11.3124127 54.5555556,13.0653016 L54.5555556,17.7688254 L54.5555556,17.7688254 Z" id="Path" fill="#FFFFFF"></path>
        </g>
    </g>
</svg>