<?xml version="1.0" encoding="UTF-8" standalone="no"?>
<svg width="64px" height="64px" viewBox="0 0 64 64" version="1.1" xmlns="http://www.w3.org/2000/svg" xmlns:xlink="http://www.w3.org/1999/xlink">
    <defs></defs>
    <g id="Frameworks" stroke="none" stroke-width="1" fill="none" fill-rule="evenodd">
        <g id="icons/skills/id-421">
            <path d="M12.202381,59.6719048 C12.2133333,59.8380952 12.1352381,59.8714286 12.0109524,59.7828571 C11.7471429,59.5947619 11.4514286,59.432381 11.2380952,59.1971429 C10.1685714,58.0157143 9.39428571,56.6671429 9.02761905,55.1033333 C8.87857143,54.4661905 8.86809524,53.827619 8.9152381,53.1690476 C9.00619048,51.9066667 8.9152381,50.647619 8.5752381,49.4180952 C8.55285714,49.3361905 8.50190476,49.2619048 8.41238095,49.0780952 L7.7647619,49.8680952 L7.68666667,49.8209524 C7.70619048,48.0014286 7.64380952,46.1871429 7.31857143,44.3709524 L6.60190476,46.0652381 L6.48285714,46.0442857 C6.43,45.7733333 6.37095238,45.5033333 6.3247619,45.2314286 C6.0547619,43.6371429 6.00952381,42.0252381 6.09857143,40.4209524 C6.23666667,37.94 6.64619048,35.5057143 7.80190476,33.2604762 C8.12714286,32.6290476 8.52047619,32.04 9.04428571,31.5014286 C8.77666667,31.5819048 8.5052381,31.6514286 8.24238095,31.7461905 C7.96666667,31.8452381 7.69952381,31.9685714 7.37,32.1057143 C7.71428571,31.2009524 8.17190476,30.407619 8.76666667,29.7019048 C9.35380952,29.0052381 9.98095238,28.3419048 10.6142857,27.637619 L9.14428571,27.0880952 L9.04047619,26.9904762 C9.14238095,26.9371429 9.25380952,26.8961905 9.34428571,26.827619 C10.7795238,25.7395238 12.4219048,25.12 14.1495238,24.6885714 C14.6985714,24.5519048 14.602381,24.6538095 14.6409524,24.0795238 C14.7033333,23.15 14.8047619,22.2233333 14.89,21.2952381 L14.9747619,21.2880952 L16.2352381,23.6885714 C16.0980952,20.007619 16.3628571,16.382381 17.3795238,12.837619 L17.4657143,12.8366667 C17.472381,12.9552381 17.487619,13.0738095 17.4833333,13.1919048 C17.4533333,13.9690476 17.5290476,14.727619 17.8404762,15.4514286 C18.0566667,15.9542857 18.3719048,16.3671429 18.8866667,16.6809524 C19.102381,14.5085714 19.6828571,12.452381 20.3666667,10.36 L21.3914286,11.5157143 C21.5466667,10.062381 21.8752381,8.70142857 22.3771429,7.34142857 L23.8361905,9.20047619 L24.7014286,5.10666667 L25.3157143,6.45428571 C25.2728571,8.5947619 26.3190476,10.2342857 27.7861905,11.7257143 L26.1628571,12.5457143 C27.8647619,12.4071429 29.0885714,11.8204762 29.9604762,10.7338095 C30.2180952,10.3304762 30.5161905,9.94714286 30.7238095,9.51952381 C31.0357143,8.87857143 31.0119048,8.86095238 30.4261905,8.46809524 C28.8595238,7.41857143 27.797619,5.99428571 27.2361905,4.19571429 C27.9061905,3.33571429 28.8357143,2.88714286 29.8047619,2.5452381 L29.9285714,4.46761905 C30.1880952,4.33 30.3742857,4.2352381 30.5571429,4.13428571 C32.1657143,3.24857143 33.8785714,2.65238095 35.677619,2.29952381 C36.0238095,2.23190476 36.3733333,2.18428571 36.722381,2.13333333 C36.7619048,2.12761905 36.8080952,2.16238095 36.8509524,2.17809524 L35.1690476,3.51904762 C34.5542857,4.00904762 34.0657143,4.60952381 33.6414286,5.26571429 L33.5819048,5.3252381 L33.5809524,5.38428571 C33.5204762,5.44714286 33.4414286,5.5 33.4019048,5.57380952 C33.0814286,6.17238095 32.7509524,6.76619048 32.46,7.37952381 C32.2904762,7.73666667 32.1885714,8.12571429 32.0504762,8.51714286 L34.7542857,8.7747619 L34.8019048,8.87809524 C32.8595238,10.6271429 30.9138095,12.3728571 29.1080952,14.3380952 L31.0419048,14.6028571 C30.4938095,14.8271429 30,14.997619 29.5352381,15.2257143 C28.1814286,15.89 26.9152381,16.6719048 26,17.9214286 C25.2914286,18.8890476 24.5547619,19.8361905 23.8304762,20.7919048 C23.2647619,20.2252381 22.6995238,19.6580952 22.1304762,19.0866667 L21.6961905,21.0690476 L22.9033333,22.1552381 C22.8395238,22.277619 22.7719048,22.3980952 22.712381,22.522381 C22.3352381,23.3142857 21.9261905,24.0928571 21.5933333,24.9028571 C21.2471429,25.7466667 21.1690476,26.6561905 21.1042857,27.5614286 C21.03,28.6009524 20.9142857,29.6385714 20.8814286,30.6790476 C20.8419048,31.9395238 20.8347619,33.2038095 21.047619,34.4566667 C21.2347619,35.5595238 21.3780952,36.6709524 21.597619,37.7671429 C21.7333333,38.4438095 21.9747619,39.0990476 22.1695238,39.7638095 L22.2509524,39.747619 L23.0561905,38.1319048 L23.1366667,38.152381 C23.4271429,39.5457143 23.8409524,40.9009524 24.4338095,42.1938095 C25.0238095,43.4804762 25.7033333,44.7147619 26.7733333,45.7133333 L26.7733333,44.0085714 L26.892381,44.01 C27.1109524,44.1238095 27.3304762,44.2366667 27.5447619,44.3585714 C29.0480952,45.2157143 30.6038095,45.9657143 32.2104762,46.6080952 C34.1547619,47.3852381 36.0904762,48.1819048 37.9371429,49.1742857 C38.5090476,49.4814286 39.0842857,49.8090476 39.5838095,50.217619 C40.717619,51.1461905 41.8057143,52.1314286 42.912381,53.0938095 L42.8204762,53.3104762 C42.4580952,54.0352381 42.0895238,54.7566667 41.732381,55.4842857 C41.4171429,56.1266667 41.1142857,56.7747619 40.8057143,57.4204762 L40.7257143,57.4080952 L40.7257143,55.1704762 C40.5985714,55.457619 40.5480952,55.7480952 40.4709524,56.0314286 C40.1580952,57.1819048 39.842381,58.3319048 39.5166667,59.4780952 C39.4180952,59.8238095 39.1704762,60.0228571 38.8304762,60.1580952 C38.432381,60.3161905 38.0609524,60.2657143 37.6790476,60.1452381 L37.682381,60.1471429 L37.5719048,60.0961905 C36.9919048,59.6642857 36.412381,59.2314286 35.8309524,58.8009524 C35.682381,58.6914286 35.5261905,58.5919048 35.3795238,58.4919048 L35.59,60.6333333 L35.4780952,60.6909524 C33.1057143,58.7571429 30.2047619,57.7985714 27.5752381,56.3395238 C26.7204762,55.7952381 25.8633333,55.2552381 25.012381,54.7042857 C24.7852381,54.5571429 24.5785714,54.3795238 24.3119048,54.177619 L24.442381,55.2314286 L24.3709524,55.2814286 L21.9409524,53.6133333 C21.9833333,53.282381 22.0466667,52.952381 22.0642857,52.6204762 C22.0957143,52.0142857 22.1709524,51.3985714 22.1019048,50.8014286 C21.9347619,49.3590476 21.1852381,48.252381 19.9885714,47.432381 C19.502381,47.0990476 19.0328571,46.7366667 18.5857143,46.3519048 C18.3395238,46.1404762 18.1490476,45.8595238 18.0942857,45.5557143 L19.4904762,45.6809524 C19.0752381,44.9066667 18.6619048,44.2214286 18.3338095,43.497619 C18.0052381,42.7714286 17.6919048,42.0238095 17.732381,41.1057143 C17.9766667,41.437619 18.1352381,41.7461905 18.4985714,41.8933333 C18.3742857,40.6695238 18.5528571,39.5109524 18.752381,38.3614286 C18.9509524,37.2133333 19.2271429,36.0785714 19.4695238,34.937619 C18.6233333,36.4195238 17.76,37.8895238 17.5004762,39.6785714 L16.8019048,38.9433333 C16.7714286,39.3871429 16.7128571,39.7880952 16.7219048,40.1880952 C16.7419048,41.0842857 16.7757143,41.9814286 16.8390476,42.8757143 C16.9109524,43.8957143 17.1895238,44.867619 17.592381,45.8080952 C18.0514286,46.8819048 18.8380952,47.7171429 19.5666667,48.597619 C20.03,49.1566667 20.4266667,49.7628571 20.5319048,50.4990476 C20.6457143,51.2957143 20.7204762,52.097619 20.812381,52.897619 L20.9971429,55.6042857 C20.4671429,55.7133333 18.9871429,55.3557143 18.6766667,55.0185714 L18.9257143,54.8857143 C18.6595238,54.6557143 18.3652381,54.4552381 18.1414286,54.1942857 C17.8014286,53.7985714 17.7347619,53.287619 17.6552381,52.787619 C17.6347619,52.6590476 17.5304762,52.5442857 17.4652381,52.4233333 C17.3414286,52.5357143 17.1785714,52.627619 17.1061905,52.7666667 C17.0452381,52.8833333 17.06,53.0619048 17.0933333,53.2004762 C17.1547619,53.4580952 17.2333333,53.7161905 17.3404762,53.957619 C17.6638095,54.6890476 18.0142857,55.4080952 18.3342857,56.1404762 C18.727619,57.0390476 19.0509524,57.9585714 19.0290476,58.9604762 C19.022381,59.2542857 18.962381,59.3095238 18.6919048,59.2014286 C18.3266667,59.0552381 17.97,58.8847619 17.6195238,58.7057143 C17.3442857,58.5647619 17.0842857,58.3947619 16.7838095,58.2180952 L16.7838095,58.5338095 L16.7595238,58.5542857 C16.6738095,58.5109524 16.5761905,58.4819048 16.5033333,58.422381 C16.1938095,58.1695238 15.8914286,57.9071429 15.5866667,57.6485714 L15.5885714,57.6509524 L15.5266667,57.5271429 L14.9804762,56.1680952 L14.9309524,56.3680952 L14.8428571,56.5538095 C14.432381,55.8014286 14.2161905,55.0480952 14.1052381,54.2557143 C13.9057143,54.9333333 14.1190476,55.58 14.2085714,56.2738095 L14.3885714,56.0785714 C14.5442857,56.392381 14.6785714,56.6966667 14.842381,56.9847619 C15.007619,57.2752381 15.19,57.5571429 15.3861905,57.827619 C15.4852381,57.9652381 15.6304762,58.0695238 15.7542857,58.1885714 C16.042381,58.9142857 16.3395238,59.637619 16.4847619,60.4871429 L14.9233333,60.0242857 C14.2938095,59.742381 13.65,59.4857143 13.1438095,58.9904762 C13.1190476,58.9666667 13.0709524,58.9671429 13.0338095,58.9561905 L13.0109524,58.8785714 L12.9885714,58.8938095 L13.0328571,58.9571429 L13.5519048,60.0390476 L13.5147619,60.1152381 L12.7038095,59.832381 L12.202381,59.6719048 L12.1771429,59.6580952 L12.202381,59.6719048 L12.202381,59.6719048 Z M12.837619,58.6933333 L12.2271429,57.2204762 L12.0266667,57.3571429 L11.6166667,55.437619 C11.2238095,56.1895238 11.9952381,58.3342857 12.837619,58.6933333 L12.837619,58.6933333 Z M19.552381,34.7371429 L19.5438095,34.7119048 L19.522381,34.717619 L19.5309524,34.7428571 L19.552381,34.7371429 L19.552381,34.7371429 Z" id="Shape" fill="#D3EDF6"></path>
            <path d="M42.9138095,53.0952381 C41.8071429,52.1328571 40.7190476,51.1480952 39.5852381,50.2190476 C39.0857143,49.8104762 38.5104762,49.4828571 37.9385714,49.1757143 C36.092381,48.1838095 34.1561905,47.3871429 32.2119048,46.6095238 C30.6052381,45.9671429 29.0495238,45.2171429 27.5461905,44.36 C27.3319048,44.2380952 27.112381,44.1252381 26.8938095,44.0114286 L26.7747619,44.01 L26.7747619,45.7147619 C25.7047619,44.7166667 25.0257143,43.4819048 24.4352381,42.1952381 C23.842381,40.9028571 23.4285714,39.5471429 23.1380952,38.1538095 L23.057619,38.1333333 L22.252381,39.7490476 L22.1709524,39.7652381 C21.9766667,39.1004762 21.7347619,38.4452381 21.5990476,37.7685714 C21.3795238,36.672381 21.2361905,35.5609524 21.0490476,34.4580952 C20.8366667,33.2052381 20.8438095,31.9409524 20.8828571,30.6804762 C20.9152381,29.64 21.0314286,28.6019048 21.1057143,27.5628571 C21.1704762,26.6580952 21.2485714,25.7485714 21.5947619,24.9042857 C21.9271429,24.0942857 22.3366667,23.3157143 22.7138095,22.5238095 C22.7733333,22.3990476 22.8409524,22.2790476 22.9047619,22.1566667 L23.0238095,22.2442857 C23.7785714,22.8657143 24.5409524,23.4780952 25.2809524,24.1171429 C25.4219048,24.2385714 25.527619,24.4542857 25.5571429,24.6419048 C25.6142857,25.0009524 25.6095238,25.3709524 25.6219048,25.7366667 C25.642381,26.35 25.8014286,26.61 26.38,26.7952381 C28.3561905,27.4266667 30.3680952,27.7838095 32.4547619,27.5404762 C33.0357143,27.472381 33.522381,27.2528571 33.8604762,26.7647619 C34.1585714,26.3342857 34.4504762,25.8995238 34.7295238,25.4566667 C35.0490476,24.95 35.1357143,24.9157143 35.7214286,25.0042857 C35.9852381,25.0442857 36.0709524,25.1666667 36.0647619,25.4128571 C36.0552381,25.7880952 36.0628571,26.1638095 36.0585714,26.5390476 C36.0495238,27.3742857 36.5080952,27.852381 37.2738095,28.0290476 C37.9261905,28.1790476 38.592381,28.2895238 39.2585714,28.352381 C40.102381,28.4314286 40.9571429,28.507619 41.7809524,28.1947619 C41.5795238,28.7161905 41.38,29.2380952 41.1761905,29.7590476 C41.0866667,29.9880952 41.0047619,30.222381 40.89,30.4390476 C40.722381,30.7552381 40.667619,31.0385714 41.007619,31.2761905 L41.0690476,31.3419048 L41.0685714,31.3404762 L41.2304762,31.6504762 C41.612381,32.4280952 42.0371429,33.1885714 42.3647619,33.9885714 C42.8809524,35.2504762 43.0638095,36.5880952 43.0995238,37.9466667 C43.1580952,39.5419048 42.8533333,41.0719048 42.2514286,42.5433333 C42.0761905,42.9704762 41.9209524,43.4409524 41.6266667,43.7790476 C40.3019048,45.3047619 38.6171429,45.997619 36.5866667,45.7885714 L36.0014286,45.7204762 C36.0390476,45.7990476 36.087619,45.8285714 36.1361905,45.8571429 C37.502381,46.6519048 38.8680952,47.4471429 40.2357143,48.2395238 C40.3095238,48.282381 40.3957143,48.3033333 40.4757143,48.3347619 C40.7309524,48.5590476 40.9880952,48.7809524 41.2414286,49.007619 L42.4504762,50.0947619 L42.5433333,50.1595238 C42.9528571,49.8066667 43.3461905,49.4504762 43.7571429,49.1171429 C44.9728571,48.13 46.31,47.3466667 47.7380952,46.7009524 C48.7804762,46.23 49.7857143,45.6752381 50.807619,45.1580952 C50.8671429,45.1280952 50.9285714,45.1 51.0752381,45.1085714 L50.71,46.5033333 L50.6304762,46.7842857 L50.6057143,46.797619 L50.6166667,46.8085714 L50.63,46.7838095 C51.1038095,46.5590476 51.5914286,46.3595238 52.0466667,46.102381 C52.4247619,45.8885714 52.7642857,45.607619 53.1214286,45.3571429 C53.0538095,45.5095238 52.9985714,45.6690476 52.9157143,45.8128571 C52.2985714,46.8871429 51.4738095,47.7914286 50.5752381,48.632381 C50.3195238,48.8714286 50.0438095,49.0890476 49.7428571,49.3461905 L49.82,47.987619 C48.5028571,49.0833333 47.3995238,50.2604762 46.3314286,51.4738095 L46.2514286,51.4480952 L46.1409524,49.8552381 C44.9795238,50.9009524 43.8319048,51.8819048 42.9138095,53.0952381 L42.9138095,53.0952381 Z M27.2704762,28.8666667 C27.287619,29.0304762 27.2904762,29.147619 27.3133333,29.2609524 C27.4752381,30.0790476 27.9409524,30.7061905 28.5828571,31.2052381 C29.9066667,32.2357143 31.4561905,32.7261905 33.0795238,32.997619 C34.542381,33.242381 36.0209524,33.14 37.4942857,33.1014286 C37.5604762,33.1 37.6257143,33.0785714 37.752381,33.0547619 L37.4142857,32.3466667 C37.2461905,32.0014286 37.0690476,31.6604762 36.9090476,31.3114286 C36.7928571,31.0580952 36.8714286,30.8828571 37.112381,30.7161905 C37.6190476,30.3657143 38.0995238,29.9752381 38.6104762,29.5861905 C38.2233333,29.2680952 37.8042857,29.1257143 37.3742857,29.092381 C36.1138095,28.9952381 34.8504762,28.8971429 33.5866667,28.8761905 C31.5,28.8414286 29.412381,28.8666667 27.2704762,28.8666667 L27.2704762,28.8666667 Z M33.91,37.467619 L34.0266667,37.4442857 C34.1961905,37.102381 34.3880952,36.7695238 34.5295238,36.4161905 C34.7028571,35.9819048 34.8661905,35.5680952 35.3542857,35.3790476 C35.6190476,35.2766667 35.8595238,35.1114286 36.1104762,34.9747619 L36.0861905,34.8814286 C33.8952381,35.0171429 31.7490476,34.7780952 29.5904762,34.0804762 C29.6480952,35.0061905 29.8828571,35.79 30.2695238,36.5785714 L31.102381,35.6509524 C31.3642857,36.3585714 31.54,37.047619 32.0719048,37.6442857 L33.0904762,36.14 L33.91,37.467619 L33.91,37.467619 Z M35.8657143,45.692381 L35.86,45.6747619 L35.8347619,45.6695238 L35.8419048,45.6995238 L35.8657143,45.692381 L35.8657143,45.692381 Z M23.832381,20.7928571 C24.5566667,19.8366667 25.2928571,18.8895238 26.0019048,17.922381 C26.9171429,16.6728571 28.1833333,15.8909524 29.5371429,15.2266667 C30.0019048,14.9985714 30.4952381,14.8280952 31.0438095,14.6038095 L29.11,14.3390476 C30.9157143,12.3738095 32.8614286,10.6280952 34.8038095,8.87904762 L34.7561905,8.77571429 L32.052381,8.51809524 C32.1909524,8.12714286 32.292381,7.73761905 32.4619048,7.38047619 C32.7528571,6.76761905 33.0833333,6.17333333 33.4038095,5.5747619 C33.4433333,5.50095238 33.522381,5.44761905 33.5828571,5.3852381 C33.6828571,5.4247619 33.78,5.47904762 33.8838095,5.50142857 C35.3509524,5.81904762 36.8190476,6.13047619 38.2857143,6.44857143 C38.6857143,6.5352381 38.6919048,6.53761905 38.6919048,6.10904762 L38.6919048,3.90190476 C39.1747619,3.76952381 39.6528571,3.61333333 40.1419048,3.50952381 C41.2742857,3.26952381 42.4095238,3.04047619 43.5490476,2.83619048 C44.1171429,2.7347619 44.6966667,2.69904762 45.3185714,2.62761905 L44.1138095,4.70761905 L44.1814286,4.75571429 C44.6938095,4.6047619 45.2,4.4252381 45.72,4.31095238 C46.2433333,4.1952381 46.7804762,4.1447619 47.3619048,4.05809524 L47.3619048,4.90380952 C48.79,4.72619048 50.1657143,4.75619048 51.5785714,5.02428571 C51.4866667,5.21095238 51.4109524,5.35714286 51.3419048,5.50666667 C51.1009524,6.02571429 50.8638095,6.54714286 50.6214286,7.0647619 C50.5180952,7.28571429 50.57,7.40714286 50.8147619,7.47761905 C51.3909524,7.64380952 51.962381,7.82904762 52.5347619,8.00952381 C52.6461905,8.0447619 52.7538095,8.09190476 52.9080952,8.15047619 C52.6604762,8.45238095 52.4228571,8.72190476 52.207619,9.00809524 C51.597619,9.81666667 50.9961905,10.6319048 50.3942857,11.4466667 C50.3609524,11.4919048 50.3533333,11.5557143 50.3333333,11.6114286 L49.1195238,13.5028571 C48.7490476,14.132381 48.3771429,14.7614286 48.0114286,15.3938095 C47.9847619,15.44 48.0033333,15.5119048 48.0014286,15.572381 C47.82,15.8366667 47.6114286,16.0866667 47.4614286,16.367619 C46.7561905,17.692381 46.0452381,19.0157143 45.3780952,20.3595238 C44.7242857,21.6771429 44.1195238,23.0185714 43.4966667,24.3509524 C43.4595238,24.43 43.45,24.5209524 43.427619,24.6066667 C42.4247619,24.4014286 41.4219048,24.1961905 40.4185714,23.9914286 C40.0895238,23.5419048 39.6004762,23.5014286 39.2271429,23.8928571 C38.3885714,23.9195238 37.55,23.9609524 36.7109524,23.9671429 C36.2804762,23.9704762 35.8380952,23.9633333 35.4204762,23.8709524 C34.13,23.5861905 32.8490476,23.2580952 31.5638095,22.9471429 C31.3519048,22.4328571 30.6152381,22.3538095 30.2538095,22.6790476 L30.1652381,22.6761905 C28.5728571,22.4052381 26.9742857,22.2180952 25.3538095,22.2833333 C25.2785714,22.2861905 25.1804762,22.2371429 25.1261905,22.1804762 C24.6909524,21.7219048 24.2628571,21.2561905 23.832381,20.7928571 L23.832381,20.7928571 Z M29.3080952,21.7195238 L29.4666667,21.6509524 C30.1514286,21.292381 30.8619048,21.0766667 31.6461905,21.2357143 C31.7980952,21.2666667 31.9552381,21.2747619 32.1380952,21.2966667 C31.677619,20.5942857 30.517619,20.5319048 29.8742857,20.9495238 C29.5938095,21.1314286 29.3238095,21.3357143 29.3080952,21.7195238 L29.2942857,21.7442857 L29.3080952,21.7195238 L29.3080952,21.7195238 Z M32.2580952,20.1438095 C31.9819048,19.4819048 31.1109524,19.1542857 30.3309524,19.3690476 C29.6766667,19.5485714 29.06,20.2495238 29.1285714,20.7952381 C30.0019048,19.8085714 31.057619,19.72 32.2580952,20.1438095 L32.2580952,20.1438095 Z M40.862381,21.4066667 C41.7133333,21.4861905 42.4514286,21.7666667 42.9785714,22.5142857 C43.0166667,21.8961905 42.7761905,21.5333333 42.2757143,21.2595238 C41.8071429,21.0028571 41.237619,21.0742857 40.862381,21.4066667 L40.862381,21.4066667 Z M42.3628571,23.7819048 C42.2909524,23.0933333 42.0757143,22.5371429 41.3904762,22.3409524 C41.0380952,22.24 40.6814286,22.297619 40.382381,22.582381 C41.2795238,22.8290476 41.5966667,22.8571429 42.3628571,23.7819048 L42.3628571,23.7819048 Z" id="Shape" fill="#E9F5FA"></path>
            <path d="M43.0995238,37.9457143 C43.0633333,36.5871429 42.8809524,35.2495238 42.3647619,33.987619 C42.0371429,33.187619 41.612381,32.4271429 41.2304762,31.6495238 L41.0685714,31.3395238 C41.3595238,31.4271429 41.6485714,31.5214286 41.9419048,31.6 C42.3690476,31.7147619 42.7952381,31.8471429 43.2309524,31.9138095 C43.4633333,31.9495238 43.7152381,31.8657143 43.9571429,31.8290476 C44.0504762,31.8147619 44.1409524,31.7819048 44.2857143,31.7438095 L44.1680952,32.3261905 C45.1404762,31.8742857 45.8442857,31.1795238 46.4133333,30.3661905 C46.98,29.5557143 47.4647619,28.6880952 47.9752381,27.8604762 L48.2033333,28.2447619 C48.6142857,27.6019048 48.3309524,25.7033333 47.6528571,24.5733333 C47.8252381,24.5733333 47.967619,24.5633333 48.1080952,24.5747619 C49,24.6471429 49.9095238,24.6385714 50.7161905,25.1166667 C51.3557143,25.4952381 51.812381,26.032381 52.1185714,26.7414286 L51.4357143,26.7033333 C52.1161905,27.8047619 52.3780952,28.9452381 52.2714286,30.2504762 L51.7452381,29.832381 C51.72,29.9571429 51.7019048,30.0857143 51.6671429,30.2095238 C51.5619048,30.5795238 51.4461905,30.9461905 51.3442857,31.3171429 C51.3171429,31.4161905 51.3252381,31.5242857 51.3171429,31.6280952 C51.427619,31.6309524 51.5495238,31.6661905 51.6471429,31.6314286 C52.2047619,31.4333333 52.7561905,31.2180952 53.31,31.01 C53.5409524,30.9233333 53.7761905,30.8471429 54.0042857,30.7533333 C54.2452381,30.6542857 54.3347619,30.74 54.3180952,30.9828571 C53.6909524,31.2014286 53.0628571,31.4190476 52.4366667,31.6404762 C52.3566667,31.6690476 52.2833333,31.7180952 52.2071429,31.757619 C53.0004762,31.6695238 53.3152381,31.7114286 53.7209524,31.9947619 C54.0161905,32.2009524 54.0590476,32.457619 53.7966667,32.7085714 C53.5928571,32.9033333 53.3485714,33.057619 53.112381,33.2147619 C52.9709524,33.3095238 52.8104762,33.3757143 52.6142857,33.4780952 L52.8866667,33.5814286 C52.4542857,33.8652381 52.0380952,34.11 51.6547619,34.3980952 C51.1780952,34.7566667 50.6995238,35.122381 50.2766667,35.54 C49.9395238,35.8728571 50.042381,36.1052381 50.5142857,36.1433333 C51.0928571,36.19 51.6752381,36.1919048 52.2557143,36.2119048 L52.6285714,36.212381 L52.3533333,36.5680952 L52.3395238,36.5909524 L52.3514286,36.5666667 C52.5690476,36.5666667 52.7895238,36.587619 53.0028571,36.5580952 C53.1371429,36.5390476 53.3257143,36.4757143 53.3761905,36.3752381 C53.4852381,36.1571429 53.6614286,36.13 53.8538095,36.0938095 C54.23,36.0228571 54.6080952,35.96 54.9814286,35.8757143 C55.28,35.8080952 55.5733333,35.7138095 55.8685714,35.6314286 L55.912381,35.6933333 L55.2514286,36.3090476 L55.152381,35.9461905 C54.1038095,36.4280952 53.0680952,36.8647619 52.0719048,37.3785714 C51.5914286,37.6266667 51.1861905,38.02 50.7466667,38.3480952 L50.722381,38.3757143 L50.75,38.3519048 L51.0314286,38.3719048 L49.93,39.3009524 C50.1057143,39.4538095 50.2466667,39.6547619 50.4357143,39.7233333 C50.7914286,39.8528571 51.1714286,39.9533333 51.547619,39.9804762 C52.1147619,40.0209524 52.6871429,39.9880952 53.2571429,39.9861905 L53.2719048,39.8614286 L52.8257143,39.6780952 L55.0990476,39.4042857 C53.5480952,40.3585714 51.7580952,40.2580952 50.0433333,40.5457143 C50.0461905,41.0095238 50.4347619,41.2280952 50.6833333,41.5466667 L50.4980952,41.7 L51.0361905,42.1514286 C51.1385714,42.312381 51.0442857,42.3238095 50.9114286,42.3304762 C49.9219048,42.38 48.9642857,42.212381 48.0461905,41.8590476 C47.4866667,41.6438095 46.9519048,41.3642857 46.4047619,41.1166667 C46.3533333,41.0933333 46.2919048,41.0919048 46.2347619,41.08 L46.2261905,41.0580952 L46.2090476,41.0533333 L46.2333333,41.0814286 L46.4714286,41.6157143 C46.1561905,41.5561905 45.8428571,41.4652381 45.5252381,41.4438095 C44.7885714,41.3942857 44.0914286,41.5980952 43.4057143,41.8433333 L43.1542857,41.9190476 C43.1742857,41.6652381 43.21,41.4109524 43.2104762,41.1566667 C43.2128571,40.1247619 43.2057143,39.0933333 43.1961905,38.0614286 C43.1966667,38.0233333 43.1333333,37.9842857 43.0995238,37.9457143 L43.0995238,37.9457143 Z" id="Shape" fill="#B3E0EE"></path>
            <path d="M42.9138095,53.0952381 C43.8319048,51.882381 44.9795238,50.9009524 46.1404762,49.8552381 L46.2509524,51.4480952 L46.3309524,51.4738095 C47.3990476,50.2609524 48.502381,49.0833333 49.8195238,47.987619 L49.742381,49.3461905 C50.0433333,49.0890476 50.3190476,48.8714286 50.5747619,48.632381 C51.4733333,47.7914286 52.2980952,46.8871429 52.9152381,45.8128571 C52.997619,45.6690476 53.0533333,45.5095238 53.1209524,45.3571429 L53.1795238,45.3542857 L53.1885714,45.3619048 C52.99,46.01 52.812381,46.6652381 52.5880952,47.3042857 C52.0966667,48.702381 51.1666667,49.8438095 50.367619,51.0647619 C49.5638095,52.2938095 48.827619,53.5671429 48.0666667,54.8242857 C48.007619,54.9219048 47.99,55.0442857 47.9533333,55.1552381 L47.93,55.1895238 L47.9614286,55.1633333 C48.3104762,54.9828571 48.6585714,54.8004762 49.0085714,54.6219048 C49.3309524,54.4571429 49.6557143,54.2961905 50.0314286,54.1838095 L49.7928571,54.6338095 C48.9595238,56.2390476 48.1352381,57.8490476 47.2890476,59.447619 C46.9519048,60.0847619 46.5766667,60.702381 46.1957143,61.3142857 C46.13,61.4204762 45.947619,61.5114286 45.8185714,61.5119048 C44.1266667,61.5219048 42.4347619,61.4852381 40.7438095,61.5214286 C39.52,61.5471429 38.5909524,60.9728571 37.7195238,60.2238095 L37.6790476,60.1480952 C38.0614286,60.2685714 38.4328571,60.3190476 38.8304762,60.1609524 C39.1704762,60.0257143 39.4180952,59.8266667 39.5166667,59.4809524 C39.842381,58.3342857 40.1585714,57.1847619 40.4709524,56.0342857 C40.5480952,55.7509524 40.5985714,55.46 40.7257143,55.1733333 L40.7257143,57.4109524 L40.8057143,57.4233333 C41.1142857,56.777619 41.4171429,56.1290476 41.732381,55.4871429 C42.0895238,54.7595238 42.4580952,54.0380952 42.8204762,53.3133333 L42.9138095,53.0952381 L42.9138095,53.0952381 Z" id="Shape" fill="#65C1DD"></path>
            <path d="M21.942381,53.6152381 L24.372381,55.2833333 L24.4438095,55.2333333 L24.3133333,54.1795238 C24.58,54.3814286 24.7866667,54.5590476 25.0138095,54.7061905 C25.8647619,55.2566667 26.7219048,55.7971429 27.5766667,56.3414286 L25.7604762,56.8361905 C27.8790476,57.7433333 29.7904762,59.0219048 30.7090476,61.442381 C30.0847619,61.4838095 29.5157143,61.5328571 28.9457143,61.5580952 C27.7204762,61.6114286 26.4952381,61.6619048 25.2695238,61.6961905 C23.4995238,61.7457143 21.7290476,61.7790476 19.9590476,61.8209524 C19.4447619,61.8328571 18.9304762,61.8433333 18.4171429,61.8638095 C17.5990476,61.8961905 16.957619,61.5814286 16.4885714,60.9109524 C16.4333333,60.8314286 16.367619,60.7595238 16.29,60.6628571 L15.7233333,61.0561905 C15.387619,60.7704762 15.1,60.4452381 14.9252381,60.0271429 L16.4866667,60.49 C16.3414286,59.6404762 16.0442857,58.9171429 15.7561905,58.1914286 L15.5885714,57.6514286 C15.8933333,57.91 16.1957143,58.1719048 16.5052381,58.4252381 C16.5780952,58.4847619 16.6752381,58.5142857 16.7614286,58.5571429 L16.802381,58.622381 L16.7857143,58.5366667 L16.7857143,58.2209524 C17.0861905,58.397619 17.3461905,58.567619 17.6214286,58.7085714 C17.9719048,58.887619 18.3285714,59.0580952 18.6938095,59.2042857 C18.9642857,59.312381 19.0242857,59.2566667 19.0309524,58.9633333 C19.0528571,57.9614286 18.7290476,57.0414286 18.3361905,56.1433333 C18.0157143,55.4104762 17.6652381,54.6919048 17.342381,53.9604762 C17.2352381,53.7185714 17.1566667,53.4609524 17.0952381,53.2033333 C17.062381,53.0642857 17.0471429,52.8861905 17.1080952,52.7695238 C17.1804762,52.6304762 17.3433333,52.5390476 17.4671429,52.4261905 C17.5328571,52.5471429 17.6366667,52.662381 17.6571429,52.7904762 C17.7366667,53.2904762 17.8033333,53.8014286 18.1433333,54.1971429 C18.3671429,54.457619 18.6614286,54.6580952 18.927619,54.8885714 L18.6785714,55.0214286 C18.9890476,55.3585714 20.4690476,55.7161905 20.9990476,55.6071429 L20.8142857,52.9004762 L20.992381,52.992381 C21.3090476,53.1980952 21.6252381,53.4071429 21.942381,53.6152381 L21.942381,53.6152381 Z" id="Shape" fill="#65C2DD"></path>
            <path d="M51.037619,42.1514286 L50.4995238,41.7 L50.6847619,41.5466667 C50.4366667,41.2280952 50.0480952,41.0095238 50.0447619,40.5457143 C51.76,40.2580952 53.5495238,40.3585714 55.1004762,39.4042857 L52.8271429,39.6780952 L53.2733333,39.8614286 L53.2585714,39.9861905 C52.6885714,39.9880952 52.1161905,40.0209524 51.5490476,39.9804762 C51.1728571,39.9533333 50.7928571,39.8528571 50.4371429,39.7233333 C50.2480952,39.6542857 50.107619,39.4538095 49.9314286,39.3009524 L51.0328571,38.3719048 L50.7514286,38.3519048 L50.7480952,38.3480952 C51.1871429,38.0204762 51.592381,37.6266667 52.0733333,37.3790476 C53.0690476,36.8652381 54.1052381,36.4285714 55.1538095,35.9466667 L55.2528571,36.3095238 L55.9138095,35.6938095 L55.87,35.6319048 C55.5742857,35.7142857 55.2814286,35.8085714 54.9828571,35.8761905 C54.6095238,35.9604762 54.2314286,36.0233333 53.8552381,36.0942857 C53.6628571,36.1304762 53.4866667,36.1580952 53.377619,36.3757143 C53.3271429,36.4761905 53.1390476,36.5395238 53.0042857,36.5585714 C52.7909524,36.5885714 52.5704762,36.5671429 52.3528571,36.5671429 L52.3547619,36.5685714 L52.63,36.2128571 L52.2571429,36.212381 C51.6766667,36.192381 51.0942857,36.1904762 50.5157143,36.1438095 C50.0442857,36.1057143 49.9414286,35.8738095 50.2780952,35.5404762 C50.7009524,35.122381 51.1790476,34.7566667 51.6561905,34.3985714 C52.0395238,34.1104762 52.4557143,33.8657143 52.8880952,33.5819048 L52.6157143,33.4785714 C52.8119048,33.3761905 52.972381,33.31 53.1138095,33.2152381 C53.35,33.057619 53.5942857,32.9033333 53.7980952,32.7090476 C54.0604762,32.4580952 54.017619,32.2019048 53.722381,31.9952381 C53.3166667,31.7119048 53.0019048,31.6704762 52.2085714,31.7580952 C52.2852381,31.7185714 52.3580952,31.6695238 52.4380952,31.6409524 C53.0642857,31.4195238 53.692381,31.2019048 54.3195238,30.9833333 C54.8319048,31.0038095 55.3495238,30.9842857 55.8542857,31.0552381 C56.5485714,31.1528571 56.9180952,31.6933333 57.2995238,32.1961905 L57.2580952,32.2719048 L56.56,32.0471429 C56.9742857,32.7547619 57.3461905,33.4195238 57.3719048,34.2380952 C57.3185714,34.2085714 57.2704762,34.1971429 57.247619,34.1661905 C57.2185714,34.1271429 57.2095238,34.0733333 57.1742857,33.9785714 C56.9819048,34.44 56.8904762,34.8366667 56.672381,35.1433333 C56.3047619,35.6614286 56.32,36.1119048 56.5942857,36.6719048 C56.7904762,37.072381 56.7985714,37.5652381 56.8904762,38.0171429 L56.7752381,38.0628571 L56.4809524,37.7009524 C56.4442857,38.322381 56.4366667,38.8809524 56.1309524,39.3895238 L55.9971429,39.082381 C55.7790476,39.2833333 55.5619048,39.4657143 55.3704762,39.6719048 C55.3180952,39.7280952 55.317619,39.8609524 55.3352381,39.9504762 C55.4352381,40.4690476 55.6071429,40.982381 55.4119048,41.5309524 L55.1852381,41.4252381 C54.867619,42.1219048 54.2942857,42.4757143 53.5833333,42.5542857 C52.8109524,42.6395238 52.0509524,42.5033333 51.32,42.227619 C51.2280952,42.1938095 51.1314286,42.1766667 51.037619,42.1514286 L51.037619,42.1514286 Z" id="Shape" fill="#EBF7FE"></path>
            <path d="M40.4190476,23.9909524 L43.4280952,24.6061905 L43.6804762,24.6890476 C43.8866667,24.7561905 43.9628571,24.9009524 43.9009524,25.1028571 C43.8233333,25.3566667 43.7504762,25.6161905 43.6333333,25.852381 C43.57,25.9809524 43.4361905,26.1066667 43.3047619,26.1619048 C43.0766667,26.2580952 42.9419048,26.4080952 42.8419048,26.6261905 C42.7028571,26.93 42.562381,27.2385714 42.3761905,27.5147619 C42.2095238,27.762381 41.9819048,27.9690476 41.7809524,28.1942857 C40.9571429,28.5071429 40.102381,28.4309524 39.2585714,28.3519048 C38.592381,28.2895238 37.9261905,28.1790476 37.2738095,28.0285714 C36.5085714,27.8519048 36.0495238,27.3738095 36.0585714,26.5385714 C36.0628571,26.1633333 36.0552381,25.787619 36.0647619,25.412381 C36.0709524,25.1661905 35.9852381,25.0438095 35.7214286,25.0038095 C35.1361905,24.9152381 35.0495238,24.9490476 34.7295238,25.4561905 C34.4504762,25.8990476 34.1585714,26.3338095 33.8604762,26.7642857 C33.522381,27.252381 33.0361905,27.472381 32.4547619,27.54 C30.3685714,27.7828571 28.3566667,27.4257143 26.38,26.7947619 C25.8014286,26.6095238 25.6428571,26.3495238 25.6219048,25.7361905 C25.6095238,25.3704762 25.6142857,25.0009524 25.5571429,24.6414286 C25.527619,24.4542857 25.4219048,24.2385714 25.2809524,24.1166667 C24.5409524,23.477619 23.7785714,22.8652381 23.0238095,22.2438095 L22.9047619,22.1561905 L21.697619,21.07 L22.1319048,19.087619 L23.8319048,20.7928571 C24.262381,21.2561905 24.6904762,21.7219048 25.1266667,22.18 C25.1809524,22.2366667 25.2785714,22.2861905 25.3542857,22.2828571 C26.9742857,22.217619 28.5733333,22.4042857 30.1657143,22.6757143 L30.2542857,22.6785714 L31.5642857,22.9466667 C32.8490476,23.257619 34.1304762,23.5857143 35.4209524,23.8704762 C35.8380952,23.9628571 36.2809524,23.97 36.7114286,23.9666667 C37.55,23.9604762 38.3885714,23.9190476 39.227619,23.892381 L40.4190476,23.9909524 L40.4190476,23.9909524 Z M29.6104762,23.1871429 C28.7338095,23.1366667 27.8571429,23.0690476 26.9795238,23.0438095 C26.6271429,23.0338095 26.4280952,23.2347619 26.3861905,23.5833333 C26.312381,24.2009524 26.2519048,24.8219048 26.2128571,25.4428571 C26.1733333,26.0752381 26.2352381,26.152381 26.8461905,26.3590476 C28.5338095,26.9295238 30.2752381,27.1109524 32.047619,27.0814286 C32.6952381,27.0709524 33.1719048,26.782381 33.4961905,26.2533333 C33.7642857,25.8166667 33.992381,25.3547619 34.2152381,24.8928571 C34.4090476,24.4909524 34.3485714,24.3080952 33.9180952,24.1666667 C33.2633333,23.9509524 32.5909524,23.7880952 31.9261905,23.602381 L29.6104762,23.1871429 L29.6104762,23.1871429 Z M39.3728571,24.4533333 L39.3633333,24.5180952 C39.0271429,24.5180952 38.69,24.5038095 38.3547619,24.522381 C38.06,24.5385714 37.7657143,24.5814286 37.4742857,24.6309524 C37.0909524,24.6961905 36.8466667,24.9219048 36.8095238,25.317619 C36.77,25.7295238 36.7366667,26.1442857 36.737619,26.557619 C36.7390476,27.277619 36.8704762,27.4366667 37.5619048,27.6033333 C38.5480952,27.8404762 39.55,27.9347619 40.5628571,27.8866667 C40.807619,27.8752381 41.0514286,27.82 41.2938095,27.7738095 C41.6147619,27.712381 41.8452381,27.5419048 41.9771429,27.227619 C42.2133333,26.6633333 42.48,26.1119048 42.7109524,25.5461905 C42.9033333,25.0747619 42.8561905,24.9514286 42.3614286,24.8695238 C41.3690476,24.7047619 40.3695238,24.5890476 39.3728571,24.4533333 L39.3728571,24.4533333 Z" id="Shape" fill="#515053"></path>
            <path d="M29.9628571,10.7338095 C29.0909524,11.8204762 27.8671429,12.4071429 26.1652381,12.5457143 L27.7885714,11.7257143 C26.3214286,10.2347619 25.2752381,8.5947619 25.3180952,6.45428571 C25.392381,5.14047619 25.7942857,3.94 26.5571429,2.86428571 C26.6304762,2.76095238 26.7228571,2.67095238 26.8057143,2.5747619 L26.852381,2.59666667 L26.8557143,2.71238095 C26.8033333,2.79904762 26.7242857,2.87952381 26.7028571,2.97285714 C26.4047619,4.2752381 26.4090476,5.57238095 26.8352381,6.84809524 C27.2971429,8.23047619 28.1685714,9.31666667 29.3114286,10.2004762 C29.5338095,10.3728571 29.7461905,10.5561905 29.9628571,10.7338095 L29.9628571,10.7338095 Z" id="Shape" fill="#4F4E51"></path>
            <path d="M43.0995238,37.9457143 C43.1338095,37.9847619 43.1971429,38.0233333 43.1971429,38.062381 C43.2071429,39.0938095 43.2138095,40.1257143 43.2114286,41.157619 C43.2109524,41.4119048 43.1747619,41.6657143 43.1552381,41.92 C42.9371429,42.8180952 42.7652381,43.73 42.49,44.61 C42.0633333,45.9761905 41.3566667,47.2061905 40.4761905,48.3347619 C40.3961905,48.3038095 40.3095238,48.2828571 40.2361905,48.2395238 C38.8685714,47.4466667 37.5028571,46.6519048 36.1366667,45.8571429 C36.0880952,45.8285714 36.0395238,45.7985714 36.0019048,45.7204762 C36.1971429,45.7433333 36.3914286,45.7685714 36.5871429,45.7885714 C38.617619,45.997619 40.302381,45.3042857 41.6271429,43.7790476 C41.9209524,43.4409524 42.0766667,42.9704762 42.2519048,42.5433333 C42.8533333,41.0709524 43.1580952,39.5409524 43.0995238,37.9457143 L43.0995238,37.9457143 Z" id="Shape" fill="#66C2DD"></path>
            <path d="M38.6919048,3.90190476 L38.6919048,6.10904762 C38.6919048,6.53761905 38.6857143,6.53571429 38.2857143,6.44857143 C36.8190476,6.13047619 35.3509524,5.81904762 33.8838095,5.50142857 C33.78,5.47904762 33.6833333,5.4247619 33.5828571,5.3852381 L33.5838095,5.32619048 L33.6433333,5.26666667 C34.067619,4.61047619 34.5561905,4.01 35.1709524,3.52 L36.8528571,2.17904762 C36.85,2.27809524 36.867619,2.38428571 36.8395238,2.47619048 C36.7090476,2.89571429 36.5652381,3.31190476 36.3990476,3.81190476 C37.2142857,3.50809524 37.9238095,3.1347619 38.692381,3.00619048 L38.6919048,3.90190476 L38.6919048,3.90190476 Z" id="Shape" fill="#EBF7FD"></path>
            <path d="M29.9628571,10.7338095 C29.7461905,10.5561905 29.5338095,10.3728571 29.312381,10.2009524 C28.17,9.31761905 27.2980952,8.23095238 26.8361905,6.84857143 C26.4095238,5.57285714 26.4052381,4.27571429 26.7038095,2.97333333 C26.7252381,2.87952381 26.8042857,2.79904762 26.8566667,2.71285714 L27.2385714,4.19571429 C27.8,5.99428571 28.8619048,7.41857143 30.4285714,8.46809524 C31.0147619,8.86047619 31.0385714,8.87809524 30.7261905,9.51952381 C30.5185714,9.94666667 30.2204762,10.3304762 29.9628571,10.7338095 L29.9628571,10.7338095 Z" id="Shape" fill="#737F84"></path>
            <path d="M48.0019048,15.5719048 C48.0042857,15.5119048 47.9852381,15.4395238 48.0119048,15.3933333 C48.377619,14.7609524 48.7495238,14.132381 49.12,13.502381 C49.7647619,13.3704762 50.42,13.2771429 51.0514286,13.0985714 C52.4542857,12.7019048 53.6952381,12.0138095 54.6871429,10.92 C54.8052381,10.79 54.9290476,10.6657143 55.0504762,10.5390476 C54.5466667,11.967619 53.7928571,13.242381 52.697619,14.297619 C51.6533333,15.3038095 50.3661905,15.6628571 48.9485714,15.6333333 C48.6328571,15.6271429 48.317619,15.5933333 48.0019048,15.5719048 L48.0019048,15.5719048 Z" id="Shape" fill="#4F4E51"></path>
            <path d="M55.0504762,10.5395238 C54.9290476,10.6661905 54.8047619,10.7904762 54.6871429,10.9204762 C53.6952381,12.0142857 52.4547619,12.702381 51.0514286,13.0990476 C50.42,13.277619 49.7642857,13.3709524 49.12,13.5028571 L50.3338095,11.6114286 C52.0509524,11.8885714 53.5590476,11.3614286 54.9552381,10.4057143 L55.1533333,10.2809524 L55.0504762,10.5395238 L55.0504762,10.5395238 Z" id="Shape" fill="#737F84"></path>
            <path d="M53.18,45.3538095 L53.1933333,45.2709524 L53.22,45.2785714 L53.1890476,45.3614286 L53.18,45.3538095 L53.18,45.3538095 Z M37.5728571,60.0980952 L37.6833333,60.1490476 L37.5728571,60.0980952 L37.5728571,60.0980952 Z" id="Shape" fill="#65C1DD"></path>
            <path d="M46.472381,41.6161905 L46.4971429,41.63 L46.472381,41.6161905 L46.472381,41.6161905 Z M41.0690476,31.3409524 L41.007619,31.2752381 L41.0690476,31.3409524 L41.0690476,31.3409524 Z" id="Shape" fill="#B3E0EE"></path>
            <path id="Shape" fill="#737F84" d="M26.8061905,2.60186371 L26.8671905,2.54238095 L26.9041905,2.64238095 L26.8061905,2.60186371 L26.8061905,2.60186371 Z"></path>
            <path d="M21.942381,53.6152381 L20.9914286,52.9909524 L20.8133333,52.8990476 C20.7214286,52.0990476 20.6466667,51.2971429 20.5328571,50.5004762 C20.427619,49.7642857 20.0309524,49.1580952 19.567619,48.5990476 C18.8385714,47.7185714 18.052381,46.8833333 17.5933333,45.8095238 C17.1909524,44.8690476 16.9119048,43.8971429 16.84,42.8771429 C16.7771429,41.9828571 16.7428571,41.0861905 16.7228571,40.1895238 C16.7138095,39.79 16.772381,39.3885714 16.8028571,38.9447619 L17.5014286,39.68 C17.7609524,37.8909524 18.6242857,36.4209524 19.4704762,34.9390476 C19.2280952,36.08 18.952381,37.2147619 18.7533333,38.3628571 C18.5542857,39.512381 18.3752381,40.6709524 18.4995238,41.8947619 C18.1361905,41.747619 17.9771429,41.4390476 17.7333333,41.1071429 C17.6933333,42.0252381 18.0061905,42.7728571 18.3347619,43.4990476 C18.662381,44.2228571 19.0761905,44.907619 19.4914286,45.682381 L18.0952381,45.5571429 C18.1495238,45.8609524 18.3404762,46.1419048 18.5866667,46.3533333 C19.0338095,46.737619 19.5033333,47.1 19.9895238,47.4338095 C21.1861905,48.2542857 21.9357143,49.3604762 22.1028571,50.8028571 C22.1719048,51.4 22.0966667,52.0157143 22.0652381,52.6219048 C22.0480952,52.9542857 21.9847619,53.2842857 21.942381,53.6152381 L21.942381,53.6152381 Z M15.587619,57.6509524 L15.7552381,58.1909524 C15.6309524,58.0719048 15.4861905,57.9671429 15.3871429,57.83 C15.1914286,57.5595238 15.0085714,57.277619 14.8433333,56.9871429 C14.68,56.6990476 14.5452381,56.3947619 14.3895238,56.0809524 L14.2095238,56.2761905 C14.12,55.582381 13.9061905,54.9361905 14.1061905,54.2580952 C14.2171429,55.0504762 14.4338095,55.8038095 14.8438095,56.5561905 L14.9319048,56.3704762 L14.9814286,56.1704762 L15.527619,57.5295238 L15.5895238,57.6533333 L15.587619,57.6509524 L15.587619,57.6509524 Z" id="Shape" fill="#B3E0EE"></path>
            <path d="M12.837619,58.6933333 C11.9952381,58.3347619 11.2238095,56.19 11.6166667,55.437619 L12.0266667,57.3571429 L12.2271429,57.2204762 L12.837619,58.6933333 L12.837619,58.6933333 Z" id="Shape" fill="#B4E1EE"></path>
            <path id="Shape" fill="#B3E0EE" d="M19.585381,34.7649048 L19.540381,34.7769048 L19.522381,34.7239048 L19.567381,34.7119048 L19.585381,34.7649048 L19.585381,34.7649048 Z"></path>
            <path id="Shape" fill="#65C2DD" d="M15.6280952,57.6533333 L15.5280952,57.5295238 L15.6280952,57.6533333 L15.6280952,57.6533333 Z"></path>
            <path id="Shape" fill="#E9F5FA" d="M33.6838095,5.26666667 L33.5838095,5.36666667 L33.6838095,5.26666667 L33.6838095,5.26666667 Z"></path>
            <path d="M27.2704762,28.8666667 C29.412381,28.8666667 31.5,28.8414286 33.5871429,28.8761905 C34.8504762,28.8971429 36.1138095,28.9952381 37.3747619,29.092381 C37.8047619,29.1252381 38.2238095,29.2680952 38.6109524,29.5861905 C38.0995238,29.9752381 37.6195238,30.3657143 37.1128571,30.7161905 C36.872381,30.8828571 36.7938095,31.0580952 36.9095238,31.3114286 C37.0695238,31.6604762 37.2466667,32.0014286 37.4147619,32.3466667 L37.7528571,33.0547619 C37.6261905,33.0785714 37.5609524,33.1 37.4947619,33.1014286 C36.0209524,33.14 34.5428571,33.2419048 33.08,32.997619 C31.4561905,32.7266667 29.9071429,32.2357143 28.5833333,31.2052381 C27.9414286,30.7061905 27.4757143,30.0790476 27.3138095,29.2609524 C27.2904762,29.1480952 27.287619,29.0304762 27.2704762,28.8666667 L27.2704762,28.8666667 Z" id="Shape" fill="#4F4E51"></path>
            <path d="M33.91,37.467619 L33.09,36.14 L32.0714286,37.6442857 C31.5395238,37.047619 31.3638095,36.3585714 31.1019048,35.6509524 L30.2690476,36.5785714 C29.882381,35.79 29.647619,35.0066667 29.59,34.0804762 C31.7485714,34.777619 33.8947619,35.0171429 36.0857143,34.8814286 L36.11,34.9747619 C35.8585714,35.1119048 35.6180952,35.2766667 35.3538095,35.3790476 C34.8657143,35.567619 34.7019048,35.9819048 34.5290476,36.4161905 C34.387619,36.7695238 34.1957143,37.102381 34.0261905,37.4442857 L33.91,37.467619 L33.91,37.467619 Z" id="Shape" fill="#D3EDF6"></path>
            <path id="Shape" fill="#66C2DD" d="M35.8997619,45.7175238 L35.8497619,45.7325238 L35.8347619,45.6695238 L35.8877619,45.6805238 L35.8997619,45.7175238 L35.8997619,45.7175238 Z"></path>
            <path d="M32.2580952,20.1438095 C31.057619,19.7204762 30.0019048,19.8090476 29.1285714,20.7947619 C29.06,20.2490476 29.6766667,19.5485714 30.3309524,19.3685714 C31.1109524,19.1538095 31.9819048,19.4819048 32.2580952,20.1438095 L32.2580952,20.1438095 Z M29.307619,21.7190476 C29.3238095,21.3357143 29.5938095,21.1314286 29.8738095,20.9495238 C30.5171429,20.5319048 31.6771429,20.5942857 32.137619,21.2966667 C31.9547619,21.2747619 31.7980952,21.2666667 31.6457143,21.2357143 C30.8619048,21.0766667 30.1509524,21.2919048 29.4661905,21.6509524 L29.307619,21.7190476 L29.307619,21.7190476 Z M40.862381,21.4066667 C41.2371429,21.0738095 41.8071429,21.002381 42.2757143,21.2595238 C42.7761905,21.5333333 43.0161905,21.8961905 42.9785714,22.5142857 C42.4519048,21.7666667 41.7138095,21.4861905 40.862381,21.4066667 L40.862381,21.4066667 Z" id="Shape" fill="#D4EDF6"></path>
            <path d="M42.3628571,23.7819048 C41.5966667,22.8571429 41.2795238,22.8290476 40.382381,22.5819048 C40.6814286,22.2971429 41.0380952,22.2395238 41.3904762,22.3404762 C42.0757143,22.5371429 42.2909524,23.0933333 42.3628571,23.7819048 L42.3628571,23.7819048 Z" id="Shape" fill="#CDEBF4"></path>
            <path id="Shape" fill="#D4EDF6" d="M29.3232857,21.7195238 L29.2942857,21.7715238 L29.3232857,21.7195238 L29.3232857,21.7195238 Z"></path>
            <path d="M52.3519048,36.5666667 L52.34,36.5909524 L52.3538095,36.5680952 L52.3519048,36.5666667 L52.3519048,36.5666667 Z M50.7509524,38.3514286 L50.7233333,38.3752381 L50.747619,38.347619 L50.7509524,38.3514286 L50.7509524,38.3514286 Z" id="Shape" fill="#EBF7FE"></path>
            <path id="Shape" fill="#D3EDF6" d="M16.8114762,58.5357143 L16.8464762,58.6357143 L16.7604762,58.5596032 L16.8114762,58.5357143 L16.8114762,58.5357143 Z"></path>
            <path d="M31.9266667,23.602381 C32.5914286,23.7880952 33.2638095,23.9509524 33.9185714,24.1666667 C34.3490476,24.3080952 34.4095238,24.4909524 34.2157143,24.8928571 C33.9933333,25.3547619 33.7647619,25.8166667 33.4966667,26.2533333 C33.1719048,26.782381 32.6957143,27.0709524 32.0480952,27.0814286 C30.2752381,27.1109524 28.5342857,26.9295238 26.8466667,26.3590476 C26.2357143,26.152381 26.1738095,26.0752381 26.2133333,25.4428571 C26.252381,24.8219048 26.3128571,24.2014286 26.3866667,23.5833333 C26.4285714,23.2347619 26.6271429,23.0333333 26.98,23.0438095 C27.857619,23.0695238 28.7342857,23.1366667 29.6109524,23.1871429 L29.3695238,23.9428571 C29.1495238,24.5004762 29.1133333,25.0752381 29.2580952,25.6509524 C29.4128571,26.2671429 29.9480952,26.5942857 30.5061905,26.4466667 C31.0138095,26.312381 31.57,25.6471429 31.6228571,25.1104762 C31.8842857,24.6409524 31.9180952,24.1242857 31.9266667,23.602381 L31.9266667,23.602381 Z" id="Shape" fill="#E8F4F8"></path>
            <path d="M39.3728571,24.4533333 C40.3695238,24.5890476 41.3690476,24.7042857 42.3604762,24.8690476 C42.8552381,24.9509524 42.902381,25.0742857 42.71,25.5457143 C42.4790476,26.1114286 42.212381,26.6628571 41.9761905,27.2271429 C41.8447619,27.5419048 41.6142857,27.712381 41.2928571,27.7733333 C41.0509524,27.8195238 40.8066667,27.8747619 40.5619048,27.8861905 C39.5490476,27.9342857 38.5471429,27.84 37.5609524,27.6028571 C36.8695238,27.4361905 36.737619,27.2771429 36.7366667,26.5571429 C36.7357143,26.1433333 36.7695238,25.7290476 36.8085714,25.3171429 C36.8461905,24.9214286 37.09,24.6957143 37.4733333,24.6304762 C37.7647619,24.5809524 38.0590476,24.5380952 38.3538095,24.5219048 C38.6890476,24.5033333 39.0261905,24.517619 39.362381,24.517619 L39.3728571,24.4533333 L39.3728571,24.4533333 Z M40.6952381,25.6966667 C40.6457143,25.8014286 40.6228571,25.8752381 40.5804762,25.9347619 C40.3942857,26.2 40.237619,26.4985714 40.0057143,26.7161905 C39.5061905,27.1842857 38.8842857,27.0447619 38.6028571,26.4209524 C38.4909524,26.1719048 38.4328571,25.8980952 38.3471429,25.627619 C38.2828571,26.3428571 38.352381,26.8461905 38.5614286,27.1980952 C38.7719048,27.552381 39.0671429,27.6895238 39.4585714,27.6147619 C40.1557143,27.4819048 40.7495238,26.5857143 40.6952381,25.6966667 L40.6952381,25.6966667 Z M38.742381,25.5614286 L38.6852381,25.6157143 C38.8028571,25.7638095 38.8919048,25.9766667 39.0447619,26.0428571 C39.257619,26.1352381 39.3938095,25.9266667 39.4933333,25.7519048 C39.5361905,25.6766667 39.5652381,25.5890476 39.58,25.5033333 C39.6285714,25.2190476 39.5,24.9238095 39.3147619,24.8738095 C39.112381,24.8195238 38.8709524,25.0257143 38.7857143,25.3309524 L38.742381,25.5614286 L38.742381,25.5614286 Z" id="Shape" fill="#ECF5F9"></path>
            <path d="M29.3690476,23.9433333 C29.392381,24.2866667 29.3819048,24.6361905 29.447619,24.9709524 C29.5266667,25.3709524 29.7271429,25.712381 30.1638095,25.8328571 C30.6009524,25.9538095 30.9566667,25.7914286 31.2657143,25.4957143 C31.3919048,25.3752381 31.5038095,25.24 31.622381,25.1114286 C31.5695238,25.6480952 31.0133333,26.3133333 30.5057143,26.447619 C29.947619,26.5952381 29.412381,26.2680952 29.257619,25.6519048 C29.1128571,25.0752381 29.1485714,24.5004762 29.3690476,23.9433333 L29.3690476,23.9433333 Z M40.6952381,25.6966667 C40.7495238,26.5857143 40.1557143,27.4819048 39.4590476,27.6142857 C39.067619,27.6890476 38.7728571,27.5519048 38.5619048,27.197619 C38.3528571,26.8457143 38.2833333,26.342381 38.347619,25.6271429 C38.4328571,25.897619 38.4909524,26.1714286 38.6033333,26.4204762 C38.8847619,27.0442857 39.5066667,27.1842857 40.0061905,26.7157143 C40.2380952,26.4980952 40.3947619,26.1995238 40.5809524,25.9342857 C40.6228571,25.8752381 40.6457143,25.8014286 40.6952381,25.6966667 L40.6952381,25.6966667 Z" id="Shape" fill="#778287"></path>
            <path d="M38.742381,25.5614286 L38.7857143,25.3314286 C38.8714286,25.0261905 39.1128571,24.82 39.3147619,24.8742857 C39.4995238,24.9242857 39.6285714,25.2195238 39.58,25.5038095 C39.5652381,25.5895238 39.5361905,25.6771429 39.4933333,25.752381 C39.3942857,25.9271429 39.257619,26.1357143 39.0447619,26.0433333 C38.8919048,25.9771429 38.802381,25.7638095 38.6852381,25.6161905 L38.742381,25.5614286 L38.742381,25.5614286 Z M29.7661905,24.4242857 C29.7790476,24.0938095 30.0004762,23.8180952 30.2533333,23.8161905 C30.4657143,23.8147619 30.642381,24.0714286 30.63,24.3633333 C30.6157143,24.6890476 30.3628571,24.992381 30.112381,24.9828571 C29.887619,24.9742857 29.7528571,24.757619 29.7661905,24.4242857 L29.7661905,24.4242857 Z" id="Shape" fill="#1C1C1C"></path>
        </g>
    </g>
</svg>