<?xml version="1.0" encoding="UTF-8" standalone="no"?>
<svg width="64px" height="64px" viewBox="0 0 64 64" version="1.1" xmlns="http://www.w3.org/2000/svg" xmlns:xlink="http://www.w3.org/1999/xlink">
    <defs>
        <linearGradient x1="50%" y1="0%" x2="50%" y2="100%" id="linearGradient-1">
            <stop stop-color="#48CF87" offset="0%"></stop>
            <stop stop-color="#06963F" offset="100%"></stop>
        </linearGradient>
    </defs>
    <g id="Tools" stroke="none" stroke-width="1" fill="none" fill-rule="evenodd">
        <g id="icons/skills/id-407">
            <g id="Rectangle-58-+-Rectangle-58-+-Shape" transform="translate(32.000000, 32.000000) rotate(-13.000000) translate(-32.000000, -32.000000) translate(4.000000, 4.000000)">
                <rect id="Rectangle-58" fill="#2D2D2D" transform="translate(27.819968, 27.773669) rotate(-14.000000) translate(-27.819968, -27.773669) " x="5.23932286" y="5.19302362" width="45.1612903" height="45.1612903" rx="3.6400001"></rect>
                <rect id="Rectangle-58" fill="url(#linearGradient-1)" x="6.32258065" y="4.51612903" width="45.1612903" height="45.1612903" rx="3.6400001"></rect>
                <path d="M18.7221898,34.6507162 C17.6201054,34.5894893 16.5180211,34.8956238 15.6608444,35.7528005 C14.1301716,37.2834733 14.1301716,39.6713227 15.6608444,41.2019955 C17.1915171,42.7326682 19.5793665,42.7326682 21.1100393,41.2019955 C22.640712,39.6713227 22.640712,37.2834733 21.1100393,35.7528005 L21.1100393,35.7528005 L22.8856196,31.9567322 C24.2326116,32.3240936 25.7020575,32.0179591 26.8653687,31.3444631 L31.5186138,36.6099773 C30.7838909,38.0794231 30.9063447,39.9162304 32.1921098,41.1407685 C33.7227825,42.6714413 36.110632,42.6714413 37.6413047,41.1407685 C39.1719775,39.6100958 39.1719775,37.2222464 37.6413047,35.6915736 C36.5392204,34.5894893 34.8248669,34.3445816 33.4778749,34.8343969 L28.702176,29.7525635 C29.0695375,29.3239751 29.3144451,28.8341598 29.4368989,28.2831176 L37.5188509,29.2015213 C37.7025316,29.8750173 38.0086662,30.4872864 38.5597084,31.0995555 C40.0903811,32.6302282 42.4782305,32.6302282 44.0089033,31.0995555 C45.539576,29.5688827 45.539576,27.1810333 44.0089033,25.6503605 C42.4782305,24.1196878 40.0903811,24.1196878 38.5597084,25.6503605 C38.1923469,26.017722 37.9474393,26.3238565 37.8249855,26.691218 L29.7430335,25.7728144 C29.6818065,25.1605453 29.4981258,24.4870493 29.2532182,23.997234 L34.090144,20.2011656 C35.5595898,21.1195693 37.5800778,20.9358885 38.8658429,19.7113504 C40.3965156,18.1806776 40.3965156,15.7928282 38.8658429,14.2621554 C37.3351702,12.7314827 34.9473207,12.7314827 33.416648,14.2621554 C32.3145636,15.3642398 32.069656,16.8949125 32.4982444,18.1806776 L27.6613185,21.976746 C26.1918727,20.8134347 24.3550655,20.4460733 22.5794851,20.8746616 L21.1100393,18.2419045 C22.5794851,16.7112318 22.4570313,14.4458362 21.0488124,12.9763904 C19.5181396,11.4457176 17.1302902,11.4457176 15.5996174,12.9763904 C14.0689447,14.5070631 14.0689447,16.8949125 15.5996174,18.4255853 C16.4567942,19.282762 17.7425593,19.7113504 18.8446436,19.5276696 L20.3140895,22.2216536 C20.2528625,22.2828805 20.1304087,22.4053344 19.946728,22.4665613 C17.7425593,24.67073 17.7425593,28.3443445 19.946728,30.5485133 C20.1304087,30.732194 20.3140895,30.9158747 20.4365433,30.9771016 L18.7221898,34.6507162 L18.7221898,34.6507162 Z" id="Shape" fill="#FFFFFF"></path>
            </g>
        </g>
    </g>
</svg>