<?xml version="1.0" encoding="UTF-8" standalone="no"?>
<svg width="64px" height="64px" viewBox="0 0 64 64" version="1.1" xmlns="http://www.w3.org/2000/svg" xmlns:xlink="http://www.w3.org/1999/xlink">
    <defs></defs>
    <g id="Tools" stroke="none" stroke-width="1" fill="none" fill-rule="evenodd">
        <g id="icons/skills/id-430">
            <g id="bower-logo" transform="translate(2.000000, 6.000000)">
                <g id="Layer_1">
                    <g id="Group">
                        <path d="M58.7933909,25.7372786 C55.7104536,22.7749892 40.2946004,20.9257451 35.430324,20.3874298 C35.6659179,19.8309719 35.8665227,19.2554644 36.0321382,18.662851 C36.6952484,18.3724406 37.4111015,18.1022462 38.1511879,17.8766307 C38.2413823,18.1426782 38.6661771,19.1620302 38.9082505,19.6457883 C48.6895464,19.915594 49.1917063,12.3769762 49.5895464,10.3117063 C49.9785745,8.29231102 49.9587473,6.34107991 53.3138229,2.77399568 C48.3154212,1.31740821 41.1273434,5.03157667 38.7196976,10.5597408 C37.8149028,10.2207343 36.9081641,9.97036717 36.0112743,9.81550756 C35.3685097,7.22293737 32.0217279,0 23.2391793,0 C12.1194816,0 0,9.17352052 0,24.7025054 C0,37.7560691 8.91213823,49.1958531 13.947473,49.1958531 C16.1464795,49.1958531 18.0380994,47.5491577 18.482203,46.0730022 C18.854514,47.0850972 19.9968467,50.2315335 20.3720086,51.032527 C20.9265227,52.2169762 23.4909719,53.2419006 24.6132181,52.012743 C26.0561987,52.8143844 28.7038445,53.2972354 30.1469546,51.1593952 C32.9260043,51.7472138 35.3828942,50.0900216 35.4365443,48.1126134 C36.800216,48.039784 37.4691577,46.1250972 37.1713607,44.600216 C36.9518359,43.477581 34.6069114,39.4492873 33.6922678,38.0587905 C35.5028942,39.5315767 40.0892009,39.9484665 40.6461771,38.0596976 C43.5654428,40.3511015 48.1148164,39.1483801 48.475594,37.2848812 C52.0227214,38.2065227 56.0911879,36.1823326 55.4231533,33.7307559 C61.1215983,33.3366739 60.3922678,27.2736933 58.7933909,25.7372786 L58.7933909,25.7372786 Z" id="outline" fill="#543729"></path>
                        <g id="leaf" transform="translate(39.265659, 4.017279)" fill="#00ACEE">
                            <path d="M3.66116631,8.78941685 C4.88850972,6.35429806 6.43075594,3.69537797 8.3787473,2.05036717 C6.23468683,2.91447084 4.11784017,5.49758099 2.8662635,8.25848812 C2.22829374,7.85300216 1.58060475,7.49131749 0.927473002,7.1749892 C2.67343413,3.44825054 6.73036717,0.335896328 11.2013391,0.0927861771 C8.20665227,2.8087257 9.26967603,8.45365011 6.807473,11.441987 C6.10289417,10.7342981 4.48509719,9.36855292 3.66116631,8.78941685 L3.66116631,8.78941685 Z M1.72535637,12.75473 C1.72665227,12.6615551 1.76151188,11.9427214 1.82695464,11.6146004 C1.65524838,11.5741685 0.587948164,11.3653996 0.0314902808,11.3784881 C-0.0090712743,12.077365 0.325140389,13.2663499 0.655464363,13.9820734 C2.93041037,13.9343844 4.57360691,13.2531317 5.54073434,12.6268251 C4.71732181,12.2429806 3.31231102,11.9017711 2.24397408,11.6976674 C2.12475162,11.9442765 1.83136069,12.5726566 1.72535637,12.75473 L1.72535637,12.75473 Z" id="Shape"></path>
                        </g>
                        <path d="M32.5377538,36.037581 C32.5382721,36.0408207 32.5396976,36.0452268 32.5400864,36.0484665 C32.2517495,35.4279914 31.9455292,34.6742981 31.5798272,33.6891577 C33.0037581,35.7618143 37.4665659,34.6928294 37.232527,32.8355508 C39.4168898,34.4791361 43.9132613,32.5617279 42.8910583,30.2571058 C45.0791793,31.2767171 47.5766307,29.2251836 47.0165443,28.3312743 C50.747041,29.0507559 54.3220302,29.767905 55.4442765,30.0550756 C54.6987473,31.2706263 53.0008639,32.1290281 50.4414687,31.532527 C51.8244492,33.4165011 49.1393521,35.6766739 45.3993952,34.4318359 C46.2226782,36.2813391 42.892743,37.9464363 39.1080778,36.0186609 C39.1561555,37.8689417 34.4129158,38.081987 32.5377538,36.037581 L32.5377538,36.037581 Z M39.9379698,26.685486 C44.267689,27.0178834 51.4277754,27.6634989 55.8605184,28.2838445 C55.5804752,26.8412527 54.8155076,26.4291577 52.4091577,25.7827646 C49.8211231,26.0587905 43.2552052,26.7037581 39.9379698,26.685486 L39.9379698,26.685486 Z" id="wingtip" fill="#2BAF2B"></path>
                        <path d="M37.232527,32.8355508 C39.4168898,34.4791361 43.9132613,32.5617279 42.8910583,30.2571058 C45.0791793,31.2767171 47.5766307,29.2251836 47.0165443,28.3312743 C42.6060907,27.4809071 37.9780562,26.6274298 36.9282505,26.4782721 C37.565054,26.512095 38.6205616,26.584406 39.9379698,26.6856156 C43.2553348,26.7038877 49.8212527,26.0589201 52.4091577,25.7828942 C48.2187473,24.7203888 39.6632397,23.1698488 33.75473,22.7878186 C33.4809071,23.1879914 32.977581,23.8666523 32.1009071,24.5878186 C29.5158531,30.0574082 24.832095,33.6930454 19.6498056,33.6930454 C18.139568,33.6930454 16.4498488,33.4382721 14.5558963,32.8328294 C13.3748164,34.0981425 8.33909287,35.0569762 4.25313175,33.0514471 C7.49416847,40.6404752 15.0103672,45.7063931 23.3301512,45.7063931 C30.3370626,45.7063931 33.4441037,38.5512311 32.7641469,36.6580562 C32.5991793,36.1984017 31.9453996,34.6742981 31.579568,33.6892873 C33.0037581,35.7618143 37.4664363,34.6928294 37.232527,32.8355508 L37.232527,32.8355508 Z" id="body" fill="#FFCC2F"></path>
                        <path d="M32.9861339,18.435162 C33.6047948,18.0986177 35.7427646,16.8027214 37.7800432,16.3157235 C37.747905,16.090108 37.7236717,15.8625486 37.7086393,15.6336933 C36.3720518,15.9537797 33.8521814,17.0337797 32.4081641,15.5454428 C35.4546868,16.4647516 36.9758099,14.7263067 39.2149892,14.7263067 C40.5492441,14.7263067 42.4531749,15.0990065 43.9539525,15.6882505 C42.7468251,14.5731317 38.7883801,11.207689 33.8873002,11.1960259 C32.7930454,12.522635 31.6102808,15.3962851 32.9861339,18.435162 L32.9861339,18.435162 Z" id="beak" fill="#CECECE"></path>
                        <path d="M14.5558963,32.8328294 C16.4498488,33.4382721 18.139568,33.6930454 19.6498056,33.6930454 C24.832095,33.6930454 29.5157235,30.0572786 32.1009071,24.5878186 C30.1889417,26.1838445 26.8660043,27.54946 21.6765875,27.54946 C26.2989201,26.5013391 30.2780994,24.1978834 32.3022894,20.8308855 C30.8793952,18.5661771 29.3361123,13.5559827 33.2442765,9.59520518 C32.6431102,7.6638013 29.7169762,2.56522678 23.2391793,2.56522678 C11.9342981,2.56522678 2.56535637,12.0248812 2.56535637,24.7023758 C2.56535637,27.7034125 3.1711879,30.5179698 4.25326134,33.0513175 C8.33909287,35.0569762 13.3748164,34.0981425 14.5558963,32.8328294 L14.5558963,32.8328294 Z" id="head" fill="#EF5734"></path>
                        <path d="M17.9476458,13.5300648 C17.9476458,16.4136933 20.2853132,18.7516199 23.1690713,18.7516199 C26.0528294,18.7516199 28.3907559,16.4136933 28.3907559,13.5300648 C28.3907559,10.6463067 26.0528294,8.30850972 23.1690713,8.30850972 C20.2853132,8.30850972 17.9476458,10.6463067 17.9476458,13.5300648 L17.9476458,13.5300648 Z" id="eye_rim" fill="#FFCC2F"></path>
                        <path d="M20.042851,13.5300648 C20.042851,15.2564579 21.4426782,16.6561555 23.1689417,16.6561555 C24.895594,16.6561555 26.295162,15.2564579 26.295162,13.5300648 C26.295162,11.8035421 24.8957235,10.4038445 23.1689417,10.4038445 C21.4426782,10.4038445 20.042851,11.8035421 20.042851,13.5300648 L20.042851,13.5300648 Z" id="eye" fill="#543729"></path>
                        <ellipse id="pupil_highlight" fill="#FFFFFF" cx="23.1689417" cy="12.1429374" rx="1.82164147" ry="1.13261339"></ellipse>
                    </g>
                </g>
            </g>
        </g>
    </g>
</svg>