<?xml version="1.0" encoding="UTF-8" standalone="no"?>
<svg width="64px" height="64px" viewBox="0 0 64 64" version="1.1" xmlns="http://www.w3.org/2000/svg" xmlns:xlink="http://www.w3.org/1999/xlink">
    <defs></defs>
    <g id="Platforms" stroke="none" stroke-width="1" fill="none" fill-rule="evenodd">
        <g id="icons/skills/id-418">
            <g id="drupal-original" transform="translate(6.000000, 2.000000)">
                <path d="M39.0952381,11.397619 C36.0704762,9.51380952 33.2166667,8.77238095 30.3633333,6.88857143 C28.5938095,5.69047619 26.14,2.83619048 24.0847619,0.382380952 C23.6857143,4.32047619 22.4871429,5.91809524 21.117619,7.05952381 C18.2071429,9.34285714 16.3804762,10.0271429 13.8690476,11.3971429 C11.7571429,12.4819048 0.286190476,19.3309524 0.286190476,34.0552381 C0.286190476,48.7804762 12.6709524,59.6238095 26.4252381,59.6238095 C40.1804762,59.6238095 52.1080952,49.6361905 52.1080952,34.512381 C52.107619,19.387619 40.9219048,12.5395238 39.0952381,11.397619 L39.0952381,11.397619 Z" id="Shape" fill="#00598E"></path>
                <path d="M34.4595238,46.8333333 C35.372381,46.8333333 36.3428571,46.89 37.0280952,47.3471429 C37.7128571,47.8033333 38.112381,48.8309524 38.3404762,49.4014286 C38.5685714,49.972381 38.3404762,50.3142857 37.8838095,50.542381 C37.4847619,50.7709524 37.427619,50.6566667 37.0280952,49.9152381 C36.6285714,49.1733333 36.2857143,48.4309524 34.2885714,48.4309524 C32.2909524,48.4309524 31.6628571,49.1161905 30.6928571,49.9152381 C29.722381,50.7142857 29.38,50.9995238 29.037619,50.542381 C28.6952381,50.0861905 28.8095238,49.6295238 29.4371429,49.0585714 C30.0647619,48.487619 31.092381,47.5747619 32.062381,47.1752381 C33.0328571,46.7761905 33.5466667,46.8333333 34.4595238,46.8333333 L34.4595238,46.8333333 Z M24.9857143,53.3395238 C26.1271429,54.252381 27.8390476,54.9942857 31.4919048,54.9942857 C35.1447619,54.9942857 37.712381,53.9671429 38.8542857,53.1114286 C39.3680952,52.7114286 39.5961905,53.0542857 39.6533333,53.282381 C39.7104762,53.5104762 39.8247619,53.8533333 39.4252381,54.252381 C39.14,54.5380952 36.5147619,56.3642857 33.4328571,56.6495238 C30.3504762,56.9347619 26.1847619,57.1061905 23.6733333,54.8233333 C23.2738095,54.4238095 23.3880952,53.8533333 23.6733333,53.6252381 C23.9590476,53.3971429 24.1871429,53.2252381 24.5295238,53.2252381 C24.8719048,53.2252381 24.8142857,53.2247619 24.9857143,53.3395238 L24.9857143,53.3395238 Z" id="Shape" fill="#FFFFFF"></path>
                <path d="M11.0028571,49.0014286 C15.34,48.9447619 16.1390476,48.202381 19.9628571,46.4904762 C40.6233333,37.2447619 44.4466667,28.7985714 45.1890476,26.857619 C45.9309524,24.9166667 47.0152381,21.7780952 45.8738095,18.2961905 C45.6533333,17.6238095 45.492381,17.0842857 45.3761905,16.6504762 C42.6309524,13.5804762 39.9052381,11.9052381 39.0819048,11.3909524 C36.1142857,9.50761905 33.2033333,8.76571429 30.3495238,6.88238095 C28.5804762,5.74095238 26.1266667,2.83 24.0719048,0.376190476 C23.6719048,4.31380952 22.5309524,5.96952381 21.1038095,7.05333333 C18.1933333,9.33666667 16.3671429,10.0214286 13.8557143,11.3909524 C11.7447619,12.532381 0.273333333,19.3242857 0.273333333,34.0485714 C0.273333333,38.75 1.53571429,43.0557143 3.70238095,46.7385714 L4.26809524,46.7185714 C5.46666667,47.8033333 7.35047619,49.0585714 11.0028571,49.0014286 L11.0028571,49.0014286 Z" id="Shape" fill="#0073BA"></path>
                <path d="M39.082381,11.3914286 C36.1147619,9.50809524 33.2038095,8.76619048 30.35,6.88285714 C28.5809524,5.74142857 26.1271429,2.83047619 24.072381,0.376666667 C23.672381,4.31428571 22.5314286,5.97 21.1042857,7.05380952 C18.1938095,9.33714286 16.367619,10.0219048 13.8561905,11.3914286 C11.7447619,12.532381 0.273333333,19.3242857 0.273333333,34.0485714 C0.273333333,38.75 1.53571429,43.0557143 3.70238095,46.7385714 C8.32142857,54.5919048 17.0490476,59.6166667 26.4119048,59.6166667 C40.1666667,59.6166667 52.0947619,49.6290476 52.0947619,34.5047619 C52.0947619,26.1995238 48.7214286,20.39 45.3766667,16.6504762 C42.6314286,13.5809524 39.9057143,11.9057143 39.082381,11.3914286 L39.082381,11.3914286 Z M46.02,18.072381 C49.7666667,22.7571429 51.6671429,28.2857143 51.6671429,34.5052381 C51.6671429,38.1147619 50.9795238,41.5238095 49.6238095,44.6390476 C48.3380952,47.5942857 46.4857143,50.2119048 44.1195238,52.42 C39.4419048,56.7857143 33.1533333,59.1895238 26.4119048,59.1895238 C23.0771429,59.1895238 19.8047619,58.552381 16.6847619,57.2957143 C13.6209524,56.0619048 10.86,54.2947619 8.47904762,52.0438095 C3.46333333,47.3033333 0.700952381,40.9128571 0.700952381,34.0490476 C0.700952381,27.9361905 2.6852381,22.5042857 6.59904762,17.9038095 C9.58857143,14.39 12.8128571,12.442381 14.06,11.7680952 C14.6652381,11.437619 15.2338095,11.1457143 15.7828571,10.8642857 C17.5047619,9.98047619 19.1314286,9.14571429 21.3685714,7.39047619 C22.5614286,6.48428571 23.832381,5.04809524 24.3733333,1.40190476 C26.2590476,3.64380952 28.4466667,6.16380952 30.1180952,7.24190476 C31.6019048,8.22190476 33.1238095,8.90809524 34.5957143,9.57142857 C35.987619,10.1995238 37.427619,10.8485714 38.8519048,11.7528571 L38.9057143,11.7861905 C43.0714286,14.3861905 45.29,17.1604762 46.02,18.072381 L46.02,18.072381 Z" id="Shape" fill="#004975"></path>
                <path d="M24.357619,1.51761905 C25.1566667,3.85761905 25.042381,5.05619048 25.042381,5.57 C25.042381,6.08380952 24.7566667,7.45380952 23.8433333,8.13809524 C23.4438095,8.42380952 23.33,8.65190476 23.33,8.70904762 C23.33,8.93714286 23.8433333,9.10857143 23.8433333,9.62190476 C23.8433333,10.25 23.5580952,11.5057143 20.5333333,14.5304762 C17.5080952,17.5552381 13.1709524,20.237619 9.80380952,21.892381 C6.43666667,23.547619 4.83857143,23.4338095 4.38190476,22.6347619 C3.9252381,21.8357143 4.55285714,20.0666667 6.6647619,17.7266667 C8.77666667,15.3861905 15.4538095,12.0190476 15.4538095,12.0190476 L23.7866667,6.19809524 L24.2428571,3.97190476" id="Shape" fill="#93C5E4"></path>
                <path d="M24.357619,1.46047619 C23.8438095,5.22761905 22.702381,6.36904762 21.1614286,7.56714286 C18.5928571,9.50809524 16.0819048,10.7061905 15.5114286,10.9914286 C14.027619,11.7333333 8.66285714,14.7014286 5.86619048,18.9819048 C5.01,20.2942857 5.86619048,20.8080952 6.03714286,20.9219048 C6.20857143,21.0361905 8.14904762,21.2642857 12.3152381,18.7533333 C16.4819048,16.2419048 18.3080952,14.7580952 20.6480952,12.3038095 C21.9038095,10.9914286 22.0747619,10.2495238 22.0747619,9.90666667 C22.0747619,9.50761905 21.7890476,9.33619048 21.3328571,9.22190476 C21.1042857,9.1647619 21.0471429,9.05047619 21.3328571,8.87952381 C21.6180952,8.70857143 22.8161905,8.13761905 23.1019048,7.90952381 C23.387619,7.68142857 24.7571429,6.76857143 24.8142857,5.28428571 C24.8709524,3.80047619 24.7571429,2.77285714 24.357619,1.46047619 L24.357619,1.46047619 Z M11.5166667,42.9519048 C11.5738095,38.5 15.74,34.3338095 20.9909524,34.2766667 C27.6680952,34.22 32.2909524,40.8971429 35.6585714,40.84 C38.5114286,40.7838095 43.9904762,35.1904762 46.6733333,35.1904762 C49.5266667,35.1904762 50.3261905,38.1580952 50.3261905,39.927619 C50.3261905,41.6966667 49.7552381,44.8928571 48.3852381,46.89 C47.0157143,48.8880952 46.1595238,49.6295238 44.5619048,49.5152381 C42.507619,49.3442857 38.3980952,42.9519048 35.772381,42.8380952 C32.4628571,42.7238095 25.2709524,49.7433333 19.6209524,49.7433333 C16.1971429,49.7433333 15.1695238,49.23 14.0280952,48.487619 C12.3152381,47.29 11.4595238,45.4633333 11.5166667,42.9519048 L11.5166667,42.9519048 Z" id="Shape" fill="#FFFFFF"></path>
                <path d="M45.8742857,18.2966667 C47.0152381,21.7780952 45.9309524,24.9171429 45.1895238,26.8580952 C44.4471429,28.7985714 40.6238095,37.2452381 19.9633333,46.4909524 C16.1395238,48.2028571 15.3404762,48.9452381 11.0033333,49.0019048 C7.35047619,49.0590476 5.46714286,47.8038095 4.26857143,46.7195238 L3.70285714,46.7395238 C8.32190476,54.5928571 17.0495238,59.617619 26.412381,59.617619 C40.1671429,59.617619 52.0952381,49.63 52.0952381,34.5057143 C52.0952381,26.2004762 48.7219048,20.3909524 45.3771429,16.6514286 C45.4928571,17.0847619 45.6538095,17.6247619 45.8742857,18.2966667 L45.8742857,18.2966667 Z" id="Shape"></path>
            </g>
        </g>
    </g>
</svg>