<?xml version="1.0" encoding="UTF-8" standalone="no"?>
<svg width="64px" height="64px" viewBox="0 0 64 64" version="1.1" xmlns="http://www.w3.org/2000/svg" xmlns:xlink="http://www.w3.org/1999/xlink">
    <defs>
        <linearGradient x1="9.50468896%" y1="85.48501%" x2="89.9524427%" y2="14.1339868%" id="linearGradient-1">
            <stop stop-color="#FCEE39" offset="0%"></stop>
            <stop stop-color="#F37B3D" offset="100%"></stop>
        </linearGradient>
        <linearGradient x1="8.63890511%" y1="9.43597976%" x2="99.6705254%" y2="95.1253953%" id="linearGradient-2">
            <stop stop-color="#EF5A6B" offset="0%"></stop>
            <stop stop-color="#F26F4E" offset="57%"></stop>
            <stop stop-color="#F37B3D" offset="100%"></stop>
        </linearGradient>
        <linearGradient x1="90.1132638%" y1="91.1462895%" x2="18.0149887%" y2="26.4169603%" id="linearGradient-3">
            <stop stop-color="#7C59A4" offset="0%"></stop>
            <stop stop-color="#AF4C92" offset="38%"></stop>
            <stop stop-color="#DC4183" offset="75%"></stop>
            <stop stop-color="#ED3D7D" offset="94%"></stop>
        </linearGradient>
        <linearGradient x1="91.3981825%" y1="7.62046716%" x2="18.5729788%" y2="78.0582988%" id="linearGradient-4">
            <stop stop-color="#EF5A6B" offset="0%"></stop>
            <stop stop-color="#EE4E72" offset="36%"></stop>
            <stop stop-color="#ED3D7D" offset="100%"></stop>
        </linearGradient>
    </defs>
    <g id="Frameworks" stroke="none" stroke-width="1" fill="none" fill-rule="evenodd">
        <g id="icons/skills/id-423">
            <g id="logo_JetBrains_4" transform="translate(-15.000000, -19.000000)">
                <g id="Layer_1">
                    <g id="Group">
                        <path d="M92.4104545,56.1772727 C93.7734114,54.833036 93.839967,52.6551928 92.5616375,51.2302375 C91.283308,49.8052822 89.1110428,49.6358884 87.6272727,50.8454545 L87.6272727,50.8454545 L22.8727273,86.2827273 C20.1751018,87.4584494 18.364787,90.0477788 18.1868052,92.9850954 C18.0088235,95.9224119 19.4932494,98.7113806 22.0291778,100.204221 C24.5651062,101.697062 27.7240273,101.64152 30.2059091,100.060455 L30.2059091,100.060455 C30.3990909,99.9368182 30.5845455,99.8054545 30.7622727,99.6663636 L91.035,57.29 C91.3981818,57.0427273 92.225,56.4013636 92.4413636,56.2004545 L92.4413636,56.2004545 L92.4104545,56.1772727 Z" id="_Path_" fill="url(#linearGradient-1)"></path>
                        <path d="M92.4877273,51 L92.4877273,51 L43.2263636,2.635 C41.5623944,0.818505225 38.953942,0.209841601 36.657861,1.10228709 C34.3617799,1.99473258 32.8490789,4.2052146 32.8486364,6.66863636 L32.8486364,6.66863636 C32.8408334,8.21393344 33.4337656,9.70180535 34.5022727,10.8181818 L34.5022727,10.8181818 L34.5022727,10.8181818 C34.7799294,11.105257 35.0853625,11.3640986 35.4140909,11.5909091 L87.4727273,56.1772727 L87.4727273,56.1772727 C88.9023917,57.5621267 91.1840096,57.5258008 92.5688636,56.0961364 C93.9537176,54.666472 93.9173917,52.384854 92.4877273,51 L92.4877273,51 Z" id="_Path_2" fill="url(#linearGradient-2)"></path>
                        <path d="M44.8181818,46.6959091 C44.7486364,46.6418182 14.4190909,22.6795455 13.7931818,22.3009091 L13.7931818,22.3009091 L13.7931818,22.3009091 C9.70903609,19.8299369 4.39506309,21.1376725 1.92409091,25.2218182 C-0.546881269,29.3059639 0.760854275,34.6199369 4.845,37.0909091 L4.845,37.0909091 C5.31313376,37.3765947 5.80731798,37.6172185 6.32090909,37.8095455 C6.63,37.9254545 41.3872727,52.3445455 41.3872727,52.3445455 L41.3872727,52.3445455 C42.925056,53.0703287 44.7626325,52.5179756 45.6453895,51.0646076 C46.5281465,49.6112396 46.1711677,47.7259419 44.8181818,46.6959091 L44.8181818,46.6959091 Z" id="_Path_3" fill="url(#linearGradient-3)"></path>
                        <path d="M38.8295455,0.687727273 C37.5613224,0.687662088 36.3264323,1.09387594 35.3059091,1.84681818 L4.48954545,22.5868182 L4.31181818,22.7104545 L4.27318182,22.7104545 L4.27318182,22.7104545 C0.561007413,25.5564026 -0.211841439,30.839899 2.52965786,34.6298649 C5.27115715,38.4198307 10.5310898,39.3394708 14.3959091,36.7045455 L14.3959091,36.7045455 C14.9009184,36.3385648 15.3646969,35.9188323 15.7790909,35.4527273 L42.5,11.39 L42.5,11.39 C43.9570604,10.2627673 44.8124748,8.52627601 44.8181818,6.68409091 L44.8181818,6.68409091 C44.8181846,3.37540606 42.1382276,0.691991042 38.8295455,0.687727273 L38.8295455,0.687727273 Z" id="_Path_4" fill="url(#linearGradient-4)"></path>
                        <g id="_Group_" transform="translate(27.045455, 29.363636)">
                            <rect id="_Path_5" fill="#000000" x="0.401818182" y="0.231818182" width="39.3781818" height="39.3781818"></rect>
                            <rect id="_Path_6" fill="#FFFFFF" x="3.80181818" y="32.2304545" width="14.7668182" height="2.45727273"></rect>
                            <g id="_Group_2" transform="translate(3.090909, 4.636364)" fill="#FFFFFF">
                                <path d="M0.540909091,5.96545455 L1.68454545,4.88363636 C1.90786843,5.23195436 2.28385452,5.45295382 2.69681818,5.47863636 C2.91693725,5.46829307 3.12216905,5.36446355 3.2609053,5.19325712 C3.39964155,5.02205068 3.45868261,4.79975625 3.42318182,4.58227273 L3.42318182,0.517727273 L5.19272727,0.517727273 L5.19272727,4.59 C5.2432049,5.25475513 5.01346931,5.91034205 4.55909091,6.39818182 C4.08318758,6.84296769 3.44799195,7.07698713 2.79727273,7.04727273 C1.91040352,7.09242715 1.06104521,6.68520056 0.540909091,5.96545455 L0.540909091,5.96545455 Z" id="_Compound_Path_"></path>
                                <path d="M5.60227273,0.517727273 L10.7640909,0.517727273 L10.7640909,2.02454545 L7.36409091,2.02454545 L7.36409091,3.00590909 L10.455,3.00590909 L10.455,4.41227273 L7.36409091,4.41227273 L7.36409091,5.40909091 L10.8181818,5.40909091 L10.8181818,6.95454545 L5.61,6.95454545 L5.61,0.533181818 L5.60227273,0.517727273 Z" id="_Compound_Path_2"></path>
                                <path d="M13.09,2.07863636 L11.1736364,2.07863636 L11.1736364,0.533181818 L16.7913636,0.533181818 L16.7913636,2.07863636 L14.8672727,2.07863636 L14.8672727,6.95454545 L13.09,6.95454545 L13.09,2.09409091 L13.09,2.07863636 Z" id="_Compound_Path_3"></path>
                                <path d="M0.710909091,8.43818182 L4.00272727,8.43818182 C4.6402155,8.38781894 5.27148788,8.59360817 5.75681818,9.01 C6.03183568,9.28404141 6.18500754,9.65722375 6.18181818,10.0454545 L6.18181818,10.0454545 C6.1950415,10.6854488 5.7962967,11.2617596 5.19272727,11.475 C5.93931215,11.6076072 6.47941257,12.2622744 6.46772727,13.0204545 L6.46772727,13.0204545 C6.46772727,14.1177273 5.57136364,14.79 4.04136364,14.79 L0.734090909,14.79 L0.734090909,8.36863636 L0.710909091,8.43818182 Z M4.41227273,10.4163636 C4.41227273,10.0609091 4.12636364,9.86772727 3.63954545,9.86772727 L2.47272727,9.86772727 L2.47272727,10.9959091 L3.59318182,10.9959091 C4.13409091,10.9959091 4.44318182,10.8104545 4.44318182,10.4395455 L4.44318182,10.4395455 L4.41227273,10.4163636 Z M3.80181818,12.24 L2.44181818,12.24 L2.44181818,13.4222727 L3.81727273,13.4222727 C4.36590909,13.4222727 4.66727273,13.2136364 4.66727273,12.835 L4.66727273,12.835 C4.63636364,12.4718182 4.39681818,12.24 3.79409091,12.24 L3.80181818,12.24 Z" id="_Compound_Path_4"></path>
                                <path d="M6.715,8.43818182 L9.75181818,8.43818182 C10.5139195,8.37657593 11.2687216,8.62446297 11.8459091,9.12590909 C12.2352204,9.52213481 12.4423451,10.0623384 12.4177273,10.6172727 L12.4177273,10.6172727 C12.4495342,11.4925031 11.9170543,12.289666 11.0963636,12.5954545 L12.6418182,14.8363636 L10.5940909,14.8363636 L9.27272727,12.9122727 L8.5,12.9122727 L8.5,14.8595455 L6.72272727,14.8595455 L6.72272727,8.43818182 L6.715,8.43818182 Z M9.67454545,11.5290909 C9.90799342,11.5843547 10.1538684,11.5280576 10.3400119,11.3767214 C10.5261554,11.2253852 10.6314521,10.9961769 10.625,10.7563636 L10.625,10.7563636 C10.6327609,10.5130888 10.5254469,10.2803761 10.3353845,10.1283261 C10.1453221,9.97627622 9.89472863,9.92266294 9.65909091,9.98363636 L8.5,9.98363636 L8.5,11.5290909 L9.68227273,11.5290909 L9.67454545,11.5290909 Z" id="_Compound_Path_5"></path>
                                <path d="M14.4886364,8.39181818 L16.2272727,8.39181818 L18.9627273,14.8518182 L17,14.8518182 L16.5440909,13.7004545 L14.0559091,13.7004545 L13.6,14.8518182 L11.7377273,14.8518182 L14.4886364,8.39181818 Z M16.0340909,12.3172727 L15.3154545,10.5013636 L14.5890909,12.3172727 L16.0263636,12.3172727 L16.0340909,12.3172727 Z" id="_Compound_Path_6"></path>
                                <path d="M19.1404545,8.43818182 L20.9177273,8.43818182 L20.9177273,14.8595455 L19.1404545,14.8595455 L19.1404545,8.43818182 L19.1404545,8.43818182 Z" id="_Compound_Path_7"></path>
                                <path d="M21.3659091,8.43818182 L23.0272727,8.43818182 L25.67,11.8304545 L25.67,8.43818182 L27.4318182,8.43818182 L27.4318182,14.8595455 L25.8863636,14.8595455 L23.1354545,11.3359091 L23.1354545,14.8595455 L21.3736364,14.8595455 L21.3736364,8.43818182 L21.3659091,8.43818182 Z" id="_Compound_Path_8"></path>
                                <path d="M27.5322727,13.9090909 L28.5213636,12.7268182 C29.1053072,13.2148331 29.8390754,13.4876094 30.6,13.4995455 C31.0868182,13.4995455 31.3727273,13.3372727 31.3727273,13.0590909 L31.3727273,13.0590909 C31.3727273,12.7809091 31.1640909,12.6495455 30.2831818,12.4331818 C28.9154545,12.1240909 27.8645455,11.7377273 27.8645455,10.4240909 L27.8645455,10.4240909 C27.8645455,9.23409091 28.8072727,8.36863636 30.3527273,8.36863636 C31.3063676,8.33103725 32.2425445,8.63214675 32.9954545,9.21863636 L32.1068182,10.4781818 C31.5865542,10.0860099 30.9575696,9.8646505 30.3063636,9.84454545 C29.8736364,9.84454545 29.665,10.0222727 29.665,10.2540909 L29.665,10.2540909 C29.665,10.5477273 29.8813636,10.6790909 30.7854545,10.88 C32.2536364,11.2045455 33.1654545,11.6527273 33.1654545,12.8813636 L33.1654545,12.8813636 C33.1654545,14.195 32.13,14.9754545 30.5690909,14.9754545 C29.4599295,15.006806 28.3783321,14.6270084 27.5322727,13.9090909 L27.5322727,13.9090909 Z" id="_Compound_Path_9"></path>
                            </g>
                        </g>
                    </g>
                </g>
            </g>
        </g>
    </g>
</svg>