<?xml version="1.0" encoding="UTF-8" standalone="no"?>
<svg width="64px" height="64px" viewBox="0 0 64 64" version="1.1" xmlns="http://www.w3.org/2000/svg" xmlns:xlink="http://www.w3.org/1999/xlink">
    <defs></defs>
    <g id="Tools" stroke="none" stroke-width="1" fill="none" fill-rule="evenodd">
        <g id="icons/skills/id-429" fill="#67595D">
            <path d="M19.8169919,33.7795486 C19.430082,34.5831306 19.093096,35.262383 18.7729113,35.9502761 C17.1705476,39.395502 15.8432451,42.9362553 15.1582323,46.6872649 C14.7770828,48.7735059 14.5687468,50.8751081 15.1135888,52.9695098 C15.5816249,54.7691687 16.5556201,55.69324 18.2218287,55.7695659 C18.951005,55.8036485 19.7137839,55.6490766 20.4237587,55.4489011 C22.3035838,54.91654 23.93907,53.8883007 25.5207921,52.7746147 C25.9048217,52.5038738 26.2974921,52.3349008 26.776569,52.5129945 C27.6252745,52.8288589 27.9324983,53.9540657 27.216763,54.488347 C24.6336836,56.4128155 21.8998726,58.0723036 18.5525743,58.1750315 C15.8110827,58.2595181 13.8266095,56.7891646 12.951982,54.1758429 C12.2991316,52.2259324 12.2607286,50.2203376 12.5002671,48.2080222 C13.211682,42.2181199 15.5235405,36.7759398 18.2995947,31.5003326 C18.5381731,31.0471777 18.5525743,30.6871499 18.3836012,30.2027925 C17.6904277,28.2120788 17.045738,26.2040839 16.4125691,24.1932086 C16.2925598,23.8120592 16.1696703,23.7035708 15.7558784,23.7942979 C13.0359885,24.392424 10.3564216,25.1225604 7.94375541,26.5516307 C7.0120035,27.1036733 6.11817451,27.7891662 5.373157,28.5716266 C4.13418137,29.872527 4.11065955,31.3121581 5.1230577,32.7973928 C6.00632587,34.0939728 7.25106195,34.9806013 8.56444332,35.7817831 C8.97535504,36.0333225 9.4088285,36.2474191 9.82262043,36.4941581 C10.4241069,36.8537058 10.6300428,37.5507196 10.3213789,38.1306044 C10.011755,38.7109692 9.31714142,38.9409069 8.68637273,38.6164019 C6.84111031,37.6678487 5.12017747,36.5421618 3.74007095,34.9628399 C2.89424566,33.9950852 2.27451783,32.9073212 2.06954201,31.6179417 C1.8141623,30.0098176 2.27499787,28.5927482 3.24083242,27.31969 C4.2369093,26.0077487 5.54501027,25.0716764 6.97312049,24.2940164 C9.50579598,22.91487 12.2348066,22.0911264 15.038223,21.4838795 C15.2302378,21.4421163 15.4203325,21.3902723 15.6805126,21.3254673 C15.5485024,20.5775696 15.4068915,19.8517535 15.2936027,19.1206571 C14.8342073,16.1473076 14.6225109,13.1715579 15.3526473,10.2078092 C15.6416296,9.03555869 16.0952646,7.92763317 16.8844455,6.99396111 C18.4954499,5.08965412 20.5672898,4.66578141 22.8906691,5.2331852 C25.1871664,5.79434852 27.1154752,7.06596667 28.913694,8.5459209 C29.4225333,8.96451321 29.4364543,9.72057156 29.0212223,10.2078092 C28.5973496,10.7046475 27.9382587,10.7694525 27.3612542,10.3763022 C26.4549442,9.75945456 25.5735962,9.10036369 24.6317635,8.54304067 C23.5526402,7.90507143 22.3938307,7.45239649 21.1025311,7.44615601 C20.0358888,7.4408756 19.2068648,7.8748291 18.5991379,8.73889579 C17.8291584,9.83482038 17.5540972,11.099238 17.408646,12.3958181 C17.1009422,15.1382697 17.4662504,17.8341578 18.0005317,20.5170849 C18.0576561,20.8022269 18.1671045,20.9030347 18.4671277,20.8727924 C20.6320948,20.6567757 22.7975419,20.441239 24.9658693,20.2602651 C25.4372657,20.2213821 25.7449694,20.0509689 26.037312,19.6813404 C28.8551295,16.1218656 31.9441679,12.8259313 35.5780484,10.075799 C37.6023646,8.54400075 39.7414097,7.20853767 42.2025597,6.47936139 C43.7444387,6.02284615 45.3050392,5.85387311 46.857959,6.39967524 C48.7973087,7.08132785 49.8812324,8.5550416 50.4399955,10.4569484 C51.0323612,12.4759842 50.9397141,14.5343831 50.6992155,16.592302 C50.6372907,17.1193826 50.5451236,17.6440631 50.445756,18.1653834 C50.3108655,18.8748781 49.7847449,19.2507472 49.0762102,19.1681808 C48.4320005,19.093295 48.0114881,18.575335 48.0791733,17.8562395 C48.1727805,16.864483 48.398878,15.8780068 48.4089587,14.8881704 C48.4209597,13.71688 48.3959977,12.5153473 48.1521389,11.3776595 C47.6437797,9.01203687 46.0073334,8.08412525 43.5865065,8.61792645 C41.7705263,9.01779732 40.160002,9.87226327 38.6267637,10.8827413 C35.4772406,12.9584215 32.7885531,15.5539818 30.2923604,18.3602784 C29.8281646,18.8820787 29.3817301,19.4202002 28.9304953,19.9530414 C28.9031332,19.9847238 28.9050533,20.0413682 28.8704907,20.1762586 L29.5238211,20.1762586 C35.9519972,20.2410636 42.2856061,21.0052826 48.4752039,22.7867001 C51.4226314,23.6354056 54.267811,24.741411 56.885933,26.3701767 C58.2790006,27.2366435 59.5578193,28.239441 60.5692573,29.548022 C62.6319766,32.217028 62.4586832,35.2134192 60.08586,37.6035237 C58.4834963,39.2178883 56.510064,40.237487 54.4079818,41.0295482 C53.8132159,41.2527654 53.1584453,40.9249001 52.9309078,40.3550961 C52.6808085,39.7291278 52.9520294,39.0815578 53.5885585,38.772894 C54.5591934,38.3024577 55.5687114,37.8949062 56.4865422,37.3361431 C57.2440407,36.8743474 57.9660164,36.3021433 58.5732633,35.6564934 C59.8583225,34.2888679 59.9058461,32.7940325 58.816162,31.2636744 C58.000099,30.1173459 56.9036944,29.2792012 55.7247234,28.5466647 C52.8156989,26.7388451 49.6234525,25.6189187 46.3366388,24.7447712 C42.9101343,23.8331809 39.4289056,23.1971318 35.8934327,22.9455923 C33.0760953,22.7454169 30.248677,22.6878124 27.4260592,22.5538821 C27.0185077,22.5342006 26.7400862,22.6546899 26.5135087,23.0041569 C24.858821,25.5560338 23.1854118,28.0959099 21.5393648,30.6535473 C21.4193555,30.8398017 21.3684716,31.1748675 21.4505579,31.3721628 C24.237173,38.0033946 27.7664054,44.1929923 32.4434064,49.6879765 C34.4125184,52.0003149 36.5539637,54.13888 39.1543244,55.7570849 C40.3745786,56.5160235 41.6481169,57.1491924 43.1251909,57.2476 C44.4635342,57.3378469 45.4399296,56.7776437 46.1043009,55.641876 C46.7302692,54.5718734 46.9813285,53.3881021 47.0936572,52.1716882 C47.4565652,48.2464252 46.6803453,44.460373 45.6511459,40.7132037 C44.5969845,36.8748275 43.1050294,33.1987037 41.3956174,29.6070665 C41.2578468,29.3180842 41.1450381,28.9748577 41.1599192,28.6637937 C41.1872813,28.09783 41.6337158,27.6950789 42.1919989,27.6077122 C42.6825967,27.5309063 43.1991166,27.8006871 43.4444155,28.3268077 C44.0559828,29.6363488 44.6766707,30.9434897 45.2368739,32.2755925 C46.9659674,36.3899901 48.3580748,40.6114359 49.0934916,45.0268167 C49.6066512,48.1086546 49.8519501,51.2015333 49.1395751,54.2886516 C48.9797228,54.9789449 48.7440246,55.6649178 48.4488018,56.3096076 C47.2357482,58.9613322 44.7760383,60.1595047 41.9260584,59.5364166 C39.6089195,59.0290175 37.6532486,57.818364 35.8286277,56.3720124 C32.4726887,53.7121271 29.7499185,50.4689967 27.2873285,46.9944886 C24.4800718,43.0365831 22.1091688,38.8276182 20.1227755,34.4011965 C20.0483697,34.2365438 19.9629231,34.0766915 19.8169919,33.7795486 L19.8169919,33.7795486 Z M18.6034582,23.2427353 L20.1376566,28.1218319 C21.3497502,26.2717691 22.4797574,24.547476 23.6952112,22.6911727 L18.6034582,23.2427353 L18.6034582,23.2427353 Z M32.2240295,35.8379474 C30.2957207,35.8355473 28.7264795,34.2725466 28.7303198,32.3581589 C28.7336801,30.4130487 30.3010011,28.8630091 32.2614724,28.8634891 C34.1883411,28.8644492 35.754222,30.4260097 35.7556621,32.3461579 C35.7566222,34.2888679 34.187381,35.8403476 32.2240295,35.8379474 L32.2240295,35.8379474 Z" id="Shape"></path>
        </g>
    </g>
</svg>