<?xml version="1.0" encoding="UTF-8" standalone="no"?>
<svg width="64px" height="64px" viewBox="0 0 64 64" version="1.1" xmlns="http://www.w3.org/2000/svg" xmlns:xlink="http://www.w3.org/1999/xlink">
    <defs></defs>
    <g id="Languages" stroke="none" stroke-width="1" fill="none" fill-rule="evenodd">
        <g id="icons/skills/id-402">
            <g id="Rectangle-22-+-Rectangle-25" transform="translate(8.000000, 4.000000)">
                <path d="M0,4.00490831 C0,1.79305852 1.79405245,0 4.00989318,0 L43.9901068,0 C46.2047097,0 48,1.78913646 48,4.00172845 L48,46 L38,56 L3.99484381,56 C1.7885525,56 0,54.200205 0,51.9950917 L0,4.00490831 Z" id="Rectangle-22" fill="#378EE6"></path>
                <path d="M38,50.009763 C38,47.795232 39.7877996,46 42.009763,46 L48,46 L38,56 L38,50.009763 Z" id="Rectangle-25" fill="#097DCE"></path>
            </g>
            <path d="M21.448,38.432 L23.236,38.432 L25.18,41.456 L27.208,38.432 L28.888,38.432 L26.056,42.56 L29.092,47 L27.268,47 L25.132,43.724 L22.96,47 L21.244,47 L24.28,42.56 L21.448,38.432 Z M30.952,44.144 C30.952,44.4720016 31.0079994,44.7519988 31.12,44.984 C31.2320006,45.2160012 31.387999,45.4059993 31.588,45.554 C31.788001,45.7020007 32.0179987,45.8099997 32.278,45.878 C32.5380013,45.9460003 32.8199985,45.98 33.124,45.98 C33.4520016,45.98 33.7319988,45.9420004 33.964,45.866 C34.1960012,45.7899996 34.3839993,45.6920006 34.528,45.572 C34.6720007,45.4519994 34.7759997,45.3140008 34.84,45.158 C34.9040003,45.0019992 34.936,44.8440008 34.936,44.684 C34.936,44.3559984 34.8620007,44.1140008 34.714,43.958 C34.5659993,43.8019992 34.4040009,43.6920003 34.228,43.628 C33.9239985,43.5159994 33.570002,43.4100005 33.166,43.31 C32.761998,43.2099995 32.264003,43.0800008 31.672,42.92 C31.3039982,42.8239995 30.9980012,42.6980008 30.754,42.542 C30.5099988,42.3859992 30.3160007,42.212001 30.172,42.02 C30.0279993,41.827999 29.9260003,41.6240011 29.866,41.408 C29.8059997,41.1919989 29.776,40.9720011 29.776,40.748 C29.776,40.3159978 29.8659991,39.9420016 30.046,39.626 C30.2260009,39.3099984 30.4639985,39.048001 30.76,38.84 C31.0560015,38.631999 31.3919981,38.4780005 31.768,38.378 C32.1440019,38.2779995 32.5239981,38.228 32.908,38.228 C33.3560022,38.228 33.777998,38.2859994 34.174,38.402 C34.570002,38.5180006 34.9179985,38.6919988 35.218,38.924 C35.5180015,39.1560012 35.7559991,39.4419983 35.932,39.782 C36.1080009,40.1220017 36.196,40.5159978 36.196,40.964 L34.696,40.964 C34.6559998,40.4119972 34.4680017,40.0220011 34.132,39.794 C33.7959983,39.5659989 33.3680026,39.452 32.848,39.452 C32.6719991,39.452 32.4920009,39.4699998 32.308,39.506 C32.1239991,39.5420002 31.9560008,39.6019996 31.804,39.686 C31.6519992,39.7700004 31.5260005,39.8839993 31.426,40.028 C31.3259995,40.1720007 31.276,40.3519989 31.276,40.568 C31.276,40.8720015 31.3699991,41.1099991 31.558,41.282 C31.7460009,41.4540009 31.9919985,41.5839996 32.296,41.672 C32.3280002,41.68 32.4539989,41.7139997 32.674,41.774 C32.8940011,41.8340003 33.1399986,41.8999996 33.412,41.972 C33.6840014,42.0440004 33.9499987,42.1139997 34.21,42.182 C34.4700013,42.2500003 34.6559994,42.2999998 34.768,42.332 C35.0480014,42.4200004 35.291999,42.5399992 35.5,42.692 C35.708001,42.8440008 35.8819993,43.017999 36.022,43.214 C36.1620007,43.410001 36.2659997,43.6199989 36.334,43.844 C36.4020003,44.0680011 36.436,44.2919989 36.436,44.516 C36.436,44.9960024 36.338001,45.4059983 36.142,45.746 C35.945999,46.0860017 35.6880016,46.3639989 35.368,46.58 C35.0479984,46.7960011 34.684002,46.9539995 34.276,47.054 C33.867998,47.1540005 33.4520021,47.204 33.028,47.204 C32.5399976,47.204 32.0800022,47.1440006 31.648,47.024 C31.2159978,46.9039994 30.8400016,46.7200012 30.52,46.472 C30.1999984,46.2239988 29.944001,45.9060019 29.752,45.518 C29.559999,45.1299981 29.46,44.6720026 29.452,44.144 L30.952,44.144 Z M37.744,38.432 L39.244,38.432 L39.244,45.704 L43.6,45.704 L43.6,47 L37.744,47 L37.744,38.432 Z" id="XSL" fill="#FFFFFF"></path>
            <g id="Stroke-1693-+-Stroke-1694-+-Stroke-1695" transform="translate(22.000000, 16.000000)" stroke="#FFFFFF" stroke-width="3" stroke-linecap="round" stroke-linejoin="round">
                <path d="M4.28571429,3.57142857 L0,7.85714286 L4.28571429,12.1428571" id="Stroke-1693"></path>
                <path d="M15.7142857,3.57142857 L20,7.85714286 L15.7142857,12.1428571" id="Stroke-1694"></path>
                <path d="M7.14285714,15.7142857 L12.8571429,0" id="Stroke-1695"></path>
            </g>
        </g>
    </g>
</svg>