<?xml version="1.0" encoding="utf-8"?>
<!-- Generator: Adobe Illustrator 23.0.1, SVG Export Plug-In . SVG Version: 6.00 Build 0)  -->
<svg version="1.1" id="Layer_1" xmlns="http://www.w3.org/2000/svg" xmlns:xlink="http://www.w3.org/1999/xlink" x="0px" y="0px"
	 viewBox="0 0 37.9 51.7" style="enable-background:new 0 0 37.9 51.7;" xml:space="preserve">
<style type="text/css">
	.st0{fill:url(#SVGID_1_);}
	.st1{fill:#FFFFFF;}
	.st2{fill:#444444;}
</style>
<linearGradient id="SVGID_1_" gradientUnits="userSpaceOnUse" x1="-269.9874" y1="-123.0441" x2="-228.6096" y2="-123.0441" gradientTransform="matrix(0 1 -1 0 -104.1094 269.9874)">
	<stop  offset="0" style="stop-color:#67AAD7"/>
	<stop  offset="1" style="stop-color:#EDE61E"/>
</linearGradient>
<path class="st0" d="M34.4,33.6c1.9-1.1,3.5-3.8,3.5-6V13.8c0-2.2-1.6-4.9-3.5-6l-12-6.9c-1.9-1.1-5-1.1-6.9,0l-12,6.9
	C1.6,8.9,0,11.6,0,13.8v13.9c0,2.2,1.6,4.9,3.5,6l12,6.9c1.9,1.1,5,1.1,6.9,0L34.4,33.6z"/>
<path class="st1" d="M9.8,9.7c0,0,0,7.9,0,13.4s4.9,8.5,9.3,8.5s8.9-3.2,8.9-8.5c0-4,0-10.7,0-10.7s-1.3-0.1-2.2,0.7
	c-0.9,0.7-1.5,1.6-1.5,2.7s0,4.2,0,7.3c0,2.9-2.3,5.1-5.2,5.1c-3.2,0-5.6-2.2-5.6-5.1c0-3.6,0-8.5,0-9.9s-1-2.4-1.5-2.8
	C11,9.7,9.8,9.7,9.8,9.7z"/>
<g>
	<path class="st2" d="M9.4,50.3H7.3l-0.5,1.3H6.1l1.9-5h0.6l1.9,5H9.9L9.4,50.3z M7.5,49.8h1.7l-0.9-2.4L7.5,49.8z"/>
	<path class="st2" d="M11.9,49.7v2h-0.7v-5h1.9c0.3,0,0.5,0,0.8,0.1c0.2,0.1,0.4,0.2,0.6,0.3c0.1,0.1,0.3,0.3,0.3,0.5
		c0.1,0.2,0.1,0.4,0.1,0.6c0,0.2,0,0.5-0.1,0.6c-0.1,0.2-0.2,0.4-0.3,0.5c-0.1,0.1-0.3,0.2-0.6,0.3c-0.2,0.1-0.5,0.1-0.8,0.1H11.9z
		 M11.9,49.1h1.2c0.2,0,0.4,0,0.5-0.1c0.1,0,0.3-0.1,0.3-0.2c0.1-0.1,0.2-0.2,0.2-0.3c0-0.1,0.1-0.3,0.1-0.4c0-0.1,0-0.3-0.1-0.4
		c0-0.1-0.1-0.2-0.2-0.3c-0.1-0.1-0.2-0.2-0.3-0.2c-0.1-0.1-0.3-0.1-0.5-0.1h-1.2V49.1z"/>
	<path class="st2" d="M16.4,49.7v2h-0.7v-5h1.9c0.3,0,0.5,0,0.8,0.1c0.2,0.1,0.4,0.2,0.6,0.3c0.1,0.1,0.3,0.3,0.3,0.5
		c0.1,0.2,0.1,0.4,0.1,0.6c0,0.2,0,0.5-0.1,0.6c-0.1,0.2-0.2,0.4-0.3,0.5c-0.1,0.1-0.3,0.2-0.6,0.3c-0.2,0.1-0.5,0.1-0.8,0.1H16.4z
		 M16.4,49.1h1.2c0.2,0,0.4,0,0.5-0.1c0.1,0,0.3-0.1,0.3-0.2c0.1-0.1,0.2-0.2,0.2-0.3c0-0.1,0.1-0.3,0.1-0.4c0-0.1,0-0.3-0.1-0.4
		c0-0.1-0.1-0.2-0.2-0.3c-0.1-0.1-0.2-0.2-0.3-0.2c-0.1-0.1-0.3-0.1-0.5-0.1h-1.2V49.1z"/>
	<path class="st2" d="M20.9,51.7h-0.7v-5h0.7V51.7z"/>
	<path class="st2" d="M25.7,46.6V50c0,0.3-0.1,0.5-0.1,0.7c-0.1,0.2-0.2,0.4-0.4,0.5c-0.2,0.1-0.4,0.2-0.6,0.3
		c-0.2,0.1-0.5,0.1-0.7,0.1c-0.3,0-0.5,0-0.7-0.1c-0.2-0.1-0.4-0.2-0.6-0.3c-0.2-0.1-0.3-0.3-0.4-0.5C22.1,50.6,22,50.3,22,50v-3.4
		h0.7V50c0,0.2,0,0.4,0.1,0.5c0.1,0.1,0.1,0.3,0.2,0.4c0.1,0.1,0.2,0.2,0.4,0.2c0.1,0,0.3,0.1,0.5,0.1c0.2,0,0.3,0,0.5-0.1
		c0.1,0,0.3-0.1,0.4-0.2c0.1-0.1,0.2-0.2,0.2-0.4C25,50.4,25,50.2,25,50v-3.4H25.7z"/>
	<path class="st2" d="M27.6,46.6l1.6,4.1l1.6-4.1h0.9v5h-0.7v-2l0.1-2.1l-1.7,4.1H29l-1.7-4.1l0.1,2.1v2h-0.7v-5H27.6z"/>
</g>
</svg>
