<?xml version="1.0" encoding="UTF-8" standalone="no"?>
<svg width="64px" height="64px" viewBox="0 0 64 64" version="1.1" xmlns="http://www.w3.org/2000/svg" xmlns:xlink="http://www.w3.org/1999/xlink">
    <defs></defs>
    <g id="Frameworks" stroke="none" stroke-width="1" fill="none" fill-rule="evenodd">
        <g id="icons/skills/id-434" fill="#FD4F31">
            <g id="laravel-plain" transform="translate(3.000000, 3.000000)">
                <path d="M7.67321875,0.325796875 C7.16254688,0.365671875 6.6609375,0.359328125 6.16657813,0.4948125 C5.08496875,0.791609375 4.12389063,1.26603125 3.27609375,1.997375 C2.77765625,2.4269375 2.34265625,2.89003125 1.97335938,3.43559375 C1.40332813,4.27795312 1.015,5.18329687 0.82015625,6.202375 C0.89809375,6.33876562 0.980109375,6.48195312 1.06710938,6.62740625 C1.61946875,7.550875 2.17228125,8.468 2.726,9.3905625 L4.1814375,11.8107031 C4.629125,12.5565469 5.07590625,13.3028437 5.5226875,14.0486875 L7.6106875,17.5323125 C8.08510938,18.324375 8.55998438,19.1168906 9.03485938,19.9085 C9.72678125,21.0617031 10.4205156,22.214 11.1115313,23.3676563 L13.6531094,27.6138906 C14.3858125,28.836875 15.119875,30.0589531 15.8539375,31.2810313 L15.9518125,31.4233125 C16.0582969,31.4572969 16.1430313,31.4282969 16.2309375,31.4074531 C17.1979063,31.1754531 18.164875,30.9448125 19.1318438,30.7137187 C20.7001094,30.3389844 22.268375,29.9656094 23.8366406,29.5904219 L26.2930313,29.0027187 C27.8785156,28.6239062 29.4644531,28.246 31.0499375,27.8662812 C32.6526406,27.4829375 34.2548906,27.0977812 35.8580469,26.7139844 C36.6682344,26.5195937 37.4784219,26.3261094 38.2890625,26.132625 C39.8573281,25.7583437 41.4255937,25.3849687 42.9938594,25.0115937 L48.1177969,23.7913281 L48.3946562,23.7165625 L48.3189844,23.5665781 L46.9206406,21.5900469 L45.5395156,19.6348125 L44.0623281,17.548625 L42.6503906,15.5489844 L41.2511406,13.5729062 L39.8065781,11.5306719 C39.334875,10.8645781 38.8622656,10.1993906 38.3901094,9.53375 L37.6438125,8.47978125 C37.529625,8.31801562 37.4385469,8.1435625 37.3778281,7.95460937 C37.2301094,7.4965 37.3986719,7.19154687 37.6660156,6.96634375 C37.8391094,6.81998437 38.0384844,6.71259375 38.2541719,6.64915625 C38.5545937,6.56079687 38.8577344,6.4760625 39.1649531,6.4180625 C39.78075,6.30160937 40.400625,6.20282812 41.0186875,6.09996875 L43.1139375,5.7583125 C43.5557344,5.68535937 43.9970781,5.60878125 44.438875,5.53401562 C45.0392656,5.43251562 45.6396562,5.3305625 46.2405,5.23042187 C46.8236719,5.13254687 47.4068437,5.03557812 47.9900156,4.93951562 L49.8990312,4.6273125 L51.2239687,4.40482812 C51.7278437,4.32054687 52.2312656,4.23671875 52.7346875,4.15425 C53.3627187,4.05184375 53.9902969,3.94853125 54.6183281,3.85020312 C54.9926094,3.79175 55.3668906,3.77135937 55.7384531,3.87829687 C56.017125,3.9585 56.270875,4.089 56.5069531,4.25575 L56.8336562,4.48367187 C56.8662812,4.40845312 56.8191562,4.36767187 56.7974062,4.324625 C56.3261562,3.37079687 55.683625,2.55064062 54.8670937,1.86778125 C54.1081094,1.2325 53.2557812,0.765328125 52.3132812,0.467625 C51.7563906,0.291359375 51.1840937,0.373375 50.601375,0.329421875 M25.2340781,57.09375 C25.2059844,57.09375 25.1810625,56.8898438 25.1493438,56.8359219 C24.4696563,55.6759219 23.7827188,54.4307344 23.1111875,53.2666563 C22.2652031,51.7994375 21.4269219,50.3276875 20.5931719,48.8532188 C19.7027812,47.27725 18.8200938,45.69675 17.9365,44.1171563 C17.0964063,42.6155 16.2590313,41.1124844 15.4221094,39.6094688 C14.916875,38.7009531 14.4148125,37.790625 13.9100313,36.8816563 L13.7759063,36.6736719 L13.5303125,36.7221563 C13.0445625,36.8476719 12.5597188,36.9740938 12.074875,37.101875 C11.3997188,37.2795 10.7250156,37.4602969 10.0494063,37.6365625 C8.53279688,38.0312344 7.0161875,38.4236406 5.49957813,38.8169531 C3.95714063,39.2175156 2.34990625,39.6189844 0.807015625,40.0177344 C0.71321875,40.04175 0.90625,40.0499063 0.453125,40.0657656 L0.453125,49.6470938 C0.6398125,49.9443438 0.622140625,49.8043281 0.633921875,49.9022031 C0.66971875,50.1858594 0.72771875,50.4717813 0.7775625,50.7527188 C0.96425,51.7994375 1.38429688,52.7577969 1.99148438,53.6305156 C2.881875,54.9110469 4.06770313,55.8263594 5.52042188,56.3864219 C6.03925,56.5857969 6.58073438,56.7262656 7.13445313,56.7942344 L7.69678125,56.9428594" id="Shape"></path>
                <path d="M2.25475,34.7737188 C4.03960938,34.3491406 5.82492188,33.9250156 7.60978125,33.5013437 C8.3936875,33.3155625 9.17804688,33.1320469 9.96195313,32.9453594 C10.3539062,32.8520156 10.7467656,32.7632031 11.1355469,32.6580781 C11.4817344,32.5647344 11.5243281,32.4500937 11.34625,32.1378906 C11.088875,31.6865781 10.8269688,31.2379844 10.5664219,30.7880312 L8.27179688,26.8367813 L5.97807813,22.8850781 C5.2000625,21.5447344 4.42114062,20.2043906 3.64267187,18.8645 C2.976125,17.7180937 2.30957812,16.5716875 1.64348437,15.4252813 C1.35529688,14.9295625 1.00548437,14.4324844 0.7159375,13.9372187 C0.662015625,13.8470469 0.90625,13.7392031 0.453125,13.6911719 L0.453125,35.1674844 C0.453125,35.1529844 0.658390625,35.14075 0.72771875,35.1239844 L2.25475,34.7737188 L2.25475,34.7737188 Z M57.19525,50.1246875 C56.495625,50.3734531 55.7955469,50.6240313 55.096375,50.8746094 C53.5036406,51.4455469 51.9109063,52.0164844 50.3181719,52.587875 C49.4332188,52.9055156 48.5500781,53.2267813 47.6646719,53.5430625 C45.8603281,54.1869531 44.0550781,54.8285781 42.2502813,55.4711094 C41.2044688,55.8435781 40.1582031,56.3039531 39.1128438,56.6782344 C38.8264688,56.7810938 38.5441719,57.09375 38.2605156,57.09375 L50.2637969,57.09375 L50.5220781,56.9455781 C50.8274844,56.9324375 51.1279063,56.8418125 51.427875,56.7869844 C52.6599219,56.5617813 53.7632812,56.0289063 54.7406719,55.2499844 C55.4915,54.6514063 56.1023125,53.9196094 56.5808125,53.0849531 C57.0729063,52.2258281 57.3651719,51.2964688 57.5056406,50.3204375 C57.517875,50.2361563 57.5441563,50.1405469 57.4734688,50.0535469 C57.3737813,50.0458438 57.285875,50.0925156 57.19525,50.1246875 L57.19525,50.1246875 Z M56.1643906,34.0065781 C55.6351406,33.2824844 55.1045313,32.55975 54.5761875,31.8352031 C53.8471094,30.8351563 53.1193906,29.8342031 52.3912188,28.8337031 C52.0953281,28.4277031 51.7953594,28.024875 51.5067187,27.6143438 C51.4197188,27.4906406 51.3204844,27.4575625 51.185,27.4942656 L51.1075156,27.5164688 C49.7671719,27.8422656 48.426375,28.1671563 47.0855781,28.4920469 L44.6831094,29.0752188 C43.1166562,29.4553906 41.54975,29.8360156 39.9832969,30.2166406 C38.4340625,30.5931875 36.8848281,30.9701875 35.3351406,31.3458281 L30.5039219,32.5157969 C28.9193437,32.9005 27.3356719,33.2865625 25.7515469,33.6717188 L21.1559531,34.7873125 C20.3462187,34.9839688 19.5364844,35.1797188 18.7276562,35.3772813 C18.6084844,35.4062813 18.48025,35.4135313 18.353375,35.5095938 L18.4616719,35.7157656 C19.14,36.8875469 19.8183281,38.058875 20.4984687,39.22975 C21.2683281,40.5555938 22.0386406,41.8809844 22.8107656,43.2054688 C23.6599219,44.6613594 24.5113437,46.1163438 25.3618594,47.5717813 C25.8507812,48.4077969 26.3365312,49.2447188 26.8295312,50.0784688 C27.3773594,51.0046563 27.927,51.9290313 28.4847969,52.8493281 C28.652,53.124375 28.8418594,53.3871875 29.0330781,53.646375 C29.1613125,53.8194688 29.3199062,53.9671875 29.5070469,54.0800156 C29.7000781,54.1964688 29.9080625,54.2331719 30.127375,54.1837813 C30.2406562,54.1579531 30.3516719,54.1207969 30.4613281,54.0827344 L30.8646094,53.9332031 C32.331375,53.4315938 33.7976875,52.9299844 35.2649062,52.4301875 C36.4095,52.0405 37.5554531,51.652625 38.7009531,51.2652031 C39.8378437,50.8795938 40.9756406,50.4957969 42.1129844,50.112 L45.4996406,48.9683125 C46.6542031,48.5781719 47.8083125,48.1880313 48.9624219,47.7969844 C50.3788906,47.3162188 51.7949062,46.8336406 53.2122812,46.3537813 C54.5784531,45.8915938 55.9459844,45.432125 57.3126094,44.9708438 C57.3964375,44.94275 57.488875,44.9309688 57.5582031,44.8389844 L57.5668125,44.6400625 C57.5672656,41.8057656 57.5663594,38.9710156 57.5695312,36.1367188 C57.5695312,35.985375 57.5292031,35.8630313 57.4385781,35.7411406 C57.0090156,35.166125 56.5880625,34.5852188 56.1643906,34.0065781 L56.1643906,34.0065781 Z M55.9292188,7.30029687 C55.611125,6.89746875 55.2060313,6.7696875 54.7094063,6.89928125 C54.4932656,6.95592187 54.2712344,6.99171875 54.0510156,7.03204687 C53.3287344,7.16435937 52.6055469,7.29440625 51.8832656,7.42535937 C50.8256719,7.61748437 49.7685312,7.81142187 48.7109375,8.00173437 C47.8735625,8.15217187 47.0357344,8.30034375 46.1979062,8.44715625 L42.836625,9.0353125 C42.6957031,9.05978125 42.5534219,9.08425 42.4174844,9.12775 C42.2194687,9.1911875 42.162375,9.31534375 42.253,9.50157812 C42.3268594,9.65382812 42.4188437,9.79928125 42.5185312,9.936125 C43.213625,10.8940312 43.9118906,11.8496719 44.6101562,12.8057656 C45.5725937,14.1239062 46.5354844,15.4415937 47.498375,16.7588281 C48.3130937,17.8735156 49.1287187,18.9882031 49.9438906,20.1024375 C50.5846094,20.977875 51.2253281,21.8533125 51.8669531,22.7282969 L51.993375,22.8814531 L57.5536719,21.507125 L57.5668125,21.2189375 C57.5672656,17.3623906 57.5663594,13.5058437 57.5695312,9.64884375 C57.5695312,9.47846875 57.5282969,9.341625 57.4209062,9.20659375 C56.9532812,8.61617187 56.4942656,8.01895312 56.031625,7.42445312 L55.9292187,7.30029687 L55.9292188,7.30029687 Z M57.4249844,25.987625 C56.5839844,26.1897187 55.7398125,26.3818437 54.8784219,26.6097656 C54.9695,26.7715312 57.3320937,29.960625 57.4693906,30.1119687 L57.5554844,30.1595469 L57.565,29.9651562 L57.5654531,28.6225469 C57.5659062,27.843625 57.5677187,27.0647031 57.5659062,26.2857813 C57.5659062,26.1910781 57.5926406,26.089125 57.5273906,25.9930625 L57.4249844,25.987625 L57.4249844,25.987625 Z" id="Shape"></path>
            </g>
        </g>
    </g>
</svg>