<?xml version="1.0" encoding="UTF-8" standalone="no"?>
<svg width="64px" height="64px" viewBox="0 0 64 64" version="1.1" xmlns="http://www.w3.org/2000/svg" xmlns:xlink="http://www.w3.org/1999/xlink">
    <defs></defs>
    <g id="Brands" stroke="none" stroke-width="1" fill="none" fill-rule="evenodd">
        <g id="icons/skills/id-420" fill="#313435">
            <path d="M4.51852349,28.4683221 C4.70006711,28.7485906 4.78013423,28.9985906 4.88154362,29.5260403 C5.59154362,28.8330201 6.46704698,28.4683221 7.42261745,28.4683221 C8.28563758,28.4683221 8.99389262,28.7485906 9.54194631,29.320604 C9.68959732,29.4639597 9.83201342,29.6489262 9.95483221,29.8304698 C10.9085235,28.8536242 11.7626846,28.4683221 12.9069128,28.4683221 C13.7218121,28.4683221 14.4941611,28.7120134 14.9657718,29.1177852 C15.5547651,29.6267785 15.7415436,30.2387248 15.7415436,31.6634228 L15.7415436,39.0757047 L13.0937584,39.0757047 L13.0937584,32.1944966 C13.0937584,30.9471141 12.9461074,30.705906 12.2360403,30.705906 C11.7271141,30.705906 11.0118121,31.0530201 10.4245638,31.582349 L10.4245638,39.0757047 L7.84073826,39.0757047 L7.84073826,32.2922819 C7.84073826,30.9916107 7.65221477,30.6862416 6.89416107,30.6862416 C6.39053691,30.6862416 5.69295302,30.9471141 5.10577181,31.4791275 L5.10577181,39.0757047 L2.44013423,39.0757047 L2.44013423,31.804698 C2.44013423,30.2992617 2.33691275,29.6489262 2.0504698,29.1374497 L4.51852349,28.4683221 Z M20.583557,31.52 C20.3966443,32.0716779 20.2971141,32.8039597 20.2971141,33.8431544 C20.2971141,35.0415436 20.4197987,35.9420805 20.6422148,36.4695973 C20.8877852,37.04 21.5018121,37.324698 22.0265772,37.324698 C23.208255,37.324698 23.7136242,36.2668456 23.7136242,33.8032215 C23.7136242,32.3972483 23.5302685,31.4791275 23.1655705,31.0094631 C22.9038255,30.6659732 22.4786577,30.4614094 21.9875168,30.4614094 C21.3344966,30.4614094 20.8041611,30.8669799 20.583557,31.52 Z M25.489396,30.014698 C26.3222148,30.9916107 26.6941611,32.1312752 26.6941611,33.8210067 C26.6941611,35.6128859 26.2831544,36.8369799 25.3844295,37.8531544 C24.5944295,38.748255 23.5534228,39.2999329 21.9483221,39.2999329 C19.1136913,39.2999329 17.2648322,37.1814094 17.2648322,33.9045638 C17.2648322,30.6248322 19.1332215,28.4451007 21.9483221,28.4451007 C23.4341611,28.4451007 24.5944295,28.955906 25.489396,30.014698 Z M35.4703356,28.6498658 L35.4703356,30.5234228 L30.8652349,37.1814094 L35.6501342,37.1814094 L34.997047,39.0757047 L27.3241611,39.0757047 L27.3241611,37.3861074 L32.2265772,30.5646309 L27.7332886,30.5646309 L27.7332886,28.6498658 L35.4703356,28.6498658 Z M39.7644295,28.4042282 L39.7644295,39.0757047 L37.0363758,39.0757047 L37.0363758,28.8330201 L39.7644295,28.4042282 Z M40.0846309,25.7794631 C40.0846309,26.7174497 39.3389933,27.466443 38.3959732,27.466443 C37.4830201,27.466443 36.7322148,26.7174497 36.7322148,25.7794631 C36.7322148,24.8434899 37.5080537,24.0881208 38.4420134,24.0881208 C39.3567785,24.0881208 40.0846309,24.8434899 40.0846309,25.7794631 Z M44.7325503,26.7174497 L44.7325503,34.840604 C44.7325503,36.6351007 44.7539597,36.8763087 44.9177181,37.1610067 C45.0208725,37.3459732 45.2414765,37.4457718 45.4693289,37.4457718 C45.5671812,37.4457718 45.6258389,37.4457718 45.773557,37.408255 L46.2397987,39.0355034 C45.773557,39.2179195 45.2024161,39.3195973 44.611745,39.3195973 C43.4478523,39.3195973 42.5118792,38.7712752 42.1878523,37.8975839 C41.9832886,37.3673826 41.9387919,37.04 41.9387919,35.5541611 L41.9387919,27.7724161 C41.9387919,26.409396 41.9033557,25.5765772 41.8016779,24.6361745 L44.5920805,24.0053691 C44.6898658,24.5748993 44.7325503,25.2474497 44.7325503,26.7174497 Z M50.3911409,26.7174497 L50.3911409,34.840604 C50.3911409,36.6351007 50.4144295,36.8763087 50.581745,37.1610067 C50.6777181,37.3459732 50.8983221,37.4457718 51.1262416,37.4457718 C51.229396,37.4457718 51.2916779,37.4457718 51.4357718,37.408255 L51.9003356,39.0355034 C51.4357718,39.2179195 50.8644966,39.3195973 50.2719463,39.3195973 C49.1101342,39.3195973 48.172349,38.7712752 47.8467114,37.8975839 C47.6385235,37.3673826 47.6046309,37.04 47.6046309,35.5541611 L47.6046309,27.7724161 C47.6046309,26.409396 47.5638255,25.5765772 47.4587248,24.6361745 L50.245302,24.0053691 C50.3575168,24.5748993 50.3911409,25.2474497 50.3911409,26.7174497 Z M58.2083893,34.5149664 C56.3221477,34.5149664 55.6602685,34.8583893 55.6602685,36.1057718 C55.6602685,36.9171141 56.1763087,37.4669799 56.8683893,37.4669799 C57.3755705,37.4669799 57.8881879,37.2018792 58.2921477,36.7552349 L58.3366443,34.5149664 L58.2083893,34.5149664 Z M54.6725503,29.037651 C55.6869799,28.6087919 56.5590604,28.4272483 57.5198658,28.4272483 C59.2744295,28.4272483 60.4737584,29.0769128 60.884698,30.2387248 C61.02,30.6659732 61.0822819,30.9916107 61.0698658,32.1124832 L61.0038926,35.6128859 L61.0038926,35.7977852 C61.0038926,36.9171141 61.1890604,37.3459732 61.9865772,37.9351007 L60.5378523,39.6077181 C59.900604,39.3408054 59.3331544,38.8710738 59.0678523,38.3433557 C58.8668456,38.5489262 58.6408054,38.748255 58.4343624,38.892349 C57.9290604,39.2590604 57.1906711,39.4636242 56.3363758,39.4636242 C54.0143624,39.4636242 52.7527517,38.2802013 52.7527517,36.2071812 C52.7527517,33.7595973 54.4467785,32.6179195 57.7634899,32.6179195 C57.9628859,32.6179195 58.1514765,32.6179195 58.3775168,32.6411409 L58.3775168,32.215906 C58.3775168,31.0530201 58.1514765,30.6659732 57.1479195,30.6659732 C56.2830872,30.6659732 55.2563087,31.0911409 54.1387248,31.8465101 L52.9767785,29.8910067 C53.5302013,29.5438926 53.9377852,29.3420134 54.6725503,29.037651 L54.6725503,29.037651 Z" id="Fill-1"></path>
        </g>
    </g>
</svg>