<?xml version="1.0" encoding="UTF-8" standalone="no"?>
<svg width="64px" height="64px" viewBox="0 0 64 64" version="1.1" xmlns="http://www.w3.org/2000/svg" xmlns:xlink="http://www.w3.org/1999/xlink">
    <defs>
        <radialGradient cx="48.7018377%" cy="50%" fx="48.7018377%" fy="50%" r="46.3956816%" id="radialGradient-1">
            <stop stop-color="#000000" stop-opacity="0.3" offset="0%"></stop>
            <stop stop-color="#000000" stop-opacity="0" offset="100%"></stop>
        </radialGradient>
        <linearGradient x1="79.8923424%" y1="0%" x2="33.1695521%" y2="91.3416196%" id="linearGradient-2">
            <stop stop-color="#8ABF49" offset="0%"></stop>
            <stop stop-color="#D8E27D" offset="100%"></stop>
        </linearGradient>
        <linearGradient x1="80.9298064%" y1="31.7265853%" x2="21.7065506%" y2="84.6515999%" id="linearGradient-3">
            <stop stop-color="#96CDF5" offset="0%"></stop>
            <stop stop-color="#8CC5EE" offset="11.7283951%"></stop>
            <stop stop-color="#146BA0" offset="100%"></stop>
        </linearGradient>
        <linearGradient x1="2.31768796%" y1="5.78384752%" x2="83.2565775%" y2="70.7346425%" id="linearGradient-4">
            <stop stop-color="#DF412B" offset="0%"></stop>
            <stop stop-color="#FFDD78" offset="100%"></stop>
        </linearGradient>
        <linearGradient x1="30.2867397%" y1="28.422246%" x2="100%" y2="91.8837249%" id="linearGradient-5">
            <stop stop-color="#DCD38E" offset="0%"></stop>
            <stop stop-color="#C3DEBB" offset="100%"></stop>
        </linearGradient>
    </defs>
    <g id="Frameworks" stroke="none" stroke-width="1" fill="none" fill-rule="evenodd">
        <g id="icons/skills/id-414">
            <g id="Oval-11-+-Imported-Layers" transform="translate(5.000000, 2.000000)">
                <ellipse id="Oval-11" fill="url(#radialGradient-1)" cx="22.8571429" cy="57.1428571" rx="22.8571429" ry="2.85714286"></ellipse>
                <g id="Imported-Layers">
                    <path d="M35.0352381,15.9895238 C32.3380952,8.39047619 40.2238095,0.242857143 46.7104762,0 C50.5971429,1.98 53.9352381,7.17619048 53.767619,14.2285714 C53.2590476,22.9180952 46.96,30.4066667 40.1047619,37.3047619 C39.7219048,28.8914286 37.892381,23.5295238 35.0352381,15.9895238" id="Fill-1" fill="url(#linearGradient-2)"></path>
                    <path d="M19.7428571,57.1428571 C18.6571429,48.6580952 22.1866667,41.4219048 25.6885714,37.0095238 C33.3009524,27.54 32.8266667,21.852381 32.0771429,16.9790476 C36.0809524,23.2209524 38.5780952,30.7038095 39.132381,37.3247619 C39.4142857,42.7866667 35.4304762,55.412381 19.7428571,57.1428571" id="Fill-2" fill="url(#linearGradient-3)"></path>
                    <path d="M14.2780952,24.9228571 C2.76761905,21.7809524 -0.0714285714,11.9114286 0.442857143,5.27428571 C11.62,0.85047619 23.6495238,5.38190476 30.5952381,14.8219048 C35.4638095,21.44 38.512381,29.9219048 39.132381,37.3247619 C35.7904762,33.0228571 31.5714286,30.5295238 26.1971429,28.5771429 C22.52,27.2419048 19.1257143,26.3571429 14.2780952,24.9228571" id="Fill-3" fill="url(#linearGradient-4)"></path>
                    <path d="M32.0914286,16.9619048 C34.96,21.432381 37.0447619,26.44 38.2390476,31.6142857 C38.6714286,33.487619 38.9819048,35.3895238 39.1457143,37.3047619 C36.7657143,34.24 33.6666667,31.9047619 30.1866667,30.2180952 C31.3571429,27.9038095 32.1914286,25.4104762 32.4161905,22.8171429 C32.587619,20.8542857 32.3895238,18.9019048 32.0914286,16.9619048" id="Fill-4" fill="url(#linearGradient-5)"></path>
                </g>
            </g>
        </g>
    </g>
</svg>