<?xml version="1.0" encoding="UTF-8" standalone="no"?>
<svg width="64px" height="64px" viewBox="0 0 64 64" version="1.1" xmlns="http://www.w3.org/2000/svg" xmlns:xlink="http://www.w3.org/1999/xlink">
    <defs>
        <radialGradient cx="38.4590345%" cy="34.6128806%" fx="38.4590345%" fy="34.6128806%" r="86.7774404%" id="radialGradient-1">
            <stop stop-color="#FC5CA3" offset="0%"></stop>
            <stop stop-color="#FC5CA3" stop-opacity="0.3" offset="100%"></stop>
        </radialGradient>
        <rect id="path-2" x="3" y="3" width="52" height="52"></rect>
    </defs>
    <g id="Tools" stroke="none" stroke-width="1" fill="none" fill-rule="evenodd">
        <g id="icons/skills/id-416">
            <g id="Rectangle-83-+-Rectangle-84-+-Id" transform="translate(3.000000, 3.000000)">
                <rect id="Rectangle-83" fill="#FC5BA6" x="0" y="0" width="58" height="58"></rect>
                <g id="Rectangle-84">
                    <use fill="#000000" xlink:href="#path-2"></use>
                    <use fill-opacity="0.300000012" fill="url(#radialGradient-1)" xlink:href="#path-2"></use>
                </g>
                <path d="M19.84,19.38 L23.32,19.38 L23.32,39 L19.84,39 L19.84,19.38 Z M26.02,31.65 C26.02,30.449994 26.1949982,29.3700048 26.545,28.41 C26.8950017,27.4499952 27.3599971,26.6400033 27.94,25.98 C28.5200029,25.3199967 29.1849962,24.8100018 29.935,24.45 C30.6850037,24.0899982 31.459996,23.91 32.26,23.91 C33.1000042,23.91 33.8099971,24.0549985 34.39,24.345 C34.9700029,24.6350015 35.5499971,25.0299975 36.13,25.53 L36.01,23.16 L36.01,17.82 L39.46,17.82 L39.46,39 L36.61,39 L36.37,37.41 L36.25,37.41 C35.7099973,37.9500027 35.0800036,38.4099981 34.36,38.79 C33.6399964,39.1700019 32.880004,39.36 32.08,39.36 C30.2199907,39.36 28.7450054,38.6850068 27.655,37.335 C26.5649945,35.9849933 26.02,34.0900122 26.02,31.65 L26.02,31.65 Z M29.59,31.62 C29.59,33.220008 29.8749971,34.4349959 30.445,35.265 C31.0150028,36.0950042 31.8399946,36.51 32.92,36.51 C34.0200055,36.51 35.0499952,35.9600055 36.01,34.86 L36.01,27.99 C35.4899974,27.5299977 34.9850024,27.2100009 34.495,27.03 C34.0049975,26.8499991 33.5100025,26.76 33.01,26.76 C32.0499952,26.76 31.2400033,27.1799958 30.58,28.02 C29.9199967,28.8600042 29.59,30.0599922 29.59,31.62 L29.59,31.62 Z" id="Id" fill="#FC5CA3"></path>
            </g>
        </g>
    </g>
</svg>