<?xml version="1.0" encoding="UTF-8" standalone="no"?>
<svg width="64px" height="64px" viewBox="0 0 64 64" version="1.1" xmlns="http://www.w3.org/2000/svg" xmlns:xlink="http://www.w3.org/1999/xlink" xmlns:sketch="http://www.bohemiancoding.com/sketch/ns">
    <!-- Generator: Sketch 3.4.2 (15857) - http://www.bohemiancoding.com/sketch -->
    <title>icons/skills/id-51</title>
    <desc>Created with Sketch.</desc>
    <defs></defs>
    <g id="Brands" stroke="none" stroke-width="1" fill="none" fill-rule="evenodd" sketch:type="MSPage">
        <g id="icons/skills/id-51" sketch:type="MSArtboardGroup" fill="#009900">
            <g id="Group" sketch:type="MSLayerGroup" transform="translate(2.000000, 26.000000)">
                <path d="M11.5748031,0.236220472 C10.8661417,0.236220472 10.3937008,0.803149606 10.3937008,1.51181102 L10.3937008,8.17322835 L2.88188976,0.614173228 C2.50393701,0.236220472 1.84251969,0.141732283 1.37007874,0.330708661 C0.897637795,0.519685039 0.472440945,0.992125984 0.472440945,1.51181102 L0.472440945,11.2913386 C0.472440945,12 1.18110236,12.5669291 1.88976378,12.5669291 C2.5984252,12.5669291 3.30708661,12 3.30708661,11.2913386 L3.30708661,4.62992126 L10.9133858,12.1889764 C11.1496063,12.4251969 11.480315,12.5669291 11.8110236,12.5669291 C11.9527559,12.5669291 12,12.519685 12.1417323,12.4724409 C12.6141732,12.2834646 12.7559055,11.8110236 12.7559055,11.2913386 L12.7559055,1.55905512 C12.7559055,0.850393701 12.2834646,0.236220472 11.5748031,0.236220472 L11.5748031,0.236220472 Z M20.8818898,5.81102362 C20.2204724,5.81102362 19.6062992,6.47244094 19.6062992,7.13385827 C19.6062992,7.79527559 20.2204724,8.45669291 20.8818898,8.45669291 L24,8.64566929 L23.2913386,10.3937008 L19.2755906,10.3937008 L17.2913386,6.66141732 L19.3228346,2.83464567 L23.6220472,2.83464567 L24.6141732,4.72440945 L27.2125984,4.72440945 L25.511811,0.992125984 L25.1338583,0.472440945 L17.7637795,0.472440945 L17.4330709,1.03937008 L14.6456693,5.90551181 L14.3149606,6.51968504 L14.6456693,7.13385827 L17.3858268,12 L17.7637795,12.7559055 L24.8976378,12.7559055 L25.2283465,11.9527559 L27.2598425,7.7007874 L28.1574803,5.66929134 L26.0787402,5.66929134 L20.8818898,5.81102362 L20.8818898,5.81102362 Z M30.7086614,0.236220472 C30.0472441,0.236220472 29.2913386,0.850393701 29.2913386,1.51181102 L29.2913386,4.72440945 L32.1259843,4.72440945 L32.1259843,1.55905512 C32.1259843,0.850393701 31.3700787,0.236220472 30.7086614,0.236220472 L30.7086614,0.236220472 Z M45.0708661,0.377952756 C44.5984252,0.188976378 43.9370079,0.283464567 43.6062992,0.661417323 L35.9055118,8.22047244 L35.9055118,1.55905512 C35.9055118,0.850393701 35.4330709,0.283464567 34.7244094,0.283464567 C34.015748,0.283464567 33.5433071,0.850393701 33.5433071,1.55905512 L33.5433071,11.3385827 C33.5433071,11.8582677 33.8740157,12.3307087 34.3464567,12.519685 C34.488189,12.5669291 34.6771654,12.6141732 34.8188976,12.6141732 C35.1496063,12.6141732 35.5748031,12.4724409 35.8110236,12.2362205 L43.4645669,4.67716535 L43.4645669,11.3385827 C43.4645669,12.0472441 43.9370079,12.6141732 44.6456693,12.6141732 C45.3543307,12.6141732 45.8267717,12.0472441 45.8267717,11.3385827 L45.8267717,1.55905512 C45.8267717,1.03937008 45.5433071,0.566929134 45.0708661,0.377952756 L45.0708661,0.377952756 Z M55.3700787,6.42519685 L59.3385827,2.45669291 C59.8582677,1.93700787 59.8582677,1.13385827 59.3385827,0.661417323 C58.8188976,0.141732283 58.015748,0.141732283 57.5433071,0.661417323 L53.5748031,4.62992126 L49.6062992,0.661417323 C49.0866142,0.141732283 48.2834646,0.141732283 47.8110236,0.661417323 C47.2913386,1.18110236 47.2913386,1.98425197 47.8110236,2.45669291 L51.7795276,6.42519685 L47.8110236,10.3937008 C47.2913386,10.9133858 47.2913386,11.7165354 47.8110236,12.1889764 C48.0472441,12.4251969 48.3779528,12.5669291 48.7086614,12.5669291 C49.0393701,12.5669291 49.3700787,12.4251969 49.6062992,12.1889764 L53.5748031,8.22047244 L57.5433071,12.1889764 C57.7795276,12.4251969 58.1102362,12.5669291 58.4409449,12.5669291 C58.7716535,12.5669291 59.1023622,12.4251969 59.3385827,12.1889764 C59.8582677,11.6692913 59.8582677,10.8661417 59.3385827,10.3937008 L55.3700787,6.42519685 L55.3700787,6.42519685 Z M29.2913386,11.2913386 C29.2913386,11.9527559 30,12.5669291 30.7086614,12.5669291 C31.3700787,12.5669291 32.1259843,11.9527559 32.1259843,11.2913386 L32.1259843,5.66929134 L29.2913386,5.66929134 L29.2913386,11.2913386 L29.2913386,11.2913386 Z" id="Shape" sketch:type="MSShapeGroup"></path>
            </g>
        </g>
    </g>
</svg>