<?xml version="1.0" encoding="UTF-8" standalone="no"?>
<svg width="64px" height="64px" viewBox="0 0 64 64" version="1.1" xmlns="http://www.w3.org/2000/svg" xmlns:xlink="http://www.w3.org/1999/xlink" xmlns:sketch="http://www.bohemiancoding.com/sketch/ns">
    <!-- Generator: Sketch 3.4.2 (15857) - http://www.bohemiancoding.com/sketch -->
    <title>icons/skills/id-53</title>
    <desc>Created with Sketch.</desc>
    <defs></defs>
    <g id="Frameworks" stroke="none" stroke-width="1" fill="none" fill-rule="evenodd" sketch:type="MSPage">
        <g id="icons/skills/id-53" sketch:type="MSArtboardGroup">
            <g id="Group" sketch:type="MSLayerGroup" transform="translate(5.000000, 2.000000)">
                <path d="M26.71875,58.96875 C26.15625,58.96875 25.640625,58.828125 25.265625,58.640625 L2.625,45.609375 C1.828125,45.140625 1.171875,43.96875 1.171875,43.078125 L1.171875,16.921875 C1.171875,16.03125 1.875,14.859375 2.625,14.390625 L25.265625,1.359375 C25.640625,1.125 26.15625,1.03125 26.71875,1.03125 C27.28125,1.03125 27.796875,1.171875 28.171875,1.359375 L50.765625,14.4375 C51.5625,14.90625 52.21875,16.078125 52.21875,16.96875 L52.21875,43.078125 C52.21875,43.96875 51.515625,45.140625 50.765625,45.609375 L28.171875,58.6875 C27.796875,58.875 27.28125,58.96875 26.71875,58.96875 L26.71875,58.96875 Z" id="Shape" fill="#3D3B47" sketch:type="MSShapeGroup"></path>
                <path d="M26.71875,1.734375 C27.140625,1.734375 27.5625,1.828125 27.84375,1.96875 L50.4375,15 C51,15.328125 51.5625,16.265625 51.5625,16.921875 L51.5625,43.03125 C51.5625,43.6875 51,44.625 50.4375,44.953125 L27.84375,58.03125 C27.5625,58.171875 27.140625,58.265625 26.71875,58.265625 C26.296875,58.265625 25.875,58.171875 25.59375,58.03125 L3,45 C2.4375,44.671875 1.875,43.734375 1.875,43.078125 L1.875,16.921875 C1.875,16.265625 2.4375,15.328125 3,15 L25.59375,1.96875 C25.875,1.828125 26.296875,1.734375 26.71875,1.734375 L26.71875,1.734375 Z M26.71875,0.328125 C26.0625,0.328125 25.40625,0.46875 24.890625,0.75 L2.296875,13.78125 C1.3125,14.390625 0.46875,15.796875 0.46875,16.921875 L0.46875,43.03125 C0.46875,44.203125 1.265625,45.609375 2.296875,46.171875 L24.890625,59.25 C25.40625,59.53125 26.0625,59.671875 26.71875,59.671875 C27.375,59.671875 28.03125,59.53125 28.546875,59.25 L51.140625,46.171875 C52.125,45.609375 52.96875,44.203125 52.96875,43.03125 L52.96875,16.921875 C52.96875,15.75 52.171875,14.34375 51.140625,13.78125 L28.546875,0.75 C28.03125,0.46875 27.375,0.328125 26.71875,0.328125 L26.71875,0.328125 Z" id="Shape" fill="#CCCCCC" sketch:type="MSShapeGroup"></path>
                <path d="M26.71875,27.984375 L26.859375,27.984375 C27.515625,28.03125 28.125,28.40625 28.5,28.96875 C28.6875,29.296875 28.78125,29.71875 28.78125,30.140625 C28.6875,31.21875 27.84375,32.015625 26.765625,32.015625 L26.625,32.015625 C25.96875,31.96875 25.359375,31.59375 24.984375,31.03125 C24.796875,30.703125 24.703125,30.28125 24.703125,29.859375 C24.75,28.828125 25.640625,27.984375 26.71875,27.984375 L26.71875,27.984375 Z M26.71875,27.84375 C25.59375,27.84375 24.65625,28.734375 24.5625,29.859375 C24.515625,30.28125 24.609375,30.703125 24.84375,31.078125 C25.21875,31.6875 25.828125,32.109375 26.578125,32.15625 L26.71875,32.15625 C27.84375,32.15625 28.78125,31.265625 28.875,30.140625 C28.921875,29.71875 28.78125,29.296875 28.59375,28.921875 C28.21875,28.3125 27.609375,27.890625 26.859375,27.84375 L26.71875,27.84375 L26.71875,27.84375 Z" id="Shape" fill="#EFF3F3" sketch:type="MSShapeGroup"></path>
                <path d="M26.765625,29.296875 C27.140625,29.34375 27.46875,29.671875 27.421875,30.046875 C27.375,30.421875 27.046875,30.75 26.671875,30.703125 C26.296875,30.65625 25.96875,30.328125 26.015625,29.953125 C26.015625,29.578125 26.390625,29.25 26.765625,29.296875 L26.765625,29.296875 Z" id="Shape" fill="#EFF3F3" sketch:type="MSShapeGroup"></path>
                <path d="M26.71875,32.859375 L26.53125,32.859375 C25.59375,32.8125 24.703125,32.25 24.234375,31.453125 C23.953125,30.9375 23.8125,30.375 23.859375,29.8125 C23.90625,29.15625 24.1875,28.546875 24.609375,28.078125 L24.609375,28.03125 L6.09375,42.140625 L27.375,32.765625 C27.140625,32.8125 26.953125,32.859375 26.71875,32.859375 L26.71875,32.859375 Z" id="Shape" fill="#EFF3F3" sketch:type="MSShapeGroup"></path>
                <path d="M26.015625,27.234375 C26.296875,27.1875 26.578125,27.140625 26.90625,27.140625 C27.84375,27.1875 28.734375,27.75 29.203125,28.546875 C29.484375,29.0625 29.625,29.625 29.578125,30.1875 C29.53125,30.890625 29.25,31.5 28.78125,31.96875 L47.484375,18.1875 L26.015625,27.234375 L26.015625,27.234375 Z" id="Shape" fill="#0977F7" sketch:type="MSShapeGroup"></path>
            </g>
        </g>
    </g>
</svg>