<?xml version="1.0" encoding="UTF-8" standalone="no"?>
<svg width="64px" height="64px" viewBox="0 0 64 64" version="1.1" xmlns="http://www.w3.org/2000/svg" xmlns:xlink="http://www.w3.org/1999/xlink" xmlns:sketch="http://www.bohemiancoding.com/sketch/ns">
    <!-- Generator: Sketch 3.4.2 (15857) - http://www.bohemiancoding.com/sketch -->
    <title>icons/skills/id-69</title>
    <desc>Created with Sketch.</desc>
    <defs></defs>
    <g id="Tools" stroke="none" stroke-width="1" fill="none" fill-rule="evenodd" sketch:type="MSPage">
        <g id="icons/skills/id-69" sketch:type="MSArtboardGroup" fill="#179A33">
            <path d="M35.7567436,39.291168 C35.8426563,39.3770807 36.0144816,39.5059497 36.1433507,39.5059497 L38.420037,39.5059497 C38.548906,39.5059497 38.7207314,39.3770807 38.8066441,39.291168 L39.408033,38.6468228 C39.4939457,38.5609101 39.536902,38.4749974 39.536902,38.3890847 L40.1812472,36.1983111 C40.2242035,35.9835293 40.1812472,35.7687476 40.0523781,35.6398786 L39.5798583,35.2532715 C39.4939457,35.1673588 39.3221203,35.2103151 39.1932512,35.2103151 L37.1313466,35.2103151 L37.0454339,35.1244024 L37.0024776,35.0814461 C36.9165649,35.0814461 36.8306522,35.0384897 36.7447395,35.1244024 L35.928569,35.6398786 C35.8426563,35.6398786 35.7996999,35.8546603 35.7567436,35.940573 L35.069442,38.0454339 C34.9835293,38.2602157 35.0264857,38.5179537 35.1983111,38.6897791 L35.7567436,39.291168 L35.7567436,39.291168 Z M36.1003943,50.6316433 L35.928569,50.6745996 L35.4130928,50.6745996 L38.5059497,41.6108106 C38.5918624,41.3101162 38.4629934,40.9664655 38.1622989,40.8805528 L37.9904735,40.8375964 L32.7927557,40.8375964 C32.577974,40.8805528 32.4061486,41.0523781 32.3631923,41.2671599 L32.0624978,42.3410685 C31.9765851,42.6417629 32.1913669,42.899501 32.4920613,42.9854137 L32.6209303,42.9424574 L33.3941446,42.9424574 L30.2583313,51.9203336 C30.1724186,52.221028 30.3012877,52.6076352 30.6019821,52.7365042 L30.7738075,52.8653732 L35.5849182,52.8653732 C35.8426563,52.8653732 36.057438,52.6505915 36.1433507,52.3928534 L36.4440451,51.3619011 C36.5729141,51.0612067 36.4010888,50.7175559 36.1003943,50.6316433 L36.1003943,50.6316433 Z M58.9102139,42.1692431 L58.0940434,41.0953345 L58.0940434,41.0523781 C57.9651743,40.9235091 57.8363053,40.7946401 57.6644799,40.7946401 L54.571623,40.7946401 C54.3997976,40.7946401 54.2709286,40.9664655 54.1420596,41.0523781 L53.2829326,42.0833304 L51.9512859,42.0833304 L51.0492027,41.0523781 L51.0492027,41.0094218 C50.96329,40.8805528 50.7914646,40.7946401 50.6196392,40.7946401 L48.9013854,40.7946401 L57.5785672,32.1174582 L47.8704331,22.4952368 L56.5476149,13.5603169 L56.5476149,9.69424574 L55.3448372,8.14781729 L37.7756918,8.14781729 L36.3581324,9.65128939 L36.3581324,10.8970234 L31.5040653,6 L28.1964267,9.22172593 L27.1654744,8.14781729 L9.81111073,8.14781729 L8.43650766,9.73720208 L8.43650766,13.7750986 L9.72519803,15.0208326 L11.0138884,15.0208326 L11.0138884,26.2324389 L5,32.2463273 L11.0138884,38.2602157 L11.0138884,52.0062463 L13.2476184,53.2519803 L18.2305545,53.2519803 L22.139582,49.1711275 L31.4181526,58.4496982 L37.6468228,52.221028 C37.6897791,52.3928534 37.8186482,52.4358098 38.0334299,52.5217225 L38.2052553,52.4358098 L42.2431518,52.4358098 C42.5008899,52.4358098 42.7156716,52.3928534 42.7586279,52.1780717 L43.0593223,51.3189448 C43.145235,51.0182504 43.016366,50.7605123 42.7156716,50.6745996 L42.5438462,50.7175559 L42.3720208,50.7175559 L43.8325366,46.1212269 L44.8205325,45.133231 L46.9683498,45.133231 L44.8205325,51.96329 C44.7346198,52.2639844 44.9064452,52.4358098 45.2071396,52.5646788 L45.378965,52.4787661 L49.2879925,52.4787661 C49.5027742,52.4787661 49.7175559,52.4358098 49.8034686,52.221028 L50.1471194,51.4478138 C50.2759884,51.1471194 50.1041631,50.8893813 49.846425,50.7605123 C49.8034686,50.7175559 49.7175559,50.7605123 49.6316433,50.7605123 L49.4598179,50.7605123 L51.2639844,45.1761873 L53.8843215,45.1761873 L51.6935478,52.0062463 C51.6076352,52.3069407 51.7794605,52.4787661 52.080155,52.5646788 L52.2519803,52.4358098 L56.5476149,52.4358098 C56.7623966,52.4358098 56.9771784,52.3928534 57.0630911,52.1780717 L57.4067418,51.3189448 C57.5356109,51.0182504 57.3637855,50.7605123 57.0630911,50.6745996 C57.0201347,50.6316433 56.934222,50.7175559 56.8483093,50.7175559 L56.5476149,50.7175559 L58.9531703,42.770632 C59.039083,42.5558502 58.9961266,42.2981122 58.9102139,42.1692431 L58.9102139,42.1692431 Z M31.5040653,6.81617057 L36.3581324,11.6702376 L36.3581324,13.6891859 L37.8186482,15.4503961 L38.5059497,15.4503961 L26.0486094,27.4781729 L26.0486094,15.4503961 L27.4661688,15.4503961 L28.6259902,13.6462295 L28.6259902,9.82311477 L28.5400775,9.69424574 L31.5040653,6.81617057 L31.5040653,6.81617057 Z M5.81617057,32.2463273 L11.0138884,27.0486094 L11.0138884,37.4440451 L5.81617057,32.2463273 L5.81617057,32.2463273 Z M22.5261891,48.6986077 L47.612695,22.9248002 L56.805353,32.1604146 L48.1281711,40.8375964 L48.0852148,40.8375964 C47.9563458,40.8805528 47.8704331,40.9664655 47.7845204,41.0523781 L46.8824371,42.0833304 L45.6367031,42.0833304 L44.6916635,41.0523781 C44.6057508,40.9235091 44.4339254,40.7946401 44.2621,40.7946401 L40.4819416,40.7946401 C40.2242035,40.7946401 40.0094218,40.9664655 39.9235091,41.2242035 L39.5798583,42.2981122 C39.4939457,42.5988066 39.6228147,42.8565447 39.9235091,42.9854137 L40.5678543,42.9854137 L37.8186482,51.1041631 L31.33224,57.6335276 L22.5261891,48.6986077 L22.5261891,48.6986077 Z" id="Shape" sketch:type="MSShapeGroup"></path>
        </g>
    </g>
</svg>