<?xml version="1.0" encoding="UTF-8" standalone="no"?>
<svg width="64px" height="64px" viewBox="0 0 64 64" version="1.1" xmlns="http://www.w3.org/2000/svg" xmlns:xlink="http://www.w3.org/1999/xlink" xmlns:sketch="http://www.bohemiancoding.com/sketch/ns">
    <!-- Generator: Sketch 3.4.2 (15857) - http://www.bohemiancoding.com/sketch -->
    <title>icons/skills/id-65</title>
    <desc>Created with Sketch.</desc>
    <defs></defs>
    <g id="Frameworks" stroke="none" stroke-width="1" fill="none" fill-rule="evenodd" sketch:type="MSPage">
        <g id="icons/skills/id-65" sketch:type="MSArtboardGroup" fill="#1A171B">
            <path d="M32,2 C15.4197731,2 2,15.4197731 2,32 C2,48.5802269 15.4197731,62 32,62 C48.5802269,62 62,48.5802269 62,32 C62,15.4197731 48.5802269,2 32,2 L32,2 Z M48.191248,19.3581848 C46.7811994,19.4068071 45.8573744,18.5802269 45.808752,17.3160454 C45.808752,16.8298217 45.9059968,16.4408428 46.2463533,15.9546191 C46.5380875,15.3711507 46.6353323,15.273906 46.6353323,15.0307942 C46.5867099,14.2528363 45.4197731,14.2042139 45.0794165,14.2042139 C40.5575365,14.350081 39.3905997,20.4278768 38.4181524,25.3873582 L37.9319287,28.012966 C40.5089141,28.4019449 42.356564,27.9157212 43.3776337,27.2836305 C44.8363047,26.3598055 42.9886548,25.3873582 43.1831442,24.3176661 C43.4262561,23.2479741 44.3987034,22.713128 45.1766613,22.6645057 C46.2949757,22.6158833 47.0729335,23.7828201 47.0243112,24.9497569 C46.9756888,26.8460292 44.4473258,29.5202593 39.3419773,29.3743922 C38.7098865,29.3743922 38.1750405,29.3257699 37.6401945,29.2771475 L36.6677472,34.5769854 C35.7925446,38.5640194 34.6742301,44.0583468 30.5899514,48.8233387 C27.089141,53.0048622 23.5397083,53.636953 21.9351702,53.6855754 C18.9692058,53.7828201 16.9756888,52.178282 16.9270665,50.0875203 C16.8784441,48.0453809 18.6774716,46.9270665 19.8444084,46.8784441 C21.4489465,46.8298217 22.5186386,47.9967585 22.5672609,49.3095624 C22.6158833,50.4278768 22.0324149,50.7682334 21.643436,51.0113452 C21.4003241,51.2058347 21.0113452,51.4489465 21.0113452,51.8865478 C21.0113452,52.0810373 21.2544571,52.5186386 21.8865478,52.5186386 C23.1507293,52.4700162 23.9773096,51.8379254 24.560778,51.4489465 C27.4781199,49.0178282 28.5964344,44.7876823 30.0551053,37.1539708 L30.3468395,35.3063209 C30.8330632,32.8265802 31.4165316,30.006483 32.2431118,27.2350081 C30.2009724,25.6790924 28.9854133,23.7828201 26.2139384,23.0534846 C24.3176661,22.5186386 23.1993517,22.9562399 22.3727715,23.9773096 C21.4003241,25.1928687 21.7406807,26.7487844 22.6645057,27.6726094 L24.171799,29.3743922 C26.0680713,31.5623987 27.089141,33.2155592 26.7001621,35.5008104 C26.165316,39.0502431 21.8379254,41.821718 16.732577,40.2658023 C12.356564,38.904376 11.5786062,35.8411669 12.1134522,34.1393841 C12.5510535,32.6320908 13.7666126,32.3403566 14.9335494,32.7293355 C16.197731,33.1183144 16.6839546,34.6256078 16.2949757,35.7925446 C16.2463533,35.9384117 16.197731,36.1329011 16.0518639,36.376013 C15.9059968,36.7163695 15.6628849,36.9594814 15.5170178,37.3484603 C15.2252836,38.2722853 16.4894652,38.904376 17.3646677,39.1961102 C19.3095624,39.7795786 21.2058347,38.7585089 21.6920583,37.2025932 C22.1296596,35.7439222 21.2058347,34.7228525 20.8654781,34.3338736 L19.0178282,32.3403566 C18.191248,31.4165316 16.2949757,28.7909238 17.2188006,25.8249595 C17.5591572,24.7066451 18.2884927,23.4910859 19.3581848,22.713128 C21.5948136,21.0113452 24.0745543,20.7682334 26.4084279,21.4489465 C29.4230146,22.3241491 30.8816856,24.3176661 32.7779579,25.8735818 C33.8476499,22.8103728 35.3063209,19.7471637 37.4943274,17.2188006 C39.4878444,14.8849271 42.1134522,13.2317666 45.1766613,13.0858995 C48.2398703,12.9886548 50.5251216,14.350081 50.6223663,16.5380875 C50.5737439,17.5105348 50.0388979,19.3095624 48.191248,19.3581848 L48.191248,19.3581848 Z" id="Shape" sketch:type="MSShapeGroup"></path>
        </g>
    </g>
</svg>