<?xml version="1.0" encoding="utf-8"?>
<!-- Generator: Adobe Illustrator 23.0.1, SVG Export Plug-In . SVG Version: 6.00 Build 0)  -->
<svg version="1.1" id="Layer_2" xmlns="http://www.w3.org/2000/svg" xmlns:xlink="http://www.w3.org/1999/xlink" x="0px" y="0px"
	 viewBox="0 0 64 64" style="enable-background:new 0 0 64 64;" xml:space="preserve">
<style type="text/css">
	.st0{fill:#26CAD3;}
	.st1{fill:#34BFC9;}
	.st2{fill:#23BDC7;}
	.st3{fill:#1BB3BD;}
	.st4{fill:#1AAEB9;}
	.st5{fill:#06A8B3;}
	.st6{fill:#007481;}
	.st7{fill:#0E7C85;}
	.st8{fill:#02818C;}
	.st9{fill:#0C8793;}
	.st10{fill:#078D98;}
	.st11{fill:#01939F;}
	.st12{fill:#009DAC;}
	.st13{fill:#0CA3AC;}
</style>
<g>
	<g>
		<path class="st0" d="M32,59C32,59,32,59,32,59c-7.2,0-14-2.8-19.1-7.9l0,0c-10.5-10.5-10.5-27.7,0-38.2C18,7.8,24.8,5,32,5
			c7.2,0,14,2.8,19.1,7.9c10.5,10.5,10.5,27.7,0,38.2C46,56.2,39.2,59,32,59z M32,5.6c-7.1,0-13.7,2.7-18.7,7.7
			C3,23.6,3,40.4,13.3,50.7c5,5,11.6,7.7,18.7,7.7s13.7-2.7,18.7-7.7c10.3-10.3,10.3-27,0-37.3C45.7,8.4,39.1,5.6,32,5.6z"/>
	</g>
	<g>
		<path class="st1" d="M31.2,57.7c-6.6,0-12.6-2.3-16.8-6.6l0,0c-4.7-4.7-7.7-11.4-8.1-18.4C5.9,25.5,8.2,19,12.8,14.4
			c5.1-5.1,12.6-8.1,20-8.1c0,0,0,0,0,0c6.6,0,12.6,2.3,16.8,6.6c4.7,4.7,7.7,11.4,8.1,18.4c0.4,7.2-1.9,13.8-6.5,18.4
			C46.1,54.7,38.6,57.7,31.2,57.7z M32.8,6.8c-7.3,0-14.6,3-19.6,7.9c-9.2,9.2-8.5,26,1.5,36l0,0c4.1,4.1,10,6.4,16.4,6.4
			c7.3,0,14.6-3,19.6-7.9c9.2-9.2,8.5-26-1.5-36C45.1,9.1,39.3,6.8,32.8,6.8z"/>
	</g>
	<g>
		<path class="st2" d="M30.2,56.6C30.2,56.6,30.2,56.6,30.2,56.6c-5.9,0-10.9-1.9-14.4-5.4c-4.4-4.4-7.4-11-8.2-17.7
			c-0.8-7.2,1-13.5,5.2-17.7c5.2-5.2,13.2-8.4,21-8.4c5.9,0,10.9,1.9,14.4,5.4c4.4,4.4,7.4,11,8.2,17.7c0.8,7.2-1,13.5-5.2,17.7
			C46,53.4,38,56.6,30.2,56.6z M33.8,8c-7.6,0-15.5,3.2-20.6,8.3c-4.1,4.1-5.8,10.2-5,17.3c0.8,6.6,3.8,13.1,8.1,17.3
			c4.3,4.3,10,5.2,14,5.2c7.6,0,15.5-3.2,20.6-8.3c4.1-4.1,5.8-10.2,5-17.3c-0.8-6.6-3.8-13.1-8.1-17.4C43.5,8.9,37.8,8,33.8,8z"/>
	</g>
	<g>
		<path class="st3" d="M29.2,55.5c-5,0-9.1-1.5-11.9-4.3l0,0c-4-4-7.2-10.5-8.4-16.9c-1.3-7.2,0-13.3,3.8-17
			c5.2-5.2,14.3-8.8,22-8.8c0,0,0,0,0,0c5,0,9.1,1.5,11.9,4.3c4,4,7.2,10.5,8.4,16.9c1.3,7.2,0,13.3-3.8,17
			C46.1,51.9,37,55.5,29.2,55.5C29.3,55.5,29.3,55.5,29.2,55.5z M17.7,50.9c2.7,2.7,6.7,4.1,11.6,4.1c0,0,0,0,0,0
			c7.6,0,16.6-3.6,21.7-8.7c3.6-3.6,4.9-9.5,3.7-16.6c-1.1-6.3-4.3-12.7-8.3-16.7C43.6,10.4,39.6,9,34.8,9c0,0,0,0,0,0
			c-7.6,0-16.6,3.6-21.7,8.7c-3.6,3.6-4.9,9.5-3.7,16.6C10.5,40.6,13.7,47,17.7,50.9z"/>
	</g>
	<g>
		<path class="st4" d="M28.3,54.6c-4.1,0-7.4-1.1-9.5-3.3c-3.7-3.7-7-10-8.5-16.2c-1-4.2-2.1-11.9,2.4-16.3c4.6-4.6,14.5-9.4,23-9.4
			c4.1,0,7.4,1.1,9.5,3.3c3.7,3.7,7,10,8.5,16.2c1,4.2,2.1,11.9-2.4,16.3C46.7,49.9,36.8,54.6,28.3,54.6z M35.7,9.8
			c-8.4,0-18.2,4.7-22.7,9.3C8.6,23.4,9.7,30.9,10.7,35c1.5,6.1,4.8,12.4,8.4,16l0,0c2.1,2.1,5.3,3.2,9.2,3.2
			c8.4,0,18.2-4.7,22.7-9.3c7-7,1.2-24.6-6.1-31.9C42.8,10.9,39.6,9.8,35.7,9.8z"/>
	</g>
	<g>
		<path class="st5" d="M27.6,53.9C27.6,53.9,27.6,53.9,27.6,53.9c-3.2,0-5.7-0.8-7.3-2.5c-3.3-3.3-6.8-9.6-8.7-15.5
			c-1.3-4.2-2.9-11.7,1-15.7c4.8-4.8,15.8-10.1,23.9-10.1c0,0,0,0,0,0c3.2,0,5.7,0.8,7.3,2.5c3.3,3.3,6.8,9.6,8.7,15.5
			c1.3,4.2,2.9,11.7-1,15.7C46.6,48.6,35.7,53.9,27.6,53.9z M36.5,10.5c-8,0-18.8,5.3-23.6,10c-6.3,6.3,1.2,24.1,7.7,30.6
			c1.6,1.6,3.9,2.4,7,2.4c0,0,0,0,0,0c8,0,18.8-5.3,23.6-10c6.3-6.3-1.2-24.1-7.7-30.6C41.9,11.3,39.6,10.5,36.5,10.5
			C36.5,10.5,36.5,10.5,36.5,10.5z"/>
	</g>
	<g>
		<path class="st6" d="M31.3,51.3L31.3,51.3L15.4,35.4l-2.9-3.8l0,0l16-15.9l4.2-2.9l0,0l16.5,16.5l2.1,3.5l0,0L34.8,49.2L31.3,51.3
			z M15.5,35.3l15.8,15.8l3.4-2l16.4-16.4l-2-3.4L32.6,12.9l-4.1,2.8L12.6,31.6L15.5,35.3z"/>
	</g>
	<g>
		<path class="st7" d="M30.4,51.6c-0.1,0-0.1,0-0.2-0.1c-1.9-2-11.2-12-15.6-17.4c-1.5-1.8-2.5-3.7-2.3-3.9
			c1.3-1.2,11.7-10.9,17.5-15.7c2-1.6,3.8-2.4,4-2.2C36.3,15,47,26.6,50.7,31.4c0.8,1.1,1.2,2.2,1,2.3C50.3,35,39.1,45.4,33.6,49.9
			C32.3,51,30.9,51.6,30.4,51.6z M12.5,30.4c0,0.2,0.7,1.8,2.3,3.7c4.5,5.4,13.8,15.4,15.6,17.4c0.2,0.1,1.6-0.4,3.2-1.7l0,0
			c5.5-4.4,16.6-14.8,18-16.2c0-0.1-0.2-1-1-2.1c-3.7-4.8-14.4-16.3-16.8-18.9c-0.2-0.1-1.9,0.6-3.8,2.2
			C24.2,19.5,13.8,29.1,12.5,30.4z"/>
	</g>
	<g>
		<path class="st8" d="M29.4,51.9c-0.2,0-0.3-0.1-0.4-0.2c-1.3-1.2-17-19.2-17-22.4c0-0.2,0-0.3,0.1-0.4c0.9-0.9,21-18.6,22.8-16.8
			c1.3,1.2,17,19.2,17,22.4c0,0.2,0,0.3-0.1,0.4c-0.8,0.8-6.1,5.5-11.3,9.6C32.6,50.9,30.2,51.9,29.4,51.9z M34.6,12.2
			c-2.8,0-20.2,14.9-22.2,16.9c-0.1,0.1-0.1,0.1-0.1,0.3c0,3,15.1,20.5,16.9,22.2l0,0c0.3,0.3,2,0.2,11.2-7.2
			c5.2-4.1,10.5-8.8,11.3-9.6c0.1-0.1,0.1-0.1,0.1-0.3c0-3-15.1-20.5-16.9-22.2C34.8,12.3,34.7,12.2,34.6,12.2z"/>
	</g>
	<g>
		<path class="st9" d="M28.4,52C28.4,52,28.4,52,28.4,52c-0.4,0-0.7-0.1-0.9-0.3c-2.3-2.3-17.8-21.6-15.3-24.2
			C14.7,25.1,31.2,12,35.6,12c0.4,0,0.7,0.1,0.9,0.3c2.4,2.4,17.8,21.6,15.3,24.2C49.3,38.8,32.8,52,28.4,52z M35.6,12.2
			c-4.2,0-20.8,13.2-23.1,15.5c-1,1,1.1,5.2,5.8,11.9c4,5.7,8.3,10.9,9.4,12l0,0c0.1,0.1,0.4,0.2,0.7,0.2c4.2,0,20.8-13.2,23.1-15.5
			c2.2-2.3-12.4-21-15.3-23.8C36.1,12.3,35.9,12.2,35.6,12.2z"/>
	</g>
	<g>
		<path class="st10" d="M27.7,52.2c-0.7,0-1.2-0.2-1.6-0.5C23,48.6,9,29.4,12.3,26.1c1.5-1.5,6.9-5.7,12.7-9.3
			c4.9-3,11.1-6.3,12.9-4.5c1.5,1.5,5.7,6.9,9.3,12.7c3,4.9,6.3,11.1,4.5,12.9c-1.5,1.5-6.9,5.7-12.7,9.3
			C35.1,49.6,30.3,52.2,27.7,52.2z M26.3,51.5c3,3,21.6-10.2,25.2-13.8c1.3-1.3-0.3-5.7-4.5-12.5c-3.6-5.8-7.8-11.1-9.3-12.7
			c-3-3-21.6,10.2-25.2,13.8C9.5,29.3,22.7,47.9,26.3,51.5z"/>
	</g>
	<g>
		<path class="st11" d="M27.2,52.4c-1.1,0-2-0.3-2.5-0.8l0,0c-2-2-6.1-7.7-9.2-13.4c-2.7-4.9-5.3-11.3-3.1-13.6
			c3.7-3.7,18.1-13.1,24.4-13.1c0,0,0,0,0,0c1.1,0,2,0.3,2.5,0.8c4,4,16.4,22.8,12.2,27C47.9,43,33.5,52.4,27.2,52.4
			C27.2,52.4,27.2,52.4,27.2,52.4z M24.8,51.4c0.5,0.5,1.3,0.7,2.3,0.7c0,0,0,0,0,0c6.3,0,20.6-9.3,24.2-13
			c3.9-3.9-8.4-22.7-12.2-26.5c-0.5-0.5-1.3-0.8-2.3-0.7c-6.3,0-20.6,9.3-24.2,13C8.7,28.8,21,47.6,24.8,51.4L24.8,51.4z"/>
	</g>
	<g>
		<path class="st12" d="M27,52.8c-1.6,0-2.9-0.4-3.8-1.3c-2.3-2.3-6.2-8-9-14.1c-1.9-4.1-4.6-11.4-1.7-14.3
			C17,18.6,35.8,7.4,40.9,12.4c2.3,2.3,6.2,8,9,14.1c1.9,4.1,4.6,11.4,1.7,14.3C47.8,44.6,34.5,52.8,27,52.8z M23.4,51.3
			c4.7,4.7,23.2-6,27.9-10.7c2.7-2.7,0.1-9.9-1.8-13.9c-2.8-6.1-6.7-11.8-8.9-14c-4.7-4.7-23.2,6-27.9,10.7
			C8,28.1,18.7,46.6,23.4,51.3L23.4,51.3z"/>
	</g>
	<g>
		<path class="st13" d="M27.1,53.3C27.1,53.3,27.1,53.3,27.1,53.3c-2.4,0-4.2-0.6-5.4-1.8c-3-3-6.6-9.1-8.8-14.8
			c-1.6-4.1-3.7-11.5-0.3-15c4.4-4.4,16.6-11,24.4-11c0,0,0,0,0,0c2.4,0,4.2,0.6,5.4,1.8c3,3,6.6,9.1,8.8,14.8
			c1.6,4.1,3.7,11.5,0.3,15C47.1,46.7,34.9,53.3,27.1,53.3z M36.9,11.1c-7.7,0-19.7,6.5-24.1,10.9c-5.6,5.6,3.8,23.8,9.2,29.2l0,0
			c1.1,1.1,2.9,1.7,5.1,1.7c7.7,0,19.7-6.5,24.1-10.9c5.6-5.6-3.8-23.8-9.2-29.2C40.9,11.7,39.2,11.1,36.9,11.1z"/>
	</g>
</g>
</svg>
