<?xml version="1.0" encoding="UTF-8" standalone="no"?>
<svg width="64px" height="64px" viewBox="0 0 64 64" version="1.1" xmlns="http://www.w3.org/2000/svg" xmlns:xlink="http://www.w3.org/1999/xlink" xmlns:sketch="http://www.bohemiancoding.com/sketch/ns">
    <!-- Generator: Sketch 3.4.2 (15857) - http://www.bohemiancoding.com/sketch -->
    <title>icons/skills/id-68</title>
    <desc>Created with Sketch.</desc>
    <defs></defs>
    <g id="Brands" stroke="none" stroke-width="1" fill="none" fill-rule="evenodd" sketch:type="MSPage">
        <g id="icons/skills/id-68" sketch:type="MSArtboardGroup" fill="#DD4814">
            <path d="M32,2 C15.4309933,2 2,15.4309933 2,31.9995062 C2,48.5670315 15.4309933,61.9990124 32,61.9990124 C48.5685129,61.9990124 62,48.5670315 62,31.9995062 C62,15.4309933 48.5690067,2 32,2 L32,2 Z M38.730804,12.3310016 C39.8378734,10.4146161 42.286067,9.7583738 44.2019587,10.863468 C46.1178504,11.9705374 46.7735989,14.418731 45.6665295,16.3346227 C44.5614353,18.2505144 42.1127479,18.9062629 40.1968562,17.7996873 C38.2824459,16.6940993 37.6262036,14.2454119 38.730804,12.3310016 L38.730804,12.3310016 Z M32,14.5999506 C33.6107316,14.5999506 35.1686281,14.8236359 36.6485063,15.2324912 C36.9097194,16.8417414 37.8647025,18.3245823 39.3880339,19.2035223 C40.9084026,20.0799934 42.667764,20.1678874 44.1901078,19.5931199 C47.1518394,22.5054728 49.0790881,26.4661345 49.3600527,30.878117 L43.6528681,30.9620607 C43.1259979,24.9857625 38.1115958,20.2997284 32,20.2997284 C30.2396511,20.2997284 28.5691713,20.6908073 27.0720105,21.3875401 L24.2885359,16.4007901 C26.6132829,15.2502675 29.231339,14.5999506 32,14.5999506 L32,14.5999506 Z M11.6011851,36.0051025 C9.38803391,36.0051025 7.59509505,34.2116698 7.59509505,31.9995062 C7.59509505,29.7868488 9.38754012,27.9934162 11.6011851,27.9934162 C13.8128549,27.9934162 15.6062875,29.786355 15.6062875,31.9995062 C15.6062875,34.211176 13.8128549,36.0051025 11.6011851,36.0051025 L11.6011851,36.0051025 Z M15.152004,36.3616163 C16.4165912,35.3296025 17.2259073,33.7588676 17.2259073,31.9995062 C17.2259073,30.2391573 16.4165912,28.6679286 15.152004,27.6364085 C16.2353716,23.4446548 18.8430582,19.8651963 22.3469673,17.5221792 L25.2756152,22.4274545 C22.2674677,24.5443173 20.3012098,28.0413135 20.3012098,31.9995062 C20.3012098,35.957699 22.2669739,39.4546951 25.2756152,41.5705703 L22.3469673,46.477327 C18.8415768,44.1348037 16.2338902,40.5543577 15.152004,36.3616163 L15.152004,36.3616163 Z M44.2019587,53.1325817 C42.2865608,54.2391573 39.8378734,53.582915 38.7322854,51.6665295 C37.6257098,49.7521192 38.2824459,47.3039256 40.1983376,46.19735 C42.1127479,45.091762 44.5624228,45.7489919 45.6680109,47.6634022 C46.7740927,49.5792939 46.1173566,52.0279812 44.2019587,53.1325817 L44.2019587,53.1325817 Z M44.1901078,44.4058925 C42.667764,43.8301374 40.9088964,43.9165501 39.3880339,44.7949963 C37.8651963,45.6754177 36.9097194,47.1562834 36.6490001,48.7660275 C35.1686281,49.1758703 33.6107316,49.4000494 32,49.4000494 C29.231339,49.4000494 26.6132829,48.7492387 24.2890297,47.5982224 L27.0720105,42.6109785 C28.5691713,43.3077113 30.2396511,43.699284 32,43.699284 C38.1120895,43.699284 43.1259979,39.0142375 43.6513867,33.0374455 L49.3600527,33.1208954 C49.0790881,37.532878 47.1518394,41.4935396 44.1901078,44.4058925 L44.1901078,44.4058925 Z" id="Shape" sketch:type="MSShapeGroup"></path>
        </g>
    </g>
</svg>