<?xml version="1.0" encoding="UTF-8" standalone="no"?>
<svg width="64px" height="64px" viewBox="0 0 64 64" version="1.1" xmlns="http://www.w3.org/2000/svg" xmlns:xlink="http://www.w3.org/1999/xlink" xmlns:sketch="http://www.bohemiancoding.com/sketch/ns">
    <!-- Generator: Sketch 3.4.2 (15857) - http://www.bohemiancoding.com/sketch -->
    <title>icons/skills/id-6</title>
    <desc>Created with Sketch.</desc>
    <defs></defs>
    <g id="Brands" stroke="none" stroke-width="1" fill="none" fill-rule="evenodd" sketch:type="MSPage">
        <g id="icons/skills/id-6" sketch:type="MSArtboardGroup" fill="#000000">
            <path d="M48.8021664,33.8762364 C48.8862013,42.955859 56.7680863,45.9777312 56.8550189,46.0163679 C56.7883706,46.2288697 55.5959457,50.3224272 52.7030234,54.5497642 C50.2022636,58.2047952 47.6063608,61.8463034 43.5181159,61.9226108 C39.5008659,61.9960205 38.2089515,59.5396929 33.6155319,59.5396929 C29.0235611,59.5396929 27.588691,61.8463034 23.7853916,61.9960205 C19.8386536,62.1457377 16.8332019,58.043004 14.3116749,54.4019788 C9.15947205,46.9528247 5.22191022,33.3522263 10.5088585,24.1716654 C13.1351876,19.6125358 17.8295456,16.725892 22.9242764,16.6515164 C26.7995365,16.5776237 30.4574653,19.2585272 32.8263775,19.2585272 C35.1938407,19.2585272 39.6389921,16.0342952 44.3120999,16.5075947 C46.2685654,16.5892147 51.7598052,17.2977151 55.2858863,22.459577 C55.0023895,22.635857 48.7340693,26.2850925 48.8021664,33.8762364 M41.252074,11.5799677 C43.3471486,9.04395183 44.7573878,5.51255822 44.3729527,2 C41.3525294,2.12122262 37.7003961,4.01248867 35.5343266,6.54753859 C33.5928328,8.79184742 31.8928184,12.3850597 32.3511461,15.8280719 C35.7178509,16.0888696 39.1565164,14.1174324 41.252074,11.5799677" id="Shape" sketch:type="MSShapeGroup"></path>
        </g>
    </g>
</svg>