<?xml version="1.0" encoding="UTF-8" standalone="no"?>
<svg width="64px" height="64px" viewBox="0 0 64 64" version="1.1" xmlns="http://www.w3.org/2000/svg" xmlns:xlink="http://www.w3.org/1999/xlink" xmlns:sketch="http://www.bohemiancoding.com/sketch/ns">
    <!-- Generator: Sketch 3.4.2 (15857) - http://www.bohemiancoding.com/sketch -->
    <title>icons/skills/id-63</title>
    <desc>Created with Sketch.</desc>
    <defs>
        <linearGradient x1="50.016%" y1="0.0096%" x2="50.016%" y2="100.0032%" id="linearGradient-1">
            <stop stop-color="#19D7FF" offset="0%"></stop>
            <stop stop-color="#1E64F0" offset="100%"></stop>
        </linearGradient>
    </defs>
    <g id="Brands" stroke="none" stroke-width="1" fill="none" fill-rule="evenodd" sketch:type="MSPage">
        <g id="icons/skills/id-63" sketch:type="MSArtboardGroup">
            <g id="Group" sketch:type="MSLayerGroup" transform="translate(2.000000, 2.000000)">
                <circle id="Oval" fill="url(#linearGradient-1)" sketch:type="MSShapeGroup" cx="30" cy="30" r="29.7619048"></circle>
                <path d="M30,3.14285714 L30,7.52380952 M30,52.3333333 L30,56.7142857 M34.6666667,3.57142857 L33.9047619,7.9047619 M26.0952381,51.952381 L25.3333333,56.2857143 M39.1428571,4.76190476 L37.6666667,8.9047619 M22.3333333,50.952381 L20.8571429,55.0952381 M25.3333333,3.57142857 L26.0952381,7.9047619 M33.9047619,51.952381 L34.6666667,56.2857143 M20.8571429,4.76190476 L22.3333333,8.9047619 M37.6666667,50.952381 L39.1428571,55.0952381 M16.6190476,6.76190476 L18.8095238,10.5714286 M41.1904762,49.3333333 L43.3809524,53.0952381 M12.8095238,9.42857143 L15.6190476,12.7619048 M44.3809524,47.0952381 L47.1904762,50.4285714 M9.47619048,12.7142857 L12.8571429,15.5238095 M47.1428571,44.3333333 L50.5238095,47.1428571 M6.80952381,16.5714286 L10.6190476,18.7619048 M49.3809524,41.1428571 L53.1904762,43.3333333 M4.85714286,20.7619048 L8.95238095,22.2857143 M51.047619,37.5714286 L55.1428571,39.0952381 M3.61904762,25.2857143 L7.95238095,26.047619 M52.047619,33.8095238 L56.3809524,34.5714286 M3.23809524,29.952381 L7.61904762,29.952381 M52.3809524,29.952381 L56.7619048,29.952381 M3.61904762,34.5714286 L7.95238095,33.8095238 M52.047619,26.047619 L56.3809524,25.2857143 M4.85714286,39.0952381 L8.95238095,37.5714286 M51.047619,22.2857143 L55.1428571,20.7619048 M6.80952381,43.3333333 L10.6190476,41.1428571 M49.3809524,18.7619048 L53.1904762,16.5714286 M9.47619048,47.1428571 L12.8571429,44.3333333 M47.1428571,15.5238095 L50.5238095,12.7142857 M12.8095238,50.4285714 L15.6190476,47.0952381 M44.3809524,12.7619048 L47.1904762,9.42857143 M16.6190476,53.0952381 L18.8095238,49.3333333 M41.1904762,10.5714286 L43.3809524,6.76190476 M27.6666667,3.28571429 L27.8571429,5.66666667 M32.1428571,54.2380952 L32.3333333,56.6190476 M23.047619,4.0952381 L23.6666667,6.38095238 M36.3333333,53.4761905 L36.952381,55.8095238 M18.6666667,5.66666667 L19.6666667,7.85714286 M40.2857143,52.047619 L41.3333333,54.1904762 M14.6190476,8 L16,9.95238095 M44,49.9047619 L45.3809524,51.8571429 M11.047619,11 L12.7619048,12.6666667 M47.2380952,47.1904762 L48.952381,48.8571429 M8.04761905,14.5714286 L10.047619,15.952381 M49.952381,43.9047619 L51.952381,45.2857143 M5.76190476,18.6190476 L7.9047619,19.6190476 M52.0952381,40.2380952 L54.2380952,41.2380952 M4.14285714,23 L6.47619048,23.6190476 M53.5238095,36.2380952 L55.8571429,36.8571429 M3.33333333,27.5714286 L5.71428571,27.8095238 M54.2857143,32.047619 L56.6666667,32.2857143 M3.33333333,32.2857143 L5.71428571,32.047619 M54.2857143,27.8095238 L56.6666667,27.5714286 M4.14285714,36.8571429 L6.47619048,36.2380952 M53.5238095,23.6190476 L55.8571429,23 M5.76190476,41.2380952 L7.9047619,40.2380952 M52.0952381,19.6190476 L54.2380952,18.6190476 M8.04761905,45.2857143 L10.047619,43.9047619 M49.952381,15.952381 L51.952381,14.5714286 M14.6190476,51.8571429 L16,49.9047619 M44,9.95238095 L45.3809524,8 M18.6666667,54.1904762 L19.7142857,52.047619 M40.2857143,7.85714286 L41.3333333,5.66666667 M23.047619,55.8095238 L23.6666667,53.4761905 M36.3333333,6.38095238 L36.952381,4.0952381 M27.6666667,56.6190476 L27.8571429,54.2380952 M32.1428571,5.66666667 L32.3333333,3.28571429" id="Shape" stroke="#FFFFFF" sketch:type="MSShapeGroup"></path>
                <path d="M50.3333333,9.52380952 L27.4761905,27.4761905 L29.952381,29.952381 L50.3333333,9.52380952 Z" id="Shape" fill="#FF0000" sketch:type="MSShapeGroup"></path>
                <path d="M29.952381,29.952381 L32.8095238,32.8095238 L50.3333333,9.52380952 L29.952381,29.952381 Z" id="Shape" fill="#D01414" sketch:type="MSShapeGroup"></path>
                <path d="M27.4761905,27.4761905 L9.52380952,50.3333333 L29.952381,29.952381 L27.4761905,27.4761905 Z" id="Shape" fill="#FFFFFF" sketch:type="MSShapeGroup"></path>
                <path d="M9.52380952,50.3333333 L32.8095238,32.8095238 L29.952381,29.952381 L9.52380952,50.3333333 Z" id="Shape" fill="#ACACAC" sketch:type="MSShapeGroup"></path>
            </g>
        </g>
    </g>
</svg>