<?xml version="1.0" encoding="UTF-8" standalone="no"?>
<svg width="64px" height="64px" viewBox="0 0 64 64" version="1.1" xmlns="http://www.w3.org/2000/svg" xmlns:xlink="http://www.w3.org/1999/xlink" xmlns:sketch="http://www.bohemiancoding.com/sketch/ns">
    <!-- Generator: Sketch 3.4.2 (15857) - http://www.bohemiancoding.com/sketch -->
    <title>icons/skills/id-60</title>
    <desc>Created with Sketch.</desc>
    <defs></defs>
    <g id="Brands" stroke="none" stroke-width="1" fill="none" fill-rule="evenodd" sketch:type="MSPage">
        <g id="icons/skills/id-60" sketch:type="MSArtboardGroup">
            <g id="Group" sketch:type="MSLayerGroup" transform="translate(2.000000, 2.000000)">
                <path d="M54.952381,46.1428571 C53.8095238,45.9047619 52.5714286,45.7142857 51.3809524,45.7142857 C49.2857143,45.7142857 47.3809524,46.0952381 45.952381,46.6666667 C45.8095238,46.7619048 45.6666667,46.9047619 45.6666667,47.0952381 C45.6666667,47.1428571 45.6666667,47.2380952 45.7142857,47.2857143 C45.8571429,47.7619048 45.6190476,48.2857143 44.2380952,48.5714286 C42.1904762,49 40.952381,51.0952381 40.1904762,51.8095238 C39.3333333,52.6190476 36.9047619,53.1428571 37.2857143,52.6190476 C37.5714286,52.2380952 38.6666667,51.047619 39.3333333,49.7619048 C39.952381,48.6190476 40.4761905,48.2857143 41.1904762,47.1904762 C41.4285714,46.8571429 42.2380952,45.7619048 42.4761905,44.8571429 C42.7619048,44 42.6666667,42.9047619 42.7619048,42.4285714 C42.9047619,41.7619048 43.5238095,40.3809524 43.5714286,39.5714286 C43.6190476,39.1428571 41.7142857,40.2380952 40.8095238,40.2380952 C39.9047619,40.2380952 39.047619,39.7142857 38.2380952,39.6666667 C37.2380952,39.6190476 36.6190476,40.4285714 35.7142857,40.2857143 C35.1904762,40.1904762 34.7619048,39.7619048 33.8571429,39.7142857 C32.5714286,39.6666667 31,40.4285714 28.047619,40.3333333 C25.1428571,40.2380952 22.4761905,36.6666667 22.0952381,36.0952381 C21.6666667,35.4285714 21.1428571,35.4285714 20.5714286,35.952381 C20,36.4761905 19.2857143,36.047619 19.0952381,35.7142857 C18.7142857,35.047619 17.7142857,33.0952381 16.1428571,32.7142857 C13.952381,32.1428571 12.8571429,33.9047619 13,35.3333333 C13.1428571,36.7619048 14.047619,37.1428571 14.4761905,37.9047619 C14.9047619,38.6666667 15.1428571,39.1428571 15.9047619,39.4761905 C16.4761905,39.7142857 16.6666667,40.047619 16.5238095,40.5238095 C16.3809524,40.952381 15.7619048,41.047619 15.3809524,41.047619 C14.5714286,41.0952381 13.952381,40.8571429 13.5714286,40.5714286 C13.0952381,40.2380952 12.6666667,39.8095238 12.2380952,39.0952381 C11.7619048,38.2857143 10.952381,37.9047619 10.047619,37.9047619 C9.61904762,37.9047619 9.19047619,38 8.85714286,38.1904762 C7.42857143,38.952381 5.71428571,39.3809524 3.9047619,39.3809524 L1.85714286,39.3809524 C5.80952381,51.1428571 16.952381,59.5714286 30.047619,59.5714286 C40.4761905,59.7142857 49.6666667,54.3333333 54.952381,46.1428571" id="Shape" fill="#FFFFFF" sketch:type="MSShapeGroup"></path>
                <path d="M54.952381,46.1428571 C53.8095238,45.8571429 52.5714286,45.7142857 51.3809524,45.7142857 C49.2857143,45.7142857 47.3809524,46.0952381 45.952381,46.6666667 C45.8095238,46.7619048 45.6666667,46.9047619 45.6666667,47.0952381 C45.6666667,47.1428571 45.6666667,47.2380952 45.7142857,47.2857143 C45.8571429,47.7619048 45.6190476,48.2857143 44.2380952,48.6190476 C42.1904762,49.047619 40.952381,51.1428571 40.1904762,51.8571429 C39.3333333,52.6666667 36.9047619,53.1904762 37.2857143,52.6666667 C37.5714286,52.2857143 38.6666667,51.0952381 39.3333333,49.8095238 C39.952381,48.6666667 40.4761905,48.3333333 41.1904762,47.2380952 C41.4285714,46.9047619 42.2380952,45.8095238 42.4761905,44.9047619 C42.7619048,44.047619 42.6666667,42.952381 42.7619048,42.4761905 C42.9047619,41.8095238 43.5238095,40.4285714 43.5714286,39.6190476 C43.6190476,39.1904762 41.7142857,40.2380952 40.8095238,40.2380952 C39.9047619,40.2380952 39.047619,39.7142857 38.2380952,39.6666667 C37.2380952,39.6190476 36.6190476,40.4285714 35.7142857,40.2857143 C35.1904762,40.1904762 34.7619048,39.7619048 33.8571429,39.7142857 C32.5714286,39.6666667 31,40.4285714 28.047619,40.3333333 C25.1428571,40.2380952 22.4761905,36.6666667 22.0952381,36.0952381 C21.6666667,35.4285714 21.1428571,35.4285714 20.5714286,35.952381 C20,36.4761905 19.2857143,36.047619 19.0952381,35.7142857 C18.7142857,35.047619 17.7142857,33.0952381 16.1428571,32.7142857 C13.952381,32.1428571 12.8571429,33.9047619 13,35.3333333 C13.1428571,36.7619048 14.047619,37.1428571 14.4761905,37.9047619 C14.9047619,38.6666667 15.1428571,39.1428571 15.9047619,39.4761905 C16.4761905,39.7142857 16.6666667,40.047619 16.5238095,40.5238095 C16.3809524,40.952381 15.7619048,41.047619 15.3809524,41.047619 C14.5714286,41.0952381 13.952381,40.8571429 13.5714286,40.5714286 C13.0952381,40.2380952 12.6666667,39.8095238 12.2380952,39.0952381 C11.7619048,38.2857143 10.952381,37.9047619 10.047619,37.9047619 C9.61904762,37.9047619 9.19047619,38 8.85714286,38.1904762 C7.42857143,38.952381 5.71428571,39.3809524 3.9047619,39.3809524 L1.80952381,39.3809524 C0.80952381,36.5238095 0.285714286,33.3333333 0.285714286,30 C0.285714286,13.5714286 13.5714286,0.285714286 30,0.285714286 C46.4285714,0.285714286 59.7142857,13.5714286 59.7142857,30 C59.7142857,35.952381 57.952381,41.4761905 54.952381,46.1428571 M36.5238095,43.4285714 C36.6666667,43.5714286 36.952381,44.0952381 36.6190476,44.7142857 C36.4285714,45.047619 36.2380952,45.2857143 35.9047619,45.5714286 C35.4761905,45.9047619 34.6666667,46.2857143 33.5714286,45.5714286 C32.952381,45.1904762 32.952381,45.047619 32.0952381,45.1904762 C31.5238095,45.2857143 31.2857143,44.6666667 31.4761905,44.1904762 C31.7142857,43.7142857 32.5714286,43.2857143 33.6666667,43.952381 C34.1428571,44.2380952 34.9047619,44.8571429 35.5714286,44.2857143 C35.8571429,44.047619 36,43.9047619 36.3809524,43.4761905 L36.4285714,43.4285714 C36.5238095,43.3809524 36.5238095,43.4285714 36.5238095,43.4285714" id="Shape" fill="#000000" sketch:type="MSShapeGroup"></path>
                <path d="M27.6666667,14.4285714 C24.2380952,14.6666667 23.8571429,15.047619 23.2380952,15.7142857 C22.3333333,16.6666667 21.1428571,14.4761905 21.1428571,14.4761905 C20.4285714,14.3333333 19.5714286,13.1904762 20.047619,12.0952381 C20.5238095,11.047619 21.3809524,11.3333333 21.6190476,11.6666667 C21.952381,12.047619 22.6190476,12.7142857 23.5238095,12.7142857 C24.4285714,12.6666667 25.4761905,12.5238095 26.9047619,12.5238095 C28.3809524,12.5238095 29.3809524,13.047619 29.4285714,13.5238095 C29.4761905,13.952381 29.3333333,14.3333333 27.6666667,14.4285714 M31.2857143,8.76190476 C31.2380952,8.76190476 31.1904762,8.71428571 31.1904762,8.66666667 C31.1904762,8.61904762 31.1904762,8.61904762 31.2380952,8.57142857 C31.9047619,8.23809524 32.9047619,7.95238095 34.047619,7.80952381 C34.3809524,7.76190476 34.7142857,7.76190476 35.047619,7.76190476 L35.2380952,7.76190476 C37.1428571,7.80952381 38.6666667,8.57142857 38.6666667,9.47619048 C38.6190476,10.3809524 37.0952381,11.047619 35.1904762,11 C34.5714286,11 34,10.9047619 33.4761905,10.7619048 C33.4285714,10.7619048 33.3809524,10.7142857 33.3809524,10.6190476 C33.3809524,10.5714286 33.4285714,10.5238095 33.4761905,10.4761905 C34.6666667,10.1904762 35.4761905,9.76190476 35.4285714,9.33333333 C35.3333333,8.76190476 33.8095238,8.47619048 31.952381,8.66666667 C31.6666667,8.71428571 31.4761905,8.76190476 31.2857143,8.76190476 M46.7619048,22.0952381 C46.4761905,23.0952381 46.047619,24.3333333 44.1904762,25.2857143 C43.9047619,25.4285714 43.8095238,25.1904762 43.952381,25 C44.6666667,23.8095238 44.7619048,23.5238095 45,23.047619 C45.2857143,22.3809524 45.4285714,21.3809524 44.8571429,19.3333333 C43.7619048,15.3333333 41.4285714,9.95238095 39.7142857,8.19047619 C38.0952381,6.52380952 35.0952381,6.04761905 32.4285714,6.71428571 C31.4285714,6.95238095 29.5238095,7.95238095 25.952381,7.14285714 C19.7619048,5.76190476 18.8571429,8.85714286 18.4761905,10.1904762 C18.0952381,11.5238095 17.2857143,15.3809524 17.2857143,15.3809524 C17,16.952381 16.6190476,19.6666667 26.2380952,21.4761905 C30.7142857,22.3333333 30.952381,23.4761905 31.1428571,24.3333333 C31.4761905,25.8095238 32.047619,26.6666667 32.7142857,27.0952381 C33.3333333,27.5238095 32.7142857,27.8571429 32,27.952381 C30.0952381,28.1428571 23.047619,26.1428571 18.8571429,23.7619048 C15.4285714,21.6666667 15.3809524,19.8095238 16.1904762,18.1904762 C11.047619,17.6190476 7.14285714,18.6666667 6.47619048,21.0952381 C5.23809524,25.3809524 15.6190476,32.5238095 27.4761905,36.0952381 C39.9047619,39.8571429 52.7142857,37.2380952 54.1428571,29.4285714 C54.8095238,25.8571429 51.8095238,23.2380952 46.7619048,22.0952381" id="Shape" fill="#E93442" sketch:type="MSShapeGroup"></path>
            </g>
        </g>
    </g>
</svg>