<?xml version="1.0" encoding="UTF-8" standalone="no"?>
<svg width="64px" height="64px" viewBox="0 0 64 64" version="1.1" xmlns="http://www.w3.org/2000/svg" xmlns:xlink="http://www.w3.org/1999/xlink" xmlns:sketch="http://www.bohemiancoding.com/sketch/ns">
    <!-- Generator: Sketch 3.4.2 (15857) - http://www.bohemiancoding.com/sketch -->
    <title>icons/skills/id-73</title>
    <desc>Created with Sketch.</desc>
    <defs></defs>
    <g id="Frameworks" stroke="none" stroke-width="1" fill="none" fill-rule="evenodd" sketch:type="MSPage">
        <g id="icons/skills/id-73" sketch:type="MSArtboardGroup" fill="#68B604">
            <path d="M26.9891645,40.5016754 C23.0127499,40.5156582 19.0363353,40.5701428 15.0599207,40.5701428 L14.4875909,40.5701428 C19.982343,32.8555031 25.4004309,25.5526323 30.8566098,18.0737712 C30.6714585,18.0617171 30.5827401,18.0207331 30.4930574,18.0207331 C21.8859303,18.0197688 13.2792854,18.0062681 4.67215833,18 C4.36984089,18 4.26617542,18.0703961 4.26858624,18.3891071 C4.28353335,20.1678138 4.27630088,21.9431452 4.27630088,23.7218518 C4.27630088,24.2290894 4.27678304,24.2281251 4.79028875,24.2281251 C9.1461672,24.2281251 13.5020456,24.2271607 17.8579241,24.2286072 C18.0290927,24.2286072 18.2012256,24.251269 18.4640055,24.2705556 C12.9480381,31.7961866 7.49137698,39.2408139 2,46.7331756 L2.28158435,46.7486049 C10.5487851,46.749087 18.8155037,46.7471584 27.0827045,46.7568017 C27.4207022,46.7572839 27.4655435,46.6213133 27.464097,46.3392468 C27.4554181,44.5345033 27.4496321,42.7591718 27.4684365,40.9544283 C27.4718117,40.5793039 27.3686284,40.5002289 26.9891645,40.5016754 L26.9891645,40.5016754 Z M61.529053,18.3818747 C53.7314809,18.3823568 45.9339088,18.3717492 38.1358546,18.3968218 C37.2713328,18.3992326 36.3841492,18.511577 35.5466286,18.7266226 C32.537437,19.4995331 30.1290229,22.7657187 30.2471533,25.8891834 C30.2596896,26.2320027 30.4597881,26.1051933 30.6661547,26.1051933 L42.6373468,26.1051933 C44.6523143,26.1051933 46.6667996,26.1924652 48.6817671,26.1804111 C50.8780285,26.1669105 53.0786295,26.2556288 55.2686229,26.1254443 C57.5362448,25.9909202 59.3472565,24.9402827 60.5975103,23.0024617 C61.4374417,21.6996519 61.809673,20.2526748 61.99386,18.7333729 C62.0440052,18.3177467 61.7778501,18.3818747 61.529053,18.3818747 L61.529053,18.3818747 Z M49.6325964,28.5719494 C45.6836652,28.5705029 41.734734,28.5680921 37.7858028,28.5733959 C36.5133694,28.5748424 35.2881882,28.8226752 34.1676368,29.4364712 C31.5620172,30.8646439 30.5605605,33.2557 30.2529393,36.0532213 C30.2129196,36.4225596 30.436162,36.4124342 30.6892986,36.411952 C32.768394,36.4085768 34.8470072,36.4100233 36.9265848,36.4100233 C37.6324743,36.4105055 38.338846,36.4201488 39.0447356,36.4080947 C40.5987533,36.3820578 42.16145,36.4413641 43.7024493,36.2889999 C45.7068091,36.090348 47.3360446,35.1139639 48.494687,33.4360297 C49.4054967,32.1168263 49.8611426,30.6336869 50.0197749,29.0468819 C50.0660627,28.5815927 50.084385,28.5719494 49.6325964,28.5719494 L49.6325964,28.5719494 Z M41.7207512,38.7171828 C40.5187139,38.7248974 39.3157123,38.7056108 38.113675,38.7273082 C37.5558101,38.7374337 36.9936057,38.7846859 36.442009,38.8714756 C32.1232572,39.5445779 30.5113797,43.1588866 30.2534214,46.2423317 C30.2297954,46.51813 30.3291213,46.6097414 30.6049197,46.6039554 C31.3233455,46.5890083 32.0422535,46.5986516 32.7616437,46.5986516 L32.7635723,46.6381891 C33.7404386,46.5952764 34.7274303,46.6208312 35.6941711,46.4964326 C39.3253556,46.0287326 42.0973221,42.7529037 42.0698387,39.0411976 C42.0664635,38.7644349 41.9589407,38.7157363 41.7207512,38.7171828 L41.7207512,38.7171828 Z" id="Shape" sketch:type="MSShapeGroup"></path>
        </g>
    </g>
</svg>