<?xml version="1.0" encoding="UTF-8" standalone="no"?>
<svg width="64px" height="64px" viewBox="0 0 64 64" version="1.1" xmlns="http://www.w3.org/2000/svg" xmlns:xlink="http://www.w3.org/1999/xlink">
    <defs></defs>
    <g id="Skills---Data" stroke="none" stroke-width="1" fill="none" fill-rule="evenodd">
        <g id="icons/skills/id-data">
            <rect id="Rectangle-7" fill="#F18C00" x="9" y="9" width="50" height="50" rx="4"></rect>
            <rect id="Rectangle-7" fill="#FC9A00" x="5" y="5" width="50" height="50" rx="4"></rect>
            <g id="Group" transform="translate(15.000000, 14.000000)" stroke="#FFFFFF" stroke-width="2" stroke-linecap="round" stroke-linejoin="round">
                <path d="M9.05365333,3.0476192 C9.05365333,1.36457173 10.404912,0 12.0715392,0 C13.7381675,0 15.0894261,1.36457173 15.0894261,3.0476192 C15.0894261,4.73066667 13.7381675,6.0952384 12.0715392,6.0952384 C10.404912,6.0952384 9.05365333,4.73066667 9.05365333,3.0476192 L9.05365333,3.0476192 L9.05365333,3.0476192 Z" id="Stroke-43"></path>
                <path d="M24.8976,9.14287253 C24.8976,7.45982507 26.2488587,6.09525333 27.9154859,6.09525333 C29.5821141,6.09525333 30.9333728,7.45982507 30.9333728,9.14287253 C30.9333728,10.82592 29.5821141,12.1904917 27.9154859,12.1904917 C26.2488587,12.1904917 24.8976,10.82592 24.8976,9.14287253 L24.8976,9.14287253 L24.8976,9.14287253 Z" id="Stroke-45"></path>
                <path d="M0,19.4291659 C0,17.7461184 1.35125867,16.3815467 3.01788587,16.3815467 C4.68451413,16.3815467 6.0357728,17.7461184 6.0357728,19.4291659 C6.0357728,21.1122133 4.68451413,22.4767851 3.01788587,22.4767851 C1.35125867,22.4767851 0,21.1122133 0,19.4291659 L0,19.4291659 L0,19.4291659 Z" id="Stroke-47"></path>
                <path d="M12.8256,28.5719925 C12.8256,26.8889451 14.1768587,25.5243733 15.8434859,25.5243733 C17.5101141,25.5243733 18.8613728,26.8889451 18.8613728,28.5719925 C18.8613728,30.25504 17.5101141,31.6196117 15.8434859,31.6196117 C14.1768587,31.6196117 12.8256,30.25504 12.8256,28.5719925 L12.8256,28.5719925 L12.8256,28.5719925 Z" id="Stroke-49"></path>
                <path d="M24.8976,22.4768459 C24.8976,20.7937984 26.2488587,19.4292267 27.9154859,19.4292267 C29.5821141,19.4292267 30.9333728,20.7937984 30.9333728,22.4768459 C30.9333728,24.1598933 29.5821141,25.5244651 27.9154859,25.5244651 C26.2488587,25.5244651 24.8976,24.1598933 24.8976,22.4768459 L24.8976,22.4768459 L24.8976,22.4768459 Z" id="Stroke-51"></path>
                <path d="M4.90410667,16.2853941 L10.7512608,5.99968" id="Stroke-53"></path>
                <path d="M27,19.3329824 L27,12.47584" id="Stroke-55"></path>
                <path d="M15.6553259,25.428224 L12.63744,6.47584" id="Stroke-57"></path>
                <path d="M25.6520213,20.2853333 L14.24064,5.61866667" id="Stroke-59"></path>
                <path d="M18.9560533,27.5234891 L25.1804437,23.99968" id="Stroke-61"></path>
                <path d="M6.31872,18.3806325 L25.180512,10.6663467" id="Stroke-63"></path>
            </g>
        </g>
    </g>
</svg>