<?xml version="1.0" encoding="UTF-8" standalone="no"?>
<svg width="64px" height="64px" viewBox="0 0 64 64" version="1.1" xmlns="http://www.w3.org/2000/svg" xmlns:xlink="http://www.w3.org/1999/xlink">
    <defs></defs>
    <g id="Skills---Design" stroke="none" stroke-width="1" fill="none" fill-rule="evenodd">
        <g id="icons/skills/id-design">
            <rect id="Rectangle-7" fill="#2184AC" x="9" y="9" width="50" height="50" rx="4"></rect>
            <rect id="Rectangle-7" fill="#21B2F1" x="5" y="5" width="50" height="50" rx="4"></rect>
            <g id="Group" transform="translate(14.000000, 15.000000)" stroke="#FFFFFF" stroke-width="2" stroke-linecap="round" stroke-linejoin="round">
                <path d="M10.3686786,15.8218745 L24.5918545,1.65382464 C26.114512,0.131173006 28.5820616,0.131173006 30.1047191,1.65382464 C31.6273667,3.17647718 31.6273667,5.64403273 30.1047191,7.16668526 L15.8815392,21.3347391 L10.3686786,15.8218745 Z" id="Stroke-79"></path>
                <path d="M9.99872176,21.8791935 C8.32501708,20.2054899 5.62481828,20.1933616 3.96765251,21.8505265 C2.90918303,22.908996 2.76695157,24.2232614 2.77907964,25.3225259 C2.79120771,26.4085599 2.01499722,27.4008748 0.117470968,27.4328491 C2.78238802,30.0966627 7.42311305,30.5145374 10.0273887,27.9102627 C11.7826875,26.1549679 11.5235743,23.4040509 9.99872176,21.8791935 L9.99872176,21.8791935 L9.99872176,21.8791935 Z" id="Stroke-81"></path>
                <path d="M11.9826592,3.30768303 L8.67494343,6.6153988" id="Stroke-83"></path>
                <path d="M27.4186126,18.7437356 L24.1108968,22.0514514" id="Stroke-85"></path>
                <path d="M18.7200472,25.4810591 C19.1396862,25.9006972 19.6825154,26.4435261 20.2400443,27.0010552 C21.5816659,28.3426748 23.0083913,29.7694052 23.0083913,29.7694052 L30.7263918,22.0513948 C30.7263918,22.0513948 26.0357653,17.0321963 25.8217865,16.8096148" id="Stroke-87"></path>
                <path d="M13.9877077,5.29910905 L8.67492061,0 L0.956917138,7.71800446 C0.956917138,7.71800446 2.67111918,9.4322075 5.12122785,11.8823152" id="Stroke-89"></path>
            </g>
        </g>
    </g>
</svg>