<?xml version="1.0" standalone="no"?>
<!DOCTYPE svg PUBLIC "-//W3C//DTD SVG 1.1//EN" "http://www.w3.org/Graphics/SVG/1.1/DTD/svg11.dtd" >
<svg xmlns="http://www.w3.org/2000/svg">
<metadata></metadata>
<defs>
<font id="merriweather_sansregular" horiz-adv-x="0" >
<font-face units-per-em="2048" ascent="1638" descent="-410" />
<missing-glyph horiz-adv-x="655" />
<glyph unicode="&#xfb01;" horiz-adv-x="1417" d="M75 974v122l173 44v99q0 98 25.5 176.5t66.5 127t96.5 81t111 45.5t113.5 13q84 0 142 -22v-174q-59 20 -172 20q-74 0 -118.5 -56t-44.5 -161v-149h282v-166h-282v-974h-220v974h-173zM966 1482q0 63 50.5 109.5t111.5 46.5q68 0 104.5 -38t36.5 -97q0 -67 -49 -111.5 t-113 -44.5q-58 0 -99.5 37.5t-41.5 97.5zM1004 0v1138h220v-1138h-220z" />
<glyph unicode="&#xfb02;" horiz-adv-x="1424" d="M75 974v122l173 44v99q0 98 25.5 176.5t66.5 127t96.5 81t111 45.5t113.5 13q84 0 142 -22v-174q-59 20 -172 20q-74 0 -118.5 -56t-44.5 -161v-149h282v-166h-282v-974h-220v974h-173zM1008 0v1664h220v-1664h-220z" />
<glyph unicode="&#xfb03;" horiz-adv-x="2228" d="M75 974v122l173 44v99q0 98 25.5 176.5t66.5 127t96.5 81t111 45.5t113.5 13q84 0 142 -22v-174q-59 20 -172 20q-74 0 -118.5 -56t-44.5 -161v-149h282v-166h-282v-974h-220v974h-173zM886 974v122l173 44v99q0 98 25.5 176.5t66.5 127t96.5 81t111 45.5t113.5 13 q84 0 142 -22v-174q-59 20 -172 20q-74 0 -118.5 -56t-44.5 -161v-149h282v-166h-282v-974h-220v974h-173zM1777 1482q0 63 50.5 109.5t111.5 46.5q68 0 104.5 -38t36.5 -97q0 -67 -49 -111.5t-113 -44.5q-58 0 -99.5 37.5t-41.5 97.5zM1815 0v1138h220v-1138h-220z" />
<glyph unicode="&#xfb04;" horiz-adv-x="2235" d="M75 974v122l173 44v99q0 98 25.5 176.5t66.5 127t96.5 81t111 45.5t113.5 13q84 0 142 -22v-174q-59 20 -172 20q-74 0 -118.5 -56t-44.5 -161v-149h282v-166h-282v-974h-220v974h-173zM886 974v122l173 44v99q0 98 25.5 176.5t66.5 127t96.5 81t111 45.5t113.5 13 q84 0 142 -22v-174q-59 20 -172 20q-74 0 -118.5 -56t-44.5 -161v-149h282v-166h-282v-974h-220v974h-173zM1819 0v1664h220v-1664h-220z" />
<glyph />
<glyph horiz-adv-x="682" />
<glyph />
<glyph />
<glyph />
<glyph />
<glyph />
<glyph />
<glyph />
<glyph unicode="&#x9;" />
<glyph unicode="&#xa;" />
<glyph />
<glyph />
<glyph />
<glyph />
<glyph />
<glyph />
<glyph />
<glyph />
<glyph />
<glyph />
<glyph />
<glyph />
<glyph unicode=" "  horiz-adv-x="655" />
<glyph unicode="&#x09;" horiz-adv-x="655" />
<glyph unicode="&#xa0;" horiz-adv-x="655" />
<glyph unicode="!" horiz-adv-x="602" d="M147 130q-2 70 47.5 122t112.5 52q69 0 107.5 -43t40.5 -108q1 -73 -47.5 -124t-114.5 -51q-59 0 -102 43.5t-44 108.5zM182 1780h248l-24 -1274h-196z" />
<glyph unicode="&#x22;" horiz-adv-x="1284" d="M265 1685h242l-32 -719h-177zM776 1685h242l-32 -719h-177z" />
<glyph unicode="#" horiz-adv-x="1563" d="M207 355v156h216l33 369h-215v153h229l31 340h191l-32 -340h307l30 340h190l-31 -340h222v-153h-236l-34 -369h226v-156h-241l-32 -355h-185l31 355h-310l-33 -355h-187l32 355h-202zM611 511h310l32 369h-307z" />
<glyph unicode="$" horiz-adv-x="1372" d="M232 1147q0 90 32.5 161t90 116t127 71t151.5 36l2 231h163l-2 -226q191 -10 296 -77l-45 -176q-65 39 -133 59.5t-179 20.5q-76 0 -139.5 -18.5t-107 -62t-43.5 -105.5q0 -37 6.5 -66.5t24 -56.5t38 -47.5t59.5 -46t76 -46t99 -52.5q74 -38 121 -65t110 -73t100 -89.5 t63.5 -105.5t26.5 -131q0 -182 -110 -285.5t-302 -123.5l-2 -226h-163l2 223q-118 7 -218 32.5t-141 52.5l53 183q61 -38 161 -65.5t198 -27.5q303 0 303 211q0 32 -8.5 60t-20 50t-37.5 45.5t-48 40t-63.5 40t-72.5 39t-87 42.5q-381 185 -381 458z" />
<glyph unicode="%" horiz-adv-x="1962" d="M75 1075q0 97 31.5 177.5t85 132t122 80.5t144.5 31q176 4 265 -112t89 -301q0 -191 -112 -302.5t-271 -115.5q-109 -2 -191 55t-122.5 149.5t-40.5 205.5zM270 1083q0 -119 46 -195t126 -76q83 0 129 70t46 194q0 125 -45.5 199.5t-125.5 74.5q-84 0 -130 -71.5 t-46 -195.5zM557 0l650 1530h190l-650 -1530h-190zM1150 460q0 97 31.5 177.5t85 132t122.5 80.5t145 31q175 4 264 -112t89 -301q0 -191 -112 -302t-271 -115q-108 -2 -190 54.5t-123 149t-41 205.5zM1346 468q0 -120 45.5 -195.5t125.5 -75.5q84 0 129.5 70t45.5 194 q0 126 -45 200.5t-126 74.5q-84 0 -129.5 -71.5t-45.5 -196.5z" />
<glyph unicode="&#x26;" horiz-adv-x="1532" d="M147 394q0 249 311 393q-79 105 -124 199t-45 202q0 166 112 262t302 96q169 0 271.5 -102t102.5 -242q0 -91 -22.5 -164t-68 -129t-105 -98.5t-143.5 -81.5q194 -270 343 -434q82 85 82 228q0 89 -33 205h192q29 -102 29 -206q0 -218 -138 -342q83 -54 216 -68v-113 q-51 -15 -117 -15q-134 0 -250 78q-151 -78 -310 -78q-181 0 -315.5 45t-212 138.5t-77.5 226.5zM354 400q0 -51 20.5 -95t64 -81.5t120.5 -59t180 -21.5q91 0 187 40q-145 162 -370 475q-202 -106 -202 -258zM493 1193q0 -31 2 -56t10.5 -50t14 -40t23 -43t26 -40.5t36 -50 t40.5 -55.5q122 53 183.5 132.5t61.5 208.5q0 70 -51 130.5t-140 60.5q-90 0 -148 -48t-58 -149z" />
<glyph unicode="'" horiz-adv-x="772" d="M265 1685h242l-32 -719h-177z" />
<glyph unicode="(" horiz-adv-x="846" d="M120 723q0 137 26.5 269.5t69 236t93 193.5t102 153t91 102t65.5 53l151 -74q-23 -18 -53 -50t-74.5 -88t-86 -135t-79.5 -174t-62.5 -222t-28.5 -264q-5 -168 24.5 -322t74.5 -258t103.5 -192.5t102 -133.5t79.5 -72l-151 -75q-22 14 -51.5 40t-74 75.5t-86.5 109.5 t-85.5 148t-76 185.5t-53 226.5t-20.5 268z" />
<glyph unicode=")" horiz-adv-x="846" d="M128 -229q23 18 53 50t74.5 88t86 135t79.5 174t62.5 222t28.5 264q5 168 -24.5 322t-74.5 258t-103.5 192.5t-102 133.5t-79.5 72l151 75q22 -14 51.5 -40t74 -75.5t86.5 -109.5t85.5 -148t76 -185.5t53 -226.5t20.5 -268q0 -137 -26.5 -269.5t-69 -236t-93 -193.5 t-102 -153t-91 -102t-65.5 -53z" />
<glyph unicode="*" horiz-adv-x="1208" d="M117 1321l93 165l220 -145l129 -113q0 11 -39 167l-19 265h192l-13 -262l-34 -168q7 7 64 61t61 57l220 146l95 -163l-232 -121l-164 -55l165 -49l236 -115l-97 -170l-217 144l-131 113l39 -168l21 -262l-192 -1l12 263l35 170l-126 -121l-218 -146l-96 164l231 124 l165 53q-4 2 -80.5 24.5t-85.5 24.5z" />
<glyph unicode="+" horiz-adv-x="1393" d="M229 685v177h220l165 -11l-7 172v228h178v-228l-8 -172l141 11h246v-177h-246l-141 7l8 -171v-236h-178v236l7 171l-165 -7h-220z" />
<glyph unicode="," horiz-adv-x="602" d="M151 -382q56 28 93.5 100.5t37.5 157.5q0 65 -38 130.5t-84 70.5v63l139 131q96 -36 143.5 -130t47.5 -195q0 -159 -77 -282t-188 -164l-74 92v26z" />
<glyph unicode="-" horiz-adv-x="1350" d="M250 683v177h850v-177h-850z" />
<glyph unicode="." horiz-adv-x="602" d="M147 130q-1 70 48.5 122t112.5 52q68 0 106.5 -43.5t40.5 -107.5q2 -73 -47 -124t-115 -51q-58 0 -101 43.5t-45 108.5z" />
<glyph unicode="/" horiz-adv-x="854" d="M42 -363l570 1962h198l-570 -1962h-198z" />
<glyph unicode="0" horiz-adv-x="1386" d="M148 643q4 286 162 458.5t401 172.5q118 0 209.5 -32.5t151 -89.5t98 -138.5t54 -173.5t14.5 -202q-1 -191 -70 -339.5t-194.5 -231.5t-287.5 -83q-115 0 -207.5 36t-154 97.5t-102 146t-58 179t-16.5 200.5zM375 652q0 -100 19.5 -190t57 -163t100 -117t142.5 -46 q157 -4 237 126t80 367q0 141 -31.5 248.5t-103.5 175t-178 67.5q-157 1 -240 -123.5t-83 -344.5z" />
<glyph unicode="1" horiz-adv-x="918" d="M130 1077q91 27 211 93t166 108l100 -25v-1253h-229v999q-132 -36 -223 -53z" />
<glyph unicode="2" horiz-adv-x="1269" d="M147 113q134 78 251.5 167t217.5 190t158 211t58 211q0 104 -61 164.5t-176 60.5q-95 0 -186.5 -41t-149.5 -101l-93 124q71 78 186.5 135.5t266.5 57.5q120 0 207.5 -31.5t136 -87t71 -122.5t22.5 -147q0 -190 -147.5 -384t-398.5 -349l615 6v-177h-945z" />
<glyph unicode="3" horiz-adv-x="1147" d="M104 1132q72 59 186.5 108t232.5 49q119 0 215.5 -39t157.5 -121.5t61 -197.5q0 -123 -76 -221t-199 -156q110 -13 192.5 -68t123 -132t40.5 -165q0 -106 -47 -201.5t-132.5 -168.5t-215 -116t-284.5 -42q-94 0 -206 20l-1 152q85 -17 164 -17q219 0 358.5 102.5 t139.5 254.5q0 137 -88 212t-269 61l-91 -22l-46 151q102 20 182 55q112 44 174.5 115.5t63.5 158.5q1 108 -64 159.5t-172 51.5q-162 0 -314 -108z" />
<glyph unicode="4" horiz-adv-x="1339" d="M116 104l584 1195h79l136 -84l-466 -894l-89 -151h460l18 433h202v-433h231v-170h-231v-376h-220v376h-650z" />
<glyph unicode="5" horiz-adv-x="1227" d="M204 -336l1 148q42 -2 63 -2q256 -1 422 116t166 297q0 153 -78.5 228.5t-247.5 75.5q-118 0 -270 -48l-50 30l56 743h771l-22 -190h-578l-39 -400q131 29 229 29q218 0 335.5 -121.5t117.5 -332.5q0 -86 -30.5 -169.5t-93.5 -158t-151 -131.5t-211 -91t-266 -36 q-83 0 -124 13z" />
<glyph unicode="6" horiz-adv-x="1373" d="M160 571q0 131 35 256.5t95.5 228t141.5 191.5t173.5 154.5t190.5 109.5t193 62l60 -142q-184 -49 -332.5 -169t-230.5 -276t-87 -317q-15 -532 304 -532q90 0 156 53t96 133t30 174q0 172 -63.5 246t-161.5 74q-103 0 -176 -46l-60 130q34 32 110 59.5t171 27.5 q124 0 217.5 -62t139.5 -162t46 -221q0 -87 -20.5 -168t-64 -152.5t-105.5 -124.5t-150.5 -83.5t-193.5 -30.5q-118 0 -216.5 47t-162.5 127.5t-99.5 187t-35.5 225.5z" />
<glyph unicode="7" horiz-adv-x="1241" d="M150 1093l1 178h949l46 -58l-571 -1548l-235 68q266 566 564 1358z" />
<glyph unicode="8" horiz-adv-x="1307" d="M152 385q0 120 75.5 230.5t233.5 188.5q-118 74 -184 166t-66 224q0 119 64 204.5t167.5 126t232.5 40.5q197 0 319 -96.5t122 -252.5q0 -118 -70.5 -232t-209.5 -182q61 -35 103.5 -62.5t90.5 -67t77.5 -78t49 -89t20.5 -105.5q1 -101 -39 -182t-110 -131t-160 -76.5 t-193 -26.5q-79 0 -152 13.5t-141 44t-118.5 76t-81 114.5t-30.5 153zM363 402q0 -127 79.5 -195.5t240.5 -68.5q111 0 193.5 64t82.5 171q0 34 -10 65t-25 56.5t-41 51t-51.5 44.5t-62.5 41.5t-67 39t-73 39.5l-7 3.5l-7 3.5t-7 4q-110 -45 -177.5 -130.5t-67.5 -188.5z M414 1207q0 -52 21 -98t62.5 -86t85.5 -71t108 -68q107 37 164 121.5t59 181.5q5 102 -62 163.5t-184 61.5q-110 0 -182 -55.5t-72 -149.5z" />
<glyph unicode="9" horiz-adv-x="1399" d="M176 725q0 248 142 397.5t391 149.5q122 0 220 -47t160 -128.5t94.5 -187t32.5 -225.5q0 -167 -52 -324.5t-139 -280.5t-198 -222t-230.5 -161t-235.5 -86l-74 136q149 37 280.5 131t219 212.5t139 248t54.5 245.5q16 532 -304 532q-121 0 -200 -96.5t-79 -219.5 q0 -180 68 -276t178 -96q16 0 30 0.5t26.5 2.5t22 3t20.5 4.5t17 5t16 5.5t13.5 5.5t14 6.5t12.5 6l52 -124q-30 -34 -102.5 -60t-179.5 -26q-95 0 -173.5 39t-129.5 104.5t-78.5 149.5t-27.5 176z" />
<glyph unicode=":" horiz-adv-x="602" d="M147 130q-1 70 48.5 122t112.5 52q68 0 106.5 -43.5t40.5 -107.5q2 -73 -47 -124t-115 -51q-58 0 -101 43.5t-45 108.5zM147 926q-1 70 48.5 122t112.5 52q68 0 106.5 -43.5t40.5 -107.5q2 -73 -47 -124t-115 -51q-58 0 -101 43.5t-45 108.5z" />
<glyph unicode=";" horiz-adv-x="602" d="M147 926q-1 70 48.5 122t112.5 52q68 0 106.5 -43.5t40.5 -107.5q2 -73 -47 -124t-115 -51q-58 0 -101 43.5t-45 108.5zM151 -382q56 28 93.5 100.5t37.5 157.5q0 65 -38 130.5t-84 70.5v63l139 131q96 -36 143.5 -130t47.5 -195q0 -159 -77 -282t-188 -164l-74 92v26z " />
<glyph unicode="&#x3c;" horiz-adv-x="1368" d="M168 696v154l966 446v-205l-731 -318l731 -313v-208z" />
<glyph unicode="=" horiz-adv-x="1399" d="M242 433v166h915v-166h-915zM242 949v167h915v-167h-915z" />
<glyph unicode="&#x3e;" horiz-adv-x="1368" d="M234 252v208l731 313l-731 318v205l966 -446v-154z" />
<glyph unicode="?" horiz-adv-x="1047" d="M121 1637v160q19 14 83.5 28t132.5 14q101 0 187.5 -17t150 -47.5t114 -73.5t80 -94t47.5 -109t17 -119.5t-11 -124.5q-14 -82 -63 -148t-109 -108t-118 -79t-99.5 -79.5t-45.5 -90.5q-1 -15 -2 -29t0.5 -29t2 -25.5t4.5 -28t5.5 -25.5t7 -28t7.5 -27t9.5 -31.5 t9.5 -31.5h-167q-35 43 -60.5 117.5t-28.5 158.5q-2 44 19 85t56.5 73.5t79 63t89 59.5t84 58t66 63.5t34.5 70.5q48 194 -62.5 302.5t-338.5 108.5q-113 0 -181 -17zM333 126q-1 68 48 118.5t110 50.5q66 0 104 -42t40 -104q2 -71 -46 -121t-113 -50q-56 0 -98.5 42.5 t-44.5 105.5z" />
<glyph unicode="@" horiz-adv-x="2218" d="M213 424q0 249 80 459.5t219 354.5t330 224.5t410 80.5q224 0 393.5 -81.5t266 -243.5t96.5 -386q0 -192 -49 -353t-129.5 -265t-182 -161.5t-209.5 -57.5q-136 0 -150 187q-5 55 4 131q-75 -142 -170 -230t-203 -88q-113 0 -199.5 115.5t-82.5 324.5q2 86 23.5 172 t66 168.5t107.5 146t156.5 102.5t204.5 39q153 0 232 -55l172 31q-31 -117 -68 -291.5t-58 -310.5q-22 -136 -19 -209.5t36 -73.5q55 0 115.5 51t110.5 135t82.5 205.5t32.5 250.5q0 142 -32 248.5t-86 173t-135 107.5t-168.5 56.5t-196.5 15.5q-168 0 -319 -70.5 t-262.5 -194t-177 -302t-65.5 -385.5q0 -167 38.5 -300t104 -220.5t156.5 -146t191.5 -83.5t213.5 -25q242 0 410 84l39 -129q-67 -42 -198.5 -72.5t-270.5 -30.5q-146 0 -274.5 34.5t-236.5 107.5t-185.5 178t-120.5 254t-43 328zM825 475q-3 -91 10 -157t45.5 -106 t84.5 -40q65 0 152.5 119t153 276t81.5 272q-23 38 -74 56.5t-103 18.5q-105 0 -186 -68t-121 -166t-43 -205z" />
<glyph unicode="A" horiz-adv-x="1407" d="M21 0l582 1538h215l568 -1538h-241l-130 385h-622l-136 -385h-236zM452 551h507l-204 609l-43 142l-44 -142z" />
<glyph unicode="B" horiz-adv-x="1339" d="M194 0v1523l104 -1q44 0 156.5 7.5t193.5 7.5q249 0 372.5 -95.5t123.5 -264.5q0 -118 -58 -220.5t-173 -133.5q138 -6 236 -115.5t98 -251.5q0 -86 -18 -155t-62 -129t-113.5 -100t-176 -63t-245.5 -23q-128 0 -327 14h-111zM416 171q37 -23 242 -23q179 0 271 64.5 t92 217.5q0 142 -85.5 207.5t-267.5 65.5q-213 0 -252 -5v-527zM416 867q36 -5 82 -6q23 -1 51 -1q27 0 61 1q66 2 83 1q102 0 168.5 73.5t66.5 209.5q0 235 -321 235q-155 0 -191 -13v-500z" />
<glyph unicode="C" horiz-adv-x="1313" d="M95 753q0 148 37 275t103 219.5t154.5 158.5t192.5 99t217 33q65 0 123 -4.5t103 -12.5t74 -14t60.5 -15l38.5 -11l-32 -198q-70 36 -135 52q-94 22 -217 22q-231 0 -364.5 -159t-133.5 -430t134 -439.5t363 -168.5q114 0 223.5 28.5t150.5 64.5l1 -189 q-49 -20 -74 -28.5t-77 -23.5t-109 -21.5t-124 -6.5q-159 0 -291.5 55.5t-224.5 156t-142.5 243.5t-50.5 314z" />
<glyph unicode="D" horiz-adv-x="1472" d="M194 0v1522h112q45 0 169 8t191 8q361 0 541.5 -190t180.5 -544q0 -388 -200 -608q-194 -213 -525 -212h-21q-42 1 -172.5 8.5t-190.5 7.5h-85zM418 168q85 -19 231 -19h28q107 2 193 39t151 110t100 193t35 280q0 167 -34 284t-103.5 188t-168 102.5t-236.5 31.5 q-118 0 -196 -16v-1193z" />
<glyph unicode="E" horiz-adv-x="1217" d="M194 0v1522h876v-172h-653v-480h479v-172h-479v-523h726v-175h-949z" />
<glyph unicode="F" horiz-adv-x="1083" d="M194 0v1522h874v-172h-650v-499h487v-172h-487v-679h-224z" />
<glyph unicode="G" horiz-adv-x="1433" d="M99 753q0 191 54.5 342t151 247t223.5 146t276 50q80 0 146 -6.5t101 -13.5t90.5 -20.5t88.5 -19.5l-10 -200q-83 43 -179 64.5t-251 21.5q-203 0 -331.5 -157t-128.5 -427q0 -134 29 -246.5t85.5 -198t148 -133.5t208.5 -48q89 0 174.5 14.5t126.5 42.5v377l-277 13v160 h492v-667q-26 -2 -74 -19.5t-99 -37.5t-142.5 -36.5t-197.5 -16.5q-165 0 -299.5 58t-222.5 161.5t-135.5 244t-47.5 305.5z" />
<glyph unicode="H" horiz-adv-x="1552" d="M194 0v1522h223v-667h718v667h223v-1522h-223v683h-718v-683h-223z" />
<glyph unicode="I" horiz-adv-x="640" d="M207 0v1522h226v-1522h-226z" />
<glyph unicode="J" horiz-adv-x="713" d="M-42 -215q59 21 110.5 54.5t99.5 93t68 133.5q15 56 22.5 155.5t8.5 169t1 217.5v914h226v-909v-138q1 -56 1 -94.5t-1 -58.5q0 -41 -4.5 -112.5t-14.5 -123.5q-16 -93 -65 -171t-114.5 -127t-134 -79.5t-135.5 -40.5z" />
<glyph unicode="K" horiz-adv-x="1371" d="M194 0v1522h223v-764l603 764h263l-539 -656q34 -55 229 -344.5t264 -411.5l65 -110h-257q-9 14 -27 49t-34 64q-58 104 -209 332t-169 256l-189 -220v-481h-223z" />
<glyph unicode="L" horiz-adv-x="1080" d="M194 0v1522h228v-1347h604v-175h-832z" />
<glyph unicode="M" horiz-adv-x="1923" d="M134 -1l154 1523h315l282 -869l79 -323l75 323l270 869h299l182 -1522h-224l-93 946l-29 410l-102 -410l-318 -961h-120l-332 961l-112 409l-27 -409l-83 -946z" />
<glyph unicode="N" horiz-adv-x="1556" d="M193 0v1522h204l651 -1005l123 -226l-13 254v977h205v-1522h-207l-630 967l-140 249l12 -264v-952h-205z" />
<glyph unicode="O" horiz-adv-x="1569" d="M100 772q4 186 60.5 333.5t153 241t222.5 142.5t272 49q150 0 274.5 -55.5t211.5 -155.5q86 -99 132 -245q43 -137 43 -300v-21q-4 -186 -57.5 -333.5t-146 -243t-216.5 -146.5t-271 -54h-16q-198 0 -348 97q-156 101 -237 281q-77 172 -77 388v22zM325 758 q0 -96 18.5 -184t56.5 -164.5t91.5 -133t129 -89t164.5 -32.5q212 0 335 160.5t123 456.5q0 163 -48.5 296t-150.5 216.5t-243 83.5q-98 0 -183 -37.5t-151 -110.5t-104 -191.5t-38 -270.5z" />
<glyph unicode="P" horiz-adv-x="1270" d="M194 0v1522h105q56 0 176 8t190 8q255 0 393 -120.5t138 -372.5q0 -250 -149.5 -386.5t-432.5 -136.5q-2 0 -197 5v-527h-223zM417 696q74 -10 184 -10q64 0 114.5 8t100.5 31.5t83.5 62.5t54 103.5t20.5 151.5q0 181 -94 261q-88 75 -257 74h-25q-121 -4 -181 -19v-663z " />
<glyph unicode="Q" horiz-adv-x="1569" d="M100 772q4 186 60.5 333.5t153 241t222.5 142.5t272 49q150 0 274.5 -55.5t211 -155.5t132.5 -245q43 -137 43 -300v-21q-6 -302 -137.5 -493t-352.5 -255q122 -126 348 -126q129 0 184 19v-160q-24 -16 -76 -28t-107 -12q-174 0 -309 60t-253 218h-4q-201 0 -353 100 q-154 102 -233 281q-76 170 -76 385v22zM325 758q0 -96 18.5 -184t56.5 -164.5t91.5 -133t129 -89t164.5 -32.5q212 0 335 160.5t123 456.5q0 163 -48.5 296t-150.5 216.5t-243 83.5q-98 0 -183 -37.5t-151 -110.5t-104 -191.5t-38 -270.5z" />
<glyph unicode="R" horiz-adv-x="1367" d="M194 0v1522h97q43 0 176 8t212 8q244 0 381 -104.5t137 -323.5q0 -164 -71.5 -270t-203.5 -152q49 -34 96.5 -107.5t79.5 -146t74.5 -170.5t72.5 -152q33 -62 61 -112h-253q-8 11 -55 112q-19 41 -48 117.5t-53.5 136t-57 122.5t-72.5 105.5t-85 56.5q-59 -2 -265 -2 v-648h-223zM417 806q53 -6 235 -6q317 0 317 299q0 144 -75 209.5t-248 65.5q-140 0 -229 -18v-550z" />
<glyph unicode="S" horiz-adv-x="1132" d="M125 1147q0 85 29 152.5t77.5 111.5t115 73t137 41.5t147.5 12.5q125 0 215 -23.5t139 -55.5l-45 -176q-65 39 -133 59.5t-179 20.5q-76 0 -139.5 -18.5t-107 -62t-43.5 -105.5q0 -37 6.5 -66.5t24 -56.5t38 -47.5t59.5 -46t76 -46t99 -52.5q74 -38 121 -65t110 -73 t100 -89.5t63.5 -105.5t26.5 -131q0 -205 -137.5 -309.5t-369.5 -104.5q-137 0 -258 28t-169 59l53 183q61 -38 161 -65.5t198 -27.5q303 0 303 211q0 32 -8.5 60t-20 50t-37.5 45.5t-48 40t-63.5 40t-72.5 39t-87 42.5q-381 185 -381 458z" />
<glyph unicode="T" horiz-adv-x="1303" d="M63 1350v172h1177v-172h-477v-1350h-225v1350h-475z" />
<glyph unicode="U" horiz-adv-x="1463" d="M159 633v889h223l-1 -836q0 -124 16 -216t45.5 -151.5t76 -95.5t101.5 -50.5t128 -14.5q82 0 140 24t104 82t68.5 163t22.5 259v836h222v-892q0 -315 -141 -480.5t-423 -165.5q-305 0 -444 165t-138 484z" />
<glyph unicode="V" horiz-adv-x="1355" d="M22 1522h237l360 -1024l67 -235l69 235l344 1024h234l-555 -1535h-187z" />
<glyph unicode="W" horiz-adv-x="1918" d="M22 1522h229l242 -988l50 -276l51 276l287 988h161l291 -988l66 -278l47 277l226 989h224l-393 -1538h-218l-290 998l-35 182l-34 -183l-294 -997h-191z" />
<glyph unicode="X" horiz-adv-x="1314" d="M43 0l480 786l-478 736l251 1l248 -403l123 -203l119 203l237 402h239l-477 -769l487 -753h-254l-269 448l-104 171l-101 -171l-262 -448h-239z" />
<glyph unicode="Y" horiz-adv-x="1264" d="M22 1522h238l338 -660l43 -105l36 105l331 660h234l-493 -929v-593h-226v593z" />
<glyph unicode="Z" horiz-adv-x="1294" d="M89 84l777 1189l58 71h-750v178h996l46 -81l-760 -1181l-74 -85h775v-175h-1023z" />
<glyph unicode="[" horiz-adv-x="837" d="M185 60v1426q0 149 38 200t152 51q43 0 85.5 -2.5t67 -5t70.5 -8.5t67 -8v-120h-268v-1642l268 -2v-116q-168 -24 -290 -24q-114 0 -152 51t-38 200z" />
<glyph unicode="\" horiz-adv-x="854" d="M42 1599h198l570 -1962h-198z" />
<glyph unicode="]" horiz-adv-x="837" d="M172 -51l268 2v1642h-268v120q21 2 67 8t70.5 8.5t67 5t85.5 2.5q114 0 152 -51t38 -200v-1426q0 -149 -38 -200t-152 -51q-122 0 -290 24v116z" />
<glyph unicode="^" horiz-adv-x="1363" d="M185 490l394 1041h205l394 -1041h-211l-286 798l-285 -798h-211z" />
<glyph unicode="_" horiz-adv-x="1692" d="M-40 -279h1772v-137h-1772v137z" />
<glyph unicode="`" horiz-adv-x="595" d="M50 1648l157 135q84 -108 338 -399l-111 -90q-62 28 -198.5 153.5t-185.5 200.5z" />
<glyph unicode="a" horiz-adv-x="1131" d="M94 305q0 108 58.5 187t163.5 122q93 37 210.5 55.5t223.5 18.5v115q0 60 -14 98t-46.5 57.5t-74 26t-108.5 6.5q-73 0 -170 -27t-138 -56l-54 144q47 29 175 67t244 38q98 0 167 -15t125.5 -53.5t85 -112t28.5 -182.5v-810h-90q-34 0 -51.5 2.5t-34.5 12.5t-24 31.5 t-7 57.5v8q-50 -46 -137.5 -79t-182.5 -33q-154 0 -251.5 86.5t-97.5 234.5zM311 324q0 -176 197 -176q70 0 146 28.5t96 52.5v319q-73 0 -164.5 -14t-147.5 -41q-61 -29 -94 -68t-33 -101z" />
<glyph unicode="b" horiz-adv-x="1238" d="M166 64v1597h220v-472l-8 -159q124 126 313 126q92 0 172 -33.5t142.5 -99t99 -171.5t36.5 -240q0 -183 -71 -326t-202.5 -223.5t-301.5 -80.5q-109 0 -235.5 29t-164.5 53zM386 184q57 -40 205 -40q142 0 232.5 115t93.5 323v11q0 390 -287 390q-127 0 -244 -93v-706z " />
<glyph unicode="c" horiz-adv-x="1002" d="M97 558q0 127 35 235t102.5 189.5t173.5 127.5t240 46q97 0 172 -18.5t108 -40.5l-35 -174q-90 63 -256 63q-61 0 -116 -22.5t-102 -67t-76 -122t-33 -177.5v-29q0 -190 84 -300q92 -118 237 -118q79 0 154 20.5t118 46.5l45 -125q-53 -49 -148 -78.5t-202 -29.5 q-156 0 -271 76t-172.5 204.5t-57.5 293.5z" />
<glyph unicode="d" horiz-adv-x="1237" d="M97 528q0 279 157 453.5t414 174.5q99 0 186 -29l-3 62v475h220v-1680h-95q-59 0 -86 16.5t-27 71.5v40q-126 -128 -317 -128q-91 0 -171 33.5t-143 99t-99 171.5t-36 240zM321 558v-11q0 -390 286 -390q128 0 244 92v697q-57 50 -205 50q-142 0 -232.5 -115t-92.5 -323z " />
<glyph unicode="e" horiz-adv-x="1123" d="M97 572q0 168 56.5 297.5t173 206.5t279.5 80h9q171 0 286 -110q118 -113 125 -320q0 -153 -11 -204h-703q0 -4 0.5 -10t0.5 -10q17 -352 348 -352q60 0 152 19t132 43l42 -126q-55 -45 -167 -73.5t-218 -28.5q-242 0 -373.5 154.5t-131.5 433.5zM317 668h503q2 25 2 48 q0 284 -228 284q-111 0 -185 -79t-92 -253z" />
<glyph unicode="f" horiz-adv-x="811" d="M75 974v122l173 44v99q0 98 25.5 176.5t66.5 127t96.5 81t111 45.5t113.5 13q84 0 142 -22v-174q-59 20 -172 20q-74 0 -118.5 -56t-44.5 -161v-149h282v-166h-282v-974h-220v974h-173z" />
<glyph unicode="g" horiz-adv-x="1217" d="M110 -181q0 78 46.5 137.5t112.5 95.5q-88 51 -88 166v5q2 57 39 116t101 103q-92 49 -144.5 132t-52.5 188q0 191 124.5 290.5t325.5 103.5h13q161 0 276 -69q38 25 96 43t117 18h111v-175h-209q51 -86 51 -198q0 -184 -129 -287.5t-330 -103.5q-68 0 -124 13 q-64 -45 -64 -114q0 -63 28.5 -86.5t101.5 -23.5h207q101 0 177 -18.5t121.5 -47.5t73.5 -72t38 -86t10 -94q0 -111 -75.5 -197t-201.5 -131q-122 -44 -270 -44h-7q-224 1 -349.5 85t-125.5 251zM324 -155q0 -107 63.5 -159t205.5 -52q91 0 166 19t122.5 59t47.5 95 q0 66 -22 106t-85 63.5t-175 23.5h-102q-100 0 -148 7q-73 -65 -73 -162zM343 772q0 -105 57.5 -173t174.5 -68q116 0 175.5 53t59.5 183q0 240 -225 240q-52 0 -92.5 -10.5t-76 -35t-54.5 -72.5t-19 -117z" />
<glyph unicode="h" horiz-adv-x="1289" d="M176 0v1664h220v-475l-10 -162q71 51 176.5 89t205.5 41q8 0 16 1q172 0 252 -104q82 -108 83 -359v-695h-220v711q0 145 -48 207q-44 56 -152 56q-11 0 -22 -1q-60 -2 -138 -29.5t-143 -74.5v-869h-220z" />
<glyph unicode="i" horiz-adv-x="606" d="M155 1482q0 63 50.5 109.5t111.5 46.5q68 0 104.5 -38t36.5 -97q0 -67 -49 -111.5t-113 -44.5q-58 0 -99.5 37.5t-41.5 97.5zM193 0v1138h220v-1138h-220z" />
<glyph unicode="j" horiz-adv-x="574" d="M-79 -331q16 -8 54 -15t63 -7q87 0 121 74t34 231v1186h220v-1101q0 -287 -88.5 -415.5t-264.5 -128.5q-117 0 -139 13v163zM152 1482q0 63 50.5 109.5t111.5 46.5q68 0 104.5 -38t36.5 -97q0 -67 -49 -111.5t-113 -44.5q-58 0 -99.5 37.5t-41.5 97.5z" />
<glyph unicode="k" horiz-adv-x="1163" d="M168 0v1661h220v-910l-4 -112l455 501h259l-430 -449l483 -691h-250l-377 541l-141 -147l5 -171v-223h-220z" />
<glyph unicode="l" horiz-adv-x="613" d="M197 0v1664h220v-1664h-220z" />
<glyph unicode="m" horiz-adv-x="1972" d="M176 0v1138h196l1 -120q77 52 183.5 94t208.5 45h13q104 1 170 -31q70 -34 108 -112q72 56 184.5 98.5t218.5 44.5q7 0 14 1q174 0 250 -96q79 -100 79 -348v-714h-220v711q0 75 -8 121.5t-30 81.5q-22 34 -64 48q-34 11 -83 12q-11 0 -23 -1q-61 -2 -138.5 -30 t-140.5 -72q9 -69 9 -157v-714h-220v711q0 148 -42 208q-38 55 -144 55q-11 0 -22 -1q-59 -2 -137.5 -29.5t-142.5 -74.5v-869h-220z" />
<glyph unicode="n" horiz-adv-x="1279" d="M176 0v1138h196l1 -120q76 52 185.5 94t211.5 45q9 0 17 1q171 0 245 -97q77 -101 77 -351v-710h-220v711q-1 151 -43 211q-38 54 -144 54q-12 0 -26 -1q-60 -2 -137.5 -30.5t-142.5 -75.5v-869h-220z" />
<glyph unicode="o" horiz-adv-x="1213" d="M96 594q4 267 148.5 414.5t371.5 147.5q133 0 232.5 -49t157.5 -135t86 -193q26 -100 25 -216v-17q-2 -134 -42.5 -241.5t-110 -177t-163.5 -106.5t-205 -37q-132 0 -231.5 49t-157.5 135q-57 86 -85 193q-26 100 -26 216v17zM319 591q0 -126 29.5 -225t94.5 -161.5 t159 -64.5h8q138 0 210 106q74 109 74 310q0 194 -71.5 317t-211.5 125h-8q-137 0 -209 -102q-74 -106 -75 -305z" />
<glyph unicode="p" horiz-adv-x="1238" d="M166 -506v1646h199v-123q25 26 48 45.5t63 43.5t95 37t120 13q92 0 172 -33.5t142.5 -99t99 -171.5t36.5 -240q0 -279 -157 -453.5t-414 -174.5q-102 0 -187 29l3 -152v-367h-220zM386 195q58 -51 205 -51q142 0 232.5 115t93.5 323v11q0 390 -287 390q-127 0 -244 -93 v-695z" />
<glyph unicode="q" horiz-adv-x="1237" d="M97 528q0 279 157 453.5t414 174.5q136 0 247 -47l158 31v-1646h-220v367l6 246q-125 -123 -313 -123q-91 0 -171 33.5t-143 99t-99 171.5t-36 240zM321 558v-11q0 -390 286 -390q131 0 246 93v695q-57 51 -207 51q-142 0 -232.5 -115t-92.5 -323z" />
<glyph unicode="r" horiz-adv-x="819" d="M168 0v1138h185l14 -126q36 49 128 97t181 48q80 0 111 -14v-206q-49 27 -150 27q-146 0 -249 -95v-869h-220z" />
<glyph unicode="s" horiz-adv-x="977" d="M112 65l33 164q32 -23 128 -52t192 -30h5q96 0 148 36q54 37 54 104q0 63 -59.5 108t-175.5 94q-73 31 -127.5 64.5t-99.5 77.5q-44 44 -68 102q-23 56 -23 121v6q1 96 57.5 164t147.5 100t207 32q92 0 173 -20t116 -39l-36 -166q-28 24 -99 43.5t-147 19.5 q-103 0 -158.5 -32.5t-57.5 -89.5v-5q0 -71 51 -115q53 -46 170 -92q52 -21 94 -42t89 -54t78.5 -69t52 -86t20.5 -106q0 -153 -107 -236t-295 -83q-111 0 -215.5 25t-147.5 56z" />
<glyph unicode="t" horiz-adv-x="850" d="M80 974v119q12 4 38.5 11t35 10t26.5 9.5t24.5 11t17 13.5t16.5 19t11 24q8 20 66 209h132v-260h322v-166h-322v-577q0 -86 3.5 -130t19 -70t37 -31.5t66.5 -5.5q43 0 104.5 14t90.5 29l38 -126q-49 -36 -140.5 -64.5t-174.5 -28.5q-59 0 -103.5 12.5t-82.5 43t-57.5 89 t-19.5 144.5v701h-148z" />
<glyph unicode="u" horiz-adv-x="1249" d="M170 474v666h220v-665q0 -71 4.5 -121t16.5 -84.5t27 -55t41 -31.5t52.5 -14.5t67.5 -3.5q60 0 135.5 26t118.5 54v895h220v-1156h-85q-59 0 -84.5 16.5t-25.5 71.5v28q-77 -48 -179.5 -82t-189.5 -34q-85 0 -146.5 23.5t-98.5 63.5t-58 105t-28.5 134t-7.5 164z" />
<glyph unicode="v" horiz-adv-x="1113" d="M19 1140h237l226 -649l84 -272l77 272l217 649h234l-438 -1156h-185z" />
<glyph unicode="w" horiz-adv-x="1632" d="M21 1140h220l184 -684l50 -214l46 213l190 685h219l189 -684l49 -218l50 211l178 691h215l-348 -1156h-203l-204 745l-37 182l-40 -182l-201 -745h-209z" />
<glyph unicode="x" horiz-adv-x="1134" d="M47 1140h250l250 -378l25 -42l21 44l251 376h247l-405 -558l414 -582h-255l-250 379l-34 55l-28 -58l-232 -376h-251l401 578z" />
<glyph unicode="y" horiz-adv-x="1116" d="M44 1140h235l252 -768l58 -186l51 186l216 768h237l-384 -1176q-128 -391 -358 -456q-56 -15 -108 -15q-26 0 -65 4.5t-47 9.5v179q35 -11 96 -11q28 0 56.5 7.5t64 29t66.5 56t60.5 94.5t47.5 138h-65z" />
<glyph unicode="z" horiz-adv-x="1061" d="M82 82l553 807l57 83h-550v168h812l35 -95l-550 -801l-59 -84h589v-160h-845z" />
<glyph unicode="{" horiz-adv-x="972" d="M75 706v142q84 8 168 46.5t84 80.5v511q0 148 41.5 202t156.5 54q89 0 277 -24v-122h-266v-620q0 -53 -44 -94q-45 -44 -197 -106q143 -56 201 -116q40 -43 40 -88v-621h266v-112q-125 -35 -277 -35q-115 0 -156.5 54t-41.5 202v511q0 41 -85.5 84t-166.5 51z" />
<glyph unicode="|" horiz-adv-x="855" d="M326 -188v1968h203v-1968h-203z" />
<glyph unicode="}" horiz-adv-x="972" d="M170 -49h266v621q0 45 40 88q58 60 201 116q-152 62 -197 106q-44 41 -44 94v620h-266v122q188 24 277 24q115 0 156.5 -54t41.5 -202v-511q0 -42 84 -80.5t168 -46.5v-142q-81 -8 -166.5 -51t-85.5 -84v-511q0 -148 -41.5 -202t-156.5 -54q-152 0 -277 35v112z" />
<glyph unicode="~" horiz-adv-x="1438" d="M216 758q29 75 116 143.5t200 68.5q53 0 99.5 -17.5t80 -42t64 -49t66.5 -42t74 -17.5q118 0 202 114l103 -99q-32 -86 -114.5 -144.5t-202.5 -58.5q-53 0 -99 17.5t-78 42t-62 49.5t-66 42.5t-75 17.5q-65 0 -108.5 -29.5t-84.5 -84.5z" />
<glyph />
<glyph unicode="&#xa1;" horiz-adv-x="602" d="M147 1191q-1 73 47.5 124t114.5 51q59 0 102 -43.5t44 -108.5q2 -70 -47.5 -122t-112.5 -52q-69 0 -107.5 43t-40.5 108zM172 -436l24 1274h196l28 -1274h-248z" />
<glyph unicode="&#xa2;" horiz-adv-x="1183" d="M157 558q0 156 50 281t155.5 208.5t254.5 102.5l6 227h149l-5 -223q149 -11 221 -57l-35 -174q-90 63 -256 63q-61 0 -116 -22.5t-102 -67t-76 -122t-33 -177.5q-7 -210 84.5 -328.5t236.5 -118.5q79 0 154 20.5t118 46.5l45 -125q-43 -40 -115.5 -67.5t-158.5 -36.5 l-3 -204h-150l4 205q-202 25 -315 181.5t-113 387.5z" />
<glyph unicode="&#xa3;" horiz-adv-x="1532" d="M146 80q0 73 66.5 122.5t195.5 55.5q28 63 28 210v288h-181v152h181v137q0 225 126 359t347 134q212 0 328 -99l-104 -158q-50 43 -106.5 67t-140.5 24q-37 0 -67.5 -8t-62.5 -31.5t-53.5 -61.5t-35 -103.5t-12.5 -152.5v-107h353v-152h-352l1 -35q2 -230 -12 -341.5 t-65 -166.5q46 -8 103 -28t116.5 -34t137.5 -14q248 0 248 196q0 53 -25 97.5t-51 52.5l156 80q44 -25 86 -93.5t42 -152.5q0 -337 -430 -337q-94 0 -183 19t-142 41t-103.5 38.5t-80.5 13.5q-34 -37 -89.5 -65.5t-110.5 -28.5q-38 0 -73 23.5t-35 58.5z" />
<glyph unicode="&#xa4;" horiz-adv-x="1527" d="M199 308l206 206q-83 117 -83 259q0 143 82 257l-205 205l126 128l210 -212q105 64 229 64q122 0 229 -64l215 214l127 -127l-209 -209q81 -114 81 -256t-81 -256l205 -205l-127 -127l-210 210q-105 -64 -230 -64t-227 62l-211 -212zM499 773q0 -114 78 -196t188 -82 t187 82t77 196t-77 195.5t-187 81.5t-188 -81.5t-78 -195.5z" />
<glyph unicode="&#xa5;" horiz-adv-x="1532" d="M164 1522h238l304 -525l64 -134l62 141l312 518h233l-457 -712h319v-143h-360v-231h360v-143h-360v-293h-220v293h-385v143h385v231h-385v143h336z" />
<glyph unicode="&#xa6;" horiz-adv-x="855" d="M326 -186v827h203v-827h-203zM326 950v830h203v-830h-203z" />
<glyph unicode="&#xa7;" horiz-adv-x="1358" d="M215 767q0 170 139 309q-128 106 -128 256q0 77 29 137.5t75 98t108.5 62t124.5 34t128 9.5q241 0 366 -73l-42 -166q-113 76 -328 75q-113 -1 -187 -38.5t-74 -114.5q0 -51 31 -95t81.5 -76t115 -66t131.5 -64t131.5 -70.5t115 -84.5t81.5 -108t31 -139 q0 -154 -113 -287q101 -88 101 -216q0 -76 -30.5 -137t-79 -98.5t-114 -62.5t-131.5 -35t-136 -10q-131 0 -247.5 28.5t-168.5 64.5l42 166q50 -36 152 -66t226 -29q80 1 142 15.5t104 51t42 92.5q0 46 -31 84.5t-81.5 66t-115 56.5t-131.5 55t-131.5 62.5t-115 77.5 t-81.5 101.5t-31 133.5zM416 803q0 -48 22.5 -88.5t56.5 -68.5t87 -56t101 -47t112.5 -45.5t107.5 -48.5q42 100 42 168q0 49 -21.5 91.5t-53.5 72t-84.5 61t-97.5 52.5t-109.5 51t-106.5 53q-56 -114 -56 -195z" />
<glyph unicode="&#xa8;" horiz-adv-x="863" d="M60 1493q0 61 48 105t107 44q65 0 97.5 -36t32.5 -94q0 -64 -46 -106.5t-108 -42.5q-56 0 -93.5 35.5t-37.5 94.5zM518 1493q0 61 48 105t107 44q64 0 97 -36.5t33 -93.5q0 -64 -46 -106.5t-108 -42.5q-56 0 -93.5 35.5t-37.5 94.5z" />
<glyph unicode="&#xa9;" horiz-adv-x="2129" d="M194 963q0 144 43.5 277.5t123.5 241.5t186.5 189t240 125t276.5 44q179 0 340.5 -69t277.5 -186.5t184.5 -280t68.5 -341.5q0 -180 -68.5 -343t-184.5 -281t-277.5 -187.5t-340.5 -69.5q-120 0 -233 31.5t-208.5 88.5t-175.5 138t-135.5 178t-86.5 211t-31 234zM336 963 q0 -205 93.5 -377t261.5 -273.5t373 -101.5t373 101.5t261.5 273.5t93.5 377t-93.5 376.5t-261.5 273t-373 101.5t-373 -101.5t-261.5 -273t-93.5 -376.5zM621 956q0 106 32.5 195.5t94 156.5t156.5 104.5t213 37.5q140 0 238 -56l-32 -164q-96 63 -225 63 q-134 0 -208.5 -91t-74.5 -231q0 -159 75 -247t198 -88q138 0 247 61l45 -124q-50 -42 -136 -68t-183 -26q-101 0 -185 39.5t-139 106t-85.5 152t-30.5 179.5z" />
<glyph unicode="&#xaa;" horiz-adv-x="1034" d="M126 925q0 180 180 251q149 56 372 56v64q0 50 -11.5 80.5t-39 45t-58.5 18.5t-84 4q-62 0 -151.5 -27.5t-125.5 -52.5l-56 121q34 32 153 73t224 41q170 0 258.5 -67.5t88.5 -229.5v-615h-71q-69 0 -85 7q-31 12 -31 65v14q-38 -39 -107.5 -67.5t-150.5 -28.5 q-138 0 -221.5 65t-83.5 183zM320 939q0 -57 41 -86t106 -29q66 0 128 22.5t82 41.5l1 -1v223q-71 0 -101.5 -0.5t-82.5 -8.5t-86 -25q-46 -23 -67 -54t-21 -83z" />
<glyph unicode="&#xab;" horiz-adv-x="1936" d="M245 519v184l643 430l57 -163l-485 -356l485 -351l-57 -159zM976 519v184l643 430l57 -163l-485 -356l485 -351l-57 -159z" />
<glyph unicode="&#xac;" horiz-adv-x="1470" d="M240 688v164h990v-529h-200v365h-790z" />
<glyph unicode="&#xad;" horiz-adv-x="1350" d="M250 683v177h850v-177h-850z" />
<glyph unicode="&#xae;" horiz-adv-x="2129" d="M194 963q0 144 43.5 277.5t123.5 241.5t186.5 189t240 125t276.5 44q179 0 340.5 -69t277.5 -186.5t184.5 -280t68.5 -341.5q0 -180 -68.5 -343t-184.5 -281t-277.5 -187.5t-340.5 -69.5q-120 0 -233 31.5t-208.5 88.5t-175.5 138t-135.5 178t-86.5 211t-31 234zM336 963 q0 -205 93.5 -377t261.5 -273.5t373 -101.5t373 101.5t261.5 273.5t93.5 377t-93.5 376.5t-261.5 273t-373 101.5t-373 -101.5t-261.5 -273t-93.5 -376.5zM738 479v962h77q33 0 121 3.5t137 3.5q180 0 269.5 -77t89.5 -197q0 -242 -193 -300q25 -18 48.5 -49t36.5 -54 t36.5 -69.5t31.5 -62.5q13 -23 103 -160l-204 1q-35 44 -79 138q-4 8 -18 39.5t-19.5 43.5t-19.5 38t-24 39t-25 30t-31.5 26.5t-35.5 14.5q-26 -1 -124 -1v-369h-177zM915 980q40 -4 130 -4q104 0 153.5 40.5t49.5 134.5q0 84 -48.5 126.5t-175.5 38.5q-71 -2 -109 -11 v-325z" />
<glyph unicode="&#xaf;" horiz-adv-x="647" d="M50 1425v163h547v-163h-547z" />
<glyph unicode="&#xb0;" horiz-adv-x="912" d="M116 1278q0 146 98 242.5t242 96.5q143 0 241.5 -97t98.5 -242q0 -146 -98 -242.5t-242 -96.5q-142 0 -241 97t-99 242zM272 1278q0 -83 53.5 -139t130.5 -56t131 55.5t54 139.5q0 83 -54 138.5t-131 55.5t-130.5 -55t-53.5 -139z" />
<glyph unicode="&#xb1;" horiz-adv-x="1393" d="M229 685v177h220l165 -11l-7 172v228h178v-228l-8 -172l141 11h246v-177h-246l-141 7l8 -171v-236h-178v236l7 171l-165 -7h-220zM250 0v165h892v-165h-892z" />
<glyph unicode="&#xb2;" horiz-adv-x="1194" d="M175 1494q53 77 162.5 134.5t241.5 57.5q74 0 135 -17.5t102.5 -46.5t70 -68.5t41.5 -82.5t13 -89q0 -154 -108.5 -295.5t-294.5 -261.5l458 5v-165h-748l-43 110q50 27 111 66.5t135.5 100t134.5 123t100.5 137.5t40.5 142q0 92 -50 137.5t-136 45.5q-153 0 -275 -142z " />
<glyph unicode="&#xb3;" horiz-adv-x="1194" d="M262 1586q60 50 156.5 77.5t156.5 27.5q166 0 251.5 -67.5t85.5 -170.5q0 -179 -208 -270q132 -6 204.5 -81.5t72.5 -174.5q0 -155 -111 -252t-332 -97q-74 0 -209 28l-14 142q110 -22 203 -21q130 1 191 49t61 145q0 79 -59 127t-156 53l-88 -28l-37 128q64 12 155 53 q132 59 126 175q-2 58 -46 88t-112 29q-50 -1 -114.5 -22.5t-114.5 -56.5z" />
<glyph unicode="&#xb4;" horiz-adv-x="594" d="M50 1384q89 97 123.5 135.5t102 119t112.5 144.5l156 -135q-37 -63 -183 -198t-200 -156z" />
<glyph unicode="&#xb5;" horiz-adv-x="1360" d="M210 -371v1511h219v-741q0 -133 59 -187.5t187 -54.5q98 0 218 88v895h220v-906q0 -44 8 -60t26 -16q33 0 78 27l31 -98q-18 -27 -80.5 -66t-132.5 -39q-127 0 -120 138q-26 -28 -43.5 -45t-52 -41.5t-78 -37t-94.5 -12.5q-99 0 -163.5 23.5t-108.5 80.5l32 -459h-205z " />
<glyph unicode="&#xb6;" horiz-adv-x="1320" d="M83 1248q0 214 148.5 338.5t425.5 124.5q52 0 236.5 -9.5t232.5 -10.5v-1691h-184v1548h-241v-1548h-184v777q-216 0 -325 113t-109 358z" />
<glyph unicode="&#xb7;" horiz-adv-x="602" d="M147 715q-1 70 48.5 122t112.5 52q68 0 106.5 -43.5t40.5 -107.5q2 -73 -47 -124t-115 -51q-58 0 -101 43.5t-45 108.5z" />
<glyph unicode="&#xb8;" horiz-adv-x="485" d="M47 -436l15 142q22 -14 82 -14q53 0 87.5 36.5t39.5 113.5q15 115 -20 188l83 4l43 -4q70 -73 57 -259q-10 -119 -77.5 -177t-162.5 -58q-42 0 -86 8t-61 20z" />
<glyph unicode="&#xb9;" horiz-adv-x="1026" d="M222 1496q81 23 193 88.5t159 104.5l105 -25v-1001h-211v763q-37 -8 -98.5 -25t-107.5 -26z" />
<glyph unicode="&#xba;" horiz-adv-x="1033" d="M111 1151q1 95 27 172t68 127.5t97 84.5t112.5 49t117.5 15q187 0 289.5 -128t99.5 -340q-1 -95 -25 -172.5t-63.5 -129t-92.5 -86.5t-110 -50.5t-120 -15.5q-189 0 -295.5 128.5t-104.5 345.5zM319 1151q0 -151 54 -239t149 -87q96 2 144 73.5t48 230.5 q0 153 -49.5 238.5t-142.5 84.5q-94 -2 -148.5 -74t-54.5 -227z" />
<glyph unicode="&#xbb;" horiz-adv-x="1936" d="M259 263l485 351l-485 356l57 163l643 -430v-184l-643 -415zM990 263l485 351l-485 356l57 163l643 -430v-184l-643 -415z" />
<glyph unicode="&#xbc;" horiz-adv-x="2479" d="M245 1496q81 23 193 88.5t159 104.5l105 -25v-1001h-211v763q-37 -8 -98.5 -25t-107.5 -26zM748 0l539 1530h200l-542 -1530h-197zM1321 328l482 811h68l131 -77l-396 -608l-42 -69h308v3l8 249l195 20v-272h194l1 -151h-195v-282h-204v282h-498z" />
<glyph unicode="&#xbd;" horiz-adv-x="2479" d="M245 1496q81 23 193 88.5t159 104.5l105 -25v-1001h-211v763q-37 -8 -98.5 -25t-107.5 -26zM749 0l539 1530h200l-542 -1530h-197zM1462 826q53 77 162.5 134.5t241.5 57.5q74 0 135 -17.5t102.5 -46.5t70 -68.5t41.5 -82.5t13 -89q0 -154 -108.5 -295.5t-294.5 -261.5 l458 5v-165h-748l-43 110q50 27 111 66.5t135.5 100t134.5 123t100.5 137.5t40.5 142q0 92 -50 137.5t-136 45.5q-153 0 -275 -142z" />
<glyph unicode="&#xbe;" horiz-adv-x="2479" d="M115 1586q60 50 156.5 77.5t156.5 27.5q166 0 251.5 -67.5t85.5 -170.5q0 -179 -208 -270q132 -6 204.5 -81.5t72.5 -174.5q0 -155 -111 -252t-332 -97q-74 0 -209 28l-14 142q110 -22 203 -21q130 1 191 49t61 145q0 79 -59 127t-156 53l-88 -28l-37 128q64 12 155 53 q132 59 126 175q-2 58 -46 88t-112 29q-50 -1 -114.5 -22.5t-114.5 -56.5zM748 0l539 1530h200l-542 -1530h-197zM1321 328l482 811h68l131 -77l-396 -608l-42 -69h308v3l8 249l195 20v-272h194l1 -151h-195v-282h-204v282h-498z" />
<glyph unicode="&#xbf;" horiz-adv-x="1047" d="M113 145.5q1 61.5 11 124.5q14 82 63 148t109 108t118 79t99.5 79.5t45.5 90.5q1 15 2 29t-0.5 29t-2 25.5t-4.5 28t-5.5 25.5t-7 28t-7.5 27t-9.5 31.5t-9.5 31.5h167q35 -43 60.5 -117.5t28.5 -158.5q2 -44 -19 -85t-56.5 -73.5t-79 -63t-89 -59.5t-84 -58t-66 -63.5 t-34.5 -70.5q-48 -194 62.5 -302.5t338.5 -108.5q113 0 181 17v-160q-19 -14 -83.5 -28t-132.5 -14q-101 0 -187.5 17t-150 47.5t-114 73.5t-80 94t-47.5 109t-17 119.5zM411 1375q-2 71 46 121t113 50q56 0 98.5 -42.5t44.5 -105.5q1 -68 -48 -118.5t-110 -50.5 q-66 0 -104 42t-40 104z" />
<glyph unicode="&#xc0;" horiz-adv-x="1407" d="M21 0l582 1538h215l568 -1538h-241l-130 385h-622l-136 -385h-236zM342 1847l146 133q3 -8 160 -150.5t183 -164.5l-92 -92q-73 26 -206.5 117.5t-190.5 156.5zM452 551h507l-204 609l-43 142l-44 -142z" />
<glyph unicode="&#xc1;" horiz-adv-x="1407" d="M21 0l582 1538h215l568 -1538h-241l-130 385h-622l-136 -385h-236zM452 551h507l-204 609l-43 142l-44 -142zM574 1665q26 22 183 164.5t160 150.5l146 -133q-74 -76 -194 -160.5t-202 -113.5z" />
<glyph unicode="&#xc2;" horiz-adv-x="1407" d="M21 0l582 1538h215l568 -1538h-241l-130 385h-622l-136 -385h-236zM344 1689l259 301h197l262 -298l-144 -60l-216 202l-221 -202zM452 551h507l-204 609l-43 142l-44 -142z" />
<glyph unicode="&#xc3;" horiz-adv-x="1407" d="M21 0l582 1538h215l568 -1538h-241l-130 385h-622l-136 -385h-236zM286 1771q35 84 117.5 139.5t164.5 55.5q44 0 80.5 -14.5t61.5 -35t47.5 -40.5t48 -34.5t53.5 -14.5q83 0 175 99l86 -71q-34 -84 -116.5 -139t-164.5 -55q-44 0 -80.5 15t-61.5 36t-47.5 42t-49 36 t-54.5 15q-82 0 -175 -102zM452 551h507l-204 609l-43 142l-44 -142z" />
<glyph unicode="&#xc4;" horiz-adv-x="1407" d="M21 0l582 1538h215l568 -1538h-241l-130 385h-622l-136 -385h-236zM306 1800q0 64 48.5 109.5t110.5 45.5q68 0 103 -37.5t35 -96.5q0 -67 -47.5 -110.5t-112.5 -43.5q-57 0 -97 36.5t-40 96.5zM452 551h507l-204 609l-43 142l-44 -142zM802 1800q0 64 49 109.5t110 45.5 q68 0 103 -37.5t35 -96.5q0 -67 -47.5 -110.5t-112.5 -43.5q-57 0 -97 36.5t-40 96.5z" />
<glyph unicode="&#xc5;" horiz-adv-x="1407" d="M21 0l550 1453q-91 27 -141.5 93.5t-48.5 161.5q1 91 50 152t118 85.5t152 24.5q149 0 235.5 -68.5t85.5 -194.5q-1 -95 -48 -157.5t-127 -90.5l539 -1459h-241l-130 385h-622l-136 -385h-236zM452 551h507l-204 609l-43 142l-44 -142zM537 1708q0 -67 43.5 -106 t118.5 -41q169 -2 169 145q0 67 -47 103t-122 37q-69 1 -115.5 -31t-46.5 -107z" />
<glyph unicode="&#xc6;" horiz-adv-x="1860" d="M-73 0l725 1522h1061v-172h-653v-480h479v-172h-479v-523h726v-175h-949v385h-481l-183 -385h-246zM435 551h402v825h-10z" />
<glyph unicode="&#xc7;" horiz-adv-x="1313" d="M95 753q0 148 37 275t103 219.5t154.5 158.5t192.5 99t217 33q65 0 123 -4.5t103 -12.5t74 -14t60.5 -15l38.5 -11l-32 -198q-70 36 -135 52q-94 22 -217 22q-231 0 -364.5 -159t-133.5 -430t134 -439.5t363 -168.5q114 0 223.5 28.5t150.5 64.5l1 -189q-54 -22 -88 -34 t-101 -26t-139 -18q38 -81 28 -215q-10 -119 -77.5 -177t-162.5 -58q-42 0 -86 8t-61 20l15 142q22 -14 82 -14q53 0 87.5 36.5t39.5 113.5q12 88 -5 146q-287 28 -456 235t-169 530z" />
<glyph unicode="&#xc8;" horiz-adv-x="1217" d="M194 0v1522h876v-172h-653v-480h479v-172h-479v-523h726v-175h-949zM320 1847l146 133q3 -8 160 -150.5t183 -164.5l-92 -92q-73 26 -206.5 117.5t-190.5 156.5z" />
<glyph unicode="&#xc9;" horiz-adv-x="1217" d="M194 0v1522h876v-172h-653v-480h479v-172h-479v-523h726v-175h-949zM552 1665q26 22 183 164.5t160 150.5l146 -133q-74 -76 -194 -160.5t-202 -113.5z" />
<glyph unicode="&#xca;" horiz-adv-x="1217" d="M194 0v1522h876v-172h-653v-480h479v-172h-479v-523h726v-175h-949zM322 1689l259 301h197l262 -298l-144 -60l-216 202l-221 -202z" />
<glyph unicode="&#xcb;" horiz-adv-x="1217" d="M194 0v1522h876v-172h-653v-480h479v-172h-479v-523h726v-175h-949zM284 1800q0 64 48.5 109.5t110.5 45.5q68 0 103 -37.5t35 -96.5q0 -67 -47.5 -110.5t-112.5 -43.5q-57 0 -97 36.5t-40 96.5zM780 1800q0 64 49 109.5t110 45.5q68 0 103 -37.5t35 -96.5 q0 -67 -47.5 -110.5t-112.5 -43.5q-57 0 -97 36.5t-40 96.5z" />
<glyph unicode="&#xcc;" horiz-adv-x="640" d="M-39 1847l146 133q3 -8 160 -150.5t183 -164.5l-92 -92q-73 26 -206.5 117.5t-190.5 156.5zM207 0v1522h226v-1522h-226z" />
<glyph unicode="&#xcd;" horiz-adv-x="640" d="M193 1665q26 22 183 164.5t160 150.5l146 -133q-74 -76 -194 -160.5t-202 -113.5zM207 0v1522h226v-1522h-226z" />
<glyph unicode="&#xce;" horiz-adv-x="640" d="M-37 1689l259 301h197l262 -298l-144 -60l-216 202l-221 -202zM207 0v1522h226v-1522h-226z" />
<glyph unicode="&#xcf;" horiz-adv-x="640" d="M-75 1800q0 64 48.5 109.5t110.5 45.5q68 0 103 -37.5t35 -96.5q0 -67 -47.5 -110.5t-112.5 -43.5q-57 0 -97 36.5t-40 96.5zM207 0v1522h226v-1522h-226zM421 1800q0 64 49 109.5t110 45.5q68 0 103 -37.5t35 -96.5q0 -67 -47.5 -110.5t-112.5 -43.5q-57 0 -97 36.5 t-40 96.5z" />
<glyph unicode="&#xd0;" horiz-adv-x="1472" d="M66 720v149h128v653h112q45 0 169 8t191 8q361 0 541.5 -190t180.5 -544q0 -388 -200 -607.5t-546 -212.5q-42 1 -172.5 8.5t-190.5 7.5h-85v720h-128zM418 168q93 -21 259 -19q107 2 193 39t151 110t100 193t35 280q0 167 -34 284t-103.5 188t-168 102.5t-236.5 31.5 q-118 0 -196 -16v-492h394v-149h-394v-552z" />
<glyph unicode="&#xd1;" horiz-adv-x="1556" d="M193 0v1522h204l651 -1005l123 -226l-13 254v977h205v-1522h-207l-630 967l-140 249l12 -264v-952h-205zM376 1771q35 84 117.5 139.5t164.5 55.5q44 0 80.5 -14.5t61.5 -35t47.5 -40.5t48 -34.5t53.5 -14.5q83 0 175 99l86 -71q-34 -84 -116.5 -139t-164.5 -55 q-44 0 -80.5 15t-61.5 36t-47.5 42t-49 36t-54.5 15q-82 0 -175 -102z" />
<glyph unicode="&#xd2;" horiz-adv-x="1569" d="M100 772q4 186 60.5 333.5t153 241t222.5 142.5t272 49q150 0 274.5 -55.5t211 -155.5t132.5 -245.5t43 -320.5q-4 -186 -57.5 -333.5t-146 -243t-216.5 -146.5t-271 -54q-207 -4 -363.5 97t-237.5 281t-77 410zM325 758q0 -96 18.5 -184t56.5 -164.5t91.5 -133t129 -89 t164.5 -32.5q212 0 335 160.5t123 456.5q0 163 -48.5 296t-150.5 216.5t-243 83.5q-98 0 -183 -37.5t-151 -110.5t-104 -191.5t-38 -270.5zM448 1847l146 133q3 -8 160 -150.5t183 -164.5l-92 -92q-73 26 -206.5 117.5t-190.5 156.5z" />
<glyph unicode="&#xd3;" horiz-adv-x="1569" d="M100 772q4 186 60.5 333.5t153 241t222.5 142.5t272 49q150 0 274.5 -55.5t211 -155.5t132.5 -245.5t43 -320.5q-4 -186 -57.5 -333.5t-146 -243t-216.5 -146.5t-271 -54q-207 -4 -363.5 97t-237.5 281t-77 410zM325 758q0 -96 18.5 -184t56.5 -164.5t91.5 -133t129 -89 t164.5 -32.5q212 0 335 160.5t123 456.5q0 163 -48.5 296t-150.5 216.5t-243 83.5q-98 0 -183 -37.5t-151 -110.5t-104 -191.5t-38 -270.5zM680 1665q26 22 183 164.5t160 150.5l146 -133q-74 -76 -194 -160.5t-202 -113.5z" />
<glyph unicode="&#xd4;" horiz-adv-x="1569" d="M100 772q4 186 60.5 333.5t153 241t222.5 142.5t272 49q150 0 274.5 -55.5t211 -155.5t132.5 -245.5t43 -320.5q-4 -186 -57.5 -333.5t-146 -243t-216.5 -146.5t-271 -54q-207 -4 -363.5 97t-237.5 281t-77 410zM325 758q0 -96 18.5 -184t56.5 -164.5t91.5 -133t129 -89 t164.5 -32.5q212 0 335 160.5t123 456.5q0 163 -48.5 296t-150.5 216.5t-243 83.5q-98 0 -183 -37.5t-151 -110.5t-104 -191.5t-38 -270.5zM450 1689l259 301h197l262 -298l-144 -60l-216 202l-221 -202z" />
<glyph unicode="&#xd5;" horiz-adv-x="1569" d="M100 772q4 186 60.5 333.5t153 241t222.5 142.5t272 49q150 0 274.5 -55.5t211 -155.5t132.5 -245.5t43 -320.5q-4 -186 -57.5 -333.5t-146 -243t-216.5 -146.5t-271 -54q-207 -4 -363.5 97t-237.5 281t-77 410zM325 758q0 -96 18.5 -184t56.5 -164.5t91.5 -133t129 -89 t164.5 -32.5q212 0 335 160.5t123 456.5q0 163 -48.5 296t-150.5 216.5t-243 83.5q-98 0 -183 -37.5t-151 -110.5t-104 -191.5t-38 -270.5zM392 1771q35 84 117.5 139.5t164.5 55.5q44 0 80.5 -14.5t61.5 -35t47.5 -40.5t48 -34.5t53.5 -14.5q83 0 175 99l86 -71 q-34 -84 -116.5 -139t-164.5 -55q-44 0 -80.5 15t-61.5 36t-47.5 42t-49 36t-54.5 15q-82 0 -175 -102z" />
<glyph unicode="&#xd6;" horiz-adv-x="1569" d="M100 772q4 186 60.5 333.5t153 241t222.5 142.5t272 49q150 0 274.5 -55.5t211 -155.5t132.5 -245.5t43 -320.5q-4 -186 -57.5 -333.5t-146 -243t-216.5 -146.5t-271 -54q-207 -4 -363.5 97t-237.5 281t-77 410zM325 758q0 -96 18.5 -184t56.5 -164.5t91.5 -133t129 -89 t164.5 -32.5q212 0 335 160.5t123 456.5q0 163 -48.5 296t-150.5 216.5t-243 83.5q-98 0 -183 -37.5t-151 -110.5t-104 -191.5t-38 -270.5zM412 1800q0 64 48.5 109.5t110.5 45.5q68 0 103 -37.5t35 -96.5q0 -67 -47.5 -110.5t-112.5 -43.5q-57 0 -97 36.5t-40 96.5z M908 1800q0 64 49 109.5t110 45.5q68 0 103 -37.5t35 -96.5q0 -67 -47.5 -110.5t-112.5 -43.5q-57 0 -97 36.5t-40 96.5z" />
<glyph unicode="&#xd7;" horiz-adv-x="1370" d="M234 439l338 335l-338 345l130 128l322 -354l322 354l130 -128l-338 -342l338 -338l-130 -128l-322 343l-322 -343z" />
<glyph unicode="&#xd8;" horiz-adv-x="1569" d="M100 772q4 186 60.5 333.5t153 241t222.5 142.5t272 49q89 0 177 -22l80 222l125 -36l-83 -231q175 -87 270.5 -271.5t91.5 -438.5q-4 -186 -57.5 -333.5t-146 -243t-216.5 -146.5t-271 -54q-106 -2 -198 24l-75 -208l-125 36l79 219q-174 92 -269 281t-90 436zM325 758 q0 -161 52 -297.5t150 -216.5l398 1105q-60 19 -124 19q-98 0 -183 -37.5t-151 -110.5t-104 -191.5t-38 -270.5zM641 179q66 -24 144 -24q212 0 335 160.5t123 456.5q0 165 -52 302t-150 214z" />
<glyph unicode="&#xd9;" horiz-adv-x="1463" d="M159 633v889h223l-1 -836q0 -124 16 -216t45.5 -151.5t76 -95.5t101.5 -50.5t128 -14.5q82 0 140 24t104 82t68.5 163t22.5 259v836h222v-892q0 -315 -141 -480.5t-423 -165.5q-305 0 -444 165t-138 484zM385 1847l146 133q3 -8 160 -150.5t183 -164.5l-92 -92 q-73 26 -206.5 117.5t-190.5 156.5z" />
<glyph unicode="&#xda;" horiz-adv-x="1463" d="M159 633v889h223l-1 -836q0 -124 16 -216t45.5 -151.5t76 -95.5t101.5 -50.5t128 -14.5q82 0 140 24t104 82t68.5 163t22.5 259v836h222v-892q0 -315 -141 -480.5t-423 -165.5q-305 0 -444 165t-138 484zM617 1665q26 22 183 164.5t160 150.5l146 -133 q-74 -76 -194 -160.5t-202 -113.5z" />
<glyph unicode="&#xdb;" horiz-adv-x="1463" d="M159 633v889h223l-1 -836q0 -124 16 -216t45.5 -151.5t76 -95.5t101.5 -50.5t128 -14.5q82 0 140 24t104 82t68.5 163t22.5 259v836h222v-892q0 -315 -141 -480.5t-423 -165.5q-305 0 -444 165t-138 484zM387 1689l259 301h197l262 -298l-144 -60l-216 202l-221 -202z " />
<glyph unicode="&#xdc;" horiz-adv-x="1463" d="M159 633v889h223l-1 -836q0 -124 16 -216t45.5 -151.5t76 -95.5t101.5 -50.5t128 -14.5q82 0 140 24t104 82t68.5 163t22.5 259v836h222v-892q0 -315 -141 -480.5t-423 -165.5q-305 0 -444 165t-138 484zM349 1800q0 64 48.5 109.5t110.5 45.5q68 0 103 -37.5t35 -96.5 q0 -67 -47.5 -110.5t-112.5 -43.5q-57 0 -97 36.5t-40 96.5zM845 1800q0 64 49 109.5t110 45.5q68 0 103 -37.5t35 -96.5q0 -67 -47.5 -110.5t-112.5 -43.5q-57 0 -97 36.5t-40 96.5z" />
<glyph unicode="&#xdd;" horiz-adv-x="1264" d="M22 1522h238l338 -660l43 -105l36 105l331 660h234l-493 -929v-593h-226v593zM522 1665q26 22 183 164.5t160 150.5l146 -133q-74 -76 -194 -160.5t-202 -113.5z" />
<glyph unicode="&#xde;" horiz-adv-x="1262" d="M194 0v1522h223v-275q168 12 233 12q532 0 532 -466q0 -243 -149.5 -375.5t-431.5 -132.5q-47 0 -184 7v-292h-223zM417 455q60 -8 162 -8q66 0 117.5 7.5t103 29.5t85 59t54.5 99.5t21 147.5q0 165 -94.5 240t-289.5 69q-99 -4 -159 -17v-627z" />
<glyph unicode="&#xdf;" horiz-adv-x="1268" d="M36 974v129l153 39q42 219 184 328t346 109q106 0 190.5 -31t136 -94.5t51.5 -150.5q0 -61 -23 -115t-56 -92.5t-66 -72.5t-56 -71.5t-23 -74.5q0 -48 27 -90.5t67 -73.5t87.5 -71t87.5 -81t67 -105.5t27 -142.5q0 -87 -34 -153t-92 -103t-126 -55t-145 -18 q-155 0 -231 33v173q92 -52 239 -52q70 0 118 36t48 115q0 45 -19.5 84t-49.5 69.5t-66.5 60.5t-73 64t-66.5 72.5t-49 93t-19 118.5q0 52 21.5 98.5t52 82.5t61.5 71.5t52.5 79.5t21.5 92q0 148 -197 148q-52 0 -94 -14t-79 -48t-62 -87.5t-39 -136t-14 -189.5v-948h-220 v966v8h-138z" />
<glyph unicode="&#xe0;" horiz-adv-x="1131" d="M94 305q0 108 58.5 187t163.5 122q93 37 210.5 55.5t223.5 18.5v115q0 60 -14 98t-46.5 57.5t-74 26t-108.5 6.5q-73 0 -170 -27t-138 -56l-54 144q47 29 175 67t244 38q98 0 167 -15t125.5 -53.5t85 -112t28.5 -182.5v-810h-90q-34 0 -51.5 2.5t-34.5 12.5t-24 31.5 t-7 57.5v8q-50 -46 -137.5 -79t-182.5 -33q-154 0 -251.5 86.5t-97.5 234.5zM181 1648l157 135q84 -108 338 -399l-111 -90q-62 28 -198.5 153.5t-185.5 200.5zM311 324q0 -176 197 -176q70 0 146 28.5t96 52.5v319q-73 0 -164.5 -14t-147.5 -41q-61 -29 -94 -68t-33 -101z " />
<glyph unicode="&#xe1;" horiz-adv-x="1131" d="M94 305q0 108 58.5 187t163.5 122q93 37 210.5 55.5t223.5 18.5v115q0 60 -14 98t-46.5 57.5t-74 26t-108.5 6.5q-73 0 -170 -27t-138 -56l-54 144q47 29 175 67t244 38q98 0 167 -15t125.5 -53.5t85 -112t28.5 -182.5v-810h-90q-34 0 -51.5 2.5t-34.5 12.5t-24 31.5 t-7 57.5v8q-50 -46 -137.5 -79t-182.5 -33q-154 0 -251.5 86.5t-97.5 234.5zM311 324q0 -176 197 -176q70 0 146 28.5t96 52.5v319q-73 0 -164.5 -14t-147.5 -41q-61 -29 -94 -68t-33 -101zM436 1384q89 97 123.5 135.5t102 119t112.5 144.5l156 -135q-37 -63 -183 -198 t-200 -156z" />
<glyph unicode="&#xe2;" horiz-adv-x="1131" d="M94 305q0 108 58.5 187t163.5 122q93 37 210.5 55.5t223.5 18.5v115q0 60 -14 98t-46.5 57.5t-74 26t-108.5 6.5q-73 0 -170 -27t-138 -56l-54 144q47 29 175 67t244 38q98 0 167 -15t125.5 -53.5t85 -112t28.5 -182.5v-810h-90q-34 0 -51.5 2.5t-34.5 12.5t-24 31.5 t-7 57.5v8q-50 -46 -137.5 -79t-182.5 -33q-154 0 -251.5 86.5t-97.5 234.5zM192 1349l276 333h198l268 -332l-135 -56l-232 222l-249 -223zM311 324q0 -176 197 -176q70 0 146 28.5t96 52.5v319q-73 0 -164.5 -14t-147.5 -41q-61 -29 -94 -68t-33 -101z" />
<glyph unicode="&#xe3;" horiz-adv-x="1131" d="M94 305q0 108 58.5 187t163.5 122q93 37 210.5 55.5t223.5 18.5v115q0 60 -14 98t-46.5 57.5t-74 26t-108.5 6.5q-73 0 -170 -27t-138 -56l-54 144q47 29 175 67t244 38q98 0 167 -15t125.5 -53.5t85 -112t28.5 -182.5v-810h-90q-34 0 -51.5 2.5t-34.5 12.5t-24 31.5 t-7 57.5v8q-50 -46 -137.5 -79t-182.5 -33q-154 0 -251.5 86.5t-97.5 234.5zM147 1453q36 81 110 138t160 57q54 0 99 -21.5t70.5 -47t58.5 -47t67 -21.5q42 0 79.5 17t57 34.5t46.5 46.5l86 -72q-41 -85 -112 -139t-158 -54q-47 0 -85.5 14t-63.5 34.5t-46.5 41t-47 34.5 t-53.5 14q-91 0 -183 -97zM311 324q0 -176 197 -176q70 0 146 28.5t96 52.5v319q-73 0 -164.5 -14t-147.5 -41q-61 -29 -94 -68t-33 -101z" />
<glyph unicode="&#xe4;" horiz-adv-x="1131" d="M94 305q0 108 58.5 187t163.5 122q93 37 210.5 55.5t223.5 18.5v115q0 60 -14 98t-46.5 57.5t-74 26t-108.5 6.5q-73 0 -170 -27t-138 -56l-54 144q47 29 175 67t244 38q98 0 167 -15t125.5 -53.5t85 -112t28.5 -182.5v-810h-90q-34 0 -51.5 2.5t-34.5 12.5t-24 31.5 t-7 57.5v8q-50 -46 -137.5 -79t-182.5 -33q-154 0 -251.5 86.5t-97.5 234.5zM195 1493q0 61 48 105t107 44q65 0 97.5 -36t32.5 -94q0 -64 -46 -106.5t-108 -42.5q-56 0 -93.5 35.5t-37.5 94.5zM311 324q0 -176 197 -176q70 0 146 28.5t96 52.5v319q-73 0 -164.5 -14 t-147.5 -41q-61 -29 -94 -68t-33 -101zM653 1493q0 61 48 105t107 44q64 0 97 -36.5t33 -93.5q0 -64 -46 -106.5t-108 -42.5q-56 0 -93.5 35.5t-37.5 94.5z" />
<glyph unicode="&#xe5;" horiz-adv-x="1131" d="M94 305q0 108 58.5 187t163.5 122q93 37 210.5 55.5t223.5 18.5v115q0 60 -14 98t-46.5 57.5t-74 26t-108.5 6.5q-73 0 -170 -27t-138 -56l-54 144q47 29 175 67t244 38q98 0 167 -15t125.5 -53.5t85 -112t28.5 -182.5v-810h-90q-34 0 -51.5 2.5t-34.5 12.5t-24 31.5 t-7 57.5v8q-50 -46 -137.5 -79t-182.5 -33q-154 0 -251.5 86.5t-97.5 234.5zM246 1607q1 91 50 153t118 87.5t152 25.5q148 0 235 -70t86 -197q-1 -69 -27 -123.5t-71.5 -87.5t-102.5 -50t-123 -17q-145 0 -232 76.5t-85 202.5zM311 324q0 -176 197 -176q70 0 146 28.5 t96 52.5v319q-73 0 -164.5 -14t-147.5 -41q-61 -29 -94 -68t-33 -101zM402 1607q0 -67 44 -109.5t118 -43.5q78 -1 123.5 36.5t45.5 114.5q0 67 -47.5 105t-121.5 39q-69 1 -115.5 -33t-46.5 -109z" />
<glyph unicode="&#xe6;" horiz-adv-x="1780" d="M94 305q0 107 60 186t162 123q176 74 435 74v115q0 60 -13 98t-43.5 57.5t-68 26t-99.5 6.5q-72 0 -174 -28.5t-149 -57.5l-54 147q48 28 181.5 66.5t249.5 38.5q126 0 206.5 -31.5t120.5 -111.5q134 138 356 142q177 3 294.5 -110t124.5 -320q0 -153 -11 -204h-702 q0 -4 0.5 -10t0.5 -10q5 -100 32.5 -170.5t75.5 -109t105.5 -55t131.5 -16.5q61 0 155 19t134 42l42 -126q-55 -44 -168 -73t-220 -29q-267 0 -397 178q-151 -178 -413 -178q-155 0 -255 87t-100 234zM315 324q0 -88 45.5 -132t143.5 -44q82 0 169 37.5t127 93.5 q-43 117 -46 271l-1 -2q-201 0 -315 -55q-60 -29 -91.5 -68t-31.5 -101zM975 668h502q20 332 -226 332q-111 0 -184.5 -78.5t-91.5 -253.5z" />
<glyph unicode="&#xe7;" horiz-adv-x="1002" d="M97 558q0 127 35 235t102.5 189.5t173.5 127.5t240 46q97 0 172 -18.5t108 -40.5l-35 -174q-90 63 -256 63q-61 0 -116 -22.5t-102 -67t-76 -122t-33 -177.5q-7 -210 84.5 -328.5t236.5 -118.5q79 0 154 20.5t118 46.5l45 -125q-46 -43 -126.5 -71.5t-174.5 -34.5 q38 -81 28 -215q-10 -119 -77.5 -177t-162.5 -58q-42 0 -86 8t-61 20l15 142q22 -14 82 -14q53 0 87.5 36.5t39.5 113.5q12 91 -5 150q-194 31 -302 185.5t-108 380.5z" />
<glyph unicode="&#xe8;" horiz-adv-x="1123" d="M97 572q0 168 56.5 297.5t173 206.5t279.5 80q177 3 295 -110t125 -320q0 -153 -11 -204h-703q0 -4 0.5 -10t0.5 -10q17 -352 348 -352q60 0 152 19t132 43l42 -126q-55 -45 -167 -73.5t-218 -28.5q-242 0 -373.5 154.5t-131.5 433.5zM212 1648l157 135q84 -108 338 -399 l-111 -90q-62 28 -198.5 153.5t-185.5 200.5zM317 668h503q20 332 -226 332q-111 0 -185 -79t-92 -253z" />
<glyph unicode="&#xe9;" horiz-adv-x="1123" d="M97 572q0 168 56.5 297.5t173 206.5t279.5 80q177 3 295 -110t125 -320q0 -153 -11 -204h-703q0 -4 0.5 -10t0.5 -10q17 -352 348 -352q60 0 152 19t132 43l42 -126q-55 -45 -167 -73.5t-218 -28.5q-242 0 -373.5 154.5t-131.5 433.5zM317 668h503q20 332 -226 332 q-111 0 -185 -79t-92 -253zM467 1384q89 97 123.5 135.5t102 119t112.5 144.5l156 -135q-37 -63 -183 -198t-200 -156z" />
<glyph unicode="&#xea;" horiz-adv-x="1123" d="M97 572q0 168 56.5 297.5t173 206.5t279.5 80q177 3 295 -110t125 -320q0 -153 -11 -204h-703q0 -4 0.5 -10t0.5 -10q17 -352 348 -352q60 0 152 19t132 43l42 -126q-55 -45 -167 -73.5t-218 -28.5q-242 0 -373.5 154.5t-131.5 433.5zM223 1349l276 333h198l268 -332 l-135 -56l-232 222l-249 -223zM317 668h503q20 332 -226 332q-111 0 -185 -79t-92 -253z" />
<glyph unicode="&#xeb;" horiz-adv-x="1123" d="M97 572q0 168 56.5 297.5t173 206.5t279.5 80q177 3 295 -110t125 -320q0 -153 -11 -204h-703q0 -4 0.5 -10t0.5 -10q17 -352 348 -352q60 0 152 19t132 43l42 -126q-55 -45 -167 -73.5t-218 -28.5q-242 0 -373.5 154.5t-131.5 433.5zM226 1493q0 61 48 105t107 44 q65 0 97.5 -36t32.5 -94q0 -64 -46 -106.5t-108 -42.5q-56 0 -93.5 35.5t-37.5 94.5zM317 668h503q20 332 -226 332q-111 0 -185 -79t-92 -253zM684 1493q0 61 48 105t107 44q64 0 97 -36.5t33 -93.5q0 -64 -46 -106.5t-108 -42.5q-56 0 -93.5 35.5t-37.5 94.5z" />
<glyph unicode="&#xec;" horiz-adv-x="606" d="M-82 1648l157 135q84 -108 338 -399l-111 -90q-62 28 -198.5 153.5t-185.5 200.5zM193 0v1138h220v-1138h-220z" />
<glyph unicode="&#xed;" horiz-adv-x="606" d="M173 1384q89 97 123.5 135.5t102 119t112.5 144.5l156 -135q-37 -63 -183 -198t-200 -156zM193 0v1138h220v-1138h-220z" />
<glyph unicode="&#xee;" horiz-adv-x="606" d="M-71 1349l276 333h198l268 -332l-135 -56l-232 222l-249 -223zM193 0v1138h220v-1138h-220z" />
<glyph unicode="&#xef;" horiz-adv-x="606" d="M-56 1493q0 61 48 105t107 44q65 0 97.5 -36t32.5 -94q0 -64 -46 -106.5t-108 -42.5q-56 0 -93.5 35.5t-37.5 94.5zM193 0v1138h220v-1138h-220zM378 1493q0 61 48 105t107 44q64 0 97 -36.5t33 -93.5q0 -64 -46 -106.5t-108 -42.5q-56 0 -93.5 35.5t-37.5 94.5z" />
<glyph unicode="&#xf0;" horiz-adv-x="1190" d="M95 553q0 279 140 440.5t371 160.5q127 -1 214 -74q-78 215 -267 375l-134 -149l-115 90l133 143q-108 70 -215 107l52 125q141 -44 268 -118q26 28 59.5 67.5t54.5 65.5l20 25l117 -90q-71 -84 -132 -147l13 -10q213 -165 326.5 -410.5t113.5 -545.5q0 -310 -135.5 -471 t-371.5 -164q-235 -3 -373.5 154.5t-138.5 425.5zM313 561q0 -196 78 -316.5t225 -120.5q127 0 203 117t76 313q0 25 0.5 73t0.5 75.5t-1.5 68.5t-4.5 78q-11 55 -81.5 98t-193.5 43q-149 0 -225.5 -116.5t-76.5 -312.5z" />
<glyph unicode="&#xf1;" horiz-adv-x="1279" d="M176 0v1138h196l1 -120q76 52 185.5 94t211.5 45q185 5 262 -96t77 -351v-710h-220v711q0 151 -42.5 211t-170.5 53q-60 -2 -137.5 -30.5t-142.5 -75.5v-869h-220zM291 1453q36 81 110 138t160 57q54 0 99 -21.5t70.5 -47t58.5 -47t67 -21.5q42 0 79.5 17t57 34.5 t46.5 46.5l86 -72q-41 -85 -112 -139t-158 -54q-47 0 -85.5 14t-63.5 34.5t-46.5 41t-47 34.5t-53.5 14q-91 0 -183 -97z" />
<glyph unicode="&#xf2;" horiz-adv-x="1213" d="M96 594q4 267 148.5 414.5t371.5 147.5q133 0 232.5 -49t157.5 -135t85.5 -193t25.5 -233q-2 -134 -42.5 -241.5t-110 -177t-163.5 -106.5t-205 -37q-132 0 -231.5 49t-157.5 135t-85.5 193t-25.5 233zM231 1648l157 135q84 -108 338 -399l-111 -90q-62 28 -198.5 153.5 t-185.5 200.5zM319 591q0 -126 29.5 -225t94.5 -161.5t159 -64.5q143 -3 217.5 106t74.5 310q0 194 -71.5 317t-211.5 125q-143 3 -217.5 -102.5t-74.5 -304.5z" />
<glyph unicode="&#xf3;" horiz-adv-x="1213" d="M96 594q4 267 148.5 414.5t371.5 147.5q133 0 232.5 -49t157.5 -135t85.5 -193t25.5 -233q-2 -134 -42.5 -241.5t-110 -177t-163.5 -106.5t-205 -37q-132 0 -231.5 49t-157.5 135t-85.5 193t-25.5 233zM319 591q0 -126 29.5 -225t94.5 -161.5t159 -64.5q143 -3 217.5 106 t74.5 310q0 194 -71.5 317t-211.5 125q-143 3 -217.5 -102.5t-74.5 -304.5zM486 1384q89 97 123.5 135.5t102 119t112.5 144.5l156 -135q-37 -63 -183 -198t-200 -156z" />
<glyph unicode="&#xf4;" horiz-adv-x="1213" d="M96 594q4 267 148.5 414.5t371.5 147.5q133 0 232.5 -49t157.5 -135t85.5 -193t25.5 -233q-2 -134 -42.5 -241.5t-110 -177t-163.5 -106.5t-205 -37q-132 0 -231.5 49t-157.5 135t-85.5 193t-25.5 233zM242 1349l276 333h198l268 -332l-135 -56l-232 222l-249 -223z M319 591q0 -126 29.5 -225t94.5 -161.5t159 -64.5q143 -3 217.5 106t74.5 310q0 194 -71.5 317t-211.5 125q-143 3 -217.5 -102.5t-74.5 -304.5z" />
<glyph unicode="&#xf5;" horiz-adv-x="1213" d="M96 594q4 267 148.5 414.5t371.5 147.5q133 0 232.5 -49t157.5 -135t85.5 -193t25.5 -233q-2 -134 -42.5 -241.5t-110 -177t-163.5 -106.5t-205 -37q-132 0 -231.5 49t-157.5 135t-85.5 193t-25.5 233zM197 1453q36 81 110 138t160 57q54 0 99 -21.5t70.5 -47t58.5 -47 t67 -21.5q42 0 79.5 17t57 34.5t46.5 46.5l86 -72q-41 -85 -112 -139t-158 -54q-47 0 -85.5 14t-63.5 34.5t-46.5 41t-47 34.5t-53.5 14q-91 0 -183 -97zM319 591q0 -126 29.5 -225t94.5 -161.5t159 -64.5q143 -3 217.5 106t74.5 310q0 194 -71.5 317t-211.5 125 q-143 3 -217.5 -102.5t-74.5 -304.5z" />
<glyph unicode="&#xf6;" horiz-adv-x="1213" d="M96 594q4 267 148.5 414.5t371.5 147.5q133 0 232.5 -49t157.5 -135t85.5 -193t25.5 -233q-2 -134 -42.5 -241.5t-110 -177t-163.5 -106.5t-205 -37q-132 0 -231.5 49t-157.5 135t-85.5 193t-25.5 233zM245 1493q0 61 48 105t107 44q65 0 97.5 -36t32.5 -94 q0 -64 -46 -106.5t-108 -42.5q-56 0 -93.5 35.5t-37.5 94.5zM319 591q0 -126 29.5 -225t94.5 -161.5t159 -64.5q143 -3 217.5 106t74.5 310q0 194 -71.5 317t-211.5 125q-143 3 -217.5 -102.5t-74.5 -304.5zM703 1493q0 61 48 105t107 44q64 0 97 -36.5t33 -93.5 q0 -64 -46 -106.5t-108 -42.5q-56 0 -93.5 35.5t-37.5 94.5z" />
<glyph unicode="&#xf7;" horiz-adv-x="1393" d="M229 688v170h935v-170h-935zM550 363q0 66 50.5 113.5t113.5 47.5q68 0 105 -39t37 -100q0 -69 -49.5 -114.5t-115.5 -45.5q-59 0 -100 38.5t-41 99.5zM551 1168q0 66 50.5 113.5t113.5 47.5q68 0 105 -39.5t37 -100.5q0 -69 -49.5 -114.5t-115.5 -45.5q-59 0 -100 38.5 t-41 100.5z" />
<glyph unicode="&#xf8;" horiz-adv-x="1213" d="M96 594q4 267 148.5 414.5t371.5 147.5q60 0 117 -11l67 197l125 -36l-69 -203q135 -70 199 -218t62 -339q-2 -134 -42.5 -241.5t-110 -177t-163.5 -106.5t-205 -37q-59 0 -116 11l-66 -195l-125 36l68 201q-135 70 -199 218t-62 339zM319 591q0 -242 102 -365l259 762 q-31 8 -69 10q-143 3 -217.5 -102.5t-74.5 -304.5zM533 151q33 -11 69 -11q143 -3 217.5 106t74.5 310q0 242 -102 359z" />
<glyph unicode="&#xf9;" horiz-adv-x="1249" d="M170 474v666h220v-665q0 -71 4.5 -121t16.5 -84.5t27 -55t41 -31.5t52.5 -14.5t67.5 -3.5q60 0 135.5 26t118.5 54v895h220v-1156h-85q-59 0 -84.5 16.5t-25.5 71.5v28q-77 -48 -179.5 -82t-189.5 -34q-85 0 -146.5 23.5t-98.5 63.5t-58 105t-28.5 134t-7.5 164z M249 1648l157 135q84 -108 338 -399l-111 -90q-62 28 -198.5 153.5t-185.5 200.5z" />
<glyph unicode="&#xfa;" horiz-adv-x="1249" d="M170 474v666h220v-665q0 -71 4.5 -121t16.5 -84.5t27 -55t41 -31.5t52.5 -14.5t67.5 -3.5q60 0 135.5 26t118.5 54v895h220v-1156h-85q-59 0 -84.5 16.5t-25.5 71.5v28q-77 -48 -179.5 -82t-189.5 -34q-85 0 -146.5 23.5t-98.5 63.5t-58 105t-28.5 134t-7.5 164z M504 1384q89 97 123.5 135.5t102 119t112.5 144.5l156 -135q-37 -63 -183 -198t-200 -156z" />
<glyph unicode="&#xfb;" horiz-adv-x="1249" d="M170 474v666h220v-665q0 -71 4.5 -121t16.5 -84.5t27 -55t41 -31.5t52.5 -14.5t67.5 -3.5q60 0 135.5 26t118.5 54v895h220v-1156h-85q-59 0 -84.5 16.5t-25.5 71.5v28q-77 -48 -179.5 -82t-189.5 -34q-85 0 -146.5 23.5t-98.5 63.5t-58 105t-28.5 134t-7.5 164z M260 1349l276 333h198l268 -332l-135 -56l-232 222l-249 -223z" />
<glyph unicode="&#xfc;" horiz-adv-x="1249" d="M170 474v666h220v-665q0 -71 4.5 -121t16.5 -84.5t27 -55t41 -31.5t52.5 -14.5t67.5 -3.5q60 0 135.5 26t118.5 54v895h220v-1156h-85q-59 0 -84.5 16.5t-25.5 71.5v28q-77 -48 -179.5 -82t-189.5 -34q-85 0 -146.5 23.5t-98.5 63.5t-58 105t-28.5 134t-7.5 164z M263 1493q0 61 48 105t107 44q65 0 97.5 -36t32.5 -94q0 -64 -46 -106.5t-108 -42.5q-56 0 -93.5 35.5t-37.5 94.5zM721 1493q0 61 48 105t107 44q64 0 97 -36.5t33 -93.5q0 -64 -46 -106.5t-108 -42.5q-56 0 -93.5 35.5t-37.5 94.5z" />
<glyph unicode="&#xfd;" horiz-adv-x="1116" d="M44 1140h235l252 -768l58 -186l51 186l216 768h237l-384 -1176q-128 -391 -358 -456q-56 -15 -108 -15q-26 0 -65 4.5t-47 9.5v179q35 -11 96 -11q28 0 56.5 7.5t64 29t66.5 56t60.5 94.5t47.5 138h-65zM460 1384q89 97 123.5 135.5t102 119t112.5 144.5l156 -135 q-37 -63 -183 -198t-200 -156z" />
<glyph unicode="&#xfe;" horiz-adv-x="1238" d="M166 -507v2168h220v-472l-8 -159q124 126 313 126q92 0 172 -33.5t142.5 -99t99 -171.5t36.5 -240q0 -183 -71 -326t-202.5 -223.5t-301.5 -80.5q-78 0 -193 20l13 -171v-338h-220zM386 184q57 -40 205 -40q142 0 232.5 115t93.5 323q4 401 -287 401q-127 0 -244 -93 v-706z" />
<glyph unicode="&#xff;" horiz-adv-x="1116" d="M44 1140h235l252 -768l58 -186l51 186l216 768h237l-384 -1176q-128 -391 -358 -456q-56 -15 -108 -15q-26 0 -65 4.5t-47 9.5v179q35 -11 96 -11q28 0 56.5 7.5t64 29t66.5 56t60.5 94.5t47.5 138h-65zM219 1493q0 61 48 105t107 44q65 0 97.5 -36t32.5 -94 q0 -64 -46 -106.5t-108 -42.5q-56 0 -93.5 35.5t-37.5 94.5zM677 1493q0 61 48 105t107 44q64 0 97 -36.5t33 -93.5q0 -64 -46 -106.5t-108 -42.5q-56 0 -93.5 35.5t-37.5 94.5z" />
<glyph unicode="&#x152;" horiz-adv-x="2063" d="M100 769q4 185 57 329.5t146.5 238.5t220 145t281.5 56q131 4 235 -40v24h876v-172h-653v-480h479v-172h-479v-523h726v-175h-949v50q-114 -63 -265 -66q-206 -4 -362 97.5t-236.5 281t-76.5 406.5zM324 758q0 -122 30 -230.5t86 -192.5t145 -133.5t199 -49.5 q152 0 256 80v1077q-92 60 -240 60q-96 0 -180 -36.5t-151 -108.5t-106 -192t-39 -274z" />
<glyph unicode="&#x153;" horiz-adv-x="1920" d="M96 594q2 134 42.5 241.5t110.5 177t163.5 106.5t203.5 37q262 0 390 -193q137 189 397 193q178 3 295.5 -110t124.5 -320q0 -148 -11 -204h-703q0 -4 0.5 -10t0.5 -10q17 -351 345 -351q62 0 155.5 18.5t133.5 42.5l42 -126q-55 -44 -168 -73t-219 -29q-270 0 -401 191 q-69 -94 -173.5 -142.5t-231.5 -48.5q-106 0 -191 32.5t-142 88.5t-95 134t-54 166.5t-15 188.5zM319 591q0 -126 29.5 -225t94 -161.5t156.5 -64.5q143 -3 219.5 106.5t76.5 309.5q0 126 -29.5 223t-95 157.5t-160.5 61.5q-141 3 -216 -103t-75 -304zM1114 668h502 q20 332 -226 332q-111 0 -184.5 -78.5t-91.5 -253.5z" />
<glyph unicode="&#x178;" horiz-adv-x="1264" d="M22 1522h238l338 -660l43 -105l36 105l331 660h234l-493 -929v-593h-226v593zM254 1800q0 64 48.5 109.5t110.5 45.5q68 0 103 -37.5t35 -96.5q0 -67 -47.5 -110.5t-112.5 -43.5q-57 0 -97 36.5t-40 96.5zM750 1800q0 64 49 109.5t110 45.5q68 0 103 -37.5t35 -96.5 q0 -67 -47.5 -110.5t-112.5 -43.5q-57 0 -97 36.5t-40 96.5z" />
<glyph unicode="&#x2c6;" horiz-adv-x="836" d="M47 1349l276 333h198l268 -332l-135 -56l-232 222l-249 -223z" />
<glyph unicode="&#x2dc;" horiz-adv-x="927" d="M47 1453q36 81 110 138t160 57q54 0 99 -21.5t70.5 -47t58.5 -47t67 -21.5q42 0 79.5 17t57 34.5t46.5 46.5l86 -72q-41 -85 -112 -139t-158 -54q-47 0 -85.5 14t-63.5 34.5t-46.5 41t-47 34.5t-53.5 14q-91 0 -183 -97z" />
<glyph unicode="&#x2000;" horiz-adv-x="995" />
<glyph unicode="&#x2001;" horiz-adv-x="1990" />
<glyph unicode="&#x2002;" horiz-adv-x="995" />
<glyph unicode="&#x2003;" horiz-adv-x="1990" />
<glyph unicode="&#x2004;" horiz-adv-x="663" />
<glyph unicode="&#x2005;" horiz-adv-x="497" />
<glyph unicode="&#x2006;" horiz-adv-x="331" />
<glyph unicode="&#x2007;" horiz-adv-x="331" />
<glyph unicode="&#x2008;" horiz-adv-x="248" />
<glyph unicode="&#x2009;" horiz-adv-x="398" />
<glyph unicode="&#x200a;" horiz-adv-x="110" />
<glyph unicode="&#x2010;" horiz-adv-x="1350" d="M250 683v177h850v-177h-850z" />
<glyph unicode="&#x2011;" horiz-adv-x="1350" d="M250 683v177h850v-177h-850z" />
<glyph unicode="&#x2012;" horiz-adv-x="1350" d="M250 683v177h850v-177h-850z" />
<glyph unicode="&#x2013;" horiz-adv-x="1692" d="M240 683v177h1212v-177h-1212z" />
<glyph unicode="&#x2014;" horiz-adv-x="2343" d="M240 683v177h1863v-177h-1863z" />
<glyph unicode="&#x2018;" horiz-adv-x="520" d="M98 1326q0 73 21 142.5t54 120.5t66.5 87t65.5 57l96 -61v-32q-43 -36 -70 -116.5t-27 -155.5q0 -74 35.5 -136.5t77.5 -82.5v-62l-113 -127q-92 33 -149 132t-57 234z" />
<glyph unicode="&#x2019;" horiz-adv-x="520" d="M111 1555v61l143 117q156 -75 156 -325q0 -88 -19 -167t-49 -133.5t-60 -90.5t-59 -57l-96 61v32q34 36 55.5 116t21.5 156q0 77 -29 143t-64 87z" />
<glyph unicode="&#x201a;" horiz-adv-x="520" d="M111 52v61l143 117q156 -75 156 -325q0 -88 -19 -167t-49 -133.5t-60 -90.5t-59 -57l-96 61v32q34 36 55.5 116t21.5 156q0 77 -29 143t-64 87z" />
<glyph unicode="&#x201c;" horiz-adv-x="1029" d="M98 1326q0 73 21 142.5t54 120.5t66.5 87t65.5 57l96 -61v-32q-43 -36 -70 -116.5t-27 -155.5q0 -74 35.5 -136.5t77.5 -82.5v-62l-113 -127q-92 33 -149 132t-57 234zM614 1326q0 73 21 142.5t54 120.5t66.5 87t65.5 57l96 -61v-32q-43 -36 -70 -116.5t-27 -155.5 q0 -74 35.5 -136.5t77.5 -82.5v-62l-113 -127q-92 33 -149 132t-57 234z" />
<glyph unicode="&#x201d;" horiz-adv-x="1029" d="M111 1555v61l143 117q156 -75 156 -325q0 -88 -19 -167t-49 -133.5t-60 -90.5t-59 -57l-96 61v32q34 36 55.5 116t21.5 156q0 77 -29 143t-64 87zM627 1555v61l143 117q156 -75 156 -325q0 -88 -19 -167t-49 -133.5t-60 -90.5t-59 -57l-96 61v32q34 36 55.5 116t21.5 156 q0 77 -29 143t-64 87z" />
<glyph unicode="&#x201e;" horiz-adv-x="1029" d="M111 78v61l143 117q156 -75 156 -325q0 -88 -19 -167t-49 -133.5t-60 -90.5t-59 -57l-96 61v32q34 36 55.5 116t21.5 156q0 77 -29 143t-64 87zM624 78v61l143 117q156 -75 156 -325q0 -88 -19 -167t-49 -133.5t-60 -90.5t-59 -57l-96 61v32q34 36 55.5 116t21.5 156 q0 77 -29 143t-64 87z" />
<glyph unicode="&#x2022;" horiz-adv-x="855" d="M207 724q5 95 73 161.5t158 66.5q91 0 153 -65t57 -159q-4 -94 -72 -161.5t-158 -67.5q-91 0 -153.5 67t-57.5 158z" />
<glyph unicode="&#x2026;" horiz-adv-x="2047" d="M187 130q-1 70 48.5 122t112.5 52q68 0 106.5 -43.5t40.5 -107.5q2 -73 -47 -124t-115 -51q-58 0 -101 43.5t-45 108.5zM870 130q-2 70 47.5 122t112.5 52q69 0 107 -43t40 -108q2 -73 -47 -124t-115 -51q-58 0 -101 43.5t-44 108.5zM1552 130q-2 70 47.5 122t113.5 52 q68 0 106.5 -43t40.5 -108q1 -73 -47.5 -124t-114.5 -51q-58 0 -101.5 43.5t-44.5 108.5z" />
<glyph unicode="&#x202f;" horiz-adv-x="398" />
<glyph unicode="&#x2039;" horiz-adv-x="1204" d="M245 519v184l643 430l57 -163l-485 -356l485 -351l-57 -159z" />
<glyph unicode="&#x203a;" horiz-adv-x="1204" d="M259 263l485 351l-485 356l57 163l643 -430v-184l-643 -415z" />
<glyph unicode="&#x205f;" horiz-adv-x="497" />
<glyph unicode="&#x20ac;" horiz-adv-x="1505" d="M114 511v143h193q-1 21 -1 66q0 89 10 163h-170v143h197q63 238 225 370.5t399 141.5q96 4 164 -6t132 -31t76 -24l-53 -174q-64 35 -131.5 51t-193.5 17q-144 1 -245.5 -88t-143.5 -257h529v-143h-552q-4 -43 -4 -99q0 -74 4 -130h518v-143h-502q32 -180 124 -279.5 t266 -99.5q105 0 202 26.5t154 66.5l60 -165q-25 -4 -65.5 -19.5t-79.5 -30t-119 -26.5t-181 -12q-250 0 -404 143.5t-199 395.5h-209z" />
<glyph unicode="&#x2122;" horiz-adv-x="2218" d="M177 1543h689v-153l-256 1v-624h-184v624l-248 -1zM1008 767l41 776h293l144 -405l38 -141l30 141l129 405h276l74 -776h-177l-39 536l-7 125l-43 -133l-183 -535h-118l-209 535l-51 135l-3 -127l-25 -536h-170z" />
<glyph unicode="&#x25fc;" horiz-adv-x="1140" d="M0 0v1140h1140v-1140h-1140z" />
</font>
</defs>
</svg>
