<svg width="18" height="20" viewBox="0 0 18 20" fill="none" xmlns="http://www.w3.org/2000/svg">
    <path fill-rule="evenodd" clip-rule="evenodd" d="M5 2C5 0.895431 5.89543 0 7 0H11C12.1046 0 13 0.895431 13 2V4H15.9897C15.9959 3.99994 16.0021 3.99994 16.0083 4H17C17.5523 4 18 4.44772 18 5C18 5.55228 17.5523 6 17 6H16.9311L16.1301 17.2137C16.018 18.7837 14.7117 20 13.1378 20H4.86224C3.28832 20 1.982 18.7837 1.86986 17.2137L1.06888 6H1C0.447715 6 0 5.55228 0 5C0 4.44772 0.447715 4 1 4H1.99174C1.99795 3.99994 2.00414 3.99994 2.01032 4H5V2ZM3.07398 6L3.86478 17.0712C3.90216 17.5946 4.3376 18 4.86224 18H13.1378C13.6624 18 14.0978 17.5946 14.1352 17.0712L14.926 6H3.07398ZM11 4H7V2H11V4ZM7 8C7.55228 8 8 8.44772 8 9V15C8 15.5523 7.55228 16 7 16C6.44772 16 6 15.5523 6 15V9C6 8.44772 6.44772 8 7 8ZM11 8C11.5523 8 12 8.44772 12 9V15C12 15.5523 11.5523 16 11 16C10.4477 16 10 15.5523 10 15V9C10 8.44772 10.4477 8 11 8Z" fill="#137D60"/>
</svg>
