<?xml version="1.0" encoding="UTF-8" standalone="no"?>
<svg
   xmlns:sketch="http://www.bohemiancoding.com/sketch/ns"
   xmlns:dc="http://purl.org/dc/elements/1.1/"
   xmlns:cc="http://creativecommons.org/ns#"
   xmlns:rdf="http://www.w3.org/1999/02/22-rdf-syntax-ns#"
   xmlns:svg="http://www.w3.org/2000/svg"
   xmlns="http://www.w3.org/2000/svg"
   xmlns:sodipodi="http://sodipodi.sourceforge.net/DTD/sodipodi-0.dtd"
   xmlns:inkscape="http://www.inkscape.org/namespaces/inkscape"
   width="32px"
   height="32px"
   viewBox="0 0 32 32"
   version="1.1"
   id="svg82"
   sodipodi:docname="ico-track-design.svg"
   inkscape:version="0.92.2 5c3e80d, 2017-08-06">
  <metadata
     id="metadata86">
    <rdf:RDF>
      <cc:Work
         rdf:about="">
        <dc:format>image/svg+xml</dc:format>
        <dc:type
           rdf:resource="http://purl.org/dc/dcmitype/StillImage" />
      </cc:Work>
    </rdf:RDF>
  </metadata>
  <sodipodi:namedview
     pagecolor="#ffffff"
     bordercolor="#666666"
     borderopacity="1"
     objecttolerance="10"
     gridtolerance="10"
     guidetolerance="10"
     inkscape:pageopacity="0"
     inkscape:pageshadow="2"
     inkscape:window-width="2051"
     inkscape:window-height="1101"
     id="namedview84"
     showgrid="false"
     inkscape:zoom="35.5625"
     inkscape:cx="16"
     inkscape:cy="14.87522"
     inkscape:window-x="0"
     inkscape:window-y="0"
     inkscape:window-maximized="0"
     inkscape:current-layer="ico-track-design" />
  <!-- Generator: Sketch 3.4 (15588) - http://www.bohemiancoding.com/sketch -->
  <title
     id="title68">ico-track-design</title>
  <desc
     id="desc70">Created with Sketch.</desc>
  <defs
     id="defs72" />
  <g
     id="Page-1"
     stroke="none"
     stroke-width="1"
     fill="none"
     fill-rule="evenodd"
     sketch:type="MSPage">
    <g
       id="ico-track-design"
       sketch:type="MSArtboardGroup"
       stroke="#21B2F1"
       stroke-width="1.2"
       stroke-linecap="round"
       stroke-linejoin="round">
      <path
         d="M11.0446574,17.3274409 L24.823359,3.60214262 C26.2984335,2.12707385 28.6888722,2.12707385 30.1639466,3.60214262 C31.6390114,5.07721226 31.6390114,7.4676567 30.1639466,8.94272634 L16.3852411,22.6680285 L11.0446574,17.3274409 Z"
         id="Stroke-79"
         sketch:type="MSShapeGroup" />
      <path
         d="M10.6862617,23.1954687 C9.0648603,21.5740683 6.44904271,21.5623191 4.84366337,23.1676975 C3.81827106,24.1930898 3.68048433,25.4662845 3.6922334,26.531197 C3.70398247,27.5832924 2.95202856,28.5445974 1.1138,28.5755726 C3.69543839,31.156142 8.19114077,31.5609581 10.7140328,29.038067 C12.4144785,27.3376252 12.1634626,24.6726743 10.6862617,23.1954687 L10.6862617,23.1954687 L10.6862617,23.1954687 Z"
         id="Stroke-81"
         sketch:type="MSShapeGroup" />
      <path
         d="M12.6082011,5.20431793 L9.40385145,8.40866759"
         id="Stroke-83"
         sketch:type="MSShapeGroup" />
      <path
         d="M27.5617809,20.1579939 L24.3574313,23.3623435"
         id="Stroke-85"
         sketch:type="MSShapeGroup" />
      <path
         d="m 19.135046,26.684776 1.472497,1.472496 c 1.299695,1.299695 2.681836,2.681839 2.681836,2.681839 l 7.476813,-7.476822 c 0,0 -4.544044,-4.862349 -4.751336,-5.077975"
         id="Stroke-87"
         sketch:type="MSShapeGroup"
         inkscape:connector-curvature="0"
         sodipodi:nodetypes="csccc" />
      <path
         d="M14.5505919,7.1335119 L9.40382934,2 L1.92701348,9.47681682 C1.92701348,9.47681682 3.5876467,11.137451 5.96118948,13.5109928"
         id="Stroke-89"
         sketch:type="MSShapeGroup" />
    </g>
  </g>
</svg>
