<?xml version="1.0" encoding="UTF-8" standalone="no"?>
<svg width="32px" height="32px" viewBox="0 0 32 32" version="1.1" xmlns="http://www.w3.org/2000/svg" xmlns:xlink="http://www.w3.org/1999/xlink" xmlns:sketch="http://www.bohemiancoding.com/sketch/ns">
    <!-- Generator: Sketch 3.4 (15588) - http://www.bohemiancoding.com/sketch -->
    <title>ico-track-design-grey</title>
    <desc>Created with Sketch.</desc>
    <defs></defs>
    <g id="Page-1" stroke="none" stroke-width="1" fill="none" fill-rule="evenodd" sketch:type="MSPage">
        <g id="ico-track-design-grey" sketch:type="MSArtboardGroup" stroke="#A3A3AE" stroke-width="1.2" stroke-linecap="round" stroke-linejoin="round">
            <g id="Group" sketch:type="MSLayerGroup" transform="translate(1.000000, 2.000000)">
                <path d="M10.0446574,15.3274409 L23.823359,1.60214262 C25.2984335,0.12707385 27.6888722,0.12707385 29.1639466,1.60214262 C30.6390114,3.07721226 30.6390114,5.4676567 29.1639466,6.94272634 L15.3852411,20.6680285 L10.0446574,15.3274409 Z" id="Stroke-79" sketch:type="MSShapeGroup"></path>
                <path d="M9.68626171,21.1954687 C8.0648603,19.5740683 5.44904271,19.5623191 3.84366337,21.1676975 C2.81827106,22.1930898 2.68048433,23.4662845 2.6922334,24.531197 C2.70398247,25.5832924 1.95202856,26.5445974 0.1138,26.5755726 C2.69543839,29.156142 7.19114077,29.5609581 9.71403285,27.038067 C11.4144785,25.3376252 11.1634626,22.6726743 9.68626171,21.1954687 L9.68626171,21.1954687 L9.68626171,21.1954687 Z" id="Stroke-81" sketch:type="MSShapeGroup"></path>
                <path d="M11.6082011,3.20431793 L8.40385145,6.40866759" id="Stroke-83" sketch:type="MSShapeGroup"></path>
                <path d="M26.5617809,18.1579939 L23.3574313,21.3623435" id="Stroke-85" sketch:type="MSShapeGroup"></path>
                <path d="M18.1350458,24.684776 C18.541571,25.0913004 19.0674368,25.6171659 19.6075429,26.1572723 C20.9072388,27.4569662 22.2893791,28.8391113 22.2893791,28.8391113 L29.7661921,21.3622887 C29.7661921,21.3622887 25.2221476,16.4999401 25.0148557,16.2843143" id="Stroke-87" sketch:type="MSShapeGroup"></path>
                <path d="M13.5505919,5.1335119 L8.40382934,0 L0.927013477,7.47681682 C0.927013477,7.47681682 2.5876467,9.13745101 4.96118948,11.5109928" id="Stroke-89" sketch:type="MSShapeGroup"></path>
            </g>
        </g>
    </g>
</svg>