<svg width="14" height="14" viewBox="0 0 14 14" fill="none" xmlns="http://www.w3.org/2000/svg">
<path fill-rule="evenodd" clip-rule="evenodd" d="M7 1.56506C3.99833 1.56506 1.565 3.99839 1.565 7.00006C1.565 10.0017 3.99833 12.4351 7 12.4351C10.0017 12.4351 12.435 10.0017 12.435 7.00006C12.435 3.99839 10.0017 1.56506 7 1.56506ZM0.434998 7.00006C0.434998 3.37431 3.37425 0.435059 7 0.435059C10.6257 0.435059 13.565 3.37431 13.565 7.00006C13.565 10.6258 10.6257 13.5651 7 13.5651C3.37425 13.5651 0.434998 10.6258 0.434998 7.00006ZM6.435 4.33339C6.435 4.02135 6.68796 3.76839 7 3.76839H7.00666C7.31871 3.76839 7.57166 4.02135 7.57166 4.33339C7.57166 4.64543 7.31871 4.89839 7.00666 4.89839H7C6.68796 4.89839 6.435 4.64543 6.435 4.33339ZM5.76833 7.00006C5.76833 6.68802 6.02129 6.43506 6.33333 6.43506H7C7.31204 6.43506 7.565 6.68802 7.565 7.00006V9.10173H7.66666C7.97871 9.10173 8.23166 9.35468 8.23166 9.66673C8.23166 9.97877 7.97871 10.2317 7.66666 10.2317H7C6.68796 10.2317 6.435 9.97877 6.435 9.66673V7.56506H6.33333C6.02129 7.56506 5.76833 7.3121 5.76833 7.00006Z" fill="white"/>
</svg>
