<svg width="16" height="16" viewBox="0 0 16 16" fill="none" xmlns="http://www.w3.org/2000/svg">
<path fill-rule="evenodd" clip-rule="evenodd" d="M6.66656 2.56506C6.24222 2.56506 5.89823 2.90905 5.89823 3.33339V10.0001C5.89823 10.4244 6.24222 10.7684 6.66656 10.7684H11.9999C12.4242 10.7684 12.7682 10.4244 12.7682 10.0001V5.60953C12.7682 5.58257 12.7575 5.55671 12.7385 5.53765L9.79564 2.59484C9.77658 2.57577 9.75072 2.56506 9.72375 2.56506H6.66656ZM4.76823 3.33339C4.76823 2.28497 5.61814 1.43506 6.66656 1.43506H9.72375C10.0504 1.43506 10.3637 1.56482 10.5947 1.79581L13.5375 4.73861C13.7685 4.9696 13.8982 5.28288 13.8982 5.60953V10.0001C13.8982 11.0485 13.0483 11.8984 11.9999 11.8984H11.2316V12.0001C11.2316 13.4167 10.0832 14.5651 8.66656 14.5651H3.9999C2.95148 14.5651 2.10156 13.7151 2.10156 12.6667V6.66673C2.10156 5.25012 3.24995 4.10173 4.66656 4.10173H4.76823V3.33339ZM4.76823 5.23173H4.66656C3.87403 5.23173 3.23156 5.8742 3.23156 6.66673V12.6667C3.23156 13.0911 3.57556 13.4351 3.9999 13.4351H8.66656C9.45909 13.4351 10.1016 12.7926 10.1016 12.0001V11.8984H6.66656C5.61814 11.8984 4.76823 11.0485 4.76823 10.0001V5.23173Z" fill="white"/>
</svg>
