<svg width="16" height="16" viewBox="0 0 16 16" fill="none" xmlns="http://www.w3.org/2000/svg">
<path fill-rule="evenodd" clip-rule="evenodd" d="M5.01371 2.76406C5.52816 2.72301 6.01655 2.52071 6.40936 2.18597C7.326 1.40481 8.67419 1.40481 9.59084 2.18597C9.98364 2.52071 10.472 2.72301 10.9865 2.76406C12.187 2.85987 13.1403 3.81318 13.2361 5.01371C13.2772 5.52816 13.4795 6.01655 13.8142 6.40936C14.5954 7.326 14.5954 8.67419 13.8142 9.59084C13.4795 9.98364 13.2772 10.472 13.2361 10.9865C13.1403 12.187 12.187 13.1403 10.9865 13.2361C10.472 13.2772 9.98364 13.4795 9.59084 13.8142C8.67419 14.5954 7.326 14.5954 6.40936 13.8142C6.01655 13.4795 5.52816 13.2772 5.01371 13.2361C3.81318 13.1403 2.85987 12.187 2.76406 10.9865C2.72301 10.472 2.52071 9.98364 2.18597 9.59084C1.40481 8.67419 1.40481 7.326 2.18597 6.40936C2.52071 6.01655 2.72301 5.52816 2.76406 5.01371C2.85987 3.81318 3.81318 2.85987 5.01371 2.76406ZM10.9658 6.96578C11.2782 6.65336 11.2782 6.14683 10.9658 5.83441C10.6534 5.52199 10.1468 5.52199 9.83441 5.83441L7.2001 8.46873L6.16578 7.43441C5.85336 7.12199 5.34683 7.12199 5.03441 7.43441C4.72199 7.74683 4.72199 8.25336 5.03441 8.56578L6.63441 10.1658C6.94683 10.4782 7.45336 10.4782 7.76578 10.1658L10.9658 6.96578Z" fill="white"/>
</svg>
