<?xml version="1.0" encoding="UTF-8" standalone="no"?>
<svg width="40px" height="50px" viewBox="0 0 40 50" version="1.1" xmlns="http://www.w3.org/2000/svg" xmlns:xlink="http://www.w3.org/1999/xlink" xmlns:sketch="http://www.bohemiancoding.com/sketch/ns">
    <!-- Generator: Sketch 3.3.3 (12081) - http://www.bohemiancoding.com/sketch -->
    <title>x-mark-red</title>
    <desc>Created with Sketch.</desc>
    <defs></defs>
    <g id="Edit-Profile-Web" stroke="none" stroke-width="1" fill="none" fill-rule="evenodd" sketch:type="MSPage">
        <g id="Profile-Edit-W-T1-Profile" sketch:type="MSArtboardGroup" transform="translate(-1180.000000, -2873.000000)" fill="#F31D3D">
            <g id="x-mark-red" sketch:type="MSLayerGroup" transform="translate(1180.000000, 2873.000000)">
                <path d="M19,22.0952381 L9.0952381,32 L3,25.9047619 L12.9047619,16 L3,6.0952381 L9.0952381,1.19726451e-12 L19,9.9047619 L28.9047619,1.19726451e-12 L35,6.0952381 L25.0952381,16 L35,25.9047619 L28.9047619,32 L19,22.0952381 Z" id="x-mark" sketch:type="MSShapeGroup"></path>
                <path d="M2.845,43.09 C3.585,43.09 3.885,43.72 3.885,44.3 C3.885,44.89 3.575,45.5 2.805,45.5 L1.265,45.5 L1.265,43.09 L2.845,43.09 Z M3.205,46.43 C4.475,46.29 4.985,45.31 4.985,44.3 C4.985,43.2 4.365,42.11 2.885,42.11 L0.195,42.11 L0.195,49 L1.265,49 L1.265,46.47 L2.005,46.47 L3.725,49 L5.015,49 L3.205,46.43 Z M6.415,49 L10.665,49 L10.665,48.03 L7.475,48.03 L7.475,46.1 L10.175,46.1 L10.175,45.13 L7.475,45.13 L7.475,43.09 L10.565,43.09 L10.565,42.11 L6.415,42.11 L6.415,49 Z M15.815,47.02 L13.475,42.11 L12.535,42.11 L11.695,49 L12.755,49 L13.345,44.08 L15.375,48.23 L16.275,48.23 L18.295,44.08 L18.885,49 L19.945,49 L19.105,42.11 L18.155,42.11 L15.815,47.02 Z M21.985,45.57 C21.985,44.19 23.045,43.07 24.405,43.07 C25.775,43.07 26.835,44.19 26.835,45.57 C26.835,46.95 25.775,48.06 24.405,48.06 C23.045,48.06 21.985,46.95 21.985,45.57 L21.985,45.57 Z M20.925,45.57 C20.925,47.52 22.445,49.1 24.405,49.1 C26.375,49.1 27.905,47.52 27.905,45.57 C27.905,43.61 26.375,42.03 24.405,42.03 C22.445,42.03 20.925,43.61 20.925,45.57 L20.925,45.57 Z M28.625,42.11 L30.715,49 L31.705,49 L33.785,42.11 L32.685,42.11 L31.205,47.23 L29.735,42.11 L28.625,42.11 Z M34.935,49 L39.185,49 L39.185,48.03 L35.995,48.03 L35.995,46.1 L38.695,46.1 L38.695,45.13 L35.995,45.13 L35.995,43.09 L39.085,43.09 L39.085,42.11 L34.935,42.11 L34.935,49 Z" id="REMOVE" sketch:type="MSShapeGroup"></path>
            </g>
        </g>
    </g>
</svg>