<svg xmlns="http://www.w3.org/2000/svg" width="30" height="30" viewBox="0 0 30 30">
    <g fill="none" fill-rule="evenodd" stroke-width="2">
        <g fill-rule="nonzero" stroke="#444" stroke-linecap="square">
            <path fill="#747480" d="M26 27H4a4 4 0 0 1-4-4h30a4 4 0 0 1-4 4z"/>
            <path fill="#FFF" d="M3 22V5.375C3 4.063 3.895 3 5 3h20c1.105 0 2 1.063 2 2.375V22"/>
        </g>
        <path stroke="#0681FF" d="M14.33 15.319h-4.104V19.5m5.359-8.319h4.103V7m-9.283 8.634c.826 1.737 2.573 2.935 4.595 2.935 2.467 0 4.524-1.783 5-4.152m-.409-3.32C18.764 9.364 17.02 8.17 15 8.17c-2.467 0-4.524 1.782-5 4.152"/>
    </g>
</svg>
