<svg xmlns="http://www.w3.org/2000/svg" width="30" height="30" viewBox="0 0 30 30">
    <g fill="none" fill-rule="evenodd">
        <path fill="#CEE6FF" d="M17.75 18.312l2.034-4.687L15.02 10l-4.76 3.581 2.036 4.73zM3.63 6.796l1.388 5.652L.05 15.112l.22-4.116zM3.857 23l5.797.53.9 5.564-3.819-1.548zM10 2.021L15 5l4-3.972-4-.993zM25.949 6.796l-1.387 5.652 4.968 2.664-.22-4.116zM25.722 23l-5.796.53-.901 5.564 3.82-1.548z"/>
        <g stroke="#444">
            <path fill="#444" d="M14.991 29.017c1.192 0 2.35-.15 3.455-.431l1.686-6.274 6.816.008a13.899 13.899 0 0 0 2.018-6.175l-5.542-4.03 2.342-6.06a14.084 14.084 0 0 0-5.61-4.065L14.78 6.1 9.579 2.086a14.093 14.093 0 0 0-5.352 3.955l2.347 6.072-5.556 4.042a13.898 13.898 0 0 0 2.017 6.164l6.858-.008 1.69 6.284a14.01 14.01 0 0 0 3.408.42m-4.497-.742l-1.342-4.995-5.466.007a14.08 14.08 0 0 0 6.808 4.988M.967 14.998l4.437-3.228-1.866-4.83a13.914 13.914 0 0 0-2.57 8.058M10.65 1.69l4.133 3.19 4.285-3.275a13.992 13.992 0 0 0-8.418.085m15.805 5.264l-1.861 4.815 4.421 3.217a13.915 13.915 0 0 0-2.56-8.032m-.158 16.33l-5.423-.006-1.339 4.979a14.08 14.08 0 0 0 6.762-4.972m-10.618 6.68c-.228.01-.457.017-.688.017a14.958 14.958 0 0 1-.836-.025 14.901 14.901 0 0 1-.645-.049l-.155-.017c-.18-.02-.359-.042-.537-.068l-.153-.021a15.135 15.135 0 0 1-3.11-.84l-.102-.04c-.478-.19-.945-.403-1.397-.64l-.021-.01c-.146-.077-.29-.157-.434-.238l-.072-.041a15.023 15.023 0 0 1-1.288-.83l-.02-.014a15.091 15.091 0 0 1-1.62-1.352l-.006-.006a15.032 15.032 0 0 1-2.635-3.384l-.033-.057c-.074-.13-.146-.263-.216-.395l-.036-.071a15.173 15.173 0 0 1-.348-.72l-.065-.143c-.053-.12-.104-.241-.155-.363l-.08-.204a14.844 14.844 0 0 1-.207-.563 15.8 15.8 0 0 1-.389-1.32 15.556 15.556 0 0 1-.151-.686 13.815 13.815 0 0 1-.08-.442l-.04-.25a15.062 15.062 0 0 1-.13-1.273c-.003-.06-.009-.118-.011-.178A15.165 15.165 0 0 1 0 15.01c0-.176.007-.35.013-.525.006-.179.016-.356.029-.534 0-.016.002-.031.003-.047.039-.526.104-1.044.196-1.554l.011-.065c.126-.683.298-1.35.514-1.998l.034-.103c.156-.456.332-.901.529-1.336l.052-.115c.063-.136.127-.27.194-.404l.055-.108c.144-.282.296-.559.457-.83l.005-.009a14.448 14.448 0 0 1 .318-.51A14.745 14.745 0 0 1 4.02 4.81l.122-.127c.16-.168.323-.331.49-.491l.128-.122c.2-.186.403-.367.612-.542l.017-.015c.231-.193.468-.379.71-.558l.003-.001c.23-.169.464-.33.703-.486l.108-.07c.217-.138.438-.272.662-.4l.09-.05A14.98 14.98 0 0 1 10.527.71l.042-.012c.197-.06.396-.117.597-.17l.204-.05c.156-.04.313-.076.472-.11.067-.014.134-.029.202-.042.218-.044.438-.084.66-.118l.024-.003c.215-.033.433-.06.652-.083l.206-.02c.167-.015.335-.028.504-.038l.206-.011c.23-.01.461-.018.694-.018a15.027 15.027 0 0 1 .873.027 15.436 15.436 0 0 1 1.587.177c.074.012.147.026.22.04.252.045.502.096.75.154l.08.019a15.103 15.103 0 0 1 2.44.811c.143.062.286.127.428.194.053.025.107.048.16.074.178.086.353.177.527.27l.2.11c.128.07.254.143.378.217.06.036.121.07.18.107.165.1.327.204.487.311.066.044.132.09.197.135.112.077.222.155.33.235.065.047.13.093.193.14.15.114.297.23.443.348.065.053.128.108.192.162.097.082.194.165.289.25l.194.173c.135.125.269.252.4.381l.18.183a15.506 15.506 0 0 1 .44.47 15.042 15.042 0 0 1 2.196 3.203l.052.101c.068.135.133.271.196.409l.05.108a14.855 14.855 0 0 1 1.08 3.455l.009.047c.093.52.16 1.049.198 1.586l.001.019c.013.181.023.363.029.546.005.17.013.34.013.512 0 .25-.007.5-.02.748-.001.039-.005.077-.007.117a15.194 15.194 0 0 1-.14 1.362c-.008.06-.019.12-.029.18a14.425 14.425 0 0 1-.335 1.542 15.102 15.102 0 0 1-.194.653c-.028.088-.058.174-.088.262-.068.196-.14.391-.215.584l-.07.177a15.7 15.7 0 0 1-.16.38l-.033.073c-.118.264-.242.523-.374.778l-.027.052c-.22.42-.458.83-.716 1.227-.23.356-.49.701-.735 1.035-.351.418-.672.817-1.037 1.198l-.014.014c-.48.498-.995.962-1.539 1.39l-.064.05c-.13.101-.26.2-.394.297l-.02.014a15.032 15.032 0 0 1-1.793 1.115l-.034.017c-.29.152-.586.295-.887.428l-.067.03a15.191 15.191 0 0 1-2.887.926l-.168.034a15.09 15.09 0 0 1-.624.112l-.125.017c-.19.028-.383.053-.576.074l-.128.014a14.937 14.937 0 0 1-.804.056"/>
            <path fill="#CEE6FF" d="M17.621 18.312l1.939-4.466-4.541-3.454-4.535 3.412 1.94 4.508h5.197zm0 0l1.939-4.466-4.541-3.454-4.535 3.412 1.94 4.508h5.197zm.638 1.016h-6.475L9.3 13.52l5.722-4.334 5.721 4.378-2.484 5.763z"/>
        </g>
    </g>
</svg>
