<svg xmlns="http://www.w3.org/2000/svg" xmlns:xlink="http://www.w3.org/1999/xlink" width="30" height="30" viewBox="0 0 30 30">
    <defs>
        <circle id="a" cx="6" cy="6" r="6"/>
        <circle id="c" cx="6" cy="6" r="6"/>
    </defs>
    <g fill="none" fill-rule="evenodd">
        <path fill="#FFE3CF" fill-rule="nonzero" stroke="#444" stroke-width="2" d="M1 2v24.913l9.362-7.528H29V2H1z"/>
        <g transform="translate(9 4.8)">
            <path d="M0 0h12v12H0z"/>
            <mask id="b" fill="#fff">
                <use xlink:href="#a"/>
            </mask>
            <circle cx="6" cy="6" r="5.611" stroke="#444" stroke-width=".778"/>
            <path fill="#CEF0AF" stroke="#444" stroke-linecap="round" stroke-linejoin="round" d="M2.484 1.071c.402.28.71.993.71.993s.347.228.456.518c.108.29.006.685.006.685s.307.852.162 1.09c-.144.24-.76.394-.76.394s-.253.444-.778.529c-.344.034-.688.256-.688.717 0 .461.49 1.212.49 1.212s.506.234.578.405c.073.17.097.568.097.568s.482.803.21 1.264c-.086.147-.488.256-.488.256l-.564.798C.651 9.057.013 7.522 0 5.895-.012 4.268.815 2.66 2.484 1.07zM10.5 2.346l-1.19.52s-.752.842-1.246.773c-.495-.07-.997-.627-.997-.627s.035-1.028-.121-1.08c-.156-.052-.572.226-.832.017-.26-.209-.11-.798-.11-.798S5.438.974 5.368.782C5.298.59 5.36.378 5.412.214 6.446.062 7.423.18 8.344.565c1.38.579 2.156 1.781 2.156 1.781zM10.472 6.49c.138.325-.26 1.153-.587 1.315-.433.214-.73.483-.85.67-.121.189-.28.963-.676 1.117-.397.154-1.338 1.03-1.838.894-.5-.137-.5-1.315-.156-1.845.206-.316-.034-1.007-.052-1.246-.017-.239-.741-.683-.742-.922 0-.376.829-1.366.829-1.366s.678-.222.885-.17c.207.05.598.29.598.29s.777.068 1.07.221l.418.39s.963.328 1.1.652z" mask="url(#b)"/>
            <use stroke="#444" stroke-width="1.5" xlink:href="#c"/>
        </g>
    </g>
</svg>
