<svg xmlns="http://www.w3.org/2000/svg" width="30" height="30" viewBox="0 0 30 30">
    <g fill="none" fill-rule="nonzero" stroke="#262628" stroke-width="2">
        <circle cx="7" cy="18" r="3" fill="#FFF"/>
        <circle cx="24" cy="18" r="3" fill="#FFF"/>
        <circle cx="16" cy="4" r="3" fill="#FFF"/>
        <path fill="#CEE6FF" d="M12 29v-2.983c0-.71-.341-1.363-.901-1.725C10.207 23.717 8.66 23 6.5 23c-2.189 0-3.725.713-4.607 1.288C1.337 24.65 1 25.301 1 26.007V29h11z"/>
        <path fill="#CEF0AF" d="M29 29v-2.983c0-.71-.341-1.363-.901-1.725C27.207 23.717 25.66 23 23.5 23c-2.189 0-3.725.713-4.607 1.288-.556.362-.893 1.013-.893 1.719V29h11z"/>
        <path fill="#FFE3CF" d="M21 15v-2.983c0-.71-.341-1.363-.901-1.725C19.207 9.717 17.66 9 15.5 9c-2.189 0-3.725.713-4.607 1.288-.556.362-.893 1.013-.893 1.719V15h11z"/>
    </g>
</svg>
