<svg xmlns="http://www.w3.org/2000/svg" width="30" height="30" viewBox="0 0 30 30">
    <g fill="none" fill-rule="evenodd">
        <ellipse cx="15.5" cy="15" fill="#FFE3CF" stroke="#444" stroke-width="2" rx="5.5" ry="15"/>
        <ellipse cx="15" cy="15" fill="#CEF0AF" stroke="#444" stroke-width="2" rx="5" ry="15" transform="rotate(60 15 15)"/>
        <ellipse cx="15" cy="15" fill="#CEE6FF" stroke="#444" stroke-width="2" rx="5" ry="15" transform="rotate(120 15 15)"/>
        <path fill="#FFF" stroke="#444" stroke-width="2" d="M10.752 22.1c-.478-2.184-.752-4.727-.752-7.441 0-.91.03-1.801.09-2.666a42.597 42.597 0 0 1 2.9-1.831c2.5-1.444 4.974-2.546 7.186-3.261.522 2.253.824 4.91.824 7.758 0 .783-.023 1.552-.067 2.302a42.561 42.561 0 0 1-2.943 1.86c-2.52 1.456-5.012 2.564-7.238 3.278z"/>
        <path fill="#FFF" stroke="#444" stroke-width="2" d="M10.068 16.969A39.376 39.376 0 0 1 10 14.653c0-2.844.301-5.5.822-7.752 2.208.715 4.675 1.815 7.168 3.255a42.58 42.58 0 0 1 2.921 1.846 39.2 39.2 0 0 1 .089 2.65c0 2.717-.275 5.262-.754 7.447-2.23-.714-4.729-1.824-7.256-3.283a42.579 42.579 0 0 1-2.922-1.847z"/>
        <path fill="#FFF" stroke="#444" stroke-width="2" d="M7.025 14.5c1.653-1.446 3.703-2.91 6.022-4.25A42.751 42.751 0 0 1 15.5 8.939c.809.399 1.63.837 2.453 1.313 2.319 1.338 4.369 2.803 6.022 4.249-1.653 1.446-3.703 2.91-6.022 4.25-.823.475-1.644.913-2.453 1.312-.809-.399-1.63-.837-2.453-1.313-2.319-1.338-4.369-2.803-6.022-4.249z"/>
        <path fill="#FFF" stroke="#444" stroke-width="2" d="M10.053 16.849a38.544 38.544 0 0 1 .041-4.727 41.924 41.924 0 0 1 5.567-3.286 41.924 41.924 0 0 1 5.227 3.05 38.072 38.072 0 0 1 .046 5.197 41.924 41.924 0 0 1-5.272 3.081 41.924 41.924 0 0 1-5.609-3.315z"/>
        <circle cx="15.5" cy="14.5" r="1.5" fill="#444"/>
    </g>
</svg>
