<?xml version="1.0" encoding="UTF-8" standalone="no"?>
<svg xmlns="http://www.w3.org/2000/svg" height="30px" width="87px" version="1.1" xmlns:xlink="http://www.w3.org/1999/xlink" viewBox="0 0 87 30"><!-- Generator: Sketch 43.1 (39012) - http://www.bohemiancoding.com/sketch -->
 <title>Page 1</title>
 <desc>Created with Sketch.</desc>
 <defs>
  <polygon id="path-1" points="0.14645 0.1683 40.204 0.1683 40.204 15.097 0.14645 15.097"/>
  <polygon id="path-3" points="30.793 18.7 0.19606 18.7 0.19606 0.073733 30.793 0.073733"/>
  <polygon id="path-5" points="30.654 18.7 0.057218 18.7 0.057218 0.073733 30.654 0.073733"/>
 </defs>
 <g id="Page-1" fill-rule="evenodd" fill="none">
  <g id="01_Desktop_Home" transform="translate(-596 -3010)">
   <g id="Stacked-Group">
    <g id="section/mid-bottom" transform="translate(0 1525)">
     <g id="section/bottom" transform="translate(0 1160)">
      <g id="Footer" transform="translate(0 300)">
       <g id="Page-1" transform="translate(596 25)">
        <g id="Group-3" transform="translate(23.315 .074559)">
         <path id="Fill-1" fill="#394146" mask="url(#mask-2)" d="m20.175 15.097c0.732-0.285 1.416-0.554 2.036-0.805 4.903-1.98 11.573-3.964 17.993-5.1109-5.809-5.6021-13.098-9.0128-20.029-9.0128-6.931-0.00005-14.219 3.4107-20.029 9.0128 6.4203 1.1469 13.09 3.1309 17.994 5.1109 0.62 0.251 1.304 0.52 2.035 0.805"/>
        </g>
        <g id="Group-6" transform="translate(11.657 10.76)">
         <path id="Fill-4" fill="#394146" mask="url(#mask-4)" d="m29.665 5.5517c-0.019-0.0073-0.037-0.0148-0.056-0.0221-0.002-0.0007-0.004-0.0014-0.006-0.0024-0.292-0.1156-0.576-0.2285-0.845-0.3376-0.004-0.0017-0.009-0.0034-0.013-0.0051-0.275-0.111-0.558-0.2222-0.844-0.3332-0.036-0.0141-0.073-0.0284-0.11-0.0425-0.021-0.008-0.042-0.0163-0.062-0.0243-0.282-0.1083-0.567-0.2164-0.858-0.3244-0.006-0.0025-0.014-0.0049-0.021-0.0076-0.038-0.014-0.077-0.0284-0.116-0.0427-0.278-0.1027-0.56-0.2047-0.846-0.3067-0.035-0.0129-0.07-0.0255-0.106-0.0382-0.309-0.1095-0.622-0.2183-0.939-0.3269l-0.096-0.0327c-0.023-0.0073-0.044-0.0149-0.066-0.0224-0.658-0.2234-1.332-0.4437-2.02-0.6603-0.026-0.0083-0.053-0.0165-0.079-0.0248-0.014-0.0046-0.028-0.009-0.042-0.0134-0.346-0.1085-0.696-0.2156-1.048-0.3218-0.017-0.0051-0.034-0.0102-0.051-0.015-0.01-0.0032-0.019-0.0058-0.029-0.009-0.728-0.2181-1.467-0.4311-2.216-0.6373-0.006-0.0014-0.012-0.0031-0.018-0.0048-0.023-0.0066-0.047-0.0129-0.07-0.0192-0.761-0.2089-1.532-0.4109-2.308-0.6043-0.01-0.0024-0.019-0.0048-0.029-0.0072-0.393-0.0979-0.788-0.1936-1.184-0.2869-0.005-0.0012-0.009-0.0021-0.014-0.0034-0.793-0.18696-1.59-0.36425-2.388-0.53037-0.005-0.00097-0.01-0.00219-0.015-0.00316-0.007-0.00121-0.013-0.00267-0.02-0.00413-0.801-0.1666-1.602-0.32179-2.398-0.46411-4.9417 4.7647-8.811 11.115-10.479 18.303l-0.07694 0.318c2.3579 0.098 4.5264-1.18 5.2062-1.56 8.6497-4.829 19.188-10.167 25.378-11.145 0.004 0.0016 0.009 0.003 0.013 0.0047-0.391-0.1525-0.767-0.3002-1.128-0.443"/>
        </g>
        <path id="Fill-7" fill="#394146" d="m10.187 28.611c1.668-7.187 5.389-13.537 10.329-18.302-9.544-1.7048-18.386-1.5574-20.193 3.219-1.2738 3.369 1.3333 8.452 5.809 13.468 1.2272 1.376 2.6334 2.207 3.979 2.263 0 0 0.004-0.103 0.026-0.302 0.023-0.21 0.05-0.346 0.05-0.346"/>
        <g id="Group-11" transform="translate(44.444 10.76)">
         <path id="Fill-9" fill="#394146" mask="url(#mask-6)" d="m1.1853 5.5517c0.0185-0.0073 0.0372-0.0148 0.0559-0.0221 0.0019-0.0007 0.0039-0.0014 0.0058-0.0024 0.2922-0.1156 0.5756-0.2285 0.8452-0.3376 0.0043-0.0017 0.0089-0.0034 0.0131-0.0051 0.2751-0.111 0.5578-0.2222 0.8439-0.3332 0.0364-0.0141 0.0729-0.0284 0.1098-0.0425 0.0209-0.008 0.0415-0.0163 0.0627-0.0243 0.2809-0.1083 0.5668-0.2164 0.8573-0.3244 0.0068-0.0025 0.0138-0.0049 0.0206-0.0076 0.0386-0.014 0.0775-0.0284 0.1161-0.0427 0.2783-0.1027 0.5603-0.2047 0.8466-0.3067 0.0352-0.0129 0.0702-0.0255 0.1056-0.0382 0.309-0.1095 0.6225-0.2183 0.9394-0.3269 0.0319-0.0109 0.0642-0.0218 0.0962-0.0327l0.0661-0.0224c0.6572-0.2234 1.3313-0.4437 2.0194-0.6603l0.0789-0.0248c0.0143-0.0046 0.0284-0.009 0.0425-0.0134 0.3463-0.1085 0.6956-0.2156 1.0482-0.3218 0.0168-0.0051 0.0335-0.0102 0.0503-0.015 0.0097-0.0032 0.0194-0.0058 0.0294-0.009 0.7277-0.2181 1.4667-0.4311 2.2157-0.6373 0.006-0.0014 0.012-0.0031 0.018-0.0048 0.023-0.0066 0.047-0.0129 0.07-0.0192 0.762-0.2089 1.532-0.4109 2.308-0.6043 0.01-0.0024 0.019-0.0048 0.029-0.0072 0.393-0.0979 0.788-0.1936 1.184-0.2869 0.005-0.0012 0.01-0.0021 0.014-0.0034 0.794-0.18696 1.591-0.36425 2.388-0.53037 0.005-0.00097 0.01-0.00219 0.016-0.00316 0.006-0.00121 0.012-0.00267 0.019-0.00413 0.801-0.1666 1.602-0.32179 2.399-0.46411 4.941 4.7647 8.81 11.115 10.479 18.303l0.076 0.318c-2.358 0.098-4.527-1.18-5.206-1.56-8.65-4.829-19.188-10.167-25.378-11.145-0.004282 0.0016-0.00841 0.003-0.012782 0.0047 0.39101-0.1525 0.7672-0.3002 1.1281-0.443"/>
        </g>
        <path id="Fill-12" fill="#394146" d="m76.765 28.611c-1.669-7.187-5.389-13.537-10.33-18.302 9.545-1.7048 18.387-1.5574 20.193 3.219 1.274 3.369-1.333 8.452-5.809 13.468-1.227 1.376-2.633 2.207-3.978 2.263 0 0-0.005-0.103-0.026-0.302-0.024-0.21-0.05-0.346-0.05-0.346"/>
       </g>
      </g>
     </g>
    </g>
   </g>
  </g>
 </g>
</svg>
