<?xml version="1.0" encoding="UTF-8"?>
<svg width="50px" height="52px" viewBox="0 0 50 52" version="1.1" xmlns="http://www.w3.org/2000/svg" xmlns:xlink="http://www.w3.org/1999/xlink">
    <!-- Generator: Sketch 43.1 (39012) - http://www.bohemiancoding.com/sketch -->
    <title>icon/members</title>
    <desc>Created with Sketch.</desc>
    <defs></defs>
    <g id="Symbols" stroke="none" stroke-width="1" fill="none" fill-rule="evenodd" stroke-linecap="round" stroke-linejoin="round">
        <g id="icon/members" transform="translate(0.000000, 1.000000)" stroke="#47474F" stroke-width="2">
            <g transform="translate(1.000000, 0.000000)">
                <path d="M24,26 L24,26 C17.3724,26 12,20.709 12,14.1818182 L12,11.8181818 C12,5.291 17.3724,0 24,0 C30.6276,0 36,5.291 36,11.8181818 L36,14.1818182 C36,20.709 30.6276,26 24,26 L24,26 Z" id="Stroke-324"></path>
                <path d="M48,44.8818182 C48,41.3579545 40.144753,31.8181818 24,31.8181818 C7.85524695,31.8181818 0,41.3579545 0,44.8818182 L0,50 L48,50 L48,44.8818182 Z" id="Stroke-325"></path>
            </g>
        </g>
    </g>
</svg>