<?xml version="1.0" encoding="UTF-8"?>
<svg width="104px" height="104px" viewBox="0 0 104 104" version="1.1" xmlns="http://www.w3.org/2000/svg" xmlns:xlink="http://www.w3.org/1999/xlink">
    <!-- Generator: Sketch 43.1 (39012) - http://www.bohemiancoding.com/sketch -->
    <title>Page 1</title>
    <desc>Created with Sketch.</desc>
    <defs></defs>
    <g id="Page-1" stroke="none" stroke-width="1" fill="none" fill-rule="evenodd" stroke-linecap="round" stroke-linejoin="round">
        <g id="01_Desktop_Home" transform="translate(-248.000000, -1593.000000)" stroke="#47474F" stroke-width="4">
            <g id="Stacked-Group">
                <g id="section/mid-bottom" transform="translate(0.000000, 1525.000000)">
                    <g id="section/icon-contents">
                        <g id="Stacked-Group" transform="translate(160.000000, 69.000000)">
                            <g id="Stacked-Group-2" transform="translate(0.000000, 1.000000)">
                                <g id="Page-1" transform="translate(90.000000, 0.000000)">
                                    <path d="M9.5965,68.9119 C4.2965,68.9119 -0.0005,64.6589 -0.0005,59.4079 C-0.0005,54.1569 4.2965,49.8999 9.5965,49.8999 C14.8965,49.8999 19.1925,54.1569 19.1925,59.4079 C19.1925,64.6589 14.8965,68.9119 9.5965,68.9119 Z" id="Stroke-1"></path>
                                    <path d="M28.7889,19.0091 C23.4889,19.0091 19.1929,14.7521 19.1929,9.5051 C19.1929,4.2571 23.4919,0.0001 28.7889,0.0001 C34.0889,0.0001 38.3849,4.2571 38.3849,9.5051 C38.3849,14.7521 34.0889,19.0091 28.7889,19.0091 Z" id="Stroke-3"></path>
                                    <path d="M61.1819,99.428 C55.8819,99.428 51.5859,95.172 51.5859,89.924 C51.5859,84.676 55.8819,80.416 61.1819,80.416 C66.4819,80.416 70.7779,84.673 70.7779,89.924 C70.7779,95.175 66.4819,99.428 61.1819,99.428 Z" id="Stroke-5"></path>
                                    <path d="M89.971,57.0325 C84.674,57.0325 80.378,52.7765 80.378,47.5285 C80.378,42.2775 84.674,38.0205 89.971,38.0205 C95.271,38.0205 99.567,42.2775 99.567,47.5285 C99.571,52.7765 95.271,57.0325 89.971,57.0325 Z" id="Stroke-7"></path>
                                    <path d="M70.7781,19.0091 C65.4781,19.0091 61.1821,14.7521 61.1821,9.5051 C61.1821,4.2571 65.4781,0.0001 70.7781,0.0001 C76.0781,0.0001 80.3751,4.2571 80.3751,9.5051 C80.3751,14.7521 76.0781,19.0091 70.7781,19.0091 Z" id="Stroke-9"></path>
                                    <path d="M52.2835,83.9807 L18.8935,63.5667" id="Stroke-11"></path>
                                    <path d="M60.8797,10.7513 L39.2857,10.7513" id="Stroke-13"></path>
                                    <path d="M80.0721,48.1194 L20.3921,57.6234" id="Stroke-15"></path>
                                    <path d="M63.8792,16.6336 L17.6942,52.5746" id="Stroke-17"></path>
                                    <path d="M86.6693,37.7249 L75.5753,18.1219" id="Stroke-19"></path>
                                    <path d="M58.8802,79.5257 L33.5882,18.1187" id="Stroke-21"></path>
                                </g>
                            </g>
                        </g>
                    </g>
                </g>
            </g>
        </g>
    </g>
</svg>