<svg width="28" height="28" viewBox="0 0 28 28" fill="none" xmlns="http://www.w3.org/2000/svg">
<path fill-rule="evenodd" clip-rule="evenodd" d="M13.9998 3.33341C8.1088 3.33341 3.33317 8.10904 3.33317 14.0001C3.33317 19.8911 8.1088 24.6667 13.9998 24.6667C19.8909 24.6667 24.6665 19.8911 24.6665 14.0001C24.6665 8.10904 19.8909 3.33342 13.9998 3.33341ZM0.666504 14.0001C0.666505 6.63628 6.63604 0.666747 13.9998 0.666748C21.3636 0.666749 27.3332 6.63629 27.3332 14.0001C27.3332 21.3639 21.3636 27.3334 13.9998 27.3334C6.63604 27.3334 0.666503 21.3639 0.666504 14.0001ZM13.6093 9.05727C14.13 9.57797 14.13 10.4222 13.6093 10.9429L11.8855 12.6667L19.3332 12.6667C20.0695 12.6667 20.6665 13.2637 20.6665 14.0001C20.6665 14.7365 20.0695 15.3334 19.3332 15.3334L11.8855 15.3334L13.6093 17.0573C14.13 17.578 14.13 18.4222 13.6093 18.9429C13.0886 19.4636 12.2444 19.4636 11.7237 18.9429L7.72369 14.9429C7.203 14.4222 7.203 13.578 7.72369 13.0573L11.7237 9.05727C12.2444 8.53657 13.0886 8.53657 13.6093 9.05727Z" fill="#137D60"/>
</svg>
