<svg width="28" height="28" viewBox="0 0 28 28" fill="none" xmlns="http://www.w3.org/2000/svg">
<path fill-rule="evenodd" clip-rule="evenodd" d="M14 3.33335C8.10898 3.33335 3.33335 8.10898 3.33335 14C3.33335 19.8911 8.10898 24.6667 14 24.6667C19.8911 24.6667 24.6667 19.8911 24.6667 14C24.6667 8.10898 19.8911 3.33335 14 3.33335ZM0.666687 14C0.666687 6.63622 6.63622 0.666687 14 0.666687C21.3638 0.666687 27.3334 6.63622 27.3334 14C27.3334 21.3638 21.3638 27.3334 14 27.3334C6.63622 27.3334 0.666687 21.3638 0.666687 14ZM14.3905 9.05721C14.9112 8.53651 15.7555 8.53651 16.2762 9.05721L20.2762 13.0572C20.7969 13.5779 20.7969 14.4221 20.2762 14.9428L16.2762 18.9428C15.7555 19.4635 14.9112 19.4635 14.3905 18.9428C13.8698 18.4221 13.8698 17.5779 14.3905 17.0572L16.1144 15.3334L8.66669 15.3334C7.93031 15.3334 7.33335 14.7364 7.33335 14C7.33335 13.2636 7.93031 12.6667 8.66669 12.6667L16.1144 12.6667L14.3905 10.9428C13.8698 10.4221 13.8698 9.57791 14.3905 9.05721Z" fill="#137D60"/>
</svg>
