<svg width="28" height="22" viewBox="0 0 28 22" fill="none" xmlns="http://www.w3.org/2000/svg">
    <path fill-rule="evenodd" clip-rule="evenodd" d="M0.666646 4.33337C0.666646 2.12423 2.45751 0.333374 4.66665 0.333374H23.3333C25.5425 0.333374 27.3333 2.12424 27.3333 4.33337V5.64602C27.3335 5.659 27.3335 5.67198 27.3333 5.68495V17.6667C27.3333 19.8758 25.5425 21.6667 23.3333 21.6667H4.66665C2.45751 21.6667 0.666646 19.8758 0.666646 17.6667V5.68494C0.666457 5.67197 0.666457 5.659 0.666646 5.64603V4.33337ZM3.33331 8.15806V17.6667C3.33331 18.4031 3.93027 19 4.66665 19H23.3333C24.0697 19 24.6666 18.4031 24.6666 17.6667V8.15806L16.2188 13.79C14.8752 14.6857 13.1248 14.6857 11.7812 13.79L3.33331 8.15806ZM24.6666 4.95313L14.7396 11.5712C14.2917 11.8698 13.7082 11.8698 13.2604 11.5712L3.33331 4.95313V4.33337C3.33331 3.59699 3.93027 3.00004 4.66665 3.00004H23.3333C24.0697 3.00004 24.6666 3.59699 24.6666 4.33337V4.95313Z" fill="#2A2A2A"/>
    <path fill-rule="evenodd" clip-rule="evenodd" d="M0.666646 4.33337C0.666646 2.12423 2.45751 0.333374 4.66665 0.333374H23.3333C25.5425 0.333374 27.3333 2.12424 27.3333 4.33337V5.64602C27.3335 5.659 27.3335 5.67198 27.3333 5.68495V17.6667C27.3333 19.8758 25.5425 21.6667 23.3333 21.6667H4.66665C2.45751 21.6667 0.666646 19.8758 0.666646 17.6667V5.68494C0.666457 5.67197 0.666457 5.659 0.666646 5.64603V4.33337ZM3.33331 8.15806V17.6667C3.33331 18.4031 3.93027 19 4.66665 19H23.3333C24.0697 19 24.6666 18.4031 24.6666 17.6667V8.15806L16.2188 13.79C14.8752 14.6857 13.1248 14.6857 11.7812 13.79L3.33331 8.15806ZM24.6666 4.95313L14.7396 11.5712C14.2917 11.8698 13.7082 11.8698 13.2604 11.5712L3.33331 4.95313V4.33337C3.33331 3.59699 3.93027 3.00004 4.66665 3.00004H23.3333C24.0697 3.00004 24.6666 3.59699 24.6666 4.33337V4.95313Z" fill="black" fill-opacity="0.2"/>
</svg>
