<svg width="28" height="27" viewBox="0 0 28 27" fill="none" xmlns="http://www.w3.org/2000/svg">
    <path fill-rule="evenodd" clip-rule="evenodd" d="M0.666748 4C0.666748 1.79086 2.45761 0 4.66675 0H18.0001C20.2092 0 22.0001 1.79086 22.0001 4V5.33333H23.3334C25.5426 5.33333 27.3334 7.12419 27.3334 9.33333V17.3333C27.3334 19.5425 25.5426 21.3333 23.3334 21.3333H22.0001V25.3333C22.0001 25.8726 21.6752 26.3588 21.177 26.5652C20.6788 26.7715 20.1053 26.6575 19.7239 26.2761L14.7811 21.3333H10.0001C9.38305 21.3333 8.79798 21.1931 8.27578 20.9433C7.89445 21.3242 7.32121 21.4381 6.82317 21.2318C6.32494 21.0255 6.00008 20.5393 6.00008 20V16H4.66675C2.45761 16 0.666748 14.2091 0.666748 12V4ZM10.5524 18.6667H15.3334C15.687 18.6667 16.0262 18.8071 16.2762 19.0572L19.3334 22.1144V20C19.3334 19.2636 19.9304 18.6667 20.6667 18.6667H23.3334C24.0698 18.6667 24.6667 18.0697 24.6667 17.3333V9.33333C24.6667 8.59695 24.0698 8 23.3334 8H22.0001V12C22.0001 14.2091 20.2092 16 18.0001 16H13.219L10.5524 18.6667ZM19.3334 4C19.3334 3.26362 18.7365 2.66667 18.0001 2.66667H4.66675C3.93037 2.66667 3.33341 3.26362 3.33341 4V12C3.33341 12.7364 3.93037 13.3333 4.66675 13.3333H7.33342C8.06979 13.3333 8.66675 13.9303 8.66675 14.6667V16.781L11.7239 13.7239C11.974 13.4738 12.3131 13.3333 12.6667 13.3333H18.0001C18.7365 13.3333 19.3334 12.7364 19.3334 12V4Z" fill="#2A2A2A"/>
    <path fill-rule="evenodd" clip-rule="evenodd" d="M0.666748 4C0.666748 1.79086 2.45761 0 4.66675 0H18.0001C20.2092 0 22.0001 1.79086 22.0001 4V5.33333H23.3334C25.5426 5.33333 27.3334 7.12419 27.3334 9.33333V17.3333C27.3334 19.5425 25.5426 21.3333 23.3334 21.3333H22.0001V25.3333C22.0001 25.8726 21.6752 26.3588 21.177 26.5652C20.6788 26.7715 20.1053 26.6575 19.7239 26.2761L14.7811 21.3333H10.0001C9.38305 21.3333 8.79798 21.1931 8.27578 20.9433C7.89445 21.3242 7.32121 21.4381 6.82317 21.2318C6.32494 21.0255 6.00008 20.5393 6.00008 20V16H4.66675C2.45761 16 0.666748 14.2091 0.666748 12V4ZM10.5524 18.6667H15.3334C15.687 18.6667 16.0262 18.8071 16.2762 19.0572L19.3334 22.1144V20C19.3334 19.2636 19.9304 18.6667 20.6667 18.6667H23.3334C24.0698 18.6667 24.6667 18.0697 24.6667 17.3333V9.33333C24.6667 8.59695 24.0698 8 23.3334 8H22.0001V12C22.0001 14.2091 20.2092 16 18.0001 16H13.219L10.5524 18.6667ZM19.3334 4C19.3334 3.26362 18.7365 2.66667 18.0001 2.66667H4.66675C3.93037 2.66667 3.33341 3.26362 3.33341 4V12C3.33341 12.7364 3.93037 13.3333 4.66675 13.3333H7.33342C8.06979 13.3333 8.66675 13.9303 8.66675 14.6667V16.781L11.7239 13.7239C11.974 13.4738 12.3131 13.3333 12.6667 13.3333H18.0001C18.7365 13.3333 19.3334 12.7364 19.3334 12V4Z" fill="black" fill-opacity="0.2"/>
</svg>
