<svg xmlns="http://www.w3.org/2000/svg" width="30" height="32" viewBox="0 0 30 32">
  <g>
    <g>
      <path fill="#ffe3cf" d="M27.466 19.66c-.989-1.067-2.077-2.279-2.077-4.605V11.08C25.389 5.7 20.54 1 15 1 9.46 1 4.611 5.75 4.611 11.178v3.877c0 2.326-1.088 3.538-2.077 4.604C1.742 20.532 1 21.355 1 22.616c0 2.665 5.64 4.458 14 4.458s14-1.793 14-4.458c0-1.212-.742-2.084-1.534-2.957z"/>
      <path fill="none" stroke="#444" stroke-miterlimit="20" stroke-width="2" d="M27.466 19.66c-.989-1.067-2.077-2.279-2.077-4.605V11.08C25.389 5.7 20.54 1 15 1 9.46 1 4.611 5.75 4.611 11.178v3.877c0 2.326-1.088 3.538-2.077 4.604C1.742 20.532 1 21.355 1 22.616c0 2.665 5.64 4.458 14 4.458s14-1.793 14-4.458c0-1.212-.742-2.084-1.534-2.957z"/>
    </g>
    <g>
      <path fill="none" stroke="#444" stroke-linecap="round" stroke-miterlimit="20" stroke-width="2" d="M10.65 27.85c.544 1.842 2.276 3.15 4.353 3.15 2.078 0 3.81-1.357 4.354-3.15"/>
    </g>
  </g>
</svg>