<svg width="28" height="28" viewBox="0 0 28 28" fill="none" xmlns="http://www.w3.org/2000/svg">
  <path fill-rule="evenodd" clip-rule="evenodd" d="M14.0001 3.33332C8.10904 3.33332 3.33341 8.10895 3.33341 14C3.33341 19.891 8.10904 24.6667 14.0001 24.6667C19.8911 24.6667 24.6667 19.891 24.6667 14C24.6667 8.10895 19.8911 3.33332 14.0001 3.33332ZM0.666748 14C0.666748 6.63619 6.63628 0.666656 14.0001 0.666656C21.3639 0.666656 27.3334 6.63619 27.3334 14C27.3334 21.3638 21.3639 27.3333 14.0001 27.3333C6.63628 27.3333 0.666748 21.3638 0.666748 14ZM14.0001 5.99999C14.7365 5.99999 15.3334 6.59694 15.3334 7.33332V7.45647C16.5874 7.69219 17.722 8.26181 18.472 9.12615C18.9546 9.68234 18.895 10.5245 18.3388 11.0071C17.7826 11.4897 16.9405 11.43 16.4579 10.8738C16.2412 10.6241 15.8548 10.3703 15.3334 10.201L15.3334 12.7893C16.1622 12.945 16.9288 13.2454 17.5681 13.6716C18.5304 14.3131 19.3334 15.3458 19.3334 16.6667C19.3334 17.9875 18.5304 19.0202 17.5681 19.6617C16.9288 20.0879 16.1622 20.3884 15.3334 20.544L15.3334 20.6667C15.3334 21.4031 14.7364 22 14.0001 22C13.2637 22 12.6667 21.403 12.6667 20.6666L12.6668 20.5435C11.4128 20.3078 10.2782 19.7382 9.52817 18.8738C9.04556 18.3176 9.10521 17.4755 9.6614 16.9929C10.2176 16.5103 11.0597 16.57 11.5423 17.1262C11.759 17.3759 12.1454 17.6297 12.6668 17.799L12.6668 15.2107C11.838 15.055 11.0714 14.7546 10.4321 14.3283C9.46982 13.6869 8.66675 12.6542 8.66675 11.3333C8.66675 10.0124 9.46982 8.9798 10.4321 8.3383C11.0714 7.91208 11.838 7.61163 12.6667 7.45598V7.33332C12.6667 6.59694 13.2637 5.99999 14.0001 5.99999ZM12.6668 10.2013C12.3726 10.2965 12.1177 10.4195 11.9113 10.5571C11.4258 10.8808 11.3334 11.1815 11.3334 11.3333C11.3334 11.4852 11.4258 11.7859 11.9113 12.1095C12.1177 12.2471 12.3726 12.3701 12.6668 12.4653L12.6668 10.2013ZM15.3334 15.5347L15.3334 17.7986C15.6276 17.7035 15.8825 17.5805 16.0889 17.4429C16.5744 17.1192 16.6668 16.8185 16.6668 16.6667C16.6668 16.5148 16.5744 16.2141 16.0889 15.8904C15.8825 15.7528 15.6276 15.6299 15.3334 15.5347Z" fill="#2A2A2A"/>
  <path fill-rule="evenodd" clip-rule="evenodd" d="M14.0001 3.33332C8.10904 3.33332 3.33341 8.10895 3.33341 14C3.33341 19.891 8.10904 24.6667 14.0001 24.6667C19.8911 24.6667 24.6667 19.891 24.6667 14C24.6667 8.10895 19.8911 3.33332 14.0001 3.33332ZM0.666748 14C0.666748 6.63619 6.63628 0.666656 14.0001 0.666656C21.3639 0.666656 27.3334 6.63619 27.3334 14C27.3334 21.3638 21.3639 27.3333 14.0001 27.3333C6.63628 27.3333 0.666748 21.3638 0.666748 14ZM14.0001 5.99999C14.7365 5.99999 15.3334 6.59694 15.3334 7.33332V7.45647C16.5874 7.69219 17.722 8.26181 18.472 9.12615C18.9546 9.68234 18.895 10.5245 18.3388 11.0071C17.7826 11.4897 16.9405 11.43 16.4579 10.8738C16.2412 10.6241 15.8548 10.3703 15.3334 10.201L15.3334 12.7893C16.1622 12.945 16.9288 13.2454 17.5681 13.6716C18.5304 14.3131 19.3334 15.3458 19.3334 16.6667C19.3334 17.9875 18.5304 19.0202 17.5681 19.6617C16.9288 20.0879 16.1622 20.3884 15.3334 20.544L15.3334 20.6667C15.3334 21.4031 14.7364 22 14.0001 22C13.2637 22 12.6667 21.403 12.6667 20.6666L12.6668 20.5435C11.4128 20.3078 10.2782 19.7382 9.52817 18.8738C9.04556 18.3176 9.10521 17.4755 9.6614 16.9929C10.2176 16.5103 11.0597 16.57 11.5423 17.1262C11.759 17.3759 12.1454 17.6297 12.6668 17.799L12.6668 15.2107C11.838 15.055 11.0714 14.7546 10.4321 14.3283C9.46982 13.6869 8.66675 12.6542 8.66675 11.3333C8.66675 10.0124 9.46982 8.9798 10.4321 8.3383C11.0714 7.91208 11.838 7.61163 12.6667 7.45598V7.33332C12.6667 6.59694 13.2637 5.99999 14.0001 5.99999ZM12.6668 10.2013C12.3726 10.2965 12.1177 10.4195 11.9113 10.5571C11.4258 10.8808 11.3334 11.1815 11.3334 11.3333C11.3334 11.4852 11.4258 11.7859 11.9113 12.1095C12.1177 12.2471 12.3726 12.3701 12.6668 12.4653L12.6668 10.2013ZM15.3334 15.5347L15.3334 17.7986C15.6276 17.7035 15.8825 17.5805 16.0889 17.4429C16.5744 17.1192 16.6668 16.8185 16.6668 16.6667C16.6668 16.5148 16.5744 16.2141 16.0889 15.8904C15.8825 15.7528 15.6276 15.6299 15.3334 15.5347Z" fill="black" fill-opacity="0.2"/>
</svg>
