<svg xmlns="http://www.w3.org/2000/svg" viewBox="0 0 34 30">
  <path d="M27.4 29.1H6.6c-.7 0-1.2-.5-1.2-1.2V2.1c0-.7.5-1.2 1.2-1.2h14.7l7.4 7.4v19.6c0 .7-.6 1.2-1.3 1.2z" fill="#e5e5e4" stroke="#444445" stroke-width="2"/>
  <path d="M21.3.9V7c0 .7.5 1.2 1.2 1.2h6.1L21.3.9z" fill="#444445"/>
  <path d="M17.6 16.5v-5c1.4 0 2.5 1.1 2.5 2.5 0 .3.3.6.6.6s.6-.3.6-.6c0-2-1.7-3.7-3.7-3.7v-.7c0-.3-.3-.6-.6-.6s-.6.3-.6.6v.6c-2 0-3.7 1.7-3.7 3.7 0 2.4 1.9 3.1 3.7 3.5v5c-1.4 0-2.5-1.1-2.5-2.5 0-.3-.3-.6-.6-.6s-.6.3-.6.6c0 2 1.7 3.7 3.7 3.7v.6c0 .3.3.6.6.6s.6-.3.6-.6v-.6c2 0 3.7-1.7 3.7-3.7 0-2.2-1.9-2.9-3.7-3.4zm-3.7-2.6c0-1.4 1.1-2.5 2.5-2.5v4.7c-1.6-.3-2.5-.8-2.5-2.2zm3.7 8.6v-4.7c1.5.4 2.5.9 2.5 2.3 0 1.3-1.1 2.4-2.5 2.4z" fill="#74c172"/>
</svg>
