<?xml version="1.0" encoding="utf-8"?>
<!-- Generator: Adobe Illustrator 22.0.0, SVG Export Plug-In . SVG Version: 6.00 Build 0)  -->
<svg version="1.1" id="Layer_1" xmlns="http://www.w3.org/2000/svg" xmlns:xlink="http://www.w3.org/1999/xlink" x="0px" y="0px"
	 viewBox="0 0 34 30" style="enable-background:new 0 0 34 30;" xml:space="preserve">
<style type="text/css">
	.st0{fill:#E5E5E4;stroke:#444445;stroke-width:2;}
	.st1{fill:#444445;}
	.st2{fill:#74C172;}
</style>
<g>
	<path class="st0" d="M27.4,29.1H6.6c-0.7,0-1.2-0.5-1.2-1.2V2.1c0-0.7,0.5-1.2,1.2-1.2h14.7l7.4,7.4v19.6
		C28.7,28.6,28.1,29.1,27.4,29.1z"/>
	<path class="st1" d="M21.3,0.9V7c0,0.7,0.5,1.2,1.2,1.2h6.1L21.3,0.9z"/>
	<path class="st2" d="M17.6,16.5v-5c1.4,0,2.5,1.1,2.5,2.5c0,0.3,0.3,0.6,0.6,0.6c0.3,0,0.6-0.3,0.6-0.6c0-2-1.7-3.7-3.7-3.7V9.6
		C17.6,9.3,17.3,9,17,9s-0.6,0.3-0.6,0.6v0.6c-2,0-3.7,1.7-3.7,3.7c0,2.4,1.9,3.1,3.7,3.5v5c-1.4,0-2.5-1.1-2.5-2.5
		c0-0.3-0.3-0.6-0.6-0.6s-0.6,0.3-0.6,0.6c0,2,1.7,3.7,3.7,3.7v0.6c0,0.3,0.3,0.6,0.6,0.6s0.6-0.3,0.6-0.6v-0.6c2,0,3.7-1.7,3.7-3.7
		C21.3,17.7,19.4,17,17.6,16.5z M13.9,13.9c0-1.4,1.1-2.5,2.5-2.5v4.7C14.8,15.8,13.9,15.3,13.9,13.9z M17.6,22.5v-4.7
		c1.5,0.4,2.5,0.9,2.5,2.3C20.1,21.4,19,22.5,17.6,22.5z"/>
</g>
</svg>
