<?xml version="1.0" encoding="UTF-8"?>
<svg width="35px" height="35px" viewBox="0 0 35 35" version="1.1" xmlns="http://www.w3.org/2000/svg" xmlns:xlink="http://www.w3.org/1999/xlink">
    <!-- Generator: Sketch 44.1 (41455) - http://www.bohemiancoding.com/sketch -->
    <title>icon twitter</title>
    <desc>Created with Sketch.</desc>
    <defs></defs>
    <g id="Styleguide" stroke="none" stroke-width="1" fill="none" fill-rule="evenodd">
        <g transform="translate(-1321.000000, -1475.000000)" id="Right-column">
            <g transform="translate(1259.000000, 207.000000)">
                <g id="Group" transform="translate(20.000000, 1243.000000)">
                    <g id="social-icons" transform="translate(0.000000, 25.000000)">
                        <g id="icon-twitter" transform="translate(42.000000, 0.000000)">
                            <circle id="Oval-2" fill="#26ADE9" cx="17.5" cy="17.5" r="17.5"></circle>
                            <path d="M26.9640673,13.9041833 L28.2277574,13.3953366 L26.2173266,12.6839234 C25.6342596,11.1178423 24.1304068,10 22.361111,10 C20.0862096,10 18.2423694,11.8438402 18.2423694,14.1177693 C18.2423694,14.3200115 18.2618158,14.5173922 18.2900131,14.7118559 C17.6677291,14.748804 15.4391749,14.7983923 13.6656658,13.7625489 C11.5375845,12.5189534 9.7410638,10.3873069 9.7410638,10.3873069 C9.7410638,10.3873069 9.05006938,12.4881633 9.46686996,13.848437 C9.89728299,15.2531133 11.4824864,16.219598 11.4824864,16.219598 L9.27110981,15.5418919 C9.27110981,15.5418919 9.13660574,16.8548461 10.1001735,17.8997645 C11.1506017,19.0386737 12.3805847,19.6463728 12.3805847,19.6463728 L10.6806477,19.6878584 C10.6806477,19.6878584 11.0122083,21.0004885 12.2836769,21.8849744 C12.89721,22.3114981 13.7541468,22.5182779 14.4778759,22.619399 C14.3391585,22.7253817 14.1984964,22.8310404 14.0529727,22.9350785 C12.1501452,24.2966486 8.5804395,24.0957028 8.5804395,24.0957028 C8.5804395,24.0957028 11.5100354,26.2519813 14.4950535,25.9755187 C16.4766389,25.7923987 18.8844238,26.083122 22.7312403,22.65894 C25.5590669,20.1419312 26.2542747,16.7209903 26.4241064,15.0777718 L28.2277574,14.3511257 L26.9640673,13.9041833 Z" id="Fill-1" fill="#FFFFFF"></path>
                        </g>
                    </g>
                </g>
            </g>
        </g>
    </g>
</svg>