<svg width="24" height="24" viewBox="0 0 24 24" fill="none" xmlns="http://www.w3.org/2000/svg">
<rect width="24" height="24" rx="12" fill="#137D60"/>
<path fill-rule="evenodd" clip-rule="evenodd" d="M17.998 9.058C17.593 9.238 17.158 9.359 16.702 9.413C17.1731 9.1311 17.5257 8.68755 17.694 8.165C17.251 8.42784 16.7664 8.61301 16.261 8.7125C15.9214 8.34913 15.4712 8.10814 14.9805 8.027C14.4898 7.94586 13.9861 8.02911 13.5476 8.26382C13.1091 8.49852 12.7604 8.87152 12.5558 9.32484C12.3511 9.77815 12.302 10.2864 12.416 10.7705C11.5189 10.7255 10.6414 10.4924 9.84028 10.0863C9.03918 9.68012 8.33246 9.11002 7.766 8.413C7.565 8.75743 7.45938 9.1492 7.46 9.54799C7.45978 9.91942 7.55131 10.2852 7.72647 10.6127C7.90162 10.9402 8.15497 11.2194 8.464 11.4255C8.10572 11.4143 7.7553 11.3176 7.442 11.1435V11.172C7.44205 11.693 7.62231 12.198 7.9522 12.6012C8.2821 13.0045 8.74133 13.2812 9.252 13.3845C8.91938 13.4749 8.57049 13.4881 8.232 13.423C8.37615 13.8715 8.6569 14.2636 9.03498 14.5446C9.41306 14.8256 9.86953 14.9813 10.3405 14.99C9.5412 15.6169 8.55431 15.9568 7.5385 15.955C7.35857 15.9556 7.17876 15.9455 7 15.925C8.03177 16.5879 9.2326 16.9398 10.459 16.9385C14.609 16.9385 16.879 13.5005 16.879 10.5185C16.879 10.421 16.8765 10.3235 16.872 10.227C17.3138 9.90767 17.6951 9.51215 17.998 9.059" fill="white"/>
</svg>
