<svg width="24" height="24" viewBox="0 0 24 24" fill="none" xmlns="http://www.w3.org/2000/svg">
<rect width="24" height="24" rx="12" fill="#137D60"/>
<path d="M17.5 15.3785C17.5 15.9985 17.006 16.5 16.405 16.5H7.595C6.99 16.5 6.5 15.997 6.5 15.3785V10.835C6.5 10.557 6.695 10.4485 6.9275 10.587L11.3175 13.206C11.7085 13.4395 12.2925 13.4395 12.6825 13.206L17.0725 10.587C17.3085 10.447 17.5 10.5555 17.5 10.8345V15.378V15.3785Z" fill="white"/>
<path d="M17.5 8.6215C17.5 8.003 17.01 7.5 16.405 7.5H7.595C6.994 7.5 6.5 8.002 6.5 8.6215V8.854C6.5 9.131 6.6925 9.47 6.9285 9.611L11.7335 12.4775C11.867 12.5575 12.1335 12.5575 12.267 12.4775L17.072 9.611C17.3085 9.4695 17.5 9.131 17.5 8.854V8.6215Z" fill="white"/>
</svg>
