<svg width="35" height="35" viewBox="0 0 35 35" xmlns="http://www.w3.org/2000/svg" xmlns:xlink="http://www.w3.org/1999/xlink">
    <title>icon email</title>
    <g fill="none" fill-rule="evenodd">
        <circle fill="#B47DD6" cx="17.5" cy="17.5" r="17.5"></circle>
        <g transform="translate(9 13.104)">
            <path d="M17.218.81l-1.297 1.052L14.604 2.9c-.882.696-1.778 1.362-2.669 2.044L9.234 6.944l-.258.191-.257-.192-1.338-1c-.444-.335-.894-.663-1.335-1.003-.882-.68-1.772-1.35-2.643-2.044-.437-.346-.878-.686-1.312-1.037L.754.808 0 .214v10.379c0 .33.34.526.664.526h16.82c.324 0 .516-.196.516-.526V.138l-.782.673z" fill="#FFF"></path>
        </g>
        <g transform="translate(9 11)">
            <path d="M1.006 2.556l1.405.932c.463.31.926.63 1.385.945.92.627 1.826 1.28 2.735 1.922.455.32.904.653 1.355.98l1.093.794 2.47-1.778c.921-.64 1.831-1.294 2.76-1.921l1.391-.946 1.364-.93L18 1.86V.488c0-.33-.192-.488-.516-.488H.664C.34 0 0 .158 0 .488v1.435l1.006.633z" fill="#FFF"></path>
        </g>
    </g>
</svg>
